<?xml version="1.0" encoding="UTF-8"?>
<svg xmlns="http://www.w3.org/2000/svg" xmlns:xlink="http://www.w3.org/1999/xlink" width="200pt" height="200pt" viewBox="0 0 200 200" version="1.1">
<g id="surface1">
<path style=" stroke:none;fill-rule:nonzero;fill:rgb(3.137255%,48.235294%,73.333333%);fill-opacity:1;" d="M 201 39.957031 C 201 61.417969 156.246094 78.824219 101.054688 78.824219 C 45.839844 78.824219 1.082031 61.417969 1.082031 39.957031 L 1.082031 162.128906 C 1.082031 183.589844 45.835938 201 101.054688 201 C 156.253906 201 201 183.589844 201 162.128906 L 201 39.957031 "/>
<path style="fill:none;stroke-width:0.5;stroke-linecap:butt;stroke-linejoin:miter;stroke:rgb(100%,100%,100%);stroke-opacity:1;stroke-miterlimit:4;" d="M 46.23 9.190117 C 46.23 14.126133 35.936602 18.12957 23.242578 18.12957 C 10.543164 18.12957 0.248867 14.126133 0.248867 9.190117 L 0.248867 37.289648 C 0.248867 42.225664 10.542266 46.23 23.242578 46.23 C 35.938398 46.23 46.23 42.225664 46.23 37.289648 Z M 46.23 9.190117 " transform="matrix(4.347826,0,0,4.347826,0,0)"/>
<path style=" stroke:none;fill-rule:nonzero;fill:rgb(3.137255%,48.235294%,73.333333%);fill-opacity:1;" d="M 101.054688 78.824219 C 156.253906 78.824219 201 61.417969 201 39.957031 C 201 18.464844 156.253906 1.078125 101.054688 1.078125 C 45.839844 1.078125 1.082031 18.46875 1.082031 39.957031 C 1.082031 61.417969 45.835938 78.824219 101.054688 78.824219 "/>
<path style="fill:none;stroke-width:0.5;stroke-linecap:butt;stroke-linejoin:miter;stroke:rgb(100%,100%,100%);stroke-opacity:1;stroke-miterlimit:4;" d="M 23.242578 18.12957 C 35.938398 18.12957 46.23 14.126133 46.23 9.190117 C 46.23 4.246914 35.938398 0.247969 23.242578 0.247969 C 10.543164 0.247969 0.248867 4.247813 0.248867 9.190117 C 0.248867 14.126133 10.542266 18.12957 23.242578 18.12957 Z M 23.242578 18.12957 " transform="matrix(4.347826,0,0,4.347826,0,0)"/>
<path style=" stroke:none;fill-rule:nonzero;fill:rgb(100%,100%,100%);fill-opacity:1;" d="M 78.234375 24.757812 L 86.46875 37.128906 L 55.261719 44.347656 L 62.074219 38.65625 L 13.84375 30.421875 L 25.9375 21.359375 L 72.5 29.230469 L 78.234375 24.753906 M 122.136719 54.773438 L 116.507812 42.011719 L 144.65625 36.386719 L 139.777344 40.761719 L 186.695312 48.765625 L 175.4375 57.785156 L 128.796875 49.023438 L 122.136719 54.773438 M 93.238281 66.410156 L 63.199219 72.050781 L 62.074219 58.167969 L 70.71875 60.039062 L 87.234375 45.917969 L 101.859375 48.398438 L 84.21875 63.769531 L 93.238281 66.410156 "/>
<path style="fill:none;stroke-width:0.625;stroke-linecap:butt;stroke-linejoin:miter;stroke:rgb(100%,100%,100%);stroke-opacity:1;stroke-miterlimit:4;" d="M 42.618281 17.138594 L 42.618281 38.389336 M 40.11793 18.515 L 40.11793 39.764844 M 37.563672 19.515859 L 37.563672 40.771094 M 34.609609 20.340625 L 34.609609 41.591367 M 31.75707 20.965938 L 31.75707 42.215781 M 28.935078 21.342383 L 28.935078 42.592227 M 25.889375 21.782617 L 25.889375 43.037852 M 3.086133 17.138594 L 3.086133 38.389336 M 5.585586 18.515 L 5.585586 39.764844 M 8.139844 19.515859 L 8.139844 40.771094 M 11.093906 20.340625 L 11.093906 41.591367 M 13.940156 20.965938 L 13.940156 42.215781 M 16.768438 21.342383 L 16.768438 42.592227 M 19.815039 21.782617 L 19.815039 43.037852 M 22.840977 21.859883 L 22.840977 43.115117 " transform="matrix(4.347826,0,0,4.347826,0,0)"/>
<path style=" stroke:none;fill-rule:nonzero;fill:rgb(100%,100%,100%);fill-opacity:1;" d="M 104.703125 17.363281 L 136.226562 8.722656 L 136.617188 22.253906 L 128.71875 20.738281 L 113.324219 33.5 L 98.652344 31.375 L 114.53125 18.875 L 104.703125 17.363281 "/>
</g>
</svg>
