<?xml version="1.0" encoding="UTF-8"?>
<svg xmlns="http://www.w3.org/2000/svg" xmlns:xlink="http://www.w3.org/1999/xlink" width="268pt" height="200pt" viewBox="0 0 268 200" version="1.1">
<g id="surface1">
<path style="fill-rule:nonzero;fill:rgb(3.137255%,48.235294%,73.333333%);fill-opacity:1;stroke-width:0.5;stroke-linecap:butt;stroke-linejoin:miter;stroke:rgb(100%,100%,100%);stroke-opacity:1;stroke-miterlimit:4;" d="M 0.707862 39.190234 L 48.392753 39.190234 L 48.392753 7.86207 L 0.707862 7.86207 Z M 0.707862 39.190234 " transform="matrix(4.872727,0,0,4.878049,0,0)"/>
<path style=" stroke:none;fill-rule:nonzero;fill:rgb(3.137255%,48.235294%,73.333333%);fill-opacity:1;" d="M 262.527344 152.035156 L 235.804688 191.171875 L 235.804688 38.351562 L 262.527344 5.914062 L 262.527344 152.035156 "/>
<path style="fill:none;stroke-width:0.5;stroke-linecap:butt;stroke-linejoin:miter;stroke:rgb(100%,100%,100%);stroke-opacity:1;stroke-miterlimit:4;" d="M 53.87688 31.167207 L 48.392753 39.190234 L 48.392753 7.86207 L 53.87688 1.212383 Z M 53.87688 31.167207 " transform="matrix(4.872727,0,0,4.878049,0,0)"/>
<path style=" stroke:none;fill-rule:nonzero;fill:rgb(3.137255%,48.235294%,73.333333%);fill-opacity:1;" d="M 43.539062 5.914062 L 262.527344 5.914062 L 235.804688 38.351562 L 3.449219 38.351562 L 43.539062 5.914062 "/>
<path style="fill:none;stroke-width:0.5;stroke-linecap:butt;stroke-linejoin:miter;stroke:rgb(100%,100%,100%);stroke-opacity:1;stroke-miterlimit:4;" d="M 8.935255 1.212383 L 53.87688 1.212383 L 48.392753 7.86207 L 0.707862 7.86207 Z M 8.935255 1.212383 " transform="matrix(4.872727,0,0,4.878049,0,0)"/>
<path style=" stroke:none;fill-rule:nonzero;fill:rgb(100%,100%,100%);fill-opacity:1;" d="M 203.878906 117.261719 L 164.957031 117.289062 L 164.957031 111.09375 L 203.878906 111.074219 L 203.878906 101.40625 L 226.410156 114.171875 L 203.878906 126.9375 L 203.878906 117.261719 M 48.179688 117.261719 L 9.257812 117.289062 L 9.257812 111.09375 L 48.179688 111.074219 L 48.179688 101.40625 L 70.707031 114.171875 L 48.179688 126.9375 L 48.179688 117.261719 M 197.144531 76.152344 L 164.550781 97.375 L 161.171875 92.179688 L 193.789062 70.960938 L 188.53125 62.839844 L 214.390625 61.269531 L 202.425781 84.25 L 197.144531 76.152344 M 197.144531 152.535156 L 164.550781 131.292969 L 161.171875 136.488281 L 193.789062 157.730469 L 188.53125 165.828125 L 214.390625 167.425781 L 202.421875 144.414062 L 197.144531 152.535156 "/>
<path style=" stroke:none;fill-rule:nonzero;fill:rgb(3.137255%,48.235294%,73.333333%);fill-opacity:1;" d="M 156.605469 113.386719 C 156.605469 134.605469 139.421875 151.804688 118.226562 151.800781 C 97.03125 151.800781 79.851562 134.601562 79.851562 113.382812 C 79.851562 92.164062 97.03125 74.964844 118.226562 74.964844 C 139.425781 74.960938 156.609375 92.164062 156.605469 113.386719 "/>
<path style="fill:none;stroke-width:1;stroke-linecap:butt;stroke-linejoin:miter;stroke:rgb(100%,100%,100%);stroke-opacity:1;stroke-miterlimit:4;" d="M 32.139182 23.244277 C 32.139182 27.594121 28.612698 31.119961 24.262914 31.11916 C 19.91313 31.11916 16.387448 27.59332 16.387448 23.243477 C 16.387448 18.893633 19.91313 15.367793 24.262914 15.367793 C 28.6135 15.366992 32.139984 18.893633 32.139182 23.244277 Z M 32.139182 23.244277 " transform="matrix(4.872727,0,0,4.878049,0,0)"/>
</g>
</svg>
