<?xml version="1.0" encoding="UTF-8"?>
<svg xmlns="http://www.w3.org/2000/svg" xmlns:xlink="http://www.w3.org/1999/xlink" width="270pt" height="200pt" viewBox="0 0 270 200" version="1.1">
<g id="surface1">
<path style=" stroke:none;fill-rule:nonzero;fill:rgb(3.137255%,48.235294%,73.333333%);fill-opacity:1;" d="M 4.273438 26.976562 L 34.59375 3.234375 L 265.246094 3.234375 L 234.125 26.980469 L 4.273438 26.980469 "/>
<path style="fill:none;stroke-width:0.5;stroke-linecap:butt;stroke-linejoin:miter;stroke:rgb(100%,100%,100%);stroke-opacity:1;stroke-miterlimit:4;" d="M 0.728067 4.58668 L 5.89375 0.547187 L 45.190075 0.547187 L 39.887963 4.58668 Z M 0.728067 4.58668 " transform="matrix(5.869565,0,0,5.882353,0,0)"/>
<path style="fill:none;stroke-width:0.5;stroke-linecap:round;stroke-linejoin:round;stroke:rgb(100%,100%,100%);stroke-opacity:1;stroke-miterlimit:4;" d="M 39.887963 32.145937 L 0.728067 32.145937 " transform="matrix(5.869565,0,0,5.882353,0,0)"/>
<path style=" stroke:none;fill-rule:nonzero;fill:rgb(3.137255%,48.235294%,73.333333%);fill-opacity:1;" d="M 234.980469 25.683594 L 234.980469 189.148438 L 3.382812 189.148438 L 3.382812 25.363281 L 234.980469 25.683594 "/>
<path style="fill:none;stroke-width:0.5;stroke-linecap:butt;stroke-linejoin:miter;stroke:rgb(100%,100%,100%);stroke-opacity:1;stroke-miterlimit:4;" d="M 40.033709 4.366875 L 40.033709 32.153906 L 0.576331 32.153906 L 0.576331 4.313086 Z M 40.033709 4.366875 " transform="matrix(5.869565,0,0,5.882353,0,0)"/>
<path style=" stroke:none;fill-rule:nonzero;fill:rgb(3.137255%,48.235294%,73.333333%);fill-opacity:1;" d="M 264.128906 164.125 L 264.128906 3.800781 L 234.40625 26.292969 L 234.40625 188.117188 L 264.128906 164.117188 "/>
<path style="fill:none;stroke-width:0.5;stroke-linecap:butt;stroke-linejoin:miter;stroke:rgb(100%,100%,100%);stroke-opacity:1;stroke-miterlimit:4;" d="M 44.99974 27.901914 L 44.99974 0.644805 L 39.93588 4.469805 L 39.93588 31.979922 Z M 44.99974 27.901914 " transform="matrix(5.869565,0,0,5.882353,0,0)"/>
<path style=" stroke:none;fill-rule:nonzero;fill:rgb(100%,100%,100%);fill-opacity:1;" d="M 215.238281 126.757812 L 184.570312 126.757812 L 184.570312 122.164062 L 169.464844 131.351562 L 184.570312 140.8125 L 184.570312 136.210938 L 215.238281 136.210938 L 215.238281 126.765625 M 64.828125 74.683594 L 34.160156 74.683594 L 34.160156 70.089844 L 19.0625 79.28125 L 34.160156 88.707031 L 34.160156 84.117188 L 64.828125 84.117188 L 64.828125 74.6875 M 175.199219 84.742188 L 204.605469 84.742188 L 204.605469 89.335938 L 219.703125 80.148438 L 204.605469 70.695312 L 204.605469 75.28125 L 175.199219 75.28125 L 175.199219 84.742188 M 21.125 136.46875 L 50.53125 136.46875 L 50.53125 141.035156 L 65.628906 131.875 L 50.53125 122.429688 L 50.53125 127.019531 L 21.125 127.019531 L 21.125 136.46875 M 49.210938 174.324219 C 49.003906 171.226562 51.335938 168.546875 54.421875 168.324219 C 55.910156 168.226562 57.375 168.726562 58.496094 169.710938 C 59.613281 170.699219 60.292969 172.089844 60.386719 173.582031 C 60.601562 176.683594 58.265625 179.367188 55.175781 179.582031 C 52.082031 179.769531 49.417969 177.421875 49.210938 174.324219 "/>
<path style="fill:none;stroke-width:0.25;stroke-linecap:butt;stroke-linejoin:miter;stroke:rgb(13.72549%,12.156863%,12.54902%);stroke-opacity:1;stroke-miterlimit:4;" d="M 8.384086 29.635781 C 8.348814 29.10918 8.745457 28.652969 9.271875 28.613789 C 9.525434 28.597852 9.775 28.682852 9.965336 28.850195 C 10.156337 29.018203 10.272135 29.254609 10.288108 29.508281 C 10.324711 30.034883 9.927402 30.492422 9.400318 30.528945 C 8.873235 30.56082 8.420023 30.162383 8.384086 29.635781 Z M 8.384086 29.635781 " transform="matrix(5.869565,0,0,5.882353,0,0)"/>
<path style=" stroke:none;fill-rule:nonzero;fill:rgb(100%,100%,100%);fill-opacity:1;" d="M 61.101562 178.347656 L 49.667969 168.09375 L 79.273438 134.976562 L 90.707031 145.230469 L 61.101562 178.347656 "/>
<path style="fill:none;stroke-width:0.25;stroke-linecap:butt;stroke-linejoin:miter;stroke:rgb(13.72549%,12.156863%,12.54902%);stroke-opacity:1;stroke-miterlimit:4;" d="M 10.409896 30.319766 L 8.46195 28.575937 L 13.505845 22.946016 L 15.453791 24.68918 L 10.409896 30.319102 Z M 10.409896 30.319766 " transform="matrix(5.869565,0,0,5.882353,0,0)"/>
<path style=" stroke:none;fill-rule:nonzero;fill:rgb(100%,100%,100%);fill-opacity:1;" d="M 78.527344 93.847656 C 81.335938 69.289062 103.515625 51.625 127.992188 54.433594 C 152.46875 57.246094 170.128906 79.519531 167.316406 104.042969 C 164.507812 128.570312 142.320312 146.234375 117.824219 143.417969 C 93.378906 140.601562 75.71875 118.371094 78.527344 93.847656 Z M 71.308594 93.011719 C 68.035156 121.53125 88.53125 147.382812 117.015625 150.660156 C 145.484375 153.933594 171.273438 133.363281 174.539062 104.847656 C 177.777344 76.324219 157.285156 50.46875 128.832031 47.199219 C 100.371094 43.921875 74.542969 64.492188 71.308594 93.019531 "/>
<path style="fill:none;stroke-width:0.25;stroke-linecap:butt;stroke-linejoin:miter;stroke:rgb(13.72549%,12.156863%,12.54902%);stroke-opacity:1;stroke-miterlimit:4;" d="M 13.378733 15.952773 C 13.857234 11.779141 17.635995 8.774922 21.806076 9.253711 C 25.976157 9.733164 28.984925 13.516992 28.505758 17.687305 C 28.027257 21.856953 24.24783 24.85918 20.073756 24.381719 C 15.908999 23.902266 12.900231 20.123086 13.378733 15.952773 Z M 12.148872 15.811992 C 11.591175 20.660977 15.083102 25.055742 19.935995 25.612227 C 24.786227 26.168047 29.179919 22.671758 29.736285 17.824102 C 30.287992 12.975781 26.79673 8.581016 21.949161 8.023867 C 17.10026 7.466719 12.699913 10.963008 12.148872 15.811992 Z M 12.148872 15.811992 " transform="matrix(5.869565,0,0,5.882353,0,0)"/>
<path style=" stroke:none;fill-rule:nonzero;fill:rgb(100%,100%,100%);fill-opacity:1;" d="M 72.136719 96.140625 C 74.949219 71.589844 97.125 53.917969 121.601562 56.734375 C 146.074219 59.546875 163.703125 81.777344 160.925781 106.304688 C 158.121094 130.835938 135.902344 148.53125 111.433594 145.71875 C 86.980469 142.90625 69.324219 120.671875 72.136719 96.140625 Z M 64.917969 95.3125 C 61.640625 123.828125 82.164062 149.683594 110.59375 152.957031 C 139.085938 156.230469 164.886719 135.664062 168.152344 107.136719 C 171.378906 78.625 150.894531 52.769531 122.4375 49.5 C 93.976562 46.21875 68.152344 66.789062 64.917969 95.3125 "/>
<path style="fill:none;stroke-width:0.25;stroke-linecap:butt;stroke-linejoin:miter;stroke:rgb(13.72549%,12.156863%,12.54902%);stroke-opacity:1;stroke-miterlimit:4;" d="M 12.289959 16.343906 C 12.769126 12.168945 16.547222 9.166719 20.717303 9.644844 C 24.886719 10.122969 27.890162 13.902812 27.416985 18.073125 C 26.939149 22.242773 23.153733 25.250312 18.984983 24.772187 C 14.818895 24.292734 11.810793 20.514219 12.289959 16.343906 Z M 11.060098 16.203789 C 10.501736 21.052109 13.998987 25.444883 18.841898 26.002695 C 23.696123 26.55918 28.091811 23.062891 28.648177 18.213906 C 29.197888 13.36625 25.707957 8.97082 20.859722 8.413672 C 16.010822 7.857852 11.61114 11.354141 11.060098 16.203789 Z M 11.060098 16.203789 " transform="matrix(5.869565,0,0,5.882353,0,0)"/>
<path style=" stroke:none;fill-rule:nonzero;fill:rgb(3.137255%,48.235294%,73.333333%);fill-opacity:1;" d="M 137.34375 129.605469 C 138.503906 129.59375 139.4375 128.640625 139.429688 127.476562 L 139.429688 101.546875 C 139.429688 100.390625 138.496094 99.453125 137.34375 99.445312 L 97.1875 99.445312 C 96.015625 99.445312 95.0625 100.386719 95.0625 101.546875 L 95.0625 127.476562 C 95.0625 128.652344 96.007812 129.605469 97.1875 129.605469 L 137.335938 129.605469 "/>
<path style="fill:none;stroke-width:0.375;stroke-linecap:round;stroke-linejoin:round;stroke:rgb(100%,100%,100%);stroke-opacity:1;stroke-miterlimit:4;" d="M 23.399306 22.03293 C 23.596962 22.030937 23.755353 21.86957 23.754687 21.67168 L 23.754687 17.262305 C 23.754022 17.065742 23.594965 16.907031 23.399306 16.905703 L 16.55787 16.905703 C 16.360214 16.905039 16.198495 17.06375 16.195833 17.262305 L 16.195833 21.67168 C 16.195833 21.872227 16.356887 22.03293 16.55787 22.03293 Z M 23.399306 22.03293 " transform="matrix(5.869565,0,0,5.882353,0,0)"/>
<path style=" stroke:none;fill-rule:nonzero;fill:rgb(3.137255%,48.235294%,73.333333%);fill-opacity:1;" d="M 139.429688 99.386719 L 147.882812 90.917969 L 103.515625 90.917969 L 95.0625 99.386719 L 139.429688 99.386719 "/>
<path style="fill:none;stroke-width:0.375;stroke-linecap:round;stroke-linejoin:round;stroke:rgb(100%,100%,100%);stroke-opacity:1;stroke-miterlimit:4;" d="M 23.754687 16.895078 L 25.19485 15.454727 L 17.635995 15.454727 L 16.195833 16.895078 Z M 23.754687 16.895078 " transform="matrix(5.869565,0,0,5.882353,0,0)"/>
<path style=" stroke:none;fill-rule:nonzero;fill:rgb(3.137255%,48.235294%,73.333333%);fill-opacity:1;" d="M 147.882812 121.070312 L 147.882812 90.910156 L 139.429688 99.386719 L 139.429688 129.542969 L 147.882812 121.070312 "/>
<path style="fill:none;stroke-width:0.375;stroke-linecap:round;stroke-linejoin:round;stroke:rgb(100%,100%,100%);stroke-opacity:1;stroke-miterlimit:4;" d="M 25.19485 20.583281 L 25.19485 15.456055 L 23.754687 16.895742 L 23.754687 22.022969 Z M 25.19485 20.583281 " transform="matrix(5.869565,0,0,5.882353,0,0)"/>
<path style=" stroke:none;fill-rule:nonzero;fill:rgb(3.137255%,48.235294%,73.333333%);fill-opacity:1;" d="M 121.753906 72.269531 C 115.371094 72.269531 110.199219 77.453125 110.199219 83.847656 L 110.222656 94.160156 C 110.3125 94.957031 109.480469 95.824219 108.246094 95.941406 C 107.015625 96.089844 105.691406 95.480469 105.617188 94.648438 L 105.617188 84.421875 C 105.425781 78.617188 108.40625 73.167969 113.390625 70.207031 C 118.378906 67.246094 124.578125 67.246094 129.566406 70.207031 C 134.554688 73.167969 137.535156 78.617188 137.34375 84.421875 L 137.34375 95.566406 C 137.253906 96.40625 136.363281 96.953125 135.128906 96.886719 C 134.015625 96.859375 132.980469 95.394531 133.074219 94.566406 L 133.132812 83.847656 C 133.132812 77.441406 128.136719 72.269531 121.746094 72.269531 "/>
<path style="fill:none;stroke-width:0.375;stroke-linecap:round;stroke-linejoin:round;stroke:rgb(100%,100%,100%);stroke-opacity:1;stroke-miterlimit:4;" d="M 20.743258 12.287148 C 19.656481 12.287148 18.775347 13.167695 18.774682 14.254102 L 18.778675 16.007227 C 18.793981 16.144023 18.652228 16.290117 18.441927 16.310039 C 18.232292 16.335273 18.006684 16.23168 17.994039 16.090234 L 17.994039 14.351719 C 17.993374 12.857578 19.204601 11.646328 20.698669 11.646992 C 22.186748 11.646992 23.399306 12.856914 23.399306 14.351719 L 23.399306 16.246953 C 23.383999 16.387734 23.232263 16.480703 23.021962 16.470742 C 22.832292 16.466758 22.655932 16.21707 22.671904 16.076289 L 22.681887 14.254102 C 22.681887 13.165703 21.8307 12.287148 20.741927 12.287148 Z M 20.743258 12.287148 " transform="matrix(5.869565,0,0,5.882353,0,0)"/>
<path style=" stroke:none;fill-rule:nonzero;fill:rgb(100%,100%,100%);fill-opacity:1;" d="M 117.191406 117.171875 C 119.199219 117.171875 120.832031 115.078125 120.832031 112.457031 C 120.832031 109.871094 119.199219 107.769531 117.191406 107.769531 C 115.179688 107.769531 113.574219 109.875 113.574219 112.457031 C 113.574219 115.078125 115.179688 117.171875 117.191406 117.171875 "/>
<path style=" stroke:none;fill-rule:nonzero;fill:rgb(100%,100%,100%);fill-opacity:1;" d="M 118.277344 121.992188 L 118.277344 112.742188 L 116.011719 114.410156 L 116.011719 123.664062 L 118.277344 121.992188 "/>
</g>
</svg>
