<?xml version="1.0" encoding="UTF-8"?>
<svg xmlns="http://www.w3.org/2000/svg" xmlns:xlink="http://www.w3.org/1999/xlink" width="84pt" height="200pt" viewBox="0 0 84 200" version="1.1">
<g id="surface1">
<path style=" stroke:none;fill-rule:nonzero;fill:rgb(0.784314%,43.921569%,62.352941%);fill-opacity:1;" d="M 75.117188 181.601562 L 46.09375 181.601562 C 30.554688 163.914062 32.601562 127.578125 32.601562 127.578125 L 2.613281 127.578125 L 2.613281 69.503906 L 32.601562 69.503906 C 32.601562 69.503906 30.554688 33.15625 46.09375 15.535156 L 75.117188 15.535156 L 75.117188 181.601562 "/>
<path style="fill:none;stroke-width:0.5;stroke-linecap:butt;stroke-linejoin:miter;stroke:rgb(0.784314%,43.921569%,62.352941%);stroke-opacity:1;stroke-miterlimit:4;" d="M 7.154018 17.251035 L 4.389881 17.251035 C 2.90997 15.572949 3.104911 12.121035 3.104911 12.121035 L 0.248884 12.121035 L 0.248884 6.602871 L 3.104911 6.602871 C 3.104911 6.602871 2.90997 3.149844 4.389881 1.47584 L 7.154018 1.47584 Z M 7.154018 17.251035 " transform="matrix(10.5,0,0,10.526316,0,0)"/>
</g>
</svg>
