<?xml version="1.0" encoding="UTF-8"?>
<svg xmlns="http://www.w3.org/2000/svg" xmlns:xlink="http://www.w3.org/1999/xlink" width="435pt" height="200pt" viewBox="0 0 435 200" version="1.1">
<g id="surface1">
<path style=" stroke:none;fill-rule:nonzero;fill:rgb(3.137255%,48.235294%,73.333333%);fill-opacity:1;" d="M 5.847656 179.957031 L 324.28125 179.957031 L 324.28125 111.144531 L 5.847656 111.144531 Z M 5.847656 179.957031 "/>
<path style="fill:none;stroke-width:0.5;stroke-linecap:butt;stroke-linejoin:miter;stroke:rgb(100%,100%,100%);stroke-opacity:1;stroke-miterlimit:4;" d="M 0.820016 25.192891 L 45.473922 25.192891 L 45.473922 15.560234 L 0.820016 15.560234 Z M 0.820016 25.192891 " transform="matrix(7.131148,0,0,7.142857,0,0)"/>
<path style=" stroke:none;fill-rule:nonzero;fill:rgb(3.137255%,48.235294%,73.333333%);fill-opacity:1;" d="M 5.011719 111.65625 L 133.636719 7.242188 L 430.757812 7.242188 L 323.96875 111.65625 L 5.011719 111.65625 "/>
<path style="fill:none;stroke-width:0.5;stroke-linecap:butt;stroke-linejoin:miter;stroke:rgb(100%,100%,100%);stroke-opacity:1;stroke-miterlimit:4;" d="M 0.702793 15.631875 L 18.739862 1.012812 L 60.405119 1.012812 L 45.430101 15.632969 L 0.702793 15.632969 Z M 0.702793 15.631875 " transform="matrix(7.131148,0,0,7.142857,0,0)"/>
<path style=" stroke:none;fill-rule:nonzero;fill:rgb(3.137255%,48.235294%,73.333333%);fill-opacity:1;" d="M 324.105469 183.191406 L 430.4375 77.101562 L 430.507812 7.441406 L 324.109375 111.527344 L 324.109375 183.191406 "/>
<path style="fill:none;stroke-width:0.5;stroke-linecap:butt;stroke-linejoin:miter;stroke:rgb(100%,100%,100%);stroke-opacity:1;stroke-miterlimit:4;" d="M 45.449273 25.646797 L 60.360201 10.794219 L 60.370061 1.043984 L 45.448177 15.613828 L 45.448177 25.646797 Z M 45.449273 25.646797 " transform="matrix(7.131148,0,0,7.142857,0,0)"/>
<path style=" stroke:none;fill-rule:nonzero;fill:rgb(100%,100%,100%);fill-opacity:1;" d="M 211.324219 34.34375 L 218.5 58.058594 L 169.644531 51.957031 L 183.320312 46.964844 L 133.429688 19.800781 L 152.683594 12.472656 L 200.144531 38.105469 L 211.324219 34.34375 M 235.378906 84.105469 L 227.164062 61.269531 L 275.570312 67.542969 L 266.796875 71.734375 L 321.007812 97.222656 L 300.957031 105.214844 L 247.292969 78.742188 L 235.386719 84.101562 M 337.269531 15.292969 L 390.714844 19.371094 L 383.828125 40.480469 L 372.503906 33.785156 L 262.574219 59.515625 L 241.0625 48.113281 L 351.609375 23.070312 L 337.269531 15.292969 M 104.671875 104.855469 L 55.179688 96.984375 L 61.140625 74.871094 L 73.429688 82.535156 L 184.769531 59.808594 L 205.960938 71.734375 L 92.25 95.828125 L 104.679688 104.855469 M 27.960938 158.785156 L 95.933594 158.785156 L 95.933594 130.886719 L 27.953125 130.886719 L 27.953125 158.785156 Z M 228.273438 158.785156 L 296.242188 158.785156 L 296.242188 130.886719 L 228.28125 130.886719 L 228.28125 158.785156 Z M 228.273438 158.785156 "/>
</g>
</svg>
