<?xml version="1.0" encoding="UTF-8"?>
<svg xmlns="http://www.w3.org/2000/svg" xmlns:xlink="http://www.w3.org/1999/xlink" width="337pt" height="200pt" viewBox="0 0 337 200" version="1.1">
<defs>
<clipPath id="clip1">
  <path d="M 0 0 L 337 0 L 337 196.984375 L 0 196.984375 Z M 0 0 "/>
</clipPath>
</defs>
<g id="surface1">
<path style=" stroke:none;fill-rule:nonzero;fill:rgb(100%,100%,100%);fill-opacity:1;" d="M 121.554688 16.695312 C 60.296875 4.441406 27.960938 35.875 33.078125 63.046875 L 33.496094 64.53125 C -14.242188 72.671875 -1.726562 129.113281 21.167969 129.113281 L 23.425781 129.050781 C 17.644531 155.570312 73.4375 182.558594 104.539062 169.074219 L 106.535156 166.878906 C 117.613281 190.734375 157.011719 194.714844 195.988281 195.710938 C 229.75 196.578125 249.453125 193.898438 263.929688 179.0625 L 266.167969 179.726562 C 320.199219 184.074219 344.824219 146.660156 333.011719 119.808594 L 335.921875 118.992188 C 354.347656 114.113281 356.472656 71.492188 324.851562 65.179688 L 325.46875 63.535156 C 339.191406 35.792969 306.828125 9.652344 261.917969 14.5625 L 258.792969 12.933594 C 226.644531 -16.234375 134.113281 -11.472656 123.398438 17.378906 L 121.554688 16.695312 "/>
<g clip-path="url(#clip1)" clip-rule="nonzero">
<path style="fill:none;stroke-width:4;stroke-linecap:butt;stroke-linejoin:miter;stroke:rgb(0.784314%,43.921569%,62.352941%);stroke-opacity:1;stroke-miterlimit:4;" d="M 285.782534 431.984075 C 141.761655 460.733624 65.737881 386.985577 77.768703 323.236178 L 78.751373 319.753606 C -33.484257 300.654447 -4.059254 168.234225 49.767194 168.234225 L 55.07545 168.380859 C 41.483376 106.161959 172.656072 42.843299 245.777755 74.479718 L 250.470694 79.630258 C 276.516046 23.661659 369.144192 14.322867 460.780483 11.985877 C 540.156357 9.951322 586.479614 16.238281 620.514901 51.045673 L 625.777238 49.48768 C 752.808024 39.28741 810.702911 127.066556 782.930998 190.064453 L 789.772954 191.979868 C 833.093097 203.426532 838.089103 303.422175 763.74597 318.232272 L 765.197016 322.090595 C 797.459823 387.178035 721.371762 448.507963 615.785227 436.987981 L 608.43816 440.809645 C 532.855209 509.242187 315.308559 498.070463 290.117303 430.380258 Z M 285.782534 431.984075 " transform="matrix(0.42534,0,0,-0.42623,0,200.819672)"/>
</g>
</g>
</svg>
