<?xml version="1.0" encoding="UTF-8"?>
<svg xmlns="http://www.w3.org/2000/svg" xmlns:xlink="http://www.w3.org/1999/xlink" width="287pt" height="200pt" viewBox="0 0 287 200" version="1.1">
<g id="surface1">
<path style="fill-rule:nonzero;fill:rgb(3.137255%,48.235294%,73.333333%);fill-opacity:1;stroke-width:0.5;stroke-linecap:butt;stroke-linejoin:miter;stroke:rgb(100%,100%,100%);stroke-opacity:1;stroke-miterlimit:4;" d="M 0.855183 37.881035 L 45.509146 37.881035 L 45.509146 10.890293 L 0.855183 10.890293 Z M 0.855183 37.881035 " transform="matrix(5.125,0,0,5.128205,0,0)"/>
<path style=" stroke:none;fill-rule:nonzero;fill:rgb(3.137255%,48.235294%,73.333333%);fill-opacity:1;" d="M 3.777344 56.214844 L 73.800781 2.625 L 287.308594 2.625 L 233.003906 56.214844 L 3.777344 56.214844 "/>
<path style="fill:none;stroke-width:0.5;stroke-linecap:butt;stroke-linejoin:miter;stroke:rgb(100%,100%,100%);stroke-opacity:1;stroke-miterlimit:4;" d="M 0.737043 10.961895 L 14.400152 0.511875 L 56.060213 0.511875 L 45.464177 10.961895 Z M 0.737043 10.961895 " transform="matrix(5.125,0,0,5.128205,0,0)"/>
<path style=" stroke:none;fill-rule:nonzero;fill:rgb(3.137255%,48.235294%,73.333333%);fill-opacity:1;" d="M 233.074219 196.617188 L 287.101562 135.332031 L 287.152344 2.757812 L 233.074219 56.113281 L 233.074219 196.617188 "/>
<path style="fill:none;stroke-width:0.5;stroke-linecap:butt;stroke-linejoin:miter;stroke:rgb(100%,100%,100%);stroke-opacity:1;stroke-miterlimit:4;" d="M 45.477896 38.340352 L 56.019817 26.389746 L 56.029726 0.537773 L 45.477896 10.94209 Z M 45.477896 38.340352 " transform="matrix(5.125,0,0,5.128205,0,0)"/>
<path style=" stroke:none;fill-rule:nonzero;fill:rgb(100%,100%,100%);fill-opacity:1;" d="M 92.941406 105.871094 C 98.246094 84.609375 84.632812 73.390625 72.871094 75.148438 L 72.214844 75.296875 C 68.722656 58.71875 44.269531 63.078125 44.269531 71.015625 L 44.320312 71.785156 C 32.832031 69.785156 21.144531 89.167969 26.976562 99.964844 L 27.925781 100.660156 C 17.621094 104.519531 15.886719 118.191406 15.441406 131.710938 C 15.066406 143.429688 16.242188 150.289062 22.648438 155.300781 L 22.371094 156.078125 C 20.46875 174.851562 36.691406 183.390625 48.296875 179.289062 L 48.675781 180.3125 C 50.777344 186.699219 69.21875 187.453125 71.945312 176.457031 L 72.671875 176.683594 C 84.660156 181.441406 95.992188 170.199219 93.863281 154.59375 L 94.570312 153.519531 C 107.203125 142.378906 105.128906 110.226562 92.640625 106.523438 L 92.941406 105.871094 M 209.128906 105.871094 C 214.433594 84.609375 200.847656 73.390625 189.0625 75.148438 L 188.4375 75.296875 C 184.898438 58.71875 160.484375 63.078125 160.484375 71.015625 L 160.511719 71.785156 C 149.023438 69.785156 137.335938 89.167969 143.191406 99.964844 L 144.113281 100.660156 C 133.808594 104.519531 132.082031 118.191406 131.628906 131.710938 C 131.25 143.429688 132.429688 150.289062 138.835938 155.300781 L 138.558594 156.078125 C 136.65625 174.851562 152.875 183.390625 164.511719 179.289062 L 164.859375 180.3125 C 166.960938 186.699219 185.425781 187.453125 188.160156 176.457031 L 188.855469 176.683594 C 200.871094 181.441406 212.179688 170.199219 210.054688 154.59375 L 210.75 153.519531 C 223.394531 142.378906 221.34375 110.226562 208.855469 106.519531 L 209.128906 105.871094 "/>
<path style=" stroke:none;fill-rule:nonzero;fill:rgb(3.137255%,48.235294%,73.333333%);fill-opacity:1;" d="M 65.464844 107.671875 L 52.300781 94.503906 L 45.84375 100.964844 L 44.445312 81.054688 L 64.636719 82.179688 L 57.628906 89.167969 L 70.796875 102.363281 L 65.464844 107.671875 M 65.464844 146.585938 L 52.300781 159.785156 L 45.84375 153.324219 L 44.445312 173.21875 L 64.636719 172.101562 L 57.628906 165.113281 L 70.796875 151.917969 L 65.464844 146.585938 M 52.652344 131.210938 L 34.03125 131.210938 L 34.03125 140.355469 L 18.96875 127.257812 L 34.035156 113.757812 L 34.035156 123.671875 L 52.652344 123.671875 L 52.652344 131.210938 M 171.566406 107.671875 L 184.757812 94.503906 L 191.1875 100.964844 L 192.585938 81.054688 L 172.421875 82.179688 L 179.425781 89.167969 L 166.261719 102.363281 L 171.566406 107.671875 M 171.566406 146.585938 L 184.757812 159.785156 L 191.1875 153.324219 L 192.585938 173.21875 L 172.421875 172.101562 L 179.425781 165.113281 L 166.261719 151.917969 L 171.566406 146.585938 M 182.25 131.210938 L 200.871094 131.210938 L 200.871094 140.355469 L 215.9375 127.257812 L 200.871094 113.757812 L 200.871094 123.671875 L 182.246094 123.671875 L 182.246094 131.210938 "/>
<path style=" stroke:none;fill-rule:nonzero;fill:rgb(100%,100%,100%);fill-opacity:1;" d="M 98.851562 131.4375 L 135.785156 131.4375 L 135.785156 123.898438 L 98.851562 123.898438 Z M 98.851562 131.4375 "/>
<path style=" stroke:none;fill-rule:nonzero;fill:rgb(3.137255%,48.235294%,73.333333%);fill-opacity:1;" d="M 131 131.210938 L 149.621094 131.210938 L 149.621094 140.355469 L 164.6875 127.257812 L 149.621094 113.757812 L 149.621094 123.671875 L 130.996094 123.671875 L 130.996094 131.210938 M 102.398438 131.210938 L 83.785156 131.210938 L 83.785156 140.355469 L 68.714844 127.257812 L 83.785156 113.757812 L 83.785156 123.671875 L 102.398438 123.671875 L 102.398438 131.210938 "/>
</g>
</svg>
