<?xml version="1.0" encoding="UTF-8"?>
<svg xmlns="http://www.w3.org/2000/svg" xmlns:xlink="http://www.w3.org/1999/xlink" width="302pt" height="200pt" viewBox="0 0 302 200" version="1.1">
<g id="surface1">
<path style="fill-rule:nonzero;fill:rgb(3.137255%,49.803922%,74.901961%);fill-opacity:1;stroke-width:0.5;stroke-linecap:butt;stroke-linejoin:miter;stroke:rgb(100%,100%,100%);stroke-opacity:1;stroke-miterlimit:4;" d="M 0.605171 38.626758 L 54.105973 38.626758 L 54.105973 5.09666 L 0.605171 5.09666 Z M 0.605171 38.626758 " transform="matrix(5.118644,0,0,5.128205,0,0)"/>
<path style=" stroke:none;fill-rule:nonzero;fill:rgb(3.137255%,49.803922%,74.901961%);fill-opacity:1;" d="M 24.519531 3.929688 L 298.394531 3.929688 L 276.921875 25.640625 L 3.078125 25.640625 L 24.519531 3.929688 "/>
<path style="fill:none;stroke-width:0.5;stroke-linecap:butt;stroke-linejoin:miter;stroke:rgb(100%,100%,100%);stroke-opacity:1;stroke-miterlimit:4;" d="M 4.79024 0.766289 L 58.29562 0.766289 L 54.100631 4.999922 L 0.601356 4.999922 Z M 4.79024 0.766289 " transform="matrix(5.118644,0,0,5.128205,0,0)"/>
<path style=" stroke:none;fill-rule:nonzero;fill:rgb(3.137255%,49.803922%,74.901961%);fill-opacity:1;" d="M 297.746094 165.042969 L 276.277344 196.488281 L 276.277344 24.539062 L 297.75 2.804688 L 297.75 165.042969 "/>
<path style="fill:none;stroke-width:0.5;stroke-linecap:butt;stroke-linejoin:miter;stroke:rgb(100%,100%,100%);stroke-opacity:1;stroke-miterlimit:4;" d="M 58.168939 32.183379 L 53.974713 38.315215 L 53.974713 4.785117 L 58.169702 0.546914 L 58.169702 32.183379 Z M 58.168939 32.183379 " transform="matrix(5.118644,0,0,5.128205,0,0)"/>
<path style=" stroke:none;fill-rule:nonzero;fill:rgb(100%,100%,100%);fill-opacity:1;" d="M 129.691406 141.574219 L 149.207031 127.257812 C 129.988281 127.078125 120.214844 127.628906 107.566406 128.507812 C 101.472656 147.160156 101.574219 152.097656 95.402344 164.558594 L 110.515625 155.644531 C 125.09375 166.621094 143.015625 169.324219 158.210938 163.660156 C 158.65625 163.359375 159.109375 163.082031 159.539062 162.789062 L 184.054688 144.804688 C 168.378906 156.277344 146.28125 155.175781 129.695312 141.574219 "/>
<path style="fill:none;stroke-width:0.239875;stroke-linecap:butt;stroke-linejoin:miter;stroke:rgb(13.72549%,12.156863%,12.54902%);stroke-opacity:1;stroke-miterlimit:4;" d="M 25.337063 27.606973 L 29.149718 24.815273 C 25.395062 24.780234 23.485681 24.887637 21.014629 25.059023 C 19.824128 28.69623 19.84397 29.659043 18.638206 32.088926 L 21.590801 30.350684 C 24.438845 32.491113 27.940139 33.018223 30.908759 31.91373 C 30.995757 31.855078 31.084282 31.800996 31.168227 31.743867 L 35.957704 28.236914 C 32.895217 30.474082 28.578125 30.259277 25.337826 27.606973 Z M 25.337063 27.606973 " transform="matrix(5.118644,0,0,5.128205,0,0)"/>
<path style=" stroke:none;fill-rule:nonzero;fill:rgb(100%,100%,100%);fill-opacity:1;" d="M 112.414062 116.082031 C 107.347656 100.113281 110.019531 82.480469 120.898438 70.011719 C 122.945312 67.660156 125.191406 65.578125 127.585938 63.855469 L 103.070312 81.835938 C 100.621094 83.636719 98.375 85.699219 96.375 87.988281 C 85.605469 100.332031 82.925781 117.765625 87.773438 133.640625 L 112.414062 116.082031 "/>
<path style="fill:none;stroke-width:0.239875;stroke-linecap:butt;stroke-linejoin:miter;stroke:rgb(13.72549%,12.156863%,12.54902%);stroke-opacity:1;stroke-miterlimit:4;" d="M 21.961688 22.635996 C 20.971893 19.52209 21.493882 16.083691 23.619231 13.652285 C 24.019117 13.19373 24.457924 12.787734 24.92573 12.451816 L 20.136253 15.958008 C 19.657763 16.30916 19.218957 16.711348 18.828228 17.157715 C 16.724247 19.564746 16.200732 22.964297 17.147791 26.059922 Z M 21.961688 22.635996 " transform="matrix(5.118644,0,0,5.128205,0,0)"/>
<path style=" stroke:none;fill-rule:nonzero;fill:rgb(100%,100%,100%);fill-opacity:1;" d="M 160.78125 63.378906 C 150.964844 59.691406 140.5625 59.070312 130.964844 61.621094 C 129.804688 62.308594 128.675781 63.054688 127.585938 63.851562 L 103.070312 81.832031 C 114.320312 73.574219 128.890625 71.839844 142.339844 76.496094 L 128.890625 86.117188 L 170.480469 85.234375 L 173.257812 54.511719 L 160.78125 63.378906 "/>
<path style="fill:none;stroke-width:0.239875;stroke-linecap:butt;stroke-linejoin:miter;stroke:rgb(13.72549%,12.156863%,12.54902%);stroke-opacity:1;stroke-miterlimit:4;" d="M 31.410906 12.358887 C 29.493132 11.639824 27.460886 11.518711 25.585847 12.016113 C 25.359194 12.150176 25.138646 12.295664 24.92573 12.451055 L 20.136253 15.957246 C 22.334101 14.346973 25.180619 14.00877 27.808115 14.916738 L 25.180619 16.792852 L 33.305787 16.620703 L 33.848381 10.629785 Z M 31.410906 12.358887 " transform="matrix(5.118644,0,0,5.128205,0,0)"/>
<path style=" stroke:none;fill-rule:nonzero;fill:rgb(100%,100%,100%);fill-opacity:1;" d="M 192.050781 75.445312 C 207.472656 100.5625 201.746094 125.574219 190.746094 138.625 C 188.738281 140.914062 186.496094 142.988281 184.054688 144.804688 L 159.539062 162.789062 C 161.988281 160.980469 164.230469 158.90625 166.226562 156.605469 C 186.199219 132.757812 174.5 108.972656 168.253906 93.300781 L 192.050781 75.445312 "/>
<path style="fill:none;stroke-width:0.239875;stroke-linecap:butt;stroke-linejoin:miter;stroke:rgb(13.72549%,12.156863%,12.54902%);stroke-opacity:1;stroke-miterlimit:4;" d="M 37.519855 14.711836 C 40.532737 19.609687 39.413972 24.486973 37.264965 27.031875 C 36.872711 27.478242 36.434667 27.882715 35.957704 28.236914 L 31.168227 31.743867 C 31.646717 31.391191 32.08476 30.986719 32.474726 30.538066 C 36.376669 25.887773 34.09106 21.249668 32.870796 18.193652 Z M 37.519855 14.711836 " transform="matrix(5.118644,0,0,5.128205,0,0)"/>
<path style=" stroke:none;fill-rule:nonzero;fill:rgb(100%,100%,100%);fill-opacity:1;" d="M 55.609375 120.113281 L 14.722656 119.691406 L 14.722656 111.875 L 55.609375 111.851562 L 55.609375 99.660156 L 79.308594 115.765625 L 55.609375 131.882812 L 55.609375 120.113281 M 230.289062 120.113281 L 271.207031 119.691406 L 271.207031 111.875 L 230.289062 111.851562 L 230.289062 99.660156 L 206.59375 115.765625 L 230.292969 131.882812 L 230.292969 120.113281 "/>
</g>
</svg>
