<?xml version="1.0" encoding="UTF-8"?>
<svg xmlns="http://www.w3.org/2000/svg" xmlns:xlink="http://www.w3.org/1999/xlink" width="144pt" height="200pt" viewBox="0 0 144 200" version="1.1">
<defs>
<clipPath id="clip1">
  <path d="M 111 0 L 144 0 L 144 194.257812 L 111 194.257812 Z M 111 0 "/>
</clipPath>
</defs>
<g id="surface1">
<path style=" stroke:none;fill-rule:nonzero;fill:rgb(3.137255%,48.235294%,73.333333%);fill-opacity:1;" d="M 147.019531 168.542969 L 147.019531 -3.589844 L 122.382812 19.882812 L 122.382812 192.011719 L 147.019531 168.542969 "/>
<g clip-path="url(#clip1)" clip-rule="nonzero">
<path style="fill:none;stroke-width:4;stroke-linecap:butt;stroke-linejoin:miter;stroke:rgb(100%,100%,100%);stroke-opacity:1;stroke-miterlimit:4;" d="M 306.29069 63.410757 L 306.29069 420.917368 L 254.964193 372.166466 L 254.964193 14.667969 Z M 306.29069 63.410757 " transform="matrix(0.48,0,0,-0.481481,0,199.074074)"/>
</g>
<path style=" stroke:none;fill-rule:nonzero;fill:rgb(3.137255%,48.235294%,73.333333%);fill-opacity:1;" d="M 147.019531 -3.589844 L 122.382812 19.882812 L 2.871094 19.882812 L 33.824219 -3.589844 L 147.019531 -3.589844 "/>
<path style="fill:none;stroke-width:4;stroke-linecap:butt;stroke-linejoin:miter;stroke:rgb(100%,100%,100%);stroke-opacity:1;stroke-miterlimit:4;" d="M 306.29069 420.917368 L 254.964193 372.166466 L 5.981445 372.166466 L 70.467122 420.917368 Z M 306.29069 420.917368 " transform="matrix(0.48,0,0,-0.481481,0,199.074074)"/>
<path style="fill-rule:nonzero;fill:rgb(3.137255%,48.235294%,73.333333%);fill-opacity:1;stroke-width:4;stroke-linecap:butt;stroke-linejoin:miter;stroke:rgb(100%,100%,100%);stroke-opacity:1;stroke-miterlimit:4;" d="M 5.981445 125.913161 L 254.956055 125.913161 L 254.956055 372.166466 L 5.981445 372.166466 Z M 5.981445 125.913161 " transform="matrix(0.48,0,0,-0.481481,0,199.074074)"/>
<path style="fill-rule:nonzero;fill:rgb(3.137255%,48.235294%,73.333333%);fill-opacity:1;stroke-width:4;stroke-linecap:butt;stroke-linejoin:miter;stroke:rgb(100%,100%,100%);stroke-opacity:1;stroke-miterlimit:4;" d="M 5.981445 14.667969 L 254.956055 14.667969 L 254.956055 123.414363 L 5.981445 123.414363 Z M 5.981445 14.667969 " transform="matrix(0.48,0,0,-0.481481,0,199.074074)"/>
<path style=" stroke:none;fill-rule:nonzero;fill:rgb(100%,100%,100%);fill-opacity:1;" d="M 51.953125 65.113281 L 33.789062 46.871094 L 36.863281 43.773438 L 25.445312 41.453125 L 27.75 52.910156 L 30.847656 49.808594 L 49.03125 68.054688 L 51.953125 65.113281 M 45.316406 77.058594 L 19.59375 77.058594 L 19.59375 72.679688 L 9.882812 79.128906 L 19.59375 85.597656 L 19.59375 81.214844 L 45.316406 81.214844 L 45.316406 77.058594 M 49.03125 90.203125 L 30.847656 108.449219 L 27.75 105.367188 L 25.445312 116.820312 L 36.863281 114.484375 L 33.789062 111.40625 L 51.953125 93.160156 L 49.03125 90.203125 M 60.933594 96.882812 L 60.933594 122.6875 L 56.570312 122.6875 L 63 132.410156 L 69.453125 122.6875 L 65.082031 122.6875 L 65.082031 96.882812 L 60.933594 96.882812 M 60.933594 62.125 L 60.933594 36.320312 L 56.570312 36.320312 L 63 26.597656 L 69.453125 36.320312 L 65.082031 36.320312 L 65.082031 62.125 L 60.933594 62.125 M 74.046875 93.160156 L 92.230469 111.40625 L 89.152344 114.484375 L 100.574219 116.820312 L 98.25 105.367188 L 95.175781 108.449219 L 76.988281 90.203125 L 74.046875 93.160156 M 80.699219 81.214844 L 106.425781 81.214844 L 106.425781 85.597656 L 116.117188 79.128906 L 106.425781 72.679688 L 106.425781 77.058594 L 80.699219 77.058594 L 80.699219 81.214844 M 76.988281 68.054688 L 95.175781 49.808594 L 98.25 52.910156 L 100.574219 41.453125 L 89.152344 43.773438 L 92.230469 46.871094 L 74.046875 65.113281 L 76.988281 68.054688 "/>
<path style=" stroke:none;fill-rule:nonzero;fill:rgb(100%,100%,100%);fill-opacity:1;" d="M 78.789062 100.964844 C 90.917969 92.445312 93.882812 75.667969 85.367188 63.496094 C 76.875 51.332031 60.148438 48.378906 48.019531 56.894531 C 35.890625 65.417969 32.941406 82.191406 41.4375 94.363281 C 49.929688 106.53125 66.65625 109.484375 78.789062 100.964844 "/>
<path style="fill:none;stroke-width:4;stroke-linecap:butt;stroke-linejoin:miter;stroke:rgb(13.72549%,12.156863%,12.54902%);stroke-opacity:1;stroke-miterlimit:4;" d="M 164.14388 203.765325 C 189.412435 221.459736 195.589193 256.304988 177.848307 281.585036 C 160.15625 306.848858 125.309245 312.982272 100.04069 295.295974 C 74.772135 277.59345 68.62793 242.75631 86.328125 217.476262 C 104.020182 192.204327 138.867187 186.070913 164.14388 203.765325 Z M 164.14388 203.765325 " transform="matrix(0.48,0,0,-0.481481,0,199.074074)"/>
<path style=" stroke:none;fill-rule:nonzero;fill:rgb(100%,100%,100%);fill-opacity:1;" d="M 64.140625 167.789062 L 89.871094 167.789062 L 89.871094 172.171875 L 99.5625 165.722656 L 89.871094 159.25 L 89.871094 163.632812 L 64.140625 163.632812 L 64.140625 167.792969 M 63.542969 160.621094 L 87.710938 151.800781 L 89.210938 155.921875 L 96.128906 146.519531 L 84.804688 143.789062 L 86.304688 147.890625 L 62.136719 156.710938 L 63.542969 160.621094 M 63.542969 170.628906 L 87.710938 179.449219 L 89.210938 175.351562 L 96.128906 184.734375 L 84.804688 187.480469 L 86.304688 183.363281 L 62.136719 174.542969 L 63.542969 170.628906 M 24.265625 167.789062 L 49.070312 167.789062 L 49.070312 172.171875 L 58.761719 165.722656 L 49.070312 159.25 L 49.070312 163.632812 L 24.265625 163.632812 L 24.265625 167.792969 "/>
</g>
</svg>
