<?xml version="1.0" encoding="UTF-8"?>
<svg xmlns="http://www.w3.org/2000/svg" xmlns:xlink="http://www.w3.org/1999/xlink" width="278pt" height="200pt" viewBox="0 0 278 200" version="1.1">
<g id="surface1">
<path style="fill-rule:nonzero;fill:rgb(3.137255%,48.235294%,73.333333%);fill-opacity:1;stroke-width:0.5;stroke-linecap:butt;stroke-linejoin:miter;stroke:rgb(100%,100%,100%);stroke-opacity:1;stroke-miterlimit:4;" d="M 0.707762 30.441855 L 40.273269 30.441855 L 40.273269 7.341855 L 0.707762 7.341855 Z M 0.707762 30.441855 " transform="matrix(6.043478,0,0,6.060606,0,0)"/>
<path style=" stroke:none;fill-rule:nonzero;fill:rgb(3.137255%,48.235294%,73.333333%);fill-opacity:1;" d="M 272.015625 142.484375 L 243.394531 184.507812 L 243.394531 44.496094 L 272.015625 9.710938 L 272.015625 142.484375 "/>
<path style="fill:none;stroke-width:0.5;stroke-linecap:butt;stroke-linejoin:miter;stroke:rgb(100%,100%,100%);stroke-opacity:1;stroke-miterlimit:4;" d="M 45.00978 23.509922 L 40.273915 30.443789 L 40.273915 7.341855 L 45.00978 1.602305 Z M 45.00978 23.509922 " transform="matrix(6.043478,0,0,6.060606,0,0)"/>
<path style=" stroke:none;fill-rule:nonzero;fill:rgb(3.137255%,48.235294%,73.333333%);fill-opacity:1;" d="M 47.242188 9.703125 L 272.015625 9.703125 L 243.394531 44.496094 L 4.277344 44.496094 L 47.246094 9.710938 "/>
<path style="fill:none;stroke-width:0.5;stroke-linecap:butt;stroke-linejoin:miter;stroke:rgb(100%,100%,100%);stroke-opacity:1;stroke-miterlimit:4;" d="M 7.817053 1.601016 L 45.00978 1.601016 L 40.273915 7.341855 L 0.707762 7.341855 L 7.817699 1.602305 Z M 7.817053 1.601016 " transform="matrix(6.043478,0,0,6.060606,0,0)"/>
<path style=" stroke:none;fill-rule:nonzero;fill:rgb(100%,100%,100%);fill-opacity:1;" d="M 182.75 113.570312 L 215.855469 113.570312 L 216.121094 121 L 233.035156 110.199219 L 216.121094 98.835938 L 215.855469 106.886719 L 182.453125 106.886719 L 182.75 113.570312 M 211.019531 169.738281 C 207.707031 170.441406 204.445312 168.34375 203.703125 165.03125 C 203.347656 163.4375 203.644531 161.769531 204.523438 160.394531 C 205.40625 159.023438 206.796875 158.0625 208.390625 157.726562 C 209.976562 157.367188 211.640625 157.660156 213.011719 158.539062 C 214.378906 159.417969 215.34375 160.804688 215.6875 162.398438 C 216.410156 165.714844 214.328125 168.996094 211.027344 169.738281 "/>
<path style="fill:none;stroke-width:0.475;stroke-linecap:butt;stroke-linejoin:miter;stroke:rgb(0%,0%,0%);stroke-opacity:1;stroke-miterlimit:4;" d="M 34.916901 28.006816 C 34.368789 28.122832 33.82908 27.776719 33.706272 27.230156 C 33.647454 26.967188 33.696577 26.691973 33.842008 26.465098 C 33.988085 26.238867 34.218188 26.080313 34.481902 26.024883 C 34.744323 25.965586 35.019672 26.013926 35.246543 26.158945 C 35.472769 26.303965 35.632419 26.532773 35.689299 26.795742 C 35.808875 27.342949 35.464366 27.884355 34.918194 28.006816 Z M 34.916901 28.006816 " transform="matrix(6.043478,0,0,6.060606,0,0)"/>
<path style=" stroke:none;fill-rule:nonzero;fill:rgb(100%,100%,100%);fill-opacity:1;" d="M 221.554688 169.496094 C 221.554688 174.449219 217.542969 178.503906 212.585938 178.503906 C 207.628906 178.496094 203.613281 174.46875 203.609375 169.496094 C 203.609375 164.527344 207.625 160.507812 212.585938 160.507812 C 217.542969 160.507812 221.554688 164.527344 221.554688 169.496094 "/>
<path style="fill:none;stroke-width:0.475;stroke-linecap:butt;stroke-linejoin:miter;stroke:rgb(0%,0%,0%);stroke-opacity:1;stroke-miterlimit:4;" d="M 36.660128 27.966855 C 36.660128 28.784121 35.996319 29.453145 35.17609 29.453145 C 34.355862 29.451855 33.691406 28.787344 33.69076 27.966855 C 33.69076 27.147012 34.355216 26.483789 35.17609 26.483789 C 35.996319 26.483789 36.660128 27.147012 36.660128 27.966855 Z M 36.660128 27.966855 " transform="matrix(6.043478,0,0,6.060606,0,0)"/>
<path style=" stroke:none;fill-rule:nonzero;fill:rgb(100%,100%,100%);fill-opacity:1;" d="M 219.601562 162.042969 L 208.132812 179.617188 L 157.425781 146.304688 L 168.910156 128.722656 L 219.601562 162.042969 "/>
<path style="fill:none;stroke-width:0.475;stroke-linecap:butt;stroke-linejoin:miter;stroke:rgb(0%,0%,0%);stroke-opacity:1;stroke-miterlimit:4;" d="M 36.336949 26.73709 L 34.439242 29.636836 L 26.04887 24.140273 L 27.949163 21.239883 Z M 36.336949 26.73709 " transform="matrix(6.043478,0,0,6.060606,0,0)"/>
<path style=" stroke:none;fill-rule:nonzero;fill:rgb(100%,100%,100%);fill-opacity:1;" d="M 106.671875 54.0625 C 75.71875 60.890625 56.101562 91.734375 62.917969 122.769531 C 69.730469 153.816406 100.484375 173.496094 131.425781 166.660156 C 162.359375 159.824219 182.011719 128.992188 175.171875 97.945312 C 168.347656 66.902344 137.632812 47.230469 106.671875 54.0625 "/>
<path style="fill:none;stroke-width:0.475;stroke-linecap:butt;stroke-linejoin:miter;stroke:rgb(0%,0%,0%);stroke-opacity:1;stroke-miterlimit:4;" d="M 17.650742 8.920312 C 12.529002 10.046953 9.282992 15.136172 10.410887 20.256973 C 11.538135 25.379707 16.626911 28.626855 21.746712 27.498926 C 26.86522 26.370996 30.117047 21.283711 28.985274 16.160977 C 27.856087 11.038887 22.773775 7.793027 17.650742 8.920312 Z M 17.650742 8.920312 " transform="matrix(6.043478,0,0,6.060606,0,0)"/>
<path style=" stroke:none;fill-rule:nonzero;fill:rgb(100%,100%,100%);fill-opacity:1;" d="M 60.9375 108.035156 L 43.9375 108.035156 L 44.230469 114.726562 L 62.707031 114.726562 M 73.886719 143.816406 L 49.660156 159.59375 L 53.558594 165.0625 L 78.4375 148.816406 M 73.066406 73.121094 L 51.816406 59.296875 L 48.425781 65.042969 L 69.136719 78.535156 M 129.691406 158.789062 C 103.078125 164.679688 76.636719 147.75 70.761719 121.03125 C 64.890625 94.332031 81.761719 67.816406 108.390625 61.933594 C 135.035156 56.046875 161.476562 72.96875 167.3125 99.691406 C 173.195312 126.386719 156.308594 152.902344 129.691406 158.789062 "/>
<path style="fill:none;stroke-width:0.475;stroke-linecap:butt;stroke-linejoin:miter;stroke:rgb(0%,0%,0%);stroke-opacity:1;stroke-miterlimit:4;" d="M 21.459729 26.200195 C 17.056093 27.172148 12.680896 24.378105 11.708774 19.970156 C 10.737298 15.564785 13.528917 11.189707 17.935139 10.219043 C 22.343947 9.247734 26.719143 12.039844 27.684802 16.449082 C 28.658217 20.853809 25.864012 25.228887 21.459729 26.198906 Z M 21.459729 26.200195 " transform="matrix(6.043478,0,0,6.060606,0,0)"/>
<path style=" stroke:none;fill-rule:nonzero;fill:rgb(4.313725%,4.313725%,4.313725%);fill-opacity:1;" d="M 99.800781 72.464844 L 99.800781 148.847656 L 146.304688 116.144531 L 166.25 116.144531 L 166.25 105.195312 L 146.304688 105.195312 L 99.800781 72.464844 "/>
<path style=" stroke:none;fill-rule:nonzero;fill:rgb(0%,0%,0%);fill-opacity:1;" d="M 61.671875 114.726562 L 81.828125 114.726562 L 82.09375 122.183594 L 99 111.382812 L 82.09375 100.019531 L 81.828125 108.035156 L 60.9375 108.035156 M 78.4375 148.816406 L 85.082031 144.492188 L 89.351562 150.59375 L 97.652344 132.304688 L 77.308594 132.007812 L 81.441406 138.902344 L 73.886719 143.816406 M 70.585938 78.527344 L 81.410156 85.605469 L 77.605469 91.96875 L 97.652344 92.144531 L 89.648438 73.386719 L 85.042969 79.980469 L 74.511719 73.121094 "/>
</g>
</svg>
