<?xml version="1.0" encoding="UTF-8"?>
<svg xmlns="http://www.w3.org/2000/svg" xmlns:xlink="http://www.w3.org/1999/xlink" width="274pt" height="200pt" viewBox="0 0 274 200" version="1.1">
<g id="surface1">
<path style=" stroke:none;fill-rule:nonzero;fill:rgb(3.137255%,48.235294%,73.333333%);fill-opacity:1;" d="M 5.101562 189.824219 L 220.113281 189.824219 L 220.113281 40.1875 L 5.101562 40.1875 Z M 5.101562 189.824219 "/>
<path style="fill:none;stroke-width:0.5;stroke-linecap:butt;stroke-linejoin:miter;stroke:rgb(100%,100%,100%);stroke-opacity:1;stroke-miterlimit:4;" d="M 0.893704 33.217871 L 38.559991 33.217871 L 38.559991 7.032129 L 0.893704 7.032129 Z M 0.893704 33.217871 " transform="matrix(5.708333,0,0,5.714286,0,0)"/>
<path style=" stroke:none;fill-rule:nonzero;fill:rgb(3.137255%,48.235294%,73.333333%);fill-opacity:1;" d="M 220.113281 40.1875 L 261.117188 6.371094 L 60.566406 6.371094 L 5.101562 40.1875 L 220.113281 40.1875 "/>
<path style="fill:none;stroke-width:0.5;stroke-linecap:butt;stroke-linejoin:miter;stroke:rgb(100%,100%,100%);stroke-opacity:1;stroke-miterlimit:4;" d="M 38.559991 7.032129 L 45.743157 1.114941 L 10.610173 1.114941 L 0.893704 7.032129 Z M 38.559991 7.032129 " transform="matrix(5.708333,0,0,5.714286,0,0)"/>
<path style=" stroke:none;fill-rule:nonzero;fill:rgb(3.137255%,48.235294%,73.333333%);fill-opacity:1;" d="M 261.117188 156.035156 L 261.117188 6.378906 L 220.113281 40.183594 L 220.113281 189.816406 L 261.117188 156.027344 "/>
<path style="fill:none;stroke-width:0.5;stroke-linecap:butt;stroke-linejoin:miter;stroke:rgb(100%,100%,100%);stroke-opacity:1;stroke-miterlimit:4;" d="M 45.743157 27.306152 L 45.743157 1.114941 L 38.559991 7.032129 L 38.559991 33.217871 Z M 45.743157 27.306152 " transform="matrix(5.708333,0,0,5.714286,0,0)"/>
<path style="fill:none;stroke-width:1.25;stroke-linecap:round;stroke-linejoin:round;stroke:rgb(100%,100%,100%);stroke-opacity:1;stroke-miterlimit:4;" d="M 3.33531 22.652246 L 14.58531 22.652246 L 20.21031 11.40166 L 28.023038 27.340332 L 30.834854 22.652246 L 36.459854 22.652246 " transform="matrix(5.708333,0,0,5.714286,0,0)"/>
<path style=" stroke:none;fill-rule:nonzero;fill:rgb(100%,100%,100%);fill-opacity:1;" d="M 39.332031 182.371094 C 43.09375 182.363281 46.136719 179.304688 46.128906 175.539062 C 46.121094 171.769531 43.066406 168.722656 39.300781 168.730469 C 35.539062 168.738281 32.496094 171.800781 32.503906 175.566406 C 32.511719 179.332031 35.566406 182.378906 39.332031 182.371094 "/>
<path style="fill:none;stroke-width:0.4625;stroke-linecap:butt;stroke-linejoin:miter;stroke:rgb(0%,0%,0%);stroke-opacity:1;stroke-miterlimit:4;" d="M 6.890283 31.914941 C 7.54927 31.913574 8.082345 31.37832 8.080976 30.719336 C 8.079608 30.059668 7.54448 29.526465 6.884808 29.527832 C 6.225821 29.529199 5.692746 30.065137 5.694115 30.724121 C 5.695484 31.383105 6.230611 31.916309 6.890283 31.914941 Z M 6.890283 31.914941 " transform="matrix(5.708333,0,0,5.714286,0,0)"/>
<path style=" stroke:none;fill-rule:nonzero;fill:rgb(100%,100%,100%);fill-opacity:1;" d="M 33.472656 168.285156 L 46.800781 181.285156 L 84.398438 142.75 L 71.101562 129.75 L 33.472656 168.285156 "/>
<path style="fill:none;stroke-width:0.4625;stroke-linecap:butt;stroke-linejoin:miter;stroke:rgb(0%,0%,0%);stroke-opacity:1;stroke-miterlimit:4;" d="M 5.863823 29.449902 L 8.198677 31.724902 L 14.785128 24.981934 L 12.455748 22.70625 Z M 5.863823 29.449902 " transform="matrix(5.708333,0,0,5.714286,0,0)"/>
<path style=" stroke:none;fill-rule:nonzero;fill:rgb(100%,100%,100%);fill-opacity:1;" d="M 65.78125 101.371094 C 65.78125 129.527344 88.667969 152.460938 116.816406 152.460938 C 144.933594 152.460938 167.847656 129.527344 167.847656 101.378906 C 167.847656 73.195312 144.933594 50.285156 116.816406 50.285156 C 88.667969 50.285156 65.78125 73.195312 65.78125 101.371094 Z M 72.917969 101.371094 C 72.917969 77.132812 92.59375 57.429688 116.816406 57.429688 C 141.011719 57.429688 160.710938 77.125 160.710938 101.371094 C 160.710938 125.59375 141.011719 145.320312 116.816406 145.320312 C 92.59375 145.320312 72.917969 125.589844 72.917969 101.378906 "/>
<path style="fill:none;stroke-width:0.4625;stroke-linecap:butt;stroke-linejoin:miter;stroke:rgb(0%,0%,0%);stroke-opacity:1;stroke-miterlimit:4;" d="M 11.523723 17.739941 C 11.523723 22.667285 15.533075 26.67998 20.464188 26.67998 C 25.389827 26.67998 29.403969 22.667285 29.403969 17.739941 C 29.403969 12.80918 25.389827 8.799902 20.464188 8.799902 C 15.533075 8.799902 11.523723 12.80918 11.523723 17.739941 Z M 12.773951 17.739941 C 12.773951 13.496875 16.220803 10.050195 20.464188 10.050195 C 24.702783 10.050195 28.153741 13.496875 28.153741 17.739941 C 28.153741 21.978906 24.702783 25.429688 20.464188 25.429688 C 16.220803 25.429688 12.773951 21.978223 12.773951 17.739941 Z M 12.773951 17.739941 " transform="matrix(5.708333,0,0,5.714286,0,0)"/>
<path style=" stroke:none;fill-rule:nonzero;fill:rgb(100%,100%,100%);fill-opacity:1;" d="M 59.789062 104.308594 C 59.789062 132.484375 82.695312 155.394531 110.820312 155.394531 C 138.945312 155.394531 161.859375 132.484375 161.859375 104.308594 C 161.859375 76.148438 138.945312 53.210938 110.820312 53.210938 C 82.695312 53.210938 59.789062 76.148438 59.789062 104.308594 Z M 66.925781 104.308594 C 66.925781 80.085938 86.628906 60.355469 110.820312 60.355469 C 135.011719 60.355469 154.722656 80.085938 154.722656 104.308594 C 154.722656 128.546875 135.011719 148.25 110.820312 148.25 C 86.628906 148.25 66.925781 128.546875 66.925781 104.308594 "/>
<path style="fill:none;stroke-width:0.4625;stroke-linecap:butt;stroke-linejoin:miter;stroke:rgb(0%,0%,0%);stroke-opacity:1;stroke-miterlimit:4;" d="M 10.473996 18.25332 C 10.473996 23.184766 14.48677 27.192676 19.413777 27.192676 C 24.340785 27.192676 28.354927 23.184766 28.354927 18.25332 C 28.354927 13.325977 24.340785 9.311914 19.413777 9.311914 C 14.48677 9.311914 10.473996 13.325977 10.473996 18.25332 Z M 11.724224 18.25332 C 11.724224 14.015039 15.175867 10.562207 19.413777 10.562207 C 23.651688 10.562207 27.104699 14.015039 27.104699 18.25332 C 27.104699 22.495703 23.651688 25.943066 19.413777 25.943066 C 15.175867 25.943066 11.724224 22.495703 11.724224 18.25332 Z M 11.724224 18.25332 " transform="matrix(5.708333,0,0,5.714286,0,0)"/>
</g>
</svg>
