<?xml version="1.0" encoding="UTF-8"?>
<svg xmlns="http://www.w3.org/2000/svg" xmlns:xlink="http://www.w3.org/1999/xlink" width="200pt" height="200pt" viewBox="0 0 200 200" version="1.1">
<g id="surface1">
<path style=" stroke:none;fill-rule:nonzero;fill:rgb(0.784314%,43.921569%,62.352941%);fill-opacity:1;" d="M 4.023438 197.242188 L 162.824219 197.242188 L 162.824219 35.675781 L 4.023438 35.675781 Z M 4.023438 197.242188 "/>
<path style="fill:none;stroke-width:0.5;stroke-linecap:butt;stroke-linejoin:miter;stroke:rgb(100%,100%,100%);stroke-opacity:1;stroke-miterlimit:4;" d="M 0.683984 33.531172 L 27.680117 33.531172 L 27.680117 6.064883 L 0.683984 6.064883 Z M 14.805273 15.25418 L 23.110039 15.25418 M 14.805273 24.810039 L 23.110039 24.810039 M 12.26125 20.069297 L 12.26125 11.763203 " transform="matrix(5.882353,0,0,5.882353,0,0)"/>
<path style="fill:none;stroke-width:1.25;stroke-linecap:butt;stroke-linejoin:miter;stroke:rgb(100%,100%,100%);stroke-opacity:1;stroke-miterlimit:4;" d="M 19.595156 20.004883 L 19.595156 28.306328 " transform="matrix(5.882353,0,0,5.882353,0,0)"/>
<path style="fill:none;stroke-width:0.5;stroke-linecap:butt;stroke-linejoin:miter;stroke:rgb(100%,100%,100%);stroke-opacity:1;stroke-miterlimit:4;" d="M 10.130937 20.004883 L 10.130937 28.306328 M 14.926133 15.274102 L 6.626016 15.274102 " transform="matrix(5.882353,0,0,5.882353,0,0)"/>
<path style=" stroke:none;fill-rule:nonzero;fill:rgb(0.784314%,43.921569%,62.352941%);fill-opacity:1;" d="M 195.363281 3.507812 L 195.363281 164.058594 L 162.660156 197.148438 L 162.660156 36.386719 L 195.363281 3.507812 "/>
<path style="fill:none;stroke-width:0.5;stroke-linecap:butt;stroke-linejoin:miter;stroke:rgb(100%,100%,100%);stroke-opacity:1;stroke-miterlimit:4;" d="M 33.211758 0.596328 L 33.211758 27.889961 L 27.652227 33.515234 L 27.652227 6.185742 Z M 33.211758 0.596328 " transform="matrix(5.882353,0,0,5.882353,0,0)"/>
<path style=" stroke:none;fill-rule:nonzero;fill:rgb(0.784314%,43.921569%,62.352941%);fill-opacity:1;" d="M 162.652344 36.386719 L 162.277344 35.46875 L 4.1875 35.46875 L 44.265625 3.507812 L 195.363281 3.507812 L 162.660156 36.386719 "/>
<path style="fill:none;stroke-width:0.5;stroke-linecap:butt;stroke-linejoin:miter;stroke:rgb(100%,100%,100%);stroke-opacity:1;stroke-miterlimit:4;" d="M 27.650898 6.185742 L 27.587148 6.029687 L 0.711875 6.029687 L 7.525156 0.596328 L 33.211758 0.596328 L 27.652227 6.185742 Z M 27.650898 6.185742 " transform="matrix(5.882353,0,0,5.882353,0,0)"/>
<path style="fill:none;stroke-width:1.25;stroke-linecap:butt;stroke-linejoin:miter;stroke:rgb(100%,100%,100%);stroke-opacity:1;stroke-miterlimit:4;" d="M 14.42875 14.979922 L 23.199023 14.979922 " transform="matrix(5.882353,0,0,5.882353,0,0)"/>
<path style=" stroke:none;fill-rule:nonzero;fill:rgb(100%,100%,100%);fill-opacity:1;" d="M 135.519531 73.441406 L 135.519531 101.734375 L 152.578125 88.148438 L 135.519531 73.441406 "/>
<path style="fill:none;stroke-width:0.5;stroke-linecap:butt;stroke-linejoin:miter;stroke:rgb(100%,100%,100%);stroke-opacity:1;stroke-miterlimit:4;" d="M 23.03832 12.485039 L 23.03832 17.294844 L 25.938281 14.985234 Z M 23.03832 12.485039 " transform="matrix(5.882353,0,0,5.882353,0,0)"/>
<path style="fill:none;stroke-width:1.25;stroke-linecap:butt;stroke-linejoin:miter;stroke:rgb(100%,100%,100%);stroke-opacity:1;stroke-miterlimit:4;" d="M 14.42875 24.535781 L 23.667852 24.535781 " transform="matrix(5.882353,0,0,5.882353,0,0)"/>
<path style=" stroke:none;fill-rule:nonzero;fill:rgb(100%,100%,100%);fill-opacity:1;" d="M 135.519531 129.445312 L 135.519531 157.742188 L 152.578125 144.152344 L 135.519531 129.445312 "/>
<path style="fill:none;stroke-width:0.5;stroke-linecap:butt;stroke-linejoin:miter;stroke:rgb(100%,100%,100%);stroke-opacity:1;stroke-miterlimit:4;" d="M 23.03832 22.005703 L 23.03832 26.816172 L 25.938281 24.505898 Z M 23.03832 22.005703 " transform="matrix(5.882353,0,0,5.882353,0,0)"/>
<path style="fill:none;stroke-width:1.25;stroke-linecap:butt;stroke-linejoin:miter;stroke:rgb(100%,100%,100%);stroke-opacity:1;stroke-miterlimit:4;" d="M 11.884727 19.795039 L 11.884727 11.949141 M 16.859883 20.069297 L 16.859883 11.763203 " transform="matrix(5.882353,0,0,5.882353,0,0)"/>
<path style="fill:none;stroke-width:0.5;stroke-linecap:butt;stroke-linejoin:miter;stroke:rgb(100%,100%,100%);stroke-opacity:1;stroke-miterlimit:4;" d="M 16.484687 19.795039 L 16.484687 11.949141 M 19.219297 19.731953 L 19.219297 28.662266 " transform="matrix(5.882353,0,0,5.882353,0,0)"/>
<path style=" stroke:none;fill-rule:nonzero;fill:rgb(100%,100%,100%);fill-opacity:1;" d="M 127.242188 166.507812 L 98.976562 166.507812 L 112.707031 183.535156 L 127.242188 166.507812 "/>
<path style="fill:none;stroke-width:0.5;stroke-linecap:butt;stroke-linejoin:miter;stroke:rgb(100%,100%,100%);stroke-opacity:1;stroke-miterlimit:4;" d="M 21.631172 28.306328 L 16.826016 28.306328 L 19.160195 31.200977 Z M 21.631172 28.306328 " transform="matrix(5.882353,0,0,5.882353,0,0)"/>
<path style="fill:none;stroke-width:1.25;stroke-linecap:butt;stroke-linejoin:miter;stroke:rgb(100%,100%,100%);stroke-opacity:1;stroke-miterlimit:4;" d="M 9.751094 19.731953 L 9.751094 28.662266 " transform="matrix(5.882353,0,0,5.882353,0,0)"/>
<path style=" stroke:none;fill-rule:nonzero;fill:rgb(100%,100%,100%);fill-opacity:1;" d="M 71.859375 166.507812 L 43.578125 166.507812 L 57.300781 183.535156 L 71.859375 166.507812 "/>
<path style="fill:none;stroke-width:0.5;stroke-linecap:butt;stroke-linejoin:miter;stroke:rgb(100%,100%,100%);stroke-opacity:1;stroke-miterlimit:4;" d="M 12.216094 28.306328 L 7.408281 28.306328 L 9.741133 31.200977 Z M 12.216094 28.306328 " transform="matrix(5.882353,0,0,5.882353,0,0)"/>
<path style="fill:none;stroke-width:1.25;stroke-linecap:butt;stroke-linejoin:miter;stroke:rgb(100%,100%,100%);stroke-opacity:1;stroke-miterlimit:4;" d="M 14.550937 24.535781 L 5.621289 24.535781 " transform="matrix(5.882353,0,0,5.882353,0,0)"/>
<path style=" stroke:none;fill-rule:nonzero;fill:rgb(100%,100%,100%);fill-opacity:1;" d="M 34.757812 159.175781 L 34.757812 130.917969 L 17.722656 144.46875 L 34.757812 159.175781 "/>
<path style="fill:none;stroke-width:0.5;stroke-linecap:butt;stroke-linejoin:miter;stroke:rgb(100%,100%,100%);stroke-opacity:1;stroke-miterlimit:4;" d="M 5.908828 27.059883 L 5.908828 22.256055 L 3.012852 24.559687 Z M 5.908828 27.059883 " transform="matrix(5.882353,0,0,5.882353,0,0)"/>
<path style="fill:none;stroke-width:1.25;stroke-linecap:butt;stroke-linejoin:miter;stroke:rgb(100%,100%,100%);stroke-opacity:1;stroke-miterlimit:4;" d="M 14.550937 15.005156 L 5.621289 15.005156 " transform="matrix(5.882353,0,0,5.882353,0,0)"/>
<path style=" stroke:none;fill-rule:nonzero;fill:rgb(100%,100%,100%);fill-opacity:1;" d="M 34.757812 103.113281 L 34.757812 74.851562 L 17.722656 88.410156 L 34.757812 103.117188 "/>
<path style="fill:none;stroke-width:0.5;stroke-linecap:butt;stroke-linejoin:miter;stroke:rgb(100%,100%,100%);stroke-opacity:1;stroke-miterlimit:4;" d="M 5.908828 17.529258 L 5.908828 12.724766 L 3.012852 15.029727 L 5.908828 17.529922 Z M 5.908828 17.529258 " transform="matrix(5.882353,0,0,5.882353,0,0)"/>
<path style=" stroke:none;fill-rule:nonzero;fill:rgb(0.784314%,43.921569%,62.352941%);fill-opacity:1;" d="M 84.90625 150.277344 C 103.539062 150.289062 118.648438 135.191406 118.652344 116.558594 C 118.652344 97.921875 103.542969 82.8125 84.90625 82.8125 C 66.265625 82.808594 51.152344 97.917969 51.152344 116.558594 C 51.15625 135.191406 66.273438 150.292969 84.90625 150.277344 "/>
<path style="fill:none;stroke-width:0.5;stroke-linecap:butt;stroke-linejoin:miter;stroke:rgb(100%,100%,100%);stroke-opacity:1;stroke-miterlimit:4;" d="M 14.434062 25.547148 C 17.601641 25.549141 20.170234 22.982539 20.170898 19.814961 C 20.170898 16.646719 17.602305 14.078125 14.434062 14.078125 C 11.265156 14.077461 8.695898 16.646055 8.695898 19.814961 C 8.696562 22.982539 11.266484 25.549805 14.434062 25.547148 Z M 14.434062 25.547148 " transform="matrix(5.882353,0,0,5.882353,0,0)"/>
<path style=" stroke:none;fill-rule:nonzero;fill:rgb(100%,100%,100%);fill-opacity:1;" d="M 130.894531 69.394531 C 131.875 69.386719 132.667969 68.59375 132.671875 67.613281 L 132.671875 50.71875 C 132.664062 49.738281 131.871094 48.949219 130.894531 48.941406 L 40.921875 48.941406 C 40.453125 48.941406 39.996094 49.125 39.664062 49.460938 C 39.328125 49.792969 39.140625 50.246094 39.140625 50.71875 L 39.140625 67.613281 C 39.140625 68.589844 39.921875 69.394531 40.921875 69.394531 L 57.671875 69.394531 L 57.671875 63.511719 L 111.207031 63.511719 L 111.207031 69.394531 L 130.886719 69.394531 "/>
<path style="fill:none;stroke-width:0.5;stroke-linecap:butt;stroke-linejoin:miter;stroke:rgb(100%,100%,100%);stroke-opacity:1;stroke-miterlimit:4;" d="M 22.25207 11.79707 C 22.41875 11.795742 22.553555 11.660937 22.554219 11.494258 L 22.554219 8.622187 C 22.552891 8.455508 22.418086 8.321367 22.25207 8.320039 L 6.956719 8.320039 C 6.877031 8.320039 6.799336 8.35125 6.742891 8.408359 C 6.685781 8.464805 6.653906 8.541836 6.653906 8.622187 L 6.653906 11.494258 C 6.653906 11.660273 6.786719 11.79707 6.956719 11.79707 L 9.804219 11.79707 L 9.804219 10.796992 L 18.905195 10.796992 L 18.905195 11.79707 Z M 22.25207 11.79707 " transform="matrix(5.882353,0,0,5.882353,0,0)"/>
<path style="fill-rule:nonzero;fill:rgb(0%,0%,0%);fill-opacity:1;stroke-width:0.5;stroke-linecap:butt;stroke-linejoin:miter;stroke:rgb(100%,100%,100%);stroke-opacity:1;stroke-miterlimit:4;" d="M 11.787773 17.846016 L 12.489687 17.846016 L 12.489687 17.144102 L 11.787773 17.144102 Z M 11.787773 17.846016 " transform="matrix(5.882353,0,0,5.882353,0,0)"/>
<path style="fill-rule:nonzero;fill:rgb(0%,0%,0%);fill-opacity:1;stroke-width:0.5;stroke-linecap:butt;stroke-linejoin:miter;stroke:rgb(100%,100%,100%);stroke-opacity:1;stroke-miterlimit:4;" d="M 11.787773 19.409219 L 12.489687 19.409219 L 12.489687 18.705977 L 11.787773 18.705977 Z M 11.787773 19.409219 " transform="matrix(5.882353,0,0,5.882353,0,0)"/>
<path style="fill-rule:nonzero;fill:rgb(0%,0%,0%);fill-opacity:1;stroke-width:0.5;stroke-linecap:butt;stroke-linejoin:miter;stroke:rgb(100%,100%,100%);stroke-opacity:1;stroke-miterlimit:4;" d="M 11.787773 20.971094 L 12.489687 20.971094 L 12.489687 20.26918 L 11.787773 20.26918 Z M 11.787773 20.971094 " transform="matrix(5.882353,0,0,5.882353,0,0)"/>
<path style="fill-rule:nonzero;fill:rgb(0%,0%,0%);fill-opacity:1;stroke-width:0.5;stroke-linecap:butt;stroke-linejoin:miter;stroke:rgb(100%,100%,100%);stroke-opacity:1;stroke-miterlimit:4;" d="M 11.787773 22.534297 L 12.489687 22.534297 L 12.489687 21.831055 L 11.787773 21.831055 Z M 11.787773 22.534297 " transform="matrix(5.882353,0,0,5.882353,0,0)"/>
<path style="fill-rule:nonzero;fill:rgb(0%,0%,0%);fill-opacity:1;stroke-width:0.5;stroke-linecap:butt;stroke-linejoin:miter;stroke:rgb(100%,100%,100%);stroke-opacity:1;stroke-miterlimit:4;" d="M 13.350312 17.846016 L 14.052891 17.846016 L 14.052891 17.144102 L 13.350312 17.144102 Z M 13.350312 17.846016 " transform="matrix(5.882353,0,0,5.882353,0,0)"/>
<path style="fill-rule:nonzero;fill:rgb(0%,0%,0%);fill-opacity:1;stroke-width:0.5;stroke-linecap:butt;stroke-linejoin:miter;stroke:rgb(100%,100%,100%);stroke-opacity:1;stroke-miterlimit:4;" d="M 13.350312 19.409219 L 14.052891 19.409219 L 14.052891 18.705977 L 13.350312 18.705977 Z M 13.350312 19.409219 " transform="matrix(5.882353,0,0,5.882353,0,0)"/>
<path style="fill-rule:nonzero;fill:rgb(0%,0%,0%);fill-opacity:1;stroke-width:0.5;stroke-linecap:butt;stroke-linejoin:miter;stroke:rgb(100%,100%,100%);stroke-opacity:1;stroke-miterlimit:4;" d="M 13.350312 20.971094 L 14.052891 20.971094 L 14.052891 20.26918 L 13.350312 20.26918 Z M 13.350312 20.971094 " transform="matrix(5.882353,0,0,5.882353,0,0)"/>
<path style="fill-rule:nonzero;fill:rgb(0%,0%,0%);fill-opacity:1;stroke-width:0.5;stroke-linecap:butt;stroke-linejoin:miter;stroke:rgb(100%,100%,100%);stroke-opacity:1;stroke-miterlimit:4;" d="M 13.350312 22.534297 L 14.052891 22.534297 L 14.052891 21.831055 L 13.350312 21.831055 Z M 13.350312 22.534297 " transform="matrix(5.882353,0,0,5.882353,0,0)"/>
<path style="fill-rule:nonzero;fill:rgb(0%,0%,0%);fill-opacity:1;stroke-width:0.5;stroke-linecap:butt;stroke-linejoin:miter;stroke:rgb(100%,100%,100%);stroke-opacity:1;stroke-miterlimit:4;" d="M 14.912852 17.846016 L 15.614766 17.846016 L 15.614766 17.144102 L 14.912852 17.144102 Z M 14.912852 17.846016 " transform="matrix(5.882353,0,0,5.882353,0,0)"/>
<path style="fill-rule:nonzero;fill:rgb(0%,0%,0%);fill-opacity:1;stroke-width:0.5;stroke-linecap:butt;stroke-linejoin:miter;stroke:rgb(100%,100%,100%);stroke-opacity:1;stroke-miterlimit:4;" d="M 14.912852 19.409219 L 15.614766 19.409219 L 15.614766 18.705977 L 14.912852 18.705977 Z M 14.912852 19.409219 " transform="matrix(5.882353,0,0,5.882353,0,0)"/>
<path style="fill-rule:nonzero;fill:rgb(0%,0%,0%);fill-opacity:1;stroke-width:0.5;stroke-linecap:butt;stroke-linejoin:miter;stroke:rgb(100%,100%,100%);stroke-opacity:1;stroke-miterlimit:4;" d="M 14.912852 20.971094 L 15.614766 20.971094 L 15.614766 20.26918 L 14.912852 20.26918 Z M 14.912852 20.971094 " transform="matrix(5.882353,0,0,5.882353,0,0)"/>
<path style="fill-rule:nonzero;fill:rgb(0%,0%,0%);fill-opacity:1;stroke-width:0.5;stroke-linecap:butt;stroke-linejoin:miter;stroke:rgb(100%,100%,100%);stroke-opacity:1;stroke-miterlimit:4;" d="M 14.912852 22.534297 L 15.614766 22.534297 L 15.614766 21.831055 L 14.912852 21.831055 Z M 14.912852 22.534297 " transform="matrix(5.882353,0,0,5.882353,0,0)"/>
<path style="fill-rule:nonzero;fill:rgb(0%,0%,0%);fill-opacity:1;stroke-width:0.5;stroke-linecap:butt;stroke-linejoin:miter;stroke:rgb(100%,100%,100%);stroke-opacity:1;stroke-miterlimit:4;" d="M 16.474727 17.846016 L 17.177969 17.846016 L 17.177969 17.144102 L 16.474727 17.144102 Z M 16.474727 17.846016 " transform="matrix(5.882353,0,0,5.882353,0,0)"/>
<path style="fill-rule:nonzero;fill:rgb(0%,0%,0%);fill-opacity:1;stroke-width:0.5;stroke-linecap:butt;stroke-linejoin:miter;stroke:rgb(100%,100%,100%);stroke-opacity:1;stroke-miterlimit:4;" d="M 16.474727 19.409219 L 17.177969 19.409219 L 17.177969 18.705977 L 16.474727 18.705977 Z M 16.474727 19.409219 " transform="matrix(5.882353,0,0,5.882353,0,0)"/>
<path style="fill-rule:nonzero;fill:rgb(0%,0%,0%);fill-opacity:1;stroke-width:0.5;stroke-linecap:butt;stroke-linejoin:miter;stroke:rgb(100%,100%,100%);stroke-opacity:1;stroke-miterlimit:4;" d="M 16.474727 20.971094 L 17.177969 20.971094 L 17.177969 20.26918 L 16.474727 20.26918 Z M 16.474727 20.971094 " transform="matrix(5.882353,0,0,5.882353,0,0)"/>
<path style="fill-rule:nonzero;fill:rgb(0%,0%,0%);fill-opacity:1;stroke-width:0.5;stroke-linecap:butt;stroke-linejoin:miter;stroke:rgb(100%,100%,100%);stroke-opacity:1;stroke-miterlimit:4;" d="M 16.474727 22.534297 L 17.177969 22.534297 L 17.177969 21.831055 L 16.474727 21.831055 Z M 16.474727 22.534297 " transform="matrix(5.882353,0,0,5.882353,0,0)"/>
</g>
</svg>
