<?xml version="1.0" encoding="UTF-8"?>
<svg xmlns="http://www.w3.org/2000/svg" xmlns:xlink="http://www.w3.org/1999/xlink" width="163pt" height="200pt" viewBox="0 0 163 200" version="1.1">
<g id="surface1">
<path style=" stroke:none;fill-rule:nonzero;fill:rgb(0.784314%,43.921569%,62.352941%);fill-opacity:1;" d="M 26.371094 194.851562 L 127.507812 194.851562 L 127.507812 33.5625 L 26.371094 33.5625 Z M 26.371094 194.851562 "/>
<path style="fill:none;stroke-width:0.5;stroke-linecap:butt;stroke-linejoin:miter;stroke:rgb(100%,100%,100%);stroke-opacity:1;stroke-miterlimit:4;" d="M 24.24698 6.378359 L 5.015361 6.378359 L 5.015361 37.020312 L 24.24698 37.020312 " transform="matrix(5.258065,0,0,5.263158,0,0)"/>
<path style=" stroke:none;fill-rule:nonzero;fill:rgb(0.784314%,43.921569%,62.352941%);fill-opacity:1;" d="M 127.492188 194.847656 L 159.792969 162.519531 L 159.792969 1.257812 L 58.667969 1.257812 L 26.371094 33.570312 L 127.496094 33.570312 L 127.496094 194.84375 "/>
<path style="fill:none;stroke-width:0.5;stroke-linecap:butt;stroke-linejoin:miter;stroke:rgb(100%,100%,100%);stroke-opacity:1;stroke-miterlimit:4;" d="M 24.24698 37.021055 L 30.390074 30.878711 L 30.390074 0.238984 L 11.157712 0.238984 L 5.015361 6.378359 L 24.247723 6.378359 L 24.247723 37.020312 Z M 5.322182 15.795977 L 24.071655 15.795977 M 5.322182 25.316758 L 24.071655 25.316758 M 12.216354 10.873047 L 17.684888 10.873047 " transform="matrix(5.258065,0,0,5.263158,0,0)"/>
<path style=" stroke:none;fill-rule:nonzero;fill:rgb(0.784314%,43.921569%,62.352941%);fill-opacity:1;" d="M 52.734375 67.09375 L 103.667969 67.09375 L 103.667969 46.535156 L 52.738281 46.535156 L 52.738281 67.09375 Z M 52.734375 67.09375 "/>
<path style="fill:none;stroke-width:0.5;stroke-linecap:butt;stroke-linejoin:miter;stroke:rgb(100%,100%,100%);stroke-opacity:1;stroke-miterlimit:4;" d="M 10.029237 12.747812 L 19.715994 12.747812 L 19.715994 8.84168 L 10.02998 8.84168 L 10.02998 12.747812 Z M 12.216354 30.440078 L 17.684888 30.440078 " transform="matrix(5.258065,0,0,5.263158,0,0)"/>
<path style=" stroke:none;fill-rule:nonzero;fill:rgb(0.784314%,43.921569%,62.352941%);fill-opacity:1;" d="M 52.734375 170.078125 L 103.667969 170.078125 L 103.667969 149.519531 L 52.738281 149.519531 L 52.738281 170.078125 Z M 52.734375 170.078125 "/>
<path style="fill:none;stroke-width:0.5;stroke-linecap:butt;stroke-linejoin:miter;stroke:rgb(100%,100%,100%);stroke-opacity:1;stroke-miterlimit:4;" d="M 10.029237 32.314844 L 19.715994 32.314844 L 19.715994 28.408711 L 10.02998 28.408711 L 10.02998 32.314844 Z M 5.322182 34.839023 L 24.071655 34.839023 " transform="matrix(5.258065,0,0,5.263158,0,0)"/>
<path style=" stroke:none;fill-rule:nonzero;fill:rgb(0.784314%,43.921569%,62.352941%);fill-opacity:1;" d="M 104.316406 155.558594 L 126.570312 133.246094 L 126.570312 96.0625 L 25.449219 96.0625 L 3.179688 118.367188 L 104.316406 118.367188 L 104.316406 155.558594 "/>
<path style="fill:none;stroke-width:0.5;stroke-linecap:butt;stroke-linejoin:miter;stroke:rgb(100%,100%,100%);stroke-opacity:1;stroke-miterlimit:4;" d="M 19.839317 29.556133 L 24.071655 25.316758 L 24.071655 18.251875 L 4.840035 18.251875 L 0.604726 22.489766 L 19.839317 22.489766 Z M 19.839317 29.556133 " transform="matrix(5.258065,0,0,5.263158,0,0)"/>
<path style="fill-rule:nonzero;fill:rgb(0.784314%,43.921569%,62.352941%);fill-opacity:1;stroke-width:0.5;stroke-linecap:butt;stroke-linejoin:miter;stroke:rgb(100%,100%,100%);stroke-opacity:1;stroke-miterlimit:4;" d="M 19.839317 22.489766 L 24.071655 18.256328 " transform="matrix(5.258065,0,0,5.263158,0,0)"/>
<path style=" stroke:none;fill-rule:nonzero;fill:rgb(0.784314%,43.921569%,62.352941%);fill-opacity:1;" d="M 3.179688 155.558594 L 104.316406 155.558594 L 104.316406 105.109375 L 3.179688 105.109375 Z M 3.179688 155.558594 "/>
<path style="fill:none;stroke-width:0.5;stroke-linecap:butt;stroke-linejoin:miter;stroke:rgb(100%,100%,100%);stroke-opacity:1;stroke-miterlimit:4;" d="M 0.604726 29.556133 L 19.839317 29.556133 L 19.839317 19.970781 L 0.604726 19.970781 Z M 7.807947 24.881836 L 13.275738 24.881836 " transform="matrix(5.258065,0,0,5.263158,0,0)"/>
<path style="fill-rule:nonzero;fill:rgb(0.784314%,43.921569%,62.352941%);fill-opacity:1;stroke-width:0.5;stroke-linecap:butt;stroke-linejoin:miter;stroke:rgb(100%,100%,100%);stroke-opacity:1;stroke-miterlimit:4;" d="M 5.620087 26.757344 L 15.30833 26.757344 L 15.30833 22.851211 L 5.620087 22.851211 Z M 5.620087 26.757344 " transform="matrix(5.258065,0,0,5.263158,0,0)"/>
</g>
</svg>
