<?xml version="1.0" encoding="UTF-8"?>
<svg xmlns="http://www.w3.org/2000/svg" xmlns:xlink="http://www.w3.org/1999/xlink" width="140pt" height="200pt" viewBox="0 0 140 200" version="1.1">
<g id="surface1">
<path style=" stroke:none;fill-rule:nonzero;fill:rgb(3.137255%,49.803922%,74.901961%);fill-opacity:1;" d="M 19.527344 62.027344 L 2.421875 79.078125 L 2.421875 198.359375 L 122.1875 198.359375 L 139.296875 181.332031 L 139.296875 62.027344 L 19.527344 62.027344 "/>
<path style="fill:none;stroke-width:0.5;stroke-linecap:butt;stroke-linejoin:miter;stroke:rgb(100%,100%,100%);stroke-opacity:1;stroke-miterlimit:4;" d="M 4.881836 15.506836 L 0.605469 19.769531 L 0.605469 49.589844 L 30.546875 49.589844 L 34.824219 45.333008 L 34.824219 15.506836 Z M 4.881836 15.506836 " transform="matrix(4,0,0,4,0,0)"/>
<path style=" stroke:none;fill-rule:nonzero;fill:rgb(3.137255%,49.803922%,74.901961%);fill-opacity:1;" d="M 2.421875 79.078125 L 122.1875 79.078125 L 139.296875 62.027344 L 19.527344 62.027344 L 2.421875 79.078125 "/>
<path style="fill:none;stroke-width:0.5;stroke-linecap:butt;stroke-linejoin:miter;stroke:rgb(100%,100%,100%);stroke-opacity:1;stroke-miterlimit:4;" d="M 0.605469 19.769531 L 30.546875 19.769531 L 34.824219 15.506836 L 4.881836 15.506836 Z M 0.605469 19.769531 " transform="matrix(4,0,0,4,0,0)"/>
<path style=" stroke:none;fill-rule:nonzero;fill:rgb(3.137255%,49.803922%,74.901961%);fill-opacity:1;" d="M 122.1875 79.078125 L 139.296875 62.027344 L 139.296875 181.332031 L 122.1875 198.359375 L 122.1875 79.078125 "/>
<path style="fill:none;stroke-width:0.5;stroke-linecap:butt;stroke-linejoin:miter;stroke:rgb(100%,100%,100%);stroke-opacity:1;stroke-miterlimit:4;" d="M 30.546875 19.769531 L 34.824219 15.506836 L 34.824219 45.333008 L 30.546875 49.589844 Z M 30.546875 19.769531 " transform="matrix(4,0,0,4,0,0)"/>
<path style=" stroke:none;fill-rule:nonzero;fill:rgb(3.137255%,49.803922%,74.901961%);fill-opacity:1;" d="M 19.527344 62.027344 L 2.421875 79.078125 L 2.421875 198.359375 L 122.1875 198.359375 L 139.296875 181.332031 L 139.296875 62.027344 L 19.527344 62.027344 "/>
<path style="fill:none;stroke-width:0.5;stroke-linecap:butt;stroke-linejoin:miter;stroke:rgb(100%,100%,100%);stroke-opacity:1;stroke-miterlimit:4;" d="M 4.881836 15.506836 L 0.605469 19.769531 L 0.605469 49.589844 L 30.546875 49.589844 L 34.824219 45.333008 L 34.824219 15.506836 Z M 4.881836 15.506836 " transform="matrix(4,0,0,4,0,0)"/>
<path style=" stroke:none;fill-rule:nonzero;fill:rgb(3.137255%,49.803922%,74.901961%);fill-opacity:1;" d="M 2.421875 79.078125 L 122.1875 79.078125 L 139.296875 62.027344 "/>
<path style="fill:none;stroke-width:0.5;stroke-linecap:butt;stroke-linejoin:miter;stroke:rgb(100%,100%,100%);stroke-opacity:1;stroke-miterlimit:4;" d="M 0.605469 19.769531 L 30.546875 19.769531 L 34.824219 15.506836 M 30.546875 19.769531 L 30.546875 49.589844 " transform="matrix(4,0,0,4,0,0)"/>
<path style=" stroke:none;fill-rule:nonzero;fill:rgb(3.137255%,49.803922%,74.901961%);fill-opacity:1;" d="M 19.527344 2.398438 L 2.421875 19.457031 L 2.421875 79.078125 L 122.1875 79.078125 L 139.296875 62.027344 L 139.296875 2.398438 L 19.527344 2.398438 "/>
<path style="fill:none;stroke-width:0.5;stroke-linecap:butt;stroke-linejoin:miter;stroke:rgb(100%,100%,100%);stroke-opacity:1;stroke-miterlimit:4;" d="M 4.881836 0.599609 L 0.605469 4.864258 L 0.605469 19.769531 L 30.546875 19.769531 L 34.824219 15.506836 L 34.824219 0.599609 Z M 4.881836 0.599609 " transform="matrix(4,0,0,4,0,0)"/>
<path style=" stroke:none;fill-rule:nonzero;fill:rgb(3.137255%,49.803922%,74.901961%);fill-opacity:1;" d="M 122.1875 19.457031 L 139.296875 2.398438 L 139.296875 62.027344 L 122.1875 79.078125 L 122.1875 19.457031 "/>
<path style="fill:none;stroke-width:0.5;stroke-linecap:butt;stroke-linejoin:miter;stroke:rgb(100%,100%,100%);stroke-opacity:1;stroke-miterlimit:4;" d="M 30.546875 4.864258 L 34.824219 0.599609 L 34.824219 15.506836 L 30.546875 19.769531 Z M 30.546875 4.864258 " transform="matrix(4,0,0,4,0,0)"/>
<path style=" stroke:none;fill-rule:nonzero;fill:rgb(3.137255%,49.803922%,74.901961%);fill-opacity:1;" d="M 19.527344 2.398438 L 2.421875 19.457031 L 2.421875 79.078125 L 122.1875 79.078125 L 139.296875 62.027344 L 139.296875 2.398438 L 19.527344 2.398438 "/>
<path style="fill:none;stroke-width:0.5;stroke-linecap:butt;stroke-linejoin:miter;stroke:rgb(100%,100%,100%);stroke-opacity:1;stroke-miterlimit:4;" d="M 4.881836 0.599609 L 0.605469 4.864258 L 0.605469 19.769531 L 30.546875 19.769531 L 34.824219 15.506836 L 34.824219 0.599609 Z M 4.881836 0.599609 " transform="matrix(4,0,0,4,0,0)"/>
<path style="fill-rule:nonzero;fill:rgb(3.137255%,49.803922%,74.901961%);fill-opacity:1;stroke-width:0.5;stroke-linecap:butt;stroke-linejoin:miter;stroke:rgb(100%,100%,100%);stroke-opacity:1;stroke-miterlimit:4;" d="M 30.546875 19.769531 L 30.546875 4.864258 L 0.605469 4.864258 " transform="matrix(4,0,0,4,0,0)"/>
<path style=" stroke:none;fill-rule:nonzero;fill:rgb(100%,100%,100%);fill-opacity:1;" d="M 10.976562 45 L 45.195312 45 L 45.195312 27.972656 L 10.976562 27.972656 Z M 19.527344 181.332031 L 105.078125 181.332031 L 105.078125 96.132812 L 19.527344 96.132812 Z M 19.527344 181.332031 "/>
<path style="fill:none;stroke-width:0.5;stroke-linecap:butt;stroke-linejoin:miter;stroke:rgb(100%,100%,100%);stroke-opacity:1;stroke-miterlimit:1;" d="M 4.881836 45.333008 L 26.269531 45.333008 L 26.269531 24.033203 L 4.881836 24.033203 Z M 4.881836 45.333008 " transform="matrix(4,0,0,4,0,0)"/>
<path style=" stroke:none;fill-rule:nonzero;fill:rgb(100%,100%,100%);fill-opacity:1;" d="M 79.414062 45 L 113.636719 45 L 113.636719 27.972656 L 79.414062 27.972656 Z M 10.976562 70.5625 L 45.195312 70.5625 L 45.195312 53.519531 L 10.976562 53.519531 L 10.976562 70.566406 Z M 79.414062 70.5625 L 113.636719 70.5625 L 113.636719 53.519531 L 79.414062 53.519531 L 79.414062 70.566406 Z M 79.414062 70.5625 "/>
<path style="fill:none;stroke-width:0.5;stroke-linecap:butt;stroke-linejoin:miter;stroke:rgb(100%,100%,100%);stroke-opacity:1;stroke-miterlimit:1;" d="M 11.298828 9.121094 L 19.853516 9.121094 M 11.298828 15.506836 L 19.853516 15.506836 " transform="matrix(4,0,0,4,0,0)"/>
<path style="fill-rule:nonzero;fill:rgb(13.72549%,12.156863%,12.54902%);fill-opacity:1;stroke-width:0.5;stroke-linecap:butt;stroke-linejoin:miter;stroke:rgb(100%,100%,100%);stroke-opacity:1;stroke-miterlimit:1;" d="M 11.298828 13.383789 L 19.853516 11.25 " transform="matrix(4,0,0,4,0,0)"/>
<path style="fill-rule:nonzero;fill:rgb(13.72549%,12.156863%,12.54902%);fill-opacity:1;stroke-width:0.5;stroke-linecap:butt;stroke-linejoin:miter;stroke:rgb(100%,100%,100%);stroke-opacity:1;stroke-miterlimit:1;" d="M 11.298828 11.25 L 19.853516 13.383789 " transform="matrix(4,0,0,4,0,0)"/>
<path style="fill-rule:nonzero;fill:rgb(3.137255%,49.803922%,74.901961%);fill-opacity:1;stroke-width:0.5;stroke-linecap:butt;stroke-linejoin:miter;stroke:rgb(100%,100%,100%);stroke-opacity:1;stroke-miterlimit:4;" d="M 15.576172 28.291016 C 19.052734 28.291016 21.993164 30.953125 21.993164 34.677734 C 21.993164 38.139648 19.052734 41.068359 15.576172 41.068359 C 11.831055 41.068359 9.160156 38.139648 9.160156 34.677734 C 9.160156 30.953125 11.831055 28.291016 15.576172 28.291016 " transform="matrix(4,0,0,4,0,0)"/>
<path style="fill-rule:nonzero;fill:rgb(100%,100%,100%);fill-opacity:1;stroke-width:0.5;stroke-linecap:butt;stroke-linejoin:miter;stroke:rgb(100%,100%,100%);stroke-opacity:1;stroke-miterlimit:1;" d="M 15.576172 32.548828 C 16.644531 32.548828 17.714844 33.349609 17.714844 34.677734 C 17.714844 35.748047 16.644531 36.810547 15.576172 36.810547 C 14.239258 36.810547 13.436523 35.74707 13.436523 34.677734 C 13.436523 33.349609 14.239258 32.547852 15.577148 32.547852 " transform="matrix(4,0,0,4,0,0)"/>
</g>
</svg>
