<?xml version="1.0" encoding="UTF-8"?>
<svg xmlns="http://www.w3.org/2000/svg" xmlns:xlink="http://www.w3.org/1999/xlink" width="130pt" height="200pt" viewBox="0 0 130 200" version="1.1">
<defs>
<clipPath id="clip1">
  <path d="M 3 15 L 108 15 L 108 195.433594 L 3 195.433594 Z M 3 15 "/>
</clipPath>
<clipPath id="clip2">
  <path d="M 2 14 L 110 14 L 110 195.433594 L 2 195.433594 Z M 2 14 "/>
</clipPath>
<clipPath id="clip3">
  <path d="M 108 0 L 130 0 L 130 195.433594 L 108 195.433594 Z M 108 0 "/>
</clipPath>
<clipPath id="clip4">
  <path d="M 95 0 L 130 0 L 130 195.433594 L 95 195.433594 Z M 95 0 "/>
</clipPath>
</defs>
<g id="surface1">
<g clip-path="url(#clip1)" clip-rule="nonzero">
<path style=" stroke:none;fill-rule:nonzero;fill:rgb(3.137255%,49.803922%,74.901961%);fill-opacity:1;" d="M 3.652344 195.171875 L 107.996094 195.171875 L 107.996094 15.828125 L 3.652344 15.828125 Z M 3.652344 195.171875 "/>
</g>
<g clip-path="url(#clip2)" clip-rule="nonzero">
<path style="fill:none;stroke-width:4;stroke-linecap:butt;stroke-linejoin:miter;stroke:rgb(100%,100%,100%);stroke-opacity:1;stroke-miterlimit:4;" d="M 6.48345 10.465144 L 191.709042 10.465144 L 191.709042 327.765625 L 6.48345 327.765625 Z M 6.48345 10.465144 " transform="matrix(0.563333,0,0,-0.565217,0,201.086957)"/>
</g>
<path style=" stroke:none;fill-rule:nonzero;fill:rgb(3.137255%,49.803922%,74.901961%);fill-opacity:1;" d="M 34.945312 -5.632812 L 3.652344 15.828125 L 108 15.828125 L 133.945312 -5.632812 L 34.945312 -5.632812 "/>
<path style="fill:none;stroke-width:4;stroke-linecap:butt;stroke-linejoin:miter;stroke:rgb(100%,100%,100%);stroke-opacity:1;stroke-miterlimit:4;" d="M 62.033099 365.734976 L 6.48345 327.765625 L 191.715976 327.765625 L 237.772744 365.734976 Z M 62.033099 365.734976 " transform="matrix(0.563333,0,0,-0.565217,0,201.086957)"/>
<g clip-path="url(#clip3)" clip-rule="nonzero">
<path style=" stroke:none;fill-rule:nonzero;fill:rgb(3.137255%,49.803922%,74.901961%);fill-opacity:1;" d="M 133.945312 166.601562 L 133.945312 -5.632812 L 108 15.828125 L 108 195.171875 L 133.945312 166.601562 "/>
</g>
<g clip-path="url(#clip4)" clip-rule="nonzero">
<path style="fill:none;stroke-width:4;stroke-linecap:butt;stroke-linejoin:miter;stroke:rgb(100%,100%,100%);stroke-opacity:1;stroke-miterlimit:4;" d="M 237.772744 61.01262 L 237.772744 365.734976 L 191.715976 327.765625 L 191.715976 10.465144 Z M 237.772744 61.01262 " transform="matrix(0.563333,0,0,-0.565217,0,201.086957)"/>
</g>
<path style=" stroke:none;fill-rule:nonzero;fill:rgb(100%,100%,100%);fill-opacity:1;" d="M 44.1875 47.660156 L 91.253906 47.621094 L 91.253906 53.601562 L 44.1875 53.625 L 44.164062 62.945312 L 22.796875 50.621094 L 44.164062 38.300781 L 44.1875 47.660156 M 74.308594 96.898438 L 27.242188 96.945312 L 27.242188 90.960938 L 74.308594 90.941406 L 74.332031 81.597656 L 95.699219 93.941406 L 74.332031 106.261719 L 74.308594 96.898438 "/>
</g>
</svg>
