<?xml version="1.0" encoding="UTF-8"?>
<svg xmlns="http://www.w3.org/2000/svg" xmlns:xlink="http://www.w3.org/1999/xlink" width="373pt" height="200pt" viewBox="0 0 373 200" version="1.1">
<g id="surface1">
<path style=" stroke:none;fill-rule:nonzero;fill:rgb(3.137255%,48.235294%,73.333333%);fill-opacity:1;" d="M 5.394531 184.878906 L 273.054688 184.878906 L 273.054688 97.933594 L 5.394531 97.933594 Z M 5.394531 184.878906 "/>
<path style="fill:none;stroke-width:0.5;stroke-linecap:butt;stroke-linejoin:miter;stroke:rgb(100%,100%,100%);stroke-opacity:1;stroke-miterlimit:4;" d="M 0.809903 27.733008 L 40.994806 27.733008 L 40.994806 14.691211 L 0.809903 14.691211 Z M 0.809903 27.733008 " transform="matrix(6.660714,0,0,6.666667,0,0)"/>
<path style=" stroke:none;fill-rule:nonzero;fill:rgb(3.137255%,48.235294%,73.333333%);fill-opacity:1;" d="M 4.683594 98.359375 L 112.824219 10.667969 L 362.570312 10.667969 L 272.808594 98.359375 L 4.675781 98.359375 "/>
<path style="fill:none;stroke-width:0.5;stroke-linecap:butt;stroke-linejoin:miter;stroke:rgb(100%,100%,100%);stroke-opacity:1;stroke-miterlimit:4;" d="M 0.703167 14.752734 L 16.938757 1.600195 L 54.434149 1.600195 L 40.957859 14.752734 L 0.701994 14.752734 Z M 0.703167 14.752734 " transform="matrix(6.660714,0,0,6.666667,0,0)"/>
<path style=" stroke:none;fill-rule:nonzero;fill:rgb(3.137255%,48.235294%,73.333333%);fill-opacity:1;" d="M 272.894531 187.648438 L 362.308594 97.933594 L 362.371094 10.828125 L 272.894531 98.226562 L 272.894531 187.648438 "/>
<path style="fill:none;stroke-width:0.5;stroke-linecap:butt;stroke-linejoin:miter;stroke:rgb(100%,100%,100%);stroke-opacity:1;stroke-miterlimit:4;" d="M 40.970761 28.147266 L 54.394856 14.691211 L 54.404239 1.624805 L 40.970761 14.735156 Z M 40.970761 28.147266 " transform="matrix(6.660714,0,0,6.666667,0,0)"/>
<path style=" stroke:none;fill-rule:nonzero;fill:rgb(100%,100%,100%);fill-opacity:1;" d="M 161.570312 75.539062 L 156.398438 79.808594 L 89.640625 79.808594 L 83.003906 86.472656 L 64.890625 78.566406 L 101.28125 68.152344 L 94.847656 75.539062 L 161.574219 75.539062 M 214.035156 42.726562 L 208.859375 46.992188 L 142.085938 46.992188 L 135.457031 53.660156 L 117.34375 45.761719 L 153.742188 35.332031 L 147.300781 42.71875 L 214.042969 42.71875 M 173.378906 63.945312 L 178.546875 59.679688 L 245.320312 59.679688 L 251.996094 53.011719 L 270.070312 60.925781 L 233.679688 71.339844 L 240.117188 63.945312 L 173.378906 63.945312 M 208.015625 31.140625 L 213.214844 26.875 L 279.988281 26.875 L 286.628906 20.199219 L 304.746094 28.105469 L 268.347656 38.527344 L 274.789062 31.140625 L 208.015625 31.140625 M 139.136719 146.207031 L 187.300781 146.207031 L 187.300781 153.828125 L 205.484375 142.601562 L 187.300781 131.332031 L 187.300781 138.945312 L 139.140625 138.945312 L 139.140625 146.214844 M 138.03125 133.707031 L 183.304688 118.339844 L 186.101562 125.507812 L 199.035156 109.132812 L 177.835938 104.347656 L 180.632812 111.507812 L 135.359375 126.90625 L 138.023438 133.707031 M 138.03125 151.160156 L 183.304688 166.558594 L 186.101562 159.359375 L 199.035156 175.765625 L 177.835938 180.519531 L 180.632812 173.359375 L 135.359375 157.992188 L 138.023438 151.160156 M 64.421875 146.207031 L 110.867188 146.207031 L 110.867188 153.828125 L 129.050781 142.601562 L 110.867188 131.332031 L 110.867188 138.945312 L 64.421875 138.945312 L 64.421875 146.214844 "/>
</g>
</svg>
