<?xml version="1.0" encoding="UTF-8"?>
<svg xmlns="http://www.w3.org/2000/svg" xmlns:xlink="http://www.w3.org/1999/xlink" width="352pt" height="200pt" viewBox="0 0 352 200" version="1.1">
<g id="surface1">
<path style=" stroke:none;fill-rule:nonzero;fill:rgb(3.137255%,49.803922%,74.901961%);fill-opacity:1;" d="M 212.464844 105.808594 L 231.433594 6.007812 L 86.722656 6.007812 L 65.398438 105.808594 L 212.460938 105.808594 "/>
<path style="fill:none;stroke-width:0.5;stroke-linecap:butt;stroke-linejoin:miter;stroke:rgb(100%,100%,100%);stroke-opacity:1;stroke-miterlimit:4;" d="M 48.891058 24.336875 L 53.256026 1.382695 L 19.956066 1.382695 L 15.049072 24.336875 Z M 48.891058 24.336875 " transform="matrix(4.345679,0,0,4.347826,0,0)"/>
<path style=" stroke:none;fill-rule:nonzero;fill:rgb(3.137255%,49.803922%,74.901961%);fill-opacity:1;" d="M 231.433594 6.007812 L 237.101562 13.335938 L 219.445312 110.117188 L 212.464844 105.8125 L 231.433594 6.007812 "/>
<path style="fill:none;stroke-width:0.5;stroke-linecap:butt;stroke-linejoin:miter;stroke:rgb(100%,100%,100%);stroke-opacity:1;stroke-miterlimit:4;" d="M 53.256026 1.382695 L 54.560303 3.067266 L 50.497359 25.327852 L 48.891058 24.336875 Z M 53.256026 1.382695 " transform="matrix(4.345679,0,0,4.347826,0,0)"/>
<path style=" stroke:none;fill-rule:nonzero;fill:rgb(3.137255%,49.803922%,74.901961%);fill-opacity:1;" d="M 65.398438 105.808594 L 71.722656 110.121094 L 219.445312 110.121094 L 212.464844 105.808594 L 65.402344 105.808594 "/>
<path style="fill:none;stroke-width:0.5;stroke-linecap:butt;stroke-linejoin:miter;stroke:rgb(100%,100%,100%);stroke-opacity:1;stroke-miterlimit:4;" d="M 15.049072 24.336875 L 16.504361 25.327852 L 50.497359 25.327852 L 48.891058 24.336875 Z M 15.049072 24.336875 " transform="matrix(4.345679,0,0,4.347826,0,0)"/>
<path style=" stroke:none;fill-rule:nonzero;fill:rgb(3.137255%,49.803922%,74.901961%);fill-opacity:1;" d="M 213.804688 112.625 L 213.804688 127.445312 L 209.960938 130.777344 C 209.960938 130.777344 200.988281 133.429688 202.980469 138.761719 L 162.898438 176.039062 L 162.898438 159.734375 L 213.804688 112.625 "/>
<path style="fill:none;stroke-width:0.5;stroke-linecap:butt;stroke-linejoin:miter;stroke:rgb(100%,100%,100%);stroke-opacity:1;stroke-miterlimit:4;" d="M 49.199374 25.90375 L 49.199374 29.312422 L 48.314875 30.078789 C 48.314875 30.078789 46.250144 30.688828 46.708574 31.914297 L 37.485152 40.488984 L 37.485152 36.738906 Z M 49.199374 25.90375 " transform="matrix(4.345679,0,0,4.347826,0,0)"/>
<path style=" stroke:none;fill-rule:nonzero;fill:rgb(3.137255%,49.803922%,74.901961%);fill-opacity:1;" d="M 3.351562 176.039062 L 162.898438 176.039062 L 162.898438 159.734375 L 3.347656 159.734375 L 3.347656 176.039062 Z M 3.351562 176.039062 "/>
<path style="fill:none;stroke-width:0.5;stroke-linecap:butt;stroke-linejoin:miter;stroke:rgb(100%,100%,100%);stroke-opacity:1;stroke-miterlimit:4;" d="M 0.77124 40.489883 L 37.485152 40.489883 L 37.485152 36.739805 L 0.770341 36.739805 L 0.770341 40.489883 Z M 0.77124 40.489883 " transform="matrix(4.345679,0,0,4.347826,0,0)"/>
<path style=" stroke:none;fill-rule:nonzero;fill:rgb(3.137255%,49.803922%,74.901961%);fill-opacity:1;" d="M 67.074219 113.625 L 213.804688 112.625 L 162.898438 159.734375 L 3.347656 159.734375 L 67.070312 113.625 "/>
<path style="fill:none;stroke-width:0.5;stroke-linecap:butt;stroke-linejoin:miter;stroke:rgb(100%,100%,100%);stroke-opacity:1;stroke-miterlimit:4;" d="M 15.434692 26.132852 L 49.199374 25.90375 L 37.485152 36.739805 L 0.770341 36.739805 L 15.433794 26.13375 Z M 15.434692 26.132852 " transform="matrix(4.345679,0,0,4.347826,0,0)"/>
<path style=" stroke:none;fill-rule:nonzero;fill:rgb(3.137255%,49.803922%,74.901961%);fill-opacity:1;" d="M 200.183594 96.085938 L 215.332031 17.9375 L 97.652344 17.9375 L 82.503906 96.085938 L 200.183594 96.085938 "/>
<path style="fill:none;stroke-width:0.5;stroke-linecap:butt;stroke-linejoin:miter;stroke:rgb(100%,100%,100%);stroke-opacity:1;stroke-miterlimit:4;" d="M 46.064975 22.099766 L 49.550837 4.127422 L 22.471136 4.127422 L 18.985274 22.100664 L 46.064975 22.100664 Z M 46.064975 22.099766 " transform="matrix(4.345679,0,0,4.347826,0,0)"/>
<path style="fill:none;stroke-width:0.125;stroke-linecap:butt;stroke-linejoin:round;stroke:rgb(100%,100%,100%);stroke-opacity:1;stroke-miterlimit:4;" d="M 16.224809 26.372734 L 7.709706 33.247578 M 18.960105 26.372734 L 10.444103 33.247578 M 21.693604 26.372734 L 13.179399 33.247578 M 24.4289 26.372734 L 15.912897 33.247578 M 27.163297 26.372734 L 18.647294 33.247578 M 29.897694 26.372734 L 21.380793 33.247578 M 32.631192 26.372734 L 24.116089 33.247578 M 35.365589 26.372734 L 26.849587 33.247578 M 38.099987 26.372734 L 29.584883 33.247578 M 40.835283 26.372734 L 32.31928 33.247578 M 43.568781 26.372734 L 35.053678 33.247578 M 46.304077 26.372734 L 37.788075 33.247578 M 8.663419 32.525234 L 38.979992 32.525234 M 10.702981 30.947578 L 40.546742 30.947578 M 12.81715 29.375312 L 42.582708 29.375312 M 14.696711 27.797656 L 44.703169 27.797656 " transform="matrix(4.345679,0,0,4.347826,0,0)"/>
<path style=" stroke:none;fill-rule:nonzero;fill:rgb(100%,100%,100%);fill-opacity:1;" d="M 144.097656 43.273438 L 165.359375 43.273438 C 170.519531 44.84375 170.007812 48.976562 170.007812 48.976562 C 170.007812 53.09375 166.402344 54.15625 166.402344 54.15625 L 127.65625 54.15625 C 120.441406 53.609375 123.046875 47.429688 123.046875 47.429688 L 139.472656 28.539062 C 142.082031 25.898438 148.066406 28.539062 148.066406 28.539062 C 151.847656 32.296875 150.167969 35.648438 150.167969 35.648438 L 144.101562 43.273438 M 159.355469 73.117188 L 138.117188 73.117188 C 132.9375 71.546875 133.46875 67.429688 133.46875 67.429688 C 133.46875 63.285156 137.074219 62.226562 137.074219 62.226562 L 175.820312 62.226562 C 183.035156 62.777344 180.429688 68.957031 180.429688 68.957031 L 164 87.875 C 161.371094 90.484375 155.40625 87.875 155.40625 87.875 C 151.632812 84.089844 153.3125 80.738281 153.3125 80.738281 L 159.351562 73.117188 "/>
<path style=" stroke:none;fill-rule:nonzero;fill:rgb(13.72549%,12.156863%,12.54902%);fill-opacity:1;" d="M 203.789062 172.851562 C 203.789062 176.191406 201.097656 178.886719 197.738281 178.886719 C 195.542969 178.945312 193.488281 177.808594 192.371094 175.914062 C 191.253906 174.019531 191.253906 171.671875 192.371094 169.777344 C 193.488281 167.882812 195.542969 166.746094 197.738281 166.804688 C 201.097656 166.804688 203.789062 169.523438 203.789062 172.851562 "/>
<path style="fill:none;stroke-width:0.5;stroke-linecap:butt;stroke-linejoin:round;stroke:rgb(0%,0%,0%);stroke-opacity:1;stroke-miterlimit:4;" d="M 71.30916 42.070234 C 67.069136 43.535586 59.276733 43.896758 52.929732 42.838398 C 48.740046 42.139414 46.123402 40.976836 45.506769 39.756758 " transform="matrix(4.345679,0,0,4.347826,0,0)"/>
<path style="fill:none;stroke-width:1.25;stroke-linecap:butt;stroke-linejoin:round;stroke:rgb(0%,0%,0%);stroke-opacity:1;stroke-miterlimit:4;" d="M 54.917159 34.995938 C 55.860085 32.754336 57.568859 30.478594 59.956288 28.516406 C 65.879017 23.633398 73.735241 22.486094 77.499756 25.953164 C 81.26517 29.419336 79.522239 36.187266 73.598611 41.064883 C 73.037709 41.529375 72.456132 41.958828 71.864668 42.34875 " transform="matrix(4.345679,0,0,4.347826,0,0)"/>
<path style=" stroke:none;fill-rule:nonzero;fill:rgb(13.72549%,12.156863%,12.54902%);fill-opacity:1;" d="M 322.746094 184.128906 C 322.75 189.894531 318.082031 194.566406 312.320312 194.570312 C 306.5625 194.574219 301.890625 189.90625 301.886719 184.144531 C 301.882812 178.378906 306.546875 173.707031 312.308594 173.703125 C 318.070312 173.699219 322.742188 178.367188 322.746094 184.128906 "/>
<path style="fill:none;stroke-width:0.5;stroke-linecap:butt;stroke-linejoin:miter;stroke:rgb(100%,100%,100%);stroke-opacity:1;stroke-miterlimit:4;" d="M 74.268277 42.349648 C 74.269176 43.675742 73.195912 44.751172 71.870062 44.75207 C 70.545111 44.753867 69.46915 43.680234 69.468251 42.355039 C 69.466453 41.029844 70.539717 39.953516 71.864668 39.951719 C 73.190518 39.949922 74.266479 41.023555 74.268277 42.34875 Z M 74.268277 42.349648 " transform="matrix(4.345679,0,0,4.347826,0,0)"/>
<path style=" stroke:none;fill-rule:nonzero;fill:rgb(13.72549%,12.156863%,12.54902%);fill-opacity:1;" d="M 244.59375 152.089844 C 244.46875 155.335938 241.804688 157.90625 238.554688 157.90625 C 235.308594 157.90625 232.644531 155.335938 232.519531 152.089844 C 232.519531 148.761719 235.214844 146.042969 238.546875 146.042969 C 241.875 146.042969 244.585938 148.761719 244.585938 152.089844 "/>
</g>
</svg>
