<?xml version="1.0" encoding="UTF-8"?>
<svg xmlns="http://www.w3.org/2000/svg" xmlns:xlink="http://www.w3.org/1999/xlink" width="213pt" height="200pt" viewBox="0 0 213 200" version="1.1">
<defs>
<clipPath id="clip1">
  <path d="M 0 24 L 213 24 L 213 191.628906 L 0 191.628906 Z M 0 24 "/>
</clipPath>
</defs>
<g id="surface1">
<path style=" stroke:none;fill-rule:nonzero;fill:rgb(3.137255%,49.803922%,74.901961%);fill-opacity:1;" d="M 222.628906 38.480469 C 222.628906 62.382812 173.0625 81.722656 111.929688 81.722656 C 50.769531 81.722656 1.195312 62.382812 1.195312 38.480469 L 1.195312 147.171875 C 1.195312 171.046875 50.769531 190.417969 111.929688 190.417969 C 173.0625 190.417969 222.628906 171.046875 222.628906 147.171875 L 222.628906 38.480469 "/>
<g clip-path="url(#clip1)" clip-rule="nonzero">
<path style="fill:none;stroke-width:4;stroke-linecap:butt;stroke-linejoin:miter;stroke:rgb(100%,100%,100%);stroke-opacity:1;stroke-miterlimit:4;" d="M 369.84217 263.282302 C 369.84217 223.751502 287.5 191.766376 185.943143 191.766376 C 84.340861 191.766376 1.985712 223.751502 1.985712 263.282302 L 1.985712 83.523438 C 1.985712 44.037861 84.340861 12.001052 185.943143 12.001052 C 287.5 12.001052 369.84217 44.037861 369.84217 83.523438 Z M 369.84217 263.282302 " transform="matrix(0.601957,0,0,-0.604651,0,197.674419)"/>
</g>
<path style=" stroke:none;fill-rule:nonzero;fill:rgb(3.137255%,49.803922%,74.901961%);fill-opacity:1;" d="M 111.929688 81.722656 C 173.0625 81.722656 222.628906 62.382812 222.628906 38.480469 C 222.628906 14.59375 173.0625 -4.773438 111.929688 -4.773438 C 50.769531 -4.773438 1.195312 14.59375 1.195312 38.480469 C 1.195312 62.382812 50.769531 81.722656 111.929688 81.722656 "/>
<path style="fill:none;stroke-width:4;stroke-linecap:butt;stroke-linejoin:miter;stroke:rgb(100%,100%,100%);stroke-opacity:1;stroke-miterlimit:4;" d="M 185.943143 191.766376 C 287.5 191.766376 369.84217 223.751502 369.84217 263.282302 C 369.84217 302.78726 287.5 334.817608 185.943143 334.817608 C 84.340861 334.817608 1.985712 302.78726 1.985712 263.282302 C 1.985712 223.751502 84.340861 191.766376 185.943143 191.766376 Z M 185.943143 191.766376 " transform="matrix(0.601957,0,0,-0.604651,0,197.674419)"/>
<path style=" stroke:none;fill-rule:nonzero;fill:rgb(100%,100%,100%);fill-opacity:1;" d="M 86.628906 21.566406 L 95.773438 35.335938 L 61.207031 43.367188 L 68.753906 37.058594 L 15.332031 27.875 L 28.730469 17.789062 L 80.300781 26.546875 L 86.628906 21.566406 M 135.277344 54.960938 L 129.046875 40.765625 L 160.222656 34.507812 L 154.816406 39.375 L 206.785156 48.304688 L 194.292969 58.316406 L 142.65625 48.5625 L 135.277344 54.960938 M 118.230469 14.050781 L 153.144531 4.445312 L 153.570312 19.488281 L 144.824219 17.8125 L 127.796875 32.003906 L 111.523438 29.621094 L 129.113281 15.730469 L 118.230469 14.050781 M 103.246094 67.933594 L 70 74.1875 L 68.753906 58.714844 L 78.328125 60.820312 L 96.621094 45.109375 L 112.820312 47.875 L 93.28125 65 L 103.246094 67.933594 M 167.75 158.394531 L 167.75 130.613281 L 151.078125 143.960938 L 167.75 158.394531 "/>
<path style="fill:none;stroke-width:0.76;stroke-linecap:butt;stroke-linejoin:miter;stroke:rgb(100%,100%,100%);stroke-opacity:1;stroke-miterlimit:4;" d="M 278.674612 64.962891 L 278.674612 110.908804 L 250.978467 88.833834 Z M 278.674612 64.962891 " transform="matrix(0.601957,0,0,-0.604651,0,197.674419)"/>
<path style=" stroke:none;fill-rule:nonzero;fill:rgb(100%,100%,100%);fill-opacity:1;" d="M 49.96875 158.394531 L 49.96875 130.613281 L 66.613281 143.960938 L 49.96875 158.394531 "/>
<path style="fill:none;stroke-width:0.76;stroke-linecap:butt;stroke-linejoin:miter;stroke:rgb(100%,100%,100%);stroke-opacity:1;stroke-miterlimit:4;" d="M 83.010563 64.962891 L 83.010563 110.908804 L 110.661283 88.833834 Z M 83.010563 64.962891 " transform="matrix(0.601957,0,0,-0.604651,0,197.674419)"/>
<path style=" stroke:none;fill-rule:nonzero;fill:rgb(100%,100%,100%);fill-opacity:1;" d="M 61.132812 103.238281 L 61.132812 131.015625 L 44.46875 117.667969 L 61.132812 103.238281 "/>
<path style="fill:none;stroke-width:0.76;stroke-linecap:butt;stroke-linejoin:miter;stroke:rgb(100%,100%,100%);stroke-opacity:1;stroke-miterlimit:4;" d="M 101.556857 156.182843 L 101.556857 110.243389 L 73.873691 132.318359 Z M 101.556857 156.182843 " transform="matrix(0.601957,0,0,-0.604651,0,197.674419)"/>
<path style=" stroke:none;fill-rule:nonzero;fill:rgb(100%,100%,100%);fill-opacity:1;" d="M 155.3125 103.238281 L 155.3125 131.015625 L 171.976562 117.667969 L 155.3125 103.238281 "/>
<path style="fill:none;stroke-width:0.76;stroke-linecap:butt;stroke-linejoin:miter;stroke:rgb(100%,100%,100%);stroke-opacity:1;stroke-miterlimit:4;" d="M 258.012821 156.182843 L 258.012821 110.243389 L 285.695987 132.318359 Z M 258.012821 156.182843 " transform="matrix(0.601957,0,0,-0.604651,0,197.674419)"/>
<path style="fill:none;stroke-width:7.6;stroke-linecap:butt;stroke-linejoin:miter;stroke:rgb(100%,100%,100%);stroke-opacity:1;stroke-miterlimit:4;" d="M 264.021872 133.797776 L 247.299059 133.797776 M 269.842734 89.227915 L 290.783564 89.227915 M 90.388848 89.227915 L 68.12421 89.227915 M 91.368725 132.395883 L 112.270619 132.395883 " transform="matrix(0.601957,0,0,-0.604651,0,197.674419)"/>
<path style=" stroke:none;fill-rule:nonzero;fill:rgb(100%,100%,100%);fill-opacity:1;" d="M 137.835938 118.191406 L 137.746094 168.664062 L 79.523438 168.664062 L 79.449219 118.191406 L 137.835938 118.191406 "/>
<path style="fill:none;stroke-width:3.5;stroke-linecap:butt;stroke-linejoin:miter;stroke:rgb(3.137255%,49.803922%,74.901961%);stroke-opacity:1;stroke-miterlimit:4;" d="M 228.979889 131.452674 L 228.830636 47.978666 L 132.108275 47.978666 L 131.984979 131.452674 Z M 228.979889 131.452674 " transform="matrix(0.601957,0,0,-0.604651,0,197.674419)"/>
<path style="fill:none;stroke-width:3.5;stroke-linecap:butt;stroke-linejoin:miter;stroke:rgb(3.137255%,49.803922%,74.901961%);stroke-opacity:1;stroke-miterlimit:4;" d="M 142.620869 107.517127 L 218.642504 107.517127 L 218.642504 122.744141 L 142.620869 122.744141 Z M 142.620869 55.983023 L 218.642504 55.983023 L 218.642504 93.956881 L 142.620869 93.956881 Z M 142.620869 55.983023 " transform="matrix(0.601957,0,0,-0.604651,0,197.674419)"/>
<path style=" stroke:none;fill-rule:nonzero;fill:rgb(100%,100%,100%);fill-opacity:1;" d="M 120.601562 100.261719 C 120.601562 100.261719 123.472656 99.9375 124.128906 102.839844 L 124.765625 112.167969 L 143.976562 115.378906 L 145.902344 111.199219 L 141.085938 99.601562 C 116.441406 93.484375 107.785156 95.425781 107.785156 95.425781 L 108.75 95.425781 C 108.75 95.425781 100.097656 93.484375 75.429688 99.601562 L 70.632812 111.199219 L 72.566406 115.378906 L 91.773438 112.167969 L 92.414062 102.839844 C 93.042969 99.9375 95.9375 100.261719 95.9375 100.261719 L 120.601562 100.261719 "/>
<path style="fill:none;stroke-width:3.5;stroke-linecap:butt;stroke-linejoin:miter;stroke:rgb(3.137255%,49.803922%,74.901961%);stroke-opacity:1;stroke-miterlimit:4;" d="M 218.629526 100.862981 L 142.620869 100.862981 " transform="matrix(0.601957,0,0,-0.604651,0,197.674419)"/>
</g>
</svg>
