<?xml version="1.0" encoding="UTF-8"?>
<svg xmlns="http://www.w3.org/2000/svg" xmlns:xlink="http://www.w3.org/1999/xlink" width="282pt" height="200pt" viewBox="0 0 282 200" version="1.1">
<g id="surface1">
<path style="fill-rule:nonzero;fill:rgb(3.137255%,49.803922%,74.901961%);fill-opacity:1;stroke-width:0.5;stroke-linecap:butt;stroke-linejoin:miter;stroke:rgb(100%,100%,100%);stroke-opacity:1;stroke-miterlimit:4;" d="M 0.640293 31.74418 L 38.603723 31.74418 L 38.603723 10.26375 L 0.640293 10.26375 Z M 0.640293 31.74418 " transform="matrix(5.875,0,0,5.882353,0,0)"/>
<path style=" stroke:none;fill-rule:nonzero;fill:rgb(3.137255%,49.803922%,74.901961%);fill-opacity:1;" d="M 226.964844 187.351562 L 226.964844 61.007812 L 273.039062 10.710938 L 273.039062 136.433594 L 226.964844 187.351562 "/>
<path style="fill:none;stroke-width:0.5;stroke-linecap:butt;stroke-linejoin:miter;stroke:rgb(100%,100%,100%);stroke-opacity:1;stroke-miterlimit:4;" d="M 38.632314 31.849766 L 38.632314 10.37 L 46.474734 1.822187 L 46.474734 23.191719 L 38.632314 31.851094 Z M 38.632314 31.849766 " transform="matrix(5.875,0,0,5.882353,0,0)"/>
<path style=" stroke:none;fill-rule:nonzero;fill:rgb(3.137255%,49.803922%,74.901961%);fill-opacity:1;" d="M 227 60.28125 L 3.84375 60.28125 L 59.007812 10.742188 L 273.5 10.542969 L 227 60.28125 "/>
<path style="fill:none;stroke-width:0.5;stroke-linecap:butt;stroke-linejoin:miter;stroke:rgb(100%,100%,100%);stroke-opacity:1;stroke-miterlimit:4;" d="M 38.638298 10.249141 L 0.654255 10.249141 L 10.043883 1.826836 L 46.553191 1.790977 Z M 38.638298 10.249141 " transform="matrix(5.875,0,0,5.882353,0,0)"/>
<path style=" stroke:none;fill-rule:nonzero;fill:rgb(100%,100%,100%);fill-opacity:1;" d="M 50.636719 107.078125 L 10.699219 107.101562 L 10.699219 99.648438 L 50.636719 99.617188 L 50.636719 87.941406 L 73.726562 103.339844 L 50.636719 118.730469 L 50.636719 107.070312 M 195.8125 87.347656 L 161.910156 87.371094 L 161.910156 81.03125 L 195.8125 81 L 195.8125 71.089844 L 215.4375 84.183594 L 195.8125 97.257812 L 195.8125 87.347656 M 195.8125 126.929688 L 161.910156 126.957031 L 161.910156 120.605469 L 195.8125 120.578125 L 195.8125 110.671875 L 215.4375 123.765625 L 195.8125 136.828125 L 195.8125 126.929688 M 195.8125 166.507812 L 161.910156 166.53125 L 161.910156 160.183594 L 195.8125 160.152344 L 195.8125 150.246094 L 215.4375 163.347656 L 195.8125 176.441406 L 195.8125 166.507812 M 79.324219 130.683594 L 135.976562 130.683594 L 135.976562 82.664062 L 79.320312 82.664062 L 79.320312 130.683594 Z M 140.910156 110.554688 L 152.273438 110.554688 L 152.273438 88.929688 L 140.910156 88.929688 Z M 140.910156 110.554688 "/>
<path style="fill:none;stroke-width:0.27225;stroke-linecap:butt;stroke-linejoin:miter;stroke:rgb(13.72549%,12.156863%,12.54902%);stroke-opacity:1;stroke-miterlimit:4;" d="M 23.984707 18.792969 L 25.918883 18.792969 L 25.918883 15.116719 L 23.984707 15.116719 Z M 23.984707 18.792969 " transform="matrix(5.875,0,0,5.882353,0,0)"/>
<path style="fill:none;stroke-width:1.21;stroke-linecap:round;stroke-linejoin:miter;stroke:rgb(100%,100%,100%);stroke-opacity:1;stroke-miterlimit:4;" d="M 14.755984 27.456328 L 18.325798 18.134219 L 22.015957 27.480234 " transform="matrix(5.875,0,0,5.882353,0,0)"/>
<path style="fill:none;stroke-width:1.875;stroke-linecap:round;stroke-linejoin:miter;stroke:rgb(100%,100%,100%);stroke-opacity:1;stroke-miterlimit:4;" d="M 21.025266 17.055781 L 23.916223 17.055781 " transform="matrix(5.875,0,0,5.882353,0,0)"/>
</g>
</svg>
