<?xml version="1.0" encoding="UTF-8"?>
<svg xmlns="http://www.w3.org/2000/svg" xmlns:xlink="http://www.w3.org/1999/xlink" width="95pt" height="200pt" viewBox="0 0 95 200" version="1.1">
<defs>
<clipPath id="clip1">
  <path d="M 0 0 L 95 0 L 95 194.800781 L 0 194.800781 Z M 0 0 "/>
</clipPath>
<clipPath id="clip2">
  <path d="M 0 0 L 95 0 L 95 194.800781 L 0 194.800781 Z M 0 0 "/>
</clipPath>
</defs>
<g id="surface1">
<path style=" stroke:none;fill-rule:nonzero;fill:rgb(3.137255%,49.803922%,74.901961%);fill-opacity:1;" d="M 3.144531 190.375 L 62.535156 190.375 L 62.535156 31.046875 L 3.144531 31.046875 Z M 3.144531 190.375 "/>
<path style=" stroke:none;fill-rule:nonzero;fill:rgb(3.137255%,49.803922%,74.901961%);fill-opacity:1;" d="M 62.535156 190.375 L 94.480469 158.40625 L 94.480469 -0.894531 L 35.085938 -0.894531 L 3.144531 31.046875 L 62.535156 31.046875 L 62.535156 190.375 M 62.535156 31.046875 L 94.480469 -0.894531 "/>
<path style=" stroke:none;fill-rule:nonzero;fill:rgb(3.137255%,49.803922%,74.901961%);fill-opacity:1;" d="M 3.144531 190.375 L 62.535156 190.375 L 62.535156 31.046875 L 3.144531 31.046875 Z M 3.144531 190.375 "/>
<path style="fill:none;stroke-width:4;stroke-linecap:butt;stroke-linejoin:miter;stroke:rgb(100%,100%,100%);stroke-opacity:1;stroke-miterlimit:4;" d="M 96.207933 259.927885 L 4.83774 259.927885 L 4.83774 14.807692 L 96.207933 14.807692 " transform="matrix(0.65,0,0,-0.65,0,200)"/>
<path style=" stroke:none;fill-rule:nonzero;fill:rgb(3.137255%,49.803922%,74.901961%);fill-opacity:1;" d="M 62.535156 190.375 L 94.480469 158.40625 L 94.480469 -0.894531 L 35.085938 -0.894531 L 3.144531 31.046875 L 62.535156 31.046875 L 62.535156 190.375 "/>
<g clip-path="url(#clip1)" clip-rule="nonzero">
<path style="fill:none;stroke-width:4;stroke-linecap:butt;stroke-linejoin:miter;stroke:rgb(100%,100%,100%);stroke-opacity:1;stroke-miterlimit:4;" d="M 96.207933 14.807692 L 145.354567 63.990385 L 145.354567 309.06851 L 53.978365 309.06851 L 4.83774 259.927885 L 96.207933 259.927885 Z M 96.207933 14.807692 " transform="matrix(0.65,0,0,-0.65,0,200)"/>
</g>
<path style="fill-rule:nonzero;fill:rgb(13.72549%,12.156863%,12.54902%);fill-opacity:1;stroke-width:4;stroke-linecap:round;stroke-linejoin:round;stroke:rgb(100%,100%,100%);stroke-opacity:1;stroke-miterlimit:4;" d="M 96.207933 259.927885 L 145.354567 309.06851 " transform="matrix(0.65,0,0,-0.65,0,200)"/>
<path style="fill:none;stroke-width:4;stroke-linecap:butt;stroke-linejoin:miter;stroke:rgb(100%,100%,100%);stroke-opacity:1;stroke-miterlimit:4;" d="M 96.207933 259.927885 L 4.83774 259.927885 L 4.83774 14.807692 L 96.207933 14.807692 " transform="matrix(0.65,0,0,-0.65,0,200)"/>
<g clip-path="url(#clip2)" clip-rule="nonzero">
<path style="fill:none;stroke-width:4;stroke-linecap:butt;stroke-linejoin:miter;stroke:rgb(100%,100%,100%);stroke-opacity:1;stroke-miterlimit:4;" d="M 96.207933 14.807692 L 145.354567 63.990385 L 145.354567 309.06851 L 53.978365 309.06851 L 4.83774 259.927885 L 96.207933 259.927885 Z M 96.207933 259.927885 L 145.354567 309.06851 " transform="matrix(0.65,0,0,-0.65,0,200)"/>
</g>
<path style=" stroke:none;fill-rule:nonzero;fill:rgb(100%,100%,100%);fill-opacity:1;" d="M 52.199219 151.855469 C 52.199219 155.816406 43.726562 159.019531 33.261719 159.019531 C 22.773438 159.019531 14.292969 155.816406 14.292969 151.855469 C 14.292969 147.898438 22.773438 144.71875 33.261719 144.71875 C 43.726562 144.71875 52.199219 147.898438 52.199219 151.855469 "/>
<path style="fill:none;stroke-width:3.5;stroke-linecap:round;stroke-linejoin:round;stroke:rgb(13.72549%,12.156863%,12.54902%);stroke-opacity:1;stroke-miterlimit:4;" d="M 80.30649 74.06851 C 80.30649 67.97476 67.271635 63.046875 51.171875 63.046875 C 35.036058 63.046875 21.989183 67.97476 21.989183 74.06851 C 21.989183 80.15625 35.036058 85.048077 51.171875 85.048077 C 67.271635 85.048077 80.30649 80.15625 80.30649 74.06851 Z M 80.30649 74.06851 " transform="matrix(0.65,0,0,-0.65,0,200)"/>
<path style=" stroke:none;fill-rule:nonzero;fill:rgb(13.72549%,12.156863%,12.54902%);fill-opacity:1;" d="M 38.851562 151.480469 C 38.851562 152.644531 36.308594 153.636719 33.164062 153.636719 C 30.011719 153.636719 27.476562 152.644531 27.476562 151.480469 C 27.476562 150.28125 30.011719 149.339844 33.164062 149.339844 C 36.308594 149.339844 38.851562 150.28125 38.851562 151.480469 "/>
<path style=" stroke:none;fill-rule:nonzero;fill:rgb(13.72549%,12.156863%,12.54902%);fill-opacity:1;" d="M 38.851562 147.589844 C 38.851562 148.761719 36.308594 149.722656 33.164062 149.722656 C 30.011719 149.722656 27.476562 148.761719 27.476562 147.59375 C 27.476562 146.394531 30.011719 145.433594 33.164062 145.433594 C 36.308594 145.433594 38.851562 146.394531 38.851562 147.589844 "/>
<path style=" stroke:none;fill-rule:nonzero;fill:rgb(100%,100%,100%);fill-opacity:1;" d="M 52.199219 144.0625 C 52.199219 148.019531 43.726562 151.21875 33.261719 151.21875 C 22.773438 151.21875 14.292969 148.019531 14.292969 144.0625 C 14.292969 140.101562 22.773438 136.898438 33.261719 136.898438 C 43.726562 136.898438 52.199219 140.101562 52.199219 144.0625 "/>
<path style="fill:none;stroke-width:3.5;stroke-linecap:round;stroke-linejoin:round;stroke:rgb(13.72549%,12.156863%,12.54902%);stroke-opacity:1;stroke-miterlimit:4;" d="M 80.30649 86.057692 C 80.30649 79.969952 67.271635 75.048077 51.171875 75.048077 C 35.036058 75.048077 21.989183 79.969952 21.989183 86.057692 C 21.989183 92.151442 35.036058 97.079327 51.171875 97.079327 C 67.271635 97.079327 80.30649 92.151442 80.30649 86.057692 Z M 80.30649 86.057692 " transform="matrix(0.65,0,0,-0.65,0,200)"/>
<path style=" stroke:none;fill-rule:nonzero;fill:rgb(13.72549%,12.156863%,12.54902%);fill-opacity:1;" d="M 38.851562 143.679688 C 38.851562 144.875 36.308594 145.8125 33.164062 145.8125 C 30.011719 145.8125 27.476562 144.875 27.476562 143.679688 C 27.476562 142.488281 30.011719 141.519531 33.164062 141.519531 C 36.308594 141.519531 38.851562 142.488281 38.851562 143.679688 "/>
<path style=" stroke:none;fill-rule:nonzero;fill:rgb(13.72549%,12.156863%,12.54902%);fill-opacity:1;" d="M 38.851562 139.773438 C 38.851562 140.9375 36.308594 141.929688 33.164062 141.929688 C 30.011719 141.929688 27.476562 140.9375 27.476562 139.773438 C 27.476562 138.601562 30.011719 137.617188 33.164062 137.617188 C 36.308594 137.617188 38.851562 138.601562 38.851562 139.773438 "/>
<path style=" stroke:none;fill-rule:nonzero;fill:rgb(100%,100%,100%);fill-opacity:1;" d="M 52.199219 136.269531 C 52.199219 140.226562 43.726562 143.398438 33.261719 143.398438 C 22.773438 143.398438 14.292969 140.226562 14.292969 136.269531 C 14.292969 132.304688 22.773438 129.105469 33.261719 129.105469 C 43.726562 129.105469 52.199219 132.304688 52.199219 136.269531 "/>
<path style="fill:none;stroke-width:3.5;stroke-linecap:round;stroke-linejoin:round;stroke:rgb(13.72549%,12.156863%,12.54902%);stroke-opacity:1;stroke-miterlimit:4;" d="M 80.30649 98.046875 C 80.30649 91.959135 67.271635 87.079327 51.171875 87.079327 C 35.036058 87.079327 21.989183 91.959135 21.989183 98.046875 C 21.989183 104.146635 35.036058 109.06851 51.171875 109.06851 C 67.271635 109.06851 80.30649 104.146635 80.30649 98.046875 Z M 80.30649 98.046875 " transform="matrix(0.65,0,0,-0.65,0,200)"/>
<path style=" stroke:none;fill-rule:nonzero;fill:rgb(13.72549%,12.156863%,12.54902%);fill-opacity:1;" d="M 38.851562 135.886719 C 38.851562 137.054688 36.308594 138.019531 33.164062 138.019531 C 30.011719 138.019531 27.476562 137.054688 27.476562 135.886719 C 27.476562 134.691406 30.011719 133.726562 33.164062 133.726562 C 36.308594 133.726562 38.851562 134.691406 38.851562 135.886719 "/>
<path style=" stroke:none;fill-rule:nonzero;fill:rgb(100%,100%,100%);fill-opacity:1;" d="M 52.199219 120.648438 C 52.199219 124.613281 43.726562 127.8125 33.261719 127.8125 C 22.773438 127.8125 14.292969 124.613281 14.292969 120.648438 C 14.292969 116.714844 22.773438 113.519531 33.261719 113.519531 C 43.726562 113.519531 52.199219 116.714844 52.199219 120.648438 "/>
<path style="fill:none;stroke-width:3.5;stroke-linecap:round;stroke-linejoin:round;stroke:rgb(13.72549%,12.156863%,12.54902%);stroke-opacity:1;stroke-miterlimit:4;" d="M 80.30649 122.079327 C 80.30649 115.979567 67.271635 111.057692 51.171875 111.057692 C 35.036058 111.057692 21.989183 115.979567 21.989183 122.079327 C 21.989183 128.13101 35.036058 133.046875 51.171875 133.046875 C 67.271635 133.046875 80.30649 128.13101 80.30649 122.079327 Z M 80.30649 122.079327 " transform="matrix(0.65,0,0,-0.65,0,200)"/>
<path style=" stroke:none;fill-rule:nonzero;fill:rgb(13.72549%,12.156863%,12.54902%);fill-opacity:1;" d="M 38.851562 120.273438 C 38.851562 121.4375 36.308594 122.429688 33.164062 122.429688 C 30.011719 122.429688 27.476562 121.4375 27.476562 120.273438 C 27.476562 119.101562 30.011719 118.113281 33.164062 118.113281 C 36.308594 118.113281 38.851562 119.101562 38.851562 120.273438 "/>
<path style=" stroke:none;fill-rule:nonzero;fill:rgb(13.72549%,12.156863%,12.54902%);fill-opacity:1;" d="M 38.851562 116.386719 C 38.851562 117.554688 36.308594 118.519531 33.164062 118.519531 C 30.011719 118.519531 27.476562 117.554688 27.476562 116.386719 C 27.476562 115.191406 30.011719 114.226562 33.164062 114.226562 C 36.308594 114.226562 38.851562 115.191406 38.851562 116.386719 "/>
<path style=" stroke:none;fill-rule:nonzero;fill:rgb(100%,100%,100%);fill-opacity:1;" d="M 52.199219 112.855469 C 52.199219 116.816406 43.726562 120.019531 33.261719 120.019531 C 22.773438 120.019531 14.292969 116.816406 14.292969 112.855469 C 14.292969 108.898438 22.773438 105.71875 33.261719 105.71875 C 43.726562 105.71875 52.199219 108.898438 52.199219 112.855469 "/>
<path style="fill:none;stroke-width:3.5;stroke-linecap:round;stroke-linejoin:round;stroke:rgb(13.72549%,12.156863%,12.54902%);stroke-opacity:1;stroke-miterlimit:4;" d="M 80.30649 134.06851 C 80.30649 127.97476 67.271635 123.046875 51.171875 123.046875 C 35.036058 123.046875 21.989183 127.97476 21.989183 134.06851 C 21.989183 140.15625 35.036058 145.048077 51.171875 145.048077 C 67.271635 145.048077 80.30649 140.15625 80.30649 134.06851 Z M 80.30649 134.06851 " transform="matrix(0.65,0,0,-0.65,0,200)"/>
<path style=" stroke:none;fill-rule:nonzero;fill:rgb(13.72549%,12.156863%,12.54902%);fill-opacity:1;" d="M 38.851562 112.480469 C 38.851562 113.644531 36.308594 114.636719 33.164062 114.636719 C 30.011719 114.636719 27.476562 113.644531 27.476562 112.480469 C 27.476562 111.28125 30.011719 110.339844 33.164062 110.339844 C 36.308594 110.339844 38.851562 111.28125 38.851562 112.480469 "/>
<path style=" stroke:none;fill-rule:nonzero;fill:rgb(13.72549%,12.156863%,12.54902%);fill-opacity:1;" d="M 38.851562 108.566406 C 38.851562 109.761719 36.308594 110.722656 33.164062 110.722656 C 30.011719 110.722656 27.476562 109.761719 27.476562 108.566406 C 27.476562 107.394531 30.011719 106.433594 33.164062 106.433594 C 36.308594 106.433594 38.851562 107.394531 38.851562 108.566406 "/>
<path style=" stroke:none;fill-rule:nonzero;fill:rgb(100%,100%,100%);fill-opacity:1;" d="M 52.199219 105.0625 C 52.199219 109.019531 43.726562 112.21875 33.261719 112.21875 C 22.773438 112.21875 14.292969 109.019531 14.292969 105.0625 C 14.292969 101.105469 22.773438 97.898438 33.261719 97.898438 C 43.726562 97.898438 52.199219 101.105469 52.199219 105.0625 "/>
<path style="fill:none;stroke-width:3.5;stroke-linecap:round;stroke-linejoin:round;stroke:rgb(13.72549%,12.156863%,12.54902%);stroke-opacity:1;stroke-miterlimit:4;" d="M 80.30649 146.057692 C 80.30649 139.969952 67.271635 135.048077 51.171875 135.048077 C 35.036058 135.048077 21.989183 139.969952 21.989183 146.057692 C 21.989183 152.145433 35.036058 157.079327 51.171875 157.079327 C 67.271635 157.079327 80.30649 152.145433 80.30649 146.057692 Z M 80.30649 146.057692 " transform="matrix(0.65,0,0,-0.65,0,200)"/>
<path style=" stroke:none;fill-rule:nonzero;fill:rgb(13.72549%,12.156863%,12.54902%);fill-opacity:1;" d="M 38.851562 104.679688 C 38.851562 105.875 36.308594 106.8125 33.164062 106.8125 C 30.011719 106.8125 27.476562 105.875 27.476562 104.679688 C 27.476562 103.488281 30.011719 102.519531 33.164062 102.519531 C 36.308594 102.519531 38.851562 103.488281 38.851562 104.679688 "/>
<path style=" stroke:none;fill-rule:nonzero;fill:rgb(100%,100%,100%);fill-opacity:1;" d="M 52.199219 89.46875 C 52.199219 93.40625 43.726562 96.605469 33.261719 96.605469 C 22.773438 96.605469 14.292969 93.40625 14.292969 89.46875 C 14.292969 85.511719 22.773438 82.3125 33.261719 82.3125 C 43.726562 82.3125 52.199219 85.511719 52.199219 89.46875 "/>
<path style="fill:none;stroke-width:3.5;stroke-linecap:round;stroke-linejoin:round;stroke:rgb(13.72549%,12.156863%,12.54902%);stroke-opacity:1;stroke-miterlimit:4;" d="M 80.30649 170.048077 C 80.30649 163.990385 67.271635 159.06851 51.171875 159.06851 C 35.036058 159.06851 21.989183 163.990385 21.989183 170.048077 C 21.989183 176.135817 35.036058 181.057692 51.171875 181.057692 C 67.271635 181.057692 80.30649 176.135817 80.30649 170.048077 Z M 80.30649 170.048077 " transform="matrix(0.65,0,0,-0.65,0,200)"/>
<path style=" stroke:none;fill-rule:nonzero;fill:rgb(13.72549%,12.156863%,12.54902%);fill-opacity:1;" d="M 38.851562 89.066406 C 38.851562 90.261719 36.308594 91.222656 33.164062 91.222656 C 30.011719 91.222656 27.476562 90.261719 27.476562 89.066406 C 27.476562 87.894531 30.011719 86.933594 33.164062 86.933594 C 36.308594 86.933594 38.851562 87.894531 38.851562 89.066406 "/>
<path style=" stroke:none;fill-rule:nonzero;fill:rgb(13.72549%,12.156863%,12.54902%);fill-opacity:1;" d="M 38.851562 85.179688 C 38.851562 86.375 36.308594 87.3125 33.164062 87.3125 C 30.011719 87.3125 27.476562 86.375 27.476562 85.179688 C 27.476562 83.988281 30.011719 83.019531 33.164062 83.019531 C 36.308594 83.019531 38.851562 83.988281 38.851562 85.179688 "/>
<path style=" stroke:none;fill-rule:nonzero;fill:rgb(100%,100%,100%);fill-opacity:1;" d="M 52.199219 81.648438 C 52.199219 85.613281 43.726562 88.8125 33.261719 88.8125 C 22.773438 88.8125 14.292969 85.613281 14.292969 81.648438 C 14.292969 77.714844 22.773438 74.519531 33.261719 74.519531 C 43.726562 74.519531 52.199219 77.714844 52.199219 81.648438 "/>
<path style="fill:none;stroke-width:3.5;stroke-linecap:round;stroke-linejoin:round;stroke:rgb(13.72549%,12.156863%,12.54902%);stroke-opacity:1;stroke-miterlimit:4;" d="M 80.30649 182.079327 C 80.30649 175.979567 67.271635 171.057692 51.171875 171.057692 C 35.036058 171.057692 21.989183 175.979567 21.989183 182.079327 C 21.989183 188.13101 35.036058 193.046875 51.171875 193.046875 C 67.271635 193.046875 80.30649 188.13101 80.30649 182.079327 Z M 80.30649 182.079327 " transform="matrix(0.65,0,0,-0.65,0,200)"/>
<path style=" stroke:none;fill-rule:nonzero;fill:rgb(13.72549%,12.156863%,12.54902%);fill-opacity:1;" d="M 38.851562 81.273438 C 38.851562 82.4375 36.308594 83.429688 33.164062 83.429688 C 30.011719 83.429688 27.476562 82.4375 27.476562 81.273438 C 27.476562 80.078125 30.011719 79.140625 33.164062 79.140625 C 36.308594 79.140625 38.851562 80.078125 38.851562 81.273438 "/>
<path style=" stroke:none;fill-rule:nonzero;fill:rgb(13.72549%,12.156863%,12.54902%);fill-opacity:1;" d="M 38.851562 77.386719 C 38.851562 78.554688 36.308594 79.519531 33.164062 79.519531 C 30.011719 79.519531 27.476562 78.554688 27.476562 77.386719 C 27.476562 76.191406 30.011719 75.226562 33.164062 75.226562 C 36.308594 75.226562 38.851562 76.191406 38.851562 77.386719 "/>
<path style=" stroke:none;fill-rule:nonzero;fill:rgb(100%,100%,100%);fill-opacity:1;" d="M 52.199219 73.855469 C 52.199219 77.816406 43.726562 81.019531 33.261719 81.019531 C 22.773438 81.019531 14.292969 77.816406 14.292969 73.855469 C 14.292969 69.925781 22.773438 66.71875 33.261719 66.71875 C 43.726562 66.71875 52.199219 69.925781 52.199219 73.855469 "/>
<path style="fill:none;stroke-width:3.5;stroke-linecap:round;stroke-linejoin:round;stroke:rgb(13.72549%,12.156863%,12.54902%);stroke-opacity:1;stroke-miterlimit:4;" d="M 80.30649 194.06851 C 80.30649 187.97476 67.271635 183.046875 51.171875 183.046875 C 35.036058 183.046875 21.989183 187.97476 21.989183 194.06851 C 21.989183 200.114183 35.036058 205.048077 51.171875 205.048077 C 67.271635 205.048077 80.30649 200.114183 80.30649 194.06851 Z M 80.30649 194.06851 " transform="matrix(0.65,0,0,-0.65,0,200)"/>
<path style=" stroke:none;fill-rule:nonzero;fill:rgb(13.72549%,12.156863%,12.54902%);fill-opacity:1;" d="M 38.851562 73.480469 C 38.851562 74.667969 36.308594 75.613281 33.164062 75.613281 C 30.011719 75.613281 27.476562 74.667969 27.476562 73.480469 C 27.476562 72.28125 30.011719 71.316406 33.164062 71.316406 C 36.308594 71.316406 38.851562 72.28125 38.851562 73.480469 "/>
</g>
</svg>
