<?xml version="1.0" encoding="UTF-8"?>
<svg xmlns="http://www.w3.org/2000/svg" xmlns:xlink="http://www.w3.org/1999/xlink" width="369pt" height="200pt" viewBox="0 0 369 200" version="1.1">
<g id="surface1">
<path style=" stroke:none;fill-rule:nonzero;fill:rgb(3.137255%,48.235294%,73.333333%);fill-opacity:1;" d="M 4.28125 97.671875 L 113.390625 9.277344 L 365.253906 9.277344 L 274.960938 97.671875 L 4.28125 97.671875 "/>
<path style="fill:none;stroke-width:0.5;stroke-linecap:butt;stroke-linejoin:miter;stroke:rgb(100%,100%,100%);stroke-opacity:1;stroke-miterlimit:4;" d="M 0.707741 16.117148 L 18.744792 1.532051 L 60.380727 1.532051 L 45.454247 16.117148 Z M 0.707741 16.117148 " transform="matrix(6.04918,0,0,6.060606,0,0)"/>
<path style=" stroke:none;fill-rule:nonzero;fill:rgb(0%,0%,0%);fill-opacity:1;" d="M 251.742188 55.976562 L 258.457031 49.265625 L 279.417969 58.816406 L 242.644531 69.417969 L 250.972656 58.414062 L 183.957031 58.414062 L 186.351562 55.976562 L 251.742188 55.976562 M 211.457031 33.460938 L 209.058594 35.855469 L 140.710938 35.855469 L 130.339844 43.914062 L 112.738281 35.265625 L 153.121094 23.429688 L 143.113281 33.460938 L 211.457031 33.460938 M 173.761719 71.546875 L 171.34375 73.96875 L 102.671875 73.96875 L 92.304688 81.695312 L 74.046875 73.054688 L 115.40625 61.539062 L 106.066406 71.546875 L 173.761719 71.546875 M 290.4375 24.164062 L 297.136719 17.453125 L 318.132812 26.648438 L 281.335938 37.253906 L 289.339844 26.570312 L 222.003906 26.570312 L 224.402344 24.164062 L 290.445312 24.164062 "/>
<path style=" stroke:none;fill-rule:nonzero;fill:rgb(100%,100%,100%);fill-opacity:1;" d="M 252.070312 58.289062 L 258.777344 51.5625 L 277.113281 59.472656 L 240.308594 70.066406 L 249.648438 60.714844 L 182.296875 60.714844 L 184.699219 58.289062 L 252.070312 58.289062 M 209.152344 35.769531 L 206.761719 38.164062 L 139.386719 38.164062 L 132.683594 44.914062 L 114.394531 36.921875 L 151.109375 26.425781 L 141.773438 35.777344 L 209.152344 35.777344 "/>
<path style=" stroke:none;fill-rule:nonzero;fill:rgb(3.137255%,48.235294%,73.333333%);fill-opacity:1;" d="M 274.960938 185.539062 L 365.25 87.855469 L 365.25 9.429688 L 274.953125 97.671875 L 274.953125 185.539062 "/>
<path style="fill:none;stroke-width:0.5;stroke-linecap:butt;stroke-linejoin:miter;stroke:rgb(100%,100%,100%);stroke-opacity:1;stroke-miterlimit:4;" d="M 45.454247 30.613945 L 60.380081 14.496152 L 60.380081 1.555898 L 45.452956 16.115859 L 45.452956 30.613945 Z M 45.454247 30.613945 " transform="matrix(6.04918,0,0,6.060606,0,0)"/>
<path style=" stroke:none;fill-rule:nonzero;fill:rgb(100%,100%,100%);fill-opacity:1;" d="M 171.105469 73.886719 L 168.710938 76.277344 L 101.335938 76.277344 L 94.640625 83.03125 L 76.351562 75.035156 L 113.070312 64.527344 L 103.738281 73.886719 L 171.105469 73.886719 M 290.4375 26.480469 L 297.140625 19.75 L 315.488281 27.660156 L 278.710938 38.261719 L 288.050781 28.902344 L 220.675781 28.902344 L 223.0625 26.480469 L 290.4375 26.480469 "/>
<path style="fill:none;stroke-width:0.35;stroke-linecap:round;stroke-linejoin:miter;stroke:rgb(0%,0%,0%);stroke-opacity:1;stroke-miterlimit:4;" d="M 47.290111 4.832695 L 45.921769 6.199746 " transform="matrix(6.04918,0,0,6.060606,0,0)"/>
<path style="fill:none;stroke-width:0.21;stroke-linecap:round;stroke-linejoin:miter;stroke:rgb(0%,0%,0%);stroke-opacity:1;stroke-miterlimit:4;" d="M 40.620173 10.413691 L 39.800072 11.23418 M 30.591051 9.539062 L 30.195207 9.867129 " transform="matrix(6.04918,0,0,6.060606,0,0)"/>
<path style="fill:none;stroke-width:0.35;stroke-linecap:round;stroke-linejoin:miter;stroke:rgb(0%,0%,0%);stroke-opacity:1;stroke-miterlimit:4;" d="M 37.118924 4.123711 L 36.519023 4.670918 " transform="matrix(6.04918,0,0,6.060606,0,0)"/>
<path style=" stroke:none;fill-rule:nonzero;fill:rgb(3.137255%,48.235294%,73.333333%);fill-opacity:1;" d="M 4.664062 185.59375 L 274.960938 185.59375 L 274.960938 97.671875 L 4.65625 97.671875 L 4.65625 185.59375 Z M 4.664062 185.59375 "/>
<path style="fill:none;stroke-width:0.5;stroke-linecap:butt;stroke-linejoin:miter;stroke:rgb(100%,100%,100%);stroke-opacity:1;stroke-miterlimit:4;" d="M 0.771024 30.622969 L 45.454247 30.622969 L 45.454247 16.117148 L 0.769732 16.117148 L 0.769732 30.622969 Z M 0.771024 30.622969 " transform="matrix(6.04918,0,0,6.060606,0,0)"/>
<path style=" stroke:none;fill-rule:nonzero;fill:rgb(100%,100%,100%);fill-opacity:1;" d="M 76.496094 131.0625 L 76.496094 113.480469 L 79.484375 113.480469 L 75.113281 106.847656 L 70.714844 113.480469 L 73.695312 113.480469 L 73.695312 131.0625 L 76.496094 131.0625 M 67.582031 133.574219 L 55.179688 121.144531 L 57.269531 119.046875 L 49.476562 117.472656 L 51.066406 125.289062 L 53.167969 123.15625 L 65.566406 135.582031 L 67.582031 133.574219 M 63.03125 141.710938 L 45.488281 141.710938 L 45.488281 138.75 L 38.871094 143.128906 L 45.488281 147.539062 L 45.488281 144.550781 L 63.03125 144.550781 L 63.03125 141.710938 M 65.574219 150.671875 L 53.167969 163.109375 L 51.066406 161.007812 L 49.476562 168.816406 L 57.269531 167.21875 L 55.175781 165.121094 L 67.582031 152.691406 L 65.574219 150.671875 M 73.695312 155.238281 L 73.695312 172.8125 L 70.714844 172.8125 L 75.113281 179.4375 L 79.484375 172.8125 L 76.496094 172.8125 L 76.496094 155.238281 L 73.695312 155.238281 M 84.621094 135.582031 L 97.027344 123.15625 L 99.121094 125.285156 L 100.71875 117.480469 L 92.921875 119.046875 L 95.019531 121.144531 L 82.648438 133.574219 L 84.621094 135.582031 "/>
<path style=" stroke:none;fill-rule:nonzero;fill:rgb(100%,100%,100%);fill-opacity:1;" d="M 85.835938 157.871094 C 94.054688 152.109375 96.046875 140.765625 90.289062 132.539062 C 87.535156 128.582031 83.324219 125.882812 78.582031 125.042969 C 73.839844 124.203125 68.957031 125.292969 65.015625 128.066406 C 61.0625 130.828125 58.371094 135.050781 57.53125 139.804688 C 56.695312 144.558594 57.78125 149.449219 60.550781 153.398438 C 66.300781 161.636719 77.625 163.636719 85.835938 157.871094 "/>
<path style=" stroke:none;fill-rule:nonzero;fill:rgb(100%,100%,100%);fill-opacity:1;" d="M 84.242188 152.691406 L 96.640625 165.121094 L 94.546875 167.21875 L 102.347656 168.816406 L 100.75 161.007812 L 98.65625 163.109375 L 86.242188 150.671875 L 84.246094 152.691406 "/>
<path style="fill:none;stroke-width:1.25;stroke-linecap:butt;stroke-linejoin:miter;stroke:rgb(100%,100%,100%);stroke-opacity:1;stroke-miterlimit:4;" d="M 14.130918 23.654941 L 33.212144 23.654941 " transform="matrix(6.04918,0,0,6.060606,0,0)"/>
<path style=" stroke:none;fill-rule:nonzero;fill:rgb(100%,100%,100%);fill-opacity:1;" d="M 208.535156 151.089844 L 208.535156 163.398438 L 206.441406 163.398438 L 209.539062 168.046875 L 212.605469 163.398438 L 210.511719 163.398438 L 210.511719 151.097656 L 208.535156 151.097656 M 214.789062 149.320312 L 223.480469 158.011719 L 222 159.496094 L 227.46875 160.585938 L 226.347656 155.144531 L 224.894531 156.628906 L 216.214844 147.925781 L 214.789062 149.320312 M 217.980469 143.636719 L 230.238281 143.636719 L 230.238281 145.703125 L 234.878906 142.628906 L 230.238281 139.550781 L 230.238281 141.65625 L 217.980469 141.65625 L 217.980469 143.636719 M 216.214844 137.363281 L 224.894531 128.660156 L 226.347656 130.144531 L 227.460938 124.667969 L 222 125.757812 L 223.480469 127.242188 L 214.789062 135.9375 L 216.214844 137.363281 M 210.511719 134.167969 L 210.511719 121.878906 L 212.609375 121.878906 L 209.539062 117.230469 L 206.441406 121.878906 L 208.535156 121.878906 L 208.535156 134.164062 L 210.511719 134.164062 M 202.859375 147.925781 L 194.179688 156.628906 L 192.695312 155.144531 L 191.609375 160.59375 L 197.046875 159.503906 L 195.5625 158.011719 L 204.25 149.320312 L 202.859375 147.925781 "/>
<path style=" stroke:none;fill-rule:nonzero;fill:rgb(100%,100%,100%);fill-opacity:1;" d="M 202.007812 132.332031 C 199.246094 134.269531 197.371094 137.226562 196.789062 140.550781 C 196.207031 143.875 196.96875 147.292969 198.902344 150.054688 C 200.832031 152.824219 203.78125 154.710938 207.101562 155.300781 C 210.417969 155.886719 213.835938 155.128906 216.597656 153.195312 C 220.429688 150.628906 222.574219 146.183594 222.203125 141.582031 C 221.835938 136.976562 219.007812 132.9375 214.816406 131.015625 C 210.621094 129.097656 205.722656 129.601562 202.007812 132.332031 "/>
<path style=" stroke:none;fill-rule:nonzero;fill:rgb(100%,100%,100%);fill-opacity:1;" d="M 203.125 135.9375 L 194.445312 127.242188 L 195.921875 125.757812 L 190.457031 124.667969 L 191.578125 130.144531 L 193.023438 128.660156 L 201.710938 137.363281 L 203.125 135.9375 "/>
</g>
</svg>
