<?xml version="1.0" encoding="UTF-8"?>
<svg xmlns="http://www.w3.org/2000/svg" xmlns:xlink="http://www.w3.org/1999/xlink" width="555pt" height="200pt" viewBox="0 0 555 200" version="1.1">
<g id="surface1">
<path style="fill-rule:nonzero;fill:rgb(0.784314%,43.921569%,62.352941%);fill-opacity:1;stroke-width:0.5;stroke-linecap:butt;stroke-linejoin:miter;stroke:rgb(100%,100%,100%);stroke-opacity:1;stroke-miterlimit:4;" d="M 0.736909 15.700078 L 42.382109 15.700078 L 42.382109 5.313867 L 0.736909 5.313867 Z M 0.736909 15.700078 " transform="matrix(11.1,0,0,11.111111,0,0)"/>
<path style=" stroke:none;fill-rule:nonzero;fill:rgb(0.784314%,43.921569%,62.352941%);fill-opacity:1;" d="M 38.105469 114.445312 L 119.722656 114.445312 L 119.722656 99.132812 L 38.105469 99.132812 Z M 38.105469 114.445312 "/>
<path style="fill:none;stroke-width:0.5;stroke-linecap:butt;stroke-linejoin:miter;stroke:rgb(100%,100%,100%);stroke-opacity:1;stroke-miterlimit:4;" d="M 3.432925 10.300078 L 10.785825 10.300078 L 10.785825 8.923008 L 3.432925 8.923008 Z M 3.432925 10.300078 " transform="matrix(11.1,0,0,11.111111,0,0)"/>
<path style=" stroke:none;fill-rule:nonzero;fill:rgb(0.784314%,43.921569%,62.352941%);fill-opacity:1;" d="M 142.644531 114.445312 L 224.230469 114.445312 L 224.230469 99.132812 L 142.644531 99.132812 Z M 142.644531 114.445312 "/>
<path style="fill:none;stroke-width:0.5;stroke-linecap:butt;stroke-linejoin:miter;stroke:rgb(100%,100%,100%);stroke-opacity:1;stroke-miterlimit:4;" d="M 12.850859 10.300078 L 20.200943 10.300078 L 20.200943 8.923008 L 12.850859 8.923008 Z M 12.850859 10.300078 " transform="matrix(11.1,0,0,11.111111,0,0)"/>
<path style=" stroke:none;fill-rule:nonzero;fill:rgb(0.784314%,43.921569%,62.352941%);fill-opacity:1;" d="M 247.195312 114.445312 L 328.769531 114.445312 L 328.769531 99.132812 L 247.195312 99.132812 Z M 247.195312 114.445312 "/>
<path style="fill:none;stroke-width:0.5;stroke-linecap:butt;stroke-linejoin:miter;stroke:rgb(100%,100%,100%);stroke-opacity:1;stroke-miterlimit:4;" d="M 22.269848 10.300078 L 29.618877 10.300078 L 29.618877 8.923008 L 22.269848 8.923008 Z M 22.269848 10.300078 " transform="matrix(11.1,0,0,11.111111,0,0)"/>
<path style=" stroke:none;fill-rule:nonzero;fill:rgb(0.784314%,43.921569%,62.352941%);fill-opacity:1;" d="M 351.757812 114.445312 L 433.332031 114.445312 L 433.332031 99.132812 L 351.757812 99.132812 Z M 351.757812 114.445312 "/>
<path style="fill:none;stroke-width:0.5;stroke-linecap:butt;stroke-linejoin:miter;stroke:rgb(100%,100%,100%);stroke-opacity:1;stroke-miterlimit:4;" d="M 31.689893 10.300078 L 39.038922 10.300078 L 39.038922 8.923008 L 31.689893 8.923008 Z M 31.689893 10.300078 " transform="matrix(11.1,0,0,11.111111,0,0)"/>
<path style=" stroke:none;fill-rule:nonzero;fill:rgb(0.784314%,43.921569%,62.352941%);fill-opacity:1;" d="M 470.441406 59.042969 L 8.179688 59.042969 L 76.421875 6.921875 L 540.957031 6.921875 L 470.441406 59.042969 "/>
<path style="fill:none;stroke-width:0.5;stroke-linecap:butt;stroke-linejoin:miter;stroke:rgb(100%,100%,100%);stroke-opacity:1;stroke-miterlimit:4;" d="M 42.382109 5.313867 L 0.736909 5.313867 L 6.884854 0.621914 L 48.734868 0.621914 Z M 42.382109 5.313867 " transform="matrix(11.1,0,0,11.111111,0,0)"/>
<path style=" stroke:none;fill-rule:nonzero;fill:rgb(0.784314%,43.921569%,62.352941%);fill-opacity:1;" d="M 470.441406 174.445312 L 470.441406 59.042969 L 540.957031 6.921875 L 540.957031 112.433594 L 470.441406 174.445312 "/>
<path style="fill:none;stroke-width:0.5;stroke-linecap:butt;stroke-linejoin:miter;stroke:rgb(100%,100%,100%);stroke-opacity:1;stroke-miterlimit:4;" d="M 42.382109 15.700078 L 42.382109 5.313867 L 48.734868 0.621914 L 48.734868 10.119023 Z M 42.382109 15.700078 " transform="matrix(11.1,0,0,11.111111,0,0)"/>
</g>
</svg>
