<?xml version="1.0" encoding="UTF-8"?>
<svg xmlns="http://www.w3.org/2000/svg" xmlns:xlink="http://www.w3.org/1999/xlink" width="121pt" height="200pt" viewBox="0 0 121 200" version="1.1">
<g id="surface1">
<path style=" stroke:none;fill-rule:nonzero;fill:rgb(3.137255%,48.235294%,73.333333%);fill-opacity:1;" d="M 3.402344 191.683594 L 101.195312 191.683594 L 101.195312 19.828125 L 3.402344 19.828125 Z M 3.402344 191.683594 "/>
<path style="fill:none;stroke-width:0.5;stroke-linecap:butt;stroke-linejoin:miter;stroke:rgb(100%,100%,100%);stroke-opacity:1;stroke-miterlimit:4;" d="M 0.702964 39.294336 L 20.908122 39.294336 L 20.908122 4.063965 L 0.702964 4.063965 Z M 0.702964 39.294336 " transform="matrix(4.84,0,0,4.878049,0,0)"/>
<path style=" stroke:none;fill-rule:nonzero;fill:rgb(3.137255%,48.235294%,73.333333%);fill-opacity:1;" d="M 3.402344 19.828125 L 22.09375 4.535156 L 116.363281 4.535156 L 101.203125 19.828125 L 3.402344 19.828125 "/>
<path style="fill:none;stroke-width:0.5;stroke-linecap:butt;stroke-linejoin:miter;stroke:rgb(100%,100%,100%);stroke-opacity:1;stroke-miterlimit:4;" d="M 0.702964 4.064766 L 4.564824 0.929707 L 24.042 0.929707 L 20.909737 4.064766 Z M 0.702964 4.064766 " transform="matrix(4.84,0,0,4.878049,0,0)"/>
<path style=" stroke:none;fill-rule:nonzero;fill:rgb(3.137255%,48.235294%,73.333333%);fill-opacity:1;" d="M 101.199219 191.679688 L 116.367188 172.859375 L 116.367188 4.535156 L 101.199219 19.828125 L 101.199219 191.679688 "/>
<path style="fill:none;stroke-width:0.5;stroke-linecap:butt;stroke-linejoin:miter;stroke:rgb(100%,100%,100%);stroke-opacity:1;stroke-miterlimit:4;" d="M 20.908929 39.294336 L 24.042807 35.436973 L 24.042807 0.929707 L 20.908929 4.064766 L 20.908929 39.295137 Z M 0.355921 36.74625 L 20.46423 36.74625 M 0.355921 17.887852 L 20.46423 17.887852 " transform="matrix(4.84,0,0,4.878049,0,0)"/>
<path style=" stroke:none;fill-rule:nonzero;fill:rgb(100%,100%,100%);fill-opacity:1;" d="M 44.875 141.996094 L 44.875 156.09375 L 39.421875 156.09375 L 50.359375 170.195312 L 61.613281 156.097656 L 56.125 156.097656 L 56.125 142 L 44.875 142 M 44.875 130.800781 L 44.875 116.703125 L 39.421875 116.703125 L 50.359375 102.601562 L 61.613281 116.699219 L 56.125 116.699219 L 56.125 130.800781 L 44.875 130.800781 M 16.378906 131.464844 L 30.367188 131.464844 L 30.367188 125.960938 L 44.359375 136.996094 L 30.371094 148.332031 L 30.371094 142.804688 L 16.378906 142.804688 L 16.378906 131.464844 M 84.277344 131.464844 L 70.277344 131.464844 L 70.277344 125.960938 L 56.289062 136.996094 L 70.277344 148.332031 L 70.277344 142.804688 L 84.273438 142.804688 L 84.273438 131.464844 "/>
<path style=" stroke:none;fill-rule:nonzero;fill:rgb(3.137255%,48.235294%,73.333333%);fill-opacity:1;" d="M 11.179688 50.796875 L 56.554688 50.796875 L 56.554688 32 L 11.179688 32 Z M 11.179688 50.796875 "/>
<path style="fill:none;stroke-width:0.5;stroke-linecap:butt;stroke-linejoin:miter;stroke:rgb(100%,100%,100%);stroke-opacity:1;stroke-miterlimit:4;" d="M 2.309853 10.411758 L 11.684853 10.411758 L 11.684853 6.56 L 2.309853 6.56 Z M 3.247676 8.619609 L 10.850336 8.619609 " transform="matrix(4.84,0,0,4.878049,0,0)"/>
</g>
</svg>
