<?xml version="1.0" encoding="UTF-8"?>
<svg xmlns="http://www.w3.org/2000/svg" xmlns:xlink="http://www.w3.org/1999/xlink" width="200pt" height="200pt" viewBox="0 0 200 200" version="1.1">
<defs>
<clipPath id="clip1">
  <path d="M 121 29 L 154 29 L 154 41 L 121 41 Z M 121 29 "/>
</clipPath>
<clipPath id="clip2">
  <path d="M 127.019531 48.875 L 121.171875 35.609375 L 150.445312 29.734375 L 145.367188 34.304688 L 194.164062 42.628906 L 182.457031 51.988281 L 133.949219 42.894531 L 127.019531 48.875 "/>
</clipPath>
<clipPath id="clip3">
  <path d="M 145 32 L 195 32 L 195 48 L 145 48 Z M 145 32 "/>
</clipPath>
<clipPath id="clip4">
  <path d="M 127.019531 48.875 L 121.171875 35.609375 L 150.445312 29.734375 L 145.367188 34.304688 L 194.164062 42.628906 L 182.457031 51.988281 L 133.949219 42.894531 L 127.019531 48.875 "/>
</clipPath>
<clipPath id="clip5">
  <path d="M 107 1 L 145 1 L 145 15 L 107 15 Z M 107 1 "/>
</clipPath>
<clipPath id="clip6">
  <path d="M 111.015625 10.617188 L 143.796875 1.625 L 144.199219 15.6875 L 136.003906 14.125 L 119.996094 27.394531 L 104.71875 25.183594 L 121.230469 12.179688 L 111.015625 10.617188 "/>
</clipPath>
<clipPath id="clip7">
  <path d="M 64 39 L 106 39 L 106 66 L 64 66 Z M 64 39 "/>
</clipPath>
<clipPath id="clip8">
  <path d="M 96.96875 60.976562 L 65.730469 66.824219 L 64.558594 52.382812 L 73.546875 54.328125 L 90.722656 39.648438 L 105.933594 42.230469 L 87.585938 58.238281 L 96.96875 60.976562 "/>
</clipPath>
</defs>
<g id="surface1">
<path style=" stroke:none;fill-rule:nonzero;fill:rgb(3.137255%,48.235294%,73.333333%);fill-opacity:1;" d="M 201 39.890625 C 201 61.375 156.246094 78.761719 101.054688 78.761719 C 45.839844 78.761719 1.082031 61.375 1.082031 39.890625 L 1.082031 163.300781 C 1.082031 184.761719 45.835938 202.167969 101.054688 202.167969 C 156.246094 202.167969 201 184.761719 201 163.300781 L 201 39.890625 "/>
<path style="fill:none;stroke-width:0.5;stroke-linecap:butt;stroke-linejoin:miter;stroke:rgb(100%,100%,100%);stroke-opacity:1;stroke-miterlimit:4;" d="M 46.23 9.174844 C 46.23 14.11625 35.936602 18.115195 23.242578 18.115195 C 10.543164 18.115195 0.248867 14.11625 0.248867 9.174844 L 0.248867 37.55918 C 0.248867 42.495195 10.542266 46.498633 23.242578 46.498633 C 35.936602 46.498633 46.23 42.495195 46.23 37.55918 Z M 46.23 9.174844 " transform="matrix(4.347826,0,0,4.347826,0,0)"/>
<path style=" stroke:none;fill-rule:nonzero;fill:rgb(3.137255%,48.235294%,73.333333%);fill-opacity:1;" d="M 101.054688 78.761719 C 156.253906 78.761719 201 61.375 201 39.890625 C 201 18.429688 156.253906 1.023438 101.054688 1.023438 C 45.839844 1.023438 1.082031 18.429688 1.082031 39.890625 C 1.082031 61.375 45.835938 78.761719 101.054688 78.761719 "/>
<path style="fill:none;stroke-width:0.5;stroke-linecap:butt;stroke-linejoin:miter;stroke:rgb(100%,100%,100%);stroke-opacity:1;stroke-miterlimit:4;" d="M 23.242578 18.115195 C 35.938398 18.115195 46.23 14.11625 46.23 9.174844 C 46.23 4.238828 35.938398 0.235391 23.242578 0.235391 C 10.543164 0.235391 0.248867 4.238828 0.248867 9.174844 C 0.248867 14.11625 10.542266 18.115195 23.242578 18.115195 Z M 23.242578 18.115195 " transform="matrix(4.347826,0,0,4.347826,0,0)"/>
<path style=" stroke:none;fill-rule:nonzero;fill:rgb(13.72549%,12.156863%,12.54902%);fill-opacity:1;" d="M 89.105469 37.832031 L 81.21875 24.695312 L 77.105469 23.566406 L 72.21875 27.324219 L 26.042969 19.453125 L 11.421875 29.957031 L 13.863281 34.113281 L 25.960938 25.046875 L 72.5 32.929688 L 78.234375 28.445312 L 86.46875 40.824219 L 89.105469 37.832031 "/>
<g clip-path="url(#clip1)" clip-rule="nonzero">
<g clip-path="url(#clip2)" clip-rule="nonzero">
<path style=" stroke:none;fill-rule:nonzero;fill:rgb(13.72549%,12.156863%,12.54902%);fill-opacity:1;" d="M 121.171875 40.289062 L 150.445312 34.417969 L 153.558594 29.359375 L 150.046875 27.015625 L 117.65625 34.417969 L 121.171875 40.289062 "/>
</g>
</g>
<g clip-path="url(#clip3)" clip-rule="nonzero">
<g clip-path="url(#clip4)" clip-rule="nonzero">
<path style=" stroke:none;fill-rule:nonzero;fill:rgb(13.72549%,12.156863%,12.54902%);fill-opacity:1;" d="M 196.503906 41.0625 L 151.21875 32.472656 L 145.367188 34.8125 L 145.367188 38.980469 L 194.164062 47.308594 L 196.503906 41.0625 "/>
</g>
</g>
<g clip-path="url(#clip5)" clip-rule="nonzero">
<g clip-path="url(#clip6)" clip-rule="nonzero">
<path style=" stroke:none;fill-rule:nonzero;fill:rgb(13.72549%,12.156863%,12.54902%);fill-opacity:1;" d="M 112.578125 14.125 L 144.96875 5.160156 L 147.308594 2.023438 L 144.59375 -1.089844 L 107.101562 9.445312 L 112.578125 14.125 "/>
</g>
</g>
<g clip-path="url(#clip7)" clip-rule="nonzero">
<g clip-path="url(#clip8)" clip-rule="nonzero">
<path style=" stroke:none;fill-rule:nonzero;fill:rgb(13.72549%,12.156863%,12.54902%);fill-opacity:1;" d="M 61.445312 48.875 L 61.445312 56.667969 L 73.546875 59.007812 L 90.722656 44.328125 L 105.933594 46.914062 L 110.238281 41.0625 L 89.925781 37.152344 L 72.773438 51.59375 L 61.445312 48.875 M 97.742188 57.070312 L 87.585938 58.238281 L 87.585938 62.921875 L 96.96875 65.65625 L 102.421875 60.976562 L 97.742188 57.070312 "/>
</g>
</g>
<path style=" stroke:none;fill-rule:nonzero;fill:rgb(100%,100%,100%);fill-opacity:1;" d="M 106.742188 17.945312 L 138.265625 9.300781 L 138.65625 22.820312 L 130.773438 21.3125 L 115.382812 34.074219 L 100.6875 31.953125 L 116.570312 19.449219 L 106.742188 17.945312 M 122.136719 54.726562 L 116.507812 41.972656 L 144.65625 36.324219 L 139.777344 40.71875 L 186.695312 48.722656 L 175.4375 57.722656 L 128.796875 48.984375 L 122.136719 54.726562 M 93.238281 66.363281 L 63.199219 71.992188 L 62.074219 58.105469 L 70.71875 59.972656 L 87.234375 45.855469 L 101.859375 48.34375 L 84.21875 63.734375 L 93.238281 66.363281 M 78.234375 24.691406 L 86.46875 37.082031 L 55.261719 44.28125 L 62.101562 38.613281 L 13.863281 30.378906 L 25.960938 21.292969 L 72.5 29.191406 L 78.234375 24.691406 "/>
<path style="fill:none;stroke-width:1.78125;stroke-linecap:butt;stroke-linejoin:miter;stroke:rgb(13.72549%,12.156863%,12.54902%);stroke-opacity:1;stroke-miterlimit:4;" d="M 13.334609 39.444102 L 19.868945 39.444102 L 28.124688 22.548984 L 33.296094 22.548984 " transform="matrix(4.347826,0,0,4.347826,0,0)"/>
<path style=" stroke:none;fill-rule:nonzero;fill:rgb(13.72549%,12.156863%,12.54902%);fill-opacity:1;" d="M 137.484375 84.875 L 137.484375 110.949219 L 153.175781 98.417969 L 137.484375 84.878906 M 62.457031 184.910156 L 62.457031 158.859375 L 46.765625 171.363281 L 62.460938 184.910156 "/>
<path style=" stroke:none;fill-rule:nonzero;fill:rgb(100%,100%,100%);fill-opacity:1;" d="M 62.5 186.988281 L 62.5 160.917969 L 46.808594 173.449219 L 62.5 186.988281 M 138.207031 86.617188 L 138.207031 112.660156 L 153.890625 100.164062 L 138.207031 86.617188 "/>
<path style=" stroke:none;fill-rule:nonzero;fill:rgb(13.72549%,12.156863%,12.54902%);fill-opacity:1;" d="M 62.457031 111.539062 L 62.457031 85.492188 L 46.765625 97.996094 L 62.460938 111.539062 "/>
<path style=" stroke:none;fill-rule:nonzero;fill:rgb(100%,100%,100%);fill-opacity:1;" d="M 62.5 113.617188 L 62.5 87.546875 L 46.808594 100.078125 L 62.5 113.617188 "/>
<path style="fill:none;stroke-width:1.78125;stroke-linecap:butt;stroke-linejoin:miter;stroke:rgb(13.72549%,12.156863%,12.54902%);stroke-opacity:1;stroke-miterlimit:4;" d="M 33.412891 39.506094 L 27.796758 39.506094 L 19.380195 22.530117 L 14.095586 22.530117 " transform="matrix(4.347826,0,0,4.347826,0,0)"/>
<path style="fill:none;stroke-width:1.78125;stroke-linecap:butt;stroke-linejoin:miter;stroke:rgb(100%,100%,100%);stroke-opacity:1;stroke-miterlimit:4;" d="M 34.105586 39.946328 L 27.90457 39.946328 L 19.487109 22.970352 L 13.071367 22.970352 " transform="matrix(4.347826,0,0,4.347826,0,0)"/>
<path style="fill:none;stroke-width:1.78125;stroke-linecap:butt;stroke-linejoin:miter;stroke:rgb(100%,100%,100%);stroke-opacity:1;stroke-miterlimit:4;" d="M 13.11 39.92207 L 19.096289 39.92207 L 27.435586 23.026953 L 33.931289 23.026953 " transform="matrix(4.347826,0,0,4.347826,0,0)"/>
<path style=" stroke:none;fill-rule:nonzero;fill:rgb(13.72549%,12.156863%,12.54902%);fill-opacity:1;" d="M 137.484375 158.585938 L 137.484375 184.65625 L 153.175781 172.128906 L 137.484375 158.585938 "/>
<path style=" stroke:none;fill-rule:nonzero;fill:rgb(100%,100%,100%);fill-opacity:1;" d="M 138.207031 160.324219 L 138.207031 186.375 L 153.890625 173.871094 L 138.207031 160.324219 "/>
</g>
</svg>
