<?xml version="1.0" encoding="UTF-8"?>
<svg xmlns="http://www.w3.org/2000/svg" xmlns:xlink="http://www.w3.org/1999/xlink" width="278pt" height="200pt" viewBox="0 0 278 200" version="1.1">
<g id="surface1">
<path style=" stroke:none;fill-rule:nonzero;fill:rgb(0.784314%,42.352941%,60.784314%);fill-opacity:1;" d="M 275.527344 56.183594 C 275.527344 85.683594 214.179688 109.59375 138.515625 109.59375 C 62.851562 109.59375 1.503906 85.679688 1.503906 56.183594 L 1.503906 134.453125 C 1.503906 163.957031 62.847656 187.867188 138.511719 187.867188 C 214.179688 187.867188 275.527344 163.957031 275.527344 134.453125 L 275.527344 56.183594 "/>
<path style="fill:none;stroke-width:0.5;stroke-linecap:butt;stroke-linejoin:miter;stroke:rgb(100%,100%,100%);stroke-opacity:1;stroke-miterlimit:4;" d="M 45.590855 9.270293 C 45.590855 14.137148 35.439804 18.084258 22.919852 18.084258 C 10.399899 18.084258 0.248848 14.137148 0.248848 9.270293 L 0.248848 22.184766 C 0.248848 27.052266 10.399252 30.99873 22.919205 30.99873 C 35.439804 30.99873 45.590855 27.052266 45.590855 22.184766 Z M 45.590855 9.270293 " transform="matrix(6.043478,0,0,6.060606,0,0)"/>
<path style=" stroke:none;fill-rule:nonzero;fill:rgb(0.784314%,42.352941%,60.784314%);fill-opacity:1;" d="M 275.527344 56.183594 C 275.527344 85.683594 214.179688 109.59375 138.515625 109.59375 C 62.851562 109.59375 1.503906 85.679688 1.503906 56.183594 L 1.503906 134.453125 C 1.503906 163.957031 62.847656 187.867188 138.511719 187.867188 C 214.179688 187.867188 275.527344 163.957031 275.527344 134.453125 L 275.527344 56.183594 "/>
<path style="fill:none;stroke-width:0.5;stroke-linecap:butt;stroke-linejoin:miter;stroke:rgb(100%,100%,100%);stroke-opacity:1;stroke-miterlimit:4;" d="M 45.590855 9.270293 C 45.590855 14.137148 35.439804 18.084258 22.919852 18.084258 C 10.399899 18.084258 0.248848 14.137148 0.248848 9.270293 L 0.248848 22.184766 C 0.248848 27.052266 10.399252 30.99873 22.919205 30.99873 C 35.439804 30.99873 45.590855 27.052266 45.590855 22.184766 Z M 45.590855 9.270293 " transform="matrix(6.043478,0,0,6.060606,0,0)"/>
<path style=" stroke:none;fill-rule:nonzero;fill:rgb(0.784314%,42.352941%,60.784314%);fill-opacity:1;" d="M 138.515625 109.585938 C 214.179688 109.585938 275.527344 85.683594 275.527344 56.183594 C 275.527344 26.671875 214.179688 2.734375 138.515625 2.734375 C 62.851562 2.734375 1.503906 26.671875 1.503906 56.183594 C 1.503906 85.683594 62.847656 109.59375 138.511719 109.59375 "/>
<path style="fill:none;stroke-width:0.5;stroke-linecap:butt;stroke-linejoin:miter;stroke:rgb(100%,100%,100%);stroke-opacity:1;stroke-miterlimit:4;" d="M 22.919852 18.084258 C 35.439804 18.084258 45.590855 14.137148 45.590855 9.270293 C 45.590855 4.400215 35.439804 0.449883 22.919852 0.449883 C 10.399899 0.449883 0.248848 4.400215 0.248848 9.270293 C 0.248848 14.137148 10.399252 18.084258 22.919205 18.084258 Z M 22.919852 18.084258 " transform="matrix(6.043478,0,0,6.060606,0,0)"/>
<path style=" stroke:none;fill-rule:nonzero;fill:rgb(0.784314%,42.352941%,60.784314%);fill-opacity:1;" d="M 200.902344 72.1875 L 230.792969 83.222656 L 201.042969 97.25 L 200.980469 88.816406 L 52 88.640625 L 51.671875 77.425781 L 200.835938 77.097656 L 200.898438 72.1875 "/>
<path style=" stroke:none;fill-rule:nonzero;fill:rgb(100%,100%,100%);fill-opacity:1;" d="M 81.625 41.359375 L 88.441406 41.359375 C 92.339844 58.101562 92.714844 60.238281 93.28125 63.757812 L 93.367188 63.757812 C 93.933594 60.5625 94.367188 57.425781 97.613281 41.359375 L 104.371094 41.359375 C 107.941406 58.15625 108.238281 59.789062 108.914062 63.757812 L 109.011719 63.757812 C 109.539062 60.855469 110.039062 58.1875 113.992188 41.359375 L 120.457031 41.359375 L 111.875 71.980469 L 105.730469 71.980469 C 102.605469 56.953125 102.042969 53.992188 101.011719 48.097656 L 100.921875 48.097656 C 100 53.992188 99.476562 56.210938 96.195312 71.988281 L 90.265625 71.988281 L 81.625 41.359375 M 121.75 41.359375 L 128.574219 41.359375 C 132.46875 58.101562 132.847656 60.238281 133.410156 63.757812 L 133.5 63.757812 C 134.03125 60.5625 134.503906 57.425781 137.742188 41.359375 L 144.511719 41.359375 C 148.078125 58.15625 148.378906 59.789062 149.042969 63.757812 L 149.140625 63.757812 C 149.640625 60.855469 150.167969 58.1875 154.121094 41.359375 L 160.585938 41.359375 L 152.003906 71.980469 L 145.867188 71.980469 C 142.710938 56.953125 142.171875 53.992188 141.144531 48.097656 L 141.054688 48.097656 C 140.113281 53.992188 139.605469 56.210938 136.335938 71.988281 L 130.40625 71.988281 L 121.75 41.359375 M 161.894531 41.359375 L 168.671875 41.359375 C 172.601562 58.101562 172.976562 60.238281 173.542969 63.757812 L 173.605469 63.757812 C 174.167969 60.5625 174.632812 57.425781 177.882812 41.359375 L 184.632812 41.359375 C 188.210938 58.15625 188.503906 59.789062 189.183594 63.757812 L 189.277344 63.757812 C 189.769531 60.855469 190.304688 58.1875 194.261719 41.359375 L 200.714844 41.359375 L 192.109375 71.980469 L 185.992188 71.980469 C 182.839844 56.953125 182.308594 53.992188 181.28125 48.097656 L 181.183594 48.097656 C 180.242188 53.992188 179.738281 56.210938 176.464844 71.988281 L 170.5 71.988281 L 161.894531 41.359375 "/>
</g>
</svg>
