<?xml version="1.0" encoding="UTF-8"?>
<svg xmlns="http://www.w3.org/2000/svg" xmlns:xlink="http://www.w3.org/1999/xlink" width="484pt" height="200pt" viewBox="0 0 484 200" version="1.1">
<g id="surface1">
<path style=" stroke:none;fill-rule:nonzero;fill:rgb(0.784314%,43.921569%,62.352941%);fill-opacity:1;" d="M 8.007812 176.800781 L 399.636719 176.800781 L 399.636719 78.84375 L 8.015625 78.84375 L 8.015625 176.800781 Z M 8.007812 176.800781 "/>
<path style="fill:none;stroke-width:0.5;stroke-linecap:butt;stroke-linejoin:miter;stroke:rgb(100%,100%,100%);stroke-opacity:1;stroke-miterlimit:4;" d="M 0.761073 16.794961 L 37.982002 16.794961 L 37.982002 7.490156 L 0.761816 7.490156 L 0.761816 16.796074 Z M 0.761073 16.794961 " transform="matrix(10.521739,0,0,10.526316,0,0)"/>
<path style=" stroke:none;fill-rule:nonzero;fill:rgb(0.784314%,43.921569%,62.352941%);fill-opacity:1;" d="M 399.65625 177.261719 L 399.65625 78.84375 L 7.816406 78.84375 L 104.648438 4.949219 L 479.75 4.949219 L 479.75 86.949219 L 399.65625 177.253906 "/>
<path style="fill:none;stroke-width:0.5;stroke-linecap:butt;stroke-linejoin:miter;stroke:rgb(100%,100%,100%);stroke-opacity:1;stroke-miterlimit:4;" d="M 37.983858 16.839863 L 37.983858 7.490156 L 0.742882 7.490156 L 9.945926 0.466836 L 45.596074 0.466836 L 45.596074 8.260918 Z M 37.983858 16.839863 " transform="matrix(10.521739,0,0,10.526316,0,0)"/>
<path style=" stroke:none;fill-rule:nonzero;fill:rgb(0.784314%,43.921569%,62.352941%);fill-opacity:1;" d="M 403.8125 77.09375 L 473.992188 6.472656 "/>
<path style="fill:none;stroke-width:0.5;stroke-linecap:butt;stroke-linejoin:miter;stroke:rgb(100%,100%,100%);stroke-opacity:1;stroke-miterlimit:4;" d="M 38.378874 7.323906 L 45.048844 0.61416 " transform="matrix(10.521739,0,0,10.526316,0,0)"/>
<path style=" stroke:none;fill-rule:nonzero;fill:rgb(100%,100%,100%);fill-opacity:1;" d="M 75.671875 144.632812 C 83.386719 144.621094 89.640625 138.363281 89.644531 130.640625 C 89.644531 122.9375 83.386719 116.726562 75.671875 116.726562 C 68.226562 117.082031 62.375 123.222656 62.375 130.679688 C 62.375 138.136719 68.226562 144.277344 75.671875 144.632812 M 138.152344 144.632812 C 145.863281 144.613281 152.105469 138.359375 152.113281 130.640625 C 152.113281 122.9375 145.851562 116.726562 138.152344 116.726562 C 130.707031 117.082031 124.851562 123.222656 124.851562 130.679688 C 124.851562 138.136719 130.707031 144.277344 138.152344 144.632812 M 200.617188 144.632812 C 208.335938 144.621094 214.585938 138.363281 214.589844 130.640625 C 214.589844 122.9375 208.332031 116.726562 200.617188 116.726562 C 193.171875 117.082031 187.320312 123.222656 187.320312 130.679688 C 187.320312 138.136719 193.171875 144.277344 200.617188 144.632812 M 263.097656 144.632812 C 270.808594 144.613281 277.050781 138.359375 277.058594 130.640625 C 277.058594 122.9375 270.796875 116.726562 263.097656 116.726562 C 255.652344 117.082031 249.796875 123.222656 249.796875 130.679688 C 249.796875 138.136719 255.652344 144.277344 263.097656 144.632812 M 325.5625 144.632812 C 333.28125 144.621094 339.53125 138.363281 339.535156 130.640625 C 339.535156 122.9375 333.277344 116.726562 325.5625 116.726562 C 318.117188 117.082031 312.265625 123.222656 312.265625 130.679688 C 312.265625 138.136719 318.117188 144.277344 325.5625 144.632812 "/>
</g>
</svg>
