<?xml version="1.0" encoding="UTF-8"?>
<svg xmlns="http://www.w3.org/2000/svg" xmlns:xlink="http://www.w3.org/1999/xlink" width="300pt" height="200pt" viewBox="0 0 300 200" version="1.1">
<defs>
<clipPath id="clip1">
  <path d="M 159 12 L 256 12 L 256 56 L 159 56 Z M 159 12 "/>
</clipPath>
<clipPath id="clip2">
  <path d="M 199.402344 12.105469 L 255.328125 12.316406 L 247.746094 37.265625 L 236.539062 31.066406 L 183.050781 57.511719 L 159.695312 44.304688 L 212.972656 18.777344 L 199.402344 12.105469 "/>
</clipPath>
<clipPath id="clip3">
  <path d="M 170 62 L 270 62 L 270 104 L 170 104 Z M 170 62 "/>
</clipPath>
<clipPath id="clip4">
  <path d="M 177.933594 86.996094 L 170.421875 62.652344 L 228.105469 63.09375 L 214.363281 69.222656 L 269.203125 91.46875 L 245.101562 103.550781 L 190.734375 81.4375 L 177.933594 86.996094 "/>
</clipPath>
</defs>
<g id="surface1">
<path style=" stroke:none;fill-rule:nonzero;fill:rgb(0.784314%,42.352941%,60.784314%);fill-opacity:1;" d="M 151.761719 118.101562 C 234.625 118.101562 301.828125 91.960938 301.828125 59.734375 C 301.828125 27.511719 234.625 1.367188 151.761719 1.367188 C 68.851562 1.367188 1.660156 27.511719 1.660156 59.734375 C 1.660156 91.960938 68.851562 118.101562 151.761719 118.101562 "/>
<path style="fill:none;stroke-width:0.5;stroke-linecap:butt;stroke-linejoin:miter;stroke:rgb(100%,100%,100%);stroke-opacity:1;stroke-miterlimit:4;" d="M 22.764258 17.715234 C 35.19375 17.715234 45.274219 13.794141 45.274219 8.960156 C 45.274219 4.126758 35.19375 0.205078 22.764258 0.205078 C 10.327734 0.205078 0.249023 4.126758 0.249023 8.960156 C 0.249023 13.794141 10.327734 17.715234 22.764258 17.715234 Z M 22.764258 17.715234 " transform="matrix(6.666667,0,0,6.666667,0,0)"/>
<path style=" stroke:none;fill-rule:nonzero;fill:rgb(0.784314%,42.352941%,60.784314%);fill-opacity:1;" d="M 298.433594 47.59375 C 253.378906 34.699219 239.90625 60.386719 213.734375 60.386719 C 179.101562 60.386719 191.832031 44.921875 152.019531 44.785156 C 104.820312 44.625 123.992188 59.921875 89.753906 60.054688 C 64.941406 60.1875 55.238281 39.808594 4.988281 47.585938 C 2.375 52.800781 1.464844 56.035156 1.921875 63.972656 C 48.667969 53.425781 61.679688 77.347656 89.6875 76.148438 C 128.421875 74.460938 108.140625 59.640625 151.953125 60.851562 C 192.898438 61.988281 172.398438 76.472656 213.671875 76.472656 C 249.386719 76.472656 253.671875 51.40625 301.207031 62.765625 C 301.207031 62.765625 303.347656 55.539062 298.433594 47.601562 "/>
<path style="fill:none;stroke-width:0.4375;stroke-linecap:butt;stroke-linejoin:miter;stroke:rgb(100%,100%,100%);stroke-opacity:1;stroke-miterlimit:4;" d="M 44.765039 7.139062 C 38.006836 5.204883 35.985937 9.058008 32.060156 9.058008 C 26.865234 9.058008 28.774805 6.738281 22.80293 6.717773 C 15.723047 6.69375 18.598828 8.988281 13.463086 9.008203 C 9.741211 9.028125 8.285742 5.971289 0.748242 7.137891 C 0.35625 7.920117 0.219727 8.405273 0.288281 9.595898 C 7.300195 8.013867 9.251953 11.602148 13.453125 11.422266 C 19.263281 11.169141 16.221094 8.946094 22.792969 9.127734 C 28.934766 9.298242 25.859766 11.470898 32.050781 11.470898 C 37.408008 11.470898 38.050781 7.710938 45.181055 9.414844 C 45.181055 9.414844 45.502148 8.330859 44.765039 7.140234 Z M 44.765039 7.139062 " transform="matrix(6.666667,0,0,6.666667,0,0)"/>
<path style=" stroke:none;fill-rule:nonzero;fill:rgb(0.784314%,42.352941%,60.784314%);fill-opacity:1;" d="M 260.933594 19.601562 C 236.328125 15.101562 242.640625 30.992188 213.734375 30.992188 C 179.101562 30.992188 193.035156 15.492188 153.226562 15.367188 C 106.027344 15.199219 121.808594 32.359375 87.558594 32.546875 C 64.90625 32.679688 58.167969 21.839844 37.308594 22.132812 C 31.1875 24.285156 21.058594 30.734375 14.648438 35.933594 C 50.492188 27.339844 64.191406 46.546875 88.445312 46.707031 C 127.214844 46.941406 109.378906 30.207031 153.160156 31.441406 C 194.140625 32.546875 172.398438 47.039062 213.671875 47.039062 C 242.640625 47.039062 243.167969 22.945312 284.339844 32.546875 C 284.339844 32.546875 273.828125 24.8125 260.941406 19.601562 "/>
<path style="fill:none;stroke-width:0.4375;stroke-linecap:butt;stroke-linejoin:miter;stroke:rgb(100%,100%,100%);stroke-opacity:1;stroke-miterlimit:4;" d="M 39.140039 2.940234 C 35.449219 2.265234 36.396094 4.648828 32.060156 4.648828 C 26.865234 4.648828 28.955273 2.323828 22.983984 2.305078 C 15.904102 2.279883 18.271289 4.853906 13.133789 4.882031 C 9.735938 4.901953 8.725195 3.275977 5.596289 3.319922 C 4.678125 3.642773 3.158789 4.610156 2.197266 5.390039 C 7.573828 4.100977 9.628711 6.982031 13.266797 7.006055 C 19.082227 7.041211 16.406836 4.531055 22.974023 4.716211 C 29.121094 4.882031 25.859766 7.055859 32.050781 7.055859 C 36.396094 7.055859 36.475195 3.441797 42.650977 4.882031 C 42.650977 4.882031 41.074219 3.721875 39.141211 2.940234 Z M 39.140039 2.940234 " transform="matrix(6.666667,0,0,6.666667,0,0)"/>
<path style=" stroke:none;fill-rule:nonzero;fill:rgb(0.784314%,42.352941%,60.784314%);fill-opacity:1;" d="M 295.574219 76.59375 C 249.898438 65.558594 249.707031 89.808594 217.414062 89.808594 C 182.78125 89.808594 196.707031 73.734375 156.898438 73.601562 C 109.699219 73.433594 126.433594 88.707031 92.214844 88.867188 C 69.535156 89 40.691406 65.980469 8.828125 77.308594 C 13.507812 84.667969 29.199219 93.398438 29.199219 93.398438 C 47.753906 87.441406 61.847656 104.960938 92.125 104.960938 C 130.894531 104.960938 113.046875 88.445312 156.832031 89.652344 C 197.8125 90.800781 176.074219 104.339844 217.347656 105.28125 C 247.460938 105.960938 255.039062 83.566406 281.28125 89.265625 C 281.28125 89.265625 289.972656 84.347656 295.574219 76.601562 "/>
<path style="fill:none;stroke-width:0.4375;stroke-linecap:butt;stroke-linejoin:miter;stroke:rgb(100%,100%,100%);stroke-opacity:1;stroke-miterlimit:4;" d="M 44.336133 11.489062 C 37.484766 9.833789 37.456055 13.471289 32.612109 13.471289 C 27.417188 13.471289 29.506055 11.060156 23.534766 11.040234 C 16.454883 11.015039 18.965039 13.306055 13.832227 13.330078 C 10.430273 13.35 6.103711 9.89707 1.324219 11.596289 C 2.026172 12.700195 4.379883 14.009766 4.379883 14.009766 C 7.163086 13.116211 9.277148 15.744141 13.81875 15.744141 C 19.63418 15.744141 16.957031 13.266797 23.524805 13.447852 C 29.671875 13.620117 26.411133 15.650977 32.602148 15.792187 C 37.119141 15.894141 38.255859 12.534961 42.192187 13.389844 C 42.192187 13.389844 43.495898 12.652148 44.336133 11.490234 Z M 44.336133 11.489062 " transform="matrix(6.666667,0,0,6.666667,0,0)"/>
<path style=" stroke:none;fill-rule:nonzero;fill:rgb(100%,100%,100%);fill-opacity:1;" d="M 119.792969 104.878906 L 65.726562 107.125 L 73.308594 80.699219 L 84.046875 86.648438 L 135.578125 61.558594 L 158.007812 74.253906 L 106.738281 98.464844 L 119.792969 104.878906 "/>
<g clip-path="url(#clip1)" clip-rule="nonzero">
<g clip-path="url(#clip2)" clip-rule="nonzero">
<path style=" stroke:none;fill-rule:nonzero;fill:rgb(100%,100%,100%);fill-opacity:1;" d="M 199.601562 10.042969 L 255.5625 10.246094 L 247.945312 35.195312 L 236.773438 28.972656 L 183.253906 55.4375 L 159.925781 40.949219 L 213.183594 15.425781 L 199.601562 10.042969 "/>
</g>
</g>
<path style=" stroke:none;fill-rule:nonzero;fill:rgb(100%,100%,100%);fill-opacity:1;" d="M 130.792969 35.160156 L 145.933594 54.359375 L 78.027344 57.839844 L 91.207031 51.921875 L 42 31.054688 L 67.613281 17.121094 L 118.59375 40.433594 L 130.792969 35.160156 "/>
<g clip-path="url(#clip3)" clip-rule="nonzero">
<g clip-path="url(#clip4)" clip-rule="nonzero">
<path style=" stroke:none;fill-rule:nonzero;fill:rgb(100%,100%,100%);fill-opacity:1;" d="M 178.550781 86.726562 L 171.027344 62.417969 L 228.722656 62.824219 L 214.976562 68.984375 L 269.816406 91.222656 L 245.71875 103.277344 L 191.34375 81.171875 L 178.550781 86.726562 M 130.371094 101.078125 L 74.144531 103.410156 L 81.996094 75.929688 L 93.199219 82.117188 L 146.761719 56.023438 L 170.117188 69.222656 L 116.800781 94.40625 L 130.371094 101.078125 "/>
</g>
</g>
<path style=" stroke:none;fill-rule:nonzero;fill:rgb(0.784314%,42.352941%,60.784314%);fill-opacity:1;" d="M 301.828125 56.148438 C 301.828125 88.375 234.625 114.519531 151.761719 114.519531 C 68.851562 114.519531 1.660156 88.375 1.660156 56.148438 L 1.660156 141.632812 C 1.660156 173.867188 68.851562 200 151.761719 200 C 234.625 200 301.828125 173.859375 301.828125 141.632812 L 301.828125 56.148438 "/>
<path style="fill:none;stroke-width:0.5;stroke-linecap:butt;stroke-linejoin:miter;stroke:rgb(100%,100%,100%);stroke-opacity:1;stroke-miterlimit:4;" d="M 45.274219 8.422266 C 45.274219 13.25625 35.19375 17.17793 22.764258 17.17793 C 10.327734 17.17793 0.249023 13.25625 0.249023 8.422266 L 0.249023 21.244922 C 0.249023 26.080078 10.327734 30 22.764258 30 C 35.19375 30 45.274219 26.078906 45.274219 21.244922 Z M 45.274219 8.422266 " transform="matrix(6.666667,0,0,6.666667,0,0)"/>
</g>
</svg>
