<?xml version="1.0" encoding="UTF-8"?>
<svg xmlns="http://www.w3.org/2000/svg" xmlns:xlink="http://www.w3.org/1999/xlink" width="275pt" height="200pt" viewBox="0 0 275 200" version="1.1">
<defs>
<clipPath id="clip1">
  <path d="M 1 56 L 275 56 L 275 189.308594 L 1 189.308594 Z M 1 56 "/>
</clipPath>
<clipPath id="clip2">
  <path d="M 0 36 L 275 36 L 275 189.308594 L 0 189.308594 Z M 0 36 "/>
</clipPath>
<clipPath id="clip3">
  <path d="M 0 0.136719 L 275 0.136719 L 275 132 L 0 132 Z M 0 0.136719 "/>
</clipPath>
</defs>
<g id="surface1">
<g clip-path="url(#clip1)" clip-rule="nonzero">
<path style=" stroke:none;fill-rule:nonzero;fill:rgb(0.784314%,42.352941%,60.784314%);fill-opacity:1;" d="M 281.253906 56.738281 C 281.253906 86.863281 218.691406 111.269531 141.535156 111.269531 C 64.339844 111.269531 1.777344 86.863281 1.777344 56.738281 L 1.777344 136.597656 C 1.777344 166.710938 64.339844 191.125 141.535156 191.125 C 218.691406 191.125 281.253906 166.710938 281.253906 136.597656 L 281.253906 56.738281 "/>
</g>
<g clip-path="url(#clip2)" clip-rule="nonzero">
<path style="fill:none;stroke-width:4;stroke-linecap:butt;stroke-linejoin:miter;stroke:rgb(100%,100%,100%);stroke-opacity:1;stroke-miterlimit:4;" d="M 314.689685 157.86884 C 314.689685 124.267879 244.689685 97.045523 158.361014 97.045523 C 71.988636 97.045523 1.988636 124.267879 1.988636 157.86884 L 1.988636 68.794922 C 1.988636 35.207031 71.988636 7.975962 158.361014 7.975962 C 244.689685 7.975962 314.689685 35.207031 314.689685 68.794922 Z M 314.689685 157.86884 " transform="matrix(0.89375,0,0,-0.896552,0,198.275862)"/>
</g>
<path style=" stroke:none;fill-rule:nonzero;fill:rgb(0.784314%,42.352941%,60.784314%);fill-opacity:1;" d="M 141.535156 111.269531 C 218.691406 111.269531 281.253906 86.863281 281.253906 56.738281 C 281.253906 26.660156 218.691406 2.246094 141.535156 2.246094 C 64.339844 2.246094 1.777344 26.660156 1.777344 56.738281 C 1.777344 86.863281 64.339844 111.269531 141.535156 111.269531 "/>
<g clip-path="url(#clip3)" clip-rule="nonzero">
<path style="fill:none;stroke-width:4;stroke-linecap:butt;stroke-linejoin:miter;stroke:rgb(100%,100%,100%);stroke-opacity:1;stroke-miterlimit:4;" d="M 158.361014 97.045523 C 244.689685 97.045523 314.689685 124.267879 314.689685 157.86884 C 314.689685 191.417518 244.689685 218.648588 158.361014 218.648588 C 71.988636 218.648588 1.988636 191.417518 1.988636 157.86884 C 1.988636 124.267879 71.988636 97.045523 158.361014 97.045523 Z M 158.361014 97.045523 " transform="matrix(0.89375,0,0,-0.896552,0,198.275862)"/>
</g>
<path style=" stroke:none;fill-rule:nonzero;fill:rgb(100%,100%,100%);fill-opacity:1;" d="M 143.699219 46.234375 L 124.214844 15.875 L 132.945312 14.824219 L 114.6875 7.464844 L 107.214844 17.976562 L 115.910156 16.925781 L 135.386719 47.257812 L 143.699219 46.234375 M 132.628906 50.050781 L 64.378906 32.542969 L 68.847656 29.492188 L 44.757812 30.15625 L 55.714844 40.109375 L 60.148438 36.503906 L 128.40625 54.050781 L 132.628906 50.050781 M 128.476562 56.355469 L 51.945312 65.992188 L 50.238281 62.691406 L 34.425781 70.992188 L 57.359375 74.539062 L 54.949219 70.539062 L 131.480469 60.871094 L 128.476562 56.355469 M 131.550781 62.980469 L 92.484375 92.78125 L 84.589844 90.710938 L 86.296875 101.78125 L 107.839844 96.84375 L 99.957031 94.78125 L 139.023438 64.96875 L 131.550781 62.980469 M 151.027344 47.183594 L 184.40625 19.308594 L 176.515625 17.199219 L 198.058594 12.296875 L 199.769531 23.371094 L 191.878906 21.296875 L 158.496094 49.183594 L 151.027344 47.183594 M 145.761719 65.777344 L 165.726562 98.527344 L 156.996094 99.613281 L 175.253906 106.964844 L 182.726562 96.421875 L 174.003906 97.503906 L 154.0625 64.761719 L 145.761719 65.777344 M 159.964844 62.488281 L 226.296875 79.539062 L 221.828125 83.117188 L 245.925781 82.453125 L 234.992188 72.503906 L 230.523438 74.984375 L 164.191406 57.96875 L 159.964844 62.488281 M 161.882812 57.96875 L 237.960938 48.339844 L 240.375 52.367188 L 256.183594 44.027344 L 233.214844 40.492188 L 235.65625 43.46875 L 159.578125 53.136719 L 161.882812 57.96875 "/>
<path style=" stroke:none;fill-rule:nonzero;fill:rgb(0.784314%,42.352941%,60.784314%);fill-opacity:1;" d="M 144.152344 66.824219 C 156.933594 67.285156 167.46875 62.90625 167.6875 57.054688 C 167.894531 51.171875 157.703125 46.0625 144.917969 45.605469 C 132.105469 45.148438 121.59375 49.566406 121.390625 55.414062 C 121.183594 61.257812 131.371094 66.378906 144.152344 66.824219 "/>
<path style="fill:none;stroke-width:4;stroke-linecap:butt;stroke-linejoin:miter;stroke:rgb(100%,100%,100%);stroke-opacity:1;stroke-miterlimit:4;" d="M 161.289336 146.619141 C 175.590035 146.105018 187.377622 150.989183 187.622378 157.515925 C 187.854021 164.077524 176.451049 169.776442 162.145979 170.286208 C 147.810315 170.795974 136.048951 165.868239 135.821678 159.345853 C 135.590035 152.827825 146.988636 147.115835 161.289336 146.619141 Z M 161.289336 146.619141 " transform="matrix(0.89375,0,0,-0.896552,0,198.275862)"/>
</g>
</svg>
