<?xml version="1.0" encoding="UTF-8"?>
<svg xmlns="http://www.w3.org/2000/svg" xmlns:xlink="http://www.w3.org/1999/xlink" width="369pt" height="200pt" viewBox="0 0 369 200" version="1.1">
<g id="surface1">
<path style=" stroke:none;fill-rule:nonzero;fill:rgb(3.137255%,48.235294%,73.333333%);fill-opacity:1;" d="M 4.960938 182.777344 L 275.050781 182.777344 L 275.050781 94.910156 L 4.953125 94.910156 L 4.953125 182.777344 Z M 4.960938 182.777344 "/>
<path style="fill:none;stroke-width:0.5;stroke-linecap:butt;stroke-linejoin:miter;stroke:rgb(100%,100%,100%);stroke-opacity:1;stroke-miterlimit:4;" d="M 0.820101 30.156973 L 45.469099 30.156973 L 45.469099 15.660176 L 0.818809 15.660176 L 0.818809 30.156973 Z M 0.820101 30.156973 " transform="matrix(6.04918,0,0,6.060606,0,0)"/>
<path style=" stroke:none;fill-rule:nonzero;fill:rgb(3.137255%,48.235294%,73.333333%);fill-opacity:1;" d="M 4.253906 95.34375 L 113.363281 6.789062 L 365.371094 6.789062 L 274.8125 95.34375 L 4.253906 95.34375 "/>
<path style="fill:none;stroke-width:0.5;stroke-linecap:butt;stroke-linejoin:miter;stroke:rgb(100%,100%,100%);stroke-opacity:1;stroke-miterlimit:4;" d="M 0.70322 15.731719 L 18.740271 1.120195 L 60.4001 1.120195 L 45.429709 15.731719 Z M 0.70322 15.731719 " transform="matrix(6.04918,0,0,6.060606,0,0)"/>
<path style=" stroke:none;fill-rule:nonzero;fill:rgb(3.137255%,48.235294%,73.333333%);fill-opacity:1;" d="M 274.898438 185.519531 L 365.128906 87.867188 L 365.1875 6.925781 L 274.894531 95.230469 L 274.894531 185.519531 "/>
<path style="fill:none;stroke-width:0.5;stroke-linecap:butt;stroke-linejoin:miter;stroke:rgb(100%,100%,100%);stroke-opacity:1;stroke-miterlimit:4;" d="M 45.443915 30.610078 L 60.360063 14.498086 L 60.369749 1.144688 L 45.443269 15.714961 L 45.443269 30.610078 Z M 45.443915 30.610078 " transform="matrix(6.04918,0,0,6.060606,0,0)"/>
<path style=" stroke:none;fill-rule:nonzero;fill:rgb(3.137255%,48.235294%,73.333333%);fill-opacity:1;" d="M 82.703125 84.339844 L 167.125 16.097656 "/>
<path style="fill:none;stroke-width:0.5;stroke-linecap:butt;stroke-linejoin:miter;stroke:rgb(100%,100%,100%);stroke-opacity:1;stroke-miterlimit:4;" d="M 13.67179 13.916074 L 27.62771 2.656758 " transform="matrix(6.04918,0,0,6.060606,0,0)"/>
<path style=" stroke:none;fill-rule:nonzero;fill:rgb(3.137255%,48.235294%,73.333333%);fill-opacity:1;" d="M 149.753906 84.339844 L 234.199219 16.097656 "/>
<path style="fill:none;stroke-width:0.5;stroke-linecap:butt;stroke-linejoin:miter;stroke:rgb(100%,100%,100%);stroke-opacity:1;stroke-miterlimit:4;" d="M 24.756066 13.916074 L 38.71586 2.656758 " transform="matrix(6.04918,0,0,6.060606,0,0)"/>
<path style=" stroke:none;fill-rule:nonzero;fill:rgb(3.137255%,48.235294%,73.333333%);fill-opacity:1;" d="M 216.832031 84.339844 L 301.28125 16.097656 "/>
<path style="fill:none;stroke-width:0.5;stroke-linecap:butt;stroke-linejoin:miter;stroke:rgb(100%,100%,100%);stroke-opacity:1;stroke-miterlimit:4;" d="M 35.844862 13.916074 L 49.805301 2.656758 M 19.36471 4.663828 L 52.401857 4.663828 " transform="matrix(6.04918,0,0,6.060606,0,0)"/>
<path style=" stroke:none;fill-rule:nonzero;fill:rgb(100%,100%,100%);fill-opacity:1;" d="M 108.105469 136.484375 L 57.5625 136.484375 L 57.5625 131.84375 L 38.519531 138.667969 L 57.5625 145.503906 L 57.5625 140.890625 L 108.105469 140.890625 L 108.105469 136.480469 M 136.664062 151.011719 L 136.664062 168.976562 L 123.613281 168.976562 L 142.875 175.757812 L 162.101562 168.976562 L 149.070312 168.976562 L 149.070312 151.011719 L 136.667969 151.011719 M 136.664062 126.835938 L 136.664062 108.898438 L 123.613281 108.898438 L 142.875 102.128906 L 162.101562 108.902344 L 149.070312 108.902344 L 149.070312 126.835938 L 136.667969 126.835938 M 177.632812 140.898438 L 228.144531 140.898438 L 228.144531 145.503906 L 247.222656 138.671875 L 228.144531 131.84375 L 228.144531 136.484375 L 177.632812 136.484375 L 177.632812 140.898438 "/>
<path style="fill:none;stroke-width:0.5;stroke-linecap:butt;stroke-linejoin:miter;stroke:rgb(100%,100%,100%);stroke-opacity:1;stroke-miterlimit:4;" d="M 37.056286 27.636855 C 35.489054 28.224023 28.285728 26.612051 20.970687 24.033926 C 13.65823 21.455801 8.999799 18.891855 10.565739 18.305977 C 12.134263 17.720098 19.340818 19.330781 26.655213 21.910195 C 33.970253 24.481875 38.622872 27.049688 37.056286 27.636855 Z M 37.056286 27.636855 " transform="matrix(6.04918,0,0,6.060606,0,0)"/>
<path style="fill:none;stroke-width:0.5;stroke-linecap:butt;stroke-linejoin:miter;stroke:rgb(100%,100%,100%);stroke-opacity:1;stroke-miterlimit:4;" d="M 36.639778 18.262148 C 38.296123 18.817734 33.744887 21.372012 26.475049 23.964961 C 19.209085 26.559199 11.972826 28.209199 10.317126 27.65168 C 8.662718 27.094805 13.212017 24.541172 20.483793 21.948867 C 27.747819 19.355918 34.980204 17.705918 36.639778 18.262148 Z M 36.639778 18.262148 " transform="matrix(6.04918,0,0,6.060606,0,0)"/>
<path style=" stroke:none;fill-rule:nonzero;fill:rgb(74.901961%,74.509804%,74.509804%);fill-opacity:1;" d="M 163.574219 149.121094 C 180.296875 144.945312 184.34375 136.78125 172.644531 130.859375 C 160.949219 124.9375 137.96875 123.492188 121.28125 127.636719 C 104.589844 131.78125 100.542969 139.976562 112.242188 145.890625 C 123.910156 151.8125 146.890625 153.265625 163.574219 149.121094 "/>
<path style=" stroke:none;fill-rule:evenodd;fill:rgb(100%,100%,100%);fill-opacity:1;" d="M 167.125 28.296875 C 165.25 34.089844 138.089844 34.660156 137.878906 28.296875 C 137.671875 22.429688 166.441406 21.871094 167.125 28.296875 M 234.199219 28.296875 C 232.34375 34.089844 205.164062 34.660156 204.933594 28.296875 C 204.714844 22.429688 233.523438 21.871094 234.199219 28.296875 M 301.28125 28.296875 C 299.390625 34.089844 272.242188 34.660156 272.007812 28.296875 C 271.796875 22.429688 300.597656 21.871094 301.285156 28.296875 "/>
<path style="fill:none;stroke-width:0.5;stroke-linecap:butt;stroke-linejoin:miter;stroke:rgb(100%,100%,100%);stroke-opacity:1;stroke-miterlimit:4;" d="M 15.135702 8.286094 L 48.17414 8.286094 " transform="matrix(6.04918,0,0,6.060606,0,0)"/>
<path style=" stroke:none;fill-rule:evenodd;fill:rgb(100%,100%,100%);fill-opacity:1;" d="M 141.542969 50.25 C 139.679688 56.054688 112.507812 56.613281 112.273438 50.25 C 112.0625 44.394531 140.859375 43.824219 141.542969 50.25 M 208.617188 50.25 C 206.730469 56.054688 179.582031 56.613281 179.351562 50.25 C 179.140625 44.394531 207.941406 43.824219 208.617188 50.25 M 275.699219 50.25 C 273.808594 56.054688 246.632812 56.613281 246.425781 50.25 C 246.21875 44.394531 274.988281 43.824219 275.703125 50.25 "/>
<path style="fill:none;stroke-width:0.5;stroke-linecap:butt;stroke-linejoin:miter;stroke:rgb(100%,100%,100%);stroke-opacity:1;stroke-miterlimit:4;" d="M 10.840183 11.981836 L 43.877975 11.981836 " transform="matrix(6.04918,0,0,6.060606,0,0)"/>
<path style=" stroke:none;fill-rule:evenodd;fill:rgb(100%,100%,100%);fill-opacity:1;" d="M 112.539062 72.648438 C 110.644531 78.453125 83.503906 79.011719 83.265625 72.648438 C 83.054688 66.792969 111.855469 66.222656 112.539062 72.648438 M 179.613281 72.648438 C 177.726562 78.453125 150.550781 79.011719 150.339844 72.648438 C 150.132812 66.792969 178.90625 66.222656 179.617188 72.648438 M 246.660156 72.648438 C 244.804688 78.453125 217.625 79.011719 217.417969 72.648438 C 217.21875 66.792969 245.984375 66.222656 246.660156 72.648438 "/>
</g>
</svg>
