<?xml version="1.0" encoding="UTF-8"?>
<svg xmlns="http://www.w3.org/2000/svg" xmlns:xlink="http://www.w3.org/1999/xlink" width="208pt" height="200pt" viewBox="0 0 208 200" version="1.1">
<defs>
<clipPath id="clip1">
  <path d="M 161 0 L 208 0 L 208 196 L 161 196 Z M 161 0 "/>
</clipPath>
</defs>
<g id="surface1">
<path style=" stroke:none;fill-rule:nonzero;fill:rgb(0.784314%,42.352941%,60.784314%);fill-opacity:1;" d="M 210.65625 0.113281 L 175.953125 33.191406 L 3.257812 33.191406 L 45.15625 0.113281 L 210.65625 0.113281 "/>
<path style="fill:none;stroke-width:4;stroke-linecap:butt;stroke-linejoin:miter;stroke:rgb(100%,100%,100%);stroke-opacity:1;stroke-miterlimit:4;" d="M 373.946006 355.56881 L 312.342825 297.045974 L 5.783099 297.045974 L 80.159024 355.56881 Z M 373.946006 355.56881 " transform="matrix(0.563333,0,0,-0.565217,0,201.086957)"/>
<path style="fill-rule:nonzero;fill:rgb(0.784314%,42.352941%,60.784314%);fill-opacity:1;stroke-width:4;stroke-linecap:butt;stroke-linejoin:miter;stroke:rgb(100%,100%,100%);stroke-opacity:1;stroke-miterlimit:4;" d="M 5.783099 11.888822 L 312.342825 11.888822 L 312.342825 297.045974 L 5.783099 297.045974 Z M 5.783099 11.888822 " transform="matrix(0.563333,0,0,-0.565217,0,201.086957)"/>
<path style=" stroke:none;fill-rule:nonzero;fill:rgb(0.784314%,42.352941%,60.784314%);fill-opacity:1;" d="M 206.691406 161.246094 L 206.691406 0.0703125 L 174.503906 33.191406 L 174.503906 194.363281 L 206.691406 161.246094 "/>
<g clip-path="url(#clip1)" clip-rule="nonzero">
<path style="fill:none;stroke-width:4;stroke-linecap:butt;stroke-linejoin:miter;stroke:rgb(100%,100%,100%);stroke-opacity:1;stroke-miterlimit:4;" d="M 366.907822 70.48768 L 366.907822 355.644832 L 309.770248 297.045974 L 309.770248 11.895733 Z M 366.907822 70.48768 " transform="matrix(0.563333,0,0,-0.565217,0,201.086957)"/>
</g>
<path style="fill-rule:nonzero;fill:rgb(0.784314%,42.352941%,60.784314%);fill-opacity:1;stroke-width:4;stroke-linecap:butt;stroke-linejoin:miter;stroke:rgb(100%,100%,100%);stroke-opacity:1;stroke-miterlimit:4;" d="M 21.052145 34.944111 L 295.000462 34.944111 L 295.000462 275.255409 L 21.052145 275.255409 Z M 21.052145 34.944111 " transform="matrix(0.563333,0,0,-0.565217,0,201.086957)"/>
<path style="fill:none;stroke-width:4.8;stroke-linecap:butt;stroke-linejoin:miter;stroke:rgb(100%,100%,100%);stroke-opacity:1;stroke-dasharray:12,12;stroke-miterlimit:4;" d="M 131.367881 168.458834 L 34.379623 136.467548 " transform="matrix(0.563333,0,0,-0.565217,0,201.086957)"/>
<path style=" stroke:none;fill-rule:nonzero;fill:rgb(0.784314%,42.352941%,60.784314%);fill-opacity:1;" d="M 99.355469 92.296875 L 166.09375 67.429688 L 166.09375 82.117188 L 99.355469 92.296875 "/>
<path style="fill:none;stroke-width:4;stroke-linecap:butt;stroke-linejoin:miter;stroke:rgb(100%,100%,100%);stroke-opacity:1;stroke-miterlimit:4;" d="M 176.370655 192.47476 L 294.840976 236.470553 L 294.840976 210.484976 Z M 176.370655 192.47476 " transform="matrix(0.563333,0,0,-0.565217,0,201.086957)"/>
<path style="fill-rule:nonzero;fill:rgb(0.784314%,42.352941%,60.784314%);fill-opacity:1;stroke-width:4;stroke-linecap:butt;stroke-linejoin:miter;stroke:rgb(100%,100%,100%);stroke-opacity:1;stroke-miterlimit:4;" d="M 176.370655 192.47476 L 294.840976 208.460036 L 294.840976 182.474459 L 176.370655 192.47476 " transform="matrix(0.563333,0,0,-0.565217,0,201.086957)"/>
<path style="fill-rule:nonzero;fill:rgb(0.784314%,42.352941%,60.784314%);fill-opacity:1;stroke-width:4;stroke-linecap:butt;stroke-linejoin:miter;stroke:rgb(100%,100%,100%);stroke-opacity:1;stroke-miterlimit:4;" d="M 176.370655 192.47476 L 294.840976 182.246394 L 294.840976 156.267728 L 176.370655 192.47476 " transform="matrix(0.563333,0,0,-0.565217,0,201.086957)"/>
<path style=" stroke:none;fill-rule:nonzero;fill:rgb(100%,100%,100%);fill-opacity:1;" d="M 144 169.148438 L 38.53125 169.148438 L 91.277344 63.328125 L 144 169.148438 "/>
<path style=" stroke:none;fill-rule:nonzero;fill:rgb(0.784314%,42.352941%,60.784314%);fill-opacity:1;" d="M 84.058594 124.902344 L 73.695312 114.523438 L 75.457031 112.761719 L 68.964844 111.433594 L 70.285156 117.972656 L 72.023438 116.203125 L 82.386719 126.582031 L 84.058594 124.902344 M 80.273438 131.703125 L 65.640625 131.703125 L 65.640625 129.210938 L 60.097656 132.894531 L 65.640625 136.5625 L 65.640625 134.066406 L 80.273438 134.066406 L 80.273438 131.703125 M 82.386719 139.207031 L 72.023438 149.585938 L 70.285156 147.820312 L 68.964844 154.355469 L 75.457031 153.035156 L 73.695312 151.265625 L 84.058594 140.886719 L 82.386719 139.207031 M 89.164062 143.007812 L 89.164062 157.691406 L 86.679688 157.691406 L 90.332031 163.230469 L 94.007812 157.691406 L 91.519531 157.691406 L 91.519531 143.007812 L 89.164062 143.007812 M 89.164062 123.203125 L 89.164062 108.523438 L 86.679688 108.523438 L 90.332031 102.976562 L 94.007812 108.523438 L 91.519531 108.523438 L 91.519531 123.203125 L 89.164062 123.203125 M 96.621094 140.886719 L 106.988281 151.265625 L 105.230469 153.035156 L 111.742188 154.355469 L 110.425781 147.820312 L 108.660156 149.585938 L 98.292969 139.207031 L 96.621094 140.886719 M 100.40625 134.066406 L 115.066406 134.066406 L 115.066406 136.5625 L 120.585938 132.894531 L 115.066406 129.210938 L 115.066406 131.703125 L 100.40625 131.703125 L 100.40625 134.066406 M 98.292969 126.582031 L 108.660156 116.203125 L 110.425781 117.972656 L 111.742188 111.433594 L 105.230469 112.761719 L 106.988281 114.523438 L 96.621094 124.902344 L 98.292969 126.582031 "/>
<path style=" stroke:none;fill-rule:nonzero;fill:rgb(0.784314%,42.352941%,60.784314%);fill-opacity:1;" d="M 99.332031 145.324219 C 106.238281 140.46875 107.910156 130.910156 103.074219 124 C 98.234375 117.0625 88.726562 115.367188 81.8125 120.222656 C 74.90625 125.078125 73.234375 134.640625 78.050781 141.550781 C 82.894531 148.507812 92.417969 150.183594 99.332031 145.324219 "/>
<path style="fill:none;stroke-width:4;stroke-linecap:butt;stroke-linejoin:miter;stroke:rgb(100%,100%,100%);stroke-opacity:1;stroke-miterlimit:4;" d="M 176.32905 98.657151 C 188.588665 107.247596 191.55649 124.158954 182.971986 136.384615 C 174.380547 148.658654 157.502774 151.658053 145.22929 143.067608 C 132.969675 134.477163 130.001849 117.558894 138.551683 105.333233 C 147.150055 93.024639 164.055566 90.059796 176.32905 98.657151 Z M 176.32905 98.657151 " transform="matrix(0.563333,0,0,-0.565217,0,201.086957)"/>
</g>
</svg>
