<?xml version="1.0" encoding="UTF-8"?>
<svg xmlns="http://www.w3.org/2000/svg" xmlns:xlink="http://www.w3.org/1999/xlink" width="191pt" height="200pt" viewBox="0 0 191 200" version="1.1">
<g id="surface1">
<path style=" stroke:none;fill-rule:nonzero;fill:rgb(0.784314%,42.352941%,60.784314%);fill-opacity:1;" d="M 189.300781 37.75 C 189.300781 58.039062 147.152344 74.496094 95.167969 74.496094 C 43.183594 74.496094 1.035156 58.039062 1.035156 37.75 L 1.035156 154.9375 C 1.035156 175.226562 43.179688 191.664062 95.164062 191.664062 C 147.152344 191.664062 189.300781 175.226562 189.300781 154.9375 L 189.300781 37.75 "/>
<path style="fill:none;stroke-width:0.5;stroke-linecap:butt;stroke-linejoin:miter;stroke:rgb(100%,100%,100%);stroke-opacity:1;stroke-miterlimit:4;" d="M 45.590764 9.06 C 45.590764 13.930312 35.439831 17.879062 22.920034 17.879062 C 10.400237 17.879062 0.249305 13.929375 0.249305 9.06 L 0.249305 37.185938 C 0.249305 42.054375 10.399296 45.999375 22.919094 45.999375 C 35.439831 45.999375 45.590764 42.054375 45.590764 37.185938 Z M 45.590764 9.06 " transform="matrix(4.152174,0,0,4.166667,0,0)"/>
<path style=" stroke:none;fill-rule:nonzero;fill:rgb(0.784314%,42.352941%,60.784314%);fill-opacity:1;" d="M 95.1875 74.660156 C 147.113281 74.660156 189.21875 58.242188 189.21875 37.976562 C 189.21875 17.710938 147.117188 1.273438 95.1875 1.273438 C 43.246094 1.273438 1.160156 17.710938 1.160156 37.976562 C 1.160156 58.238281 43.246094 74.652344 95.1875 74.652344 "/>
<path style="fill:none;stroke-width:0.5;stroke-linecap:butt;stroke-linejoin:miter;stroke:rgb(100%,100%,100%);stroke-opacity:1;stroke-miterlimit:4;" d="M 22.924738 17.918437 C 35.430424 17.918437 45.571008 13.978125 45.571008 9.114375 C 45.571008 4.249688 35.431365 0.304688 22.924738 0.304688 C 10.41529 0.304688 0.279409 4.249688 0.279409 9.115312 C 0.279409 13.978125 10.41529 17.918437 22.924738 17.918437 Z M 22.924738 17.918437 " transform="matrix(4.152174,0,0,4.166667,0,0)"/>
<path style=" stroke:none;fill-rule:nonzero;fill:rgb(100%,100%,100%);fill-opacity:1;" d="M 73.023438 16.0625 L 111.589844 12.277344 L 104.164062 24.648438 L 94.296875 22.757812 L 36.597656 44.632812 L 26.273438 41.777344 L 82.777344 20.210938 L 73.023438 16.0625 M 117.652344 29.777344 L 156.214844 26.015625 L 148.792969 38.382812 L 138.941406 36.464844 L 81.238281 58.339844 L 70.898438 55.496094 L 127.429688 33.929688 L 117.65625 29.777344 M 56.464844 178.191406 L 56.464844 153.230469 L 41.460938 165.207031 L 56.464844 178.1875 M 128.742188 82.003906 L 128.742188 106.984375 L 143.722656 94.984375 L 128.742188 82.003906 M 56.464844 107.878906 L 56.464844 82.917969 L 41.460938 94.898438 L 56.464844 107.878906 "/>
<path style="fill:none;stroke-width:1.78125;stroke-linecap:butt;stroke-linejoin:miter;stroke:rgb(100%,100%,100%);stroke-opacity:1;stroke-miterlimit:4;" d="M 33.324975 39.709688 L 27.123405 39.709688 L 18.711019 22.733438 L 12.290249 22.733438 " transform="matrix(4.152174,0,0,4.166667,0,0)"/>
<path style="fill:none;stroke-width:1.78125;stroke-linecap:butt;stroke-linejoin:miter;stroke:rgb(100%,100%,100%);stroke-opacity:1;stroke-miterlimit:4;" d="M 12.32882 39.679688 L 18.318717 39.679688 L 26.6549 22.786875 L 33.149992 22.786875 " transform="matrix(4.152174,0,0,4.166667,0,0)"/>
<path style=" stroke:none;fill-rule:nonzero;fill:rgb(100%,100%,100%);fill-opacity:1;" d="M 128.742188 152.640625 L 128.742188 177.625 L 143.722656 165.621094 L 128.742188 152.640625 "/>
</g>
</svg>
