<?xml version="1.0" encoding="UTF-8"?>
<svg xmlns="http://www.w3.org/2000/svg" xmlns:xlink="http://www.w3.org/1999/xlink" width="143pt" height="200pt" viewBox="0 0 143 200" version="1.1">
<g id="surface1">
<path style="fill:none;stroke-width:0.5;stroke-linecap:butt;stroke-linejoin:miter;stroke:rgb(13.72549%,12.156863%,12.54902%);stroke-opacity:1;stroke-miterlimit:10;" d="M 33.251939 5.392969 C 34.037751 4.079297 34.034227 4.270313 34.350197 3.791016 C 37.48992 -0.955078 40.689549 1.339453 38.515352 5.749219 C 36.724077 9.400781 36.542013 9.635156 35.845471 10.845703 C 34.694356 12.870703 33.592575 14.922656 32.540128 17.000391 M 36.377568 10.035937 C 39.540783 5.348438 42.573618 7.510547 40.620247 11.821875 C 38.945258 15.505078 38.502431 15.645703 37.890461 16.939453 C 36.762839 19.341797 37.114046 18.965625 36.255409 20.661328 " transform="matrix(3.325581,0,0,3.333333,0,0)"/>
<path style="fill:none;stroke-width:0.5;stroke-linecap:butt;stroke-linejoin:miter;stroke:rgb(13.72549%,12.156863%,12.54902%);stroke-opacity:1;stroke-miterlimit:10;" d="M 29.974787 11.070703 C 30.840472 9.962109 30.854567 9.742969 32.80324 6.194531 C 35.242898 1.740234 31.805999 -0.441797 28.602846 4.185937 C 25.215281 9.084375 24.355469 10.484766 22.474924 12.653906 C 20.590854 14.83125 17.084654 23.307422 14.871695 25.601953 C 13.403436 27.134766 15.483665 21.134766 15.296902 19.386328 C 14.886965 15.587109 14.789472 16.026563 14.354868 14.689453 C 13.915565 13.351172 11.205747 10.983984 10.634889 13.039453 C 10.341237 14.103516 10.478666 14.1375 10.699492 15.344531 C 10.806381 15.964453 10.361205 15.7875 10.489237 18.766406 C 10.560888 20.445703 7.860468 25.461328 7.046465 27.697266 C 5.311571 32.444531 7.22618 32.691797 6.519067 36.6375 C 5.736779 40.964062 6.649448 40.060547 5.874208 41.910937 C 5.09192 43.755469 0.669526 50.855859 0.233747 51.99375 M 16.215445 27.703125 C 18.804278 29.171484 16.405731 37.155469 16.405731 37.155469 M 14.984457 27.13125 C 14.379535 26.353125 14.354868 25.845703 14.354868 25.845703 " transform="matrix(3.325581,0,0,3.333333,0,0)"/>
<path style=" stroke:none;fill-rule:evenodd;fill:rgb(3.137255%,49.411765%,74.509804%);fill-opacity:1;" d="M 23.886719 111.417969 L 89.679688 111.417969 L 131.949219 33.828125 L 69.359375 33.828125 L 23.886719 111.417969 "/>
<path style="fill:none;stroke-width:0.5;stroke-linecap:round;stroke-linejoin:round;stroke:rgb(100%,100%,100%);stroke-opacity:1;stroke-miterlimit:10;" d="M 7.18272 33.425391 L 26.966619 33.425391 L 39.677038 10.148438 L 20.856316 10.148438 Z M 7.18272 33.425391 " transform="matrix(3.325581,0,0,3.333333,0,0)"/>
<path style="fill-rule:evenodd;fill:rgb(3.137255%,49.411765%,74.509804%);fill-opacity:1;stroke-width:0.5;stroke-linecap:round;stroke-linejoin:round;stroke:rgb(100%,100%,100%);stroke-opacity:1;stroke-miterlimit:10;" d="M 7.18272 37.277344 L 26.966619 37.277344 L 26.966619 33.425391 L 7.18272 33.425391 Z M 7.18272 37.277344 " transform="matrix(3.325581,0,0,3.333333,0,0)"/>
<path style=" stroke:none;fill-rule:evenodd;fill:rgb(3.137255%,49.411765%,74.509804%);fill-opacity:1;" d="M 131.953125 33.828125 L 131.953125 45.871094 L 89.683594 124.257812 L 89.683594 111.417969 L 131.953125 33.828125 "/>
<path style="fill:none;stroke-width:0.5;stroke-linecap:round;stroke-linejoin:round;stroke:rgb(100%,100%,100%);stroke-opacity:1;stroke-miterlimit:10;" d="M 39.678212 10.148438 L 39.678212 13.761328 L 26.967794 37.277344 L 26.967794 33.425391 Z M 39.678212 10.148438 " transform="matrix(3.325581,0,0,3.333333,0,0)"/>
<path style=" stroke:none;fill-rule:evenodd;fill:rgb(100%,100%,100%);fill-opacity:1;" d="M 120.90625 41.652344 L 93.082031 93.546875 L 41.714844 93.546875 L 71.722656 41.652344 L 120.90625 41.652344 "/>
<path style="fill:none;stroke-width:0.24075;stroke-linecap:round;stroke-linejoin:round;stroke:rgb(100%,100%,100%);stroke-opacity:1;stroke-miterlimit:10;" d="M 36.356425 12.498047 L 27.989702 28.064062 L 12.543624 28.064062 L 21.566953 12.498047 Z M 36.356425 12.498047 " transform="matrix(3.325581,0,0,3.333333,0,0)"/>
<path style=" stroke:none;fill-rule:evenodd;fill:rgb(100%,100%,100%);fill-opacity:1;" d="M 44.28125 100.753906 L 41.214844 106.402344 L 35.316406 106.402344 L 38.578125 100.753906 L 44.28125 100.753906 "/>
<path style="fill:none;stroke-width:0.24075;stroke-linecap:round;stroke-linejoin:round;stroke:rgb(100%,100%,100%);stroke-opacity:1;stroke-miterlimit:10;" d="M 13.315341 30.226172 L 12.393275 31.920703 L 10.619619 31.920703 L 11.600415 30.226172 Z M 13.315341 30.226172 " transform="matrix(3.325581,0,0,3.333333,0,0)"/>
<path style=" stroke:none;fill-rule:evenodd;fill:rgb(100%,100%,100%);fill-opacity:1;" d="M 89.78125 100.753906 L 86.726562 106.402344 L 80.832031 106.402344 L 84.085938 100.753906 L 89.78125 100.753906 "/>
<path style="fill:none;stroke-width:0.24075;stroke-linecap:round;stroke-linejoin:round;stroke:rgb(100%,100%,100%);stroke-opacity:1;stroke-miterlimit:10;" d="M 26.997159 30.226172 L 26.078617 31.920703 L 24.306135 31.920703 L 25.284583 30.226172 Z M 26.997159 30.226172 " transform="matrix(3.325581,0,0,3.333333,0,0)"/>
<path style=" stroke:none;fill-rule:evenodd;fill:rgb(100%,100%,100%);fill-opacity:1;" d="M 78.429688 100.753906 L 75.378906 106.402344 L 69.484375 106.402344 L 72.730469 100.753906 L 78.429688 100.753906 "/>
<path style="fill:none;stroke-width:0.24075;stroke-linecap:round;stroke-linejoin:round;stroke:rgb(100%,100%,100%);stroke-opacity:1;stroke-miterlimit:10;" d="M 23.583752 30.226172 L 22.666384 31.920703 L 20.893903 31.920703 L 21.870001 30.226172 Z M 23.583752 30.226172 " transform="matrix(3.325581,0,0,3.333333,0,0)"/>
<path style=" stroke:none;fill-rule:evenodd;fill:rgb(100%,100%,100%);fill-opacity:1;" d="M 66.5625 100.753906 L 63.488281 106.402344 L 57.597656 106.402344 L 60.863281 100.753906 L 66.566406 100.753906 "/>
<path style="fill:none;stroke-width:0.24075;stroke-linecap:round;stroke-linejoin:round;stroke:rgb(100%,100%,100%);stroke-opacity:1;stroke-miterlimit:10;" d="M 20.015297 30.226172 L 19.090882 31.920703 L 17.319575 31.920703 L 18.301546 30.226172 L 20.016472 30.226172 Z M 20.015297 30.226172 " transform="matrix(3.325581,0,0,3.333333,0,0)"/>
<path style=" stroke:none;fill-rule:evenodd;fill:rgb(100%,100%,100%);fill-opacity:1;" d="M 55.308594 100.753906 L 52.25 106.402344 L 46.359375 106.402344 L 49.609375 100.753906 L 55.308594 100.753906 "/>
<path style="fill:none;stroke-width:0.24075;stroke-linecap:round;stroke-linejoin:round;stroke:rgb(100%,100%,100%);stroke-opacity:1;stroke-miterlimit:10;" d="M 16.631255 30.226172 L 15.711538 31.920703 L 13.940232 31.920703 L 14.917504 30.226172 Z M 16.631255 30.226172 " transform="matrix(3.325581,0,0,3.333333,0,0)"/>
<path style=" stroke:none;fill-rule:nonzero;fill:rgb(100%,100%,100%);fill-opacity:1;" d="M 46.410156 195.382812 C 50.144531 189.601562 68.054688 163.125 69.722656 162.667969 C 88.242188 157.609375 109.363281 116.328125 119.253906 104.304688 C 121.414062 101.667969 123.261719 96.554688 124.207031 94.148438 C 124.660156 92.976562 128.851562 84.136719 131.191406 79.953125 L 134.921875 62.964844 L 135.527344 48.019531 C 135.527344 48.019531 129.648438 33.875 126.269531 52.023438 L 123.882812 63.707031 C 122.777344 65.535156 118.71875 71.507812 117.664062 74.09375 C 116.609375 76.683594 110.210938 84.660156 110.257812 89.082031 "/>
<path style="fill:none;stroke-width:0.5;stroke-linecap:butt;stroke-linejoin:miter;stroke:rgb(13.72549%,12.156863%,12.54902%);stroke-opacity:1;stroke-miterlimit:10;" d="M 13.955502 58.614844 C 15.078425 56.880469 20.463997 48.9375 20.965554 48.800391 C 26.534364 47.281641 32.885462 34.898438 35.859566 31.291406 C 36.509124 30.500391 37.064713 28.966406 37.348967 28.244531 C 37.485222 27.892969 38.745575 25.241016 39.449164 23.985937 L 40.570913 18.889453 L 40.752977 14.405859 C 40.752977 14.405859 38.985194 10.1625 37.96916 15.607031 L 37.251475 19.112109 C 36.919061 19.660547 35.698645 21.452344 35.381501 22.229297 C 35.064358 23.005078 33.140352 25.398047 33.154447 26.724609 " transform="matrix(3.325581,0,0,3.333333,0,0)"/>
</g>
</svg>
