<?xml version="1.0" encoding="UTF-8"?>
<svg xmlns="http://www.w3.org/2000/svg" xmlns:xlink="http://www.w3.org/1999/xlink" width="272pt" height="200pt" viewBox="0 0 272 200" version="1.1">
<defs>
<clipPath id="clip1">
  <path d="M 0 33 L 272 33 L 272 189.089844 L 0 189.089844 Z M 0 33 "/>
</clipPath>
<clipPath id="clip2">
  <path d="M 0 33 L 272 33 L 272 189.089844 L 0 189.089844 Z M 0 33 "/>
</clipPath>
</defs>
<g id="surface1">
<path style=" stroke:none;fill-rule:nonzero;fill:rgb(0.784314%,42.352941%,60.784314%);fill-opacity:1;" d="M 285.394531 51.140625 C 285.394531 81.703125 221.855469 106.480469 143.5 106.480469 C 65.101562 106.480469 1.5625 81.703125 1.5625 51.140625 L 1.5625 132.183594 C 1.5625 162.738281 65.101562 187.515625 143.5 187.515625 C 221.855469 187.515625 285.394531 162.738281 285.394531 132.183594 L 285.394531 51.140625 "/>
<g clip-path="url(#clip1)" clip-rule="nonzero">
<path style="fill:none;stroke-width:4;stroke-linecap:butt;stroke-linejoin:miter;stroke:rgb(100%,100%,100%);stroke-opacity:1;stroke-miterlimit:4;" d="M 363.200054 185.090745 C 363.200054 146.29988 282.33869 114.851713 182.621606 114.851713 C 82.849839 114.851713 1.988476 146.29988 1.988476 185.090745 L 1.988476 82.228516 C 1.988476 43.447566 82.849839 11.999399 182.621606 11.999399 C 282.33869 11.999399 363.200054 43.447566 363.200054 82.228516 Z M 363.200054 185.090745 " transform="matrix(0.785778,0,0,-0.787879,0,196.969697)"/>
</g>
<path style=" stroke:none;fill-rule:nonzero;fill:rgb(0.784314%,42.352941%,60.784314%);fill-opacity:1;" d="M 285.394531 51.140625 C 285.394531 81.703125 221.855469 106.480469 143.5 106.480469 C 65.101562 106.480469 1.5625 81.703125 1.5625 51.140625 L 1.5625 132.183594 C 1.5625 162.738281 65.101562 187.515625 143.5 187.515625 C 221.855469 187.515625 285.394531 162.738281 285.394531 132.183594 L 285.394531 51.140625 "/>
<g clip-path="url(#clip2)" clip-rule="nonzero">
<path style="fill:none;stroke-width:4;stroke-linecap:butt;stroke-linejoin:miter;stroke:rgb(100%,100%,100%);stroke-opacity:1;stroke-miterlimit:4;" d="M 363.200054 185.090745 C 363.200054 146.29988 282.33869 114.851713 182.621606 114.851713 C 82.849839 114.851713 1.988476 146.29988 1.988476 185.090745 L 1.988476 82.228516 C 1.988476 43.447566 82.849839 11.999399 182.621606 11.999399 C 282.33869 11.999399 363.200054 43.447566 363.200054 82.228516 Z M 363.200054 185.090745 " transform="matrix(0.785778,0,0,-0.787879,0,196.969697)"/>
</g>
<path style=" stroke:none;fill-rule:nonzero;fill:rgb(0.784314%,42.352941%,60.784314%);fill-opacity:1;" d="M 143.5 106.480469 C 221.855469 106.480469 285.394531 81.703125 285.394531 51.140625 C 285.394531 20.582031 221.855469 -4.191406 143.5 -4.191406 C 65.101562 -4.191406 1.5625 20.582031 1.5625 51.140625 C 1.5625 81.703125 65.101562 106.480469 143.5 106.480469 "/>
<path style="fill:none;stroke-width:4;stroke-linecap:butt;stroke-linejoin:miter;stroke:rgb(100%,100%,100%);stroke-opacity:1;stroke-miterlimit:4;" d="M 182.621606 114.851713 C 282.33869 114.851713 363.200054 146.29988 363.200054 185.090745 C 363.200054 223.876653 282.33869 255.319862 182.621606 255.319862 C 82.849839 255.319862 1.988476 223.876653 1.988476 185.090745 C 1.988476 146.29988 82.849839 114.851713 182.621606 114.851713 Z M 182.621606 114.851713 " transform="matrix(0.785778,0,0,-0.787879,0,196.969697)"/>
<path style=" stroke:none;fill-rule:nonzero;fill:rgb(100%,100%,100%);fill-opacity:1;" d="M 101.601562 81.828125 L 101.601562 10.03125 L 169.957031 44.742188 L 101.601562 81.828125 M 171.085938 78.566406 L 192.328125 78.566406 L 192.328125 12.085938 L 171.085938 12.085938 Z M 171.085938 78.566406 "/>
</g>
</svg>
