<?xml version="1.0" encoding="UTF-8"?>
<svg xmlns="http://www.w3.org/2000/svg" xmlns:xlink="http://www.w3.org/1999/xlink" width="152pt" height="200pt" viewBox="0 0 152 200" version="1.1">
<defs>
<clipPath id="clip1">
  <path d="M 127 40 L 152 40 L 152 196.390625 L 127 196.390625 Z M 127 40 "/>
</clipPath>
</defs>
<g id="surface1">
<path style="fill-rule:nonzero;fill:rgb(0.784314%,42.352941%,60.784314%);fill-opacity:1;stroke-width:4;stroke-linecap:butt;stroke-linejoin:miter;stroke:rgb(100%,100%,100%);stroke-opacity:1;stroke-miterlimit:4;" d="M 6.453022 14.788011 L 274.72759 14.788011 L 274.72759 259.045523 L 6.453022 259.045523 Z M 6.453022 14.788011 " transform="matrix(0.506667,0,0,-0.509804,0,200.980392)"/>
<path style=" stroke:none;fill-rule:nonzero;fill:rgb(0.784314%,42.352941%,60.784314%);fill-opacity:1;" d="M 156.351562 176.339844 L 156.351562 51.8125 L 139.195312 68.917969 L 139.195312 193.441406 L 156.351562 176.339844 "/>
<g clip-path="url(#clip1)" clip-rule="nonzero">
<path style="fill:none;stroke-width:4;stroke-linecap:butt;stroke-linejoin:miter;stroke:rgb(100%,100%,100%);stroke-opacity:1;stroke-miterlimit:4;" d="M 308.58861 48.333383 L 308.58861 292.598558 L 274.72759 259.045523 L 274.72759 14.788011 Z M 308.58861 48.333383 " transform="matrix(0.506667,0,0,-0.509804,0,200.980392)"/>
</g>
<path style=" stroke:none;fill-rule:nonzero;fill:rgb(0.784314%,42.352941%,60.784314%);fill-opacity:1;" d="M 28.125 -3.585938 L 3.265625 13.515625 L 139.195312 13.515625 L 156.351562 -3.585938 L 28.125 -3.585938 "/>
<path style="fill:none;stroke-width:4;stroke-linecap:butt;stroke-linejoin:miter;stroke:rgb(100%,100%,100%);stroke-opacity:1;stroke-miterlimit:4;" d="M 55.509868 401.264724 L 6.445312 367.719351 L 274.72759 367.719351 L 308.58861 401.264724 Z M 55.509868 401.264724 " transform="matrix(0.506667,0,0,-0.509804,0,200.980392)"/>
<path style="fill-rule:nonzero;fill:rgb(0.784314%,42.352941%,60.784314%);fill-opacity:1;stroke-width:4;stroke-linecap:butt;stroke-linejoin:miter;stroke:rgb(100%,100%,100%);stroke-opacity:1;stroke-miterlimit:4;" d="M 6.453022 259.045523 L 274.72759 259.045523 L 274.72759 367.719351 L 6.453022 367.719351 Z M 6.453022 259.045523 " transform="matrix(0.506667,0,0,-0.509804,0,200.980392)"/>
<path style=" stroke:none;fill-rule:nonzero;fill:rgb(0.784314%,42.352941%,60.784314%);fill-opacity:1;" d="M 156.351562 51.8125 L 156.351562 -3.585938 L 139.195312 13.515625 L 139.195312 68.917969 L 156.351562 51.8125 "/>
<path style="fill:none;stroke-width:4;stroke-linecap:butt;stroke-linejoin:miter;stroke:rgb(100%,100%,100%);stroke-opacity:1;stroke-miterlimit:4;" d="M 308.58861 292.598558 L 308.58861 401.264724 L 274.72759 367.719351 L 274.72759 259.045523 Z M 274.72759 259.045523 L 6.453022 259.045523 " transform="matrix(0.506667,0,0,-0.509804,0,200.980392)"/>
<path style="fill-rule:nonzero;fill:rgb(0.784314%,42.352941%,60.784314%);fill-opacity:1;stroke-width:4;stroke-linecap:butt;stroke-linejoin:miter;stroke:rgb(100%,100%,100%);stroke-opacity:1;stroke-miterlimit:4;" d="M 274.72759 259.045523 L 308.58861 292.598558 " transform="matrix(0.506667,0,0,-0.509804,0,200.980392)"/>
<path style=" stroke:none;fill-rule:nonzero;fill:rgb(0%,0%,0%);fill-opacity:1;" d="M 28.398438 29.488281 L 50.308594 29.488281 L 50.308594 18.019531 L 28.398438 18.019531 Z M 100.421875 29.488281 L 122.332031 29.488281 L 122.332031 18.019531 L 100.421875 18.019531 Z M 28.398438 58.183594 L 50.308594 58.183594 L 50.308594 46.714844 L 28.398438 46.714844 Z M 100.421875 58.183594 L 122.332031 58.183594 L 122.332031 46.714844 L 100.421875 46.714844 Z M 100.421875 58.183594 "/>
<path style="fill:none;stroke-width:4;stroke-linecap:butt;stroke-linejoin:miter;stroke:rgb(0%,0%,0%);stroke-opacity:1;stroke-miterlimit:4;" d="M 85.392681 345.491136 L 218.284848 345.491136 M 85.392681 289.158203 L 218.284848 289.158203 M 77.698396 289.158203 L 218.284848 345.491136 M 77.698396 345.491136 L 218.284848 289.158203 " transform="matrix(0.506667,0,0,-0.509804,0,200.980392)"/>
<path style=" stroke:none;fill-rule:nonzero;fill:rgb(100%,100%,100%);fill-opacity:1;" d="M 25.449219 32.4375 L 47.378906 32.4375 L 47.378906 20.964844 L 25.449219 20.964844 Z M 97.472656 32.4375 L 119.402344 32.4375 L 119.402344 20.964844 L 97.472656 20.964844 Z M 25.449219 61.152344 L 47.378906 61.152344 L 47.378906 49.660156 L 25.449219 49.660156 Z M 97.472656 61.152344 L 119.402344 61.152344 L 119.402344 49.660156 L 97.472656 49.660156 Z M 97.472656 61.152344 "/>
<path style="fill:none;stroke-width:4;stroke-linecap:butt;stroke-linejoin:miter;stroke:rgb(100%,100%,100%);stroke-opacity:1;stroke-miterlimit:4;" d="M 79.610403 341.851562 L 212.50257 341.851562 M 79.610403 285.564603 L 212.50257 285.564603 M 71.87757 285.564603 L 212.50257 341.851562 M 71.87757 341.851562 L 212.50257 285.564603 " transform="matrix(0.506667,0,0,-0.509804,0,200.980392)"/>
<path style=" stroke:none;fill-rule:nonzero;fill:rgb(100%,100%,100%);fill-opacity:1;" d="M 73.113281 111.097656 L 73.113281 83.855469 L 77.941406 83.855469 L 70.816406 73.558594 L 63.707031 83.855469 L 68.535156 83.855469 L 68.535156 111.097656 L 73.113281 111.097656 M 51.261719 127.644531 L 22.820312 127.644531 L 22.820312 123.027344 L 12.09375 129.839844 L 22.820312 136.664062 L 22.820312 132.046875 L 51.261719 132.046875 L 51.261719 127.644531 M 68.535156 148.59375 L 68.535156 175.839844 L 63.707031 175.839844 L 70.816406 186.117188 L 77.941406 175.839844 L 73.113281 175.839844 L 73.113281 148.59375 L 68.535156 148.59375 M 90.386719 132.046875 L 118.828125 132.046875 L 118.828125 136.664062 L 129.554688 129.839844 L 118.828125 123.027344 L 118.828125 127.644531 L 90.386719 127.644531 L 90.386719 132.046875 "/>
<path style=" stroke:none;fill-rule:nonzero;fill:rgb(0.784314%,42.352941%,60.784314%);fill-opacity:1;" d="M 97.554688 157.816406 L 44.332031 157.816406 L 44.371094 102.292969 L 97.613281 102.292969 L 97.554688 157.816406 "/>
<path style="fill:none;stroke-width:4;stroke-linecap:butt;stroke-linejoin:miter;stroke:rgb(100%,100%,100%);stroke-opacity:1;stroke-miterlimit:4;" d="M 192.542146 84.667819 L 87.49743 84.667819 L 87.574527 193.579177 L 192.657792 193.579177 Z M 113.826069 194.782151 L 113.826069 84.353666 M 139.923417 195.096304 L 139.923417 84.353666 M 165.982216 193.027494 L 165.982216 85.334435 M 86.880654 166.470102 L 191.802015 166.470102 M 86.518298 139.353365 L 191.131271 139.353365 M 86.518298 112.244291 L 191.802015 112.244291 " transform="matrix(0.506667,0,0,-0.509804,0,200.980392)"/>
</g>
</svg>
