<?xml version="1.0" encoding="UTF-8"?>
<svg xmlns="http://www.w3.org/2000/svg" xmlns:xlink="http://www.w3.org/1999/xlink" width="251pt" height="200pt" viewBox="0 0 251 200" version="1.1">
<g id="surface1">
<path style=" stroke:none;fill-rule:nonzero;fill:rgb(0.784314%,42.352941%,60.784314%);fill-opacity:1;" d="M 251.964844 48.039062 C 251.964844 73.714844 195.933594 94.507812 126.804688 94.507812 C 57.664062 94.507812 1.601562 73.714844 1.601562 48.039062 L 1.601562 155.140625 C 1.601562 180.820312 57.664062 201.613281 126.804688 201.613281 C 195.929688 201.613281 251.964844 180.820312 251.964844 155.140625 L 251.964844 48.046875 "/>
<path style="fill:none;stroke-width:0.5;stroke-linecap:butt;stroke-linejoin:miter;stroke:rgb(100%,100%,100%);stroke-opacity:1;stroke-miterlimit:4;" d="M 39.149916 7.446055 C 39.149916 11.425801 30.443865 14.648711 19.70272 14.648711 C 8.959755 14.648711 0.248848 11.425801 0.248848 7.446055 L 0.248848 24.046797 C 0.248848 28.027148 8.959755 31.250059 19.70272 31.250059 C 30.443258 31.250059 39.149916 28.027148 39.149916 24.046797 Z M 39.149916 7.446055 " transform="matrix(6.435897,0,0,6.451613,0,0)"/>
<path style=" stroke:none;fill-rule:nonzero;fill:rgb(0.784314%,42.352941%,60.784314%);fill-opacity:1;" d="M 126.804688 94.507812 C 195.929688 94.507812 251.964844 73.714844 251.964844 48.039062 C 251.964844 22.359375 195.933594 1.574219 126.804688 1.574219 C 57.664062 1.574219 1.601562 22.359375 1.601562 48.039062 C 1.601562 73.714844 57.664062 94.515625 126.804688 94.515625 "/>
<path style="fill:none;stroke-width:0.5;stroke-linecap:butt;stroke-linejoin:miter;stroke:rgb(100%,100%,100%);stroke-opacity:1;stroke-miterlimit:4;" d="M 19.70272 14.648711 C 30.443258 14.648711 39.149916 11.425801 39.149916 7.446055 C 39.149916 3.465703 30.443865 0.244004 19.70272 0.244004 C 8.959755 0.244004 0.248848 3.465703 0.248848 7.446055 C 0.248848 11.425801 8.959755 14.649922 19.70272 14.649922 Z M 19.70272 14.648711 " transform="matrix(6.435897,0,0,6.451613,0,0)"/>
</g>
</svg>
