<?xml version="1.0" encoding="UTF-8"?>
<svg xmlns="http://www.w3.org/2000/svg" xmlns:xlink="http://www.w3.org/1999/xlink" width="551pt" height="200pt" viewBox="0 0 551 200" version="1.1">
<g id="surface1">
<path style=" stroke:none;fill-rule:nonzero;fill:rgb(1.176471%,41.176471%,59.607843%);fill-opacity:1;" d="M 547.507812 20.070312 L 547.507812 31.550781 L 431.914062 73.953125 L 379.289062 64.847656 L 347.675781 58.722656 L 326.011719 54.207031 L 325.476562 39.667969 "/>
<path style="fill:none;stroke-width:0.5;stroke-linecap:butt;stroke-linejoin:miter;stroke:rgb(100%,100%,100%);stroke-opacity:1;stroke-miterlimit:4;" d="M 79.492967 2.910195 L 79.492967 4.57373 L 62.709846 10.72207 L 55.069192 9.401777 L 50.479242 8.515918 L 47.333825 7.86002 L 47.256125 5.751855 " transform="matrix(6.8875,0,0,6.896552,0,0)"/>
<path style=" stroke:none;fill-rule:nonzero;fill:rgb(1.176471%,41.176471%,59.607843%);fill-opacity:1;" d="M 277.621094 187.929688 C 292.277344 187.929688 304.1875 182.71875 304.1875 176.28125 C 304.1875 169.855469 292.277344 164.628906 277.621094 164.628906 C 262.921875 164.628906 251.015625 169.855469 251.015625 176.28125 C 251.015625 182.71875 262.921875 187.929688 277.621094 187.929688 "/>
<path style="fill:none;stroke-width:0.5;stroke-linecap:butt;stroke-linejoin:miter;stroke:rgb(100%,100%,100%);stroke-opacity:1;stroke-miterlimit:4;" d="M 40.307963 27.249805 C 42.435912 27.249805 44.165154 26.493086 44.165154 25.560215 C 44.165154 24.62791 42.435912 23.871758 40.307963 23.871758 C 38.173775 23.871758 36.4451 24.62791 36.4451 25.560781 C 36.4451 26.493086 38.173775 27.250938 40.307963 27.250938 Z M 40.307963 27.249805 " transform="matrix(6.8875,0,0,6.896552,0,0)"/>
<path style=" stroke:none;fill-rule:nonzero;fill:rgb(1.176471%,41.176471%,59.607843%);fill-opacity:1;" d="M 382.484375 51.007812 L 432.253906 58.957031 L 547.507812 20.070312 L 446.785156 4.277344 L 325.476562 39.660156 L 360.347656 45.621094 "/>
<path style="fill:none;stroke-width:0.5;stroke-linecap:butt;stroke-linejoin:miter;stroke:rgb(100%,100%,100%);stroke-opacity:1;stroke-miterlimit:4;" d="M 55.533122 7.396133 L 62.759188 8.54877 L 79.492967 2.909063 L 64.868988 0.620215 L 47.256125 5.751855 L 52.319079 6.615059 " transform="matrix(6.8875,0,0,6.896552,0,0)"/>
<path style=" stroke:none;fill-rule:nonzero;fill:rgb(1.176471%,41.176471%,59.607843%);fill-opacity:1;" d="M 374.101562 53.070312 C 409.882812 43.972656 417.726562 35.082031 417.726562 35.082031 C 405.652344 29.261719 362.363281 44.945312 362.363281 44.945312 L 354.707031 47.585938 L 374.109375 53.074219 "/>
<path style="fill:none;stroke-width:0.5;stroke-linecap:butt;stroke-linejoin:miter;stroke:rgb(100%,100%,100%);stroke-opacity:1;stroke-miterlimit:4;" d="M 54.316016 7.694063 C 59.511116 6.377168 60.649955 5.086895 60.649955 5.086895 C 58.896892 4.242949 52.611729 6.518203 52.611729 6.518203 L 51.500113 6.899961 L 54.317151 7.695195 Z M 54.316016 7.694063 " transform="matrix(6.8875,0,0,6.896552,0,0)"/>
<path style=" stroke:none;fill-rule:nonzero;fill:rgb(1.176471%,41.176471%,59.607843%);fill-opacity:1;" d="M 360.347656 45.621094 L 325.476562 39.523438 L 446.792969 4.28125 L 547.515625 20.074219 L 432.257812 58.957031 L 381.945312 51.214844 C 410.761719 44.242188 417.382812 35.082031 417.382812 35.082031 C 405.316406 29.261719 367.484375 43.226562 367.484375 43.226562 L 367.34375 43.503906 L 332.335938 54.179688 L 332.335938 73.476562 L 378 57.910156 L 378.507812 57.746094 C 378.507812 57.746094 380.628906 52.863281 380.628906 51.214844 "/>
<path style="fill:none;stroke-width:0.5;stroke-linecap:butt;stroke-linejoin:miter;stroke:rgb(100%,100%,100%);stroke-opacity:1;stroke-miterlimit:4;" d="M 52.319079 6.615059 L 47.256125 5.732031 L 64.870123 0.619082 L 79.494102 2.909063 L 62.759755 8.54877 L 55.454855 7.42502 C 59.639859 6.415117 60.60118 5.086895 60.60118 5.086895 C 58.849251 4.242949 53.35583 6.268984 53.35583 6.268984 L 53.33598 6.309199 L 48.253176 7.854922 L 48.253176 10.652969 L 54.883167 8.398105 L 54.956897 8.373184 C 54.956897 8.373184 55.264859 7.665176 55.264859 7.42502 " transform="matrix(6.8875,0,0,6.896552,0,0)"/>
<path style=" stroke:none;fill-rule:nonzero;fill:rgb(1.176471%,41.176471%,59.607843%);fill-opacity:1;" d="M 378.109375 51.074219 C 378.476562 51.109375 378.847656 50.710938 378.949219 50.136719 C 379.046875 49.558594 378.847656 49.0625 378.476562 48.984375 C 378.109375 48.917969 377.738281 49.367188 377.632812 49.898438 C 377.539062 50.476562 377.773438 51.007812 378.109375 51.074219 "/>
<path style="fill:none;stroke-width:0.5;stroke-linecap:butt;stroke-linejoin:miter;stroke:rgb(100%,100%,100%);stroke-opacity:1;stroke-miterlimit:4;" d="M 54.897913 7.406895 C 54.951225 7.411992 55.005104 7.353086 55.01985 7.269258 C 55.034029 7.185996 55.005104 7.11293 54.951225 7.103867 C 54.897913 7.094238 54.844034 7.158242 54.828721 7.235273 C 54.815109 7.317969 54.849138 7.396133 54.897913 7.406895 Z M 54.897913 7.406895 " transform="matrix(6.8875,0,0,6.896552,0,0)"/>
<path style=" stroke:none;fill-rule:nonzero;fill:rgb(1.176471%,41.176471%,59.607843%);fill-opacity:1;" d="M 222.535156 6.964844 L 222.535156 150.316406 C 222.535156 163.585938 247.117188 174.367188 277.421875 174.367188 C 307.753906 174.367188 332.335938 163.585938 332.335938 150.316406 L 332.335938 5.75 "/>
<path style="fill:none;stroke-width:0.5;stroke-linecap:butt;stroke-linejoin:miter;stroke:rgb(100%,100%,100%);stroke-opacity:1;stroke-miterlimit:4;" d="M 32.310005 1.009902 L 32.310005 21.797012 C 32.310005 23.721094 35.879083 25.283242 40.279038 25.283242 C 44.682963 25.283242 48.252042 23.721094 48.252042 21.797012 L 48.252042 0.83375 " transform="matrix(6.8875,0,0,6.896552,0,0)"/>
<path style=" stroke:none;fill-rule:nonzero;fill:rgb(1.176471%,41.176471%,59.607843%);fill-opacity:1;" d="M 228.824219 120.308594 L 228.824219 133.378906 L 108.085938 176.179688 L 1.929688 151.558594 L 1.722656 136.101562 "/>
<path style="fill:none;stroke-width:0.5;stroke-linecap:butt;stroke-linejoin:miter;stroke:rgb(100%,100%,100%);stroke-opacity:1;stroke-miterlimit:4;" d="M 33.223117 17.444746 L 33.223117 19.339941 L 15.693058 25.547188 L 0.280172 21.977129 L 0.250113 19.734727 " transform="matrix(6.8875,0,0,6.896552,0,0)"/>
<path style=" stroke:none;fill-rule:nonzero;fill:rgb(1.176471%,41.176471%,59.607843%);fill-opacity:1;" d="M 189.972656 114.828125 L 228.816406 120.308594 L 108.09375 160.386719 L 1.921875 135.800781 L 128.4375 100.277344 L 157.488281 105.21875 "/>
<path style="fill:none;stroke-width:0.5;stroke-linecap:butt;stroke-linejoin:miter;stroke:rgb(100%,100%,100%);stroke-opacity:1;stroke-miterlimit:4;" d="M 27.582237 16.650078 L 33.221983 17.444746 L 15.694192 23.254941 L 0.279038 19.692246 L 18.647913 14.540215 L 22.865812 15.257852 " transform="matrix(6.8875,0,0,6.896552,0,0)"/>
<path style=" stroke:none;fill-rule:nonzero;fill:rgb(1.176471%,41.176471%,59.607843%);fill-opacity:1;" d="M 156.890625 104.957031 C 130.179688 111.628906 120.460938 124.992188 120.460938 124.992188 C 160.753906 126.207031 189.578125 114.585938 189.578125 114.585938 "/>
<path style="fill:none;stroke-width:0.5;stroke-linecap:butt;stroke-linejoin:miter;stroke:rgb(100%,100%,100%);stroke-opacity:1;stroke-miterlimit:4;" d="M 22.779038 15.219902 C 18.900862 16.186191 17.489791 18.123867 17.489791 18.123867 C 23.33995 18.30002 27.524955 16.614961 27.524955 16.614961 " transform="matrix(6.8875,0,0,6.896552,0,0)"/>
<path style=" stroke:none;fill-rule:nonzero;fill:rgb(1.176471%,41.176471%,59.607843%);fill-opacity:1;" d="M 154.769531 105.628906 L 243.582031 79.710938 C 256.324219 80.308594 254.6875 90.648438 254.6875 90.648438 C 255.285156 97.34375 245.167969 100.242188 245.167969 100.242188 L 187.148438 115.367188 "/>
<path style="fill:none;stroke-width:0.5;stroke-linecap:butt;stroke-linejoin:miter;stroke:rgb(100%,100%,100%);stroke-opacity:1;stroke-miterlimit:4;" d="M 22.471075 15.316758 L 35.365812 11.556953 C 37.215858 11.64418 36.978221 13.144023 36.978221 13.144023 C 37.064995 14.114844 35.596075 14.53625 35.596075 14.53625 L 27.172187 16.728242 " transform="matrix(6.8875,0,0,6.896552,0,0)"/>
<path style=" stroke:none;fill-rule:nonzero;fill:rgb(1.176471%,41.176471%,59.607843%);fill-opacity:1;" d="M 185.777344 115.46875 C 186.511719 115.46875 187.085938 115.191406 187.085938 114.828125 C 187.085938 114.457031 186.511719 114.160156 185.777344 114.160156 C 185.03125 114.160156 184.425781 114.457031 184.425781 114.828125 C 184.425781 115.199219 185.03125 115.46875 185.777344 115.46875 "/>
<path style="fill:none;stroke-width:0.5;stroke-linecap:butt;stroke-linejoin:miter;stroke:rgb(100%,100%,100%);stroke-opacity:1;stroke-miterlimit:4;" d="M 26.973117 16.742969 C 27.079741 16.742969 27.163113 16.702754 27.163113 16.648945 C 27.163113 16.59627 27.079741 16.55209 26.973117 16.55209 C 26.864791 16.55209 26.776883 16.59627 26.776883 16.648945 C 26.776883 16.702754 26.864791 16.742969 26.973117 16.742969 Z M 26.973117 16.742969 " transform="matrix(6.8875,0,0,6.896552,0,0)"/>
</g>
</svg>
