<?xml version="1.0" encoding="UTF-8"?>
<svg xmlns="http://www.w3.org/2000/svg" xmlns:xlink="http://www.w3.org/1999/xlink" width="266pt" height="200pt" viewBox="0 0 266 200" version="1.1">
<g id="surface1">
<path style=" stroke:none;fill-rule:nonzero;fill:rgb(100%,100%,100%);fill-opacity:1;" d="M 130.425781 98.15625 C 201.835938 98.15625 259.722656 87.171875 259.722656 73.613281 C 259.722656 60.050781 201.835938 49.066406 130.425781 49.066406 C 59.007812 49.066406 1.105469 60.050781 1.105469 73.613281 C 1.105469 87.167969 59.007812 98.15625 130.425781 98.15625 "/>
<path style="fill:none;stroke-width:0.1875;stroke-linecap:butt;stroke-linejoin:miter;stroke:rgb(0%,0%,0%);stroke-opacity:1;stroke-miterlimit:4;" d="M 29.419349 22.085156 C 45.526903 22.085156 58.584058 19.613672 58.584058 16.562988 C 58.584058 13.511426 45.526903 11.039941 29.419349 11.039941 C 13.310033 11.039941 0.249354 13.511426 0.249354 16.562988 C 0.249354 19.612793 13.310033 22.085156 29.419349 22.085156 Z M 29.419349 22.085156 " transform="matrix(4.433333,0,0,4.444444,0,0)"/>
<path style=" stroke:none;fill-rule:nonzero;fill:rgb(1.176471%,41.176471%,59.607843%);fill-opacity:1;" d="M 131.117188 141.214844 C 202.53125 141.214844 259.722656 87.167969 259.722656 73.613281 C 259.722656 60.050781 201.835938 49.066406 130.425781 49.066406 C 59.007812 49.066406 1.105469 60.050781 1.105469 73.613281 C 1.105469 87.167969 59.699219 141.214844 131.117188 141.214844 "/>
<path style=" stroke:none;fill-rule:nonzero;fill:rgb(100%,100%,100%);fill-opacity:1;" d="M 130.425781 98.15625 C 201.835938 98.15625 259.722656 87.171875 259.722656 73.613281 C 259.722656 60.050781 201.835938 49.066406 130.425781 49.066406 C 59.007812 49.066406 1.105469 60.050781 1.105469 73.613281 C 1.105469 87.167969 59.007812 98.15625 130.425781 98.15625 "/>
<path style="fill:none;stroke-width:0.5;stroke-linecap:butt;stroke-linejoin:miter;stroke:rgb(1.176471%,41.176471%,59.607843%);stroke-opacity:1;stroke-miterlimit:4;" d="M 29.419349 22.085156 C 45.526903 22.085156 58.584058 19.613672 58.584058 16.562988 C 58.584058 13.511426 45.526903 11.039941 29.419349 11.039941 C 13.310033 11.039941 0.249354 13.511426 0.249354 16.562988 C 0.249354 19.612793 13.310033 22.085156 29.419349 22.085156 Z M 29.419349 22.085156 " transform="matrix(4.433333,0,0,4.444444,0,0)"/>
<path style="fill:none;stroke-width:0.46875;stroke-linecap:butt;stroke-linejoin:miter;stroke:rgb(1.176471%,41.176471%,59.607843%);stroke-opacity:1;stroke-miterlimit:4;" d="M 21.835644 12.425977 C 17.231849 12.706348 13.149671 13.243359 9.955651 13.956152 M 22.143151 13.579102 C 17.681215 13.906055 13.769972 14.502832 10.814732 15.28418 M 22.461231 14.819238 C 18.09093 15.199805 14.325952 15.868652 11.605968 16.729102 M 23.091224 16.265039 C 18.824013 16.679883 15.19032 17.397949 12.65625 18.319922 M 23.398731 17.612402 C 19.350035 18.075586 15.962171 18.856934 13.710938 19.834277 M 23.945019 19.204102 C 20.736901 19.644434 18.013393 20.302734 16.050282 21.113965 M 24.136219 20.68418 C 22.938792 20.895117 21.753701 21.170215 20.586231 21.508594 " transform="matrix(4.433333,0,0,4.444444,0,0)"/>
<path style="fill:none;stroke-width:0.5;stroke-linecap:butt;stroke-linejoin:miter;stroke:rgb(1.176471%,41.176471%,59.607843%);stroke-opacity:1;stroke-miterlimit:4;" d="M 0.170935 17.090332 L 29.575305 2.344043 L 58.584058 16.562988 " transform="matrix(4.433333,0,0,4.444444,0,0)"/>
<path style=" stroke:none;fill-rule:nonzero;fill:rgb(1.176471%,41.176471%,59.607843%);fill-opacity:1;" d="M 131.8125 26.996094 C 136.679688 26.996094 140.621094 25.023438 140.621094 22.570312 C 140.621094 20.117188 136.679688 18.140625 131.808594 18.140625 C 126.933594 18.140625 122.976562 20.117188 122.976562 22.570312 C 122.976562 25.023438 126.933594 26.996094 131.808594 26.996094 "/>
<path style=" stroke:none;fill-rule:nonzero;fill:rgb(1.176471%,41.176471%,59.607843%);fill-opacity:1;" d="M 131.8125 1.390625 L 129.042969 92.359375 L 135.273438 92.359375 L 131.804688 1.390625 M 103.40625 156.945312 L 165.753906 156.945312 L 165.753906 142.355469 L 103.40625 142.355469 Z M 103.40625 156.945312 "/>
<path style=" stroke:none;fill-rule:nonzero;fill:rgb(1.176471%,41.176471%,59.607843%);fill-opacity:1;" d="M 115.1875 155.554688 L 154.671875 155.554688 L 154.671875 181.945312 C 154.671875 181.945312 114.492188 194.445312 115.183594 194.445312 C 115.878906 194.445312 115.183594 155.554688 115.183594 155.554688 "/>
</g>
</svg>
