<?xml version="1.0" encoding="UTF-8"?>
<svg xmlns="http://www.w3.org/2000/svg" xmlns:xlink="http://www.w3.org/1999/xlink" width="372pt" height="200pt" viewBox="0 0 372 200" version="1.1">
<g id="surface1">
<path style=" stroke:none;fill-rule:nonzero;fill:rgb(0.784314%,42.352941%,60.784314%);fill-opacity:1;" d="M 323.621094 93.226562 L 366.421875 5.40625 L 70.101562 5.40625 L 3.457031 93.226562 L 323.621094 93.226562 "/>
<path style="fill:none;stroke-width:0.5;stroke-linecap:butt;stroke-linejoin:miter;stroke:rgb(100%,100%,100%);stroke-opacity:1;stroke-miterlimit:4;" d="M 46.977256 13.517852 L 53.190272 0.782773 L 10.176033 0.782773 L 0.501827 13.517852 Z M 46.977256 13.517852 " transform="matrix(6.888889,0,0,6.896552,0,0)"/>
<path style=" stroke:none;fill-rule:nonzero;fill:rgb(0.784314%,42.352941%,60.784314%);fill-opacity:1;" d="M 366.414062 85.109375 L 366.414062 5.40625 L 323.621094 93.226562 L 323.621094 187.917969 L 366.421875 85.101562 "/>
<path style="fill:none;stroke-width:0.5;stroke-linecap:butt;stroke-linejoin:miter;stroke:rgb(100%,100%,100%);stroke-opacity:1;stroke-miterlimit:4;" d="M 53.189138 12.339727 L 53.189138 0.782773 L 46.977256 13.517852 L 46.977256 27.248105 L 53.190272 12.339727 Z M 53.189138 12.339727 " transform="matrix(6.888889,0,0,6.896552,0,0)"/>
<path style=" stroke:none;fill-rule:nonzero;fill:rgb(0.784314%,42.352941%,60.784314%);fill-opacity:1;" d="M 323.621094 187.917969 L 323.621094 93.226562 L 3.429688 93.226562 L 3.539062 187.917969 L 323.625 187.917969 "/>
<path style="fill:none;stroke-width:0.5;stroke-linecap:butt;stroke-linejoin:miter;stroke:rgb(100%,100%,100%);stroke-opacity:1;stroke-miterlimit:4;" d="M 46.977256 27.248105 L 46.977256 13.517852 L 0.497858 13.517852 L 0.513735 27.248105 L 46.977823 27.248105 Z M 46.977256 27.248105 " transform="matrix(6.888889,0,0,6.896552,0,0)"/>
<path style=" stroke:none;fill-rule:nonzero;fill:rgb(0.784314%,42.352941%,60.784314%);fill-opacity:1;" d="M 37.199219 173.304688 L 56.570312 173.304688 L 56.570312 153.902344 L 37.199219 153.902344 Z M 37.199219 173.304688 "/>
<path style="fill:none;stroke-width:0.5;stroke-linecap:butt;stroke-linejoin:miter;stroke:rgb(100%,100%,100%);stroke-opacity:1;stroke-miterlimit:4;" d="M 5.399887 25.129746 L 8.21182 25.129746 L 8.21182 22.316973 L 5.399887 22.316973 Z M 5.399887 25.129746 " transform="matrix(6.888889,0,0,6.896552,0,0)"/>
<path style=" stroke:none;fill-rule:nonzero;fill:rgb(0.784314%,42.352941%,60.784314%);fill-opacity:1;" d="M 65.183594 173.304688 L 84.5625 173.304688 L 84.5625 153.902344 L 65.183594 153.902344 Z M 65.183594 173.304688 "/>
<path style="fill:none;stroke-width:0.5;stroke-linecap:butt;stroke-linejoin:miter;stroke:rgb(100%,100%,100%);stroke-opacity:1;stroke-miterlimit:4;" d="M 9.462135 25.129746 L 12.275202 25.129746 L 12.275202 22.316973 L 9.462135 22.316973 Z M 9.462135 25.129746 " transform="matrix(6.888889,0,0,6.896552,0,0)"/>
<path style=" stroke:none;fill-rule:nonzero;fill:rgb(0.784314%,42.352941%,60.784314%);fill-opacity:1;" d="M 93.171875 173.304688 L 112.542969 173.304688 L 112.542969 153.902344 L 93.171875 153.902344 Z M 93.171875 173.304688 "/>
<path style="fill:none;stroke-width:0.5;stroke-linecap:butt;stroke-linejoin:miter;stroke:rgb(100%,100%,100%);stroke-opacity:1;stroke-miterlimit:4;" d="M 13.52495 25.129746 L 16.336883 25.129746 L 16.336883 22.316973 L 13.52495 22.316973 Z M 13.52495 25.129746 " transform="matrix(6.888889,0,0,6.896552,0,0)"/>
<path style=" stroke:none;fill-rule:nonzero;fill:rgb(0.784314%,42.352941%,60.784314%);fill-opacity:1;" d="M 121.15625 173.304688 L 140.535156 173.304688 L 140.535156 153.902344 L 121.15625 153.902344 Z M 121.15625 173.304688 "/>
<path style="fill:none;stroke-width:0.5;stroke-linecap:butt;stroke-linejoin:miter;stroke:rgb(100%,100%,100%);stroke-opacity:1;stroke-miterlimit:4;" d="M 17.587198 25.129746 L 20.400265 25.129746 L 20.400265 22.316973 L 17.587198 22.316973 Z M 17.587198 25.129746 " transform="matrix(6.888889,0,0,6.896552,0,0)"/>
<path style=" stroke:none;fill-rule:nonzero;fill:rgb(0.784314%,42.352941%,60.784314%);fill-opacity:1;" d="M 149.144531 173.304688 L 168.515625 173.304688 L 168.515625 153.902344 L 149.144531 153.902344 Z M 149.144531 173.304688 "/>
<path style="fill:none;stroke-width:0.5;stroke-linecap:butt;stroke-linejoin:miter;stroke:rgb(100%,100%,100%);stroke-opacity:1;stroke-miterlimit:4;" d="M 21.650013 25.129746 L 24.461946 25.129746 L 24.461946 22.316973 L 21.650013 22.316973 Z M 21.650013 25.129746 " transform="matrix(6.888889,0,0,6.896552,0,0)"/>
<path style=" stroke:none;fill-rule:nonzero;fill:rgb(0.784314%,42.352941%,60.784314%);fill-opacity:1;" d="M 177.128906 173.304688 L 196.503906 173.304688 L 196.503906 153.902344 L 177.128906 153.902344 Z M 177.128906 173.304688 "/>
<path style="fill:none;stroke-width:0.5;stroke-linecap:butt;stroke-linejoin:miter;stroke:rgb(100%,100%,100%);stroke-opacity:1;stroke-miterlimit:4;" d="M 25.712261 25.129746 L 28.524761 25.129746 L 28.524761 22.316973 L 25.712261 22.316973 Z M 25.712261 25.129746 " transform="matrix(6.888889,0,0,6.896552,0,0)"/>
<path style=" stroke:none;fill-rule:nonzero;fill:rgb(0.784314%,42.352941%,60.784314%);fill-opacity:1;" d="M 205.117188 173.304688 L 224.488281 173.304688 L 224.488281 153.902344 L 205.117188 153.902344 Z M 205.117188 173.304688 "/>
<path style="fill:none;stroke-width:0.5;stroke-linecap:butt;stroke-linejoin:miter;stroke:rgb(100%,100%,100%);stroke-opacity:1;stroke-miterlimit:4;" d="M 29.775076 25.129746 L 32.587009 25.129746 L 32.587009 22.316973 L 29.775076 22.316973 Z M 29.775076 25.129746 " transform="matrix(6.888889,0,0,6.896552,0,0)"/>
<path style=" stroke:none;fill-rule:nonzero;fill:rgb(0.784314%,42.352941%,60.784314%);fill-opacity:1;" d="M 233.097656 173.304688 L 252.476562 173.304688 L 252.476562 153.902344 L 233.097656 153.902344 Z M 233.097656 173.304688 "/>
<path style="fill:none;stroke-width:0.5;stroke-linecap:butt;stroke-linejoin:miter;stroke:rgb(100%,100%,100%);stroke-opacity:1;stroke-miterlimit:4;" d="M 33.836757 25.129746 L 36.649824 25.129746 L 36.649824 22.316973 L 33.836757 22.316973 Z M 33.836757 25.129746 " transform="matrix(6.888889,0,0,6.896552,0,0)"/>
<path style=" stroke:none;fill-rule:nonzero;fill:rgb(0.784314%,42.352941%,60.784314%);fill-opacity:1;" d="M 261.089844 173.304688 L 280.460938 173.304688 L 280.460938 153.902344 L 261.089844 153.902344 Z M 261.089844 173.304688 "/>
<path style="fill:none;stroke-width:0.5;stroke-linecap:butt;stroke-linejoin:miter;stroke:rgb(100%,100%,100%);stroke-opacity:1;stroke-miterlimit:4;" d="M 37.900139 25.129746 L 40.712072 25.129746 L 40.712072 22.316973 L 37.900139 22.316973 Z M 37.900139 25.129746 " transform="matrix(6.888889,0,0,6.896552,0,0)"/>
<path style=" stroke:none;fill-rule:nonzero;fill:rgb(100%,100%,100%);fill-opacity:1;" d="M 272.394531 45.371094 L 282.417969 33.421875 L 303.773438 46.992188 L 261.191406 58.882812 L 270.003906 49.25 L 185 49.25 L 187.996094 45.371094 L 272.394531 45.371094 "/>
<path style=" stroke:none;fill-rule:nonzero;fill:rgb(100%,100%,100%);fill-opacity:1;" d="M 193.074219 45.308594 L 190.621094 49.25 L 106.226562 49.25 L 97.269531 57.898438 L 74.398438 46.925781 L 120.375 32.441406 L 108.707031 45.308594 L 193.066406 45.308594 "/>
</g>
</svg>
