<?xml version="1.0" encoding="UTF-8"?>
<svg xmlns="http://www.w3.org/2000/svg" xmlns:xlink="http://www.w3.org/1999/xlink" width="205pt" height="200pt" viewBox="0 0 205 200" version="1.1">
<defs>
<clipPath id="clip1">
  <path d="M 0 134 L 205 134 L 205 192.570312 L 0 192.570312 Z M 0 134 "/>
</clipPath>
</defs>
<g id="surface1">
<path style="fill-rule:nonzero;fill:rgb(1.176471%,41.176471%,59.607843%);fill-opacity:1;stroke-width:4;stroke-linecap:butt;stroke-linejoin:miter;stroke:rgb(100%,100%,100%);stroke-opacity:1;stroke-miterlimit:4;" d="M 46.678002 43.481821 L 256.248827 43.481821 L 256.248827 82.704327 L 46.678002 82.704327 Z M 46.678002 43.481821 " transform="matrix(0.740278,0,0,-0.742857,0,200)"/>
<path style=" stroke:none;fill-rule:nonzero;fill:rgb(1.176471%,41.176471%,59.607843%);fill-opacity:1;" d="M 215.953125 112.011719 L 215.953125 141.4375 L 189.695312 167.988281 L 189.695312 138.5625 L 34.4375 138.5625 "/>
<path style="fill:none;stroke-width:4;stroke-linecap:butt;stroke-linejoin:miter;stroke:rgb(100%,100%,100%);stroke-opacity:1;stroke-miterlimit:4;" d="M 291.719043 118.445763 L 291.719043 78.834135 L 256.248827 43.092698 L 256.248827 82.704327 L 46.5197 82.704327 M 48.160765 118.445763 L 291.719043 118.445763 " transform="matrix(0.740278,0,0,-0.742857,0,200)"/>
<path style="fill-rule:nonzero;fill:rgb(1.176471%,41.176471%,59.607843%);fill-opacity:1;stroke-width:4;stroke-linecap:butt;stroke-linejoin:miter;stroke:rgb(100%,100%,100%);stroke-opacity:1;stroke-miterlimit:4;" d="M 256.248827 82.704327 L 291.719043 118.445763 " transform="matrix(0.740278,0,0,-0.742857,0,200)"/>
<path style="fill-rule:nonzero;fill:rgb(1.176471%,41.176471%,59.607843%);fill-opacity:1;stroke-width:4;stroke-linecap:butt;stroke-linejoin:miter;stroke:rgb(100%,100%,100%);stroke-opacity:1;stroke-miterlimit:4;" d="M 46.5197 83.482572 L 255.96916 83.482572 L 255.96916 241.413762 L 46.5197 241.413762 Z M 46.5197 83.482572 " transform="matrix(0.740278,0,0,-0.742857,0,200)"/>
<path style=" stroke:none;fill-rule:nonzero;fill:rgb(1.176471%,41.176471%,59.607843%);fill-opacity:1;" d="M 189.496094 137.984375 L 215.953125 111.433594 L 215.953125 -5.882812 L 60.902344 -5.882812 L 34.4375 20.664062 L 189.496094 20.664062 L 189.496094 137.984375 "/>
<path style="fill:none;stroke-width:4;stroke-linecap:butt;stroke-linejoin:miter;stroke:rgb(100%,100%,100%);stroke-opacity:1;stroke-miterlimit:4;" d="M 255.979714 83.482572 L 291.719043 119.224008 L 291.719043 277.14994 L 82.269583 277.14994 L 46.5197 241.413762 L 255.979714 241.413762 Z M 255.979714 83.482572 " transform="matrix(0.740278,0,0,-0.742857,0,200)"/>
<path style="fill-rule:nonzero;fill:rgb(1.176471%,41.176471%,59.607843%);fill-opacity:1;stroke-width:4;stroke-linecap:butt;stroke-linejoin:miter;stroke:rgb(100%,100%,100%);stroke-opacity:1;stroke-miterlimit:4;" d="M 64.798311 101.760817 L 237.690549 101.760817 L 237.690549 223.135517 L 64.798311 223.135517 Z M 64.798311 101.760817 " transform="matrix(0.740278,0,0,-0.742857,0,200)"/>
<path style="fill-rule:nonzero;fill:rgb(1.176471%,41.176471%,59.607843%);fill-opacity:1;stroke-width:4;stroke-linecap:butt;stroke-linejoin:miter;stroke:rgb(100%,100%,100%);stroke-opacity:1;stroke-miterlimit:4;" d="M 255.979714 241.413762 L 291.719043 277.14994 " transform="matrix(0.740278,0,0,-0.742857,0,200)"/>
<path style=" stroke:none;fill-rule:nonzero;fill:rgb(1.176471%,41.176471%,59.607843%);fill-opacity:1;" d="M 182.03125 188.996094 L 182.03125 171.730469 L 3.582031 171.730469 L 23.890625 151.363281 L 202.332031 151.363281 L 202.332031 168.597656 L 182.03125 188.996094 "/>
<g clip-path="url(#clip1)" clip-rule="nonzero">
<path style="fill:none;stroke-width:4;stroke-linecap:butt;stroke-linejoin:miter;stroke:rgb(100%,100%,100%);stroke-opacity:1;stroke-miterlimit:4;" d="M 245.895872 14.812951 L 245.895872 38.055138 L 4.838766 38.055138 L 32.272514 65.472506 L 273.319067 65.472506 L 273.319067 42.272386 Z M 245.895872 14.812951 " transform="matrix(0.740278,0,0,-0.742857,0,200)"/>
</g>
<path style="fill-rule:nonzero;fill:rgb(1.176471%,41.176471%,59.607843%);fill-opacity:1;stroke-width:4;stroke-linecap:butt;stroke-linejoin:miter;stroke:rgb(100%,100%,100%);stroke-opacity:1;stroke-miterlimit:4;" d="M 4.838766 14.812951 L 245.890596 14.812951 L 245.890596 38.055138 L 4.838766 38.055138 Z M 4.838766 14.812951 " transform="matrix(0.740278,0,0,-0.742857,0,200)"/>
<path style="fill-rule:nonzero;fill:rgb(1.176471%,41.176471%,59.607843%);fill-opacity:1;stroke-width:4;stroke-linecap:butt;stroke-linejoin:miter;stroke:rgb(100%,100%,100%);stroke-opacity:1;stroke-miterlimit:4;" d="M 245.895872 38.055138 L 273.319067 65.472506 " transform="matrix(0.740278,0,0,-0.742857,0,200)"/>
<path style=" stroke:none;fill-rule:nonzero;fill:rgb(1.176471%,41.176471%,59.607843%);fill-opacity:1;" d="M 107.398438 61.34375 C 107.398438 61.34375 121.390625 53.136719 131.835938 55.691406 L 134.003906 62.539062 L 140.535156 74.609375 L 168.152344 59.515625 L 161.101562 46.515625 L 151.699219 42.832031 C 151.699219 42.832031 127.378906 41.234375 101.152344 54.351562 L 96.960938 56.621094 C 71.769531 71.617188 59.886719 92.972656 59.886719 92.972656 L 57.859375 102.898438 L 64.921875 115.898438 L 92.535156 100.839844 L 86 88.769531 L 81.429688 83.226562 C 84.984375 73.011719 99.421875 65.695312 99.421875 65.695312 L 107.398438 61.34375 "/>
<path style="fill:none;stroke-width:4;stroke-linecap:butt;stroke-linejoin:miter;stroke:rgb(100%,100%,100%);stroke-opacity:1;stroke-miterlimit:4;" d="M 145.078565 186.652644 C 145.078565 186.652644 163.979831 197.700571 178.089822 194.261569 L 181.01841 185.04357 L 189.841112 168.795072 L 227.147631 189.113582 L 217.623124 206.613582 L 204.922022 211.572266 C 204.922022 211.572266 172.069067 213.722957 136.641065 196.065204 L 130.979128 193.010066 C 96.949461 172.823017 80.897631 144.07527 80.897631 144.07527 L 78.159006 130.713642 L 87.699343 113.213642 L 125.000586 133.484826 L 116.172608 149.733323 L 109.998827 157.195012 C 114.800657 170.945763 134.303471 180.794772 134.303471 180.794772 Z M 145.078565 186.652644 " transform="matrix(0.740278,0,0,-0.742857,0,200)"/>
<path style="fill-rule:nonzero;fill:rgb(1.176471%,41.176471%,59.607843%);fill-opacity:1;stroke-width:4;stroke-linecap:butt;stroke-linejoin:miter;stroke:rgb(100%,100%,100%);stroke-opacity:1;stroke-miterlimit:4;" d="M 116.800539 150.364333 L 77.2303 128.83113 " transform="matrix(0.740278,0,0,-0.742857,0,200)"/>
<path style="fill-rule:nonzero;fill:rgb(1.176471%,41.176471%,59.607843%);fill-opacity:1;stroke-width:4;stroke-linecap:butt;stroke-linejoin:miter;stroke:rgb(100%,100%,100%);stroke-opacity:1;stroke-miterlimit:4;" d="M 218.240502 205.59345 L 178.712477 184.076022 " transform="matrix(0.740278,0,0,-0.742857,0,200)"/>
</g>
</svg>
