<?xml version="1.0" encoding="UTF-8"?>
<svg xmlns="http://www.w3.org/2000/svg" xmlns:xlink="http://www.w3.org/1999/xlink" width="363pt" height="200pt" viewBox="0 0 363 200" version="1.1">
<g id="surface1">
<path style="fill:none;stroke-width:0.5;stroke-linecap:round;stroke-linejoin:round;stroke:rgb(16.862745%,40%,61.960784%);stroke-opacity:1;stroke-miterlimit:1;" d="M 55.199725 34.458359 C 55.32197 36.405703 54.438705 38.573906 52.65582 40.190391 C 50.785985 41.890234 48.403926 42.553672 46.410985 42.123984 " transform="matrix(4.5375,0,0,4.545455,0,0)"/>
<path style="fill:none;stroke-width:0.5;stroke-linecap:round;stroke-linejoin:round;stroke:rgb(16.862745%,40%,61.960784%);stroke-opacity:1;stroke-miterlimit:1;" d="M 54.364669 34.174766 C 54.481749 35.986328 53.657886 38.002422 52.00241 39.506328 C 50.264291 41.089297 48.042355 41.70375 46.192321 41.304141 " transform="matrix(4.5375,0,0,4.545455,0,0)"/>
<path style="fill:none;stroke-width:0.5;stroke-linecap:round;stroke-linejoin:round;stroke:rgb(16.862745%,40%,61.960784%);stroke-opacity:1;stroke-miterlimit:1;" d="M 53.529614 33.891172 C 53.638085 35.566094 52.876205 37.430937 51.342114 38.823984 C 49.735709 40.288359 47.68509 40.858125 45.971935 40.488594 " transform="matrix(4.5375,0,0,4.545455,0,0)"/>
<path style="fill:none;stroke-width:0.5;stroke-linecap:round;stroke-linejoin:round;stroke:rgb(16.862745%,40%,61.960784%);stroke-opacity:1;stroke-miterlimit:1;" d="M 52.699725 33.607578 C 52.791839 35.145859 52.095386 36.864609 50.688705 38.139922 C 49.20885 39.487422 47.32438 40.009922 45.748106 39.667031 " transform="matrix(4.5375,0,0,4.545455,0,0)"/>
<path style="fill:none;stroke-width:0.5;stroke-linecap:round;stroke-linejoin:round;stroke:rgb(16.862745%,40%,61.960784%);stroke-opacity:1;stroke-miterlimit:1;" d="M 51.864669 33.324844 C 51.95334 34.725625 51.313705 36.293125 50.02927 37.455859 C 48.681129 38.685625 46.961949 39.16 45.52686 38.853203 " transform="matrix(4.5375,0,0,4.545455,0,0)"/>
<path style="fill:none;stroke-width:0.5;stroke-linecap:round;stroke-linejoin:round;stroke:rgb(16.862745%,40%,61.960784%);stroke-opacity:1;stroke-miterlimit:1;" d="M 51.029614 33.042109 C 51.108815 34.311406 50.532886 35.721641 49.375 36.776953 C 48.15427 37.88125 46.60124 38.315234 45.308196 38.031641 " transform="matrix(4.5375,0,0,4.545455,0,0)"/>
<path style="fill:none;stroke-width:0.5;stroke-linecap:round;stroke-linejoin:round;stroke:rgb(16.862745%,40%,61.960784%);stroke-opacity:1;stroke-miterlimit:1;" d="M 50.19542 32.759375 C 50.268595 33.891172 49.751205 35.151016 48.716426 36.09375 C 47.62741 37.080312 46.239669 37.466172 45.082645 37.216094 " transform="matrix(4.5375,0,0,4.545455,0,0)"/>
<path style="fill:none;stroke-width:0.5;stroke-linecap:round;stroke-linejoin:round;stroke:rgb(16.862745%,40%,61.960784%);stroke-opacity:1;stroke-miterlimit:1;" d="M 49.360365 32.474922 C 49.42407 33.470937 48.970386 34.580391 48.061295 35.409687 C 47.101412 36.279375 45.87896 36.621406 44.863981 36.39625 " transform="matrix(4.5375,0,0,4.545455,0,0)"/>
<path style=" stroke:none;fill-rule:nonzero;fill:rgb(16.862745%,40%,61.960784%);fill-opacity:1;" d="M 1.128906 115.078125 L 1.128906 107.53125 L 77.277344 79.566406 L 111.949219 85.554688 L 132.777344 89.601562 L 147.050781 92.574219 L 147.402344 102.164062 "/>
<path style="fill:none;stroke-width:0.5;stroke-linecap:butt;stroke-linejoin:miter;stroke:rgb(100%,100%,100%);stroke-opacity:1;stroke-miterlimit:4;" d="M 0.248795 25.317187 L 0.248795 23.656875 L 17.03082 17.504609 L 24.672004 18.82375 L 29.262225 19.712344 L 32.407886 20.366328 L 32.485365 22.476094 " transform="matrix(4.5375,0,0,4.545455,0,0)"/>
<path style=" stroke:none;fill-rule:nonzero;fill:rgb(16.862745%,40%,61.960784%);fill-opacity:1;" d="M 178.933594 4.4375 C 169.269531 4.4375 161.425781 7.882812 161.425781 12.117188 C 161.425781 16.359375 169.277344 19.796875 178.933594 19.796875 C 188.609375 19.796875 196.457031 16.359375 196.457031 12.117188 C 196.457031 7.882812 188.609375 4.4375 178.933594 4.4375 "/>
<path style="fill:none;stroke-width:0.5;stroke-linecap:butt;stroke-linejoin:miter;stroke:rgb(100%,100%,100%);stroke-opacity:1;stroke-miterlimit:4;" d="M 39.434401 0.97625 C 37.30458 0.97625 35.57593 1.733359 35.57593 2.665781 C 35.57593 3.599062 37.306302 4.355312 39.434401 4.355312 C 41.566804 4.355312 43.296315 3.599062 43.296315 2.665781 C 43.296315 1.733359 41.566804 0.97625 39.434401 0.97625 Z M 39.434401 0.97625 " transform="matrix(4.5375,0,0,4.545455,0,0)"/>
<path style=" stroke:none;fill-rule:nonzero;fill:rgb(16.862745%,40%,61.960784%);fill-opacity:1;" d="M 109.847656 94.683594 L 77.078125 89.445312 L 1.132812 115.082031 L 67.484375 125.492188 L 147.40625 102.160156 L 124.433594 98.253906 "/>
<path style="fill:none;stroke-width:0.5;stroke-linecap:butt;stroke-linejoin:miter;stroke:rgb(100%,100%,100%);stroke-opacity:1;stroke-miterlimit:4;" d="M 24.20885 20.830391 L 16.986915 19.677109 L 0.249656 25.317187 L 14.87259 27.607422 L 32.486226 22.475234 L 27.423382 21.615859 " transform="matrix(4.5375,0,0,4.545455,0,0)"/>
<path style=" stroke:none;fill-rule:nonzero;fill:rgb(16.862745%,40%,61.960784%);fill-opacity:1;" d="M 115.367188 93.332031 C 91.792969 99.339844 86.625 105.183594 86.625 105.183594 C 94.585938 109.019531 123.097656 98.675781 123.097656 98.675781 L 128.152344 96.945312 L 115.367188 93.332031 "/>
<path style="fill:none;stroke-width:0.5;stroke-linecap:butt;stroke-linejoin:miter;stroke:rgb(100%,100%,100%);stroke-opacity:1;stroke-miterlimit:4;" d="M 25.425275 20.532187 C 20.229855 21.854766 19.090909 23.140391 19.090909 23.140391 C 20.845386 23.982578 27.12896 21.707812 27.12896 21.707812 L 28.242941 21.327969 Z M 25.425275 20.532187 " transform="matrix(4.5375,0,0,4.545455,0,0)"/>
<path style=" stroke:none;fill-rule:nonzero;fill:rgb(16.862745%,40%,61.960784%);fill-opacity:1;" d="M 124.425781 98.253906 L 147.402344 102.273438 L 67.484375 125.488281 L 1.128906 115.078125 L 77.078125 89.441406 L 110.203125 94.550781 C 91.210938 99.164062 86.847656 105.1875 86.847656 105.1875 C 94.800781 109.019531 119.726562 99.804688 119.726562 99.804688 L 119.839844 99.65625 L 142.882812 92.59375 L 142.882812 79.871094 L 112.796875 90.132812 L 112.460938 90.269531 C 112.460938 90.269531 111.0625 93.460938 111.0625 94.550781 "/>
<path style="fill:none;stroke-width:0.5;stroke-linecap:butt;stroke-linejoin:miter;stroke:rgb(100%,100%,100%);stroke-opacity:1;stroke-miterlimit:4;" d="M 27.42166 21.615859 L 32.485365 22.500156 L 14.87259 27.607422 L 0.248795 25.317187 L 16.986915 19.677109 L 24.28719 20.801172 C 20.101584 21.816094 19.139979 23.140391 19.139979 23.140391 C 20.892734 23.982578 26.386019 21.957031 26.386019 21.957031 L 26.410985 21.924375 L 31.489325 20.370625 L 31.489325 17.574219 L 24.858815 19.829219 L 24.78478 19.859297 C 24.78478 19.859297 24.476584 20.561406 24.476584 20.801172 " transform="matrix(4.5375,0,0,4.545455,0,0)"/>
<path style=" stroke:none;fill-rule:nonzero;fill:rgb(16.862745%,40%,61.960784%);fill-opacity:1;" d="M 112.730469 94.660156 C 112.484375 94.613281 112.238281 94.882812 112.171875 95.261719 C 112.113281 95.636719 112.238281 95.972656 112.484375 96.011719 C 112.730469 96.058594 112.976562 95.785156 113.042969 95.414062 C 113.101562 95.035156 112.953125 94.703125 112.726562 94.660156 "/>
<path style="fill:none;stroke-width:0.5;stroke-linecap:butt;stroke-linejoin:miter;stroke:rgb(100%,100%,100%);stroke-opacity:1;stroke-miterlimit:4;" d="M 24.84418 20.825234 C 24.789945 20.814922 24.735709 20.874219 24.721074 20.957578 C 24.708161 21.040078 24.735709 21.113984 24.789945 21.122578 C 24.84418 21.132891 24.898416 21.072734 24.913051 20.991094 C 24.925964 20.908594 24.893251 20.834687 24.84332 20.825234 Z M 24.84418 20.825234 " transform="matrix(4.5375,0,0,4.545455,0,0)"/>
<path style=" stroke:none;fill-rule:nonzero;fill:rgb(16.862745%,40%,61.960784%);fill-opacity:1;" d="M 215.21875 123.710938 L 215.21875 29.226562 C 215.21875 20.480469 199.023438 13.382812 179.058594 13.382812 C 159.082031 13.382812 142.882812 20.480469 142.882812 29.226562 L 142.882812 124.535156 "/>
<path style="fill:none;stroke-width:0.5;stroke-linecap:butt;stroke-linejoin:miter;stroke:rgb(100%,100%,100%);stroke-opacity:1;stroke-miterlimit:4;" d="M 47.431129 27.216406 L 47.431129 6.429844 C 47.431129 4.505703 43.861915 2.944219 39.461949 2.944219 C 35.059401 2.944219 31.489325 4.505703 31.489325 6.429844 L 31.489325 27.396875 " transform="matrix(4.5375,0,0,4.545455,0,0)"/>
<path style="fill-rule:nonzero;fill:rgb(16.862745%,40%,61.960784%);fill-opacity:1;stroke-width:0.5;stroke-linecap:butt;stroke-linejoin:miter;stroke:rgb(100%,100%,100%);stroke-opacity:1;stroke-miterlimit:4;" d="M 46.518595 10.780859 L 46.518595 8.885937 L 64.047004 2.680391 L 79.461949 6.250234 L 79.49208 8.490625 " transform="matrix(4.5375,0,0,4.545455,0,0)"/>
<path style="fill-rule:nonzero;fill:rgb(16.862745%,40%,61.960784%);fill-opacity:1;stroke-width:0.5;stroke-linecap:butt;stroke-linejoin:miter;stroke:rgb(100%,100%,100%);stroke-opacity:1;stroke-miterlimit:4;" d="M 52.159091 11.582656 L 46.518595 10.780859 L 64.047004 4.970625 L 79.461949 8.535312 L 61.09418 13.690703 L 56.875 12.968828 " transform="matrix(4.5375,0,0,4.545455,0,0)"/>
<path style="fill-rule:nonzero;fill:rgb(16.862745%,40%,61.960784%);fill-opacity:1;stroke-width:0.5;stroke-linecap:butt;stroke-linejoin:miter;stroke:rgb(100%,100%,100%);stroke-opacity:1;stroke-miterlimit:4;" d="M 56.961949 13.006641 C 60.84022 12.040703 62.252066 10.101953 62.252066 10.101953 C 56.402376 9.931797 52.215909 11.611875 52.215909 11.611875 " transform="matrix(4.5375,0,0,4.545455,0,0)"/>
<path style=" stroke:none;fill-rule:nonzero;fill:rgb(16.862745%,40%,61.960784%);fill-opacity:1;" d="M 259.863281 58.683594 L 201.351562 75.773438 C 192.957031 75.371094 194.042969 68.554688 194.042969 68.554688 C 193.640625 64.164062 200.308594 62.253906 200.308594 62.253906 L 238.53125 52.289062 "/>
<path style="fill:none;stroke-width:0.5;stroke-linecap:butt;stroke-linejoin:miter;stroke:rgb(100%,100%,100%);stroke-opacity:1;stroke-miterlimit:4;" d="M 57.270145 12.910391 L 44.375 16.670156 C 42.524966 16.581641 42.764291 15.082031 42.764291 15.082031 C 42.67562 14.116094 44.145145 13.695859 44.145145 13.695859 L 52.568871 11.502734 " transform="matrix(4.5375,0,0,4.545455,0,0)"/>
<path style=" stroke:none;fill-rule:nonzero;fill:rgb(16.862745%,40%,61.960784%);fill-opacity:1;" d="M 239.4375 52.199219 C 238.949219 52.199219 238.574219 52.40625 238.574219 52.644531 C 238.574219 52.871094 238.949219 53.066406 239.433594 53.066406 C 239.929688 53.066406 240.324219 52.867188 240.324219 52.644531 C 240.324219 52.40625 239.929688 52.199219 239.4375 52.199219 "/>
<path style="fill:none;stroke-width:0.5;stroke-linecap:butt;stroke-linejoin:miter;stroke:rgb(100%,100%,100%);stroke-opacity:1;stroke-miterlimit:4;" d="M 52.768595 11.482969 C 52.660985 11.482969 52.57834 11.529375 52.57834 11.582656 C 52.57834 11.630781 52.660985 11.674609 52.767734 11.674609 C 52.877066 11.674609 52.964015 11.630781 52.964015 11.582656 C 52.964015 11.529375 52.877066 11.482969 52.768595 11.482969 Z M 52.768595 11.482969 " transform="matrix(4.5375,0,0,4.545455,0,0)"/>
<path style=" stroke:none;fill-rule:nonzero;fill:rgb(16.862745%,40%,61.960784%);fill-opacity:1;" d="M 138.164062 149.769531 C 138.164062 140.914062 156.617188 133.722656 179.371094 133.722656 C 202.105469 133.722656 220.5625 140.914062 220.5625 149.769531 L 220.5625 126.269531 C 220.5625 117.410156 202.105469 110.214844 179.371094 110.214844 C 156.617188 110.214844 138.164062 117.410156 138.164062 126.269531 L 138.164062 149.769531 "/>
<path style="fill:none;stroke-width:0.5;stroke-linecap:butt;stroke-linejoin:miter;stroke:rgb(100%,100%,100%);stroke-opacity:1;stroke-miterlimit:4;" d="M 30.44938 32.949297 C 30.44938 31.001094 34.516185 29.418984 39.53082 29.418984 C 44.54115 29.418984 48.608815 31.001094 48.608815 32.949297 L 48.608815 27.779297 C 48.608815 25.830234 44.54115 24.247266 39.53082 24.247266 C 34.516185 24.247266 30.44938 25.830234 30.44938 27.779297 Z M 30.44938 32.949297 " transform="matrix(4.5375,0,0,4.545455,0,0)"/>
<path style=" stroke:none;fill-rule:nonzero;fill:rgb(16.862745%,40%,61.960784%);fill-opacity:1;" d="M 179.371094 133.722656 C 156.617188 133.722656 138.164062 140.917969 138.164062 149.769531 C 138.164062 158.644531 156.617188 165.8125 179.371094 165.8125 C 202.105469 165.8125 220.5625 158.644531 220.5625 149.769531 C 220.5625 140.917969 202.105469 133.722656 179.371094 133.722656 "/>
<path style="fill:none;stroke-width:0.5;stroke-linecap:butt;stroke-linejoin:miter;stroke:rgb(100%,100%,100%);stroke-opacity:1;stroke-miterlimit:4;" d="M 39.53082 29.418984 C 34.516185 29.418984 30.44938 31.001094 30.44938 32.949297 C 30.44938 34.901797 34.516185 36.479609 39.53082 36.479609 C 44.54115 36.479609 48.608815 34.901797 48.608815 32.949297 C 48.608815 31.001094 44.54115 29.418984 39.53082 29.418984 Z M 39.53082 29.418984 " transform="matrix(4.5375,0,0,4.545455,0,0)"/>
<path style=" stroke:none;fill-rule:nonzero;fill:rgb(100%,100%,100%);fill-opacity:1;" d="M 188.765625 156.050781 L 185.378906 150.945312 L 198.226562 147.972656 L 195.410156 150.300781 L 215.285156 153.722656 L 210.304688 157.449219 L 191.136719 154.210938 L 188.765625 156.050781 M 170.691406 143.664062 L 172.992188 148.925781 L 161.402344 151.253906 L 163.417969 149.4375 L 144.074219 146.132812 L 148.710938 142.421875 L 167.9375 146.039062 L 170.691406 143.664062 M 177.027344 158.84375 L 164.015625 162.398438 L 163.867188 156.824219 L 167.121094 157.449219 L 173.460938 152.164062 L 179.527344 153.050781 L 172.96875 158.230469 L 177.027344 158.84375 M 182.585938 138.84375 L 194.949219 136.539062 L 195.410156 142.269531 L 191.871094 141.488281 L 185.066406 147.304688 L 179.019531 146.285156 L 186.285156 139.9375 L 182.585938 138.84375 "/>
</g>
</svg>
