<?xml version="1.0" encoding="UTF-8"?>
<svg xmlns="http://www.w3.org/2000/svg" xmlns:xlink="http://www.w3.org/1999/xlink" width="509pt" height="200pt" viewBox="0 0 509 200" version="1.1">
<g id="surface1">
<path style="fill-rule:nonzero;fill:rgb(1.176471%,41.176471%,59.607843%);fill-opacity:1;stroke-width:0.5;stroke-linecap:butt;stroke-linejoin:miter;stroke:rgb(100%,100%,100%);stroke-opacity:1;stroke-miterlimit:4;" d="M 2.309906 29.321035 L 76.163241 29.321035 L 76.163241 5.454063 L 2.309906 5.454063 Z M 2.309906 29.321035 " transform="matrix(6.443038,0,0,6.451613,0,0)"/>
<path style="fill-rule:nonzero;fill:rgb(1.176471%,41.176471%,59.607843%);fill-opacity:1;stroke-width:0.5;stroke-linecap:butt;stroke-linejoin:miter;stroke:rgb(100%,100%,100%);stroke-opacity:1;stroke-miterlimit:4;" d="M 2.359014 2.699785 L 76.240238 2.699785 L 76.240238 0.244004 L 2.360227 0.244004 L 2.360227 2.699785 Z M 2.359014 2.699785 " transform="matrix(6.443038,0,0,6.451613,0,0)"/>
<path style="fill-rule:nonzero;fill:rgb(1.176471%,41.176471%,59.607843%);fill-opacity:1;stroke-width:0.5;stroke-linecap:butt;stroke-linejoin:miter;stroke:rgb(100%,100%,100%);stroke-opacity:1;stroke-miterlimit:4;" d="M 4.979939 11.956797 L 7.109175 11.956797 L 7.109175 7.372793 L 4.979939 7.372793 Z M 4.979939 11.956797 " transform="matrix(6.443038,0,0,6.451613,0,0)"/>
<path style="fill-rule:nonzero;fill:rgb(1.176471%,41.176471%,59.607843%);fill-opacity:1;stroke-width:0.5;stroke-linecap:butt;stroke-linejoin:miter;stroke:rgb(100%,100%,100%);stroke-opacity:1;stroke-miterlimit:4;" d="M 4.979939 18.678105 L 7.109175 18.678105 L 7.109175 14.088047 L 4.979939 14.088047 Z M 4.979939 18.678105 " transform="matrix(6.443038,0,0,6.451613,0,0)"/>
<path style="fill-rule:nonzero;fill:rgb(1.176471%,41.176471%,59.607843%);fill-opacity:1;stroke-width:0.5;stroke-linecap:butt;stroke-linejoin:miter;stroke:rgb(100%,100%,100%);stroke-opacity:1;stroke-miterlimit:4;" d="M 4.979939 25.390937 L 7.109175 25.390937 L 7.109175 20.805723 L 4.979939 20.805723 Z M 4.979939 25.390937 " transform="matrix(6.443038,0,0,6.451613,0,0)"/>
<path style="fill-rule:nonzero;fill:rgb(1.176471%,41.176471%,59.607843%);fill-opacity:1;stroke-width:0.5;stroke-linecap:butt;stroke-linejoin:miter;stroke:rgb(100%,100%,100%);stroke-opacity:1;stroke-miterlimit:4;" d="M 31.055202 26.093887 L 39.379958 26.093887 L 39.379958 14.046875 L 31.055202 14.046875 Z M 31.055202 26.093887 " transform="matrix(6.443038,0,0,6.451613,0,0)"/>
<path style="fill-rule:nonzero;fill:rgb(1.176471%,41.176471%,59.607843%);fill-opacity:1;stroke-width:0.5;stroke-linecap:butt;stroke-linejoin:miter;stroke:rgb(100%,100%,100%);stroke-opacity:1;stroke-miterlimit:4;" d="M 39.379958 26.093887 L 47.71017 26.093887 L 47.71017 14.046875 L 39.379958 14.046875 Z M 39.379958 26.093887 " transform="matrix(6.443038,0,0,6.451613,0,0)"/>
<path style=" stroke:none;fill-rule:nonzero;fill:rgb(1.176471%,41.176471%,59.607843%);fill-opacity:1;" d="M 495.4375 17.417969 L 503.898438 35.414062 L 2.539062 35.414062 L 10.980469 17.417969 L 495.4375 17.417969 "/>
<path style="fill:none;stroke-width:0.5;stroke-linecap:butt;stroke-linejoin:miter;stroke:rgb(100%,100%,100%);stroke-opacity:1;stroke-miterlimit:4;" d="M 76.895015 2.699785 L 78.208205 5.48918 L 0.394078 5.48918 L 1.704238 2.699785 Z M 76.895015 2.699785 " transform="matrix(6.443038,0,0,6.451613,0,0)"/>
<path style="fill-rule:nonzero;fill:rgb(1.176471%,41.176471%,59.607843%);fill-opacity:1;stroke-width:0.5;stroke-linecap:butt;stroke-linejoin:miter;stroke:rgb(100%,100%,100%);stroke-opacity:1;stroke-miterlimit:4;" d="M 28.930816 27.36416 L 49.835162 27.36416 L 49.835162 25.43998 L 28.930209 25.43998 L 28.930209 27.36416 Z M 28.930816 27.36416 " transform="matrix(6.443038,0,0,6.451613,0,0)"/>
<path style="fill-rule:nonzero;fill:rgb(1.176471%,41.176471%,59.607843%);fill-opacity:1;stroke-width:0.5;stroke-linecap:butt;stroke-linejoin:miter;stroke:rgb(100%,100%,100%);stroke-opacity:1;stroke-miterlimit:4;" d="M 27.866198 29.321035 L 50.899781 29.321035 L 50.899781 27.36416 L 27.866198 27.36416 Z M 27.866198 29.321035 " transform="matrix(6.443038,0,0,6.451613,0,0)"/>
<path style="fill-rule:nonzero;fill:rgb(1.176471%,41.176471%,59.607843%);fill-opacity:1;stroke-width:0.5;stroke-linecap:butt;stroke-linejoin:miter;stroke:rgb(100%,100%,100%);stroke-opacity:1;stroke-miterlimit:4;" d="M 11.859943 11.956797 L 13.989179 11.956797 L 13.989179 7.372793 L 11.85873 7.372793 L 11.85873 11.956797 Z M 11.859943 11.956797 " transform="matrix(6.443038,0,0,6.451613,0,0)"/>
<path style="fill-rule:nonzero;fill:rgb(1.176471%,41.176471%,59.607843%);fill-opacity:1;stroke-width:0.5;stroke-linecap:butt;stroke-linejoin:miter;stroke:rgb(100%,100%,100%);stroke-opacity:1;stroke-miterlimit:4;" d="M 11.859943 18.678105 L 13.989179 18.678105 L 13.989179 14.088047 L 11.85873 14.088047 L 11.85873 18.678105 Z M 11.859943 18.678105 " transform="matrix(6.443038,0,0,6.451613,0,0)"/>
<path style="fill-rule:nonzero;fill:rgb(1.176471%,41.176471%,59.607843%);fill-opacity:1;stroke-width:0.5;stroke-linecap:butt;stroke-linejoin:miter;stroke:rgb(100%,100%,100%);stroke-opacity:1;stroke-miterlimit:4;" d="M 11.859943 25.390937 L 13.989179 25.390937 L 13.989179 20.805723 L 11.85873 20.805723 L 11.85873 25.390937 Z M 11.859943 25.390937 " transform="matrix(6.443038,0,0,6.451613,0,0)"/>
<path style="fill-rule:nonzero;fill:rgb(1.176471%,41.176471%,59.607843%);fill-opacity:1;stroke-width:0.5;stroke-linecap:butt;stroke-linejoin:miter;stroke:rgb(100%,100%,100%);stroke-opacity:1;stroke-miterlimit:4;" d="M 18.739947 11.956797 L 20.869183 11.956797 L 20.869183 7.372793 L 18.739947 7.372793 Z M 18.739947 11.956797 " transform="matrix(6.443038,0,0,6.451613,0,0)"/>
<path style="fill-rule:nonzero;fill:rgb(1.176471%,41.176471%,59.607843%);fill-opacity:1;stroke-width:0.5;stroke-linecap:butt;stroke-linejoin:miter;stroke:rgb(100%,100%,100%);stroke-opacity:1;stroke-miterlimit:4;" d="M 18.739947 18.678105 L 20.869183 18.678105 L 20.869183 14.088047 L 18.739947 14.088047 Z M 18.739947 18.678105 " transform="matrix(6.443038,0,0,6.451613,0,0)"/>
<path style="fill-rule:nonzero;fill:rgb(1.176471%,41.176471%,59.607843%);fill-opacity:1;stroke-width:0.5;stroke-linecap:butt;stroke-linejoin:miter;stroke:rgb(100%,100%,100%);stroke-opacity:1;stroke-miterlimit:4;" d="M 18.739947 25.390937 L 20.869183 25.390937 L 20.869183 20.805723 L 18.739947 20.805723 Z M 18.739947 25.390937 " transform="matrix(6.443038,0,0,6.451613,0,0)"/>
<path style="fill-rule:nonzero;fill:rgb(1.176471%,41.176471%,59.607843%);fill-opacity:1;stroke-width:0.5;stroke-linecap:butt;stroke-linejoin:miter;stroke:rgb(100%,100%,100%);stroke-opacity:1;stroke-miterlimit:4;" d="M 25.61995 11.956797 L 27.749187 11.956797 L 27.749187 7.372793 L 25.61995 7.372793 Z M 25.61995 11.956797 " transform="matrix(6.443038,0,0,6.451613,0,0)"/>
<path style="fill-rule:nonzero;fill:rgb(1.176471%,41.176471%,59.607843%);fill-opacity:1;stroke-width:0.5;stroke-linecap:butt;stroke-linejoin:miter;stroke:rgb(100%,100%,100%);stroke-opacity:1;stroke-miterlimit:4;" d="M 25.61995 18.678105 L 27.749187 18.678105 L 27.749187 14.088047 L 25.61995 14.088047 Z M 25.61995 18.678105 " transform="matrix(6.443038,0,0,6.451613,0,0)"/>
<path style="fill-rule:nonzero;fill:rgb(1.176471%,41.176471%,59.607843%);fill-opacity:1;stroke-width:0.5;stroke-linecap:butt;stroke-linejoin:miter;stroke:rgb(100%,100%,100%);stroke-opacity:1;stroke-miterlimit:4;" d="M 25.61995 25.390937 L 27.749187 25.390937 L 27.749187 20.805723 L 25.61995 20.805723 Z M 25.61995 25.390937 " transform="matrix(6.443038,0,0,6.451613,0,0)"/>
<path style="fill-rule:nonzero;fill:rgb(1.176471%,41.176471%,59.607843%);fill-opacity:1;stroke-width:0.5;stroke-linecap:butt;stroke-linejoin:miter;stroke:rgb(100%,100%,100%);stroke-opacity:1;stroke-miterlimit:4;" d="M 71.654984 11.956797 L 73.78422 11.956797 L 73.78422 7.372793 L 71.653771 7.372793 L 71.653771 11.956797 Z M 71.654984 11.956797 " transform="matrix(6.443038,0,0,6.451613,0,0)"/>
<path style="fill-rule:nonzero;fill:rgb(1.176471%,41.176471%,59.607843%);fill-opacity:1;stroke-width:0.5;stroke-linecap:butt;stroke-linejoin:miter;stroke:rgb(100%,100%,100%);stroke-opacity:1;stroke-miterlimit:4;" d="M 71.654984 18.678105 L 73.78422 18.678105 L 73.78422 14.088047 L 71.653771 14.088047 L 71.653771 18.678105 Z M 71.654984 18.678105 " transform="matrix(6.443038,0,0,6.451613,0,0)"/>
<path style="fill-rule:nonzero;fill:rgb(1.176471%,41.176471%,59.607843%);fill-opacity:1;stroke-width:0.5;stroke-linecap:butt;stroke-linejoin:miter;stroke:rgb(100%,100%,100%);stroke-opacity:1;stroke-miterlimit:4;" d="M 71.654984 25.390937 L 73.78422 25.390937 L 73.78422 20.805723 L 71.653771 20.805723 L 71.653771 25.390937 Z M 71.654984 25.390937 " transform="matrix(6.443038,0,0,6.451613,0,0)"/>
<path style="fill-rule:nonzero;fill:rgb(1.176471%,41.176471%,59.607843%);fill-opacity:1;stroke-width:0.5;stroke-linecap:butt;stroke-linejoin:miter;stroke:rgb(100%,100%,100%);stroke-opacity:1;stroke-miterlimit:4;" d="M 64.77498 11.956797 L 66.904216 11.956797 L 66.904216 7.372793 L 64.773767 7.372793 L 64.773767 11.956797 Z M 64.77498 11.956797 " transform="matrix(6.443038,0,0,6.451613,0,0)"/>
<path style="fill-rule:nonzero;fill:rgb(1.176471%,41.176471%,59.607843%);fill-opacity:1;stroke-width:0.5;stroke-linecap:butt;stroke-linejoin:miter;stroke:rgb(100%,100%,100%);stroke-opacity:1;stroke-miterlimit:4;" d="M 64.77498 18.678105 L 66.904216 18.678105 L 66.904216 14.088047 L 64.773767 14.088047 L 64.773767 18.678105 Z M 64.77498 18.678105 " transform="matrix(6.443038,0,0,6.451613,0,0)"/>
<path style="fill-rule:nonzero;fill:rgb(1.176471%,41.176471%,59.607843%);fill-opacity:1;stroke-width:0.5;stroke-linecap:butt;stroke-linejoin:miter;stroke:rgb(100%,100%,100%);stroke-opacity:1;stroke-miterlimit:4;" d="M 64.77498 25.390937 L 66.904216 25.390937 L 66.904216 20.805723 L 64.773767 20.805723 L 64.773767 25.390937 Z M 64.77498 25.390937 " transform="matrix(6.443038,0,0,6.451613,0,0)"/>
<path style="fill-rule:nonzero;fill:rgb(1.176471%,41.176471%,59.607843%);fill-opacity:1;stroke-width:0.5;stroke-linecap:butt;stroke-linejoin:miter;stroke:rgb(100%,100%,100%);stroke-opacity:1;stroke-miterlimit:4;" d="M 57.890126 11.956797 L 60.024213 11.956797 L 60.024213 7.372793 L 57.890126 7.372793 Z M 57.890126 11.956797 " transform="matrix(6.443038,0,0,6.451613,0,0)"/>
<path style="fill-rule:nonzero;fill:rgb(1.176471%,41.176471%,59.607843%);fill-opacity:1;stroke-width:0.5;stroke-linecap:butt;stroke-linejoin:miter;stroke:rgb(100%,100%,100%);stroke-opacity:1;stroke-miterlimit:4;" d="M 57.890126 18.678105 L 60.024213 18.678105 L 60.024213 14.088047 L 57.890126 14.088047 Z M 57.890126 18.678105 " transform="matrix(6.443038,0,0,6.451613,0,0)"/>
<path style="fill-rule:nonzero;fill:rgb(1.176471%,41.176471%,59.607843%);fill-opacity:1;stroke-width:0.5;stroke-linecap:butt;stroke-linejoin:miter;stroke:rgb(100%,100%,100%);stroke-opacity:1;stroke-miterlimit:4;" d="M 57.890126 25.390937 L 60.024213 25.390937 L 60.024213 20.805723 L 57.890126 20.805723 Z M 57.890126 25.390937 " transform="matrix(6.443038,0,0,6.451613,0,0)"/>
<path style="fill-rule:nonzero;fill:rgb(1.176471%,41.176471%,59.607843%);fill-opacity:1;stroke-width:0.5;stroke-linecap:butt;stroke-linejoin:miter;stroke:rgb(100%,100%,100%);stroke-opacity:1;stroke-miterlimit:4;" d="M 51.010729 11.956797 L 53.144815 11.956797 L 53.144815 7.372793 L 51.010729 7.372793 Z M 51.010729 11.956797 " transform="matrix(6.443038,0,0,6.451613,0,0)"/>
<path style="fill-rule:nonzero;fill:rgb(1.176471%,41.176471%,59.607843%);fill-opacity:1;stroke-width:0.5;stroke-linecap:butt;stroke-linejoin:miter;stroke:rgb(100%,100%,100%);stroke-opacity:1;stroke-miterlimit:4;" d="M 51.010729 18.678105 L 53.144815 18.678105 L 53.144815 14.088047 L 51.010729 14.088047 Z M 51.010729 18.678105 " transform="matrix(6.443038,0,0,6.451613,0,0)"/>
<path style="fill-rule:nonzero;fill:rgb(1.176471%,41.176471%,59.607843%);fill-opacity:1;stroke-width:0.5;stroke-linecap:butt;stroke-linejoin:miter;stroke:rgb(100%,100%,100%);stroke-opacity:1;stroke-miterlimit:4;" d="M 51.010729 25.390937 L 53.144815 25.390937 L 53.144815 20.805723 L 51.010729 20.805723 Z M 51.010729 25.390937 " transform="matrix(6.443038,0,0,6.451613,0,0)"/>
<path style="fill-rule:nonzero;fill:rgb(1.176471%,41.176471%,59.607843%);fill-opacity:1;stroke-width:0.5;stroke-linecap:butt;stroke-linejoin:miter;stroke:rgb(100%,100%,100%);stroke-opacity:1;stroke-miterlimit:4;" d="M 44.62302 11.956797 L 46.752863 11.956797 L 46.752863 7.372793 L 44.62302 7.372793 Z M 44.62302 11.956797 " transform="matrix(6.443038,0,0,6.451613,0,0)"/>
<path style="fill-rule:nonzero;fill:rgb(1.176471%,41.176471%,59.607843%);fill-opacity:1;stroke-width:0.5;stroke-linecap:butt;stroke-linejoin:miter;stroke:rgb(100%,100%,100%);stroke-opacity:1;stroke-miterlimit:4;" d="M 38.399005 11.956797 L 40.527029 11.956797 L 40.527029 7.372793 L 38.400218 7.372793 L 38.400218 11.956797 Z M 38.399005 11.956797 " transform="matrix(6.443038,0,0,6.451613,0,0)"/>
<path style="fill-rule:nonzero;fill:rgb(1.176471%,41.176471%,59.607843%);fill-opacity:1;stroke-width:0.5;stroke-linecap:butt;stroke-linejoin:miter;stroke:rgb(100%,100%,100%);stroke-opacity:1;stroke-miterlimit:4;" d="M 32.171959 11.956797 L 34.301802 11.956797 L 34.301802 7.372793 L 32.171959 7.372793 Z M 32.171959 11.956797 " transform="matrix(6.443038,0,0,6.451613,0,0)"/>
<path style="fill-rule:nonzero;fill:rgb(1.176471%,41.176471%,59.607843%);fill-opacity:1;stroke-width:0.5;stroke-linecap:butt;stroke-linejoin:miter;stroke:rgb(100%,100%,100%);stroke-opacity:1;stroke-miterlimit:4;" d="M 32.499954 19.233926 L 34.384862 19.233926 L 34.384862 15.464277 L 32.499954 15.464277 Z M 32.499954 19.233926 " transform="matrix(6.443038,0,0,6.451613,0,0)"/>
<path style="fill-rule:nonzero;fill:rgb(1.176471%,41.176471%,59.607843%);fill-opacity:1;stroke-width:0.5;stroke-linecap:butt;stroke-linejoin:miter;stroke:rgb(100%,100%,100%);stroke-opacity:1;stroke-miterlimit:4;" d="M 35.776262 19.233926 L 37.661169 19.233926 L 37.661169 15.464277 L 35.776262 15.464277 Z M 35.776262 19.233926 " transform="matrix(6.443038,0,0,6.451613,0,0)"/>
<path style="fill-rule:nonzero;fill:rgb(1.176471%,41.176471%,59.607843%);fill-opacity:1;stroke-width:0.5;stroke-linecap:butt;stroke-linejoin:miter;stroke:rgb(100%,100%,100%);stroke-opacity:1;stroke-miterlimit:4;" d="M 44.379904 19.233926 L 46.264812 19.233926 L 46.264812 15.464277 L 44.379904 15.464277 Z M 44.379904 19.233926 " transform="matrix(6.443038,0,0,6.451613,0,0)"/>
<path style="fill-rule:nonzero;fill:rgb(1.176471%,41.176471%,59.607843%);fill-opacity:1;stroke-width:0.5;stroke-linecap:butt;stroke-linejoin:miter;stroke:rgb(100%,100%,100%);stroke-opacity:1;stroke-miterlimit:4;" d="M 41.10299 19.233926 L 42.98911 19.233926 L 42.98911 15.464277 L 41.10299 15.464277 Z M 41.10299 19.233926 " transform="matrix(6.443038,0,0,6.451613,0,0)"/>
<path style="fill-rule:nonzero;fill:rgb(1.176471%,41.176471%,59.607843%);fill-opacity:1;stroke-width:0.5;stroke-linecap:butt;stroke-linejoin:miter;stroke:rgb(100%,100%,100%);stroke-opacity:1;stroke-miterlimit:4;" d="M 26.885245 31.250059 L 51.880126 31.250059 L 51.880126 29.321035 L 26.885245 29.321035 Z M 26.885245 31.250059 " transform="matrix(6.443038,0,0,6.451613,0,0)"/>
</g>
</svg>
