<?xml version="1.0" encoding="UTF-8"?>
<svg xmlns="http://www.w3.org/2000/svg" xmlns:xlink="http://www.w3.org/1999/xlink" width="282pt" height="200pt" viewBox="0 0 282 200" version="1.1">
<g id="surface1">
<path style=" stroke:none;fill-rule:nonzero;fill:rgb(3.137255%,48.235294%,73.333333%);fill-opacity:1;" d="M 6.882812 192.390625 L 238.734375 192.390625 L 238.734375 39.570312 L 6.882812 39.570312 Z M 6.882812 192.390625 "/>
<path style="fill:none;stroke-width:0.5;stroke-linecap:butt;stroke-linejoin:miter;stroke:rgb(100%,100%,100%);stroke-opacity:1;stroke-miterlimit:4;" d="M 1.415614 39.440078 L 49.101396 39.440078 L 49.101396 8.111113 L 1.415614 8.111113 Z M 1.415614 39.440078 " transform="matrix(4.862069,0,0,4.878049,0,0)"/>
<path style=" stroke:none;fill-rule:nonzero;fill:rgb(3.137255%,48.235294%,73.333333%);fill-opacity:1;" d="M 272.375 162.074219 L 238.734375 192.390625 L 238.734375 39.570312 L 272.375 7.101562 L 272.375 162.078125 "/>
<path style="fill:none;stroke-width:0.5;stroke-linecap:butt;stroke-linejoin:miter;stroke:rgb(100%,100%,100%);stroke-opacity:1;stroke-miterlimit:4;" d="M 56.02039 33.225215 L 49.101396 39.439277 L 49.101396 8.111914 L 56.02039 1.456621 Z M 56.02039 33.225215 " transform="matrix(4.862069,0,0,4.878049,0,0)"/>
<path style=" stroke:none;fill-rule:nonzero;fill:rgb(3.137255%,48.235294%,73.333333%);fill-opacity:1;" d="M 46.890625 7.101562 L 272.375 7.101562 L 238.734375 39.570312 L 6.882812 39.570312 L 46.890625 7.101562 "/>
<path style="fill:none;stroke-width:1;stroke-linecap:butt;stroke-linejoin:miter;stroke:rgb(100%,100%,100%);stroke-opacity:1;stroke-miterlimit:4;" d="M 9.644171 1.456621 L 56.02039 1.456621 L 49.101396 8.111914 L 1.415614 8.111914 Z M 9.644171 1.456621 " transform="matrix(4.862069,0,0,4.878049,0,0)"/>
<path style=" stroke:none;fill-rule:nonzero;fill:rgb(100%,100%,100%);fill-opacity:1;" d="M 207.898438 77.058594 L 187.285156 77.085938 L 187.285156 70.894531 L 207.898438 70.875 L 207.898438 61.199219 L 230.375 73.964844 L 207.898438 86.757812 L 207.898438 77.058594 M 207.898438 154.300781 L 187.285156 154.332031 L 187.285156 148.136719 L 207.898438 148.105469 L 207.898438 138.449219 L 230.375 151.230469 L 207.898438 164 L 207.898438 154.300781 M 39.003906 116.078125 L 15.976562 116.125 L 15.976562 109.933594 L 39.003906 109.90625 L 39.027344 100.238281 L 61.511719 113.003906 L 39.027344 125.769531 L 39.003906 116.078125 "/>
<path style=" stroke:none;fill-rule:nonzero;fill:rgb(3.137255%,48.235294%,73.333333%);fill-opacity:1;" d="M 173.570312 91.398438 C 173.570312 102.261719 149.921875 111.074219 120.71875 111.074219 C 91.523438 111.074219 67.851562 102.261719 67.851562 91.398438 L 67.851562 136.703125 C 67.851562 147.542969 91.523438 156.355469 120.71875 156.355469 C 149.921875 156.355469 173.570312 147.542969 173.570312 136.699219 L 173.570312 91.398438 "/>
<path style="fill:none;stroke-width:0.5;stroke-linecap:butt;stroke-linejoin:miter;stroke:rgb(100%,100%,100%);stroke-opacity:1;stroke-miterlimit:4;" d="M 35.698859 18.73668 C 35.698859 20.962852 30.834996 22.771016 24.828679 22.771016 C 18.823969 22.771016 13.955286 20.962852 13.955286 18.73668 L 13.955286 28.024941 C 13.955286 30.246309 18.823969 32.05207 24.828679 32.05207 C 30.834996 32.05207 35.698859 30.246309 35.698859 28.024941 Z M 35.698859 18.73668 " transform="matrix(4.862069,0,0,4.878049,0,0)"/>
<path style=" stroke:none;fill-rule:nonzero;fill:rgb(3.137255%,48.235294%,73.333333%);fill-opacity:1;" d="M 120.71875 111.074219 C 149.921875 111.074219 173.570312 102.261719 173.570312 91.398438 C 173.570312 80.535156 149.921875 71.75 120.71875 71.75 C 91.523438 71.75 67.851562 80.53125 67.851562 91.398438 C 67.851562 102.261719 91.523438 111.074219 120.71875 111.074219 "/>
<path style="fill:none;stroke-width:0.5;stroke-linecap:butt;stroke-linejoin:miter;stroke:rgb(100%,100%,100%);stroke-opacity:1;stroke-miterlimit:4;" d="M 24.828679 22.771016 C 30.834996 22.771016 35.698859 20.962852 35.698859 18.73668 C 35.698859 16.511309 30.834996 14.70875 24.828679 14.70875 C 18.823969 14.70875 13.955286 16.511309 13.955286 18.73668 C 13.955286 20.962852 18.823969 22.771016 24.828679 22.771016 Z M 24.828679 22.771016 " transform="matrix(4.862069,0,0,4.878049,0,0)"/>
</g>
</svg>
