<?xml version="1.0" encoding="UTF-8"?>
<svg xmlns="http://www.w3.org/2000/svg" xmlns:xlink="http://www.w3.org/1999/xlink" width="225pt" height="200pt" viewBox="0 0 225 200" version="1.1">
<g id="surface1">
<path style=" stroke:none;fill-rule:nonzero;fill:rgb(8.235294%,50.980392%,72.941176%);fill-opacity:1;" d="M 63.40625 64.605469 C 40.894531 69.195312 24.753906 123.105469 24.753906 123.105469 C 16.625 146.535156 2.488281 165.625 2.488281 165.625 L 151.589844 165.625 C 151.589844 165.625 168.875 143.925781 181.375 123.09375 C 181.375 123.09375 197.628906 69.191406 220.144531 64.601562 L 63.398438 64.601562 "/>
<path style="fill:none;stroke-width:0.5;stroke-linecap:butt;stroke-linejoin:miter;stroke:rgb(100%,100%,100%);stroke-opacity:1;stroke-miterlimit:4;" d="M 12.68125 12.920313 C 8.178906 13.838281 4.950781 24.620313 4.950781 24.620313 C 3.325 29.307031 0.497656 33.125781 0.497656 33.125781 L 30.317969 33.125781 C 30.317969 33.125781 33.775 28.785156 36.275 24.620313 C 36.275 24.620313 39.525781 13.838281 44.028906 12.920313 L 12.679688 12.920313 Z M 12.68125 12.920313 " transform="matrix(5,0,0,5,0,0)"/>
<path style=" stroke:none;fill-rule:nonzero;fill:rgb(8.235294%,50.980392%,72.941176%);fill-opacity:1;" d="M 151.339844 165.234375 L 151.339844 190.65625 L 217.429688 122.125 L 217.328125 65.578125 C 206.886719 67.703125 191.574219 85.726562 179.710938 102.664062 C 172.949219 112.328125 168.191406 120.878906 163.410156 127.488281 "/>
<path style="fill:none;stroke-width:0.5;stroke-linecap:butt;stroke-linejoin:miter;stroke:rgb(100%,100%,100%);stroke-opacity:1;stroke-miterlimit:4;" d="M 30.267969 33.046875 L 30.267969 38.13125 L 43.485938 24.425 L 43.465625 13.115625 C 41.377344 13.540625 38.314844 17.145312 35.942188 20.534375 C 34.589844 22.465625 33.638281 24.175781 32.682031 25.497656 " transform="matrix(5,0,0,5,0,0)"/>
<path style="fill:none;stroke-width:0.5;stroke-linecap:butt;stroke-linejoin:miter;stroke:rgb(8.235294%,50.980392%,72.941176%);stroke-opacity:1;stroke-miterlimit:4;" d="M 21.114063 6.685156 C 23.335156 4.672656 26.352344 3.379688 29.209375 3.442969 C 32.211719 3.510938 34.267969 5.070312 34.828906 7.329688 " transform="matrix(5,0,0,5,0,0)"/>
<path style="fill:none;stroke-width:0.5;stroke-linecap:butt;stroke-linejoin:miter;stroke:rgb(8.235294%,50.980392%,72.941176%);stroke-opacity:1;stroke-miterlimit:4;" d="M 19.950781 9.765625 C 22.171875 7.754688 25.189844 6.460938 28.046875 6.525 C 31.05 6.592188 33.104688 8.15 33.667188 10.40625 " transform="matrix(5,0,0,5,0,0)"/>
<path style="fill:none;stroke-width:0.5;stroke-linecap:butt;stroke-linejoin:miter;stroke:rgb(8.235294%,50.980392%,72.941176%);stroke-opacity:1;stroke-miterlimit:4;" d="M 18.789062 12.846875 C 21.010938 10.835938 24.028906 9.542188 26.885156 9.604688 C 29.888281 9.672656 31.94375 11.23125 32.510156 13.486719 " transform="matrix(5,0,0,5,0,0)"/>
<path style=" stroke:none;fill-rule:nonzero;fill:rgb(8.235294%,50.980392%,72.941176%);fill-opacity:1;" d="M 88.140625 79.644531 C 99.238281 69.566406 114.328125 63.089844 128.613281 63.429688 C 143.625 63.773438 153.929688 71.566406 156.738281 82.84375 "/>
<path style="fill:none;stroke-width:0.5;stroke-linecap:butt;stroke-linejoin:miter;stroke:rgb(100%,100%,100%);stroke-opacity:1;stroke-miterlimit:4;" d="M 17.628125 15.928906 C 19.847656 13.911719 22.865625 12.61875 25.722656 12.685938 C 28.725 12.754688 30.785938 14.313281 31.347656 16.567969 " transform="matrix(5,0,0,5,0,0)"/>
<path style="fill:none;stroke-width:0.5;stroke-linecap:butt;stroke-linejoin:miter;stroke:rgb(8.235294%,50.980392%,72.941176%);stroke-opacity:1;stroke-miterlimit:4;" d="M 21.114063 6.685156 C 23.335156 4.672656 26.352344 3.379688 29.209375 3.442969 C 32.211719 3.510938 34.267969 5.070312 34.828906 7.329688 " transform="matrix(5,0,0,5,0,0)"/>
<path style="fill:none;stroke-width:0.5;stroke-linecap:butt;stroke-linejoin:miter;stroke:rgb(8.235294%,50.980392%,72.941176%);stroke-opacity:1;stroke-miterlimit:4;" d="M 22.260938 3.64375 C 24.482031 1.632031 27.5 0.332813 30.357031 0.4 C 33.360156 0.464063 35.420313 2.021875 35.982031 4.282813 M 19.950781 9.765625 C 22.171875 7.754688 25.189844 6.460938 28.046875 6.525 C 31.05 6.592188 33.104688 8.15 33.667188 10.40625 " transform="matrix(5,0,0,5,0,0)"/>
<path style="fill:none;stroke-width:0.5;stroke-linecap:butt;stroke-linejoin:miter;stroke:rgb(8.235294%,50.980392%,72.941176%);stroke-opacity:1;stroke-miterlimit:4;" d="M 18.789062 12.846875 C 21.010938 10.835938 24.028906 9.542188 26.885156 9.604688 C 29.888281 9.672656 31.94375 11.23125 32.510156 13.486719 " transform="matrix(5,0,0,5,0,0)"/>
<path style="fill:none;stroke-width:0.5;stroke-linecap:butt;stroke-linejoin:miter;stroke:rgb(100%,100%,100%);stroke-opacity:1;stroke-miterlimit:4;" d="M 17.628125 15.928906 C 19.847656 13.911719 22.865625 12.61875 25.722656 12.685938 C 28.725 12.754688 30.785938 14.313281 31.347656 16.567969 " transform="matrix(5,0,0,5,0,0)"/>
<path style=" stroke:none;fill-rule:nonzero;fill:rgb(8.235294%,50.980392%,72.941176%);fill-opacity:1;" d="M 168.945312 112.894531 C 170.414062 130.59375 140.40625 147.535156 101.90625 150.734375 C 63.40625 153.933594 30.980469 142.21875 29.519531 124.519531 C 28.050781 106.839844 58.054688 89.894531 96.554688 86.675781 C 135.054688 83.476562 167.480469 95.21875 168.945312 112.894531 "/>
<path style="fill:none;stroke-width:0.5;stroke-linecap:butt;stroke-linejoin:miter;stroke:rgb(100%,100%,100%);stroke-opacity:1;stroke-miterlimit:4;" d="M 33.789062 22.578906 C 34.082813 26.11875 28.08125 29.507031 20.38125 30.146875 C 12.68125 30.786719 6.196094 28.442969 5.903906 24.903906 C 5.610156 21.36875 11.610938 17.979688 19.310938 17.335156 C 27.010938 16.695312 33.496094 19.042969 33.789062 22.578906 Z M 33.789062 22.578906 " transform="matrix(5,0,0,5,0,0)"/>
<path style=" stroke:none;fill-rule:nonzero;fill:rgb(8.235294%,50.980392%,72.941176%);fill-opacity:1;" d="M 162.476562 108.644531 C 163.820312 124.734375 136.550781 140.144531 101.539062 143.046875 C 66.550781 145.945312 37.089844 135.28125 35.738281 119.21875 C 34.398438 103.128906 61.691406 87.71875 96.679688 84.820312 C 131.683594 81.890625 161.160156 92.554688 162.480469 108.644531 "/>
<path style="fill:none;stroke-width:0.5;stroke-linecap:butt;stroke-linejoin:miter;stroke:rgb(100%,100%,100%);stroke-opacity:1;stroke-miterlimit:4;" d="M 32.495313 21.729688 C 32.764063 24.946875 27.310156 28.028906 20.307813 28.610156 C 13.310156 29.189844 7.417969 27.05625 7.147656 23.84375 C 6.879688 20.625781 12.338281 17.54375 19.335938 16.964063 C 26.336719 16.378125 32.232031 18.510938 32.496094 21.729688 Z M 32.495313 21.729688 " transform="matrix(5,0,0,5,0,0)"/>
<path style=" stroke:none;fill-rule:nonzero;fill:rgb(8.235294%,50.980392%,72.941176%);fill-opacity:1;" d="M 2.394531 191.441406 L 151.804688 191.214844 L 151.804688 164.316406 L 2.488281 164.316406 L 2.390625 191.441406 "/>
<path style="fill:none;stroke-width:0.5;stroke-linecap:butt;stroke-linejoin:miter;stroke:rgb(100%,100%,100%);stroke-opacity:1;stroke-miterlimit:4;" d="M 0.478906 38.286719 L 30.360938 38.24375 L 30.360938 32.861719 L 0.497656 32.861719 L 0.478125 38.286719 Z M 0.478906 38.286719 " transform="matrix(5,0,0,5,0,0)"/>
</g>
</svg>
