<?xml version="1.0" encoding="UTF-8"?>
<svg xmlns="http://www.w3.org/2000/svg" xmlns:xlink="http://www.w3.org/1999/xlink" width="262pt" height="200pt" viewBox="0 0 262 200" version="1.1">
<defs>
<clipPath id="clip1">
  <path d="M 235 0 L 262 0 L 262 192.570312 L 235 192.570312 Z M 235 0 "/>
</clipPath>
</defs>
<g id="surface1">
<path style="fill-rule:nonzero;fill:rgb(1.176471%,41.176471%,59.607843%);fill-opacity:1;stroke-width:4;stroke-linecap:butt;stroke-linejoin:miter;stroke:rgb(100%,100%,100%);stroke-opacity:1;stroke-miterlimit:4;" d="M 4.83774 14.807692 L 341.32184 14.807692 L 341.32184 247.077073 L 4.83774 247.077073 Z M 4.83774 14.807692 " transform="matrix(0.740435,0,0,-0.742857,0,200)"/>
<path style=" stroke:none;fill-rule:nonzero;fill:rgb(1.176471%,41.176471%,59.607843%);fill-opacity:1;" d="M 3.582031 16.457031 L 22.382812 -2.40625 L 271.5625 -2.40625 L 252.730469 16.457031 L 3.582031 16.457031 "/>
<path style="fill:none;stroke-width:4;stroke-linecap:butt;stroke-linejoin:miter;stroke:rgb(100%,100%,100%);stroke-opacity:1;stroke-miterlimit:4;" d="M 4.83774 247.077073 L 30.229283 272.469952 L 366.760863 272.469952 L 341.327116 247.077073 Z M 4.83774 247.077073 " transform="matrix(0.740435,0,0,-0.742857,0,200)"/>
<path style=" stroke:none;fill-rule:nonzero;fill:rgb(1.176471%,41.176471%,59.607843%);fill-opacity:1;" d="M 252.730469 189 L 271.5625 170.136719 L 271.5625 -2.40625 L 252.730469 16.457031 L 252.730469 189 "/>
<g clip-path="url(#clip1)" clip-rule="nonzero">
<path style="fill:none;stroke-width:4;stroke-linecap:butt;stroke-linejoin:miter;stroke:rgb(100%,100%,100%);stroke-opacity:1;stroke-miterlimit:4;" d="M 341.327116 14.807692 L 366.760863 40.200571 L 366.760863 272.469952 L 341.327116 247.077073 Z M 341.327116 14.807692 " transform="matrix(0.740435,0,0,-0.742857,0,200)"/>
</g>
<path style=" stroke:none;fill-rule:nonzero;fill:rgb(100%,100%,100%);fill-opacity:1;" d="M 149.210938 121.53125 C 154.683594 115.871094 156.507812 106.496094 156.507812 97.128906 C 156.507812 87.722656 154.683594 78.347656 149.210938 72.691406 L 156.507812 59.546875 C 163.820312 68.953125 169.285156 82.09375 167.464844 97.128906 C 167.464844 112.128906 163.820312 125.277344 156.507812 134.644531 L 149.210938 121.53125 M 191.152344 130.898438 C 196.625 123.390625 198.472656 112.128906 198.472656 98.984375 C 198.472656 87.722656 196.625 74.574219 191.152344 67.066406 L 198.472656 52.0625 C 205.761719 65.210938 209.402344 82.09375 209.402344 98.984375 C 209.402344 115.871094 205.761719 132.785156 198.472656 145.933594 L 191.152344 130.898438 M 105.453125 121.53125 C 101.808594 115.871094 98.164062 106.496094 98.164062 97.128906 C 98.164062 87.722656 101.808594 78.347656 105.453125 72.691406 L 98.164062 59.546875 C 90.875 68.953125 87.230469 82.09375 87.230469 97.128906 C 87.230469 112.128906 90.875 125.277344 98.164062 134.644531 L 105.453125 121.53125 M 68.980469 130.898438 C 65.335938 123.390625 61.691406 112.128906 61.691406 98.984375 C 61.691406 87.722656 65.335938 74.574219 68.980469 67.066406 L 61.691406 52.0625 C 54.40625 65.210938 50.757812 82.09375 50.757812 98.984375 C 50.757812 115.871094 54.40625 132.785156 61.691406 145.933594 L 68.980469 130.898438 "/>
<path style="fill:none;stroke-width:5;stroke-linecap:butt;stroke-linejoin:miter;stroke:rgb(100%,100%,100%);stroke-opacity:1;stroke-miterlimit:1;" d="M 170.977457 130.908203 L 170.977457 55.11869 " transform="matrix(0.740435,0,0,-0.742857,0,200)"/>
<path style=" stroke:none;fill-rule:nonzero;fill:rgb(100%,100%,100%);fill-opacity:1;" d="M 130.792969 97.007812 C 130.792969 99.566406 128.738281 101.652344 126.191406 101.652344 C 123.644531 101.652344 121.566406 99.566406 121.566406 97.007812 C 121.566406 94.457031 123.644531 92.394531 126.191406 92.394531 C 127.414062 92.394531 128.582031 92.878906 129.445312 93.746094 C 130.308594 94.609375 130.792969 95.785156 130.792969 97.007812 "/>
</g>
</svg>
