<?xml version="1.0" encoding="UTF-8"?>
<svg xmlns="http://www.w3.org/2000/svg" xmlns:xlink="http://www.w3.org/1999/xlink" width="338pt" height="200pt" viewBox="0 0 338 200" version="1.1">
<g id="surface1">
<path style=" stroke:none;fill-rule:nonzero;fill:rgb(3.137255%,50.588235%,75.686275%);fill-opacity:1;" d="M 3.921875 87.632812 L 103.839844 6.605469 L 334.570312 6.605469 L 251.859375 87.632812 L 3.921875 87.632812 "/>
<path style="fill:none;stroke-width:0.5;stroke-linecap:butt;stroke-linejoin:miter;stroke:rgb(100%,100%,100%);stroke-opacity:1;stroke-miterlimit:4;" d="M 0.707794 15.773906 L 18.740327 1.188984 L 60.381033 1.188984 L 45.453911 15.773906 Z M 0.707794 15.773906 " transform="matrix(5.540984,0,0,5.555556,0,0)"/>
<path style=" stroke:none;fill-rule:nonzero;fill:rgb(3.137255%,50.588235%,75.686275%);fill-opacity:1;" d="M 251.859375 191.042969 L 334.570312 106.542969 L 334.570312 6.746094 L 251.859375 87.632812 L 251.859375 191.042969 "/>
<path style="fill:none;stroke-width:0.5;stroke-linecap:butt;stroke-linejoin:miter;stroke:rgb(100%,100%,100%);stroke-opacity:1;stroke-miterlimit:4;" d="M 45.453911 34.387734 L 60.381033 19.177734 L 60.381033 1.212891 L 45.453911 15.773203 Z M 45.453911 34.387734 " transform="matrix(5.540984,0,0,5.555556,0,0)"/>
<path style="fill-rule:nonzero;fill:rgb(3.137255%,50.588235%,75.686275%);fill-opacity:1;stroke-width:0.5;stroke-linecap:butt;stroke-linejoin:miter;stroke:rgb(100%,100%,100%);stroke-opacity:1;stroke-miterlimit:4;" d="M 0.766307 34.401094 L 45.453911 34.401094 L 45.453911 15.773906 L 0.766307 15.773906 Z M 0.766307 34.401094 " transform="matrix(5.540984,0,0,5.555556,0,0)"/>
<path style=" stroke:none;fill-rule:nonzero;fill:rgb(100%,100%,100%);fill-opacity:1;" d="M 79.085938 58.199219 L 109.949219 55.160156 L 105.488281 68.078125 L 96.101562 63.539062 L 62.28125 78.082031 L 54.03125 75.804688 L 86.878906 61.503906 L 79.082031 58.199219 M 211.113281 58.6875 L 184.222656 54.078125 L 185.496094 68.238281 L 194.445312 63.867188 L 218.769531 76.1875 L 226.78125 74.011719 L 203.242188 62.027344 L 211.113281 58.6875 "/>
<path style="fill:none;stroke-width:0.5625;stroke-linecap:round;stroke-linejoin:miter;stroke:rgb(100%,100%,100%);stroke-opacity:1;stroke-miterlimit:1;" d="M 42.935038 25.612031 C 42.935038 25.612031 39.960753 33.254297 36.385829 25.588828 C 32.81725 17.926875 29.833799 25.574063 29.833799 25.574063 C 29.833799 25.574063 26.865153 33.219844 23.290935 25.559297 C 19.720946 17.893125 16.762874 25.607109 16.762874 25.607109 C 16.762874 25.607109 13.794228 33.254297 10.22001 25.588828 C 6.650021 17.926875 3.68631 25.569141 3.68631 25.569141 " transform="matrix(5.540984,0,0,5.555556,0,0)"/>
<path style="fill:none;stroke-width:1.125;stroke-linecap:round;stroke-linejoin:miter;stroke:rgb(100%,100%,100%);stroke-opacity:1;stroke-miterlimit:1;" d="M 3.68631 25.612031 C 3.68631 25.612031 6.65989 33.254297 10.234814 25.588828 C 13.804098 17.926875 16.788254 25.574063 16.788254 25.574063 C 16.788254 25.574063 19.756195 33.219844 23.324773 25.559297 C 26.899697 17.893125 29.859179 25.607109 29.859179 25.607109 C 29.859179 25.607109 32.827825 33.254297 36.401338 25.588828 C 39.971327 17.926875 42.935038 25.569141 42.935038 25.569141 " transform="matrix(5.540984,0,0,5.555556,0,0)"/>
<path style="fill:none;stroke-width:0.5625;stroke-linecap:round;stroke-linejoin:miter;stroke:rgb(13.72549%,12.156863%,12.54902%);stroke-opacity:1;stroke-miterlimit:1;" d="M 43.623093 25.612031 C 43.623093 25.612031 40.650217 33.254297 37.075294 25.588828 C 33.50601 17.926875 30.523264 25.574063 30.523264 25.574063 C 30.523264 25.574063 27.553208 33.224766 23.985334 25.559297 C 20.409706 17.893125 17.450929 25.607109 17.450929 25.607109 C 17.450929 25.607109 14.482283 33.254297 10.908769 25.588828 C 7.338781 17.926875 4.375069 25.569141 4.375069 25.569141 " transform="matrix(5.540984,0,0,5.555556,0,0)"/>
<path style="fill:none;stroke-width:1.125;stroke-linecap:round;stroke-linejoin:miter;stroke:rgb(13.72549%,12.156863%,12.54902%);stroke-opacity:1;stroke-miterlimit:1;" d="M 4.375069 25.612031 C 4.375069 25.612031 7.34865 33.254297 10.922164 25.588828 C 14.492153 17.926875 17.472078 25.574063 17.472078 25.574063 C 17.472078 25.574063 20.444249 33.224766 24.014238 25.559297 C 27.587047 17.893125 30.547233 25.607109 30.547233 25.607109 C 30.547233 25.607109 33.515174 33.254297 37.090098 25.588828 C 40.658677 17.926875 43.623093 25.569141 43.623093 25.569141 " transform="matrix(5.540984,0,0,5.555556,0,0)"/>
<path style="fill:none;stroke-width:0.5625;stroke-linecap:round;stroke-linejoin:miter;stroke:rgb(100%,100%,100%);stroke-opacity:1;stroke-miterlimit:1;" d="M 42.935038 25.612031 C 42.935038 25.612031 39.960753 33.254297 36.385829 25.588828 C 32.81725 17.926875 29.833799 25.574063 29.833799 25.574063 C 29.833799 25.574063 26.865153 33.219844 23.290935 25.559297 C 19.720946 17.893125 16.762874 25.607109 16.762874 25.607109 C 16.762874 25.607109 13.794228 33.254297 10.22001 25.588828 C 6.650021 17.926875 3.68631 25.569141 3.68631 25.569141 " transform="matrix(5.540984,0,0,5.555556,0,0)"/>
<path style="fill:none;stroke-width:1.125;stroke-linecap:round;stroke-linejoin:miter;stroke:rgb(100%,100%,100%);stroke-opacity:1;stroke-miterlimit:1;" d="M 3.68631 25.612031 C 3.68631 25.612031 6.65989 33.254297 10.234814 25.588828 C 13.804098 17.926875 16.788254 25.574063 16.788254 25.574063 C 16.788254 25.574063 19.756195 33.219844 23.324773 25.559297 C 26.899697 17.893125 29.859179 25.607109 29.859179 25.607109 C 29.859179 25.607109 32.827825 33.254297 36.401338 25.588828 C 39.971327 17.926875 42.935038 25.569141 42.935038 25.569141 " transform="matrix(5.540984,0,0,5.555556,0,0)"/>
<path style="fill:none;stroke-width:0.5625;stroke-linecap:round;stroke-linejoin:miter;stroke:rgb(13.72549%,12.156863%,12.54902%);stroke-opacity:1;stroke-miterlimit:1;" d="M 43.623093 25.612031 C 43.623093 25.612031 40.650217 33.254297 37.075294 25.588828 C 33.50601 17.926875 30.523264 25.574063 30.523264 25.574063 C 30.523264 25.574063 27.553208 33.224766 23.985334 25.559297 C 20.409706 17.893125 17.450929 25.607109 17.450929 25.607109 C 17.450929 25.607109 14.482283 33.254297 10.908769 25.588828 C 7.338781 17.926875 4.375069 25.569141 4.375069 25.569141 " transform="matrix(5.540984,0,0,5.555556,0,0)"/>
<path style="fill:none;stroke-width:1.125;stroke-linecap:round;stroke-linejoin:miter;stroke:rgb(13.72549%,12.156863%,12.54902%);stroke-opacity:1;stroke-miterlimit:1;" d="M 4.375069 25.612031 C 4.375069 25.612031 7.34865 33.254297 10.922164 25.588828 C 14.492153 17.926875 17.472078 25.574063 17.472078 25.574063 C 17.472078 25.574063 20.444249 33.224766 24.014238 25.559297 C 27.587047 17.893125 30.547233 25.607109 30.547233 25.607109 C 30.547233 25.607109 33.515174 33.254297 37.090098 25.588828 C 40.658677 17.926875 43.623093 25.569141 43.623093 25.569141 " transform="matrix(5.540984,0,0,5.555556,0,0)"/>
<path style="fill:none;stroke-width:0.5625;stroke-linecap:round;stroke-linejoin:miter;stroke:rgb(100%,100%,100%);stroke-opacity:1;stroke-miterlimit:1;" d="M 42.935038 25.612031 C 42.935038 25.612031 39.960753 33.254297 36.385829 25.588828 C 32.81725 17.926875 29.833799 25.574063 29.833799 25.574063 C 29.833799 25.574063 26.865153 33.219844 23.290935 25.559297 C 19.720946 17.893125 16.762874 25.607109 16.762874 25.607109 C 16.762874 25.607109 13.794228 33.254297 10.22001 25.588828 C 6.650021 17.926875 3.68631 25.569141 3.68631 25.569141 " transform="matrix(5.540984,0,0,5.555556,0,0)"/>
<path style="fill:none;stroke-width:1.125;stroke-linecap:round;stroke-linejoin:miter;stroke:rgb(100%,100%,100%);stroke-opacity:1;stroke-miterlimit:1;" d="M 3.68631 25.612031 C 3.68631 25.612031 6.65989 33.254297 10.234814 25.588828 C 13.804098 17.926875 16.788254 25.574063 16.788254 25.574063 C 16.788254 25.574063 19.756195 33.219844 23.324773 25.559297 C 26.899697 17.893125 29.859179 25.607109 29.859179 25.607109 C 29.859179 25.607109 32.827825 33.254297 36.401338 25.588828 C 39.971327 17.926875 42.935038 25.569141 42.935038 25.569141 " transform="matrix(5.540984,0,0,5.555556,0,0)"/>
<path style=" stroke:none;fill-rule:nonzero;fill:rgb(100%,100%,100%);fill-opacity:1;" d="M 164.285156 26.867188 L 150.882812 26 L 194.582031 14.746094 L 213.65625 29.714844 L 199.554688 28.957031 L 196.769531 28.820312 L 173.234375 45.640625 L 141.257812 45.855469 L 166.355469 27.035156 L 164.277344 26.867188 M 137.0625 67.421875 L 127.78125 67.253906 L 152.160156 52.042969 L 153.703125 67.421875 L 143.855469 67.476562 L 145.394531 67.535156 L 133.003906 81.039062 L 123.917969 80.984375 L 136.363281 67.484375 L 137.0625 67.429688 "/>
</g>
</svg>
