<svg width="21" height="21" viewBox="0 0 21 21" fill="none" xmlns="http://www.w3.org/2000/svg">
<path fill-rule="evenodd" clip-rule="evenodd" d="M7.38625 2.4318C6.9145 3.27422 6.75 4.30859 6.75 5H12.75C12.75 4.30859 12.5855 3.27422 12.1137 2.4318C11.6552 1.61304 10.9282 1 9.75 1C8.57181 1 7.84476 1.61304 7.38625 2.4318ZM15.7882 5.66891L18.6036 2.85355C18.7988 2.65829 18.7988 2.34171 18.6036 2.14645C18.4083 1.95118 18.0917 1.95118 17.8964 2.14645L15.0429 5H13.75C13.75 4.19141 13.5645 2.97578 12.9863 1.9432C12.3948 0.886959 11.3718 0 9.75 0C8.12819 0 7.10524 0.886959 6.51375 1.9432C5.9355 2.97578 5.75 4.19141 5.75 5H4.45711L1.60355 2.14645C1.40829 1.95118 1.09171 1.95118 0.896447 2.14645C0.701184 2.34171 0.701184 2.65829 0.896447 2.85355L3.712 5.66911C3.46112 7.1256 3.29184 8.99721 3.37744 10.8879L0.804998 8.90764C0.654031 8.79143 0.45014 8.77111 0.279205 8.85524C0.10827 8.93937 0 9.11333 0 9.30385V19.6962C0 19.8867 0.10827 20.0606 0.279205 20.1448C0.45014 20.2289 0.654031 20.2086 0.804997 20.0924L4.95362 16.8987C5.17704 17.2493 5.42927 17.5754 5.7135 17.8704C6.69129 18.8852 8.0184 19.5 9.75012 19.5C11.4818 19.5 12.8089 18.8852 13.7867 17.8704C13.9713 17.6788 14.1425 17.4741 14.3009 17.258L16.8964 19.8536C17.0917 20.0488 17.4083 20.0488 17.6036 19.8536C17.7988 19.6583 17.7988 19.3417 17.6036 19.1464L14.844 16.3869C15.2222 15.6721 15.4997 14.8789 15.6986 14.0549C15.8588 13.3916 15.9702 12.6998 16.0417 12H19.9926C20.2688 12 20.4926 11.7761 20.4926 11.5C20.4926 11.2239 20.2688 11 19.9926 11H16.1174C16.2151 9.07124 16.0441 7.1542 15.7882 5.66891ZM4.43436 11.7015L7.555 14.1038C7.67796 14.1985 7.75 14.3448 7.75 14.5C7.75 14.6552 7.67796 14.8015 7.555 14.8962L5.74971 16.2859C5.95226 16.6143 6.17964 16.9129 6.43361 17.1765C7.21728 17.9898 8.28184 18.5 9.75012 18.5C11.2184 18.5 12.283 17.9898 13.0666 17.1765C13.8638 16.3492 14.3989 15.1771 14.7266 13.8201C15.3438 11.2643 15.1908 8.19656 14.8299 6H4.67037C4.40528 7.61323 4.25237 9.69638 4.43436 11.7015ZM6.43032 14.5L1 10.3197L1 18.6803L6.43032 14.5Z" fill="#E1E1E1"/>
</svg>
