<svg width="203" height="41" viewBox="0 0 203 41" fill="none" xmlns="http://www.w3.org/2000/svg">
<path d="M39.5507 29.6867C39.3277 29.4659 39.2385 29.1567 39.2385 28.8034V10.8276C39.2385 10.4742 39.3277 10.2092 39.5507 9.9884C39.7737 9.76756 40.0859 9.67923 40.4427 9.67923H47.3111C49.4519 9.67923 51.1021 10.2092 52.3063 11.2251C53.5105 12.2409 54.0903 13.6984 54.0903 15.5976C54.0903 17.4967 53.5105 18.9542 52.3063 20.0142C51.1021 21.0742 49.4519 21.6042 47.3111 21.6042H41.6023V28.8034C41.6023 29.1567 41.5131 29.4659 41.2901 29.6867C41.0671 29.9076 40.7995 29.9959 40.4427 29.9959C40.0413 30.0401 39.7737 29.9076 39.5507 29.6867ZM47.0881 19.6609C50.2101 19.6609 51.7265 18.2917 51.7265 15.6417C51.7265 12.9917 50.1655 11.6667 47.0881 11.6667H41.6023V19.7051H47.0881V19.6609Z" fill="white"/>
<path d="M68.5407 26.9042C68.6745 27.0809 68.7637 27.3017 68.7637 27.5667C68.7637 28.0525 68.4069 28.4942 67.7379 28.8917C67.0243 29.2892 66.3107 29.5984 65.5525 29.775C64.7943 29.9959 64.0361 30.0842 63.2779 30.0842C61.0925 30.0842 59.3977 29.4659 58.1043 28.185C56.8555 26.9042 56.1865 25.1375 56.1865 22.885C56.1865 21.4717 56.4541 20.1909 57.0339 19.0867C57.6137 17.9825 58.3719 17.1434 59.3977 16.525C60.4235 15.9067 61.5831 15.5975 62.8765 15.5975C64.7051 15.5975 66.1769 16.1717 67.2473 17.3642C68.3177 18.5567 68.8529 20.1467 68.8529 22.1784C68.8529 22.5759 68.7637 22.8409 68.6299 23.0175C68.4961 23.1942 68.2285 23.2825 67.8717 23.2825H58.5503C58.7287 26.5509 60.2897 28.2292 63.2779 28.2292C64.0361 28.2292 64.6605 28.1409 65.1957 27.92C65.7309 27.6992 66.3107 27.4342 66.9351 27.0809C67.4257 26.8159 67.7825 26.6392 67.9609 26.6392C68.1839 26.6392 68.4069 26.7275 68.5407 26.9042ZM59.9775 18.5567C59.2193 19.3075 58.8179 20.4117 58.6841 21.7809H66.8905C66.8459 20.3675 66.4891 19.2634 65.8201 18.5125C65.1511 17.7617 64.2145 17.3642 62.9657 17.3642C61.7169 17.4084 60.6911 17.7617 59.9775 18.5567Z" fill="white"/>
<path d="M80.538 16.6134C80.538 16.9225 80.4488 17.1434 80.2704 17.3642C80.092 17.5409 79.7798 17.6734 79.3784 17.6734L78.531 17.7617C77.2376 17.8942 76.2564 18.3359 75.632 19.1309C75.0076 19.9259 74.6954 20.8534 74.6954 21.9134V28.8917C74.6954 29.2892 74.6062 29.5542 74.3832 29.7309C74.1602 29.9075 73.8926 29.9959 73.5358 29.9959C73.179 29.9959 72.9114 29.9075 72.6884 29.6867C72.4654 29.4659 72.3762 29.2009 72.3762 28.8475V16.79C72.3762 16.4367 72.51 16.1275 72.733 15.9509C72.956 15.73 73.2236 15.6417 73.5804 15.6417C73.8926 15.6417 74.1602 15.73 74.3832 15.9509C74.6062 16.1717 74.6954 16.4367 74.6954 16.79V18.38C75.0968 17.5409 75.6766 16.8784 76.4348 16.4809C77.193 16.0392 78.0404 15.7742 78.977 15.6859L79.3784 15.6417C80.1366 15.5975 80.538 15.9067 80.538 16.6134Z" fill="white"/>
<path d="M84.5967 29.2009C83.5709 28.6267 82.8127 27.7875 82.2329 26.6834C81.6977 25.5792 81.3855 24.3425 81.3855 22.885C81.3855 21.4717 81.6531 20.1909 82.2329 19.0867C82.8127 17.9825 83.6155 17.0992 84.6413 16.525C85.6671 15.9067 86.8267 15.5975 88.1647 15.5975C88.8783 15.5975 89.6365 15.6859 90.3501 15.9067C91.0637 16.1275 91.6881 16.3925 92.2233 16.79C92.5801 17.0109 92.8031 17.2317 92.9815 17.4525C93.1153 17.6734 93.2045 17.8942 93.2045 18.2034C93.2045 18.4684 93.1153 18.6892 92.9815 18.8659C92.8477 19.0425 92.6693 19.1309 92.4017 19.1309C92.2679 19.1309 92.1341 19.0867 91.9557 18.9984C91.8219 18.91 91.6881 18.8659 91.5543 18.7775C91.4651 18.6892 91.3759 18.645 91.3313 18.645C90.8407 18.3359 90.3501 18.0709 89.9041 17.85C89.4581 17.6734 88.8783 17.585 88.2539 17.585C86.8267 17.585 85.7563 18.0709 84.9535 18.9984C84.1507 19.9259 83.7939 21.2509 83.7939 22.9292C83.7939 24.6075 84.1953 25.8884 84.9535 26.8159C85.7563 27.7434 86.8267 28.185 88.2539 28.185C88.9229 28.185 89.4581 28.0967 89.9487 27.92C90.4393 27.7434 90.8853 27.4784 91.3759 27.125C91.5989 26.9925 91.7773 26.86 92.0003 26.7717C92.1787 26.6834 92.3571 26.6392 92.4909 26.6392C92.7139 26.6392 92.8923 26.7275 93.0261 26.9042C93.1599 27.0809 93.2491 27.3017 93.2491 27.5667C93.2491 27.8317 93.2045 28.0525 93.0261 28.2292C92.8923 28.45 92.6247 28.6709 92.2679 28.8917C91.7327 29.245 91.0637 29.5542 90.3055 29.775C89.5473 29.9959 88.7891 30.0842 87.9863 30.0842C86.7821 30.0842 85.5779 29.775 84.5967 29.2009Z" fill="white"/>
<path d="M107.566 26.9042C107.699 27.0809 107.789 27.3017 107.789 27.5667C107.789 28.0525 107.432 28.4942 106.763 28.8917C106.049 29.2892 105.336 29.5984 104.577 29.775C103.819 29.9959 103.061 30.0842 102.303 30.0842C100.117 30.0842 98.4226 29.4659 97.1292 28.185C95.8804 26.9042 95.2114 25.1375 95.2114 22.885C95.2114 21.4717 95.479 20.1909 96.0588 19.0867C96.6386 17.9825 97.3968 17.1434 98.4226 16.525C99.4484 15.9067 100.608 15.5975 101.901 15.5975C103.73 15.5975 105.202 16.1717 106.272 17.3642C107.343 18.5567 107.878 20.1467 107.878 22.1784C107.878 22.5759 107.789 22.8409 107.655 23.0175C107.521 23.1942 107.253 23.2825 106.897 23.2825H97.5752C97.7536 26.5509 99.3146 28.2292 102.303 28.2292C103.061 28.2292 103.685 28.1409 104.221 27.92C104.756 27.6992 105.336 27.4342 105.96 27.0809C106.451 26.8159 106.807 26.6392 106.986 26.6392C107.253 26.6392 107.432 26.7275 107.566 26.9042ZM99.0024 18.5567C98.2442 19.3075 97.8428 20.4117 97.709 21.7809H105.915C105.871 20.3675 105.514 19.2634 104.845 18.5125C104.176 17.7617 103.239 17.3642 101.991 17.3642C100.742 17.4084 99.716 17.7617 99.0024 18.5567Z" fill="white"/>
<path d="M121.704 16.525C122.64 17.1434 123.399 17.9825 123.889 19.0867C124.424 20.1909 124.692 21.4717 124.692 22.9292C124.692 24.3867 124.424 25.6675 123.889 26.7275C123.354 27.7875 122.64 28.6267 121.704 29.245C120.767 29.8192 119.652 30.1284 118.403 30.1284C117.288 30.1284 116.352 29.9075 115.504 29.4217C114.702 28.9359 114.077 28.2734 113.631 27.39V34.1034C113.631 34.4567 113.542 34.7217 113.319 34.8984C113.096 35.1192 112.828 35.2075 112.472 35.2075C112.115 35.2075 111.803 35.1192 111.624 34.8984C111.401 34.6775 111.312 34.4125 111.312 34.1034V16.79C111.312 16.4367 111.401 16.1717 111.624 15.9509C111.847 15.73 112.115 15.6417 112.472 15.6417C112.828 15.6417 113.141 15.73 113.319 15.9509C113.497 16.1717 113.631 16.4367 113.631 16.79V18.3359C114.033 17.4525 114.657 16.79 115.504 16.3042C116.307 15.8184 117.288 15.5975 118.403 15.5975C119.697 15.5975 120.767 15.9067 121.704 16.525ZM121.169 26.8159C121.927 25.8884 122.284 24.6075 122.284 22.9292C122.284 21.2509 121.927 19.9259 121.169 18.9984C120.41 18.0709 119.34 17.585 118.002 17.585C116.619 17.585 115.594 18.0267 114.835 18.9542C114.077 19.8817 113.72 21.1625 113.72 22.885C113.72 24.6075 114.077 25.8884 114.835 26.8159C115.594 27.7434 116.619 28.185 118.002 28.185C119.34 28.185 120.41 27.6992 121.169 26.8159Z" fill="white"/>
<path d="M135.708 29.1126C135.708 29.4217 135.575 29.6867 135.352 29.8634C135.129 30.0401 134.727 30.0842 134.281 30.0401L133.478 29.9959C131.917 29.8634 130.802 29.4217 130.044 28.6267C129.331 27.8317 128.929 26.5951 128.929 25.0051V17.7617H127.011C126.699 17.7617 126.432 17.6734 126.253 17.4967C126.075 17.3201 125.986 17.0992 125.986 16.8342C125.986 16.5692 126.075 16.3042 126.253 16.1276C126.432 15.9509 126.699 15.8626 127.011 15.8626H128.929V12.6384C128.929 12.2851 129.018 11.9759 129.241 11.7992C129.464 11.5784 129.732 11.4901 130.089 11.4901C130.446 11.4901 130.713 11.5784 130.936 11.7992C131.159 12.0201 131.248 12.2851 131.248 12.6384V15.8626H134.46C134.772 15.8626 134.995 15.9509 135.218 16.1276C135.396 16.3042 135.485 16.5251 135.485 16.8342C135.485 17.0992 135.396 17.3201 135.218 17.4967C135.039 17.6734 134.772 17.7617 134.46 17.7617H131.248V25.0492C131.248 26.1092 131.471 26.8601 131.917 27.3459C132.363 27.8317 132.988 28.0967 133.88 28.1409L134.683 28.1851C135.352 28.2734 135.708 28.5826 135.708 29.1126Z" fill="white"/>
<path d="M138.072 12.2409C137.805 11.9759 137.626 11.6226 137.626 11.1809C137.626 10.7392 137.76 10.4301 138.072 10.1651C138.34 9.90008 138.741 9.76758 139.187 9.76758C139.633 9.76758 140.035 9.90008 140.302 10.1651C140.57 10.4301 140.748 10.7834 140.748 11.1809C140.748 11.6226 140.614 11.9759 140.302 12.2409C140.035 12.5059 139.633 12.6384 139.187 12.6384C138.741 12.6384 138.34 12.5059 138.072 12.2409ZM138.34 29.7309C138.117 29.5101 138.028 29.2451 138.028 28.8918V16.7901C138.028 16.4367 138.117 16.1276 138.34 15.9509C138.563 15.7301 138.83 15.6417 139.187 15.6417C139.544 15.6417 139.812 15.7301 140.035 15.9509C140.258 16.1717 140.347 16.4367 140.347 16.7901V28.8918C140.347 29.2893 140.258 29.5543 140.035 29.7309C139.812 29.9076 139.544 29.9959 139.187 29.9959C138.83 29.9959 138.563 29.9518 138.34 29.7309Z" fill="white"/>
<path d="M145.387 29.5984C145.164 29.3776 145.074 29.1567 145.074 28.8034V10.7392C145.074 10.3859 145.164 10.0767 145.387 9.85589C145.61 9.63506 145.877 9.54672 146.234 9.54672C146.591 9.54672 146.903 9.67922 147.081 9.85589C147.304 10.0767 147.394 10.3859 147.394 10.7392V27.8759H156.76C157.116 27.8759 157.384 27.9642 157.562 28.1409C157.741 28.3176 157.83 28.5384 157.83 28.8917C157.83 29.2009 157.741 29.4659 157.562 29.6426C157.384 29.8192 157.116 29.9076 156.76 29.9076H146.189C145.877 29.9076 145.61 29.7751 145.387 29.5984Z" fill="white"/>
<path d="M171.388 21.0742V28.8917C171.388 29.245 171.299 29.51 171.076 29.7309C170.853 29.9517 170.585 30.04 170.229 30.04C169.872 30.04 169.604 29.9517 169.381 29.7309C169.158 29.51 169.069 29.245 169.069 28.8917V27.5225C168.712 28.3617 168.132 28.98 167.374 29.4217C166.616 29.8634 165.769 30.0842 164.787 30.0842C163.895 30.0842 163.048 29.9075 162.29 29.5542C161.532 29.2009 160.907 28.6709 160.461 28.0525C160.015 27.39 159.792 26.6834 159.792 25.8884C159.792 24.8284 160.06 24.0334 160.595 23.4592C161.13 22.885 162.022 22.4434 163.271 22.1784C164.52 21.9134 166.215 21.7809 168.4 21.7809H169.024V20.8534C169.024 19.705 168.801 18.8659 168.311 18.3359C167.82 17.8059 167.062 17.5409 165.992 17.5409C164.698 17.5409 163.36 17.8942 161.978 18.6009C161.442 18.91 161.086 19.0867 160.863 19.0867C160.64 19.0867 160.461 18.9984 160.283 18.8217C160.149 18.645 160.06 18.4242 160.06 18.1592C160.06 17.8942 160.149 17.6734 160.327 17.4525C160.506 17.2317 160.773 17.055 161.13 16.8342C161.799 16.4367 162.557 16.1275 163.449 15.9509C164.297 15.73 165.144 15.6417 165.992 15.6417C169.649 15.5975 171.388 17.4084 171.388 21.0742ZM167.999 27.0809C168.757 26.2859 169.114 25.3142 169.114 24.0775V23.2384H168.578C166.884 23.2384 165.59 23.3267 164.698 23.4592C163.806 23.5917 163.182 23.8567 162.825 24.1659C162.468 24.5192 162.245 25.005 162.245 25.6234C162.245 26.3742 162.513 26.9925 163.093 27.4784C163.628 27.9642 164.341 28.2292 165.144 28.2292C166.304 28.2734 167.24 27.8759 167.999 27.0809Z" fill="white"/>
<path d="M186.017 16.4809C186.954 17.0551 187.712 17.8942 188.203 18.9984C188.738 20.1026 189.005 21.3392 189.005 22.7967C189.005 24.2542 188.738 25.5351 188.203 26.6392C187.667 27.7434 186.954 28.5825 186.017 29.2009C185.081 29.8192 183.966 30.1284 182.761 30.1284C181.646 30.1284 180.71 29.9075 179.862 29.4217C179.06 28.9359 178.435 28.2734 177.989 27.39V28.8917C177.989 29.245 177.9 29.51 177.677 29.7309C177.454 29.9517 177.186 30.04 176.83 30.04C176.473 30.04 176.161 29.9517 175.982 29.7309C175.759 29.51 175.67 29.245 175.67 28.8917V10.6509C175.67 10.3417 175.759 10.0767 175.982 9.85589C176.205 9.63506 176.473 9.54672 176.83 9.54672C177.186 9.54672 177.499 9.63506 177.677 9.85589C177.9 10.0767 177.989 10.3417 177.989 10.6509V18.3359C178.391 17.4526 179.015 16.7901 179.862 16.3042C180.665 15.8184 181.646 15.5976 182.761 15.5976C184.01 15.5976 185.081 15.9067 186.017 16.4809ZM185.482 26.7717C186.24 25.8442 186.597 24.5192 186.597 22.7967C186.597 21.1184 186.24 19.8376 185.482 18.9101C184.724 17.9826 183.653 17.5409 182.315 17.5409C180.933 17.5409 179.907 17.9826 179.149 18.9101C178.391 19.8376 178.034 21.1184 178.034 22.8409C178.034 24.5634 178.391 25.8442 179.149 26.7717C179.907 27.6992 180.933 28.1409 182.315 28.1409C183.653 28.1851 184.724 27.6992 185.482 26.7717Z" fill="white"/>
<path d="M194.714 29.775C193.911 29.5542 193.198 29.2892 192.573 28.8917C192.216 28.6709 191.993 28.45 191.815 28.2292C191.681 28.0084 191.592 27.7875 191.592 27.4784C191.592 27.2134 191.681 27.0367 191.815 26.86C191.949 26.6834 192.127 26.595 192.395 26.595C192.618 26.595 192.975 26.7275 193.421 27.0367C194 27.39 194.58 27.655 195.16 27.8759C195.74 28.0967 196.453 28.185 197.301 28.185C198.327 28.185 199.174 28.0084 199.709 27.655C200.289 27.3017 200.557 26.7717 200.557 26.065C200.557 25.6234 200.467 25.3142 200.244 25.0492C200.021 24.7842 199.665 24.5634 199.129 24.3425C198.594 24.1217 197.836 23.945 196.855 23.7242C195.16 23.3709 193.956 22.885 193.198 22.2667C192.484 21.6484 192.083 20.8092 192.083 19.7934C192.083 18.9542 192.306 18.2475 192.796 17.6292C193.242 17.0109 193.911 16.4809 194.714 16.1275C195.517 15.7742 196.453 15.5975 197.524 15.5975C198.282 15.5975 198.996 15.6859 199.709 15.9067C200.423 16.1275 201.047 16.3925 201.582 16.7459C202.251 17.1875 202.564 17.6734 202.564 18.1592C202.564 18.4242 202.474 18.6009 202.341 18.7775C202.207 18.9542 201.984 19.0425 201.805 19.0425C201.582 19.0425 201.226 18.8659 200.78 18.5567C200.244 18.2034 199.709 17.9384 199.263 17.7617C198.773 17.585 198.193 17.4967 197.479 17.4967C196.587 17.4967 195.829 17.7175 195.294 18.115C194.759 18.5125 194.446 19.0425 194.446 19.705C194.446 20.1025 194.536 20.4559 194.759 20.7209C194.982 20.9859 195.294 21.2067 195.784 21.4275C196.275 21.6484 196.944 21.825 197.836 22.0017C199.129 22.2667 200.155 22.62 200.869 22.9292C201.582 23.2825 202.118 23.68 202.43 24.21C202.742 24.6959 202.876 25.3142 202.876 26.1092C202.876 27.3017 202.385 28.2734 201.359 29.0242C200.334 29.775 198.996 30.1284 197.301 30.1284C196.364 30.0842 195.517 29.9959 194.714 29.775Z" fill="white"/>
<path d="M22.1121 7.55922C24.0334 7.55922 25.5909 6.01684 25.5909 4.11422C25.5909 2.2116 24.0334 0.66922 22.1121 0.66922C20.1908 0.66922 18.6333 2.2116 18.6333 4.11422C18.6333 6.01684 20.1908 7.55922 22.1121 7.55922Z" fill="#FECF73"/>
<path d="M5.78852 31.8067C4.67352 31.8067 3.60311 31.2767 2.97871 30.3051C1.90831 28.7592 2.30971 26.6392 3.87071 25.5792L20.9971 14.0517C22.5581 12.9917 24.6989 13.3892 25.7693 14.935C26.8397 16.4809 26.4383 18.6009 24.8773 19.6609L7.70631 31.2326C7.12651 31.6301 6.45751 31.8067 5.78852 31.8067Z" fill="#6185EE"/>
<path d="M3.55853 20.0142C2.44353 20.0142 1.37313 19.4842 0.748734 18.5125C-0.321666 16.9667 0.0797343 14.8467 1.64073 13.7867L10.2039 8.00087C11.7649 6.94087 13.9057 7.33837 14.9761 8.88421C16.0465 10.43 15.6451 12.55 14.0841 13.61L5.47634 19.3959C4.89653 19.7934 4.22753 20.0142 3.55853 20.0142Z" fill="#73FEBB"/>
<path d="M12.1219 40.3309C14.0432 40.3309 15.6007 38.7885 15.6007 36.8859C15.6007 34.9833 14.0432 33.4409 12.1219 33.4409C10.2006 33.4409 8.64307 34.9833 8.64307 36.8859C8.64307 38.7885 10.2006 40.3309 12.1219 40.3309Z" fill="#FE7373"/>
</svg>
