<svg width="60" height="92" viewBox="0 0 60 92" fill="none" xmlns="http://www.w3.org/2000/svg">
<path d="M50.0206 16.5002C54.3386 16.5002 57.8391 12.9998 57.8391 8.68174C57.8391 4.36373 54.3386 0.863281 50.0206 0.863281C45.7026 0.863281 42.2021 4.36373 42.2021 8.68174C42.2021 12.9998 45.7026 16.5002 50.0206 16.5002Z" fill="#FECF73"/>
<path d="M13.1774 71.7039C10.6897 71.7039 8.32049 70.5193 6.78049 68.387C4.41126 64.8331 5.35895 60.0947 8.79433 57.7254L47.4128 31.427C50.9666 29.0577 55.7051 30.0054 58.0743 33.4408C60.4436 36.9947 59.4959 41.7331 56.0605 44.1024L17.5605 70.4008C16.139 71.23 14.7174 71.7039 13.1774 71.7039Z" fill="#6185EE"/>
<path d="M8.2028 44.8125C5.71511 44.8125 3.34588 43.6279 1.80588 41.4956C-0.563349 37.9417 0.384343 33.2033 3.81973 30.834L23.129 17.6848C26.6828 15.3156 31.4213 16.2632 33.7905 19.6986C36.1597 23.2525 35.212 27.9909 31.7766 30.3602L12.5859 43.5094C11.1643 44.4571 9.7428 44.8125 8.2028 44.8125Z" fill="#73FEBB"/>
<path d="M27.5133 91.133C31.8313 91.133 35.3318 87.6326 35.3318 83.3146C35.3318 78.9965 31.8313 75.4961 27.5133 75.4961C23.1953 75.4961 19.6948 78.9965 19.6948 83.3146C19.6948 87.6326 23.1953 91.133 27.5133 91.133Z" fill="#FE7373"/>
</svg>
