<svg width="161" height="130" viewBox="0 0 161 130" fill="none" xmlns="http://www.w3.org/2000/svg">
    <path d="M1.10501 124.111C0.889656 123.895 0.817871 123.607 0.817871 123.247V105.463C0.817871 105.103 0.889657 104.887 1.1768 104.671C1.39216 104.455 1.6793 104.383 2.03823 104.383H8.7143C10.7961 104.383 12.4472 104.887 13.5957 105.895C14.7443 106.903 15.3186 108.343 15.3186 110.215C15.3186 112.087 14.7443 113.527 13.5957 114.535C12.4472 115.543 10.7961 116.119 8.7143 116.119H3.1868V123.247C3.1868 123.607 3.11501 123.895 2.89966 124.111C2.6843 124.327 2.39716 124.471 2.03823 124.471C1.6793 124.471 1.32037 124.327 1.10501 124.111ZM8.42715 114.247C11.4422 114.247 12.9497 112.951 12.9497 110.287C12.9497 107.695 11.4422 106.327 8.42715 106.327H3.11501V114.247H8.42715Z" fill="white"/>
    <path d="M29.3886 121.373C29.5322 121.517 29.604 121.733 29.604 122.021C29.604 122.525 29.245 122.957 28.599 123.317C27.9529 123.677 27.235 124.037 26.4454 124.181C25.7275 124.397 24.9379 124.469 24.22 124.469C22.0665 124.469 20.4154 123.821 19.195 122.597C17.9747 121.301 17.3286 119.573 17.3286 117.341C17.3286 115.901 17.6158 114.677 18.1183 113.597C18.6925 112.517 19.4104 111.653 20.4154 111.077C21.4204 110.501 22.4972 110.141 23.7893 110.141C25.584 110.141 27.0197 110.717 28.0247 111.869C29.1015 113.021 29.604 114.605 29.604 116.621C29.604 116.981 29.5322 117.269 29.3886 117.413C29.245 117.557 28.9579 117.701 28.6708 117.701H19.6975C19.8411 120.941 21.4204 122.597 24.2918 122.597C25.0097 122.597 25.6558 122.525 26.1583 122.309C26.6608 122.093 27.235 121.877 27.8811 121.517C28.3836 121.229 28.6708 121.085 28.8861 121.085C29.0297 121.085 29.245 121.157 29.3886 121.373ZM20.9897 113.093C20.2718 113.813 19.8411 114.893 19.6975 116.261H27.6658C27.594 114.893 27.3068 113.813 26.589 113.021C25.9429 112.301 25.0097 111.869 23.8611 111.869C22.7125 111.941 21.7075 112.373 20.9897 113.093Z" fill="white"/>
    <path d="M41.0183 111.223C41.0183 111.511 40.9465 111.799 40.7311 111.943C40.5875 112.159 40.3004 112.231 39.8697 112.303L39.0083 112.375C37.7161 112.519 36.7829 112.951 36.2086 113.743C35.5626 114.535 35.2754 115.471 35.2754 116.479V123.319C35.2754 123.679 35.2036 123.967 34.9883 124.183C34.7729 124.399 34.4858 124.471 34.1986 124.471C33.9115 124.471 33.5526 124.399 33.3372 124.183C33.1218 123.967 33.05 123.679 33.05 123.319V111.367C33.05 111.007 33.1936 110.719 33.409 110.503C33.6243 110.287 33.9115 110.215 34.1986 110.215C34.4858 110.215 34.7729 110.287 34.9883 110.503C35.2036 110.719 35.2754 110.935 35.2754 111.295V112.879C35.7061 112.087 36.2086 111.439 36.9265 111.007C37.6443 110.575 38.5058 110.287 39.439 110.215H39.8697C40.6593 110.215 41.0183 110.503 41.0183 111.223Z" fill="white"/>
    <path d="M44.9664 123.605C43.9614 123.029 43.2436 122.165 42.6693 121.085C42.1668 120.005 41.8796 118.781 41.8796 117.341C41.8796 115.901 42.1668 114.677 42.7411 113.597C43.3154 112.517 44.105 111.653 45.0382 111.077C46.0432 110.501 47.1918 110.141 48.4839 110.141C49.2018 110.141 49.9196 110.213 50.6375 110.429C51.3553 110.645 51.9296 110.933 52.5039 111.293C52.8628 111.509 53.0782 111.725 53.2218 111.941C53.3653 112.157 53.4371 112.373 53.4371 112.661C53.4371 112.949 53.3653 113.165 53.2218 113.309C53.0782 113.453 52.9346 113.597 52.6475 113.597C52.5039 113.597 52.3603 113.525 52.2168 113.453C52.0732 113.381 51.9296 113.309 51.8578 113.237C51.7861 113.165 51.7143 113.093 51.6425 113.093C51.14 112.805 50.7093 112.517 50.2786 112.301C49.8478 112.085 49.2736 112.013 48.6275 112.013C47.2636 112.013 46.1868 112.445 45.3971 113.381C44.6075 114.317 44.2486 115.613 44.2486 117.269C44.2486 118.925 44.6075 120.221 45.3971 121.085C46.1868 121.949 47.1918 122.453 48.6275 122.453C49.2736 122.453 49.8478 122.381 50.2786 122.165C50.7093 121.949 51.2118 121.733 51.6425 121.373C51.8578 121.229 52.0732 121.157 52.2168 121.013C52.4321 120.941 52.5757 120.869 52.7193 120.869C52.9346 120.869 53.0782 120.941 53.2218 121.157C53.3653 121.301 53.4371 121.517 53.4371 121.805C53.4371 122.021 53.3653 122.237 53.2218 122.453C53.0782 122.669 52.8628 122.885 52.5039 123.101C52.0014 123.461 51.3553 123.749 50.6375 123.965C49.9196 124.181 49.13 124.253 48.4121 124.253C47.12 124.469 45.9714 124.181 44.9664 123.605Z" fill="white"/>
    <path d="M67.3637 121.373C67.5073 121.517 67.5791 121.733 67.5791 122.021C67.5791 122.525 67.2201 122.957 66.5741 123.317C65.928 123.677 65.2101 124.037 64.4205 124.181C63.7026 124.397 62.913 124.469 62.1951 124.469C60.0416 124.469 58.3905 123.821 57.1701 122.597C55.9498 121.301 55.3037 119.573 55.3037 117.341C55.3037 115.901 55.5909 114.677 56.0934 113.597C56.6676 112.517 57.3855 111.653 58.3905 111.077C59.3955 110.501 60.4723 110.141 61.7644 110.141C63.5591 110.141 64.9948 110.717 65.9998 111.869C67.0766 113.021 67.5791 114.605 67.5791 116.621C67.5791 116.981 67.5073 117.269 67.3637 117.413C67.2201 117.557 66.933 117.701 66.6459 117.701H57.6009C57.7444 120.941 59.3237 122.597 62.1951 122.597C62.913 122.597 63.5591 122.525 64.0616 122.309C64.5641 122.093 65.1384 121.877 65.7844 121.517C66.2869 121.229 66.5741 121.085 66.7894 121.085C67.0766 121.085 67.2201 121.157 67.3637 121.373ZM59.0366 113.093C58.3187 113.813 57.888 114.893 57.7444 116.261H65.7126C65.6409 114.893 65.3537 113.813 64.6359 113.021C63.9898 112.301 63.0566 111.869 61.908 111.869C60.6876 111.941 59.7544 112.373 59.0366 113.093Z" fill="white"/>
    <path d="M81.146 111.08C82.0792 111.656 82.797 112.52 83.2995 113.6C83.802 114.68 84.0892 115.976 84.0892 117.344C84.0892 118.784 83.802 120.008 83.2995 121.088C82.797 122.168 82.0792 122.96 81.146 123.536C80.2127 124.112 79.136 124.4 77.9156 124.4C76.8388 124.4 75.9056 124.184 75.116 123.68C74.3263 123.176 73.6802 122.528 73.3213 121.664V128.288C73.3213 128.648 73.2495 128.864 73.0342 129.08C72.8188 129.296 72.5317 129.368 72.1727 129.368C71.8138 129.368 71.5267 129.296 71.3113 129.08C71.096 128.864 71.0242 128.576 71.0242 128.288V111.224C71.0242 110.864 71.096 110.648 71.3113 110.432C71.5267 110.216 71.8138 110.144 72.1727 110.144C72.5317 110.144 72.8188 110.216 73.0342 110.432C73.2495 110.648 73.3213 110.936 73.3213 111.224V112.736C73.752 111.872 74.3263 111.224 75.116 110.72C75.9056 110.216 76.8388 110 77.9156 110C79.2077 110.216 80.2127 110.504 81.146 111.08ZM80.6435 121.232C81.3613 120.296 81.7202 119.072 81.7202 117.416C81.7202 115.76 81.3613 114.464 80.6435 113.528C79.9256 112.592 78.8488 112.16 77.5567 112.16C76.1927 112.16 75.1877 112.592 74.4699 113.528C73.752 114.464 73.3931 115.688 73.3931 117.416C73.3931 119.144 73.752 120.368 74.4699 121.304C75.1877 122.24 76.1927 122.672 77.5567 122.672C78.8488 122.6 79.9256 122.168 80.6435 121.232Z" fill="white"/>
    <path d="M94.7855 123.536C94.7855 123.824 94.642 124.112 94.4266 124.256C94.2112 124.4 93.8523 124.472 93.3498 124.472L92.5602 124.4C91.0527 124.256 89.9759 123.824 89.258 123.032C88.5402 122.24 88.1812 121.016 88.1812 119.432V112.304H86.3148C86.0277 112.304 85.7405 112.232 85.597 112.088C85.3816 111.944 85.3098 111.728 85.3098 111.44C85.3098 111.152 85.3816 110.936 85.597 110.792C85.7405 110.648 86.0277 110.504 86.3148 110.504H88.1812V107.336C88.1812 106.976 88.253 106.688 88.4684 106.472C88.6838 106.256 88.9709 106.184 89.3298 106.184C89.6887 106.184 89.9759 106.256 90.1195 106.472C90.3348 106.688 90.4066 106.976 90.4066 107.336V110.504H93.5652C93.8523 110.504 94.1395 110.576 94.283 110.792C94.4266 110.936 94.5702 111.152 94.5702 111.44C94.5702 111.728 94.4984 111.944 94.283 112.088C94.0677 112.232 93.8523 112.304 93.5652 112.304H90.4066V119.504C90.4066 120.512 90.622 121.304 91.0527 121.736C91.4834 122.168 92.1295 122.456 92.9909 122.528L93.7805 122.6C94.4266 122.672 94.7855 122.96 94.7855 123.536Z" fill="white"/>
    <path d="M97.0823 106.903C96.7952 106.615 96.6516 106.327 96.6516 105.823C96.6516 105.391 96.7952 105.103 97.0823 104.815C97.3695 104.527 97.7284 104.383 98.1591 104.383C98.5898 104.383 98.9487 104.527 99.2359 104.815C99.523 105.103 99.6666 105.391 99.6666 105.823C99.6666 106.255 99.523 106.615 99.2359 106.903C98.9487 107.191 98.5898 107.335 98.1591 107.335C97.7284 107.335 97.3695 107.119 97.0823 106.903ZM97.3695 124.183C97.1541 123.967 97.0823 123.679 97.0823 123.319V111.367C97.0823 111.007 97.1541 110.719 97.3695 110.503C97.5848 110.287 97.872 110.215 98.2309 110.215C98.5898 110.215 98.877 110.287 99.0205 110.503C99.2359 110.719 99.3077 111.007 99.3077 111.367V123.319C99.3077 123.679 99.2359 123.967 99.0205 124.183C98.8052 124.399 98.518 124.471 98.2309 124.471C97.9437 124.471 97.5848 124.327 97.3695 124.183Z" fill="white"/>
    <path d="M104.261 124.038C104.045 123.822 103.902 123.606 103.902 123.246V105.462C103.902 105.102 103.974 104.814 104.189 104.598C104.404 104.382 104.691 104.238 105.05 104.238C105.409 104.238 105.696 104.382 105.912 104.598C106.127 104.814 106.199 105.102 106.199 105.462V122.382H115.316C115.675 122.382 115.89 122.454 116.105 122.67C116.321 122.814 116.393 123.102 116.393 123.39C116.393 123.678 116.321 123.966 116.105 124.11C115.89 124.254 115.675 124.398 115.316 124.398H105.05C104.691 124.326 104.476 124.182 104.261 124.038Z" fill="white"/>
    <path d="M129.53 115.615V123.319C129.53 123.679 129.458 123.895 129.243 124.111C129.027 124.327 128.812 124.399 128.453 124.399C128.094 124.399 127.879 124.327 127.663 124.111C127.448 123.895 127.376 123.607 127.376 123.319V121.951C127.017 122.743 126.443 123.391 125.725 123.823C125.007 124.255 124.146 124.471 123.213 124.471C122.351 124.471 121.49 124.327 120.772 123.967C120.054 123.607 119.408 123.103 118.977 122.455C118.547 121.807 118.331 121.087 118.331 120.367C118.331 119.359 118.618 118.495 119.121 117.919C119.623 117.343 120.485 116.911 121.705 116.695C122.926 116.407 124.577 116.335 126.73 116.335H127.376V115.399C127.376 114.247 127.161 113.455 126.658 112.879C126.156 112.303 125.438 112.087 124.433 112.087C123.141 112.087 121.849 112.447 120.557 113.167C120.054 113.455 119.695 113.671 119.48 113.671C119.265 113.671 119.049 113.599 118.906 113.383C118.762 113.239 118.69 113.023 118.69 112.735C118.69 112.447 118.762 112.231 118.906 112.015C119.049 111.799 119.336 111.583 119.695 111.439C120.341 111.079 121.131 110.791 121.921 110.575C122.782 110.359 123.572 110.287 124.433 110.287C127.807 110.215 129.53 112.015 129.53 115.615ZM126.228 121.519C126.946 120.727 127.305 119.791 127.305 118.567V117.775H126.802C125.151 117.775 123.859 117.847 122.997 117.991C122.136 118.135 121.49 118.351 121.131 118.711C120.772 119.071 120.557 119.503 120.557 120.151C120.557 120.871 120.844 121.519 121.346 121.951C121.849 122.455 122.567 122.671 123.356 122.671C124.577 122.671 125.51 122.311 126.228 121.519Z" fill="white"/>
    <path d="M143.815 111.078C144.749 111.654 145.466 112.518 145.969 113.598C146.471 114.678 146.759 115.902 146.759 117.342C146.759 118.782 146.471 120.006 145.969 121.086C145.466 122.166 144.749 123.03 143.815 123.606C142.882 124.182 141.805 124.542 140.657 124.542C139.58 124.542 138.647 124.326 137.857 123.822C137.068 123.318 136.421 122.67 136.063 121.806V123.318C136.063 123.678 135.991 123.894 135.775 124.11C135.56 124.326 135.273 124.398 134.914 124.398C134.555 124.398 134.268 124.326 134.053 124.11C133.837 123.894 133.765 123.606 133.765 123.318V105.318C133.765 105.03 133.837 104.742 134.053 104.526C134.268 104.31 134.555 104.238 134.914 104.238C135.273 104.238 135.56 104.31 135.775 104.526C135.991 104.742 136.063 104.958 136.063 105.318V112.878C136.493 112.014 137.068 111.366 137.857 110.862C138.647 110.358 139.58 110.142 140.657 110.142C141.805 110.214 142.882 110.502 143.815 111.078ZM143.313 121.23C144.031 120.294 144.39 118.998 144.39 117.342C144.39 115.686 144.031 114.462 143.313 113.526C142.595 112.59 141.518 112.158 140.226 112.158C138.862 112.158 137.857 112.59 137.139 113.526C136.421 114.462 136.063 115.686 136.063 117.414C136.063 119.142 136.421 120.366 137.139 121.302C137.857 122.238 138.862 122.67 140.226 122.67C141.518 122.598 142.523 122.166 143.313 121.23Z" fill="white"/>
    <path d="M152.286 124.183C151.496 123.967 150.85 123.679 150.204 123.319C149.845 123.103 149.629 122.887 149.486 122.671C149.342 122.455 149.271 122.239 149.271 121.951C149.271 121.735 149.342 121.519 149.486 121.375C149.629 121.231 149.845 121.159 150.06 121.159C150.276 121.159 150.634 121.303 151.065 121.591C151.639 121.951 152.214 122.167 152.716 122.383C153.291 122.599 153.937 122.671 154.798 122.671C155.803 122.671 156.593 122.527 157.167 122.167C157.741 121.807 158.028 121.303 158.028 120.583C158.028 120.151 157.957 119.863 157.741 119.575C157.526 119.287 157.167 119.071 156.664 118.927C156.162 118.711 155.444 118.495 154.439 118.351C152.788 117.991 151.568 117.487 150.922 116.911C150.204 116.335 149.845 115.471 149.845 114.463C149.845 113.671 150.06 112.951 150.491 112.303C150.922 111.655 151.568 111.223 152.357 110.863C153.147 110.503 154.08 110.359 155.085 110.359C155.803 110.359 156.521 110.431 157.239 110.647C157.957 110.863 158.531 111.151 159.033 111.511C159.679 111.943 159.967 112.447 159.967 112.951C159.967 113.167 159.895 113.383 159.751 113.599C159.608 113.743 159.392 113.887 159.249 113.887C159.033 113.887 158.674 113.743 158.244 113.383C157.741 113.023 157.239 112.807 156.736 112.591C156.234 112.375 155.659 112.303 155.013 112.303C154.152 112.303 153.434 112.519 152.86 112.879C152.357 113.239 152.07 113.815 152.07 114.463C152.07 114.895 152.142 115.183 152.357 115.471C152.573 115.759 152.86 115.975 153.362 116.119C153.793 116.335 154.511 116.479 155.372 116.695C156.664 116.983 157.669 117.271 158.316 117.631C159.033 117.991 159.536 118.351 159.823 118.855C160.11 119.359 160.254 119.935 160.254 120.727C160.254 121.879 159.751 122.887 158.746 123.607C157.741 124.327 156.449 124.687 154.798 124.687C153.865 124.471 153.075 124.399 152.286 124.183Z" fill="white"/>
    <path d="M100.384 15.4643C104.508 15.4643 107.85 12.1118 107.85 7.97628C107.85 3.84077 104.508 0.488281 100.384 0.488281C96.2612 0.488281 92.9187 3.84077 92.9187 7.97628C92.9187 12.1118 96.2612 15.4643 100.384 15.4643Z" fill="#FECF73"/>
    <path d="M65.0655 68.4554C62.6965 68.4554 60.3994 67.3034 58.9637 65.2154C56.6665 61.8314 57.5279 57.2234 60.9019 54.9194L97.8715 29.7195C101.245 27.4155 105.84 28.2795 108.137 31.6635C110.434 35.0474 109.573 39.6554 106.199 41.9594L69.229 67.1594C67.9369 68.0954 66.5012 68.4554 65.0655 68.4554Z" fill="#6185EE"/>
    <path d="M60.3279 42.6797C57.959 42.6797 55.6618 41.5277 54.2261 39.4397C51.929 36.0557 52.7904 31.4477 56.1643 29.1437L74.685 16.5437C78.059 14.2397 82.6533 15.1037 84.9504 18.4877C87.2475 21.8717 86.3861 26.4797 83.0122 28.7837L64.4915 41.3837C63.1993 42.2477 61.7636 42.6797 60.3279 42.6797Z" fill="#73FEBB"/>
    <path d="M78.7772 87.1049C82.9004 87.1049 86.243 83.7524 86.243 79.6169C86.243 75.4814 82.9004 72.1289 78.7772 72.1289C74.654 72.1289 71.3115 75.4814 71.3115 79.6169C71.3115 83.7524 74.654 87.1049 78.7772 87.1049Z" fill="#FE7373"/>
</svg>
