# Exported from Wings 3D 0.99.02
mtllib CubesDupVerts-01.mtl
o cube1
#28 vertices, 24 faces
v -1.00000000 -1.00000000 1.00000000
v -1.00000000 1.00000000 1.00000000
v 1.00000000 1.00000000 1.00000000
v 1.00000000 -1.00000000 1.00000000
v -1.00000000 -1.00000000 -1.00000000
v -1.00000000 1.00000000 -1.00000000
v 1.00000000 1.00000000 -1.00000000
v 1.00000000 -1.00000000 -1.00000000
v 1.00000000 0.0000000e+0 -1.00000000
v 1.00000000 -1.00000000 0.0000000e+0
v 1.00000000 1.00000000 0.0000000e+0
v 1.00000000 0.0000000e+0 1.00000000
v 1.00000000 -0.50000000 0.50000000
v 1.00000000 -0.50000000 -0.50000000
v 1.00000000 0.50000000 -0.50000000
v 1.00000000 0.50000000 0.50000000
v 1.00000000 -0.50000000 0.50000000
v 1.00000000 -0.50000000 -0.50000000
v 1.00000000 0.50000000 -0.50000000
v 1.00000000 0.50000000 0.50000000
v 1.00000000 -0.50000000 0.50000000
v 1.00000000 -0.50000000 -0.50000000
v 1.00000000 0.50000000 -0.50000000
v 1.00000000 0.50000000 0.50000000
v 1.89656889 -0.50000000 0.50000000
v 1.89656889 -0.50000000 -0.50000000
v 1.89656889 0.50000000 -0.50000000
v 1.89656889 0.50000000 0.50000000
vn -0.57735027 -0.57735027 0.57735027
vn -0.57735027 0.57735027 0.57735027
vn 0.57735027 0.57735027 0.57735027
vn 0.57735027 -0.57735027 0.57735027
vn -0.57735027 -0.57735027 -0.57735027
vn -0.57735027 0.57735027 -0.57735027
vn 0.57735027 0.57735027 -0.57735027
vn 0.57735027 -0.57735027 -0.57735027
vn 0.94868330 0.0000000e+0 -0.31622777
vn 0.94868330 -0.31622777 0.0000000e+0
vn 0.94868330 0.31622777 0.0000000e+0
vn 0.94868330 0.0000000e+0 0.31622777
vn 1.00000000 0.0000000e+0 0.0000000e+0
vn 1.00000000 0.0000000e+0 0.0000000e+0
vn 1.00000000 0.0000000e+0 0.0000000e+0
vn 1.00000000 0.0000000e+0 0.0000000e+0
vn 1.00000000 0.0000000e+0 0.0000000e+0
vn 1.00000000 0.0000000e+0 0.0000000e+0
vn 1.00000000 0.0000000e+0 0.0000000e+0
vn 1.00000000 0.0000000e+0 0.0000000e+0
vn -0.57735027 -0.57735027 0.57735027
vn -0.57735027 -0.57735027 -0.57735027
vn -0.57735027 0.57735027 -0.57735027
vn -0.57735027 0.57735027 0.57735027
vn 0.57735027 -0.57735027 0.57735027
vn 0.57735027 -0.57735027 -0.57735027
vn 0.57735027 0.57735027 -0.57735027
vn 0.57735027 0.57735027 0.57735027
g cube1
usemtl default
f 1//1 4//4 12//12 3//3 2//2
f 1//1 5//5 8//8 10//10 4//4
f 2//2 6//6 5//5 1//1
f 3//3 11//11 7//7 6//6 2//2
f 6//6 7//7 9//9 8//8 5//5
f 7//7 11//11 15//15 9//9
f 9//9 14//14 10//10 8//8
f 9//9 15//15 14//14
f 10//10 13//13 12//12 4//4
f 10//10 14//14 13//13
f 11//11 16//16 15//15
f 12//12 13//13 16//16
f 12//12 16//16 11//11 3//3
f 13//13 17//17 20//20 16//16
f 14//14 18//18 17//17 13//13
f 15//15 19//19 18//18 14//14
f 16//16 20//20 19//19 15//15
f 18//18 19//19 20//20 17//17
f 21//21 24//24 23//23 22//22
f 21//21 25//25 28//28 24//24
f 22//22 26//26 25//25 21//21
f 23//23 27//27 26//26 22//22
f 24//24 28//28 27//27 23//23
f 26//26 27//27 28//28 25//25
