# Exported from Wings 3D 2.2.5
mtllib CutterT1.mtl
o Cutter
#4 vertices, 2 faces
v -1.00000000 0.0000000e+0 -1.00000000
v -1.00000000 0.0000000e+0 1.00000000
v 1.00000000 0.0000000e+0 -1.00000000
v 1.00000000 0.0000000e+0 1.00000000
vn 0.0000000e+0 0.0000000e+0 0.0000000e+0
vn 0.0000000e+0 0.0000000e+0 0.0000000e+0
vn 0.0000000e+0 0.0000000e+0 0.0000000e+0
vn 0.0000000e+0 0.0000000e+0 0.0000000e+0
g Cutter
usemtl default
s 1
f 1//1 3//3 4//4 2//2
f 2//2 4//4 3//3 1//1
o Cylinder1
#32 vertices, 18 faces
v 0.50000000 1.00000000 -1.7347235e-18
v 0.46193977 1.00000000 0.19134172
v 0.35355339 1.00000000 0.35355339
v 0.19134172 1.00000000 0.46193977
v 8.0647648e-18 1.00000000 0.50000000
v -0.19134172 1.00000000 0.46193977
v -0.35355339 1.00000000 0.35355339
v -0.46193977 1.00000000 0.19134172
v -0.50000000 1.00000000 5.9497616e-17
v -0.46193977 1.00000000 -0.19134172
v -0.35355339 1.00000000 -0.35355339
v -0.19134172 1.00000000 -0.46193977
v -1.1439992e-16 1.00000000 -0.50000000
v 0.19134172 1.00000000 -0.46193977
v 0.35355339 1.00000000 -0.35355339
v 0.46193977 1.00000000 -0.19134172
v 0.50000000 -1.00000000 -1.7347235e-18
v 0.46193977 -1.00000000 0.19134172
v 0.35355339 -1.00000000 0.35355339
v 0.19134172 -1.00000000 0.46193977
v 8.0647648e-18 -1.00000000 0.50000000
v -0.19134172 -1.00000000 0.46193977
v -0.35355339 -1.00000000 0.35355339
v -0.46193977 -1.00000000 0.19134172
v -0.50000000 -1.00000000 5.9497616e-17
v -0.46193977 -1.00000000 -0.19134172
v -0.35355339 -1.00000000 -0.35355339
v -0.19134172 -1.00000000 -0.46193977
v -1.1439992e-16 -1.00000000 -0.50000000
v 0.19134172 -1.00000000 -0.46193977
v 0.35355339 -1.00000000 -0.35355339
v 0.46193977 -1.00000000 -0.19134172
vn 0.89090915 0.45418155 -1.3866677e-16
vn 0.82309273 0.45418155 0.34093617
vn 0.62996790 0.45418155 0.62996790
vn 0.34093617 0.45418155 0.82309273
vn 0.0000000e+0 0.45418155 0.89090915
vn -0.34093617 0.45418155 0.82309273
vn -0.62996790 0.45418155 0.62996790
vn -0.82309273 0.45418155 0.34093617
vn -0.89090915 0.45418155 1.0084856e-16
vn -0.82309273 0.45418155 -0.34093617
vn -0.62996790 0.45418155 -0.62996790
vn -0.34093617 0.45418155 -0.82309273
vn -1.3866677e-16 0.45418155 -0.89090915
vn 0.34093617 0.45418155 -0.82309273
vn 0.62996790 0.45418155 -0.62996790
vn 0.82309273 0.45418155 -0.34093617
vn 0.89090915 -0.45418155 -8.8242492e-17
vn 0.82309273 -0.45418155 0.34093617
vn 0.62996790 -0.45418155 0.62996790
vn 0.34093617 -0.45418155 0.82309273
vn 0.0000000e+0 -0.45418155 0.89090915
vn -0.34093617 -0.45418155 0.82309273
vn -0.62996790 -0.45418155 0.62996790
vn -0.82309273 -0.45418155 0.34093617
vn -0.89090915 -0.45418155 1.5127284e-16
vn -0.82309273 -0.45418155 -0.34093617
vn -0.62996790 -0.45418155 -0.62996790
vn -0.34093617 -0.45418155 -0.82309273
vn -1.3866677e-16 -0.45418155 -0.89090915
vn 0.34093617 -0.45418155 -0.82309273
vn 0.62996790 -0.45418155 -0.62996790
vn 0.82309273 -0.45418155 -0.34093617
g Cylinder1
usemtl default
s 1
f 5//5 20//20 19//19 18//18 17//17 16//16 15//15 14//14 13//13 12//12 11//11 10//10 9//9 8//8 7//7 6//6
f 5//5 21//21 36//36 20//20
f 6//6 22//22 21//21 5//5
f 7//7 23//23 22//22 6//6
f 8//8 24//24 23//23 7//7
f 9//9 25//25 24//24 8//8
f 10//10 26//26 25//25 9//9
f 11//11 27//27 26//26 10//10
f 12//12 28//28 27//27 11//11
f 13//13 29//29 28//28 12//12
f 14//14 30//30 29//29 13//13
f 15//15 31//31 30//30 14//14
f 16//16 32//32 31//31 15//15
f 17//17 33//33 32//32 16//16
f 18//18 34//34 33//33 17//17
f 19//19 35//35 34//34 18//18
f 20//20 36//36 35//35 19//19
f 22//22 23//23 24//24 25//25 26//26 27//27 28//28 29//29 30//30 31//31 32//32 33//33 34//34 35//35 36//36 21//21
