<?xml version="1.0" encoding="UTF-8" standalone="no"?>
<!-- Created with Inkscape (http://www.inkscape.org/) -->

<svg
   xmlns:osb="http://www.openswatchbook.org/uri/2009/osb"
   xmlns:dc="http://purl.org/dc/elements/1.1/"
   xmlns:cc="http://creativecommons.org/ns#"
   xmlns:rdf="http://www.w3.org/1999/02/22-rdf-syntax-ns#"
   xmlns:svg="http://www.w3.org/2000/svg"
   xmlns="http://www.w3.org/2000/svg"
   xmlns:xlink="http://www.w3.org/1999/xlink"
   xmlns:sodipodi="http://sodipodi.sourceforge.net/DTD/sodipodi-0.dtd"
   xmlns:inkscape="http://www.inkscape.org/namespaces/inkscape"
   width="402.92654"
   height="394.91791"
   viewBox="0 0 106.60765 104.4887"
   version="1.1"
   id="svg8"
   inkscape:version="0.92.2 (5c3e80d, 2017-08-06)"
   sodipodi:docname="trashpanda-icon.svg"
   inkscape:export-filename="/run/media/feldnager/white/dev/trashpanda/trashpanda-icon.png"
   inkscape:export-xdpi="96"
   inkscape:export-ydpi="96">
  <defs
     id="defs2">
    <linearGradient
       id="linearGradient2596"
       inkscape:collect="always">
      <stop
         id="stop2592"
         offset="0"
         style="stop-color:#00fcfc;stop-opacity:1" />
      <stop
         id="stop2594"
         offset="1"
         style="stop-color:#ff9500;stop-opacity:0.50769234" />
    </linearGradient>
    <linearGradient
       inkscape:collect="always"
       id="linearGradient2559-4">
      <stop
         style="stop-color:#00fcfc;stop-opacity:1"
         offset="0"
         id="stop2555" />
      <stop
         style="stop-color:#ff00fa;stop-opacity:0"
         offset="1"
         id="stop2557" />
    </linearGradient>
    <linearGradient
       id="linearGradient2506"
       osb:paint="solid">
      <stop
         style="stop-color:#ff0000;stop-opacity:1;"
         offset="0"
         id="stop2504" />
    </linearGradient>
    <linearGradient
       inkscape:collect="always"
       id="linearGradient916-9-9-5">
      <stop
         style="stop-color:#808080;stop-opacity:1;"
         offset="0"
         id="stop912" />
      <stop
         style="stop-color:#808080;stop-opacity:0;"
         offset="1"
         id="stop914" />
    </linearGradient>
    <linearGradient
       inkscape:collect="always"
       xlink:href="#linearGradient916-9-9-5"
       id="linearGradient918"
       x1="114.42398"
       y1="133.10333"
       x2="113.85587"
       y2="158.84972"
       gradientUnits="userSpaceOnUse"
       gradientTransform="matrix(0.85369347,0,0,1.0057188,16.732191,-0.90842483)" />
    <radialGradient
       inkscape:collect="always"
       xlink:href="#linearGradient2559-4"
       id="radialGradient2561"
       cx="114.49451"
       cy="152.30405"
       fx="114.49451"
       fy="152.30405"
       r="45.158356"
       gradientUnits="userSpaceOnUse"
       gradientTransform="matrix(4.2201556,-3.522541e-4,8.4931085e-5,1.0175909,-368.70306,-2.6388428)" />
    <radialGradient
       inkscape:collect="always"
       xlink:href="#linearGradient2596"
       id="radialGradient2561-0"
       cx="114.49451"
       cy="152.30405"
       fx="114.49451"
       fy="152.30405"
       r="45.158356"
       gradientUnits="userSpaceOnUse"
       gradientTransform="matrix(4.2201556,-3.522541e-4,8.4931085e-5,1.0175909,-368.70306,-2.6388428)" />
  </defs>
  <sodipodi:namedview
     id="base"
     pagecolor="#ffffff"
     bordercolor="#666666"
     borderopacity="1.0"
     inkscape:pageopacity="0.0"
     inkscape:pageshadow="2"
     inkscape:zoom="1.4"
     inkscape:cx="159.69776"
     inkscape:cy="206.43522"
     inkscape:document-units="mm"
     inkscape:current-layer="layer1"
     showgrid="false"
     inkscape:window-width="1920"
     inkscape:window-height="997"
     inkscape:window-x="0"
     inkscape:window-y="28"
     inkscape:window-maximized="1"
     fit-margin-top="4"
     fit-margin-left="4"
     fit-margin-right="4"
     fit-margin-bottom="4"
     units="px"
     inkscape:snap-object-midpoints="false"
     inkscape:snap-global="false" />
  <metadata
     id="metadata5">
    <rdf:RDF>
      <cc:Work
         rdf:about="">
        <dc:format>image/svg+xml</dc:format>
        <dc:type
           rdf:resource="http://purl.org/dc/dcmitype/StillImage" />
        <dc:title></dc:title>
      </cc:Work>
    </rdf:RDF>
  </metadata>
  <g
     inkscape:label="Layer 1"
     inkscape:groupmode="layer"
     id="layer1"
     transform="translate(-61.324316,-99.653136)">
    <path
       sodipodi:type="star"
       style="opacity:0.48200001;fill:url(#radialGradient2561-0);fill-opacity:1;stroke:none;stroke-width:0.35414845;stroke-linecap:round;stroke-linejoin:round;stroke-miterlimit:4;stroke-dasharray:none;stroke-dashoffset:0;stroke-opacity:1;paint-order:fill markers stroke"
       id="path2553-9"
       sodipodi:sides="25"
       sodipodi:cx="114.76179"
       sodipodi:cy="152.03677"
       sodipodi:r1="45.158356"
       sodipodi:r2="38.324905"
       sodipodi:arg1="0.78539816"
       sodipodi:arg2="0.91106187"
       inkscape:flatsided="false"
       inkscape:rounded="0"
       inkscape:randomized="0"
       d="m 146.69357,183.96855 -8.44218,-1.64916 -0.50213,8.58708 -7.76682,-3.69684 -2.62187,8.19243 -6.60345,-5.51222 -4.57687,7.28301 -5.02515,-6.98126 -6.2443,5.91598 -3.13111,-8.01163 -7.519367,4.17722 -1.040328,-8.5386 -8.321964,2.176 1.115821,-8.52907 -8.601663,0.038 3.201858,-7.98361 -8.340888,-2.1023 5.086711,-6.93653 -7.556024,-4.11054 6.651947,-5.45359 -6.296387,-5.86051 7.799217,-3.62798 -4.641125,-7.24224 8.456433,-1.57442 -2.694245,-8.16891 8.582301,0.57807 -0.578074,-8.5823 8.16891,2.69425 1.574419,-8.45644 7.242238,4.64113 3.62798,-7.79922 5.86051,6.29639 5.45359,-6.65195 4.11055,7.55603 6.93652,-5.08671 2.1023,8.34088 7.98362,-3.20186 -0.038,8.60167 8.52907,-1.11582 -2.176,8.32196 8.53861,1.04033 -4.17723,7.51936 8.01163,3.13111 -5.91597,6.2443 6.98125,5.02515 -7.28301,4.57688 5.51222,6.60344 -8.19242,2.62188 3.69683,7.76682 -8.58708,0.50213 z"
       inkscape:transform-center-y="-5.3141223e-06"
       inkscape:transform-center-x="-1.1789505e-05"
       transform="matrix(1.1597994,0,0,1.1242884,-18.575809,-18.595644)" />
    <path
       sodipodi:type="star"
       style="fill:url(#radialGradient2561);fill-opacity:1;stroke:none;stroke-width:0.35414845;stroke-linecap:round;stroke-linejoin:round;stroke-miterlimit:4;stroke-dasharray:none;stroke-dashoffset:0;stroke-opacity:1;paint-order:fill markers stroke"
       id="path2553"
       sodipodi:sides="25"
       sodipodi:cx="114.76179"
       sodipodi:cy="152.03677"
       sodipodi:r1="45.158356"
       sodipodi:r2="38.324905"
       sodipodi:arg1="0.78539816"
       sodipodi:arg2="0.91106187"
       inkscape:flatsided="false"
       inkscape:rounded="0"
       inkscape:randomized="0"
       d="m 146.69357,183.96855 -8.44218,-1.64916 -0.50213,8.58708 -7.76682,-3.69684 -2.62187,8.19243 -6.60345,-5.51222 -4.57687,7.28301 -5.02515,-6.98126 -6.2443,5.91598 -3.13111,-8.01163 -7.519367,4.17722 -1.040328,-8.5386 -8.321964,2.176 1.115821,-8.52907 -8.601663,0.038 3.201858,-7.98361 -8.340888,-2.1023 5.086711,-6.93653 -7.556024,-4.11054 6.651947,-5.45359 -6.296387,-5.86051 7.799217,-3.62798 -4.641125,-7.24224 8.456433,-1.57442 -2.694245,-8.16891 8.582301,0.57807 -0.578074,-8.5823 8.16891,2.69425 1.574419,-8.45644 7.242238,4.64113 3.62798,-7.79922 5.86051,6.29639 5.45359,-6.65195 4.11055,7.55603 6.93652,-5.08671 2.1023,8.34088 7.98362,-3.20186 -0.038,8.60167 8.52907,-1.11582 -2.176,8.32196 8.53861,1.04033 -4.17723,7.51936 8.01163,3.13111 -5.91597,6.2443 6.98125,5.02515 -7.28301,4.57688 5.51222,6.60344 -8.19242,2.62188 3.69683,7.76682 -8.58708,0.50213 z"
       inkscape:transform-center-y="-0.24372389"
       inkscape:transform-center-x="0.22302614"
       transform="matrix(0.94798436,0.6681769,-0.64771852,0.91895878,104.523,-64.401137)" />
    <g
       id="g1046"
       transform="matrix(1.2448816,0,0,1.2448816,-28.527068,-42.170474)">
      <path
         sodipodi:nodetypes="sssssssss"
         inkscape:connector-curvature="0"
         id="path835-32-2"
         d="m 146.68554,157.92813 c 1.29239,4.13264 -4.48305,9.35526 -7.58642,12.28522 -3.30561,3.12086 -4.44261,4.12145 -8.20522,6.65509 -3.72304,2.50698 -10.78464,3.68419 -15.76755,3.68419 -6.80141,0 -13.79322,-1.64436 -17.8735,-4.7368 -3.06949,-2.32637 -4.92283,-4.16219 -7.87887,-7.24742 -1.86568,-1.9472 -6.03576,-7.73485 -5.42884,-11.01825 2.55134,-13.80265 15.00406,-25.27035 31.18121,-25.27035 16.17715,0 26.26752,8.72737 31.55919,25.64832 z"
         style="opacity:1;fill:#fffafa;fill-opacity:1;stroke:none;stroke-width:0.97746933;stroke-linecap:round;stroke-linejoin:bevel;stroke-miterlimit:4;stroke-dasharray:none;stroke-dashoffset:0;stroke-opacity:1" />
      <path
         sodipodi:nodetypes="cccsccc"
         inkscape:connector-curvature="0"
         id="path835-3"
         d="m 113.93021,158.84971 c -2.42318,-5.39113 -7.82476,-9.84711 -7.24633,-3.58088 -9.19674,-0.19741 -17.580669,-3.9077 -22.750685,2.48599 1.994127,-13.83639 16.470255,-25.65222 31.285195,-25.60305 15.1977,0.0504 29.33564,12.00468 31.31534,25.77109 0,0 -14.98861,-5.48 -25.74375,-2.33618 0.83317,-7.30185 -5.08924,0.62977 -6.85977,3.26303 z"
         style="opacity:1;fill:url(#linearGradient918);fill-opacity:1;fill-rule:nonzero;stroke:none;stroke-width:0.24189723;stroke-linecap:round;stroke-linejoin:bevel;stroke-miterlimit:4;stroke-dasharray:none;stroke-dashoffset:0;stroke-opacity:1" />
      <path
         sodipodi:nodetypes="sssssssss"
         inkscape:connector-curvature="0"
         id="path835-32"
         d="m 146.68554,157.92813 c 1.29239,4.13264 -4.48305,9.35527 -7.58642,12.28522 -3.30561,3.12087 -4.44261,4.12146 -8.20522,6.65509 -3.72304,2.50698 -10.78464,3.6842 -15.76755,3.6842 -6.80141,0 -13.79322,-1.64437 -17.873493,-4.73681 -3.069496,-2.32637 -4.922839,-4.16219 -7.878877,-7.24741 -1.865675,-1.94721 -6.035757,-7.73485 -5.428837,-11.01826 2.551337,-13.80264 15.004056,-25.27034 31.181207,-25.27034 16.17715,0 26.26752,8.72737 31.55919,25.64831 z"
         style="opacity:1;fill:none;fill-opacity:1;stroke:#000000;stroke-width:0.97746927;stroke-linecap:round;stroke-linejoin:bevel;stroke-miterlimit:4;stroke-dasharray:none;stroke-dashoffset:0;stroke-opacity:1" />
      <path
         sodipodi:nodetypes="cscsc"
         inkscape:connector-curvature="0"
         id="path873"
         d="m 125.69863,178.17792 c -10e-6,4.08254 -5.19219,7.39209 -11.59708,7.39209 -6.40489,0 -11.59708,-3.30955 -11.59709,-7.39209 0,-4.08255 7.19533,-10.12322 11.59709,-10.19843 4.26378,-0.0728 11.59708,6.11589 11.59708,10.19843 z"
         style="opacity:1;fill:#fffafa;fill-opacity:1;stroke:#000000;stroke-width:1.05833328;stroke-linecap:round;stroke-linejoin:bevel;stroke-miterlimit:4;stroke-dasharray:none;stroke-dashoffset:0;stroke-opacity:1" />
      <g
         id="g1026">
        <path
           style="opacity:1;fill:#000000;fill-opacity:1;stroke:none;stroke-width:1.03105247;stroke-linecap:round;stroke-linejoin:bevel;stroke-miterlimit:4;stroke-dasharray:none;stroke-dashoffset:0;stroke-opacity:1"
           d="m 194.26172,187.26367 a 48.550877,33.244074 32.389294 0 0 -28.41406,13.39258 48.550877,33.244074 32.389294 0 0 25.54882,53.95117 48.550877,33.244074 32.389294 0 0 27.21094,8.97656 110.70737,91.22424 0 0 0 33.53516,-26.86328 48.550877,33.244074 32.389294 0 0 -28.47461,-40.31445 48.550877,33.244074 32.389294 0 0 -29.40625,-9.14258 z"
           transform="matrix(0.26458333,0,0,0.26458333,72.666826,107.20817)"
           id="path854-9"
           inkscape:connector-curvature="0" />
        <path
           style="opacity:1;fill:#000000;fill-opacity:1;stroke:none;stroke-width:0.99993342;stroke-linecap:round;stroke-linejoin:bevel;stroke-miterlimit:4;stroke-dasharray:none;stroke-dashoffset:0;stroke-opacity:1"
           d="m 122.59961,188.57422 a 31.752065,47.810129 62.621952 0 0 -30.78711,8.10937 31.752065,47.810129 62.621952 0 0 -28.619141,33.61914 110.70737,91.22424 0 0 0 31.822266,29.69141 31.752065,47.810129 62.621952 0 0 28.093755,-8.02539 31.752065,47.810129 62.621952 0 0 26.43164,-50.32031 31.752065,47.810129 62.621952 0 0 -26.94141,-13.07422 z"
           transform="matrix(0.26458333,0,0,0.26458333,72.666826,107.20817)"
           id="path854-9-5"
           inkscape:connector-curvature="0" />
        <ellipse
           style="opacity:1;fill:#000000;fill-opacity:1;stroke:none;stroke-width:0.25759733;stroke-linecap:round;stroke-linejoin:bevel;stroke-miterlimit:4;stroke-dasharray:none;stroke-dashoffset:0;stroke-opacity:1"
           id="path871"
           cx="113.88155"
           cy="177.06042"
           rx="5.3821378"
           ry="4.4884672" />
        <ellipse
           style="opacity:1;fill:#000000;fill-opacity:1;stroke:none;stroke-width:0.29903668;stroke-linecap:round;stroke-linejoin:bevel;stroke-miterlimit:4;stroke-dasharray:none;stroke-dashoffset:0;stroke-opacity:1"
           id="path892"
           cx="114.00707"
           cy="161.92239"
           rx="3.7857668"
           ry="15.788141" />
      </g>
      <g
         transform="translate(-0.26726953,0.80180858)"
         style="stroke-width:1.05833328;stroke-miterlimit:4;stroke-dasharray:none"
         id="g1016">
        <circle
           style="opacity:1;fill:#000000;fill-opacity:1;stroke:#ffffff;stroke-width:1.05833328;stroke-linecap:round;stroke-linejoin:bevel;stroke-miterlimit:4;stroke-dasharray:none;stroke-dashoffset:0;stroke-opacity:1"
           id="path837"
           cx="104.36867"
           cy="163.24367"
           r="4.710288" />
        <circle
           style="opacity:1;fill:#000000;fill-opacity:1;stroke:#ffffff;stroke-width:1.05833328;stroke-linecap:round;stroke-linejoin:bevel;stroke-miterlimit:4;stroke-dasharray:none;stroke-dashoffset:0;stroke-opacity:1"
           id="path837-7"
           cx="125.86607"
           cy="163.7634"
           r="4.6649094" />
        <ellipse
           style="opacity:1;fill:#ffffff;fill-opacity:1;stroke:#ffffff;stroke-width:1.05834854;stroke-linecap:round;stroke-linejoin:bevel;stroke-miterlimit:4;stroke-dasharray:none;stroke-dashoffset:0;stroke-opacity:1"
           id="path915-8"
           cx="-46.778137"
           cy="197.71245"
           rx="1.3930608"
           ry="0.51199073"
           transform="matrix(0.62772781,-0.77843291,0.77365969,0.63360136,0,0)" />
        <ellipse
           style="opacity:1;fill:#ffffff;fill-opacity:1;stroke:#ffffff;stroke-width:1.05834854;stroke-linecap:round;stroke-linejoin:bevel;stroke-miterlimit:4;stroke-dasharray:none;stroke-dashoffset:0;stroke-opacity:1"
           id="path915-8-7"
           cx="-59.884087"
           cy="180.86499"
           rx="1.3930608"
           ry="0.51199073"
           transform="matrix(0.62772782,-0.7784329,0.77365969,0.63360136,0,0)" />
      </g>
      <path
         inkscape:connector-curvature="0"
         id="path875-0"
         d="m 88.436777,124.0323 c -0.532117,-0.004 -1.00716,0.10356 -1.410748,0.3364 -3.68996,2.12882 -2.707316,13.32817 1.777613,19.76624 0.839521,1.20512 1.611864,2.24038 2.361284,3.09774 a 24.726151,20.221616 0 0 1 13.748934,-10.07643 c -0.0138,-0.02 -0.0262,-0.0388 -0.0402,-0.0589 -3.9944,-5.73389 -12.10399,-13.03946 -16.436954,-13.06507 z"
         style="opacity:1;fill:#fffafa;fill-opacity:1;stroke:#000000;stroke-width:0.89002615;stroke-linecap:round;stroke-linejoin:bevel;stroke-miterlimit:4;stroke-dasharray:none;stroke-dashoffset:0;stroke-opacity:1" />
      <path
         inkscape:connector-curvature="0"
         id="path875-2-1-7"
         d="m 142.45106,127.32164 c -4.82513,-0.13341 -12.74403,4.12114 -16.64508,9.10214 -0.0274,0.0349 -0.0511,0.0694 -0.078,0.10424 a 24.949212,20.717911 0 0 1 13.34916,13.49173 c 0.32141,-0.35036 0.64709,-0.73237 0.97848,-1.1555 4.80127,-6.13046 8.86883,-17.80741 5.15384,-20.70425 -0.69658,-0.54316 -1.645,-0.80757 -2.7585,-0.83836 z"
         style="opacity:1;fill:#fffafa;fill-opacity:1;stroke:#000000;stroke-width:0.90493619;stroke-linecap:round;stroke-linejoin:bevel;stroke-miterlimit:4;stroke-dasharray:none;stroke-dashoffset:0;stroke-opacity:1" />
      <path
         inkscape:connector-curvature="0"
         id="path875-2-1-7-6"
         d="m 140.12108,132.79929 c -3.49876,-0.56978 -9.08608,1.65855 -11.73871,4.79636 -0.0186,0.022 -0.0346,0.044 -0.0529,0.066 a 18.713871,14.049553 22.971227 0 1 10.13363,10.85548 c 0.22062,-0.21609 0.44325,-0.45413 0.66859,-0.72069 3.26476,-3.86193 5.80632,-11.71817 3.01587,-14.13259 -0.52321,-0.45272 -1.21918,-0.73313 -2.02658,-0.8646 z"
         style="opacity:1;fill:#000000;fill-opacity:1;stroke:#000000;stroke-width:0.645401;stroke-linecap:round;stroke-linejoin:bevel;stroke-miterlimit:4;stroke-dasharray:none;stroke-dashoffset:0;stroke-opacity:1" />
      <path
         sodipodi:nodetypes="cccccc"
         inkscape:connector-curvature="0"
         id="path875-0-1"
         d="m 89.977624,130.22843 c -0.377265,0.0291 -0.712252,0.13231 -0.994541,0.31837 -3.855058,2.3943 -0.304123,12.02784 2.90611,15.31118 2.390508,-3.0244 5.957628,-6.29719 9.782167,-7.82802 -2.773918,-2.92223 -8.35633,-7.90301 -11.693822,-7.80149 z"
         style="opacity:1;fill:#000000;fill-opacity:1;stroke:#000000;stroke-width:0.62538141;stroke-linecap:round;stroke-linejoin:bevel;stroke-miterlimit:4;stroke-dasharray:none;stroke-dashoffset:0;stroke-opacity:1" />
    </g>
  </g>
</svg>
