<?xml version="1.0" encoding="UTF-8"?>
<svg xmlns="http://www.w3.org/2000/svg" xmlns:xlink="http://www.w3.org/1999/xlink" width="372pt" height="200pt" viewBox="0 0 372 200" version="1.1">
<g id="surface1">
<path style=" stroke:none;fill-rule:nonzero;fill:rgb(3.137255%,48.235294%,73.333333%);fill-opacity:1;" d="M 323.621094 93.226562 L 366.421875 5.40625 L 70.101562 5.40625 L 3.457031 93.226562 L 323.621094 93.226562 "/>
<path style="fill:none;stroke-width:0.5;stroke-linecap:butt;stroke-linejoin:miter;stroke:rgb(100%,100%,100%);stroke-opacity:1;stroke-miterlimit:4;" d="M 46.977256 13.518984 L 53.190272 0.783906 L 10.176033 0.783906 L 0.501827 13.518984 Z M 46.977256 13.518984 " transform="matrix(6.888889,0,0,6.896552,0,0)"/>
<path style=" stroke:none;fill-rule:nonzero;fill:rgb(3.137255%,48.235294%,73.333333%);fill-opacity:1;" d="M 366.414062 85.109375 L 366.414062 5.40625 L 323.621094 93.226562 L 323.621094 187.917969 L 366.414062 85.109375 "/>
<path style="fill:none;stroke-width:0.5;stroke-linecap:butt;stroke-linejoin:miter;stroke:rgb(100%,100%,100%);stroke-opacity:1;stroke-miterlimit:4;" d="M 53.189138 12.340859 L 53.189138 0.783906 L 46.977256 13.518984 L 46.977256 27.249238 Z M 53.189138 12.340859 " transform="matrix(6.888889,0,0,6.896552,0,0)"/>
<path style=" stroke:none;fill-rule:nonzero;fill:rgb(3.137255%,48.235294%,73.333333%);fill-opacity:1;" d="M 323.621094 187.925781 L 323.621094 93.234375 L 3.429688 93.234375 L 3.539062 187.925781 L 323.625 187.925781 "/>
<path style="fill:none;stroke-width:0.5;stroke-linecap:butt;stroke-linejoin:miter;stroke:rgb(100%,100%,100%);stroke-opacity:1;stroke-miterlimit:4;" d="M 46.977256 27.249238 L 46.977256 13.518984 L 0.497858 13.518984 L 0.513735 27.249238 L 46.977823 27.249238 Z M 46.977256 27.249238 " transform="matrix(6.888889,0,0,6.896552,0,0)"/>
<path style=" stroke:none;fill-rule:nonzero;fill:rgb(100%,100%,100%);fill-opacity:1;" d="M 312.597656 46.757812 L 192.199219 30.964844 L 186.621094 39.550781 L 81.941406 39.457031 L 69.089844 53.929688 L 177.375 53.863281 L 171.953125 62.21875 L 312.597656 46.757812 "/>
</g>
</svg>
