<?xml version="1.0" encoding="UTF-8"?>
<svg xmlns="http://www.w3.org/2000/svg" xmlns:xlink="http://www.w3.org/1999/xlink" width="296pt" height="200pt" viewBox="0 0 296 200" version="1.1">
<g id="surface1">
<path style=" stroke:none;fill-rule:nonzero;fill:rgb(3.137255%,48.235294%,73.333333%);fill-opacity:1;" d="M 297.449219 59.289062 C 297.449219 91.140625 231.222656 116.96875 149.5625 116.96875 C 67.84375 116.96875 1.601562 91.140625 1.601562 59.289062 L 1.601562 143.773438 C 1.601562 175.621094 67.835938 201.453125 149.5625 201.453125 C 231.222656 201.453125 297.449219 175.621094 297.449219 143.773438 L 297.449219 59.289062 "/>
<path style="fill:none;stroke-width:0.5;stroke-linecap:butt;stroke-linejoin:miter;stroke:rgb(100%,100%,100%);stroke-opacity:1;stroke-miterlimit:4;" d="M 46.225216 9.189805 C 46.225216 14.126797 35.933251 18.130156 23.242821 18.130156 C 10.543285 18.130156 0.248891 14.126797 0.248891 9.189805 L 0.248891 22.284883 C 0.248891 27.22127 10.542071 31.225234 23.242821 31.225234 C 35.933251 31.225234 46.225216 27.22127 46.225216 22.284883 Z M 46.225216 9.189805 " transform="matrix(6.434783,0,0,6.451613,0,0)"/>
<path style=" stroke:none;fill-rule:nonzero;fill:rgb(3.137255%,48.235294%,73.333333%);fill-opacity:1;" d="M 149.5625 116.96875 C 231.222656 116.96875 297.449219 91.136719 297.449219 59.289062 C 297.449219 27.433594 231.222656 1.601562 149.5625 1.601562 C 67.84375 1.601562 1.601562 27.433594 1.601562 59.289062 C 1.601562 91.136719 67.835938 116.96875 149.5625 116.96875 "/>
<path style="fill:none;stroke-width:0.5;stroke-linecap:butt;stroke-linejoin:miter;stroke:rgb(100%,100%,100%);stroke-opacity:1;stroke-miterlimit:4;" d="M 23.242821 18.130156 C 35.933251 18.130156 46.225216 14.126191 46.225216 9.189805 C 46.225216 4.252207 35.933251 0.248242 23.242821 0.248242 C 10.543285 0.248242 0.248891 4.252207 0.248891 9.189805 C 0.248891 14.126191 10.542071 18.130156 23.242821 18.130156 Z M 23.242821 18.130156 " transform="matrix(6.434783,0,0,6.451613,0,0)"/>
<path style=" stroke:none;fill-rule:nonzero;fill:rgb(100%,100%,100%);fill-opacity:1;" d="M 115.789062 36.734375 L 127.976562 55.097656 L 81.785156 65.804688 L 91.871094 57.394531 L 20.488281 45.140625 L 38.390625 31.695312 L 107.300781 43.375 L 115.789062 36.730469 M 180.726562 81.277344 L 172.40625 62.34375 L 214.058594 53.992188 L 206.839844 60.484375 L 276.277344 72.359375 L 259.617188 85.75 L 190.59375 72.742188 L 180.726562 81.277344 M 157.980469 26.710938 L 204.605469 13.898438 L 205.171875 33.960938 L 193.519531 31.730469 L 170.742188 50.652344 L 149.023438 47.476562 L 172.492188 28.949219 L 157.980469 26.710938 M 137.992188 98.542969 L 93.535156 106.917969 L 91.871094 86.316406 L 104.660156 89.089844 L 129.109375 68.136719 L 150.753906 71.820312 L 124.640625 94.65625 L 137.992188 98.542969 M 216.265625 159.554688 C 216.265625 177.832031 187.507812 192.671875 152.105469 192.671875 C 116.664062 192.671875 87.917969 177.832031 87.917969 159.554688 C 87.917969 141.289062 116.664062 126.457031 152.105469 126.457031 C 187.507812 126.457031 216.261719 141.289062 216.261719 159.554688 "/>
<path style=" stroke:none;fill-rule:nonzero;fill:rgb(3.137255%,48.235294%,73.333333%);fill-opacity:1;" d="M 112.769531 164.878906 L 132.621094 144.972656 L 122.910156 135.238281 L 152.890625 133.128906 L 151.191406 163.621094 L 140.632812 153.039062 L 120.8125 172.910156 L 112.769531 164.878906 "/>
<path style="fill:none;stroke-width:0.5;stroke-linecap:butt;stroke-linejoin:miter;stroke:rgb(100%,100%,100%);stroke-opacity:1;stroke-miterlimit:4;" d="M 17.524995 25.55623 L 20.610035 22.470762 L 19.100903 20.961934 L 23.76003 20.63498 L 23.495962 25.36127 L 21.855099 23.721055 L 18.774916 26.801074 Z M 17.524995 25.55623 " transform="matrix(6.434783,0,0,6.451613,0,0)"/>
<path style=" stroke:none;fill-rule:nonzero;fill:rgb(3.137255%,48.235294%,73.333333%);fill-opacity:1;" d="M 148.425781 180.949219 L 168.28125 161.039062 L 158.574219 151.308594 L 188.519531 149.195312 L 186.847656 179.683594 L 176.269531 169.101562 L 156.46875 188.980469 L 148.425781 180.949219 "/>
<path style="fill:none;stroke-width:0.5;stroke-linecap:butt;stroke-linejoin:miter;stroke:rgb(100%,100%,100%);stroke-opacity:1;stroke-miterlimit:4;" d="M 23.066169 28.047129 L 26.151816 24.961055 L 24.643291 23.452832 L 29.296954 23.125273 L 29.037136 27.850957 L 27.393238 26.210742 L 24.31609 29.291973 Z M 23.066169 28.047129 " transform="matrix(6.434783,0,0,6.451613,0,0)"/>
</g>
</svg>
