<?xml version="1.0" encoding="UTF-8"?>
<svg xmlns="http://www.w3.org/2000/svg" xmlns:xlink="http://www.w3.org/1999/xlink" width="438pt" height="200pt" viewBox="0 0 438 200" version="1.1">
<g id="surface1">
<path style=" stroke:none;fill-rule:nonzero;fill:rgb(3.137255%,48.235294%,73.333333%);fill-opacity:1;" d="M 7.199219 183.894531 L 361.65625 183.894531 L 361.65625 71.449219 L 7.199219 71.449219 L 7.199219 183.90625 Z M 7.199219 183.894531 "/>
<path style="fill:none;stroke-width:0.5;stroke-linecap:butt;stroke-linejoin:miter;stroke:rgb(100%,100%,100%);stroke-opacity:1;stroke-miterlimit:4;" d="M 0.756082 19.308105 L 37.982163 19.308105 L 37.982163 7.500938 L 0.756082 7.500938 Z M 0.756082 19.308105 " transform="matrix(9.521739,0,0,9.52381,0,0)"/>
<path style=" stroke:none;fill-rule:nonzero;fill:rgb(3.137255%,48.235294%,73.333333%);fill-opacity:1;" d="M 435.867188 4.589844 L 435.867188 102.609375 L 361.671875 184.3125 L 361.671875 71.457031 L 7.074219 71.457031 L 94.703125 4.589844 L 435.867188 4.589844 "/>
<path style="fill:none;stroke-width:0.5;stroke-linecap:butt;stroke-linejoin:miter;stroke:rgb(100%,100%,100%);stroke-opacity:1;stroke-miterlimit:4;" d="M 45.776006 0.479883 L 45.776006 10.773984 L 37.983804 19.352812 L 37.983804 7.500938 L 0.742954 7.500938 L 9.94599 0.481113 L 45.776006 0.481113 Z M 45.776006 0.479883 " transform="matrix(9.521739,0,0,9.52381,0,0)"/>
<path style=" stroke:none;fill-rule:nonzero;fill:rgb(13.72549%,12.156863%,12.54902%);fill-opacity:1;" d="M 362.40625 71.304688 L 431.914062 5.972656 "/>
<path style="fill:none;stroke-width:0.5;stroke-linecap:butt;stroke-linejoin:miter;stroke:rgb(100%,100%,100%);stroke-opacity:1;stroke-miterlimit:4;" d="M 38.06093 7.487812 L 45.360838 0.625898 " transform="matrix(9.521739,0,0,9.52381,0,0)"/>
<path style=" stroke:none;fill-rule:nonzero;fill:rgb(3.137255%,48.235294%,73.333333%);fill-opacity:1;" d="M 40.953125 153.296875 L 121.296875 153.296875 L 121.296875 135.4375 L 40.945312 135.4375 L 40.945312 153.296875 Z M 40.953125 153.296875 "/>
<path style="fill:none;stroke-width:0.5;stroke-linecap:butt;stroke-linejoin:miter;stroke:rgb(100%,100%,100%);stroke-opacity:1;stroke-miterlimit:4;" d="M 4.301013 16.094941 L 12.738941 16.094941 L 12.738941 14.220117 L 4.300193 14.220117 L 4.300193 16.094941 Z M 24.613906 11.330156 L 34.145138 11.330156 M 24.613906 15.393164 L 34.145138 15.393164 " transform="matrix(9.521739,0,0,9.52381,0,0)"/>
</g>
</svg>
