<?xml version="1.0" encoding="UTF-8"?>
<svg xmlns="http://www.w3.org/2000/svg" xmlns:xlink="http://www.w3.org/1999/xlink" width="190pt" height="200pt" viewBox="0 0 190 200" version="1.1">
<g id="surface1">
<path style=" stroke:none;fill-rule:nonzero;fill:rgb(3.137255%,48.235294%,73.333333%);fill-opacity:1;" d="M 3.382812 192.195312 L 165.59375 192.195312 L 165.59375 27.632812 L 3.382812 27.632812 Z M 3.382812 192.195312 "/>
<path style="fill:none;stroke-width:0.5;stroke-linecap:butt;stroke-linejoin:miter;stroke:rgb(100%,100%,100%);stroke-opacity:1;stroke-miterlimit:4;" d="M 0.694367 39.400039 L 33.990296 39.400039 L 33.990296 5.666328 L 0.694367 5.666328 Z M 0.694367 39.400039 " transform="matrix(4.871795,0,0,4.878049,0,0)"/>
<path style="fill:none;stroke-width:1.25;stroke-linecap:butt;stroke-linejoin:miter;stroke:rgb(100%,100%,100%);stroke-opacity:1;stroke-miterlimit:4;" d="M 8.144778 19.562285 C 9.558368 19.562285 10.704153 18.415566 10.703351 17.002188 C 10.701748 15.589609 9.555962 14.445293 8.143976 14.446094 C 6.731188 14.446895 5.587007 15.592012 5.587007 17.00459 C 5.587007 18.417168 6.732792 19.562285 8.144778 19.562285 Z M 8.144778 14.443691 L 12.591612 14.443691 " transform="matrix(4.871795,0,0,4.878049,0,0)"/>
<path style=" stroke:none;fill-rule:nonzero;fill:rgb(100%,100%,100%);fill-opacity:1;" d="M 61.558594 62.316406 L 61.558594 78.015625 L 71.011719 70.488281 L 61.558594 62.316406 "/>
<path style="fill:none;stroke-width:1.25;stroke-linecap:butt;stroke-linejoin:miter;stroke:rgb(100%,100%,100%);stroke-opacity:1;stroke-miterlimit:4;" d="M 12.635711 12.774063 L 12.635711 15.994004 L 14.57609 14.449297 Z M 5.591016 17.023008 L 5.591016 12.573867 " transform="matrix(4.871795,0,0,4.878049,0,0)"/>
<path style=" stroke:none;fill-rule:nonzero;fill:rgb(100%,100%,100%);fill-opacity:1;" d="M 19.269531 61.242188 L 34.941406 61.242188 L 27.402344 51.785156 L 19.269531 61.25 "/>
<path style="fill:none;stroke-width:1.25;stroke-linecap:butt;stroke-linejoin:miter;stroke:rgb(100%,100%,100%);stroke-opacity:1;stroke-miterlimit:4;" d="M 3.955325 12.55625 L 7.172183 12.55625 L 5.624692 10.615957 Z M 10.712171 16.987773 L 10.712171 21.432109 " transform="matrix(4.871795,0,0,4.878049,0,0)"/>
<path style=" stroke:none;fill-rule:nonzero;fill:rgb(100%,100%,100%);fill-opacity:1;" d="M 60.136719 104.589844 L 44.460938 104.589844 L 52.050781 114.046875 L 60.136719 104.589844 "/>
<path style="fill:none;stroke-width:1.25;stroke-linecap:butt;stroke-linejoin:miter;stroke:rgb(100%,100%,100%);stroke-opacity:1;stroke-miterlimit:4;" d="M 12.343853 21.441719 L 9.126192 21.441719 L 10.684108 23.379609 Z M 8.208121 19.55668 L 3.765296 19.55668 " transform="matrix(4.871795,0,0,4.878049,0,0)"/>
<path style=" stroke:none;fill-rule:nonzero;fill:rgb(100%,100%,100%);fill-opacity:1;" d="M 18.03125 103.570312 L 18.03125 87.898438 L 8.589844 95.429688 L 18.027344 103.570312 "/>
<path style="fill:none;stroke-width:1.25;stroke-linecap:butt;stroke-linejoin:miter;stroke:rgb(100%,100%,100%);stroke-opacity:1;stroke-miterlimit:4;" d="M 3.701151 21.231914 L 3.701151 18.01918 L 1.763178 19.562285 Z M 3.701151 21.231914 " transform="matrix(4.871795,0,0,4.878049,0,0)"/>
<path style=" stroke:none;fill-rule:nonzero;fill:rgb(3.137255%,48.235294%,73.333333%);fill-opacity:1;" d="M 165.230469 27.515625 L 3.46875 27.515625 L 28.878906 7.222656 L 186.214844 7.222656 L 186.214844 171.171875 L 165.46875 192.15625 L 165.46875 28.113281 L 165.230469 27.515625 "/>
<path style="fill:none;stroke-width:0.5;stroke-linecap:butt;stroke-linejoin:miter;stroke:rgb(100%,100%,100%);stroke-opacity:1;stroke-miterlimit:4;" d="M 33.915728 5.639902 L 0.712007 5.639902 L 5.927775 1.479844 L 38.223047 1.479844 L 38.223047 35.090234 L 33.964638 39.389629 L 33.964638 5.764023 L 33.915728 5.642305 Z M 33.955016 5.60707 L 38.255921 1.422188 M 33.915728 28.112227 L 0.712007 28.112227 M 23.554749 27.691816 L 23.554749 5.763223 M 19.731723 27.691816 L 19.731723 5.763223 M 30.726933 27.691816 L 30.726933 5.763223 M 26.903906 27.691816 L 26.903906 5.763223 M 15.903886 27.691816 L 15.903886 27.212148 M 15.903886 27.535664 L 15.903886 6.226875 " transform="matrix(4.871795,0,0,4.878049,0,0)"/>
<path style=" stroke:none;fill-rule:nonzero;fill:rgb(3.137255%,48.235294%,73.333333%);fill-opacity:1;" d="M 17.460938 152.945312 L 64.058594 152.945312 L 64.058594 145.945312 L 17.460938 145.945312 Z M 17.460938 152.945312 "/>
<path style="fill:none;stroke-width:0.5;stroke-linecap:butt;stroke-linejoin:miter;stroke:rgb(100%,100%,100%);stroke-opacity:1;stroke-miterlimit:4;" d="M 3.584087 31.352988 L 13.148869 31.352988 L 13.148869 29.917988 L 3.584087 29.917988 Z M 3.584087 31.352988 " transform="matrix(4.871795,0,0,4.878049,0,0)"/>
<path style=" stroke:none;fill-rule:nonzero;fill:rgb(3.137255%,48.235294%,73.333333%);fill-opacity:1;" d="M 61.730469 166.925781 L 108.304688 166.925781 L 108.304688 159.925781 L 61.730469 159.925781 Z M 61.730469 166.925781 "/>
<path style="fill:none;stroke-width:0.5;stroke-linecap:butt;stroke-linejoin:miter;stroke:rgb(100%,100%,100%);stroke-opacity:1;stroke-miterlimit:4;" d="M 12.670991 34.219785 L 22.230962 34.219785 L 22.230962 32.783984 L 12.670991 32.783984 Z M 12.670991 34.219785 " transform="matrix(4.871795,0,0,4.878049,0,0)"/>
<path style=" stroke:none;fill-rule:nonzero;fill:rgb(3.137255%,48.235294%,73.333333%);fill-opacity:1;" d="M 105.976562 180.933594 L 152.570312 180.933594 L 152.570312 173.933594 L 105.976562 173.933594 Z M 105.976562 180.933594 "/>
<path style="fill:none;stroke-width:0.5;stroke-linecap:butt;stroke-linejoin:miter;stroke:rgb(100%,100%,100%);stroke-opacity:1;stroke-miterlimit:4;" d="M 21.753084 37.089785 L 31.317064 37.089785 L 31.317064 35.656387 L 21.753084 35.656387 L 21.753084 37.091387 Z M 21.753084 37.089785 " transform="matrix(4.871795,0,0,4.878049,0,0)"/>
</g>
</svg>
