<?xml version="1.0" encoding="UTF-8"?>
<svg xmlns="http://www.w3.org/2000/svg" xmlns:xlink="http://www.w3.org/1999/xlink" width="170pt" height="200pt" viewBox="0 0 170 200" version="1.1">
<g id="surface1">
<path style=" stroke:none;fill-rule:nonzero;fill:rgb(0.784314%,43.921569%,62.352941%);fill-opacity:1;" d="M 63.652344 23.746094 C 63.652344 36.460938 53.394531 46.765625 40.742188 46.765625 C 28.089844 46.765625 17.832031 36.460938 17.832031 23.746094 C 17.832031 11.03125 28.089844 0.726562 40.742188 0.726562 C 53.394531 0.726562 63.652344 11.03125 63.652344 23.746094 "/>
<path style="fill:none;stroke-width:0.5;stroke-linecap:butt;stroke-linejoin:miter;stroke:rgb(100%,100%,100%);stroke-opacity:1;stroke-miterlimit:4;" d="M 15.351448 5.699063 C 15.351448 8.750625 12.877505 11.22375 9.826057 11.22375 C 6.774609 11.22375 4.300666 8.750625 4.300666 5.699063 C 4.300666 2.6475 6.774609 0.174375 9.826057 0.174375 C 12.877505 0.174375 15.351448 2.6475 15.351448 5.699063 Z M 15.351448 5.699063 " transform="matrix(4.146341,0,0,4.166667,0,0)"/>
<path style=" stroke:none;fill-rule:nonzero;fill:rgb(0.784314%,43.921569%,62.352941%);fill-opacity:1;" d="M 76.246094 197.917969 L 171.527344 197.917969 L 171.527344 97.167969 L 76.242188 97.167969 L 76.242188 197.917969 Z M 76.246094 197.917969 "/>
<path style="fill:none;stroke-width:0.5;stroke-linecap:butt;stroke-linejoin:miter;stroke:rgb(100%,100%,100%);stroke-opacity:1;stroke-miterlimit:4;" d="M 18.388764 47.74875 L 41.368359 47.74875 L 41.368359 23.319375 L 18.387822 23.319375 L 18.387822 47.74875 Z M 18.388764 47.74875 " transform="matrix(4.146341,0,0,4.166667,0,0)"/>
<path style="fill-rule:nonzero;fill:rgb(0.784314%,43.921569%,62.352941%);fill-opacity:1;stroke-width:0.5;stroke-linecap:butt;stroke-linejoin:miter;stroke:rgb(100%,100%,100%);stroke-opacity:1;stroke-miterlimit:4;" d="M 26.431434 23.247187 L 39.805423 23.247187 L 39.805423 20.205 L 26.431434 20.205 L 26.431434 23.248125 Z M 26.431434 23.247187 " transform="matrix(4.146341,0,0,4.166667,0,0)"/>
<path style=" stroke:none;fill-rule:nonzero;fill:rgb(0.784314%,43.921569%,62.352941%);fill-opacity:1;" d="M 153.808594 51.773438 L 153.808594 84.191406 L 110.644531 84.191406 L 110.644531 40.808594 L 148.746094 45.792969 C 148.746094 45.792969 153.90625 46.304688 153.808594 51.769531 "/>
<path style="fill:none;stroke-width:0.5;stroke-linecap:butt;stroke-linejoin:miter;stroke:rgb(100%,100%,100%);stroke-opacity:1;stroke-miterlimit:4;" d="M 37.095014 12.425625 L 37.095014 20.205938 L 26.684858 20.205938 L 26.684858 9.794062 L 35.874058 10.990312 C 35.874058 10.990312 37.118566 11.113125 37.095014 12.424687 Z M 37.095014 12.425625 " transform="matrix(4.146341,0,0,4.166667,0,0)"/>
<path style=" stroke:none;fill-rule:nonzero;fill:rgb(0.784314%,43.921569%,62.352941%);fill-opacity:1;" d="M 70.574219 185.8125 L 44.257812 185.8125 L 44.257812 154.519531 L 31.054688 154.519531 L 31.054688 185.8125 L 5.140625 185.8125 C 2.875 185.816406 1.035156 187.664062 1.03125 189.941406 L 1.03125 194.785156 C 1.03125 197.0625 2.878906 198.910156 5.140625 198.910156 L 70.578125 198.910156 C 72.84375 198.90625 74.679688 197.0625 74.683594 194.785156 L 74.683594 189.941406 C 74.679688 187.664062 72.84375 185.820312 70.578125 185.816406 "/>
<path style="fill:none;stroke-width:0.5;stroke-linecap:butt;stroke-linejoin:miter;stroke:rgb(100%,100%,100%);stroke-opacity:1;stroke-miterlimit:4;" d="M 17.020841 44.595 L 10.673943 44.595 L 10.673943 37.084688 L 7.48966 37.084688 L 7.48966 44.595 L 1.239798 44.595 C 0.693382 44.595937 0.249655 45.039375 0.248713 45.585938 L 0.248713 46.748438 C 0.248713 47.295 0.694324 47.738437 1.239798 47.738437 L 17.021783 47.738437 C 17.568199 47.7375 18.010983 47.295 18.011926 46.748438 L 18.011926 45.585938 C 18.010983 45.039375 17.568199 44.596875 17.021783 44.595937 Z M 17.020841 44.595 " transform="matrix(4.146341,0,0,4.166667,0,0)"/>
<path style=" stroke:none;fill-rule:nonzero;fill:rgb(0.784314%,43.921569%,62.352941%);fill-opacity:1;" d="M 71.730469 139.914062 L 17.492188 139.914062 L 17.492188 62.457031 C 17.492188 59.957031 15.445312 57.902344 12.957031 57.902344 L 7.632812 57.902344 C 5.121094 57.902344 3.101562 59.957031 3.101562 62.457031 L 3.101562 149.804688 C 3.101562 152.324219 5.121094 154.359375 7.632812 154.359375 L 71.730469 154.359375 C 74.242188 154.359375 76.261719 152.324219 76.261719 149.804688 L 76.261719 144.472656 C 76.261719 141.972656 74.242188 139.914062 71.730469 139.914062 "/>
<path style="fill:none;stroke-width:0.5;stroke-linecap:butt;stroke-linejoin:miter;stroke:rgb(100%,100%,100%);stroke-opacity:1;stroke-miterlimit:4;" d="M 17.299701 33.579375 L 4.218704 33.579375 L 4.218704 14.989687 C 4.218704 14.389687 3.725046 13.896562 3.124931 13.896562 L 1.840855 13.896562 C 1.235087 13.896562 0.748024 14.389687 0.748024 14.989687 L 0.748024 35.953125 C 0.748024 36.557812 1.235087 37.04625 1.840855 37.04625 L 17.299701 37.04625 C 17.905469 37.04625 18.392532 36.557812 18.392532 35.953125 L 18.392532 34.673437 C 18.392532 34.073437 17.905469 33.579375 17.299701 33.579375 Z M 17.299701 33.579375 " transform="matrix(4.146341,0,0,4.166667,0,0)"/>
<path style=" stroke:none;fill-rule:nonzero;fill:rgb(0.784314%,43.921569%,62.352941%);fill-opacity:1;" d="M 59 51.722656 L 100.625 82.070312 C 102.40625 83.601562 103.515625 85.875 103.515625 88.421875 C 103.515625 93.0625 99.773438 96.820312 95.15625 96.820312 C 93.757812 96.820312 91.894531 96.332031 90.414062 95.519531 L 55.578125 73.875 L 55.578125 113.164062 L 75.257812 113.261719 L 75.257812 138.554688 L 19.574219 138.472656 L 19.574219 55.011719 C 19.574219 55.011719 19.949219 48.398438 30.738281 48.398438 L 50.777344 48.398438 C 50.777344 48.398438 54.582031 48.605469 59 51.722656 "/>
<path style="fill:none;stroke-width:0.5;stroke-linecap:butt;stroke-linejoin:miter;stroke:rgb(100%,100%,100%);stroke-opacity:1;stroke-miterlimit:4;" d="M 14.229412 12.413437 L 24.268382 19.696875 C 24.697978 20.064375 24.965533 20.61 24.965533 21.22125 C 24.965533 22.335 24.063006 23.236875 22.949449 23.236875 C 22.612178 23.236875 22.162799 23.119687 21.805744 22.924687 L 13.404136 17.73 L 13.404136 27.159375 L 18.150414 27.182813 L 18.150414 33.253125 L 4.720841 33.233438 L 4.720841 13.202813 C 4.720841 13.202813 4.811282 11.615625 7.41335 11.615625 L 12.246301 11.615625 C 12.246301 11.615625 13.163902 11.665312 14.229412 12.413437 Z M 14.229412 12.413437 " transform="matrix(4.146341,0,0,4.166667,0,0)"/>
</g>
</svg>
