<?xml version="1.0" encoding="UTF-8"?>
<svg xmlns="http://www.w3.org/2000/svg" xmlns:xlink="http://www.w3.org/1999/xlink" width="182pt" height="200pt" viewBox="0 0 182 200" version="1.1">
<g id="surface1">
<path style="fill-rule:nonzero;fill:rgb(13.72549%,12.156863%,12.54902%);fill-opacity:1;stroke-width:0.5;stroke-linecap:butt;stroke-linejoin:miter;stroke:rgb(100%,100%,100%);stroke-opacity:1;stroke-miterlimit:4;" d="M 1.524124 14.213672 L 4.218621 11.348437 " transform="matrix(4.439024,0,0,4.444444,0,0)"/>
<path style=" stroke:none;fill-rule:nonzero;fill:rgb(3.137255%,48.235294%,73.333333%);fill-opacity:1;" d="M 156.464844 111.394531 L 1.132812 22.484375 L 1.132812 200.308594 L 156.476562 111.394531 "/>
<path style="fill:none;stroke-width:0.5;stroke-linecap:butt;stroke-linejoin:miter;stroke:rgb(100%,100%,100%);stroke-opacity:1;stroke-miterlimit:4;" d="M 35.247575 25.06377 L 0.255194 5.058984 L 0.255194 45.069434 L 35.250215 25.06377 Z M 35.247575 25.06377 " transform="matrix(4.439024,0,0,4.444444,0,0)"/>
<path style=" stroke:none;fill-rule:nonzero;fill:rgb(3.137255%,48.235294%,73.333333%);fill-opacity:1;" d="M 153.652344 112.375 L 1.820312 26.261719 L 26.789062 1.238281 L 178.621094 87.375 L 153.652344 112.375 "/>
<path style="fill:none;stroke-width:0.5;stroke-linecap:butt;stroke-linejoin:miter;stroke:rgb(100%,100%,100%);stroke-opacity:1;stroke-miterlimit:4;" d="M 34.61399 25.284375 L 0.41007 5.908887 L 6.034899 0.278613 L 40.238818 19.659375 Z M 34.61399 25.284375 " transform="matrix(4.439024,0,0,4.444444,0,0)"/>
<path style=" stroke:none;fill-rule:nonzero;fill:rgb(100%,100%,100%);fill-opacity:1;" d="M 39.296875 68.773438 L 18.035156 84.765625 L 43.480469 95.707031 L 39.296875 68.773438 "/>
<path style="fill:none;stroke-width:1;stroke-linecap:butt;stroke-linejoin:miter;stroke:rgb(100%,100%,100%);stroke-opacity:1;stroke-miterlimit:3.86;" d="M 2.837054 12.84082 L 6.811041 17.768848 " transform="matrix(4.439024,0,0,4.444444,0,0)"/>
<path style=" stroke:none;fill-rule:nonzero;fill:rgb(100%,100%,100%);fill-opacity:1;" d="M 39.296875 158.71875 L 18.035156 142.730469 L 43.480469 131.816406 L 39.296875 158.71875 "/>
<path style="fill:none;stroke-width:1;stroke-linecap:butt;stroke-linejoin:miter;stroke:rgb(100%,100%,100%);stroke-opacity:1;stroke-miterlimit:3.86;" d="M 2.837054 38.344922 L 6.811041 33.416895 " transform="matrix(4.439024,0,0,4.444444,0,0)"/>
<path style=" stroke:none;fill-rule:nonzero;fill:rgb(100%,100%,100%);fill-opacity:1;" d="M 107.835938 100.042969 L 107.070312 126.667969 L 131.453125 113.539062 L 107.828125 100.039062 "/>
<path style="fill:none;stroke-width:1;stroke-linecap:butt;stroke-linejoin:miter;stroke:rgb(100%,100%,100%);stroke-opacity:1;stroke-miterlimit:3.86;" d="M 18.485727 25.576172 L 24.815419 25.533105 " transform="matrix(4.439024,0,0,4.444444,0,0)"/>
</g>
</svg>
