<?xml version="1.0" encoding="UTF-8"?>
<svg xmlns="http://www.w3.org/2000/svg" xmlns:xlink="http://www.w3.org/1999/xlink" width="195pt" height="200pt" viewBox="0 0 195 200" version="1.1">
<defs>
<clipPath id="clip1">
  <path d="M 0 17 L 187 17 L 187 193.5 L 0 193.5 Z M 0 17 "/>
</clipPath>
<clipPath id="clip2">
  <path d="M 0 16 L 188 16 L 188 193.5 L 0 193.5 Z M 0 16 "/>
</clipPath>
<clipPath id="clip3">
  <path d="M 0 19 L 187 19 L 187 193.5 L 0 193.5 Z M 0 19 "/>
</clipPath>
<clipPath id="clip4">
  <path d="M 136 0 L 195 0 L 195 193.5 L 136 193.5 Z M 136 0 "/>
</clipPath>
<clipPath id="clip5">
  <path d="M 0 19 L 186 19 L 186 193.5 L 0 193.5 Z M 0 19 "/>
</clipPath>
</defs>
<g id="surface1">
<path style="fill-rule:nonzero;fill:rgb(3.137255%,48.235294%,73.333333%);fill-opacity:1;stroke-width:4;stroke-linecap:butt;stroke-linejoin:miter;stroke:rgb(100%,100%,100%);stroke-opacity:1;stroke-miterlimit:4;" d="M 5.817308 14.627404 L 232.578125 14.627404 L 232.578125 245.330529 L 5.817308 245.330529 Z M 5.817308 14.627404 " transform="matrix(0.65,0,0,-0.65,0,200)"/>
<g clip-path="url(#clip1)" clip-rule="nonzero">
<path style="fill:none;stroke-width:14.25;stroke-linecap:butt;stroke-linejoin:miter;stroke:rgb(13.72549%,12.156863%,12.54902%);stroke-opacity:1;stroke-miterlimit:4;" d="M 46.604567 65.763221 L 94.489183 65.763221 L 160.588942 200.907452 L 206.286058 200.907452 " transform="matrix(0.65,0,0,-0.65,0,200)"/>
</g>
<path style=" stroke:none;fill-rule:nonzero;fill:rgb(13.72549%,12.156863%,12.54902%);fill-opacity:1;" d="M 125.378906 53.667969 L 125.378906 84.847656 L 144.144531 69.863281 L 125.378906 53.667969 M 35.644531 173.304688 L 35.644531 142.125 L 16.886719 157.109375 L 35.644531 173.304688 "/>
<path style=" stroke:none;fill-rule:nonzero;fill:rgb(100%,100%,100%);fill-opacity:1;" d="M 31.382812 176.25 L 31.382812 145.066406 L 12.597656 160.050781 L 31.382812 176.25 M 121.898438 56.199219 L 121.898438 87.378906 L 140.667969 72.398438 L 121.898438 56.199219 "/>
<path style=" stroke:none;fill-rule:nonzero;fill:rgb(13.72549%,12.156863%,12.54902%);fill-opacity:1;" d="M 35.644531 85.554688 L 35.644531 54.375 L 16.886719 69.359375 L 35.644531 85.554688 "/>
<path style=" stroke:none;fill-rule:nonzero;fill:rgb(100%,100%,100%);fill-opacity:1;" d="M 31.382812 88.5 L 31.382812 57.316406 L 12.597656 72.300781 L 31.382812 88.5 "/>
<g clip-path="url(#clip2)" clip-rule="nonzero">
<path style="fill:none;stroke-width:14.25;stroke-linecap:butt;stroke-linejoin:miter;stroke:rgb(13.72549%,12.156863%,12.54902%);stroke-opacity:1;stroke-miterlimit:4;" d="M 207.229567 65.252404 L 160.120192 65.252404 L 92.80649 201.069712 L 52.698317 201.069712 " transform="matrix(0.65,0,0,-0.65,0,200)"/>
</g>
<g clip-path="url(#clip3)" clip-rule="nonzero">
<path style="fill:none;stroke-width:14.25;stroke-linecap:butt;stroke-linejoin:miter;stroke:rgb(100%,100%,100%);stroke-opacity:1;stroke-miterlimit:4;" d="M 206.08774 61.033654 L 156.478365 61.033654 L 89.182692 196.850962 L 37.80649 196.850962 " transform="matrix(0.65,0,0,-0.65,0,200)"/>
</g>
<path style=" stroke:none;fill-rule:nonzero;fill:rgb(3.137255%,48.235294%,73.333333%);fill-opacity:1;" d="M 198.632812 -3.15625 L 151.175781 40.484375 L 3.609375 40.484375 L 56.34375 -3.15625 L 198.632812 -3.15625 "/>
<path style="fill:none;stroke-width:4;stroke-linecap:butt;stroke-linejoin:miter;stroke:rgb(100%,100%,100%);stroke-opacity:1;stroke-miterlimit:4;" d="M 305.588942 312.548077 L 232.578125 245.408654 L 5.552885 245.408654 L 86.682692 312.548077 Z M 305.588942 312.548077 " transform="matrix(0.65,0,0,-0.65,0,200)"/>
<path style=" stroke:none;fill-rule:nonzero;fill:rgb(3.137255%,48.235294%,73.333333%);fill-opacity:1;" d="M 198.808594 132.984375 L 198.808594 -3.058594 L 151.175781 40.613281 L 151.175781 189.910156 L 198.808594 132.984375 "/>
<g clip-path="url(#clip4)" clip-rule="nonzero">
<path style="fill:none;stroke-width:4;stroke-linecap:butt;stroke-linejoin:miter;stroke:rgb(100%,100%,100%);stroke-opacity:1;stroke-miterlimit:4;" d="M 305.859375 103.100962 L 305.859375 312.397837 L 232.578125 245.210337 L 232.578125 15.522837 Z M 305.859375 103.100962 " transform="matrix(0.65,0,0,-0.65,0,200)"/>
</g>
<g clip-path="url(#clip5)" clip-rule="nonzero">
<path style="fill:none;stroke-width:14.25;stroke-linecap:butt;stroke-linejoin:miter;stroke:rgb(100%,100%,100%);stroke-opacity:1;stroke-miterlimit:4;" d="M 38.11899 61.231971 L 86.051683 61.231971 L 152.728365 196.382212 L 204.69351 196.382212 " transform="matrix(0.65,0,0,-0.65,0,200)"/>
</g>
<path style=" stroke:none;fill-rule:nonzero;fill:rgb(13.72549%,12.156863%,12.54902%);fill-opacity:1;" d="M 125.378906 141.816406 L 125.378906 173 L 144.144531 158.015625 L 125.378906 141.816406 "/>
<path style=" stroke:none;fill-rule:nonzero;fill:rgb(100%,100%,100%);fill-opacity:1;" d="M 121.898438 144.359375 L 121.898438 175.542969 L 140.667969 160.558594 L 121.898438 144.359375 "/>
<path style=" stroke:none;fill-rule:nonzero;fill:rgb(13.72549%,12.156863%,12.54902%);fill-opacity:1;" d="M 151.273438 4.410156 L 157.496094 -0.265625 L 176.949219 6.128906 L 142.851562 13.496094 L 150.261719 6.078125 L 116.46875 6.078125 L 118.675781 4.410156 L 151.273438 4.410156 "/>
<path style=" stroke:none;fill-rule:nonzero;fill:rgb(100%,100%,100%);fill-opacity:1;" d="M 124.460938 23.523438 L 130.683594 18.851562 L 147.699219 24.335938 L 113.601562 31.699219 L 119.308594 26.09375 L 85.511719 26.09375 L 90.640625 23.523438 L 124.460938 23.523438 M 107.808594 10.882812 L 104.988281 13.878906 L 77.011719 13.878906 L 71.371094 17.226562 L 54.460938 11.695312 L 88.484375 4.382812 L 79.824219 10.882812 L 107.808594 10.882812 M 83.636719 30.128906 L 79.675781 33.125 L 51.695312 33.125 L 47.230469 36.472656 L 30.289062 30.941406 L 64.316406 23.628906 L 55.679688 30.128906 L 83.636719 30.128906 M 151.273438 6.035156 L 157.496094 1.332031 L 174.488281 6.847656 L 140.386719 14.179688 L 146.703125 9.003906 L 112.886719 9.003906 L 117.453125 6.035156 L 151.273438 6.035156 "/>
</g>
</svg>
