<?xml version="1.0" encoding="UTF-8"?>
<svg xmlns="http://www.w3.org/2000/svg" xmlns:xlink="http://www.w3.org/1999/xlink" width="208pt" height="200pt" viewBox="0 0 208 200" version="1.1">
<g id="surface1">
<path style=" stroke:none;fill-rule:nonzero;fill:rgb(56.862745%,56.078431%,56.470588%);fill-opacity:1;" d="M 200.328125 42.589844 C 200.328125 64.074219 155.726562 81.460938 100.71875 81.460938 C 45.6875 81.460938 1.078125 64.074219 1.078125 42.589844 L 1.078125 88 C 1.078125 109.484375 45.683594 126.875 100.71875 126.875 C 155.726562 126.875 200.328125 109.484375 200.328125 88.003906 L 200.328125 42.585938 "/>
<path style="fill:none;stroke-width:0.5;stroke-linecap:butt;stroke-linejoin:miter;stroke:rgb(100%,100%,100%);stroke-opacity:1;stroke-miterlimit:4;" d="M 46.229567 9.795664 C 46.229567 14.737969 35.936899 18.736016 23.242788 18.736016 C 10.543269 18.736016 0.248798 14.737969 0.248798 9.795664 L 0.248798 20.24 C 0.248798 25.182305 10.542368 29.180352 23.242788 29.180352 C 35.936899 29.180352 46.229567 25.182305 46.229567 20.24 Z M 46.229567 9.795664 " transform="matrix(4.333333,0,0,4.347826,0,0)"/>
<path style=" stroke:none;fill-rule:nonzero;fill:rgb(3.137255%,48.235294%,73.333333%);fill-opacity:1;" d="M 200.328125 87.238281 C 200.328125 108.699219 155.726562 126.109375 100.71875 126.109375 C 45.6875 126.109375 1.078125 108.703125 1.078125 87.238281 L 1.078125 155.699219 C 1.078125 177.164062 45.683594 194.574219 100.71875 194.574219 C 155.726562 194.574219 200.328125 177.164062 200.328125 155.699219 L 200.328125 87.238281 "/>
<path style="fill:none;stroke-width:0.5;stroke-linecap:butt;stroke-linejoin:miter;stroke:rgb(100%,100%,100%);stroke-opacity:1;stroke-miterlimit:4;" d="M 46.229567 20.063906 C 46.229567 25.001719 35.936899 29.005156 23.242788 29.005156 C 10.543269 29.005156 0.248798 25.001719 0.248798 20.063906 L 0.248798 35.811719 C 0.248798 40.747734 10.542368 44.75207 23.242788 44.75207 C 35.936899 44.75207 46.229567 40.747734 46.229567 35.811719 Z M 46.229567 20.063906 " transform="matrix(4.333333,0,0,4.347826,0,0)"/>
<path style=" stroke:none;fill-rule:nonzero;fill:rgb(56.862745%,56.078431%,56.470588%);fill-opacity:1;" d="M 100.71875 81.460938 C 155.730469 81.460938 200.328125 64.074219 200.328125 42.589844 C 200.328125 21.128906 155.730469 3.71875 100.71875 3.71875 C 45.6875 3.71875 1.078125 21.128906 1.078125 42.589844 C 1.078125 64.074219 45.683594 81.460938 100.71875 81.460938 "/>
<path style="fill:none;stroke-width:0.5;stroke-linecap:butt;stroke-linejoin:miter;stroke:rgb(100%,100%,100%);stroke-opacity:1;stroke-miterlimit:4;" d="M 23.242788 18.736016 C 35.9378 18.736016 46.229567 14.737969 46.229567 9.795664 C 46.229567 4.85875 35.9378 0.856211 23.242788 0.856211 C 10.543269 0.855313 0.248798 4.857852 0.248798 9.794766 C 0.248798 14.73707 10.542368 18.735117 23.242788 18.735117 Z M 23.242788 18.736016 " transform="matrix(4.333333,0,0,4.347826,0,0)"/>
<path style=" stroke:none;fill-rule:nonzero;fill:rgb(100%,100%,100%);fill-opacity:1;" d="M 77.972656 27.390625 L 86.179688 39.785156 L 55.078125 46.984375 L 61.867188 41.316406 L 13.824219 33.082031 L 25.855469 23.996094 L 72.261719 31.890625 L 77.972656 27.390625 M 121.726562 57.429688 L 116.121094 44.652344 L 144.175781 39.027344 L 139.3125 43.398438 L 186.074219 51.425781 L 174.855469 60.425781 L 128.367188 51.679688 L 121.726562 57.429688 M 106.386719 20.644531 L 137.804688 12 L 138.195312 25.523438 L 130.339844 24.015625 L 114.996094 36.773438 L 100.351562 34.628906 L 116.179688 22.148438 L 106.386719 20.644531 M 92.929688 69.066406 L 62.988281 74.691406 L 61.867188 60.804688 L 70.480469 62.675781 L 86.945312 48.554688 L 101.519531 51.035156 L 83.9375 66.425781 L 92.929688 69.066406 "/>
<path style=" stroke:none;fill-rule:nonzero;fill:rgb(3.137255%,48.235294%,73.333333%);fill-opacity:1;" d="M 3.363281 99.589844 C 13.710938 117 50.191406 128.804688 98.6875 128.804688 C 145.890625 128.804688 186.789062 115.664062 198.238281 99.023438 L 198.148438 87.601562 C 198.148438 106.554688 151.15625 123.371094 98.6875 123.371094 C 46.210938 123.371094 5.542969 107.085938 2.898438 88.957031 L 3.363281 99.589844 "/>
<path style=" stroke:none;fill-rule:nonzero;fill:rgb(56.862745%,56.078431%,56.470588%);fill-opacity:1;" d="M 90.960938 116.175781 L 90.960938 121.078125 L 73.925781 121.078125 L 99.085938 153.851562 L 124.246094 121.078125 L 107.1875 121.078125 L 107.1875 116.175781 L 90.960938 116.175781 "/>
<path style=" stroke:none;fill-rule:nonzero;fill:rgb(100%,100%,100%);fill-opacity:1;" d="M 75.199219 181.8125 L 134.785156 122.03125 L 129.390625 119.015625 L 69.804688 178.777344 L 75.195312 181.8125 "/>
<path style=" stroke:none;fill-rule:nonzero;fill:rgb(100%,100%,100%);fill-opacity:1;" d="M 123.019531 180.988281 L 64.003906 121.921875 L 69.316406 118.847656 L 128.351562 177.910156 L 123.023438 180.988281 "/>
<path style=" stroke:none;fill-rule:nonzero;fill:rgb(100%,100%,100%);fill-opacity:1;" d="M 107.402344 177.863281 L 107.316406 183.300781 C 123.394531 182.386719 146.714844 179.949219 159.917969 176.214844 L 160.003906 170.964844 C 147.175781 174.601562 123.105469 176.996094 107.402344 177.863281 M 41.8125 176.292969 C 54.503906 179.863281 75.621094 182.261719 91.007812 183.21875 L 91.34375 178.164062 C 75.070312 177.164062 53.042969 174.152344 42.101562 171.046875 L 41.8125 176.292969 M 40.246094 118.914062 C 52.980469 122.625 74.246094 125.152344 89.839844 126.195312 L 89.816406 120.777344 C 73.316406 119.675781 51.179688 116.894531 40.199219 113.691406 L 40.242188 118.914062 M 107.742188 120.929688 L 107.253906 126.363281 C 123.820312 125.429688 147.535156 122.882812 161.039062 118.933594 L 161.105469 113.714844 C 148.003906 117.535156 123.90625 120.039062 107.742188 120.929688 M 56.089844 153.003906 L 64.046875 154.410156 L 60.171875 141.375 L 60.09375 141.375 Z M 52.199219 164.152344 L 45.367188 162.960938 L 56.449219 133.6875 L 63.945312 135.003906 L 74.921875 168.140625 L 67.855469 166.890625 L 65.84375 160.121094 L 54.378906 158.105469 L 52.199219 164.148438 M 142.0625 149.332031 C 146.90625 148.652344 146.90625 145.175781 146.90625 143.792969 C 146.90625 140.734375 145.214844 139.71875 141.1875 140.285156 L 136.03125 141.011719 L 136.03125 150.1875 Z M 136.027344 166.847656 L 129.535156 167.761719 L 129.535156 136.554688 L 143.75 134.539062 C 149.761719 133.6875 153.398438 137.042969 153.398438 143.15625 C 153.398438 146 151.835938 153.347656 143.476562 154.53125 L 136.027344 155.574219 L 136.027344 166.847656 "/>
</g>
</svg>
