<?xml version="1.0" encoding="UTF-8"?>
<svg xmlns="http://www.w3.org/2000/svg" xmlns:xlink="http://www.w3.org/1999/xlink" width="344pt" height="200pt" viewBox="0 0 344 200" version="1.1">
<g id="surface1">
<path style=" stroke:none;fill-rule:nonzero;fill:rgb(0.784314%,43.921569%,62.352941%);fill-opacity:1;" d="M 332.96875 171.535156 L 332.96875 11.886719 L 316.960938 25.953125 L 316.960938 185.601562 L 332.976562 171.535156 "/>
<path style="fill:none;stroke-width:0.5;stroke-linecap:butt;stroke-linejoin:miter;stroke:rgb(100%,100%,100%);stroke-opacity:1;stroke-miterlimit:4;" d="M 41.621094 21.441895 L 41.621094 1.484863 L 39.619141 3.245117 L 39.619141 23.199219 Z M 41.621094 21.441895 " transform="matrix(8,0,0,8,0,0)"/>
<path style=" stroke:none;fill-rule:nonzero;fill:rgb(0.784314%,43.921569%,62.352941%);fill-opacity:1;" d="M 5.3125 185.320312 L 316.601562 185.320312 L 316.601562 26.265625 L 5.3125 26.265625 Z M 5.3125 185.320312 "/>
<path style="fill:none;stroke-width:0.5;stroke-linecap:butt;stroke-linejoin:miter;stroke:rgb(100%,100%,100%);stroke-opacity:1;stroke-miterlimit:4;" d="M 0.664062 23.166016 L 39.575195 23.166016 L 39.575195 3.283203 L 0.664062 3.283203 Z M 0.664062 23.166016 " transform="matrix(8,0,0,8,0,0)"/>
<path style=" stroke:none;fill-rule:nonzero;fill:rgb(0.784314%,43.921569%,62.352941%);fill-opacity:1;" d="M 332.96875 11.96875 L 21.679688 11.96875 L 5.3125 26.265625 L 316.601562 26.265625 L 332.96875 11.96875 "/>
<path style="fill:none;stroke-width:0.5;stroke-linecap:butt;stroke-linejoin:miter;stroke:rgb(100%,100%,100%);stroke-opacity:1;stroke-miterlimit:4;" d="M 41.621094 1.496094 L 2.709961 1.496094 L 0.664062 3.283203 L 39.575195 3.283203 Z M 41.621094 1.496094 " transform="matrix(8,0,0,8,0,0)"/>
<path style=" stroke:none;fill-rule:nonzero;fill:rgb(0.784314%,43.921569%,62.352941%);fill-opacity:1;" d="M 332.96875 11.96875 L 316.601562 26.265625 "/>
<path style="fill:none;stroke-width:0.5;stroke-linecap:butt;stroke-linejoin:miter;stroke:rgb(100%,100%,100%);stroke-opacity:1;stroke-miterlimit:4;" d="M 41.621094 1.496094 L 39.575195 3.283203 M 23.457031 6.833008 L 25.501953 5.044922 C 32.72998 13.487793 27.167969 20.055176 27.167969 20.055176 L 36.75293 20.055176 M 7.998047 6.612793 L 5.953125 4.826172 L 6.336914 20.056152 L 1.923828 20.056152 " transform="matrix(8,0,0,8,0,0)"/>
<path style=" stroke:none;fill-rule:nonzero;fill:rgb(0.784314%,43.921569%,62.352941%);fill-opacity:1;" d="M 63.984375 71.214844 C 63.984375 55.246094 80.542969 52.894531 80.542969 52.894531 L 178.359375 52.894531 C 198.441406 52.894531 197.847656 71.808594 197.847656 71.808594 L 197.847656 151.03125 C 197.847656 162.230469 182.496094 166.96875 182.496094 166.96875 L 82.894531 166.96875 C 68.710938 166.96875 63.984375 152.199219 63.984375 152.199219 L 63.984375 71.214844 "/>
<path style="fill:none;stroke-width:0.5;stroke-linecap:butt;stroke-linejoin:miter;stroke:rgb(100%,100%,100%);stroke-opacity:1;stroke-miterlimit:4;" d="M 7.998047 8.902832 C 7.998047 6.904785 10.067871 6.612793 10.067871 6.612793 L 22.294922 6.612793 C 24.805176 6.612793 24.730957 8.977051 24.730957 8.977051 L 24.730957 18.876953 C 24.730957 20.279785 22.812012 20.871094 22.812012 20.871094 L 10.361816 20.871094 C 8.588867 20.871094 7.998047 19.024902 7.998047 19.024902 Z M 36.751953 7.556152 L 27.166992 7.556152 M 6.336914 7.556152 L 1.923828 7.556152 M 5.953125 4.826172 L 24.60498 4.826172 " transform="matrix(8,0,0,8,0,0)"/>
</g>
</svg>
