<?xml version="1.0" encoding="UTF-8"?>
<svg xmlns="http://www.w3.org/2000/svg" xmlns:xlink="http://www.w3.org/1999/xlink" width="195pt" height="200pt" viewBox="0 0 195 200" version="1.1">
<g id="surface1">
<path style=" stroke:none;fill-rule:nonzero;fill:rgb(0%,0%,0%);fill-opacity:1;" d="M 1.289062 40.515625 C 1.289062 60.691406 43.125 77.011719 94.695312 77.011719 C 146.273438 77.011719 188.089844 60.6875 188.089844 40.515625 L 188.089844 156.367188 C 188.089844 176.523438 146.273438 192.859375 94.695312 192.859375 C 43.125 192.859375 1.289062 176.523438 1.289062 156.371094 L 1.289062 40.511719 "/>
<path style="fill:none;stroke-width:0.5;stroke-linecap:butt;stroke-linejoin:miter;stroke:rgb(100%,100%,100%);stroke-opacity:1;stroke-miterlimit:4;" d="M 0.317308 9.927285 C 0.317308 14.869395 10.615385 18.866914 23.309615 18.866914 C 36.005769 18.866914 46.299038 14.869395 46.299038 9.927285 L 46.299038 38.310918 C 46.299038 43.247285 36.005769 47.250547 23.309615 47.250547 C 10.615385 47.250547 0.317308 43.247285 0.317308 38.310918 Z M 0.317308 9.927285 " transform="matrix(4.0625,0,0,4.081633,0,0)"/>
<path style=" stroke:none;fill-rule:nonzero;fill:rgb(3.137255%,48.235294%,73.333333%);fill-opacity:1;" d="M 187.808594 40.515625 C 187.808594 60.691406 145.992188 77.011719 94.425781 77.011719 C 42.832031 77.011719 1.011719 60.6875 1.011719 40.515625 L 1.011719 156.367188 C 1.011719 176.523438 42.828125 192.859375 94.425781 192.859375 C 145.992188 192.859375 187.808594 176.523438 187.808594 156.371094 L 187.808594 40.511719 "/>
<path style="fill:none;stroke-width:0.5;stroke-linecap:butt;stroke-linejoin:miter;stroke:rgb(100%,100%,100%);stroke-opacity:1;stroke-miterlimit:4;" d="M 46.229808 9.927285 C 46.229808 14.869395 35.936538 18.866914 23.243269 18.866914 C 10.543269 18.866914 0.249038 14.869395 0.249038 9.927285 L 0.249038 38.310918 C 0.249038 43.247285 10.542308 47.250547 23.243269 47.250547 C 35.936538 47.250547 46.229808 43.247285 46.229808 38.310918 Z M 46.229808 9.927285 " transform="matrix(4.0625,0,0,4.081633,0,0)"/>
<path style=" stroke:none;fill-rule:nonzero;fill:rgb(3.137255%,48.235294%,73.333333%);fill-opacity:1;" d="M 94.425781 77.011719 C 146 77.011719 187.808594 60.6875 187.808594 40.515625 C 187.808594 20.367188 146 4.023438 94.425781 4.023438 C 42.832031 4.023438 1.011719 20.367188 1.011719 40.515625 C 1.011719 60.691406 42.828125 77.011719 94.425781 77.011719 "/>
<path style="fill:none;stroke-width:0.5;stroke-linecap:butt;stroke-linejoin:miter;stroke:rgb(100%,100%,100%);stroke-opacity:1;stroke-miterlimit:4;" d="M 23.243269 18.866914 C 35.938462 18.866914 46.229808 14.869395 46.229808 9.927285 C 46.229808 4.989961 35.938462 0.985742 23.243269 0.985742 C 10.543269 0.985742 0.249038 4.989961 0.249038 9.927285 C 0.249038 14.869395 10.542308 18.866914 23.243269 18.866914 Z M 23.243269 18.866914 " transform="matrix(4.0625,0,0,4.081633,0,0)"/>
<path style=" stroke:none;fill-rule:nonzero;fill:rgb(100%,100%,100%);fill-opacity:1;" d="M 74.40625 24.992188 L 82.125 36.613281 L 52.96875 43.386719 L 59.332031 38.042969 L 14.261719 30.308594 L 25.570312 21.800781 L 69.054688 29.199219 L 74.40625 24.992188 M 115.449219 53.171875 L 110.167969 41.191406 L 136.480469 35.917969 L 131.933594 40.023438 L 175.773438 47.554688 L 165.242188 56.007812 L 121.660156 47.777344 L 115.453125 53.175781 M 101.066406 18.652344 L 130.519531 10.542969 L 130.878906 23.21875 L 123.5 21.820312 L 109.117188 33.800781 L 95.410156 31.789062 L 110.253906 20.074219 L 101.066406 18.652344 M 88.433594 64.09375 L 60.386719 69.375 L 59.332031 56.34375 L 67.402344 58.117188 L 82.839844 44.859375 L 96.503906 47.191406 L 80.019531 61.640625 L 88.429688 64.089844 M 75.691406 145.75 L 110.671875 145.75 L 110.671875 110.613281 L 75.691406 110.613281 Z M 75.691406 145.75 "/>
<path style="fill:none;stroke-width:0.5;stroke-linecap:butt;stroke-linejoin:miter;stroke:rgb(0%,0%,0%);stroke-opacity:1;stroke-miterlimit:4;" d="M 18.631731 35.70875 L 27.242308 35.70875 L 27.242308 27.099297 L 18.631731 27.099297 Z M 18.631731 35.70875 " transform="matrix(4.0625,0,0,4.081633,0,0)"/>
<path style=" stroke:none;fill-rule:nonzero;fill:rgb(100%,100%,100%);fill-opacity:1;" d="M 52.230469 85.699219 L 52.246094 100.285156 L 25.921875 100.304688 L 25.90625 85.738281 L 52.230469 85.699219 "/>
<path style="fill:none;stroke-width:0.5;stroke-linecap:butt;stroke-linejoin:miter;stroke:rgb(0%,0%,0%);stroke-opacity:1;stroke-miterlimit:4;" d="M 12.856731 20.996309 L 12.860577 24.569863 L 6.380769 24.574648 L 6.376923 21.004922 Z M 12.856731 20.996309 " transform="matrix(4.0625,0,0,4.081633,0,0)"/>
<path style=" stroke:none;fill-rule:nonzero;fill:rgb(100%,100%,100%);fill-opacity:1;" d="M 52.230469 122.125 L 52.246094 136.71875 L 25.921875 136.738281 L 25.90625 122.167969 L 52.230469 122.125 "/>
<path style="fill:none;stroke-width:0.5;stroke-linecap:butt;stroke-linejoin:miter;stroke:rgb(0%,0%,0%);stroke-opacity:1;stroke-miterlimit:4;" d="M 12.856731 29.921582 L 12.860577 33.496094 L 6.380769 33.500879 L 6.376923 29.931152 Z M 12.856731 29.921582 " transform="matrix(4.0625,0,0,4.081633,0,0)"/>
<path style=" stroke:none;fill-rule:nonzero;fill:rgb(100%,100%,100%);fill-opacity:1;" d="M 52.230469 156.46875 L 52.246094 171.035156 L 25.921875 171.058594 L 25.90625 156.484375 L 52.230469 156.46875 "/>
<path style="fill:none;stroke-width:0.5;stroke-linecap:butt;stroke-linejoin:miter;stroke:rgb(0%,0%,0%);stroke-opacity:1;stroke-miterlimit:4;" d="M 12.856731 38.334844 L 12.860577 41.90457 L 6.380769 41.910312 L 6.376923 38.339629 Z M 12.856731 38.334844 " transform="matrix(4.0625,0,0,4.081633,0,0)"/>
<path style=" stroke:none;fill-rule:nonzero;fill:rgb(100%,100%,100%);fill-opacity:1;" d="M 106.402344 156.46875 L 106.402344 171.035156 L 80.078125 171.058594 L 80.078125 156.484375 L 106.40625 156.46875 "/>
<path style="fill:none;stroke-width:0.5;stroke-linecap:butt;stroke-linejoin:miter;stroke:rgb(0%,0%,0%);stroke-opacity:1;stroke-miterlimit:4;" d="M 26.191346 38.334844 L 26.191346 41.90457 L 19.711538 41.910312 L 19.711538 38.339629 L 26.192308 38.334844 Z M 26.191346 38.334844 " transform="matrix(4.0625,0,0,4.081633,0,0)"/>
<path style=" stroke:none;fill-rule:nonzero;fill:rgb(100%,100%,100%);fill-opacity:1;" d="M 162.261719 85.699219 L 162.261719 100.285156 L 135.9375 100.304688 L 135.9375 85.738281 L 162.265625 85.699219 "/>
<path style="fill:none;stroke-width:0.5;stroke-linecap:butt;stroke-linejoin:miter;stroke:rgb(0%,0%,0%);stroke-opacity:1;stroke-miterlimit:4;" d="M 39.941346 20.996309 L 39.941346 24.569863 L 33.461538 24.574648 L 33.461538 21.004922 L 39.942308 20.996309 Z M 39.941346 20.996309 " transform="matrix(4.0625,0,0,4.081633,0,0)"/>
<path style=" stroke:none;fill-rule:nonzero;fill:rgb(100%,100%,100%);fill-opacity:1;" d="M 106.402344 85.699219 L 106.402344 100.285156 L 80.078125 100.304688 L 80.078125 85.738281 L 106.40625 85.699219 "/>
<path style="fill:none;stroke-width:0.5;stroke-linecap:butt;stroke-linejoin:miter;stroke:rgb(0%,0%,0%);stroke-opacity:1;stroke-miterlimit:4;" d="M 26.191346 20.996309 L 26.191346 24.569863 L 19.711538 24.574648 L 19.711538 21.004922 L 26.192308 20.996309 Z M 26.191346 20.996309 " transform="matrix(4.0625,0,0,4.081633,0,0)"/>
<path style=" stroke:none;fill-rule:nonzero;fill:rgb(100%,100%,100%);fill-opacity:1;" d="M 162.261719 122.125 L 162.261719 136.71875 L 135.9375 136.738281 L 135.9375 122.167969 L 162.265625 122.125 "/>
<path style="fill:none;stroke-width:0.5;stroke-linecap:butt;stroke-linejoin:miter;stroke:rgb(0%,0%,0%);stroke-opacity:1;stroke-miterlimit:4;" d="M 39.941346 29.921582 L 39.941346 33.496094 L 33.461538 33.500879 L 33.461538 29.931152 L 39.942308 29.921582 Z M 39.941346 29.921582 " transform="matrix(4.0625,0,0,4.081633,0,0)"/>
<path style=" stroke:none;fill-rule:nonzero;fill:rgb(100%,100%,100%);fill-opacity:1;" d="M 162.261719 156.46875 L 162.261719 171.035156 L 135.9375 171.058594 L 135.9375 156.484375 L 162.265625 156.46875 "/>
<path style="fill:none;stroke-width:0.5;stroke-linecap:butt;stroke-linejoin:miter;stroke:rgb(0%,0%,0%);stroke-opacity:1;stroke-miterlimit:4;" d="M 39.941346 38.334844 L 39.941346 41.90457 L 33.461538 41.910312 L 33.461538 38.339629 L 39.942308 38.334844 Z M 39.941346 38.334844 " transform="matrix(4.0625,0,0,4.081633,0,0)"/>
<path style="fill:none;stroke-width:1;stroke-linecap:butt;stroke-linejoin:miter;stroke:rgb(100%,100%,100%);stroke-opacity:1;stroke-miterlimit:4;" d="M 9.770192 31.50834 L 36.645192 31.50834 M 22.895192 23.383145 L 22.895192 40.258477 M 10.864423 40.258477 L 35.707692 22.914199 M 35.239423 40.258477 L 10.395192 22.914199 " transform="matrix(4.0625,0,0,4.081633,0,0)"/>
</g>
</svg>
