<?xml version="1.0" encoding="UTF-8"?>
<svg xmlns="http://www.w3.org/2000/svg" xmlns:xlink="http://www.w3.org/1999/xlink" width="406pt" height="200pt" viewBox="0 0 406 200" version="1.1">
<g id="surface1">
<path style=" stroke:none;fill-rule:nonzero;fill:rgb(3.137255%,48.235294%,73.333333%);fill-opacity:1;" d="M 4.710938 100.785156 L 124.730469 3.621094 L 401.878906 3.621094 L 302.53125 100.78125 L 4.710938 100.78125 "/>
<path style="fill:none;stroke-width:0.5;stroke-linecap:butt;stroke-linejoin:miter;stroke:rgb(100%,100%,100%);stroke-opacity:1;stroke-miterlimit:4;" d="M 0.707801 15.117773 L 18.740292 0.543164 L 60.380821 0.543164 L 45.454203 15.117188 L 0.707801 15.117188 Z M 0.707801 15.117773 " transform="matrix(6.655738,0,0,6.666667,0,0)"/>
<path style=" stroke:none;fill-rule:nonzero;fill:rgb(3.137255%,48.235294%,73.333333%);fill-opacity:1;" d="M 302.53125 197.398438 L 401.875 89.972656 L 401.875 3.613281 L 302.53125 100.785156 L 302.53125 197.398438 "/>
<path style="fill:none;stroke-width:0.5;stroke-linecap:butt;stroke-linejoin:miter;stroke:rgb(100%,100%,100%);stroke-opacity:1;stroke-miterlimit:4;" d="M 45.454203 29.609766 L 60.380234 13.495898 L 60.380234 0.541992 L 45.454203 15.117773 Z M 45.454203 29.609766 " transform="matrix(6.655738,0,0,6.666667,0,0)"/>
<path style="fill-rule:nonzero;fill:rgb(3.137255%,48.235294%,73.333333%);fill-opacity:1;stroke-width:0.5;stroke-linecap:butt;stroke-linejoin:miter;stroke:rgb(100%,100%,100%);stroke-opacity:1;stroke-miterlimit:4;" d="M 0.765904 29.623828 L 45.454203 29.623828 L 45.454203 15.117773 L 0.765904 15.117773 Z M 0.765904 29.623828 " transform="matrix(6.655738,0,0,6.666667,0,0)"/>
<path style=" stroke:none;fill-rule:nonzero;fill:rgb(3.137255%,48.235294%,73.333333%);fill-opacity:1;" d="M 258.65625 18.320312 C 189.167969 15.492188 109.878906 29.519531 81.480469 49.671875 C 53.105469 69.828125 86.417969 88.441406 155.890625 91.308594 C 225.375 94.140625 304.671875 80.105469 333.046875 59.960938 C 361.445312 39.808594 328.132812 21.160156 258.65625 18.328125 "/>
<path style="fill:none;stroke-width:0.5;stroke-linecap:butt;stroke-linejoin:miter;stroke:rgb(100%,100%,100%);stroke-opacity:1;stroke-miterlimit:4;" d="M 38.862146 2.748047 C 28.421788 2.323828 16.5089 4.42793 12.242139 7.450781 C 7.9789 10.474219 12.983981 13.266211 23.42199 13.696289 C 33.861761 14.121094 45.775824 12.01582 50.039063 8.994141 C 54.305823 5.971289 49.300743 3.174023 38.862146 2.749219 Z M 38.862146 2.748047 " transform="matrix(6.655738,0,0,6.666667,0,0)"/>
<path style=" stroke:none;fill-rule:nonzero;fill:rgb(3.137255%,48.235294%,73.333333%);fill-opacity:1;" d="M 246.214844 33.625 C 189.242188 31.828125 125.449219 40.039062 103.703125 51.980469 C 81.964844 63.933594 110.492188 75.101562 167.464844 76.894531 C 224.4375 78.707031 288.261719 70.472656 310.011719 58.527344 C 331.75 46.578125 303.175781 35.421875 246.214844 33.625 "/>
<path style="fill:none;stroke-width:0.5;stroke-linecap:butt;stroke-linejoin:miter;stroke:rgb(100%,100%,100%);stroke-opacity:1;stroke-miterlimit:4;" d="M 36.992871 5.04375 C 28.43294 4.774219 18.848282 6.005859 15.581011 7.79707 C 12.314915 9.590039 16.601043 11.265234 25.160974 11.53418 C 33.720905 11.806055 43.310258 10.570898 46.578115 8.779102 C 49.844212 6.986719 45.551041 5.313281 36.992871 5.04375 Z M 36.992871 5.04375 " transform="matrix(6.655738,0,0,6.666667,0,0)"/>
</g>
</svg>
