<?xml version="1.0" encoding="UTF-8"?>
<svg xmlns="http://www.w3.org/2000/svg" xmlns:xlink="http://www.w3.org/1999/xlink" width="289pt" height="200pt" viewBox="0 0 289 200" version="1.1">
<defs>
<clipPath id="clip1">
  <path d="M 64 113 L 177 113 L 177 190.527344 L 64 190.527344 Z M 64 113 "/>
</clipPath>
<clipPath id="clip2">
  <path d="M 215 0 L 289 0 L 289 190.527344 L 215 190.527344 Z M 215 0 "/>
</clipPath>
</defs>
<g id="surface1">
<path style=" stroke:none;fill-rule:nonzero;fill:rgb(3.137255%,48.235294%,73.333333%);fill-opacity:1;" d="M 4.132812 185.492188 L 231.046875 185.492188 L 231.046875 61.773438 L 4.132812 61.773438 Z M 4.132812 185.492188 "/>
<path style="fill:none;stroke-width:4;stroke-linecap:butt;stroke-linejoin:miter;stroke:rgb(100%,100%,100%);stroke-opacity:1;stroke-miterlimit:4;" d="M 6.050165 198.177284 L 6.050165 17.357572 L 338.237374 17.357572 L 338.237374 198.177284 " transform="matrix(0.683091,0,0,-0.684211,0,197.368421)"/>
<path style=" stroke:none;fill-rule:nonzero;fill:rgb(100%,100%,100%);fill-opacity:1;" d="M 146.0625 116.105469 C 146.0625 120.359375 134.726562 123.800781 120.714844 123.800781 C 106.707031 123.800781 95.367188 120.359375 95.367188 116.105469 L 95.367188 147.914062 C 95.367188 152.164062 106.707031 155.613281 120.714844 155.613281 C 134.726562 155.613281 146.0625 152.164062 146.0625 147.914062 L 146.0625 116.105469 "/>
<path style=" stroke:none;fill-rule:nonzero;fill:rgb(3.137255%,48.235294%,73.333333%);fill-opacity:1;" d="M 120.6875 123.800781 C 134.671875 123.800781 146.011719 120.359375 146.011719 116.105469 C 146.011719 111.855469 134.671875 108.40625 120.6875 108.40625 C 106.679688 108.40625 95.339844 111.855469 95.339844 116.105469 C 95.339844 120.359375 106.679688 123.800781 120.6875 123.800781 "/>
<path style="fill:none;stroke-width:8;stroke-linecap:butt;stroke-linejoin:miter;stroke:rgb(100%,100%,100%);stroke-opacity:1;stroke-miterlimit:4;" d="M 176.678533 107.521935 C 197.150735 107.521935 213.751518 112.551683 213.751518 118.76893 C 213.751518 124.980469 197.150735 130.021635 176.678533 130.021635 C 156.172021 130.021635 139.571238 124.980469 139.571238 118.76893 C 139.571238 112.551683 156.172021 107.521935 176.678533 107.521935 Z M 176.678533 107.521935 " transform="matrix(0.683091,0,0,-0.684211,0,197.368421)"/>
<path style=" stroke:none;fill-rule:nonzero;fill:rgb(100%,100%,100%);fill-opacity:1;" d="M 120.714844 159.410156 C 134.726562 159.410156 146.0625 155.960938 146.0625 151.710938 C 146.0625 147.457031 134.726562 144.015625 120.714844 144.015625 C 106.707031 144.015625 95.367188 147.457031 95.367188 151.710938 C 95.367188 155.960938 106.707031 159.410156 120.714844 159.410156 "/>
<g clip-path="url(#clip1)" clip-rule="nonzero">
<path style="fill:none;stroke-width:8;stroke-linecap:butt;stroke-linejoin:miter;stroke:rgb(100%,100%,100%);stroke-opacity:1;stroke-miterlimit:4;" d="M 176.718563 55.477464 C 197.230794 55.477464 213.825858 60.51863 213.825858 66.730168 C 213.825858 72.947416 197.230794 77.977163 176.718563 77.977163 C 156.21205 77.977163 139.611267 72.947416 139.611267 66.730168 C 139.611267 60.51863 156.21205 55.477464 176.718563 55.477464 Z M 176.718563 55.477464 " transform="matrix(0.683091,0,0,-0.684211,0,197.368421)"/>
</g>
<path style=" stroke:none;fill-rule:nonzero;fill:rgb(3.137255%,48.235294%,73.333333%);fill-opacity:1;" d="M 3.867188 61.773438 L 87.628906 -6.085938 L 300.402344 -6.085938 L 231.046875 61.773438 L 3.867188 61.773438 "/>
<path style="fill:none;stroke-width:4;stroke-linecap:butt;stroke-linejoin:miter;stroke:rgb(100%,100%,100%);stroke-opacity:1;stroke-miterlimit:4;" d="M 5.661307 198.177284 L 128.282934 297.35637 L 439.769202 297.35637 L 338.237374 198.177284 Z M 5.661307 198.177284 " transform="matrix(0.683091,0,0,-0.684211,0,197.368421)"/>
<path style=" stroke:none;fill-rule:nonzero;fill:rgb(3.137255%,48.235294%,73.333333%);fill-opacity:1;" d="M 231.046875 63.429688 L 231.046875 187.089844 L 300.402344 114.210938 L 300.402344 -4.292969 L 231.046875 63.429688 "/>
<g clip-path="url(#clip2)" clip-rule="nonzero">
<path style="fill:none;stroke-width:4;stroke-linecap:butt;stroke-linejoin:miter;stroke:rgb(100%,100%,100%);stroke-opacity:1;stroke-miterlimit:4;" d="M 338.237374 195.756611 L 338.237374 15.022536 L 439.769202 121.537861 L 439.769202 294.735877 Z M 338.237374 195.756611 " transform="matrix(0.683091,0,0,-0.684211,0,197.368421)"/>
</g>
<path style=" stroke:none;fill-rule:nonzero;fill:rgb(100%,100%,100%);fill-opacity:1;" d="M 201.160156 128.960938 L 159.644531 128.988281 L 159.644531 122.386719 L 201.160156 122.367188 L 201.191406 112.046875 L 225.234375 125.679688 L 201.191406 139.308594 L 201.160156 128.960938 M 194.011719 95.660156 L 159.195312 118.328125 L 155.613281 112.792969 L 190.410156 90.105469 L 184.8125 81.441406 L 212.402344 79.757812 L 199.648438 104.324219 L 194.011719 95.660156 M 194.011719 155.289062 L 159.195312 132.601562 L 155.613281 138.15625 L 190.410156 160.824219 L 184.8125 169.480469 L 212.402344 171.164062 L 199.648438 146.625 L 194.011719 155.289062 M 35.488281 128.960938 L 76.984375 128.988281 L 76.984375 122.386719 L 35.484375 122.367188 L 35.460938 112.046875 L 11.421875 125.679688 L 35.460938 139.308594 L 35.488281 128.960938 M 123.277344 76.789062 L 123.304688 61.855469 L 116.710938 61.855469 L 116.6875 76.789062 L 106.382812 76.789062 L 119.992188 100.875 L 133.605469 76.789062 L 123.277344 76.789062 M 42.640625 95.660156 L 77.433594 118.328125 L 81.035156 112.792969 L 46.246094 90.105469 L 51.847656 81.441406 L 24.257812 79.757812 L 37.011719 104.324219 L 42.640625 95.660156 M 42.640625 155.289062 L 77.433594 132.601562 L 81.035156 138.15625 L 46.246094 160.824219 L 51.847656 169.480469 L 24.257812 171.164062 L 37.011719 146.628906 L 42.640625 155.289062 "/>
</g>
</svg>
