<?xml version="1.0" encoding="UTF-8"?>
<svg xmlns="http://www.w3.org/2000/svg" xmlns:xlink="http://www.w3.org/1999/xlink" width="111pt" height="200pt" viewBox="0 0 111 200" version="1.1">
<g id="surface1">
<path style=" stroke:none;fill-rule:nonzero;fill:rgb(0.784314%,43.921569%,62.352941%);fill-opacity:1;" d="M 98.128906 85.800781 C 99.726562 79.910156 106.527344 50.503906 106.804688 46.410156 C 107.097656 42.3125 105.609375 37.1875 103.40625 36.160156 L 103.574219 33.855469 C 103.035156 33.632812 102.484375 33.445312 101.949219 33.226562 L 102.113281 33.285156 C 102.113281 33.285156 103.679688 26.714844 104.574219 22.160156 C 106.308594 13.421875 106.476562 9.027344 106.476562 9.027344 C 106.449219 7.8125 106.121094 6.75 105.039062 6.449219 L 99.9375 5.042969 C 98.828125 4.738281 98.105469 5.449219 97.398438 6.503906 C 97.398438 6.503906 95.414062 10.578125 92.628906 18.851562 C 91.136719 23.238281 89.703125 28.777344 89.703125 28.777344 L 89.777344 28.804688 C 86.726562 27.804688 83.65625 26.875 80.5625 26.015625 C 72.746094 23.867188 64.816406 22.171875 56.804688 20.933594 C 56.804688 20.933594 56.421875 21.671875 55.773438 22.972656 C 53.359375 22.753906 49.429688 26.390625 47.585938 30.054688 C 45.75 33.714844 36.507812 62.445312 34.875 68.328125 C 33.25 74.214844 30.101562 89.1875 28.726562 96.65625 C 27.339844 104.082031 26.101562 117.078125 21.296875 134.433594 C 18.480469 144.667969 13.929688 159.910156 11.542969 166.253906 C 10.917969 167.910156 5.910156 176.378906 13.171875 179.222656 C 20.300781 182.066406 30.917969 185.109375 36.285156 186.605469 C 41.652344 188.070312 52.324219 190.917969 59.917969 192.160156 C 67.617188 193.410156 67.664062 183.589844 67.964844 181.828125 C 69.1875 175.148438 73.058594 159.75 75.878906 149.523438 C 80.675781 132.160156 86.257812 120.359375 88.882812 113.246094 C 91.515625 106.144531 96.503906 91.6875 98.128906 85.800781 "/>
<path style=" stroke:none;fill-rule:nonzero;fill:rgb(0.784314%,43.921569%,62.352941%);fill-opacity:1;" d="M 98.535156 9.195312 C 98.535156 9.195312 96.175781 8.484375 94.167969 7.917969 C 92.351562 7.429688 89.859375 6.777344 89.859375 6.777344 "/>
<path style=" stroke:none;fill-rule:nonzero;fill:rgb(0.784314%,43.921569%,62.352941%);fill-opacity:1;" d="M 90.242188 86.582031 C 91.835938 80.699219 98.644531 51.289062 98.910156 47.199219 C 99.21875 43.105469 97.691406 37.972656 95.527344 36.945312 C 95.636719 35.476562 95.660156 34.667969 95.660156 34.667969 C 95.148438 34.449219 94.605469 34.226562 94.066406 34.015625 L 94.226562 34.070312 C 94.226562 34.070312 95.796875 27.503906 96.691406 22.945312 C 98.402344 14.214844 98.589844 9.820312 98.589844 9.820312 C 98.5625 8.601562 98.234375 7.5625 97.125 7.246094 L 92.058594 5.855469 C 90.949219 5.535156 90.214844 6.238281 89.503906 7.292969 C 89.503906 7.292969 87.535156 11.359375 84.742188 19.667969 C 83.25 24.054688 81.8125 29.5625 81.8125 29.5625 L 81.894531 29.589844 C 78.851562 28.585938 75.777344 27.664062 72.683594 26.828125 C 64.867188 24.660156 56.933594 22.960938 48.917969 21.726562 C 48.917969 21.726562 48.535156 22.460938 47.878906 23.761719 C 45.476562 23.539062 41.542969 27.183594 39.703125 30.839844 C 37.855469 34.5 28.589844 63.226562 26.996094 69.117188 C 25.363281 75 22.222656 89.976562 20.835938 97.4375 C 19.457031 104.871094 18.210938 117.859375 13.414062 135.214844 C 10.601562 145.457031 6.050781 160.699219 3.664062 167.042969 C 3.011719 168.710938 -1.96875 177.167969 5.292969 180.042969 C 12.441406 182.867188 23.039062 185.898438 28.410156 187.394531 C 33.773438 188.890625 44.449219 191.707031 52.035156 192.957031 C 59.730469 194.199219 59.785156 184.382812 60.085938 182.644531 C 61.304688 175.972656 65.183594 160.539062 68 150.3125 C 72.792969 132.949219 78.378906 121.148438 81.007812 114.042969 C 83.636719 106.933594 88.617188 92.476562 90.25 86.589844 "/>
<path style=" stroke:none;fill-rule:nonzero;fill:rgb(0.784314%,43.921569%,62.352941%);fill-opacity:1;" d="M 34.769531 127.816406 C 33.921875 130.824219 30.820312 132.589844 27.804688 131.777344 C 24.792969 130.945312 23.023438 127.824219 23.855469 124.808594 C 24.683594 121.792969 27.800781 120.023438 30.8125 120.851562 C 33.828125 121.683594 35.597656 124.800781 34.769531 127.816406 M 49.023438 133.867188 C 48.140625 136.8125 45.066406 138.507812 42.109375 137.691406 C 39.148438 136.871094 37.382812 133.835938 38.132812 130.855469 C 38.636719 128.867188 40.171875 127.304688 42.152344 126.777344 C 44.128906 126.246094 46.242188 126.828125 47.667969 128.300781 C 49.09375 129.773438 49.613281 131.902344 49.023438 133.867188 M 64.414062 136.011719 C 63.582031 139.019531 60.472656 140.785156 57.464844 139.957031 C 54.457031 139.125 52.695312 136.011719 53.523438 133 C 54.492188 130.160156 57.5 128.566406 60.390625 129.367188 C 63.277344 130.164062 65.042969 133.078125 64.417969 136.011719 M 31.328125 140.273438 C 30.492188 143.285156 27.378906 145.050781 24.363281 144.226562 C 21.355469 143.386719 19.589844 140.273438 20.402344 137.253906 C 21.328125 134.355469 24.375 132.707031 27.308594 133.515625 C 30.242188 134.320312 32.015625 137.300781 31.328125 140.265625 M 45.605469 146.316406 C 44.773438 149.335938 41.652344 151.105469 38.640625 150.273438 C 35.625 149.4375 33.855469 146.316406 34.6875 143.300781 C 35.519531 140.28125 38.636719 138.511719 41.652344 139.34375 C 44.667969 140.175781 46.4375 143.300781 45.605469 146.316406 M 61 148.464844 C 60.035156 151.316406 57.015625 152.914062 54.121094 152.113281 C 51.222656 151.3125 49.453125 148.390625 50.082031 145.449219 C 50.914062 142.433594 54.035156 140.660156 57.046875 141.496094 C 60.0625 142.328125 61.832031 145.449219 61 148.464844 M 27.890625 152.722656 C 27.378906 154.703125 25.839844 156.257812 23.863281 156.78125 C 21.890625 157.308594 19.785156 156.722656 18.359375 155.257812 C 16.933594 153.789062 16.410156 151.667969 16.988281 149.707031 C 17.5 147.722656 19.035156 146.171875 21.011719 145.644531 C 22.988281 145.121094 25.09375 145.703125 26.519531 147.171875 C 27.945312 148.636719 28.46875 150.761719 27.890625 152.722656 M 42.167969 158.773438 C 41.335938 161.792969 38.214844 163.5625 35.199219 162.726562 C 32.195312 161.878906 30.433594 158.769531 31.246094 155.753906 C 32.09375 152.75 35.199219 150.984375 38.210938 151.800781 C 41.214844 152.640625 43.007812 155.753906 42.167969 158.773438 M 57.558594 160.917969 C 56.726562 163.921875 53.609375 165.714844 50.59375 164.878906 C 47.582031 164.046875 45.8125 160.925781 46.644531 157.910156 C 47.472656 154.894531 50.589844 153.121094 53.601562 153.953125 C 56.617188 154.78125 58.386719 157.898438 57.558594 160.917969 M 24.46875 165.171875 C 23.636719 168.1875 20.519531 169.960938 17.503906 169.132812 C 16.054688 168.738281 14.820312 167.777344 14.078125 166.46875 C 13.335938 165.160156 13.144531 163.609375 13.546875 162.160156 C 14.386719 159.148438 17.503906 157.359375 20.511719 158.199219 C 23.527344 159.039062 25.285156 162.160156 24.46875 165.171875 Z M 38.726562 171.222656 C 37.746094 174.039062 34.75 175.609375 31.875 174.816406 C 29.003906 174.019531 27.238281 171.132812 27.839844 168.210938 C 28.671875 165.199219 31.785156 163.425781 34.796875 164.25 C 37.800781 165.089844 39.566406 168.207031 38.726562 171.222656 M 54.117188 173.359375 C 53.167969 176.21875 50.144531 177.832031 47.242188 177.03125 C 44.34375 176.234375 42.574219 173.296875 43.21875 170.355469 C 43.714844 168.363281 45.253906 166.796875 47.238281 166.261719 C 49.21875 165.730469 51.335938 166.3125 52.765625 167.789062 C 54.191406 169.265625 54.710938 171.398438 54.117188 173.367188 M 31.574219 179.660156 C 31.492188 179.933594 31.003906 180.035156 30.464844 179.898438 C 29.941406 179.734375 29.597656 179.417969 29.640625 179.121094 C 29.726562 178.84375 30.242188 178.734375 30.757812 178.867188 C 31.273438 179.003906 31.628906 179.367188 31.574219 179.660156 Z M 29.640625 179.117188 L 27.890625 185.601562 M 29.96875 179.65625 L 28.292969 185.738281 M 31.574219 179.660156 L 29.78125 186.140625 M 31.03125 179.960938 L 29.347656 186.003906 M 42.457031 85.800781 L 41.238281 90.300781 M 42.972656 85.9375 L 41.703125 90.496094 M 68.363281 92.957031 L 67.148438 97.464844 M 67.875 92.828125 L 66.605469 97.382812 M 94.222656 34.066406 C 94.222656 34.066406 95.796875 27.511719 96.691406 22.945312 C 98.402344 14.214844 98.589844 9.820312 98.589844 9.820312 C 98.5625 8.601562 98.234375 7.5625 97.125 7.246094 L 92.058594 5.855469 C 90.949219 5.535156 90.214844 6.238281 89.503906 7.292969 C 89.503906 7.292969 87.527344 11.359375 84.738281 19.667969 C 83.25 24.054688 81.8125 29.5625 81.8125 29.5625 M 79.835938 93.964844 C 79.6875 94.5 79.332031 94.953125 78.847656 95.222656 C 78.363281 95.492188 77.792969 95.554688 77.261719 95.398438 L 33.578125 83.359375 C 33.042969 83.210938 32.589844 82.855469 32.320312 82.367188 C 32.050781 81.882812 31.984375 81.3125 32.140625 80.777344 L 39.753906 53.140625 C 40.046875 52.027344 41.199219 51.371094 42.308594 51.699219 L 85.984375 63.773438 C 87.097656 64.070312 87.746094 65.207031 87.445312 66.320312 Z M 94.820312 31.707031 C 90.738281 30.097656 86.597656 28.632812 82.410156 27.3125 M 49.917969 21.890625 C 49.917969 21.890625 39.511719 43.15625 33.542969 64.75 C 26.472656 90.4375 25.445312 99.003906 26.496094 110.917969 C 26.71875 113.390625 29.160156 116.394531 31.902344 117.160156 C 32.976562 117.460938 34.230469 117.785156 34.742188 117.945312 C 35.28125 118.082031 37.289062 118.566406 38.964844 119.867188 C 40.621094 121.171875 41.03125 121.527344 42.035156 122.070312 C 43.007812 122.609375 43.144531 122.9375 45.960938 123.722656 C 48.75 124.503906 49.074219 124.265625 50.183594 124.320312 C 51.304688 124.34375 51.847656 124.265625 53.957031 124.023438 C 56.042969 123.746094 58.019531 124.378906 58.535156 124.503906 C 59.078125 124.644531 60.324219 125 61.410156 125.300781 C 64.121094 126.054688 67.753906 124.726562 69.214844 122.722656 C 76.230469 113.035156 79.726562 105.140625 86.828125 79.449219 C 92.761719 57.890625 94.738281 34.285156 94.738281 34.285156 M 43.789062 32.578125 C 61.214844 35.128906 78.253906 39.828125 94.523438 46.578125 "/>
<path style=" stroke:none;fill-rule:nonzero;fill:rgb(0.784314%,43.921569%,62.352941%);fill-opacity:1;" d="M 62.546875 111.082031 C 60.679688 117.804688 53.734375 121.746094 47.015625 119.894531 C 40.421875 117.933594 36.609375 111.050781 38.441406 104.414062 C 40.269531 97.777344 47.070312 93.828125 53.734375 95.535156 C 60.449219 97.40625 64.390625 104.359375 62.546875 111.089844 Z M 39.292969 90.355469 C 40.96875 90.820312 42.28125 91.523438 42.902344 91.960938 C 43.546875 92.359375 43.738281 92.929688 43.203125 93.285156 C 42.445312 93.785156 41.722656 94.332031 41.03125 94.917969 C 40.375 95.484375 39.894531 95.644531 38.910156 95.105469 C 37.234375 94.121094 33.660156 91.523438 32.765625 90.304688 C 32.300781 89.710938 32.738281 89.460938 33.632812 89.410156 C 34.933594 89.355469 37.429688 89.839844 39.292969 90.355469 Z M 30.324219 103.644531 C 31.246094 103.945312 33.523438 105.109375 34.203125 105.605469 C 34.847656 106.089844 35.878906 107.117188 35.796875 108.394531 C 35.691406 109.859375 35.769531 112.921875 36.398438 113.960938 C 37.234375 115.285156 37.128906 115.851562 35.9375 115.640625 C 34.535156 115.28125 33.164062 114.8125 31.839844 114.226562 C 31.136719 113.898438 30.136719 113.285156 29.808594 112.328125 C 29.132812 110.34375 29 106.304688 29.347656 104.328125 C 29.488281 103.457031 29.835938 103.484375 30.324219 103.644531 M 68.78125 98.496094 C 67.5 98.144531 66.179688 97.980469 64.851562 98.003906 C 64.121094 98.0625 63.660156 98.4375 63.929688 99.003906 C 64.222656 99.632812 64.742188 100.828125 64.957031 101.535156 C 65.222656 102.34375 65.523438 102.753906 66.660156 102.753906 C 68.621094 102.777344 73.003906 102.40625 74.421875 101.832031 C 75.121094 101.535156 74.847656 101.09375 74.121094 100.609375 C 73.03125 99.871094 70.625 99.003906 68.78125 98.488281 Z M 69.667969 114.496094 C 68.238281 114.269531 66.789062 114.167969 65.339844 114.199219 C 64.523438 114.285156 63.121094 114.632812 62.546875 115.777344 C 61.867188 117.105469 60.246094 119.679688 59.15625 120.25 C 57.777344 120.960938 57.558594 121.527344 58.695312 121.929688 C 59.589844 122.261719 62.164062 122.773438 62.921875 122.828125 C 63.714844 122.882812 64.902344 122.90625 65.660156 122.226562 C 67.261719 120.871094 69.429688 117.460938 70.15625 115.609375 C 70.492188 114.800781 70.191406 114.632812 69.675781 114.5 M 67.554688 41.640625 L 71.734375 26.554688 M 68.941406 42.015625 L 73.117188 26.9375 "/>
<path style=" stroke:none;fill-rule:nonzero;fill:rgb(0.784314%,43.921569%,62.352941%);fill-opacity:1;" d="M 98.128906 85.800781 C 99.726562 79.910156 106.527344 50.503906 106.804688 46.410156 C 107.097656 42.3125 105.609375 37.1875 103.40625 36.160156 L 103.574219 33.855469 C 103.035156 33.632812 102.484375 33.445312 101.949219 33.226562 L 102.113281 33.285156 C 102.113281 33.285156 103.679688 26.714844 104.574219 22.160156 C 106.308594 13.421875 106.476562 9.027344 106.476562 9.027344 C 106.449219 7.8125 106.121094 6.75 105.039062 6.449219 L 99.9375 5.042969 C 98.828125 4.738281 98.105469 5.449219 97.398438 6.503906 C 97.398438 6.503906 95.414062 10.578125 92.628906 18.851562 C 91.136719 23.238281 89.703125 28.777344 89.703125 28.777344 L 89.777344 28.804688 C 86.726562 27.804688 83.65625 26.875 80.5625 26.015625 C 72.746094 23.867188 64.816406 22.171875 56.804688 20.933594 C 56.804688 20.933594 56.421875 21.671875 55.773438 22.972656 C 53.359375 22.753906 49.429688 26.390625 47.585938 30.054688 C 45.75 33.714844 36.507812 62.445312 34.875 68.328125 C 33.25 74.214844 30.101562 89.1875 28.726562 96.65625 C 27.339844 104.082031 26.101562 117.078125 21.296875 134.433594 C 18.480469 144.667969 13.929688 159.910156 11.542969 166.253906 C 10.917969 167.910156 5.910156 176.378906 13.171875 179.222656 C 20.300781 182.066406 30.917969 185.109375 36.285156 186.605469 C 41.652344 188.070312 52.324219 190.917969 59.917969 192.160156 C 67.617188 193.410156 67.664062 183.589844 67.964844 181.828125 C 69.1875 175.148438 73.058594 159.75 75.878906 149.523438 C 80.675781 132.160156 86.257812 120.359375 88.882812 113.246094 C 91.515625 106.144531 96.503906 91.6875 98.128906 85.800781 "/>
<path style=" stroke:none;fill-rule:nonzero;fill:rgb(0.784314%,43.921569%,62.352941%);fill-opacity:1;" d="M 98.535156 9.195312 C 98.535156 9.195312 96.175781 8.484375 94.167969 7.917969 C 92.351562 7.429688 89.859375 6.777344 89.859375 6.777344 "/>
<path style="fill:none;stroke-width:0.5;stroke-linecap:butt;stroke-linejoin:miter;stroke:rgb(100%,100%,100%);stroke-opacity:1;stroke-miterlimit:4;" d="M 17.754082 1.655156 C 17.754082 1.655156 17.32897 1.527891 16.967202 1.425234 L 16.190878 1.219922 " transform="matrix(5.55,0,0,5.555556,0,0)"/>
<path style=" stroke:none;fill-rule:nonzero;fill:rgb(0.784314%,43.921569%,62.352941%);fill-opacity:1;" d="M 90.242188 86.582031 C 91.835938 80.699219 98.644531 51.289062 98.910156 47.199219 C 99.21875 43.105469 97.691406 37.972656 95.527344 36.945312 C 95.636719 35.476562 95.660156 34.667969 95.660156 34.667969 C 95.148438 34.449219 94.605469 34.226562 94.066406 34.015625 L 94.226562 34.070312 C 94.226562 34.070312 95.796875 27.503906 96.691406 22.945312 C 98.402344 14.214844 98.589844 9.820312 98.589844 9.820312 C 98.5625 8.601562 98.234375 7.5625 97.125 7.246094 L 92.058594 5.855469 C 90.949219 5.535156 90.214844 6.238281 89.503906 7.292969 C 89.503906 7.292969 87.535156 11.359375 84.742188 19.667969 C 83.25 24.054688 81.8125 29.5625 81.8125 29.5625 L 81.894531 29.589844 C 78.851562 28.585938 75.777344 27.664062 72.683594 26.828125 C 64.867188 24.660156 56.933594 22.960938 48.917969 21.726562 C 48.917969 21.726562 48.535156 22.460938 47.878906 23.761719 C 45.476562 23.539062 41.542969 27.183594 39.703125 30.839844 C 37.855469 34.5 28.589844 63.226562 26.996094 69.117188 C 25.363281 75 22.222656 89.976562 20.835938 97.4375 C 19.457031 104.871094 18.210938 117.859375 13.414062 135.214844 C 10.601562 145.457031 6.050781 160.699219 3.664062 167.042969 C 3.011719 168.710938 -1.96875 177.167969 5.292969 180.042969 C 12.441406 182.867188 23.039062 185.898438 28.410156 187.394531 C 33.773438 188.890625 44.449219 191.707031 52.035156 192.957031 C 59.730469 194.199219 59.785156 184.382812 60.085938 182.644531 C 61.304688 175.972656 65.183594 160.539062 68 150.3125 C 72.792969 132.949219 78.378906 121.148438 81.007812 114.042969 C 83.636719 106.933594 88.617188 92.476562 90.25 86.589844 "/>
<path style="fill:none;stroke-width:0.5;stroke-linecap:butt;stroke-linejoin:miter;stroke:rgb(100%,100%,100%);stroke-opacity:1;stroke-miterlimit:4;" d="M 16.259854 15.584766 C 16.547016 14.525859 17.773789 9.232734 17.82165 8.495156 C 17.877252 7.758984 17.602055 6.835078 17.212134 6.650156 C 17.231841 6.385781 17.236064 6.240234 17.236064 6.240234 C 17.143863 6.200156 17.04603 6.162187 16.948902 6.122813 L 16.977759 6.132656 C 16.977759 6.132656 17.260698 4.95 17.421875 4.130156 C 17.730152 2.557969 17.763936 1.767656 17.763936 1.767656 C 17.759009 1.548281 17.699887 1.36125 17.5 1.302891 L 16.587134 1.053281 C 16.387247 0.994922 16.254927 1.122891 16.12683 1.312734 C 16.12683 1.312734 15.7721 2.044687 15.268863 3.538828 C 15 4.329844 14.740991 5.32125 14.740991 5.32125 L 14.755771 5.326875 C 14.207489 5.145469 13.653575 4.979531 13.096143 4.829063 C 11.687782 4.438828 10.258305 4.132266 8.814048 3.910078 C 8.814048 3.910078 8.745073 4.042266 8.62683 4.275703 C 8.193975 4.237734 7.48522 4.893047 7.153716 5.551172 C 6.820805 6.21 5.151323 11.380781 4.864161 12.441094 C 4.569961 13.5 4.004082 16.195781 3.754223 17.53875 C 3.505771 18.876094 3.28125 21.214688 2.416948 24.340078 C 1.910191 26.182266 1.090231 28.925156 0.660191 30.067734 C 0.542652 30.365156 -0.35473 31.888828 0.953688 32.406328 C 2.241695 32.913984 4.151182 33.461016 5.118947 33.730312 C 6.085304 33.998906 8.008868 34.505859 9.375704 34.730859 C 10.762247 34.955156 10.7721 33.188203 10.826295 32.875312 C 11.04589 31.673672 11.744792 28.896328 12.252252 27.054844 C 13.11585 23.930156 14.122325 21.806719 14.596002 20.526328 C 15.069679 19.247344 15.967061 16.645078 16.261261 15.586172 Z M 16.259854 15.584766 " transform="matrix(5.55,0,0,5.555556,0,0)"/>
<path style=" stroke:none;fill-rule:nonzero;fill:rgb(0.784314%,43.921569%,62.352941%);fill-opacity:1;" d="M 34.769531 127.816406 C 33.921875 130.824219 30.820312 132.589844 27.804688 131.777344 C 24.792969 130.945312 23.023438 127.824219 23.855469 124.808594 C 24.683594 121.792969 27.800781 120.023438 30.8125 120.851562 C 33.828125 121.683594 35.597656 124.800781 34.769531 127.816406 "/>
<path style="fill:none;stroke-width:0.5;stroke-linecap:butt;stroke-linejoin:miter;stroke:rgb(100%,100%,100%);stroke-opacity:1;stroke-miterlimit:4;" d="M 6.26478 23.007656 C 6.115569 23.551875 5.553209 23.871094 5.00915 23.721328 C 4.465794 23.571562 4.146256 23.009766 4.296171 22.46625 C 4.445383 21.922031 5.007742 21.602109 5.551802 21.751875 C 6.095861 21.901641 6.4154 22.464141 6.266188 23.007656 Z M 6.26478 23.007656 " transform="matrix(5.55,0,0,5.555556,0,0)"/>
<path style=" stroke:none;fill-rule:nonzero;fill:rgb(0.784314%,43.921569%,62.352941%);fill-opacity:1;" d="M 49.023438 133.867188 C 48.140625 136.8125 45.066406 138.507812 42.109375 137.691406 C 39.148438 136.871094 37.382812 133.835938 38.132812 130.855469 C 38.636719 128.867188 40.171875 127.304688 42.152344 126.777344 C 44.128906 126.246094 46.242188 126.828125 47.667969 128.300781 C 49.09375 129.773438 49.613281 131.902344 49.023438 133.867188 "/>
<path style="fill:none;stroke-width:0.5;stroke-linecap:butt;stroke-linejoin:miter;stroke:rgb(100%,100%,100%);stroke-opacity:1;stroke-miterlimit:4;" d="M 8.833052 24.096797 C 8.663429 24.614297 8.117258 24.906797 7.592905 24.76125 C 7.068553 24.616406 6.750422 24.084844 6.870777 23.553984 C 6.963682 23.198203 7.240287 22.920469 7.595721 22.82625 C 7.951154 22.732031 8.32911 22.836797 8.585304 23.099766 C 8.842202 23.363437 8.936515 23.744531 8.833052 24.096797 Z M 8.833052 24.096797 " transform="matrix(5.55,0,0,5.555556,0,0)"/>
<path style=" stroke:none;fill-rule:nonzero;fill:rgb(0.784314%,43.921569%,62.352941%);fill-opacity:1;" d="M 64.414062 136.011719 C 63.582031 139.019531 60.472656 140.785156 57.464844 139.957031 C 54.457031 139.125 52.695312 136.011719 53.523438 133 C 54.492188 130.160156 57.5 128.566406 60.390625 129.367188 C 63.277344 130.164062 65.042969 133.078125 64.417969 136.011719 "/>
<path style="fill:none;stroke-width:0.5;stroke-linecap:butt;stroke-linejoin:miter;stroke:rgb(100%,100%,100%);stroke-opacity:1;stroke-miterlimit:4;" d="M 11.606137 24.480703 C 11.518863 24.842109 11.242258 25.126875 10.883305 25.224609 C 10.525056 25.322344 10.142173 25.216875 9.883868 24.949687 C 9.626267 24.6825 9.534065 24.295781 9.643863 23.940703 C 9.793074 23.399297 10.353322 23.080781 10.89527 23.229844 C 11.436515 23.378906 11.755349 23.939297 11.606137 24.480703 Z M 11.606137 24.480703 " transform="matrix(5.55,0,0,5.555556,0,0)"/>
<path style=" stroke:none;fill-rule:nonzero;fill:rgb(0.784314%,43.921569%,62.352941%);fill-opacity:1;" d="M 31.328125 140.273438 C 30.492188 143.285156 27.378906 145.050781 24.363281 144.226562 C 21.355469 143.386719 19.589844 140.273438 20.402344 137.253906 C 21.328125 134.355469 24.375 132.707031 27.308594 133.515625 C 30.242188 134.320312 32.015625 137.300781 31.328125 140.265625 "/>
<path style="fill:none;stroke-width:0.5;stroke-linecap:butt;stroke-linejoin:miter;stroke:rgb(100%,100%,100%);stroke-opacity:1;stroke-miterlimit:4;" d="M 5.644707 25.249219 C 5.494088 25.791328 4.933136 26.109141 4.38978 25.960781 C 3.848536 25.808906 3.530405 25.249922 3.676098 24.707109 C 3.826014 24.163594 4.387669 23.843672 4.931729 23.993437 C 5.475084 24.143203 5.794623 24.705 5.644707 25.249219 Z M 5.644707 25.249219 " transform="matrix(5.55,0,0,5.555556,0,0)"/>
<path style=" stroke:none;fill-rule:nonzero;fill:rgb(0.784314%,43.921569%,62.352941%);fill-opacity:1;" d="M 45.605469 146.316406 C 44.773438 149.335938 41.652344 151.105469 38.640625 150.273438 C 35.625 149.4375 33.855469 146.316406 34.6875 143.300781 C 35.519531 140.28125 38.636719 138.511719 41.652344 139.34375 C 44.667969 140.175781 46.4375 143.300781 45.605469 146.316406 "/>
<path style="fill:none;stroke-width:0.5;stroke-linecap:butt;stroke-linejoin:miter;stroke:rgb(100%,100%,100%);stroke-opacity:1;stroke-miterlimit:4;" d="M 8.217202 26.337656 C 8.067286 26.877656 7.504927 27.201797 6.962275 27.049922 C 6.419623 26.899453 6.100788 26.338359 6.25 25.794844 C 6.400619 25.252734 6.962275 24.934219 7.504927 25.083281 C 8.046875 25.233047 8.364302 25.794844 8.217202 26.337656 Z M 8.217202 26.337656 " transform="matrix(5.55,0,0,5.555556,0,0)"/>
<path style=" stroke:none;fill-rule:nonzero;fill:rgb(0.784314%,43.921569%,62.352941%);fill-opacity:1;" d="M 61 148.464844 C 60.035156 151.316406 57.015625 152.914062 54.121094 152.113281 C 51.222656 151.3125 49.453125 148.390625 50.082031 145.449219 C 50.914062 142.433594 54.035156 140.660156 57.046875 141.496094 C 60.0625 142.328125 61.832031 145.449219 61 148.464844 "/>
<path style="fill:none;stroke-width:0.5;stroke-linecap:butt;stroke-linejoin:miter;stroke:rgb(100%,100%,100%);stroke-opacity:1;stroke-miterlimit:4;" d="M 10.990991 26.722969 C 10.841075 27.266484 10.27942 27.585703 9.736064 27.437344 C 9.192005 27.286875 8.872466 26.724375 9.022382 26.180156 C 9.172297 25.636641 9.734657 25.316719 10.278716 25.467187 C 10.819257 25.619766 11.138091 26.182266 10.990991 26.722969 Z M 10.990991 26.722969 " transform="matrix(5.55,0,0,5.555556,0,0)"/>
<path style=" stroke:none;fill-rule:nonzero;fill:rgb(0.784314%,43.921569%,62.352941%);fill-opacity:1;" d="M 27.890625 152.722656 C 27.378906 154.703125 25.839844 156.257812 23.863281 156.78125 C 21.890625 157.308594 19.785156 156.722656 18.359375 155.257812 C 16.933594 153.789062 16.410156 151.667969 16.988281 149.707031 C 17.5 147.722656 19.035156 146.171875 21.011719 145.644531 C 22.988281 145.121094 25.09375 145.703125 26.519531 147.171875 C 27.945312 148.636719 28.46875 150.761719 27.890625 152.722656 "/>
<path style="fill:none;stroke-width:0.5;stroke-linecap:butt;stroke-linejoin:miter;stroke:rgb(100%,100%,100%);stroke-opacity:1;stroke-miterlimit:4;" d="M 5.025338 27.490078 C 4.875422 28.032187 4.314471 28.350703 3.771819 28.200937 C 3.22987 28.051172 2.911036 27.490078 3.060952 26.947969 C 3.210867 26.405859 3.771819 26.087344 4.313767 26.237109 C 4.856419 26.386875 5.17455 26.947969 5.025338 27.490078 Z M 5.025338 27.490078 " transform="matrix(5.55,0,0,5.555556,0,0)"/>
<path style=" stroke:none;fill-rule:nonzero;fill:rgb(0.784314%,43.921569%,62.352941%);fill-opacity:1;" d="M 42.167969 158.773438 C 41.335938 161.792969 38.214844 163.5625 35.199219 162.726562 C 32.195312 161.878906 30.433594 158.769531 31.246094 155.753906 C 32.09375 152.75 35.199219 150.984375 38.210938 151.800781 C 41.214844 152.640625 43.007812 155.753906 42.167969 158.773438 "/>
<path style="fill:none;stroke-width:0.5;stroke-linecap:butt;stroke-linejoin:miter;stroke:rgb(100%,100%,100%);stroke-opacity:1;stroke-miterlimit:4;" d="M 7.597832 28.579922 C 7.447213 29.122734 6.885557 29.44125 6.342202 29.292187 C 5.800957 29.139609 5.48353 28.579922 5.629927 28.037109 C 5.781954 27.495703 6.342202 27.177187 6.884854 27.324141 C 7.426098 27.475312 7.749155 28.037109 7.597832 28.579219 Z M 7.597832 28.579922 " transform="matrix(5.55,0,0,5.555556,0,0)"/>
<path style=" stroke:none;fill-rule:nonzero;fill:rgb(0.784314%,43.921569%,62.352941%);fill-opacity:1;" d="M 57.558594 160.917969 C 56.726562 163.921875 53.609375 165.714844 50.59375 164.878906 C 47.582031 164.046875 45.8125 160.925781 46.644531 157.910156 C 47.472656 154.894531 50.589844 153.121094 53.601562 153.953125 C 56.617188 154.78125 58.386719 157.898438 57.558594 160.917969 "/>
<path style="fill:none;stroke-width:0.5;stroke-linecap:butt;stroke-linejoin:miter;stroke:rgb(100%,100%,100%);stroke-opacity:1;stroke-miterlimit:4;" d="M 10.370918 28.963828 C 10.221002 29.505937 9.659347 29.828672 9.115991 29.678203 C 8.594454 29.510859 8.297438 28.961719 8.442427 28.433672 C 8.588119 27.904922 9.124437 27.585703 9.657939 27.70875 C 10.199887 27.861328 10.522241 28.423125 10.370918 28.963828 Z M 10.370918 28.963828 " transform="matrix(5.55,0,0,5.555556,0,0)"/>
<path style=" stroke:none;fill-rule:nonzero;fill:rgb(0.784314%,43.921569%,62.352941%);fill-opacity:1;" d="M 24.46875 165.171875 C 23.636719 168.1875 20.519531 169.960938 17.503906 169.132812 C 16.054688 168.738281 14.820312 167.777344 14.078125 166.46875 C 13.335938 165.160156 13.144531 163.609375 13.546875 162.160156 C 14.386719 159.148438 17.503906 157.359375 20.511719 158.199219 C 23.527344 159.039062 25.285156 162.160156 24.46875 165.171875 Z M 38.726562 171.222656 C 37.746094 174.039062 34.75 175.609375 31.875 174.816406 C 29.003906 174.019531 27.238281 171.132812 27.839844 168.210938 C 28.671875 165.199219 31.785156 163.425781 34.796875 164.25 C 37.800781 165.089844 39.566406 168.207031 38.726562 171.222656 "/>
<path style="fill:none;stroke-width:0.5;stroke-linecap:butt;stroke-linejoin:miter;stroke:rgb(100%,100%,100%);stroke-opacity:1;stroke-miterlimit:4;" d="M 4.408784 29.730937 C 4.258868 30.27375 3.697213 30.592969 3.153857 30.443906 C 2.611205 30.294141 2.29237 29.732344 2.442286 29.189531 C 2.592202 28.646719 3.153857 28.3275 3.697213 28.477266 C 4.239865 28.627734 4.558699 29.188828 4.408784 29.732344 Z M 6.977759 30.820781 C 6.807432 31.336875 6.262669 31.627969 5.73902 31.483125 C 5.215372 31.338984 4.897241 30.808828 5.016188 30.278672 C 5.186515 29.763281 5.731278 29.472188 6.254927 29.616328 C 6.778575 29.761172 7.096706 30.290625 6.977759 30.820781 Z M 6.977759 30.820781 " transform="matrix(5.55,0,0,5.555556,0,0)"/>
<path style=" stroke:none;fill-rule:nonzero;fill:rgb(0.784314%,43.921569%,62.352941%);fill-opacity:1;" d="M 54.117188 173.359375 C 53.167969 176.21875 50.144531 177.832031 47.242188 177.03125 C 44.34375 176.234375 42.574219 173.296875 43.21875 170.355469 C 43.714844 168.363281 45.253906 166.796875 47.238281 166.261719 C 49.21875 165.730469 51.335938 166.3125 52.765625 167.789062 C 54.191406 169.265625 54.710938 171.398438 54.117188 173.367188 "/>
<path style="fill:none;stroke-width:0.5;stroke-linecap:butt;stroke-linejoin:miter;stroke:rgb(100%,100%,100%);stroke-opacity:1;stroke-miterlimit:4;" d="M 9.750845 31.204687 C 9.579814 31.719375 9.035051 32.009766 8.512106 31.865625 C 7.989865 31.722188 7.67103 31.193437 7.787162 30.663984 C 7.934966 30.121875 8.497325 29.804063 9.042089 29.950312 C 9.584741 30.102187 9.902168 30.663984 9.752252 31.204687 Z M 9.750845 31.204687 " transform="matrix(5.55,0,0,5.555556,0,0)"/>
<path style=" stroke:none;fill-rule:nonzero;fill:rgb(0.784314%,43.921569%,62.352941%);fill-opacity:1;" d="M 31.574219 179.660156 C 31.492188 179.933594 31.003906 180.035156 30.464844 179.898438 C 29.941406 179.734375 29.597656 179.417969 29.640625 179.121094 C 29.726562 178.84375 30.242188 178.734375 30.757812 178.867188 C 31.273438 179.003906 31.628906 179.367188 31.574219 179.660156 Z M 29.640625 179.117188 L 27.890625 185.601562 M 29.96875 179.65625 L 28.292969 185.738281 M 31.574219 179.660156 L 29.78125 186.140625 M 31.03125 179.960938 L 29.347656 186.003906 M 42.457031 85.800781 L 41.238281 90.300781 M 42.972656 85.9375 L 41.703125 90.496094 M 68.363281 92.957031 L 67.148438 97.464844 M 67.875 92.828125 L 66.605469 97.382812 "/>
<path style="fill:none;stroke-width:0.5;stroke-linecap:butt;stroke-linejoin:miter;stroke:rgb(100%,100%,100%);stroke-opacity:1;stroke-miterlimit:4;" d="M 5.689048 32.338828 C 5.674268 32.388047 5.586289 32.406328 5.489161 32.383125 C 5.394848 32.352891 5.332911 32.293125 5.340653 32.239688 C 5.356137 32.191172 5.449043 32.172891 5.541948 32.196094 C 5.634854 32.222109 5.698902 32.286094 5.689048 32.338828 Z M 5.340653 32.239688 L 5.025338 33.408281 M 5.399775 32.338125 L 5.097832 33.432891 M 5.689048 32.338828 L 5.365991 33.505313 M 5.591216 32.392969 L 5.287866 33.480703 M 7.649916 15.444141 L 7.430321 16.254141 M 7.742821 15.468047 L 7.514077 16.289297 M 12.317708 16.732969 L 12.098818 17.543672 M 12.22973 16.709062 L 12.000985 17.528906 " transform="matrix(5.55,0,0,5.555556,0,0)"/>
<path style=" stroke:none;fill-rule:nonzero;fill:rgb(0.784314%,43.921569%,62.352941%);fill-opacity:1;" d="M 94.222656 34.066406 C 94.222656 34.066406 95.796875 27.511719 96.691406 22.945312 C 98.402344 14.214844 98.589844 9.820312 98.589844 9.820312 C 98.5625 8.601562 98.234375 7.5625 97.125 7.246094 L 92.058594 5.855469 C 90.949219 5.535156 90.214844 6.238281 89.503906 7.292969 C 89.503906 7.292969 87.527344 11.359375 84.738281 19.667969 C 83.25 24.054688 81.8125 29.5625 81.8125 29.5625 M 79.835938 93.964844 C 79.6875 94.5 79.332031 94.953125 78.847656 95.222656 C 78.363281 95.492188 77.792969 95.554688 77.261719 95.398438 L 33.578125 83.359375 C 33.042969 83.210938 32.589844 82.855469 32.320312 82.367188 C 32.050781 81.882812 31.984375 81.3125 32.140625 80.777344 L 39.753906 53.140625 C 40.046875 52.027344 41.199219 51.371094 42.308594 51.699219 L 85.984375 63.773438 C 87.097656 64.070312 87.746094 65.207031 87.445312 66.320312 Z M 94.820312 31.707031 C 90.738281 30.097656 86.597656 28.632812 82.410156 27.3125 M 49.917969 21.890625 C 49.917969 21.890625 39.511719 43.15625 33.542969 64.75 C 26.472656 90.4375 25.445312 99.003906 26.496094 110.917969 C 26.71875 113.390625 29.160156 116.394531 31.902344 117.160156 C 32.976562 117.460938 34.230469 117.785156 34.742188 117.945312 C 35.28125 118.082031 37.289062 118.566406 38.964844 119.867188 C 40.621094 121.171875 41.03125 121.527344 42.035156 122.070312 C 43.007812 122.609375 43.144531 122.9375 45.960938 123.722656 C 48.75 124.503906 49.074219 124.265625 50.183594 124.320312 C 51.304688 124.34375 51.847656 124.265625 53.957031 124.023438 C 56.042969 123.746094 58.019531 124.378906 58.535156 124.503906 C 59.078125 124.644531 60.324219 125 61.410156 125.300781 C 64.121094 126.054688 67.753906 124.726562 69.214844 122.722656 C 76.230469 113.035156 79.726562 105.140625 86.828125 79.449219 C 92.761719 57.890625 94.738281 34.285156 94.738281 34.285156 M 43.789062 32.578125 C 61.214844 35.128906 78.253906 39.828125 94.523438 46.578125 "/>
<path style=" stroke:none;fill-rule:nonzero;fill:rgb(0.784314%,43.921569%,62.352941%);fill-opacity:1;" d="M 62.546875 111.082031 C 60.679688 117.804688 53.734375 121.746094 47.015625 119.894531 C 40.421875 117.933594 36.609375 111.050781 38.441406 104.414062 C 40.269531 97.777344 47.070312 93.828125 53.734375 95.535156 C 60.449219 97.40625 64.390625 104.359375 62.546875 111.089844 Z M 39.292969 90.355469 C 40.96875 90.820312 42.28125 91.523438 42.902344 91.960938 C 43.546875 92.359375 43.738281 92.929688 43.203125 93.285156 C 42.445312 93.785156 41.722656 94.332031 41.03125 94.917969 C 40.375 95.484375 39.894531 95.644531 38.910156 95.105469 C 37.234375 94.121094 33.660156 91.523438 32.765625 90.304688 C 32.300781 89.710938 32.738281 89.460938 33.632812 89.410156 C 34.933594 89.355469 37.429688 89.839844 39.292969 90.355469 Z M 30.324219 103.644531 C 31.246094 103.945312 33.523438 105.109375 34.203125 105.605469 C 34.847656 106.089844 35.878906 107.117188 35.796875 108.394531 C 35.691406 109.859375 35.769531 112.921875 36.398438 113.960938 C 37.234375 115.285156 37.128906 115.851562 35.9375 115.640625 C 34.535156 115.28125 33.164062 114.8125 31.839844 114.226562 C 31.136719 113.898438 30.136719 113.285156 29.808594 112.328125 C 29.132812 110.34375 29 106.304688 29.347656 104.328125 C 29.488281 103.457031 29.835938 103.484375 30.324219 103.644531 "/>
<path style="fill:none;stroke-width:0.5;stroke-linecap:butt;stroke-linejoin:miter;stroke:rgb(100%,100%,100%);stroke-opacity:1;stroke-miterlimit:4;" d="M 11.269707 19.994766 C 10.933981 21.204844 9.681869 21.915 8.471284 21.581719 C 7.30152 21.213984 6.634291 19.986328 6.960163 18.805078 C 7.28674 17.623828 8.489583 16.912969 9.681869 17.197031 C 10.891047 17.533828 11.600507 18.783984 11.269707 19.994766 Z M 7.079814 16.264688 C 7.381757 16.347656 7.618243 16.474922 7.730152 16.552969 C 7.846284 16.624688 7.880771 16.727344 7.784347 16.791328 C 7.648508 16.881328 7.517596 16.979062 7.393018 17.083828 C 7.274775 17.185781 7.188204 17.216016 7.010839 17.118984 C 6.708896 16.943203 6.064893 16.474219 5.903716 16.254141 C 5.819961 16.145859 5.898789 16.102266 6.059966 16.093125 C 6.294341 16.083984 6.744088 16.171172 7.079814 16.263984 Z M 5.463823 18.656016 C 5.629927 18.710859 6.040259 18.919687 6.162725 19.008984 C 6.278857 19.096875 6.464668 19.281094 6.449887 19.511016 C 6.430884 19.774687 6.444961 20.327344 6.558277 20.512969 C 6.708896 20.751328 6.689893 20.853984 6.475225 20.815313 C 6.222551 20.749922 5.976211 20.664844 5.736909 20.560781 C 5.61022 20.503125 5.430039 20.391328 5.370918 20.219062 C 5.249155 19.863281 5.225225 19.134844 5.287866 18.779062 C 5.313204 18.622266 5.375845 18.627891 5.463823 18.656016 Z M 5.463823 18.656016 " transform="matrix(5.55,0,0,5.555556,0,0)"/>
<path style=" stroke:none;fill-rule:nonzero;fill:rgb(0.784314%,43.921569%,62.352941%);fill-opacity:1;" d="M 68.78125 98.496094 C 67.5 98.144531 66.179688 97.980469 64.851562 98.003906 C 64.121094 98.0625 63.660156 98.4375 63.929688 99.003906 C 64.222656 99.632812 64.742188 100.828125 64.957031 101.535156 C 65.222656 102.34375 65.523438 102.753906 66.660156 102.753906 C 68.621094 102.777344 73.003906 102.40625 74.421875 101.832031 C 75.121094 101.535156 74.847656 101.09375 74.121094 100.609375 C 73.03125 99.871094 70.625 99.003906 68.78125 98.488281 Z M 69.667969 114.496094 C 68.238281 114.269531 66.789062 114.167969 65.339844 114.199219 C 64.523438 114.285156 63.121094 114.632812 62.546875 115.777344 C 61.867188 117.105469 60.246094 119.679688 59.15625 120.25 C 57.777344 120.960938 57.558594 121.527344 58.695312 121.929688 C 59.589844 122.261719 62.164062 122.773438 62.921875 122.828125 C 63.714844 122.882812 64.902344 122.90625 65.660156 122.226562 C 67.261719 120.871094 69.429688 117.460938 70.15625 115.609375 C 70.492188 114.800781 70.191406 114.632812 69.675781 114.5 "/>
<path style="fill:none;stroke-width:0.5;stroke-linecap:butt;stroke-linejoin:miter;stroke:rgb(100%,100%,100%);stroke-opacity:1;stroke-miterlimit:4;" d="M 12.393018 17.729297 C 12.162162 17.666016 11.924268 17.636484 11.684966 17.642109 C 11.55335 17.651953 11.470298 17.71875 11.518863 17.822109 C 11.57165 17.933906 11.665259 18.149062 11.70397 18.276328 C 11.75183 18.423281 11.806025 18.495703 12.010839 18.495703 C 12.364161 18.499922 13.153857 18.433125 13.409347 18.329766 C 13.535332 18.276328 13.486064 18.198281 13.355152 18.109687 C 13.158784 17.976797 12.725225 17.820703 12.393018 17.729297 Z M 12.552787 20.61 C 12.295186 20.568516 12.034065 20.550937 11.772945 20.557266 C 11.625845 20.571328 11.37317 20.633906 11.269707 20.839219 C 11.147241 21.078984 10.855152 21.542344 10.658784 21.645 C 10.410332 21.772266 10.370918 21.874219 10.575732 21.948047 C 10.736909 22.005703 11.200732 22.099219 11.337275 22.107656 C 11.480152 22.118906 11.694116 22.123828 11.830659 22.000781 C 12.119229 21.758203 12.509854 21.142969 12.640766 20.809687 C 12.701295 20.664141 12.6471 20.633906 12.554195 20.61 Z M 12.552787 20.61 " transform="matrix(5.55,0,0,5.555556,0,0)"/>
<path style="fill-rule:nonzero;fill:rgb(0.784314%,43.921569%,62.352941%);fill-opacity:1;stroke-width:0.5;stroke-linecap:butt;stroke-linejoin:miter;stroke:rgb(100%,100%,100%);stroke-opacity:1;stroke-miterlimit:4;" d="M 12.172016 7.495312 L 12.925113 4.779844 " transform="matrix(5.55,0,0,5.555556,0,0)"/>
<path style=" stroke:none;fill-rule:nonzero;fill:rgb(0.784314%,43.921569%,62.352941%);fill-opacity:1;" d="M 68.941406 42.015625 L 73.117188 26.9375 "/>
<path style="fill:none;stroke-width:0.5;stroke-linecap:butt;stroke-linejoin:miter;stroke:rgb(100%,100%,100%);stroke-opacity:1;stroke-miterlimit:4;" d="M 12.421875 7.562812 L 13.174268 4.848047 M 17.680884 15.444141 C 17.96875 14.383828 19.194116 9.090703 19.244088 8.353828 C 19.296875 7.61625 19.028716 6.69375 18.631757 6.508828 L 18.662021 6.093281 C 18.564893 6.053203 18.465653 6.020156 18.369229 5.980781 L 18.398789 5.991328 C 18.398789 5.991328 18.681025 4.808672 18.842202 3.988828 C 19.154702 2.415938 19.184966 1.624922 19.184966 1.624922 C 19.180039 1.404844 19.120918 1.215 18.925957 1.162266 L 18.006757 0.907734 C 17.806869 0.854297 17.676661 0.980859 17.549268 1.170703 C 17.549268 1.170703 17.191723 1.904062 16.689893 3.393281 C 16.42103 4.184297 16.162725 5.179922 16.162725 5.179922 L 16.176098 5.184844 C 15.627111 5.004141 15.073198 4.836797 14.515766 4.682812 C 13.107404 4.296797 11.678632 3.991641 10.235079 3.76875 C 10.235079 3.76875 10.166104 3.900937 10.049268 4.135078 C 9.614302 4.097109 8.90625 4.750312 8.574043 5.409844 C 8.243243 6.068672 6.577984 11.240156 6.283784 12.299062 C 5.990991 13.358672 5.423705 16.05375 5.175957 17.396016 C 4.926098 18.736172 4.702984 21.074063 3.837275 24.19875 C 3.329814 26.038828 2.509854 28.783828 2.079814 29.925703 C 1.967202 30.223828 1.064893 31.748203 2.373311 32.260078 C 3.657798 32.771953 5.570805 33.319688 6.537866 33.588984 C 7.504927 33.851953 9.427787 34.365234 10.79603 34.588828 C 12.183277 34.813828 12.191723 33.046172 12.245918 32.729062 C 12.466216 31.528125 13.163711 28.754297 13.671875 26.914219 C 14.536177 23.788828 15.541948 21.663984 16.014921 20.385 C 16.489302 19.106719 17.388091 16.50375 17.680884 15.444141 Z M 17.680884 15.444141 " transform="matrix(5.55,0,0,5.555556,0,0)"/>
<path style="fill:none;stroke-width:0.5;stroke-linecap:butt;stroke-linejoin:miter;stroke:rgb(100%,100%,100%);stroke-opacity:1;stroke-miterlimit:4;" d="M 17.754082 1.655156 C 17.754082 1.655156 17.32897 1.527891 16.967202 1.425234 L 16.190878 1.219922 " transform="matrix(5.55,0,0,5.555556,0,0)"/>
<path style="fill:none;stroke-width:0.5;stroke-linecap:butt;stroke-linejoin:miter;stroke:rgb(100%,100%,100%);stroke-opacity:1;stroke-miterlimit:4;" d="M 16.259854 15.584766 C 16.547016 14.525859 17.773789 9.232734 17.82165 8.495156 C 17.877252 7.758984 17.602055 6.835078 17.212134 6.650156 C 17.231841 6.385781 17.236064 6.240234 17.236064 6.240234 C 17.143863 6.200156 17.04603 6.162187 16.948902 6.122813 L 16.977759 6.132656 C 16.977759 6.132656 17.260698 4.95 17.421875 4.130156 C 17.730152 2.557969 17.763936 1.767656 17.763936 1.767656 C 17.759009 1.548281 17.699887 1.36125 17.5 1.302891 L 16.587134 1.053281 C 16.387247 0.994922 16.254927 1.122891 16.12683 1.312734 C 16.12683 1.312734 15.7721 2.044687 15.268863 3.538828 C 15 4.329844 14.740991 5.32125 14.740991 5.32125 L 14.755771 5.326875 C 14.207489 5.145469 13.653575 4.979531 13.096143 4.829063 C 11.687782 4.438828 10.258305 4.132266 8.814048 3.910078 C 8.814048 3.910078 8.745073 4.042266 8.62683 4.275703 C 8.193975 4.237734 7.48522 4.893047 7.153716 5.551172 C 6.820805 6.21 5.151323 11.380781 4.864161 12.441094 C 4.569961 13.5 4.004082 16.195781 3.754223 17.53875 C 3.505771 18.876094 3.28125 21.214688 2.416948 24.340078 C 1.910191 26.182266 1.090231 28.925156 0.660191 30.067734 C 0.542652 30.365156 -0.35473 31.888828 0.953688 32.406328 C 2.241695 32.913984 4.151182 33.461016 5.118947 33.730312 C 6.085304 33.998906 8.008868 34.505859 9.375704 34.730859 C 10.762247 34.955156 10.7721 33.188203 10.826295 32.875312 C 11.04589 31.673672 11.744792 28.896328 12.252252 27.054844 C 13.11585 23.930156 14.122325 21.806719 14.596002 20.526328 C 15.069679 19.247344 15.967061 16.645078 16.261261 15.586172 Z M 16.259854 15.584766 " transform="matrix(5.55,0,0,5.555556,0,0)"/>
<path style="fill:none;stroke-width:0.5;stroke-linecap:butt;stroke-linejoin:miter;stroke:rgb(100%,100%,100%);stroke-opacity:1;stroke-miterlimit:4;" d="M 6.26478 23.007656 C 6.115569 23.551875 5.553209 23.871094 5.00915 23.721328 C 4.465794 23.571562 4.146256 23.009766 4.296171 22.46625 C 4.445383 21.922031 5.007742 21.602109 5.551802 21.751875 C 6.095861 21.901641 6.4154 22.464141 6.266188 23.007656 Z M 8.833052 24.096797 C 8.663429 24.614297 8.117258 24.906797 7.592905 24.76125 C 7.068553 24.616406 6.750422 24.084844 6.870777 23.553984 C 6.963682 23.198203 7.240287 22.920469 7.595721 22.82625 C 7.951154 22.732031 8.32911 22.836797 8.585304 23.099766 C 8.842202 23.363437 8.936515 23.744531 8.833052 24.096797 Z M 11.606137 24.480703 C 11.518863 24.842109 11.242258 25.126875 10.883305 25.224609 C 10.525056 25.322344 10.142173 25.216875 9.883868 24.949687 C 9.626267 24.6825 9.534065 24.295781 9.643863 23.940703 C 9.793074 23.399297 10.353322 23.080781 10.89527 23.229844 C 11.436515 23.378906 11.755349 23.939297 11.606137 24.480703 Z M 5.644707 25.249219 C 5.494088 25.791328 4.933136 26.109141 4.38978 25.960781 C 3.848536 25.808906 3.530405 25.249922 3.676098 24.707109 C 3.826014 24.163594 4.387669 23.843672 4.931729 23.993437 C 5.475084 24.143203 5.794623 24.705 5.644707 25.249219 Z M 8.217202 26.337656 C 8.067286 26.877656 7.504927 27.201797 6.962275 27.049922 C 6.419623 26.899453 6.100788 26.338359 6.25 25.794844 C 6.400619 25.252734 6.962275 24.934219 7.504927 25.083281 C 8.046875 25.233047 8.364302 25.794844 8.217202 26.337656 Z M 10.990991 26.722969 C 10.841075 27.266484 10.27942 27.585703 9.736064 27.437344 C 9.192005 27.286875 8.872466 26.724375 9.022382 26.180156 C 9.172297 25.636641 9.734657 25.316719 10.278716 25.467187 C 10.819257 25.619766 11.138091 26.182266 10.990991 26.722969 Z M 5.025338 27.490078 C 4.875422 28.032187 4.314471 28.350703 3.771819 28.200937 C 3.22987 28.051172 2.911036 27.490078 3.060952 26.947969 C 3.210867 26.405859 3.771819 26.087344 4.313767 26.237109 C 4.856419 26.386875 5.17455 26.947969 5.025338 27.490078 Z M 7.597832 28.579922 C 7.447213 29.122734 6.885557 29.44125 6.342202 29.292187 C 5.800957 29.139609 5.48353 28.579922 5.629927 28.037109 C 5.781954 27.495703 6.342202 27.177187 6.884854 27.324141 C 7.426098 27.475312 7.749155 28.037109 7.597832 28.579219 Z M 10.370918 28.963828 C 10.221002 29.505937 9.659347 29.828672 9.115991 29.678203 C 8.594454 29.510859 8.297438 28.961719 8.442427 28.433672 C 8.588119 27.904922 9.124437 27.585703 9.657939 27.70875 C 10.199887 27.861328 10.522241 28.423125 10.370918 28.963828 Z M 4.408784 29.730937 C 4.258868 30.27375 3.697213 30.592969 3.153857 30.443906 C 2.611205 30.294141 2.29237 29.732344 2.442286 29.189531 C 2.592202 28.646719 3.153857 28.3275 3.697213 28.477266 C 4.239865 28.627734 4.558699 29.188828 4.408784 29.732344 Z M 6.977759 30.820781 C 6.807432 31.336875 6.262669 31.627969 5.73902 31.483125 C 5.215372 31.338984 4.897241 30.808828 5.016188 30.278672 C 5.186515 29.763281 5.731278 29.472188 6.254927 29.616328 C 6.778575 29.761172 7.096706 30.290625 6.977759 30.820781 Z M 9.750845 31.204687 C 9.579814 31.719375 9.035051 32.009766 8.512106 31.865625 C 7.989865 31.722188 7.67103 31.193437 7.787162 30.663984 C 7.934966 30.121875 8.497325 29.804063 9.042089 29.950312 C 9.584741 30.102187 9.902168 30.663984 9.752252 31.204687 Z M 5.689048 32.338828 C 5.674268 32.388047 5.586289 32.406328 5.489161 32.383125 C 5.394848 32.352891 5.332911 32.293125 5.340653 32.239688 C 5.356137 32.191172 5.449043 32.172891 5.541948 32.196094 C 5.634854 32.222109 5.698902 32.286094 5.689048 32.338828 Z M 5.340653 32.239688 L 5.025338 33.408281 M 5.399775 32.338125 L 5.097832 33.432891 M 5.689048 32.338828 L 5.365991 33.505313 M 5.591216 32.392969 L 5.287866 33.480703 M 7.649916 15.444141 L 7.430321 16.254141 M 7.742821 15.468047 L 7.514077 16.289297 M 12.317708 16.732969 L 12.098818 17.543672 M 12.22973 16.709062 L 12.000985 17.528906 M 16.977055 6.132656 C 16.977055 6.132656 17.260698 4.95 17.421875 4.130156 C 17.730152 2.557969 17.763936 1.767656 17.763936 1.767656 C 17.759009 1.548281 17.699887 1.36125 17.5 1.302891 L 16.587134 1.053281 C 16.387247 0.994922 16.254927 1.122891 16.12683 1.312734 C 16.12683 1.312734 15.770693 2.044687 15.268159 3.538828 C 15 4.329844 14.740991 5.32125 14.740991 5.32125 M 14.384854 16.913672 C 14.358108 17.01 14.29406 17.091562 14.206785 17.140078 C 14.11951 17.188594 14.016751 17.200547 13.92103 17.173125 L 6.050113 15.003281 C 5.954392 14.976562 5.872748 14.912578 5.824184 14.825391 C 5.775619 14.738203 5.763654 14.635547 5.791104 14.539922 L 7.162866 9.565312 C 7.215653 9.364922 7.423283 9.248203 7.62317 9.307266 L 15.49268 11.479219 C 15.693271 11.532656 15.810107 11.737969 15.755912 11.937656 Z M 17.084741 5.707266 C 16.34924 5.416875 15.603181 5.153906 14.848677 4.916953 M 8.994229 3.940312 C 8.994229 3.940312 7.119229 7.768125 6.043778 11.655 C 4.769848 16.27875 4.584741 17.820703 4.774071 19.965234 C 4.814189 20.410312 5.254082 20.951719 5.74817 21.088828 C 5.941723 21.142969 6.167652 21.199922 6.259854 21.230156 C 6.356982 21.254062 6.71875 21.342656 7.020693 21.576797 C 7.319116 21.810937 7.393018 21.874219 7.573902 21.972656 C 7.749155 22.069688 7.773789 22.12875 8.28125 22.270078 C 8.783784 22.412109 8.842202 22.367812 9.042089 22.377656 C 9.244088 22.383281 9.34192 22.367812 9.721988 22.324219 C 10.097832 22.275 10.45397 22.388203 10.546875 22.412109 C 10.644707 22.436719 10.869229 22.499297 11.064893 22.552031 C 11.55335 22.689844 12.207911 22.450078 12.471143 22.088672 C 13.73522 20.347031 14.365146 18.925313 15.644707 14.300859 C 16.713823 10.418906 17.069961 6.171328 17.069961 6.171328 M 7.889921 5.864063 C 9.400338 6.079219 11.029702 6.425156 12.538711 6.84 C 14.047016 7.259766 15.625 7.797656 17.03125 8.384062 " transform="matrix(5.55,0,0,5.555556,0,0)"/>
<path style="fill:none;stroke-width:0.5;stroke-linecap:butt;stroke-linejoin:miter;stroke:rgb(100%,100%,100%);stroke-opacity:1;stroke-miterlimit:4;" d="M 11.269707 19.994766 C 10.933981 21.204844 9.681869 21.915 8.471284 21.581719 C 7.30152 21.213984 6.634291 19.986328 6.960163 18.805078 C 7.28674 17.623828 8.489583 16.912969 9.681869 17.197031 C 10.891047 17.533828 11.600507 18.783984 11.269707 19.994766 Z M 7.079814 16.264688 C 7.381757 16.347656 7.618243 16.474922 7.730152 16.552969 C 7.846284 16.624688 7.880771 16.727344 7.784347 16.791328 C 7.648508 16.881328 7.517596 16.979062 7.393018 17.083828 C 7.274775 17.185781 7.188204 17.216016 7.010839 17.118984 C 6.708896 16.943203 6.064893 16.474219 5.903716 16.254141 C 5.819961 16.145859 5.898789 16.102266 6.059966 16.093125 C 6.294341 16.083984 6.744088 16.171172 7.079814 16.263984 Z M 5.463823 18.656016 C 5.629927 18.710859 6.040259 18.919687 6.162725 19.008984 C 6.278857 19.096875 6.464668 19.281094 6.449887 19.511016 C 6.430884 19.774687 6.444961 20.327344 6.558277 20.512969 C 6.708896 20.751328 6.689893 20.853984 6.475225 20.815313 C 6.222551 20.749922 5.976211 20.664844 5.736909 20.560781 C 5.61022 20.503125 5.430039 20.391328 5.370918 20.219062 C 5.249155 19.863281 5.225225 19.134844 5.287866 18.779062 C 5.313204 18.622266 5.375845 18.627891 5.463823 18.656016 Z M 12.393018 17.729297 C 12.162162 17.666016 11.924268 17.636484 11.684966 17.642109 C 11.55335 17.651953 11.470298 17.71875 11.518863 17.822109 C 11.57165 17.933906 11.665259 18.149062 11.70397 18.276328 C 11.75183 18.423281 11.806025 18.495703 12.010839 18.495703 C 12.364161 18.499922 13.153857 18.433125 13.409347 18.329766 C 13.535332 18.276328 13.486064 18.198281 13.355152 18.109687 C 13.158784 17.976797 12.725225 17.820703 12.393018 17.729297 Z M 12.552787 20.61 C 12.295186 20.568516 12.034065 20.550937 11.772945 20.557266 C 11.625845 20.571328 11.37317 20.633906 11.269707 20.839219 C 11.147241 21.078984 10.855152 21.542344 10.658784 21.645 C 10.410332 21.772266 10.370918 21.874219 10.575732 21.948047 C 10.736909 22.005703 11.200732 22.099219 11.337275 22.107656 C 11.480152 22.118906 11.694116 22.123828 11.830659 22.000781 C 12.119229 21.758203 12.509854 21.142969 12.640766 20.809687 C 12.701295 20.664141 12.6471 20.633906 12.554195 20.61 Z M 12.172016 7.495312 L 12.925113 4.779844 M 12.421875 7.562812 L 13.174268 4.848047 " transform="matrix(5.55,0,0,5.555556,0,0)"/>
</g>
</svg>
