<?xml version="1.0" encoding="UTF-8"?>
<svg xmlns="http://www.w3.org/2000/svg" xmlns:xlink="http://www.w3.org/1999/xlink" width="237pt" height="200pt" viewBox="0 0 237 200" version="1.1">
<g id="surface1">
<path style="fill-rule:nonzero;fill:rgb(3.137255%,48.235294%,73.333333%);fill-opacity:1;stroke-width:0.5;stroke-linecap:butt;stroke-linejoin:miter;stroke:rgb(100%,100%,100%);stroke-opacity:1;stroke-miterlimit:4;" d="M 6.323724 32.744668 L 34.896905 32.744668 L 34.896905 27.340273 L 6.323724 27.340273 Z M 6.323724 32.744668 " transform="matrix(4.647059,0,0,4.651163,0,0)"/>
<path style="fill-rule:nonzero;fill:rgb(3.137255%,48.235294%,73.333333%);fill-opacity:1;stroke-width:0.5;stroke-linecap:butt;stroke-linejoin:miter;stroke:rgb(100%,100%,100%);stroke-opacity:1;stroke-miterlimit:4;" d="M 39.736155 22.481777 L 39.736155 27.906328 L 34.897745 32.746348 L 34.897745 27.340273 L 6.322884 27.340273 " transform="matrix(4.647059,0,0,4.651163,0,0)"/>
<path style="fill:none;stroke-width:0.5;stroke-linecap:butt;stroke-linejoin:bevel;stroke:rgb(100%,100%,100%);stroke-opacity:1;stroke-miterlimit:4;" d="M 6.323724 22.481777 L 39.736155 22.481777 " transform="matrix(4.647059,0,0,4.651163,0,0)"/>
<path style="fill-rule:nonzero;fill:rgb(13.72549%,12.156863%,12.54902%);fill-opacity:1;stroke-width:0.5;stroke-linecap:butt;stroke-linejoin:bevel;stroke:rgb(100%,100%,100%);stroke-opacity:1;stroke-miterlimit:4;" d="M 34.897745 27.340273 L 39.736155 22.480937 " transform="matrix(4.647059,0,0,4.651163,0,0)"/>
<path style=" stroke:none;fill-rule:nonzero;fill:rgb(3.137255%,48.235294%,73.333333%);fill-opacity:1;" d="M 155.613281 170.398438 L 155.613281 155.660156 L 2.8125 155.660156 L 20.195312 138.246094 L 172.992188 138.246094 L 172.992188 152.980469 L 155.613281 170.398438 "/>
<path style="fill:none;stroke-width:0.5;stroke-linecap:butt;stroke-linejoin:miter;stroke:rgb(100%,100%,100%);stroke-opacity:1;stroke-miterlimit:4;" d="M 33.486402 36.635664 L 33.486402 33.466934 L 0.605222 33.466934 L 4.345827 29.72291 L 37.226167 29.72291 L 37.226167 32.890801 Z M 33.486402 36.635664 " transform="matrix(4.647059,0,0,4.651163,0,0)"/>
<path style="fill-rule:nonzero;fill:rgb(3.137255%,48.235294%,73.333333%);fill-opacity:1;stroke-width:0.5;stroke-linecap:butt;stroke-linejoin:miter;stroke:rgb(100%,100%,100%);stroke-opacity:1;stroke-miterlimit:4;" d="M 0.605222 36.635664 L 33.486402 36.635664 L 33.486402 33.466934 L 0.605222 33.466934 L 0.605222 36.637344 Z M 0.605222 36.635664 " transform="matrix(4.647059,0,0,4.651163,0,0)"/>
<path style="fill-rule:nonzero;fill:rgb(13.72549%,12.156863%,12.54902%);fill-opacity:1;stroke-width:0.5;stroke-linecap:butt;stroke-linejoin:bevel;stroke:rgb(100%,100%,100%);stroke-opacity:1;stroke-miterlimit:4;" d="M 33.486402 33.466934 L 37.226167 29.72291 " transform="matrix(4.647059,0,0,4.651163,0,0)"/>
<path style="fill-rule:nonzero;fill:rgb(3.137255%,48.235294%,73.333333%);fill-opacity:1;stroke-width:0.5;stroke-linecap:butt;stroke-linejoin:miter;stroke:rgb(100%,100%,100%);stroke-opacity:1;stroke-miterlimit:4;" d="M 6.323724 27.340273 L 34.859078 27.340273 L 34.859078 5.729414 L 6.323724 5.729414 Z M 6.323724 27.340273 " transform="matrix(4.647059,0,0,4.651163,0,0)"/>
<path style=" stroke:none;fill-rule:nonzero;fill:rgb(3.137255%,48.235294%,73.333333%);fill-opacity:1;" d="M 161.992188 127.164062 L 184.65625 104.5625 L 184.65625 3.960938 L 51.875 3.960938 L 29.382812 26.652344 L 161.996094 26.652344 L 161.996094 127.164062 "/>
<path style="fill:none;stroke-width:0.5;stroke-linecap:butt;stroke-linejoin:miter;stroke:rgb(100%,100%,100%);stroke-opacity:1;stroke-miterlimit:4;" d="M 34.859078 27.340273 L 39.736155 22.480937 L 39.736155 0.851602 L 11.162975 0.851602 L 6.322884 5.730254 L 34.859919 5.730254 L 34.859919 27.340273 Z M 34.859078 27.340273 " transform="matrix(4.647059,0,0,4.651163,0,0)"/>
<path style="fill-rule:nonzero;fill:rgb(3.137255%,48.235294%,73.333333%);fill-opacity:1;stroke-width:0.5;stroke-linecap:butt;stroke-linejoin:miter;stroke:rgb(100%,100%,100%);stroke-opacity:1;stroke-miterlimit:4;" d="M 8.779074 24.77623 L 32.361699 24.77623 L 32.361699 8.22375 L 8.779915 8.22375 L 8.779915 24.77623 Z M 8.779074 24.77623 " transform="matrix(4.647059,0,0,4.651163,0,0)"/>
<path style="fill-rule:nonzero;fill:rgb(13.72549%,12.156863%,12.54902%);fill-opacity:1;stroke-width:0.5;stroke-linecap:butt;stroke-linejoin:bevel;stroke:rgb(100%,100%,100%);stroke-opacity:1;stroke-miterlimit:4;" d="M 34.859078 5.727734 L 39.736155 0.849922 " transform="matrix(4.647059,0,0,4.651163,0,0)"/>
<path style=" stroke:none;fill-rule:nonzero;fill:rgb(3.137255%,48.235294%,73.333333%);fill-opacity:1;" d="M 234.078125 174.558594 L 211.164062 142.714844 L 189.417969 158.414062 L 212.367188 190.226562 L 234.078125 174.554688 "/>
<path style="fill:none;stroke-width:0.5;stroke-linecap:butt;stroke-linejoin:miter;stroke:rgb(100%,100%,100%);stroke-opacity:1;stroke-miterlimit:4;" d="M 50.371242 37.530098 L 45.440368 30.683691 L 40.760829 34.059023 L 45.699268 40.898711 L 50.371242 37.529258 Z M 50.371242 37.530098 " transform="matrix(4.647059,0,0,4.651163,0,0)"/>
<path style="fill:none;stroke-width:0.5;stroke-linecap:butt;stroke-linejoin:miter;stroke:rgb(3.137255%,48.235294%,73.333333%);stroke-opacity:1;stroke-miterlimit:4;" d="M 43.18928 32.286113 C 42.348695 30.880215 40.829757 31.744414 41.151701 29.404609 C 41.48037 26.997617 39.863924 25.406113 36.933643 26.728867 " transform="matrix(4.647059,0,0,4.651163,0,0)"/>
<path style="fill:none;stroke-width:0.5;stroke-linecap:butt;stroke-linejoin:miter;stroke:rgb(100%,100%,100%);stroke-opacity:1;stroke-miterlimit:4;" d="M 15.688687 15.303633 C 17.169798 15.303633 18.369314 14.103496 18.369314 12.623691 C 18.369314 11.143047 17.169798 9.94291 15.688687 9.94291 C 14.208416 9.94207 13.007219 11.142207 13.007219 12.622852 C 13.0089 14.103496 14.208416 15.302793 15.688687 15.302793 Z M 25.341129 15.303633 C 26.8214 15.303633 28.021756 14.103496 28.021756 12.622852 C 28.022597 11.143047 26.822241 9.94207 25.34197 9.94291 C 23.861699 9.94207 22.661343 11.143047 22.662184 12.622852 C 22.663024 14.102656 23.86254 15.301953 25.34197 15.302793 Z M 20.51785 23.639082 C 21.998121 23.638242 23.197636 22.438105 23.197636 20.958301 C 23.197636 19.475977 21.99644 18.275 20.515328 18.275 C 19.033376 18.275 17.83218 19.475977 17.83218 20.958301 C 17.833861 22.439785 19.035898 23.639922 20.51785 23.638242 Z M 15.688687 15.303633 L 17.191653 17.856758 L 17.787629 16.260215 L 19.288074 18.554668 " transform="matrix(4.647059,0,0,4.651163,0,0)"/>
<path style="fill:none;stroke-width:0.5;stroke-linecap:butt;stroke-linejoin:miter;stroke:rgb(100%,100%,100%);stroke-opacity:1;stroke-miterlimit:4;" d="M 21.98215 18.755391 L 23.075752 16.356797 L 23.976019 17.755137 L 25.341129 15.303633 M 22.661343 12.622012 L 20.284167 13.365273 L 20.780953 11.968613 L 18.372676 12.622852 " transform="matrix(4.647059,0,0,4.651163,0,0)"/>
</g>
</svg>
