<?xml version="1.0" encoding="UTF-8"?>
<svg xmlns="http://www.w3.org/2000/svg" xmlns:xlink="http://www.w3.org/1999/xlink" width="188pt" height="200pt" viewBox="0 0 188 200" version="1.1">
<g id="surface1">
<path style=" stroke:none;fill-rule:nonzero;fill:rgb(3.137255%,48.235294%,73.333333%);fill-opacity:1;" d="M 3.78125 191.160156 L 153.085938 191.160156 L 153.085938 38.539062 L 3.78125 38.539062 L 3.78125 191.167969 Z M 3.78125 191.160156 "/>
<path style="fill:none;stroke-width:0.5;stroke-linecap:butt;stroke-linejoin:miter;stroke:rgb(100%,100%,100%);stroke-opacity:1;stroke-miterlimit:4;" d="M 0.683843 34.408125 L 27.685755 34.408125 L 27.685755 6.937031 L 0.683843 6.937031 Z M 0.683843 34.408125 " transform="matrix(5.529412,0,0,5.555556,0,0)"/>
<path style="fill:none;stroke-width:1.875;stroke-linecap:butt;stroke-linejoin:miter;stroke:rgb(100%,100%,100%);stroke-opacity:1;stroke-miterlimit:4;" d="M 14.184799 25.375078 C 16.824801 25.374375 18.964636 23.234766 18.965342 20.595234 C 18.962517 17.955703 16.824094 15.8175 14.184799 15.814687 C 11.544797 15.814687 9.404255 17.955 9.404255 20.595234 C 9.403549 21.862969 9.907247 23.079375 10.803732 23.975859 C 11.700216 24.872344 12.916722 25.375781 14.184799 25.375078 Z M 14.184799 15.813984 L 22.484874 15.813984 " transform="matrix(5.529412,0,0,5.555556,0,0)"/>
<path style=" stroke:none;fill-rule:nonzero;fill:rgb(100%,100%,100%);fill-opacity:1;" d="M 124.792969 70.578125 L 124.792969 103.945312 L 144.820312 87.910156 L 124.792969 70.578125 "/>
<path style="fill:none;stroke-width:0.25;stroke-linecap:butt;stroke-linejoin:miter;stroke:rgb(100%,100%,100%);stroke-opacity:1;stroke-miterlimit:4;" d="M 22.568941 12.702656 L 22.568941 18.710156 L 26.190908 15.823828 L 22.568941 12.704062 Z M 22.568941 12.702656 " transform="matrix(5.529412,0,0,5.555556,0,0)"/>
<path style="fill:none;stroke-width:1.875;stroke-linecap:butt;stroke-linejoin:miter;stroke:rgb(100%,100%,100%);stroke-opacity:1;stroke-miterlimit:4;" d="M 9.4092 20.628281 L 9.4092 12.327891 " transform="matrix(5.529412,0,0,5.555556,0,0)"/>
<path style=" stroke:none;fill-rule:nonzero;fill:rgb(100%,100%,100%);fill-opacity:1;" d="M 35.152344 68.273438 L 68.394531 68.273438 L 52.429688 48.160156 L 35.152344 68.273438 "/>
<path style="fill:none;stroke-width:0.25;stroke-linecap:butt;stroke-linejoin:miter;stroke:rgb(100%,100%,100%);stroke-opacity:1;stroke-miterlimit:4;" d="M 6.357339 12.287812 L 12.369224 12.287812 L 9.481965 8.670234 Z M 6.357339 12.287812 " transform="matrix(5.529412,0,0,5.555556,0,0)"/>
<path style="fill:none;stroke-width:1.875;stroke-linecap:butt;stroke-linejoin:miter;stroke:rgb(100%,100%,100%);stroke-opacity:1;stroke-miterlimit:4;" d="M 18.975233 20.569922 L 18.975233 28.870312 " transform="matrix(5.529412,0,0,5.555556,0,0)"/>
<path style=" stroke:none;fill-rule:nonzero;fill:rgb(100%,100%,100%);fill-opacity:1;" d="M 121.761719 160.445312 L 88.554688 160.445312 L 104.648438 180.550781 L 121.761719 160.4375 "/>
<path style="fill:none;stroke-width:0.25;stroke-linecap:butt;stroke-linejoin:miter;stroke:rgb(100%,100%,100%);stroke-opacity:1;stroke-miterlimit:4;" d="M 22.020736 28.880156 L 16.015209 28.880156 L 18.925781 32.497734 Z M 22.020736 28.880156 " transform="matrix(5.529412,0,0,5.555556,0,0)"/>
<path style="fill:none;stroke-width:1.875;stroke-linecap:butt;stroke-linejoin:miter;stroke:rgb(100%,100%,100%);stroke-opacity:1;stroke-miterlimit:4;" d="M 14.300657 25.370156 L 6.001288 25.370156 " transform="matrix(5.529412,0,0,5.555556,0,0)"/>
<path style=" stroke:none;fill-rule:nonzero;fill:rgb(100%,100%,100%);fill-opacity:1;" d="M 32.535156 158.332031 L 32.535156 124.9375 L 12.496094 140.972656 L 32.535156 158.332031 "/>
<path style="fill:none;stroke-width:0.25;stroke-linecap:butt;stroke-linejoin:miter;stroke:rgb(100%,100%,100%);stroke-opacity:1;stroke-miterlimit:4;" d="M 5.884018 28.499766 L 5.884018 22.490156 L 2.259932 25.373672 Z M 5.884018 28.499766 " transform="matrix(5.529412,0,0,5.555556,0,0)"/>
<path style=" stroke:none;fill-rule:nonzero;fill:rgb(3.137255%,48.235294%,73.333333%);fill-opacity:1;" d="M 152.539062 38.378906 L 3.9375 38.378906 L 41.632812 8.15625 L 183.644531 8.15625 L 183.644531 159.820312 L 152.898438 191.070312 L 152.898438 39.246094 L 152.539062 38.378906 "/>
<path style="fill:none;stroke-width:0.5;stroke-linecap:butt;stroke-linejoin:miter;stroke:rgb(100%,100%,100%);stroke-opacity:1;stroke-miterlimit:4;" d="M 27.586852 6.908203 L 0.712101 6.908203 L 7.529338 1.468125 L 33.212309 1.468125 L 33.212309 28.767656 L 27.651845 34.392656 L 27.651845 7.064297 Z M 27.636303 6.863906 L 33.261054 1.395 " transform="matrix(5.529412,0,0,5.555556,0,0)"/>
</g>
</svg>
