<?xml version="1.0" encoding="UTF-8"?>
<svg xmlns="http://www.w3.org/2000/svg" xmlns:xlink="http://www.w3.org/1999/xlink" width="271pt" height="200pt" viewBox="0 0 271 200" version="1.1">
<g id="surface1">
<path style="fill-rule:nonzero;fill:rgb(3.137255%,48.235294%,73.333333%);fill-opacity:1;stroke-width:0.5;stroke-linecap:butt;stroke-linejoin:miter;stroke:rgb(100%,100%,100%);stroke-opacity:1;stroke-miterlimit:4;" d="M 13.935266 38.626758 L 47.436131 38.626758 L 47.436131 5.09666 L 13.935266 5.09666 Z M 13.935266 38.626758 " transform="matrix(5.113208,0,0,5.128205,0,0)"/>
<path style=" stroke:none;fill-rule:nonzero;fill:rgb(3.137255%,48.235294%,73.333333%);fill-opacity:1;" d="M 91.277344 3.902344 L 262.597656 3.902344 L 241.152344 25.640625 L 69.863281 25.640625 L 91.269531 3.902344 "/>
<path style="fill:none;stroke-width:0.5;stroke-linecap:butt;stroke-linejoin:miter;stroke:rgb(100%,100%,100%);stroke-opacity:1;stroke-miterlimit:4;" d="M 17.851289 0.760957 L 51.356737 0.760957 L 47.162635 4.999922 L 13.663299 4.999922 L 17.849761 0.760957 Z M 17.851289 0.760957 " transform="matrix(5.113208,0,0,5.128205,0,0)"/>
<path style=" stroke:none;fill-rule:nonzero;fill:rgb(3.137255%,48.235294%,73.333333%);fill-opacity:1;" d="M 263.320312 165.066406 L 241.878906 196.488281 L 241.878906 24.539062 L 263.332031 2.804688 L 263.332031 165.0625 "/>
<path style="fill:none;stroke-width:0.5;stroke-linecap:butt;stroke-linejoin:miter;stroke:rgb(100%,100%,100%);stroke-opacity:1;stroke-miterlimit:4;" d="M 51.498068 32.187949 L 47.304731 38.315215 L 47.304731 4.785117 L 51.50036 0.546914 L 51.50036 32.187187 Z M 51.498068 32.187949 " transform="matrix(5.113208,0,0,5.128205,0,0)"/>
<path style="fill-rule:nonzero;fill:rgb(3.137255%,48.235294%,73.333333%);fill-opacity:1;stroke-width:0.5;stroke-linecap:butt;stroke-linejoin:miter;stroke:rgb(100%,100%,100%);stroke-opacity:1;stroke-miterlimit:4;" d="M 0.356002 38.626758 L 13.93603 38.626758 L 13.93603 5.09666 L 0.355238 5.09666 L 0.355238 38.626758 Z M 0.356002 38.626758 " transform="matrix(5.113208,0,0,5.128205,0,0)"/>
<path style=" stroke:none;fill-rule:nonzero;fill:rgb(3.137255%,48.235294%,73.333333%);fill-opacity:1;" d="M 24.519531 3.902344 L 93.949219 3.902344 L 72.503906 25.640625 L 3.066406 25.640625 L 24.519531 3.902344 "/>
<path style="fill:none;stroke-width:0.5;stroke-linecap:butt;stroke-linejoin:miter;stroke:rgb(100%,100%,100%);stroke-opacity:1;stroke-miterlimit:4;" d="M 4.795333 0.760957 L 18.373832 0.760957 L 14.179731 4.999922 L 0.599703 4.999922 Z M 13.935266 5.098184 L 13.935266 38.628281 M 14.179731 17.188184 L 0.599703 17.188184 " transform="matrix(5.113208,0,0,5.128205,0,0)"/>
<path style=" stroke:none;fill-rule:nonzero;fill:rgb(100%,100%,100%);fill-opacity:1;" d="M 131.996094 108.398438 L 94.925781 108.398438 L 94.925781 102.09375 L 80.941406 111.40625 L 94.925781 120.691406 L 94.925781 114.410156 L 131.996094 114.410156 L 131.996094 108.398438 M 137.367188 127.355469 L 111.15625 153.644531 L 106.707031 149.183594 L 103.363281 165.699219 L 119.816406 162.332031 L 115.375 157.875 L 141.585938 131.609375 L 137.367188 127.355469 M 154.519531 136.96875 L 154.519531 174.152344 L 148.230469 174.152344 L 157.523438 188.175781 L 166.789062 174.152344 L 160.488281 174.152344 L 160.488281 136.96875 L 154.519531 136.96875 M 173.417969 131.609375 L 199.636719 157.875 L 195.1875 162.332031 L 211.640625 165.691406 L 208.296875 149.183594 L 203.859375 153.644531 L 177.664062 127.355469 L 173.417969 131.609375 M 183.007812 114.410156 L 220.085938 114.410156 L 220.085938 120.691406 L 234.0625 111.40625 L 220.082031 102.09375 L 220.082031 108.398438 L 183.007812 108.398438 L 183.007812 114.410156 M 177.664062 95.429688 L 203.859375 69.132812 L 208.296875 73.59375 L 211.640625 57.085938 L 195.191406 60.453125 L 199.636719 64.902344 L 173.417969 91.175781 L 177.664062 95.429688 M 160.484375 85.816406 L 160.484375 48.652344 L 166.78125 48.652344 L 157.515625 34.601562 L 148.226562 48.652344 L 154.519531 48.652344 L 154.519531 85.816406 L 160.484375 85.816406 M 141.585938 91.175781 L 115.375 64.902344 L 119.816406 60.453125 L 103.363281 57.085938 L 106.707031 73.589844 L 111.15625 69.136719 L 137.367188 95.429688 L 141.585938 91.175781 "/>
<path style=" stroke:none;fill-rule:nonzero;fill:rgb(100%,100%,100%);fill-opacity:1;" d="M 188.574219 88.640625 C 176.410156 71.234375 152.484375 67.007812 135.121094 79.199219 C 117.742188 91.394531 113.550781 115.382812 125.707031 132.816406 C 137.859375 150.222656 161.785156 154.449219 179.136719 142.25 C 196.507812 130.066406 200.738281 106.058594 188.574219 88.640625 M 30.0625 56.917969 L 18.917969 56.917969 L 18.917969 55.035156 L 14.726562 57.820312 L 18.917969 60.621094 L 18.917969 58.722656 L 30.066406 58.722656 L 30.066406 56.917969 M 31.65625 62.625 L 23.828125 70.488281 L 22.476562 69.160156 L 21.476562 74.097656 L 26.421875 73.113281 L 25.070312 71.765625 L 32.933594 63.875 L 31.660156 62.625 M 36.832031 65.507812 L 36.832031 76.644531 L 34.921875 76.644531 L 37.695312 80.851562 L 40.492188 76.644531 L 38.59375 76.644531 L 38.59375 65.507812 L 36.824219 65.507812 M 42.492188 63.875 L 50.335938 71.765625 L 49.011719 73.113281 L 53.949219 74.097656 L 52.953125 69.160156 L 51.601562 70.492188 L 43.742188 62.625 L 42.492188 63.875 M 45.371094 58.71875 L 56.476562 58.71875 L 56.476562 60.621094 L 60.667969 57.820312 L 56.476562 55.035156 L 56.476562 56.917969 L 45.371094 56.917969 L 45.371094 58.71875 M 43.742188 53.03125 L 51.601562 45.148438 L 52.953125 46.496094 L 53.949219 41.539062 L 49.011719 42.542969 L 50.335938 43.875 L 42.492188 51.753906 L 43.742188 53.035156 M 38.597656 50.152344 L 38.597656 39.011719 L 40.492188 39.011719 L 37.699219 34.785156 L 34.929688 39.011719 L 36.832031 39.011719 L 36.832031 50.152344 L 38.597656 50.152344 M 32.929688 51.753906 L 25.066406 43.871094 L 26.414062 42.542969 L 21.46875 41.539062 L 22.472656 46.496094 L 23.824219 45.148438 L 31.652344 53.027344 L 32.925781 51.75 "/>
<path style=" stroke:none;fill-rule:nonzero;fill:rgb(100%,100%,100%);fill-opacity:1;" d="M 47.035156 51.003906 C 45.289062 48.496094 42.613281 46.789062 39.609375 46.257812 C 36.601562 45.726562 33.507812 46.417969 31.011719 48.179688 C 28.503906 49.929688 26.796875 52.605469 26.261719 55.621094 C 25.726562 58.636719 26.40625 61.742188 28.160156 64.25 C 31.871094 69.289062 38.910156 70.441406 44.027344 66.851562 C 49.144531 63.261719 50.476562 56.234375 47.03125 51.011719 M 33.855469 144.359375 L 33.855469 175.28125 L 28.640625 175.28125 L 36.328125 186.949219 L 44.046875 175.28125 L 38.820312 175.28125 L 38.820312 144.359375 L 33.859375 144.359375 M 42.417969 143.65625 L 52.953125 172.699219 L 48.039062 174.507812 L 59.265625 182.816406 L 62.515625 169.199219 L 57.625 171 L 47.085938 141.953125 L 42.417969 143.65625 M 30.464844 143.65625 L 19.921875 172.699219 L 24.84375 174.507812 L 13.605469 182.816406 L 10.332031 169.199219 L 15.257812 171 L 25.792969 141.953125 L 30.464844 143.65625 M 33.855469 96.429688 L 33.855469 126.25 L 28.640625 126.25 L 36.328125 137.898438 L 44.046875 126.25 L 38.820312 126.25 L 38.820312 96.429688 L 33.859375 96.429688 "/>
</g>
</svg>
