<?xml version="1.0" encoding="UTF-8"?>
<svg xmlns="http://www.w3.org/2000/svg" xmlns:xlink="http://www.w3.org/1999/xlink" width="920pt" height="200pt" viewBox="0 0 920 200" version="1.1">
<g id="surface1">
<path style=" stroke:none;fill-rule:nonzero;fill:rgb(0.784314%,43.921569%,62.352941%);fill-opacity:1;" d="M 51 150.039062 C 37.457031 150.136719 24.441406 144.804688 14.859375 135.238281 C 5.277344 125.667969 -0.0742188 112.660156 0 99.121094 C 0 70.960938 22.441406 47.921875 51 47.921875 C 79.210938 47.921875 102.078125 70.789062 102.078125 99 C 102.078125 127.210938 79.210938 150.078125 51 150.078125 M 306.441406 150.039062 C 278.320312 150.039062 255.640625 127.601562 255.640625 99.121094 C 255.640625 70.960938 277.960938 47.921875 306.441406 47.921875 C 334.761719 47.921875 357.601562 70.960938 357.601562 99.121094 C 357.601562 127.398438 334.761719 150.039062 306.441406 150.039062 M 562.121094 150.039062 C 548.585938 150.125 535.578125 144.789062 526.003906 135.222656 C 516.429688 125.65625 511.085938 112.65625 511.160156 99.121094 C 511.160156 70.960938 533.558594 47.921875 562.121094 47.921875 C 590.332031 47.921875 613.199219 70.789062 613.199219 99 C 613.199219 127.210938 590.332031 150.078125 562.121094 150.078125 M 832.039062 150.039062 C 803.921875 150.039062 781.238281 127.601562 781.238281 99.121094 C 781.238281 70.960938 803.480469 47.921875 832.039062 47.921875 C 860.359375 47.921875 883.238281 70.960938 883.238281 99.121094 C 883.238281 127.398438 860.359375 150.039062 832.039062 150.039062 "/>
</g>
</svg>
