<?xml version="1.0" encoding="UTF-8"?>
<svg xmlns="http://www.w3.org/2000/svg" xmlns:xlink="http://www.w3.org/1999/xlink" width="139pt" height="200pt" viewBox="0 0 139 200" version="1.1">
<g id="surface1">
<path style=" stroke:none;fill-rule:nonzero;fill:rgb(3.137255%,49.803922%,74.901961%);fill-opacity:1;" d="M 60.449219 56.386719 L 30.402344 9.832031 L 38.4375 1.757812 L 69.453125 48.316406 L 60.449219 56.390625 "/>
<path style="fill:none;stroke-width:0.5;stroke-linecap:butt;stroke-linejoin:miter;stroke:rgb(100%,100%,100%);stroke-opacity:1;stroke-miterlimit:4;" d="M 13.046594 12.123145 L 6.561657 2.113887 L 8.295863 0.37793 L 14.989883 10.388027 L 13.046594 12.123984 Z M 13.046594 12.123145 " transform="matrix(4.633333,0,0,4.651163,0,0)"/>
<path style=" stroke:none;fill-rule:nonzero;fill:rgb(3.137255%,49.803922%,74.901961%);fill-opacity:1;" d="M 30.410156 196.066406 L 60.449219 149.507812 L 60.449219 56.390625 L 30.402344 9.832031 L 30.402344 196.066406 "/>
<path style="fill:none;stroke-width:0.5;stroke-linecap:butt;stroke-linejoin:miter;stroke:rgb(100%,100%,100%);stroke-opacity:1;stroke-miterlimit:4;" d="M 6.563343 42.154277 L 13.046594 32.14418 L 13.046594 12.123984 L 6.561657 2.113887 L 6.561657 42.154277 Z M 13.046594 32.14418 L 13.046594 12.123984 M 13.046594 32.14418 L 13.046594 12.123984 " transform="matrix(4.633333,0,0,4.651163,0,0)"/>
<path style=" stroke:none;fill-rule:nonzero;fill:rgb(3.137255%,49.803922%,74.901961%);fill-opacity:1;" d="M 106.597656 149.367188 L 106.597656 56.253906 L 114.613281 48.171875 L 114.613281 141.289062 L 106.597656 149.367188 "/>
<path style="fill:none;stroke-width:0.5;stroke-linecap:butt;stroke-linejoin:miter;stroke:rgb(100%,100%,100%);stroke-opacity:1;stroke-miterlimit:4;" d="M 23.006688 32.113945 L 23.006688 12.09459 L 24.736679 10.356953 L 24.736679 30.377148 Z M 23.006688 32.113945 " transform="matrix(4.633333,0,0,4.651163,0,0)"/>
<path style=" stroke:none;fill-rule:nonzero;fill:rgb(3.137255%,49.803922%,74.901961%);fill-opacity:1;" d="M 106.597656 56.253906 L 60.542969 56.253906 L 69.546875 48.167969 L 114.609375 48.167969 L 106.597656 56.261719 "/>
<path style="fill:none;stroke-width:0.5;stroke-linecap:butt;stroke-linejoin:miter;stroke:rgb(100%,100%,100%);stroke-opacity:1;stroke-miterlimit:4;" d="M 23.006688 12.09459 L 13.066828 12.09459 L 15.010117 10.356113 L 24.735836 10.356113 L 23.006688 12.09627 Z M 23.006688 12.09459 " transform="matrix(4.633333,0,0,4.651163,0,0)"/>
<path style="fill-rule:nonzero;fill:rgb(3.137255%,49.803922%,74.901961%);fill-opacity:1;stroke-width:0.5;stroke-linecap:butt;stroke-linejoin:miter;stroke:rgb(100%,100%,100%);stroke-opacity:1;stroke-miterlimit:4;" d="M 13.065985 32.114785 L 23.006688 32.114785 L 23.006688 12.09459 L 13.066828 12.09459 L 13.066828 32.114785 Z M 13.065985 32.114785 " transform="matrix(4.633333,0,0,4.651163,0,0)"/>
<path style="fill:none;stroke-width:0.425;stroke-linecap:round;stroke-linejoin:round;stroke:rgb(100%,100%,100%);stroke-opacity:1;stroke-miterlimit:1;" d="M 13.065985 32.113945 L 23.006688 32.113945 " transform="matrix(4.633333,0,0,4.651163,0,0)"/>
<path style="fill:none;stroke-width:0.5;stroke-linecap:butt;stroke-linejoin:miter;stroke:rgb(100%,100%,100%);stroke-opacity:1;stroke-miterlimit:4;" d="M 23.006688 32.113945 L 23.006688 12.09459 M 23.006688 12.09459 L 13.066828 12.09459 " transform="matrix(4.633333,0,0,4.651163,0,0)"/>
<path style="fill:none;stroke-width:0.425;stroke-linecap:round;stroke-linejoin:round;stroke:rgb(100%,100%,100%);stroke-opacity:1;stroke-miterlimit:1;" d="M 13.065985 32.113945 L 23.006688 32.113945 " transform="matrix(4.633333,0,0,4.651163,0,0)"/>
<path style="fill:none;stroke-width:0.5;stroke-linecap:butt;stroke-linejoin:miter;stroke:rgb(100%,100%,100%);stroke-opacity:1;stroke-miterlimit:4;" d="M 23.006688 32.113945 L 23.006688 12.09459 M 23.006688 12.09459 L 13.066828 12.09459 " transform="matrix(4.633333,0,0,4.651163,0,0)"/>
<path style="fill:none;stroke-width:0.425;stroke-linecap:round;stroke-linejoin:round;stroke:rgb(100%,100%,100%);stroke-opacity:1;stroke-miterlimit:4;" d="M 12.989265 20.903711 L 6.728586 10.379629 M 12.989265 20.903711 L 6.728586 16.918652 M 12.989265 21.274922 L 6.728586 31.797324 M 12.989265 21.274922 L 6.728586 25.259141 M 12.989265 20.903711 L 6.728586 20.903711 " transform="matrix(4.633333,0,0,4.651163,0,0)"/>
<path style="fill:none;stroke-width:0.625;stroke-linecap:round;stroke-linejoin:round;stroke:rgb(3.137255%,49.803922%,74.901961%);stroke-opacity:1;stroke-miterlimit:4;" d="M 6.566715 10.459414 L 0.311938 10.459414 M 6.566715 16.996758 L 0.311938 16.996758 M 6.566715 21.12207 L 0.311938 21.12207 M 6.566715 25.10209 L 0.311938 25.10209 M 6.566715 31.788086 L 0.311938 31.788086 " transform="matrix(4.633333,0,0,4.651163,0,0)"/>
<path style="fill:none;stroke-width:2.125;stroke-linecap:butt;stroke-linejoin:round;stroke:rgb(3.137255%,49.803922%,74.901961%);stroke-opacity:1;stroke-miterlimit:4;" d="M 30.332172 21.342109 L 23.789906 21.342109 " transform="matrix(4.633333,0,0,4.651163,0,0)"/>
</g>
</svg>
