<?xml version="1.0" encoding="UTF-8"?>
<svg xmlns="http://www.w3.org/2000/svg" xmlns:xlink="http://www.w3.org/1999/xlink" width="265pt" height="200pt" viewBox="0 0 265 200" version="1.1">
<g id="surface1">
<path style=" stroke:none;fill-rule:nonzero;fill:rgb(3.137255%,49.803922%,74.901961%);fill-opacity:1;" d="M 3.5625 129.304688 L 197.527344 129.304688 L 197.527344 66.273438 L 3.558594 66.273438 L 3.558594 129.304688 Z M 3.5625 129.304688 "/>
<path style="fill:none;stroke-width:0.5;stroke-linecap:butt;stroke-linejoin:miter;stroke:rgb(100%,100%,100%);stroke-opacity:1;stroke-miterlimit:4;" d="M 0.820047 29.740078 L 45.468558 29.740078 L 45.468558 15.241992 L 0.819148 15.241992 L 0.819148 29.740078 Z M 0.820047 29.740078 " transform="matrix(4.344262,0,0,4.347826,0,0)"/>
<path style=" stroke:none;fill-rule:nonzero;fill:rgb(3.137255%,49.803922%,74.901961%);fill-opacity:1;" d="M 3.054688 66.585938 L 81.410156 3.046875 L 262.394531 3.046875 L 197.359375 66.585938 L 3.054688 66.585938 "/>
<path style="fill:none;stroke-width:0.5;stroke-linecap:butt;stroke-linejoin:miter;stroke:rgb(100%,100%,100%);stroke-opacity:1;stroke-miterlimit:4;" d="M 0.703154 15.314766 L 18.739696 0.700781 L 60.400251 0.700781 L 45.429894 15.314766 Z M 0.703154 15.314766 " transform="matrix(4.344262,0,0,4.347826,0,0)"/>
<path style=" stroke:none;fill-rule:nonzero;fill:rgb(3.137255%,49.803922%,74.901961%);fill-opacity:1;" d="M 197.421875 131.277344 L 262.21875 61.21875 L 262.261719 3.152344 L 197.417969 66.503906 L 197.417969 131.277344 "/>
<path style="fill:none;stroke-width:0.5;stroke-linecap:butt;stroke-linejoin:miter;stroke:rgb(100%,100%,100%);stroke-opacity:1;stroke-miterlimit:4;" d="M 45.444281 30.192891 L 60.359788 14.080312 L 60.369679 0.725938 L 45.443381 15.295898 L 45.443381 30.192891 Z M 45.444281 30.192891 " transform="matrix(4.344262,0,0,4.347826,0,0)"/>
<path style=" stroke:none;fill-rule:nonzero;fill:rgb(100%,100%,100%);fill-opacity:1;" d="M 116.773438 50.046875 L 113 53.152344 L 64.609375 53.152344 L 59.796875 57.964844 L 46.691406 52.261719 L 73.054688 44.699219 L 68.390625 50.046875 L 116.773438 50.046875 M 154.785156 26.269531 L 151.011719 29.375 L 102.621094 29.375 L 97.8125 34.191406 L 84.699219 28.484375 L 111.070312 20.921875 L 106.402344 26.269531 L 154.785156 26.269531 M 125.296875 41.664062 L 129.058594 38.566406 L 177.441406 38.566406 L 182.253906 33.742188 L 195.367188 39.457031 L 168.996094 47.015625 L 173.660156 41.664062 L 125.296875 41.664062 M 150.410156 17.886719 L 154.171875 14.785156 L 202.558594 14.785156 L 207.375 9.96875 L 220.484375 15.683594 L 194.113281 23.238281 L 198.777344 17.886719 L 150.414062 17.886719 "/>
<path style=" stroke:none;fill-rule:nonzero;fill:rgb(3.137255%,49.803922%,74.901961%);fill-opacity:1;" d="M 3.5625 190.890625 L 197.527344 190.890625 L 197.527344 127.882812 L 3.558594 127.882812 L 3.558594 190.890625 Z M 3.5625 190.890625 "/>
<path style="fill:none;stroke-width:0.5;stroke-linecap:butt;stroke-linejoin:miter;stroke:rgb(100%,100%,100%);stroke-opacity:1;stroke-miterlimit:4;" d="M 0.820047 43.904844 L 45.468558 43.904844 L 45.468558 29.412148 L 0.819148 29.412148 L 0.819148 43.904844 Z M 0.820047 43.904844 " transform="matrix(4.344262,0,0,4.347826,0,0)"/>
<path style=" stroke:none;fill-rule:nonzero;fill:rgb(3.137255%,49.803922%,74.901961%);fill-opacity:1;" d="M 197.421875 192.886719 L 262.21875 122.804688 L 262.261719 64.738281 L 197.417969 128.089844 L 197.417969 192.886719 "/>
<path style="fill:none;stroke-width:0.5;stroke-linecap:butt;stroke-linejoin:miter;stroke:rgb(100%,100%,100%);stroke-opacity:1;stroke-miterlimit:4;" d="M 45.444281 44.363047 L 60.359788 28.245078 L 60.369679 14.890703 L 45.443381 29.460664 L 45.443381 44.363047 Z M 45.444281 44.363047 " transform="matrix(4.344262,0,0,4.347826,0,0)"/>
<path style=" stroke:none;fill-rule:nonzero;fill:rgb(100%,100%,100%);fill-opacity:1;" d="M 77.636719 96.09375 L 41.339844 96.09375 L 41.339844 92.765625 L 27.664062 97.667969 L 41.339844 102.570312 L 41.339844 99.265625 L 77.636719 99.265625 L 77.636719 96.101562 M 98.144531 106.523438 L 98.144531 119.410156 L 88.773438 119.410156 L 102.605469 124.273438 L 116.414062 119.40625 L 107.054688 119.40625 L 107.054688 106.523438 L 98.148438 106.523438 M 98.144531 89.175781 L 98.144531 76.304688 L 88.773438 76.304688 L 102.605469 71.449219 L 116.414062 76.304688 L 107.054688 76.304688 L 107.054688 89.167969 L 98.148438 89.167969 M 127.570312 99.261719 L 163.84375 99.261719 L 163.84375 102.570312 L 177.546875 97.667969 L 163.84375 92.765625 L 163.84375 96.09375 L 127.570312 96.09375 L 127.570312 99.261719 "/>
<path style="fill:none;stroke-width:0.5;stroke-linecap:butt;stroke-linejoin:miter;stroke:rgb(100%,100%,100%);stroke-opacity:1;stroke-miterlimit:4;" d="M 37.055881 27.219961 C 35.48862 27.805742 28.286232 26.194844 20.971448 23.616328 C 13.657562 21.039609 8.999838 18.47457 10.5662 17.889688 C 12.13436 17.303008 19.341244 18.914805 26.65513 21.49332 C 33.969915 24.066445 38.623143 26.63418 37.055881 27.220859 Z M 37.055881 27.219961 " transform="matrix(4.344262,0,0,4.347826,0,0)"/>
<path style="fill:none;stroke-width:0.5;stroke-linecap:butt;stroke-linejoin:miter;stroke:rgb(100%,100%,100%);stroke-opacity:1;stroke-miterlimit:4;" d="M 36.639564 17.844766 C 38.295843 18.400898 33.745121 20.955156 26.475295 23.547148 C 19.209065 26.140937 11.973408 27.791367 10.317129 27.235234 C 8.662647 26.677305 13.211571 24.123945 20.484095 21.531055 C 27.747627 18.939063 34.979687 17.288633 36.639564 17.844766 Z M 36.639564 17.844766 " transform="matrix(4.344262,0,0,4.347826,0,0)"/>
<path style=" stroke:none;fill-rule:nonzero;fill:rgb(74.901961%,74.509804%,74.509804%);fill-opacity:1;" d="M 117.472656 105.164062 C 129.480469 102.164062 132.386719 96.308594 123.984375 92.066406 C 115.585938 87.8125 99.082031 86.777344 87.097656 89.753906 C 75.113281 92.722656 72.207031 98.605469 80.609375 102.847656 C 88.988281 107.089844 105.492188 108.136719 117.472656 105.160156 "/>
</g>
</svg>
