<?xml version="1.0" encoding="UTF-8"?>
<svg xmlns="http://www.w3.org/2000/svg" xmlns:xlink="http://www.w3.org/1999/xlink" width="92pt" height="200pt" viewBox="0 0 92 200" version="1.1">
<g id="surface1">
<path style="fill-rule:nonzero;fill:rgb(3.137255%,49.803922%,74.901961%);fill-opacity:1;stroke-width:0.5;stroke-linecap:butt;stroke-linejoin:miter;stroke:rgb(100%,100%,100%);stroke-opacity:1;stroke-miterlimit:4;" d="M 0.717179 40.669277 L 10.625382 40.669277 L 10.625382 7.56418 L 0.717179 7.56418 Z M 0.717179 40.669277 " transform="matrix(4.842105,0,0,4.878049,0,0)"/>
<path style=" stroke:none;fill-rule:nonzero;fill:rgb(3.137255%,49.803922%,74.901961%);fill-opacity:1;" d="M 51.449219 36.898438 L 3.472656 36.898438 L 46.460938 2.667969 L 88.304688 2.667969 L 51.449219 36.898438 "/>
<path style="fill:none;stroke-width:0.5;stroke-linecap:butt;stroke-linejoin:miter;stroke:rgb(100%,100%,100%);stroke-opacity:1;stroke-miterlimit:4;" d="M 10.625382 7.56418 L 0.717179 7.56418 L 9.595194 0.546934 L 18.236838 0.546934 Z M 10.625382 7.56418 " transform="matrix(4.842105,0,0,4.878049,0,0)"/>
<path style=" stroke:none;fill-rule:nonzero;fill:rgb(3.137255%,49.803922%,74.901961%);fill-opacity:1;" d="M 88.304688 2.667969 L 88.304688 156.75 L 51.449219 198.621094 L 51.449219 36.898438 L 88.304688 2.667969 "/>
<path style="fill:none;stroke-width:0.5;stroke-linecap:butt;stroke-linejoin:miter;stroke:rgb(100%,100%,100%);stroke-opacity:1;stroke-miterlimit:4;" d="M 18.236838 0.546934 L 18.236838 32.13375 L 10.625382 40.717324 L 10.625382 7.56418 Z M 15.898947 7.95416 L 15.898947 2.640176 M 15.898947 18.711055 L 15.898947 13.400273 M 15.898947 29.467148 L 15.898947 24.154766 " transform="matrix(4.842105,0,0,4.878049,0,0)"/>
<path style="fill-rule:nonzero;fill:rgb(3.137255%,49.803922%,74.901961%);fill-opacity:1;stroke-width:0.5;stroke-linecap:butt;stroke-linejoin:miter;stroke:rgb(100%,100%,100%);stroke-opacity:1;stroke-miterlimit:4;" d="M 18.236838 26.870215 L 10.625382 35.190332 " transform="matrix(4.842105,0,0,4.878049,0,0)"/>
<path style="fill-rule:nonzero;fill:rgb(3.137255%,49.803922%,74.901961%);fill-opacity:1;stroke-width:0.5;stroke-linecap:butt;stroke-linejoin:miter;stroke:rgb(100%,100%,100%);stroke-opacity:1;stroke-miterlimit:4;" d="M 18.236838 21.60668 L 10.625382 29.667344 " transform="matrix(4.842105,0,0,4.878049,0,0)"/>
<path style="fill-rule:nonzero;fill:rgb(3.137255%,49.803922%,74.901961%);fill-opacity:1;stroke-width:0.5;stroke-linecap:butt;stroke-linejoin:miter;stroke:rgb(100%,100%,100%);stroke-opacity:1;stroke-miterlimit:4;" d="M 18.236838 16.342344 L 10.625382 24.140352 " transform="matrix(4.842105,0,0,4.878049,0,0)"/>
<path style="fill-rule:nonzero;fill:rgb(3.137255%,49.803922%,74.901961%);fill-opacity:1;stroke-width:0.5;stroke-linecap:butt;stroke-linejoin:miter;stroke:rgb(100%,100%,100%);stroke-opacity:1;stroke-miterlimit:4;" d="M 18.236838 11.074004 L 10.625382 18.61416 " transform="matrix(4.842105,0,0,4.878049,0,0)"/>
<path style="fill-rule:nonzero;fill:rgb(3.137255%,49.803922%,74.901961%);fill-opacity:1;stroke-width:0.5;stroke-linecap:butt;stroke-linejoin:miter;stroke:rgb(100%,100%,100%);stroke-opacity:1;stroke-miterlimit:4;" d="M 18.236838 5.809668 L 10.625382 13.091172 " transform="matrix(4.842105,0,0,4.878049,0,0)"/>
<path style=" stroke:none;fill-rule:nonzero;fill:rgb(3.137255%,49.803922%,74.901961%);fill-opacity:1;" d="M 51.449219 36.898438 L 88.304688 2.667969 "/>
<path style="fill:none;stroke-width:0.5;stroke-linecap:butt;stroke-linejoin:miter;stroke:rgb(100%,100%,100%);stroke-opacity:1;stroke-miterlimit:4;" d="M 10.625382 7.56418 L 18.236838 0.546934 M 10.625382 35.151094 L 0.717179 35.151094 M 10.625382 29.633711 L 0.717179 29.633711 M 10.625382 24.116328 L 0.717179 24.116328 M 10.625382 18.598945 L 0.717179 18.598945 M 10.625382 13.080762 L 0.717179 13.080762 M 13.319845 37.671152 L 13.319845 32.329941 M 13.319845 26.757305 L 13.319845 21.420898 M 13.319845 15.953164 L 13.319845 10.610352 " transform="matrix(4.842105,0,0,4.878049,0,0)"/>
</g>
</svg>
