<?xml version="1.0" encoding="UTF-8"?>
<svg xmlns="http://www.w3.org/2000/svg" xmlns:xlink="http://www.w3.org/1999/xlink" width="181pt" height="200pt" viewBox="0 0 181 200" version="1.1">
<g id="surface1">
<path style=" stroke:none;fill-rule:nonzero;fill:rgb(3.137255%,49.803922%,74.901961%);fill-opacity:1;" d="M 177.972656 35.46875 C 177.972656 54.558594 138.402344 70.023438 89.550781 70.023438 C 40.71875 70.023438 1.125 54.558594 1.125 35.46875 L 1.125 165.453125 C 1.125 184.546875 40.71875 199.992188 89.550781 199.992188 C 138.402344 199.992188 177.972656 184.539062 177.972656 165.453125 L 177.972656 35.46875 "/>
<path style="fill:none;stroke-width:0.5;stroke-linecap:butt;stroke-linejoin:miter;stroke:rgb(100%,100%,100%);stroke-opacity:1;stroke-miterlimit:4;" d="M 39.330974 7.803125 C 39.330974 12.002891 30.586153 15.405156 19.790228 15.405156 C 8.998619 15.405156 0.248619 12.002891 0.248619 7.803125 L 0.248619 36.399687 C 0.248619 40.600312 8.998619 43.998281 19.790228 43.998281 C 30.586153 43.998281 39.330974 40.598594 39.330974 36.399687 Z M 39.330974 7.803125 " transform="matrix(4.525,0,0,4.545455,0,0)"/>
<path style=" stroke:none;fill-rule:nonzero;fill:rgb(3.137255%,49.803922%,74.901961%);fill-opacity:1;" d="M 89.550781 70.023438 C 138.402344 70.023438 177.972656 54.558594 177.972656 35.46875 C 177.972656 16.40625 138.402344 0.933594 89.550781 0.933594 C 40.71875 0.933594 1.125 16.410156 1.125 35.46875 C 1.125 54.558594 40.71875 70.023438 89.550781 70.023438 "/>
<path style="fill:none;stroke-width:0.5;stroke-linecap:butt;stroke-linejoin:miter;stroke:rgb(100%,100%,100%);stroke-opacity:1;stroke-miterlimit:4;" d="M 19.790228 15.405156 C 30.586153 15.405156 39.330974 12.002891 39.330974 7.803125 C 39.330974 3.609375 30.586153 0.205391 19.790228 0.205391 C 8.998619 0.205391 0.248619 3.610234 0.248619 7.803125 C 0.248619 12.002891 8.998619 15.405156 19.790228 15.405156 Z M 19.790228 15.405156 " transform="matrix(4.525,0,0,4.545455,0,0)"/>
<path style=" stroke:none;fill-rule:nonzero;fill:rgb(100%,100%,100%);fill-opacity:1;" d="M 69.359375 21.972656 L 76.671875 32.964844 L 49.074219 39.371094 L 55.078125 34.335938 L 12.445312 27.007812 L 23.132812 18.953125 L 64.296875 25.945312 L 69.359375 21.972656 M 108.21875 48.632812 L 103.230469 37.304688 L 128.125 32.296875 L 123.820312 36.175781 L 165.316406 43.300781 L 155.371094 51.3125 L 114.097656 43.523438 L 108.21875 48.632812 M 94.613281 15.960938 L 122.488281 8.277344 L 122.828125 20.28125 L 115.839844 18.953125 L 102.230469 30.296875 L 89.242188 28.386719 L 103.296875 17.3125 L 94.609375 15.960938 M 82.652344 58.996094 L 56.078125 63.992188 L 55.082031 51.644531 L 62.730469 53.3125 L 77.332031 40.773438 L 90.277344 42.96875 L 74.679688 56.640625 L 82.652344 58.992188 M 90.917969 115.566406 L 90.917969 87.558594 L 95.648438 87.558594 L 88.667969 76.996094 L 81.679688 87.558594 L 86.410156 87.558594 L 86.410156 115.566406 L 90.917969 115.566406 M 76.695312 119.609375 L 56.980469 99.808594 L 60.316406 96.460938 L 47.945312 93.949219 L 50.460938 106.382812 L 53.800781 103.027344 L 73.507812 122.800781 L 76.695312 119.609375 M 69.492188 132.589844 L 41.601562 132.589844 L 41.601562 127.839844 L 31.085938 134.832031 L 41.601562 141.867188 L 41.601562 137.09375 L 69.492188 137.09375 L 69.492188 132.589844 M 73.507812 146.863281 L 53.800781 166.683594 L 50.460938 163.308594 L 47.945312 175.761719 L 60.316406 173.226562 L 56.980469 169.878906 L 76.695312 150.058594 L 73.507812 146.863281 M 86.410156 154.117188 L 86.410156 182.109375 L 81.679688 182.109375 L 88.667969 192.695312 L 95.648438 182.109375 L 90.917969 182.109375 L 90.917969 154.117188 L 86.410156 154.117188 M 100.640625 150.058594 L 120.347656 169.878906 L 117.015625 173.226562 L 129.386719 175.757812 L 126.894531 163.304688 L 123.53125 166.683594 L 103.820312 146.863281 L 100.640625 150.058594 M 107.839844 137.09375 L 135.726562 137.09375 L 135.726562 141.867188 L 146.242188 134.832031 L 135.726562 127.839844 L 135.726562 132.589844 L 107.839844 132.589844 L 107.839844 137.09375 M 103.820312 122.800781 L 123.53125 103.027344 L 126.890625 106.382812 L 129.386719 93.949219 L 117.015625 96.460938 L 120.347656 99.804688 L 100.640625 119.609375 L 103.820312 122.800781 "/>
<path style=" stroke:none;fill-rule:nonzero;fill:rgb(100%,100%,100%);fill-opacity:1;" d="M 105.722656 158.3125 C 118.789062 149.128906 121.960938 131.039062 112.8125 117.917969 C 103.667969 104.800781 85.667969 101.617188 72.613281 110.804688 C 59.554688 119.992188 56.386719 138.070312 65.53125 151.1875 C 74.667969 164.308594 92.664062 167.5 105.722656 158.3125 "/>
</g>
</svg>
