<?xml version="1.0" encoding="UTF-8"?>
<svg xmlns="http://www.w3.org/2000/svg" xmlns:xlink="http://www.w3.org/1999/xlink" width="265pt" height="200pt" viewBox="0 0 265 200" version="1.1">
<g id="surface1">
<path style=" stroke:none;fill-rule:nonzero;fill:rgb(0.784314%,43.921569%,62.352941%);fill-opacity:1;" d="M 73.15625 93.976562 L 186.902344 93.976562 L 186.902344 76.613281 L 73.15625 76.613281 Z M 73.15625 93.976562 "/>
<path style="fill:none;stroke-width:0.5;stroke-linecap:butt;stroke-linejoin:miter;stroke:rgb(100%,100%,100%);stroke-opacity:1;stroke-miterlimit:4;" d="M 17.943986 23.023301 L 45.843971 23.023301 L 45.843971 18.770254 L 17.943986 18.770254 Z M 17.943986 23.023301 " transform="matrix(4.076923,0,0,4.081633,0,0)"/>
<path style=" stroke:none;fill-rule:nonzero;fill:rgb(0.784314%,43.921569%,62.352941%);fill-opacity:1;" d="M 187.085938 76.617188 C 187.085938 51.125 161.5625 29.496094 130.089844 29.496094 C 98.621094 29.496094 73.097656 51.128906 73.097656 76.617188 L 187.089844 76.617188 "/>
<path style="fill:none;stroke-width:0.5;stroke-linecap:butt;stroke-linejoin:miter;stroke:rgb(100%,100%,100%);stroke-opacity:1;stroke-miterlimit:4;" d="M 45.889004 18.770254 C 45.889004 12.524668 39.628538 7.226543 31.90883 7.226543 C 24.19008 7.226543 17.929614 12.524668 17.929614 18.770254 L 45.889962 18.770254 Z M 32.060215 1.230742 L 32.060215 7.790234 " transform="matrix(4.076923,0,0,4.081633,0,0)"/>
<path style=" stroke:none;fill-rule:nonzero;fill:rgb(0.784314%,43.921569%,62.352941%);fill-opacity:1;" d="M 153.238281 21.351562 C 152.425781 22.585938 142.871094 22.566406 141.199219 21.351562 C 138.910156 19.671875 132.480469 19.671875 130.808594 21.769531 L 130.808594 8.652344 C 132.480469 6.578125 138.910156 6.578125 141.199219 8.238281 C 142.871094 9.46875 152.429688 9.488281 153.238281 8.238281 L 153.238281 21.347656 "/>
<path style="fill:none;stroke-width:0.5;stroke-linecap:butt;stroke-linejoin:miter;stroke:rgb(100%,100%,100%);stroke-opacity:1;stroke-miterlimit:4;" d="M 37.586748 5.230176 C 37.387456 5.533555 35.043853 5.52877 34.633771 5.230176 C 34.072302 4.819609 32.495209 4.819609 32.085127 5.331621 L 32.085127 2.119824 C 32.495209 1.612598 34.072302 1.612598 34.633771 2.018379 C 35.043853 2.319844 37.388414 2.324629 37.586748 2.018379 Z M 37.586748 5.230176 " transform="matrix(4.076923,0,0,4.081633,0,0)"/>
<path style=" stroke:none;fill-rule:nonzero;fill:rgb(0.784314%,43.921569%,62.352941%);fill-opacity:1;" d="M 1.015625 192.867188 L 258.964844 192.867188 L 258.964844 93.976562 L 1.015625 93.976562 Z M 1.015625 192.867188 "/>
<path style="fill:none;stroke-width:0.5;stroke-linecap:butt;stroke-linejoin:miter;stroke:rgb(100%,100%,100%);stroke-opacity:1;stroke-miterlimit:4;" d="M 0.249116 47.253418 L 63.519679 47.253418 L 63.519679 23.023301 L 0.249116 23.023301 Z M 0.249116 47.253418 " transform="matrix(4.076923,0,0,4.081633,0,0)"/>
<path style=" stroke:none;fill-rule:nonzero;fill:rgb(0.784314%,43.921569%,62.352941%);fill-opacity:1;" d="M 161.585938 192.007812 L 161.644531 159.265625 C 161.644531 144.441406 147.566406 132.398438 130.109375 132.398438 C 112.648438 132.398438 98.519531 144.417969 98.519531 159.222656 L 98.519531 191.945312 "/>
<path style="fill:none;stroke-width:0.5;stroke-linecap:butt;stroke-linejoin:miter;stroke:rgb(100%,100%,100%);stroke-opacity:1;stroke-miterlimit:4;" d="M 39.634287 47.042871 L 39.648659 39.020078 C 39.648659 35.387187 36.195534 32.437617 31.91362 32.437617 C 27.630749 32.437617 24.165168 35.381445 24.165168 39.009551 L 24.165168 47.027559 " transform="matrix(4.076923,0,0,4.081633,0,0)"/>
<path style="fill-rule:nonzero;fill:rgb(0.784314%,43.921569%,62.352941%);fill-opacity:1;stroke-width:0.5;stroke-linecap:butt;stroke-linejoin:miter;stroke:rgb(100%,100%,100%);stroke-opacity:1;stroke-miterlimit:4;" d="M 3.075619 30.216348 L 7.196565 30.216348 L 7.196565 26.370039 L 3.076577 26.370039 L 3.076577 30.217305 Z M 3.075619 30.216348 " transform="matrix(4.076923,0,0,4.081633,0,0)"/>
<path style="fill-rule:nonzero;fill:rgb(0.784314%,43.921569%,62.352941%);fill-opacity:1;stroke-width:0.5;stroke-linecap:butt;stroke-linejoin:miter;stroke:rgb(100%,100%,100%);stroke-opacity:1;stroke-miterlimit:4;" d="M 3.075619 37.129941 L 7.196565 37.129941 L 7.196565 33.282676 L 3.076577 33.282676 L 3.076577 37.129941 Z M 3.075619 37.129941 " transform="matrix(4.076923,0,0,4.081633,0,0)"/>
<path style=" stroke:none;fill-rule:nonzero;fill:rgb(0.784314%,43.921569%,62.352941%);fill-opacity:1;" d="M 12.539062 179.769531 L 29.339844 179.769531 L 29.339844 164.085938 L 12.542969 164.085938 L 12.542969 179.769531 Z M 12.539062 179.769531 "/>
<path style="fill:none;stroke-width:0.5;stroke-linecap:butt;stroke-linejoin:miter;stroke:rgb(100%,100%,100%);stroke-opacity:1;stroke-miterlimit:4;" d="M 3.075619 44.043535 L 7.196565 44.043535 L 7.196565 40.202012 L 3.076577 40.202012 L 3.076577 44.043535 Z M 3.075619 44.043535 " transform="matrix(4.076923,0,0,4.081633,0,0)"/>
<path style="fill-rule:nonzero;fill:rgb(0.784314%,43.921569%,62.352941%);fill-opacity:1;stroke-width:0.5;stroke-linecap:butt;stroke-linejoin:miter;stroke:rgb(100%,100%,100%);stroke-opacity:1;stroke-miterlimit:4;" d="M 9.179909 30.216348 L 13.305646 30.216348 L 13.305646 26.370039 L 9.179909 26.370039 L 9.179909 30.217305 Z M 9.179909 30.216348 " transform="matrix(4.076923,0,0,4.081633,0,0)"/>
<path style="fill-rule:nonzero;fill:rgb(0.784314%,43.921569%,62.352941%);fill-opacity:1;stroke-width:0.5;stroke-linecap:butt;stroke-linejoin:miter;stroke:rgb(100%,100%,100%);stroke-opacity:1;stroke-miterlimit:4;" d="M 9.179909 37.129941 L 13.305646 37.129941 L 13.305646 33.282676 L 9.179909 33.282676 Z M 9.179909 37.129941 " transform="matrix(4.076923,0,0,4.081633,0,0)"/>
<path style=" stroke:none;fill-rule:nonzero;fill:rgb(0.784314%,43.921569%,62.352941%);fill-opacity:1;" d="M 37.425781 179.769531 L 54.246094 179.769531 L 54.246094 164.085938 L 37.425781 164.085938 Z M 37.425781 179.769531 "/>
<path style="fill:none;stroke-width:0.5;stroke-linecap:butt;stroke-linejoin:miter;stroke:rgb(100%,100%,100%);stroke-opacity:1;stroke-miterlimit:4;" d="M 9.179909 44.043535 L 13.305646 44.043535 L 13.305646 40.202012 L 9.179909 40.202012 Z M 9.179909 44.043535 " transform="matrix(4.076923,0,0,4.081633,0,0)"/>
<path style="fill-rule:nonzero;fill:rgb(0.784314%,43.921569%,62.352941%);fill-opacity:1;stroke-width:0.5;stroke-linecap:butt;stroke-linejoin:miter;stroke:rgb(100%,100%,100%);stroke-opacity:1;stroke-miterlimit:4;" d="M 56.572229 30.216348 L 60.699882 30.216348 L 60.699882 26.370039 L 56.573187 26.370039 L 56.573187 30.217305 Z M 56.572229 30.216348 " transform="matrix(4.076923,0,0,4.081633,0,0)"/>
<path style="fill-rule:nonzero;fill:rgb(0.784314%,43.921569%,62.352941%);fill-opacity:1;stroke-width:0.5;stroke-linecap:butt;stroke-linejoin:miter;stroke:rgb(100%,100%,100%);stroke-opacity:1;stroke-miterlimit:4;" d="M 56.572229 37.129941 L 60.699882 37.129941 L 60.699882 33.282676 L 56.573187 33.282676 L 56.573187 37.129941 Z M 56.572229 37.129941 " transform="matrix(4.076923,0,0,4.081633,0,0)"/>
<path style=" stroke:none;fill-rule:nonzero;fill:rgb(0.784314%,43.921569%,62.352941%);fill-opacity:1;" d="M 230.640625 179.769531 L 247.46875 179.769531 L 247.46875 164.085938 L 230.644531 164.085938 L 230.644531 179.769531 Z M 230.640625 179.769531 "/>
<path style="fill:none;stroke-width:0.5;stroke-linecap:butt;stroke-linejoin:miter;stroke:rgb(100%,100%,100%);stroke-opacity:1;stroke-miterlimit:4;" d="M 56.572229 44.043535 L 60.699882 44.043535 L 60.699882 40.202012 L 56.573187 40.202012 L 56.573187 44.043535 Z M 56.572229 44.043535 " transform="matrix(4.076923,0,0,4.081633,0,0)"/>
<path style="fill-rule:nonzero;fill:rgb(0.784314%,43.921569%,62.352941%);fill-opacity:1;stroke-width:0.5;stroke-linecap:butt;stroke-linejoin:miter;stroke:rgb(100%,100%,100%);stroke-opacity:1;stroke-miterlimit:4;" d="M 50.464107 30.216348 L 54.589844 30.216348 L 54.589844 26.370039 L 50.464107 26.370039 L 50.464107 30.217305 Z M 50.464107 30.216348 " transform="matrix(4.076923,0,0,4.081633,0,0)"/>
<path style="fill-rule:nonzero;fill:rgb(0.784314%,43.921569%,62.352941%);fill-opacity:1;stroke-width:0.5;stroke-linecap:butt;stroke-linejoin:miter;stroke:rgb(100%,100%,100%);stroke-opacity:1;stroke-miterlimit:4;" d="M 50.464107 37.129941 L 54.589844 37.129941 L 54.589844 33.282676 L 50.464107 33.282676 Z M 50.464107 37.129941 " transform="matrix(4.076923,0,0,4.081633,0,0)"/>
<path style=" stroke:none;fill-rule:nonzero;fill:rgb(0.784314%,43.921569%,62.352941%);fill-opacity:1;" d="M 205.738281 179.769531 L 222.558594 179.769531 L 222.558594 164.085938 L 205.738281 164.085938 Z M 205.738281 179.769531 "/>
<path style="fill:none;stroke-width:0.5;stroke-linecap:butt;stroke-linejoin:miter;stroke:rgb(100%,100%,100%);stroke-opacity:1;stroke-miterlimit:4;" d="M 50.464107 44.043535 L 54.589844 44.043535 L 54.589844 40.202012 L 50.464107 40.202012 Z M 50.464107 44.043535 " transform="matrix(4.076923,0,0,4.081633,0,0)"/>
<path style=" stroke:none;fill-rule:nonzero;fill:rgb(0.784314%,43.921569%,62.352941%);fill-opacity:1;" d="M 191.347656 125.78125 L 130.707031 105.894531 L 70.054688 125.78125 L 191.34375 125.78125 "/>
<path style="fill:none;stroke-width:0.5;stroke-linecap:butt;stroke-linejoin:miter;stroke:rgb(100%,100%,100%);stroke-opacity:1;stroke-miterlimit:4;" d="M 46.934331 30.816406 L 32.060215 25.94416 L 17.183225 30.816406 Z M 46.934331 30.816406 " transform="matrix(4.076923,0,0,4.081633,0,0)"/>
<path style=" stroke:none;fill-rule:nonzero;fill:rgb(0.784314%,43.921569%,62.352941%);fill-opacity:1;" d="M 64.019531 84.6875 L 197.238281 84.6875 L 197.238281 76.617188 L 64.019531 76.617188 L 64.019531 84.691406 Z M 64.019531 84.6875 "/>
<path style="fill:none;stroke-width:0.5;stroke-linecap:butt;stroke-linejoin:miter;stroke:rgb(100%,100%,100%);stroke-opacity:1;stroke-miterlimit:4;" d="M 15.702904 20.746523 L 48.379201 20.746523 L 48.379201 18.770254 L 15.702904 18.770254 Z M 15.702904 20.746523 " transform="matrix(4.076923,0,0,4.081633,0,0)"/>
<path style=" stroke:none;fill-rule:nonzero;fill:rgb(0.784314%,43.921569%,62.352941%);fill-opacity:1;" d="M 77.753906 192.722656 L 87.949219 192.722656 L 87.949219 125.757812 L 77.753906 125.757812 Z M 77.753906 192.722656 "/>
<path style="fill:none;stroke-width:0.5;stroke-linecap:butt;stroke-linejoin:miter;stroke:rgb(100%,100%,100%);stroke-opacity:1;stroke-miterlimit:4;" d="M 19.071713 47.218008 L 21.57245 47.218008 L 21.57245 30.811621 L 19.071713 30.811621 Z M 19.071713 47.218008 " transform="matrix(4.076923,0,0,4.081633,0,0)"/>
<path style=" stroke:none;fill-rule:nonzero;fill:rgb(0.784314%,43.921569%,62.352941%);fill-opacity:1;" d="M 173.308594 192.722656 L 183.503906 192.722656 L 183.503906 125.757812 L 173.308594 125.757812 Z M 173.308594 192.722656 "/>
<path style="fill:none;stroke-width:0.5;stroke-linecap:butt;stroke-linejoin:miter;stroke:rgb(100%,100%,100%);stroke-opacity:1;stroke-miterlimit:4;" d="M 42.509655 47.218008 L 45.010392 47.218008 L 45.010392 30.811621 L 42.509655 30.811621 Z M 42.509655 47.218008 " transform="matrix(4.076923,0,0,4.081633,0,0)"/>
</g>
</svg>
