<?xml version="1.0" encoding="UTF-8"?>
<svg xmlns="http://www.w3.org/2000/svg" xmlns:xlink="http://www.w3.org/1999/xlink" width="308pt" height="200pt" viewBox="0 0 308 200" version="1.1">
<g id="surface1">
<path style=" stroke:none;fill-rule:nonzero;fill:rgb(3.137255%,48.235294%,73.333333%);fill-opacity:1;" d="M 40.132812 189.8125 L 254.972656 189.8125 L 254.972656 40.175781 L 40.132812 40.175781 Z M 40.132812 189.8125 "/>
<path style="fill:none;stroke-width:0.5;stroke-linecap:butt;stroke-linejoin:miter;stroke:rgb(100%,100%,100%);stroke-opacity:1;stroke-miterlimit:4;" d="M 7.036272 33.217871 L 44.702998 33.217871 L 44.702998 7.032129 L 7.036272 7.032129 Z M 7.036272 33.217871 " transform="matrix(5.703704,0,0,5.714286,0,0)"/>
<path style=" stroke:none;fill-rule:nonzero;fill:rgb(3.137255%,48.235294%,73.333333%);fill-opacity:1;" d="M 254.972656 40.175781 L 295.9375 6.367188 L 95.546875 6.367188 L 40.132812 40.171875 L 254.972656 40.171875 "/>
<path style="fill:none;stroke-width:0.5;stroke-linecap:butt;stroke-linejoin:miter;stroke:rgb(100%,100%,100%);stroke-opacity:1;stroke-miterlimit:4;" d="M 44.702998 7.032129 L 51.885146 1.114258 L 16.751725 1.114258 L 7.036272 7.032129 Z M 44.702998 7.032129 " transform="matrix(5.703704,0,0,5.714286,0,0)"/>
<path style=" stroke:none;fill-rule:nonzero;fill:rgb(3.137255%,48.235294%,73.333333%);fill-opacity:1;" d="M 295.9375 156.027344 L 295.9375 6.367188 L 254.972656 40.171875 L 254.972656 189.828125 L 295.9375 156.035156 "/>
<path style="fill:none;stroke-width:0.5;stroke-linecap:butt;stroke-linejoin:miter;stroke:rgb(100%,100%,100%);stroke-opacity:1;stroke-miterlimit:4;" d="M 51.885146 27.304785 L 51.885146 1.114941 L 44.702998 7.032129 L 44.702998 33.217871 Z M 51.885146 27.304785 " transform="matrix(5.703704,0,0,5.714286,0,0)"/>
<path style="fill:none;stroke-width:1;stroke-linecap:butt;stroke-linejoin:miter;stroke:rgb(100%,100%,100%);stroke-opacity:1;stroke-dasharray:20,20;stroke-miterlimit:4;" d="M 43.144937 15.157324 L 7.499924 15.157324 " transform="matrix(5.703704,0,0,5.714286,0,0)"/>
<path style=" stroke:none;fill-rule:nonzero;fill:rgb(100%,100%,100%);fill-opacity:1;" d="M 251.480469 86.605469 L 220.550781 99.273438 L 227.898438 86.605469 L 220.550781 73.941406 L 251.480469 86.605469 "/>
<path style="fill:none;stroke-width:1;stroke-linecap:butt;stroke-linejoin:round;stroke:rgb(85.098039%,85.098039%,85.098039%);stroke-opacity:1;stroke-dasharray:20,20;stroke-miterlimit:4;" d="M 31.800883 28.004102 L 36.811333 24.190332 L 7.425959 24.01875 " transform="matrix(5.703704,0,0,5.714286,0,0)"/>
<path style=" stroke:none;fill-rule:nonzero;fill:rgb(85.098039%,85.098039%,85.098039%);fill-opacity:1;" d="M 162.390625 175.921875 L 177.960938 146.292969 L 180.472656 160.714844 L 194.226562 165.6875 L 162.390625 175.921875 "/>
<path style="fill:none;stroke-width:0.625;stroke-linecap:butt;stroke-linejoin:miter;stroke:rgb(100%,100%,100%);stroke-opacity:1;stroke-miterlimit:4;" d="M 39.565163 26.543945 L 39.565163 9.780176 L 34.966315 13.565234 L 34.966315 30.32832 Z M 15.399807 26.543945 L 15.399807 9.780176 L 10.800274 13.565234 L 10.800274 30.32832 L 15.399122 26.543945 Z M 27.480088 26.543945 L 27.480088 9.780176 L 22.886034 13.565234 L 22.886034 30.32832 Z M 27.480088 26.543945 " transform="matrix(5.703704,0,0,5.714286,0,0)"/>
<path style="fill:none;stroke-width:1;stroke-linecap:butt;stroke-linejoin:miter;stroke:rgb(0%,0%,0%);stroke-opacity:1;stroke-dasharray:20,20;stroke-miterlimit:4;" d="M 7.09517 15.19082 L 0 15.19082 " transform="matrix(5.703704,0,0,5.714286,0,0)"/>
<path style="fill:none;stroke-width:1;stroke-linecap:butt;stroke-linejoin:miter;stroke:rgb(85.098039%,85.098039%,85.098039%);stroke-opacity:1;stroke-dasharray:20,20;stroke-miterlimit:4;" d="M 7.09517 24.145898 L 0 24.145898 " transform="matrix(5.703704,0,0,5.714286,0,0)"/>
<path style="fill:none;stroke-width:1;stroke-linecap:butt;stroke-linejoin:miter;stroke:rgb(54.901961%,54.901961%,54.901961%);stroke-opacity:1;stroke-dasharray:20,20;stroke-miterlimit:4;" d="M 7.09517 24.208789 L 0 24.208789 " transform="matrix(5.703704,0,0,5.714286,0,0)"/>
</g>
</svg>
