<?xml version="1.0" encoding="UTF-8"?>
<svg xmlns="http://www.w3.org/2000/svg" xmlns:xlink="http://www.w3.org/1999/xlink" width="328pt" height="200pt" viewBox="0 0 328 200" version="1.1">
<defs>
<clipPath id="clip1">
  <path d="M 295 1.359375 L 328 1.359375 L 328 189.601562 L 295 189.601562 Z M 295 1.359375 "/>
</clipPath>
<clipPath id="clip2">
  <path d="M 1 15 L 282 15 L 282 189.601562 L 1 189.601562 Z M 1 15 "/>
</clipPath>
<clipPath id="clip3">
  <path d="M 0 1.359375 L 328 1.359375 L 328 45 L 0 45 Z M 0 1.359375 "/>
</clipPath>
</defs>
<g id="surface1">
<path style=" stroke:none;fill-rule:nonzero;fill:rgb(0.784314%,43.921569%,62.352941%);fill-opacity:1;" d="M 335.804688 172.476562 L 335.804688 6.4375 L 319.152344 21.070312 L 319.152344 187.097656 L 335.804688 172.476562 "/>
<g clip-path="url(#clip1)" clip-rule="nonzero">
<path style="fill:none;stroke-width:4;stroke-linecap:butt;stroke-linejoin:miter;stroke:rgb(100%,100%,100%);stroke-opacity:1;stroke-miterlimit:4;" d="M 322.889123 26.464844 L 322.889123 186.117788 L 306.877254 172.047776 L 306.877254 12.4061 Z M 322.889123 26.464844 " transform="matrix(1.04,0,0,-1.04,0,200)"/>
</g>
<path style="fill-rule:nonzero;fill:rgb(0.784314%,43.921569%,62.352941%);fill-opacity:1;stroke-width:4;stroke-linecap:butt;stroke-linejoin:miter;stroke:rgb(100%,100%,100%);stroke-opacity:1;stroke-miterlimit:4;" d="M 5.307242 12.676532 L 306.520433 12.676532 L 306.520433 171.739784 L 5.310998 171.739784 L 5.310998 12.676532 Z M 5.307242 12.676532 " transform="matrix(1.04,0,0,-1.04,0,200)"/>
<path style=" stroke:none;fill-rule:nonzero;fill:rgb(0.784314%,43.921569%,62.352941%);fill-opacity:1;" d="M 24.617188 57.671875 C 24.617188 41.058594 41.839844 38.617188 41.839844 38.617188 L 237.898438 38.617188 C 258.78125 38.617188 258.167969 58.285156 258.167969 58.285156 L 258.167969 151.144531 C 258.167969 162.84375 242.207031 167.765625 242.207031 167.765625 L 44.28125 167.765625 C 29.535156 167.765625 24.617188 152.371094 24.617188 152.371094 L 24.617188 57.671875 "/>
<g clip-path="url(#clip2)" clip-rule="nonzero">
<path style="fill:none;stroke-width:4;stroke-linecap:butt;stroke-linejoin:miter;stroke:rgb(100%,100%,100%);stroke-opacity:1;stroke-miterlimit:4;" d="M 23.670373 136.853966 C 23.670373 152.828275 40.230619 155.175781 40.230619 155.175781 L 228.748498 155.175781 C 248.828125 155.175781 248.238431 136.264273 248.238431 136.264273 L 248.238431 46.976412 C 248.238431 35.727163 232.891376 30.994591 232.891376 30.994591 L 42.578125 30.994591 C 28.399189 30.994591 23.670373 45.797025 23.670373 45.797025 Z M 23.670373 136.853966 " transform="matrix(1.04,0,0,-1.04,0,200)"/>
</g>
<path style=" stroke:none;fill-rule:nonzero;fill:rgb(0.784314%,43.921569%,62.352941%);fill-opacity:1;" d="M 335.804688 6.523438 L 22.546875 6.523438 L 5.519531 21.390625 L 318.78125 21.390625 L 335.804688 6.523438 "/>
<g clip-path="url(#clip3)" clip-rule="nonzero">
<path style="fill:none;stroke-width:4;stroke-linecap:butt;stroke-linejoin:miter;stroke:rgb(100%,100%,100%);stroke-opacity:1;stroke-miterlimit:4;" d="M 322.889123 186.035156 L 21.679687 186.035156 L 5.307242 171.739784 L 306.520433 171.739784 Z M 322.889123 186.035156 " transform="matrix(1.04,0,0,-1.04,0,200)"/>
</g>
<path style=" stroke:none;fill-rule:nonzero;fill:rgb(0.784314%,43.921569%,62.352941%);fill-opacity:1;" d="M 296.640625 55.476562 C 296.640625 58.117188 292.78125 60.226562 287.988281 60.226562 C 283.191406 60.226562 279.332031 58.117188 279.332031 55.476562 C 279.332031 52.832031 283.191406 50.722656 287.988281 50.722656 C 292.78125 50.722656 296.640625 52.832031 296.640625 55.476562 "/>
<path style="fill:none;stroke-width:4;stroke-linecap:butt;stroke-linejoin:miter;stroke:rgb(100%,100%,100%);stroke-opacity:1;stroke-miterlimit:4;" d="M 285.23137 138.964844 C 285.23137 136.425781 281.520433 134.397536 276.911809 134.397536 C 272.299429 134.397536 268.588492 136.425781 268.588492 138.964844 C 268.588492 141.507662 272.299429 143.535907 276.911809 143.535907 C 281.520433 143.535907 285.23137 141.507662 285.23137 138.964844 Z M 285.23137 138.964844 " transform="matrix(1.04,0,0,-1.04,0,200)"/>
<path style=" stroke:none;fill-rule:nonzero;fill:rgb(0.784314%,43.921569%,62.352941%);fill-opacity:1;" d="M 296.640625 90.125 C 296.640625 92.769531 292.78125 94.921875 287.988281 94.921875 C 283.191406 94.921875 279.332031 92.769531 279.332031 90.125 C 279.332031 87.484375 283.191406 85.375 287.988281 85.375 C 292.78125 85.375 296.640625 87.484375 296.640625 90.125 "/>
<path style="fill:none;stroke-width:4;stroke-linecap:butt;stroke-linejoin:miter;stroke:rgb(100%,100%,100%);stroke-opacity:1;stroke-miterlimit:4;" d="M 285.23137 105.649038 C 285.23137 103.10622 281.520433 101.036659 276.911809 101.036659 C 272.299429 101.036659 268.588492 103.10622 268.588492 105.649038 C 268.588492 108.188101 272.299429 110.216346 276.911809 110.216346 C 281.520433 110.216346 285.23137 108.188101 285.23137 105.649038 Z M 285.23137 105.649038 " transform="matrix(1.04,0,0,-1.04,0,200)"/>
<path style=" stroke:none;fill-rule:nonzero;fill:rgb(0.784314%,43.921569%,62.352941%);fill-opacity:1;" d="M 296.640625 124.824219 C 296.640625 127.421875 292.78125 129.578125 287.988281 129.578125 C 283.191406 129.578125 279.332031 127.421875 279.332031 124.824219 C 279.332031 122.179688 283.191406 120.027344 287.988281 120.027344 C 292.78125 120.027344 296.640625 122.179688 296.640625 124.824219 "/>
<path style="fill:none;stroke-width:4;stroke-linecap:butt;stroke-linejoin:miter;stroke:rgb(100%,100%,100%);stroke-opacity:1;stroke-miterlimit:4;" d="M 285.23137 72.284405 C 285.23137 69.786659 281.520433 67.713341 276.911809 67.713341 C 272.299429 67.713341 268.588492 69.786659 268.588492 72.284405 C 268.588492 74.827224 272.299429 76.896785 276.911809 76.896785 C 281.520433 76.896785 285.23137 74.827224 285.23137 72.284405 Z M 285.23137 72.284405 " transform="matrix(1.04,0,0,-1.04,0,200)"/>
<path style=" stroke:none;fill-rule:nonzero;fill:rgb(0.784314%,43.921569%,62.352941%);fill-opacity:1;" d="M 296.640625 159.476562 C 296.640625 162.117188 292.78125 164.226562 287.988281 164.226562 C 283.191406 164.226562 279.332031 162.117188 279.332031 159.476562 C 279.332031 156.832031 283.191406 154.679688 287.988281 154.679688 C 292.78125 154.679688 296.640625 156.832031 296.640625 159.476562 "/>
<path style="fill:none;stroke-width:4;stroke-linecap:butt;stroke-linejoin:miter;stroke:rgb(100%,100%,100%);stroke-opacity:1;stroke-miterlimit:4;" d="M 285.23137 38.964844 C 285.23137 36.425781 281.520433 34.397536 276.911809 34.397536 C 272.299429 34.397536 268.588492 36.425781 268.588492 38.964844 C 268.588492 41.507662 272.299429 43.577224 276.911809 43.577224 C 281.520433 43.577224 285.23137 41.507662 285.23137 38.964844 Z M 285.23137 38.964844 " transform="matrix(1.04,0,0,-1.04,0,200)"/>
</g>
</svg>
