<?xml version="1.0" encoding="UTF-8"?>
<svg xmlns="http://www.w3.org/2000/svg" xmlns:xlink="http://www.w3.org/1999/xlink" width="136pt" height="200pt" viewBox="0 0 136 200" version="1.1">
<defs>
<clipPath id="clip1">
  <path d="M 42 14 L 122 14 L 122 193.546875 L 42 193.546875 Z M 42 14 "/>
</clipPath>
<clipPath id="clip2">
  <path d="M 0 0 L 136 0 L 136 193.546875 L 0 193.546875 Z M 0 0 "/>
</clipPath>
<clipPath id="clip3">
  <path d="M 0 12 L 70 12 L 70 193.546875 L 0 193.546875 Z M 0 12 "/>
</clipPath>
</defs>
<g id="surface1">
<path style=" stroke:none;fill-rule:nonzero;fill:rgb(0.784314%,43.921569%,62.352941%);fill-opacity:1;" d="M 108.636719 27.785156 L 56.058594 27.785156 L 56.335938 185.550781 L 108.636719 185.550781 L 108.636719 27.785156 "/>
<g clip-path="url(#clip1)" clip-rule="nonzero">
<path style="fill:none;stroke-width:4;stroke-linecap:butt;stroke-linejoin:miter;stroke:rgb(100%,100%,100%);stroke-opacity:1;stroke-miterlimit:4;" d="M 184.338324 289.517428 L 95.122048 289.517428 L 95.592654 22.529447 L 184.338324 22.529447 Z M 184.338324 289.517428 " transform="matrix(0.589333,0,0,-0.590909,0,198.863636)"/>
</g>
<path style="fill-rule:nonzero;fill:rgb(0.784314%,43.921569%,62.352941%);fill-opacity:1;stroke-width:4;stroke-linecap:butt;stroke-linejoin:miter;stroke:rgb(100%,100%,100%);stroke-opacity:1;stroke-miterlimit:4;" d="M 107.768754 192.216346 L 170.73715 192.216346 L 170.73715 252.65024 L 107.768754 252.65024 Z M 107.768754 192.216346 " transform="matrix(0.589333,0,0,-0.590909,0,198.863636)"/>
<path style=" stroke:none;fill-rule:nonzero;fill:rgb(0.784314%,43.921569%,62.352941%);fill-opacity:1;" d="M 139.832031 -4 L 108.703125 28.425781 L 108.703125 185.574219 L 139.808594 148.617188 L 139.832031 -4 "/>
<g clip-path="url(#clip2)" clip-rule="nonzero">
<path style="fill:none;stroke-width:4;stroke-linecap:butt;stroke-linejoin:miter;stroke:rgb(100%,100%,100%);stroke-opacity:1;stroke-miterlimit:4;" d="M 237.271546 343.307692 L 184.451004 288.433293 L 184.451004 22.489784 L 237.231777 85.032452 Z M 17.617895 291.090745 L 90.701004 291.090745 " transform="matrix(0.589333,0,0,-0.590909,0,198.863636)"/>
</g>
<path style="fill-rule:nonzero;fill:rgb(0.784314%,43.921569%,62.352941%);fill-opacity:1;stroke-width:4;stroke-linecap:butt;stroke-linejoin:miter;stroke:rgb(100%,100%,100%);stroke-opacity:1;stroke-miterlimit:4;" d="M 105.588059 299.909255 L 139.140271 336.670673 " transform="matrix(0.589333,0,0,-0.590909,0,198.863636)"/>
<path style="fill-rule:nonzero;fill:rgb(0.784314%,43.921569%,62.352941%);fill-opacity:1;stroke-width:4;stroke-linecap:butt;stroke-linejoin:miter;stroke:rgb(100%,100%,100%);stroke-opacity:1;stroke-miterlimit:4;" d="M 92.23213 285.537861 C 92.23213 285.537861 91.801294 267.841346 59.647642 268.23137 L 2.697699 276.950721 L 2.697699 280.341947 L 82.766986 344.213341 L 236.84071 344.048077 L 184.92161 289.557091 L 95.658937 289.557091 " transform="matrix(0.589333,0,0,-0.590909,0,198.863636)"/>
<path style=" stroke:none;fill-rule:nonzero;fill:rgb(0.784314%,43.921569%,62.352941%);fill-opacity:1;" d="M 55.964844 28.332031 C 55.964844 28.332031 40.722656 37.3125 23.226562 35.285156 L 1.171875 33.417969 L 1.171875 190.832031 L 23.226562 191.785156 C 45.578125 193.722656 56.058594 185.664062 56.058594 185.664062 L 55.964844 28.332031 "/>
<g clip-path="url(#clip3)" clip-rule="nonzero">
<path style="fill:none;stroke-width:4;stroke-linecap:butt;stroke-linejoin:miter;stroke:rgb(100%,100%,100%);stroke-opacity:1;stroke-miterlimit:4;" d="M 94.96297 288.591947 C 94.96297 288.591947 69.09953 273.394231 39.411588 276.82512 L 1.988476 279.984976 L 1.988476 13.591947 L 39.411588 11.978966 C 77.338447 8.70012 95.122048 22.33774 95.122048 22.33774 Z M 18.320489 292.300481 L 91.410227 292.300481 " transform="matrix(0.589333,0,0,-0.590909,0,198.863636)"/>
</g>
<path style="fill-rule:nonzero;fill:rgb(0.784314%,43.921569%,62.352941%);fill-opacity:1;stroke-width:4;stroke-linecap:butt;stroke-linejoin:miter;stroke:rgb(100%,100%,100%);stroke-opacity:1;stroke-miterlimit:4;" d="M 112.892393 301.11899 L 152.966806 338.078726 " transform="matrix(0.589333,0,0,-0.590909,0,198.863636)"/>
</g>
</svg>
