<?xml version="1.0" encoding="UTF-8"?>
<svg xmlns="http://www.w3.org/2000/svg" xmlns:xlink="http://www.w3.org/1999/xlink" width="338pt" height="200pt" viewBox="0 0 338 200" version="1.1">
<g id="surface1">
<path style=" stroke:none;fill-rule:nonzero;fill:rgb(3.137255%,49.803922%,74.901961%);fill-opacity:1;" d="M 3.921875 87.632812 L 103.839844 6.609375 L 334.570312 6.609375 L 251.859375 87.632812 L 3.921875 87.632812 "/>
<path style="fill:none;stroke-width:0.5;stroke-linecap:butt;stroke-linejoin:miter;stroke:rgb(100%,100%,100%);stroke-opacity:1;stroke-miterlimit:4;" d="M 0.707794 15.773906 L 18.740327 1.189688 L 60.381033 1.189688 L 45.453911 15.773906 Z M 0.707794 15.773906 " transform="matrix(5.540984,0,0,5.555556,0,0)"/>
<path style=" stroke:none;fill-rule:nonzero;fill:rgb(3.137255%,49.803922%,74.901961%);fill-opacity:1;" d="M 251.859375 191.042969 L 334.570312 106.542969 L 334.570312 6.746094 L 251.859375 87.632812 L 251.859375 191.042969 "/>
<path style="fill:none;stroke-width:0.5;stroke-linecap:butt;stroke-linejoin:miter;stroke:rgb(100%,100%,100%);stroke-opacity:1;stroke-miterlimit:4;" d="M 45.453911 34.387734 L 60.381033 19.177734 L 60.381033 1.214297 L 45.453911 15.773906 Z M 45.453911 34.387734 " transform="matrix(5.540984,0,0,5.555556,0,0)"/>
<path style=" stroke:none;fill-rule:nonzero;fill:rgb(3.137255%,49.803922%,74.901961%);fill-opacity:1;" d="M 4.246094 191.117188 L 251.859375 191.117188 L 251.859375 87.632812 L 4.246094 87.632812 Z M 4.246094 191.117188 "/>
<path style="fill:none;stroke-width:0.5;stroke-linecap:butt;stroke-linejoin:miter;stroke:rgb(100%,100%,100%);stroke-opacity:1;stroke-miterlimit:4;" d="M 0.766307 34.401797 L 45.453911 34.401797 L 45.453911 15.773906 L 0.766307 15.773906 Z M 0.766307 34.401797 " transform="matrix(5.540984,0,0,5.555556,0,0)"/>
<path style=" stroke:none;fill-rule:nonzero;fill:rgb(100%,100%,100%);fill-opacity:1;" d="M 46.34375 126.148438 L 83.8125 126.148438 L 83.8125 106.59375 L 46.34375 106.59375 Z M 169.449219 126.148438 L 206.894531 126.148438 L 206.894531 106.59375 L 169.441406 106.59375 L 169.441406 126.148438 Z M 46.34375 175.035156 L 83.8125 175.035156 L 83.8125 155.476562 L 46.34375 155.476562 Z M 169.449219 175.035156 L 206.894531 175.035156 L 206.894531 155.476562 L 169.441406 155.476562 L 169.441406 175.035156 Z M 169.449219 175.035156 "/>
<path style="fill:none;stroke-width:0.5;stroke-linecap:butt;stroke-linejoin:miter;stroke:rgb(100%,100%,100%);stroke-opacity:1;stroke-miterlimit:4;" d="M 12.953899 20.950312 L 33.720322 20.950312 M 12.953899 29.7 L 33.720322 29.7 M 11.747689 29.744297 L 33.721027 20.951016 M 11.747689 20.950312 L 33.721027 29.744297 " transform="matrix(5.540984,0,0,5.555556,0,0)"/>
<path style=" stroke:none;fill-rule:nonzero;fill:rgb(100%,100%,100%);fill-opacity:1;" d="M 145.777344 22.394531 L 197.238281 17.351562 L 187.339844 33.832031 L 174.1875 31.316406 L 97.160156 60.472656 L 83.390625 56.679688 L 158.800781 27.898438 L 145.777344 22.390625 M 205.347656 40.679688 L 256.8125 35.660156 L 246.90625 52.15625 L 233.734375 49.601562 L 156.730469 78.765625 L 142.964844 74.964844 L 218.371094 46.214844 L 205.355469 40.679688 "/>
</g>
</svg>
