<?xml version="1.0" encoding="UTF-8"?>
<svg xmlns="http://www.w3.org/2000/svg" xmlns:xlink="http://www.w3.org/1999/xlink" width="254pt" height="200pt" viewBox="0 0 254 200" version="1.1">
<g id="surface1">
<path style=" stroke:none;fill-rule:nonzero;fill:rgb(3.137255%,49.803922%,74.901961%);fill-opacity:1;" d="M 3.414062 124.359375 L 189.328125 124.359375 L 189.328125 63.957031 L 3.410156 63.957031 L 3.410156 124.363281 Z M 3.414062 124.359375 "/>
<path style="fill:none;stroke-width:0.5;stroke-linecap:butt;stroke-linejoin:miter;stroke:rgb(100%,100%,100%);stroke-opacity:1;stroke-miterlimit:4;" d="M 0.819913 29.84625 L 45.468565 29.84625 L 45.468565 15.347812 L 0.818975 15.347812 L 0.818975 29.84625 Z M 0.819913 29.84625 " transform="matrix(4.163934,0,0,4.166667,0,0)"/>
<path style=" stroke:none;fill-rule:nonzero;fill:rgb(3.137255%,49.803922%,74.901961%);fill-opacity:1;" d="M 2.925781 64.253906 L 78.03125 3.367188 L 251.523438 3.367188 L 189.167969 64.25 L 2.925781 64.25 "/>
<path style="fill:none;stroke-width:0.5;stroke-linecap:butt;stroke-linejoin:miter;stroke:rgb(100%,100%,100%);stroke-opacity:1;stroke-miterlimit:4;" d="M 0.702648 15.42 L 18.739788 0.808125 L 60.405235 0.808125 L 45.430103 15.420937 L 0.702648 15.420937 Z M 0.702648 15.42 " transform="matrix(4.163934,0,0,4.166667,0,0)"/>
<path style=" stroke:none;fill-rule:nonzero;fill:rgb(3.137255%,49.803922%,74.901961%);fill-opacity:1;" d="M 189.226562 126.246094 L 251.335938 62.855469 L 251.375 3.460938 L 189.222656 64.175781 L 189.222656 126.25 "/>
<path style="fill:none;stroke-width:0.5;stroke-linecap:butt;stroke-linejoin:miter;stroke:rgb(100%,100%,100%);stroke-opacity:1;stroke-miterlimit:4;" d="M 45.444174 30.3 L 60.360205 15.084375 L 60.369587 0.831562 L 45.443236 15.402188 L 45.443236 30.3 Z M 45.444174 30.3 " transform="matrix(4.163934,0,0,4.166667,0,0)"/>
<path style=" stroke:none;fill-rule:nonzero;fill:rgb(47.058824%,70.980392%,86.666667%);fill-opacity:1;" d="M 3.414062 188.261719 L 189.328125 188.261719 L 189.328125 122.972656 L 3.410156 122.972656 L 3.410156 188.261719 Z M 3.414062 188.261719 "/>
<path style="fill:none;stroke-width:0.5;stroke-linecap:butt;stroke-linejoin:miter;stroke:rgb(100%,100%,100%);stroke-opacity:1;stroke-miterlimit:4;" d="M 0.819913 45.181875 L 45.468565 45.181875 L 45.468565 29.513437 L 0.818975 29.513437 L 0.818975 45.182812 Z M 0.819913 45.181875 " transform="matrix(4.163934,0,0,4.166667,0,0)"/>
<path style=" stroke:none;fill-rule:nonzero;fill:rgb(47.058824%,70.980392%,86.666667%);fill-opacity:1;" d="M 189.226562 190.148438 L 251.335938 126.753906 L 251.375 62.484375 L 189.222656 123.195312 L 189.222656 190.152344 "/>
<path style="fill:none;stroke-width:0.5;stroke-linecap:butt;stroke-linejoin:miter;stroke:rgb(100%,100%,100%);stroke-opacity:1;stroke-miterlimit:4;" d="M 45.444174 45.635625 L 60.360205 30.42 L 60.369587 14.99625 L 45.443236 29.565938 L 45.443236 45.634687 Z M 45.444174 45.635625 " transform="matrix(4.163934,0,0,4.166667,0,0)"/>
<path style=" stroke:none;fill-rule:nonzero;fill:rgb(100%,100%,100%);fill-opacity:1;" d="M 136.746094 29.183594 L 148.21875 32.066406 L 179.710938 23.398438 L 191.179688 26.292969 L 185.445312 17.625 L 148.21875 17.625 L 165.394531 20.515625 L 136.746094 29.183594 M 70.851562 20.515625 L 82.320312 17.625 L 113.835938 26.292969 L 125.28125 23.398438 L 119.550781 32.066406 L 82.320312 32.066406 L 99.503906 29.183594 L 70.859375 20.515625 M 188.3125 49.421875 L 176.863281 52.3125 L 148.21875 43.625 L 133.886719 46.539062 L 139.617188 37.851562 L 176.863281 37.851562 L 162.535156 40.753906 L 188.3125 49.421875 M 122.417969 40.753906 L 110.96875 37.851562 L 82.320312 46.539062 L 67.988281 43.625 L 73.722656 52.417969 L 110.96875 52.785156 L 93.773438 49.421875 L 122.417969 40.753906 M 96.878906 115.933594 C 109.425781 115.933594 119.59375 112.835938 119.59375 109.039062 C 119.59375 105.230469 109.425781 102.160156 96.878906 102.160156 C 84.335938 102.160156 74.171875 105.230469 74.171875 109.039062 C 74.171875 112.835938 84.332031 115.933594 96.878906 115.933594 "/>
<path style="fill:none;stroke-width:0.375;stroke-linecap:round;stroke-linejoin:round;stroke:rgb(13.72549%,12.156863%,12.54902%);stroke-opacity:1;stroke-miterlimit:4;" d="M 23.266194 27.823125 C 26.27942 27.823125 28.721334 27.081563 28.721334 26.169375 C 28.721334 25.25625 26.27942 24.519375 23.266194 24.519375 C 20.253906 24.519375 17.812931 25.25625 17.812931 26.169375 C 17.812931 27.081563 20.252968 27.823125 23.266194 27.823125 Z M 23.266194 27.823125 " transform="matrix(4.163934,0,0,4.166667,0,0)"/>
<path style=" stroke:none;fill-rule:nonzero;fill:rgb(100%,100%,100%);fill-opacity:1;" d="M 119.59375 77.179688 C 119.59375 80.980469 109.425781 84.054688 96.878906 84.054688 C 84.335938 84.054688 74.171875 80.980469 74.171875 77.179688 L 74.171875 105.652344 C 74.171875 109.464844 84.332031 112.558594 96.878906 112.558594 C 109.425781 112.558594 119.59375 109.464844 119.59375 105.652344 L 119.59375 77.179688 "/>
<path style="fill:none;stroke-width:0.375;stroke-linecap:round;stroke-linejoin:round;stroke:rgb(13.72549%,12.156863%,12.54902%);stroke-opacity:1;stroke-miterlimit:4;" d="M 28.721334 18.522187 C 28.721334 19.435312 26.27942 20.172187 23.266194 20.172187 C 20.253906 20.172187 17.812931 19.435312 17.812931 18.522187 L 17.812931 25.358437 C 17.812931 26.270625 20.252968 27.013125 23.266194 27.013125 C 26.27942 27.013125 28.721334 26.270625 28.721334 25.358437 Z M 28.721334 18.522187 " transform="matrix(4.163934,0,0,4.166667,0,0)"/>
<path style=" stroke:none;fill-rule:nonzero;fill:rgb(100%,100%,100%);fill-opacity:1;" d="M 96.855469 84.050781 C 109.40625 84.050781 119.570312 80.980469 119.570312 77.175781 C 119.570312 73.371094 109.40625 70.273438 96.855469 70.273438 C 84.316406 70.273438 74.128906 73.371094 74.128906 77.175781 C 74.128906 80.980469 84.316406 84.050781 96.855469 84.050781 "/>
<path style="fill:none;stroke-width:0.375;stroke-linecap:round;stroke-linejoin:round;stroke:rgb(13.72549%,12.156863%,12.54902%);stroke-opacity:1;stroke-miterlimit:4;" d="M 23.260565 20.172187 C 26.274729 20.172187 28.715705 19.435312 28.715705 18.522187 C 28.715705 17.608125 26.274729 16.866563 23.260565 16.866563 C 20.249216 16.866563 17.802611 17.608125 17.802611 18.522187 C 17.802611 19.435312 20.249216 20.172187 23.260565 20.172187 Z M 23.260565 20.172187 " transform="matrix(4.163934,0,0,4.166667,0,0)"/>
<path style="fill:none;stroke-width:0.5;stroke-linecap:round;stroke-linejoin:round;stroke:rgb(100%,100%,100%);stroke-opacity:1;stroke-miterlimit:4;" d="M 0.819913 29.766562 L 45.474194 29.766562 " transform="matrix(4.163934,0,0,4.166667,0,0)"/>
<path style=" stroke:none;fill-rule:nonzero;fill:rgb(100%,100%,100%);fill-opacity:1;" d="M 74.660156 154.503906 L 39.890625 154.503906 L 39.890625 151.332031 L 26.757812 156.027344 L 39.890625 160.738281 L 39.890625 157.539062 L 74.660156 157.539062 L 74.660156 154.503906 M 94.339844 164.515625 L 94.339844 176.839844 L 85.351562 176.839844 L 98.585938 181.503906 L 111.824219 176.839844 L 102.863281 176.839844 L 102.863281 164.515625 L 94.339844 164.515625 M 94.339844 147.894531 L 94.339844 135.566406 L 85.351562 135.566406 L 98.585938 130.902344 L 111.824219 135.570312 L 102.863281 135.570312 L 102.863281 147.894531 L 94.339844 147.894531 M 122.519531 157.539062 L 157.308594 157.539062 L 157.308594 160.734375 L 170.421875 156.027344 L 157.304688 151.332031 L 157.304688 154.503906 L 122.519531 154.503906 L 122.519531 157.539062 "/>
<path style="fill:none;stroke-width:0.5;stroke-linecap:butt;stroke-linejoin:miter;stroke:rgb(100%,100%,100%);stroke-opacity:1;stroke-miterlimit:4;" d="M 37.119341 42.197812 C 35.550812 42.790312 28.345149 41.173125 21.028789 38.599688 C 13.716182 36.021563 9.05844 33.458438 10.625092 32.871562 C 12.191745 32.281875 19.400221 33.898125 26.713767 36.470625 C 34.029189 39.049687 38.685993 41.612812 37.119341 42.197812 Z M 37.119341 42.197812 " transform="matrix(4.163934,0,0,4.166667,0,0)"/>
<path style="fill:none;stroke-width:0.5;stroke-linecap:butt;stroke-linejoin:miter;stroke:rgb(100%,100%,100%);stroke-opacity:1;stroke-miterlimit:4;" d="M 36.699065 32.822812 C 38.354838 33.380625 33.804042 35.935313 26.53834 38.526562 C 19.267947 41.119687 12.036017 42.774375 10.381182 42.218438 C 8.725409 41.661562 13.270577 39.107813 20.541908 36.514688 C 27.807609 33.921563 35.04423 32.271563 36.699065 32.822812 Z M 36.699065 32.822812 " transform="matrix(4.163934,0,0,4.166667,0,0)"/>
<path style=" stroke:none;fill-rule:nonzero;fill:rgb(67.45098%,81.568627%,91.764706%);fill-opacity:1;" d="M 112.863281 163.191406 C 124.351562 160.339844 127.136719 154.730469 119.101562 150.664062 C 111.050781 146.574219 95.210938 145.589844 83.722656 148.441406 C 72.238281 151.292969 69.453125 156.910156 77.507812 160.976562 C 85.535156 165.066406 101.375 166.042969 112.863281 163.191406 "/>
<path style="fill:none;stroke-width:0.5;stroke-linecap:butt;stroke-linejoin:miter;stroke:rgb(100%,100%,100%);stroke-opacity:1;stroke-miterlimit:4;" d="M 27.104961 39.166875 C 29.863958 38.483438 30.532834 37.13625 28.603131 36.158437 C 26.669676 35.177813 22.865619 34.943438 20.106622 35.625937 C 17.348564 36.310313 16.679688 37.658437 18.614081 38.635312 C 20.541908 39.615 24.345965 39.850313 27.104961 39.166875 Z M 27.104961 39.166875 " transform="matrix(4.163934,0,0,4.166667,0,0)"/>
</g>
</svg>
