<?xml version="1.0" encoding="UTF-8"?>
<svg xmlns="http://www.w3.org/2000/svg" xmlns:xlink="http://www.w3.org/1999/xlink" width="428pt" height="200pt" viewBox="0 0 428 200" version="1.1">
<g id="surface1">
<path style="fill:none;stroke-width:1.875;stroke-linecap:butt;stroke-linejoin:miter;stroke:rgb(69.803922%,69.803922%,69.803922%);stroke-opacity:1;stroke-miterlimit:4;" d="M 7.969024 7.636016 C 9.514639 7.634375 10.766738 6.380391 10.765917 4.834648 C 10.765369 3.288906 9.512175 2.036289 7.966286 2.036016 C 6.42067 2.035742 5.167202 3.288359 5.166107 4.834102 C 5.166654 6.381758 6.421218 7.636016 7.969024 7.636016 Z M 7.969024 7.636016 " transform="matrix(14.266667,0,0,14.285714,0,0)"/>
<path style="fill:none;stroke-width:1.875;stroke-linecap:butt;stroke-linejoin:miter;stroke:rgb(69.803922%,69.803922%,69.803922%);stroke-opacity:1;stroke-miterlimit:4;" d="M 7.969024 13.076055 C 9.514366 13.076055 10.767012 11.823164 10.767012 10.277969 C 10.767012 8.732773 9.514366 7.479883 7.969024 7.479883 C 6.452705 7.520625 5.244688 8.761211 5.244688 10.277969 C 5.244688 11.794727 6.452705 13.035586 7.969024 13.076055 Z M 7.969024 13.076055 " transform="matrix(14.266667,0,0,14.285714,0,0)"/>
<path style="fill:none;stroke-width:1.875;stroke-linecap:butt;stroke-linejoin:miter;stroke:rgb(69.803922%,69.803922%,69.803922%);stroke-opacity:1;stroke-miterlimit:4;" d="M 3.828034 9.765 C 5.063979 9.763359 6.065001 8.760937 6.065001 7.525 C 6.065001 6.287422 5.061514 5.284453 3.823927 5.285 C 2.586613 5.285547 1.583948 6.289609 1.585043 7.526914 C 1.586138 8.764492 2.590446 9.766641 3.828034 9.765 Z M 10.55591 3.115 C 10.57097 4.160078 10.986054 5.097969 11.406067 6.035039 C 11.719024 6.76293 12.44597 7.388008 13.275865 7.7 " transform="matrix(14.266667,0,0,14.285714,0,0)"/>
<path style="fill:none;stroke-width:1.875;stroke-linecap:butt;stroke-linejoin:miter;stroke:rgb(69.803922%,69.803922%,69.803922%);stroke-opacity:1;stroke-miterlimit:4;" d="M 10.55591 12.178086 C 10.57097 11.13793 10.986054 10.200039 11.406067 9.262969 C 11.719024 8.535078 12.44597 7.91 13.275865 7.598008 " transform="matrix(14.266667,0,0,14.285714,0,0)"/>
<path style="fill:none;stroke-width:1.875;stroke-linecap:butt;stroke-linejoin:miter;stroke:rgb(0.784314%,43.921569%,62.352941%);stroke-opacity:1;stroke-miterlimit:4;" d="M 7.041107 6.464883 C 8.588639 6.464883 9.843476 5.210625 9.844024 3.662969 C 9.842929 2.1175 8.589734 0.864883 7.044119 0.864883 C 5.498503 0.864883 4.245035 2.1175 4.24394 3.662969 C 4.242845 5.208711 5.494396 6.462695 7.040012 6.464883 Z M 7.041107 6.464883 " transform="matrix(14.266667,0,0,14.285714,0,0)"/>
<path style="fill:none;stroke-width:1.875;stroke-linecap:butt;stroke-linejoin:miter;stroke:rgb(0.784314%,43.921569%,62.352941%);stroke-opacity:1;stroke-miterlimit:4;" d="M 7.041107 11.904102 C 7.783933 11.905195 8.496641 11.610703 9.022342 11.085977 C 9.548043 10.56125 9.84375 9.848945 9.844024 9.106016 C 9.844024 7.559727 8.590282 6.306016 7.044119 6.306016 C 5.497682 6.306016 4.24394 7.559727 4.24394 9.106016 C 4.243392 10.651211 5.495765 11.904102 7.041107 11.904102 Z M 7.041107 11.904102 " transform="matrix(14.266667,0,0,14.285714,0,0)"/>
<path style="fill:none;stroke-width:1.875;stroke-linecap:butt;stroke-linejoin:miter;stroke:rgb(0.784314%,43.921569%,62.352941%);stroke-opacity:1;stroke-miterlimit:4;" d="M 2.900117 8.593867 C 4.119633 8.568164 5.094644 7.572305 5.094644 6.3525 C 5.094644 5.132695 4.119633 4.136836 2.900117 4.111133 C 1.661982 4.111133 0.658495 5.114648 0.658495 6.3525 C 0.658495 7.590352 1.661982 8.593867 2.900117 8.593867 Z M 9.634017 1.949062 C 9.649076 2.988945 10.063887 3.926016 10.478972 4.863906 C 10.791107 5.590977 11.524076 6.216055 12.353972 6.528867 " transform="matrix(14.266667,0,0,14.285714,0,0)"/>
<path style="fill:none;stroke-width:1.875;stroke-linecap:butt;stroke-linejoin:miter;stroke:rgb(0%,0%,0%);stroke-opacity:1;stroke-miterlimit:4;" d="M 9.634017 11.006133 C 9.649076 9.965977 10.063887 9.028906 10.478972 8.091016 C 10.791107 7.363945 11.524076 6.738867 12.353972 6.426055 " transform="matrix(14.266667,0,0,14.285714,0,0)"/>
<path style=" stroke:none;fill-rule:nonzero;fill:rgb(69.803922%,69.803922%,69.803922%);fill-opacity:1;" d="M 427.230469 133.441406 L 427.230469 91.800781 L 245.429688 91.800781 C 243.046875 81.886719 238.652344 75.199219 233.644531 75.199219 C 228.625 75.199219 224.316406 81.886719 221.859375 91.800781 L 218.808594 91.800781 C 216.523438 81.472656 212.058594 74.5 206.894531 74.5 C 201.730469 74.5 197.28125 81.472656 194.984375 91.800781 L 164.550781 91.800781 L 164.550781 126 L 195.324219 126 C 197.765625 135.542969 202.03125 141.8125 206.894531 141.8125 C 211.773438 141.8125 216.027344 135.542969 218.453125 126 L 221.875 126 C 224.300781 135.957031 228.625 142.585938 233.644531 142.585938 C 238.652344 142.585938 243.0625 135.957031 245.429688 126 L 381.535156 126 L 381.535156 192.601562 L 424.933594 192.601562 L 424.933594 176.285156 L 405.316406 176.285156 L 405.316406 164.714844 L 426.144531 164.714844 L 426.144531 148.386719 L 405.316406 148.386719 L 405.316406 133.441406 L 427.242188 133.441406 "/>
<path style=" stroke:none;fill-rule:nonzero;fill:rgb(0.784314%,43.921569%,62.352941%);fill-opacity:1;" d="M 414.074219 116.699219 L 414.074219 75.058594 L 232.175781 75.058594 C 229.820312 65.144531 225.5 58.441406 220.476562 58.441406 C 215.46875 58.441406 211.0625 65.15625 208.707031 75.058594 L 205.640625 75.058594 C 203.34375 64.730469 198.804688 57.742188 193.726562 57.742188 C 188.5625 57.742188 184.113281 64.742188 181.742188 75.058594 L 151.355469 75.058594 L 151.355469 109.230469 L 182.171875 109.230469 C 184.539062 118.785156 188.847656 125.070312 193.726562 125.070312 C 198.605469 125.070312 202.859375 118.785156 205.296875 109.230469 L 208.707031 109.230469 C 211.074219 119.230469 215.46875 125.84375 220.476562 125.84375 C 225.5 125.84375 229.820312 119.214844 232.175781 109.230469 L 368.367188 109.230469 L 368.367188 175.855469 L 411.765625 175.855469 L 411.765625 159.527344 L 392.121094 159.527344 L 392.121094 147.957031 L 412.949219 147.957031 L 412.949219 131.613281 L 392.121094 131.613281 L 392.121094 116.699219 L 414.074219 116.699219 "/>
</g>
</svg>
