<?xml version="1.0" encoding="UTF-8"?>
<svg xmlns="http://www.w3.org/2000/svg" xmlns:xlink="http://www.w3.org/1999/xlink" width="200pt" height="200pt" viewBox="0 0 200 200" version="1.1">
<g id="surface1">
<path style=" stroke:none;fill-rule:nonzero;fill:rgb(0.784314%,41.960784%,60.392157%);fill-opacity:1;" d="M 1.382812 201.390625 L 178.523438 201.390625 L 178.523438 22.753906 L 1.382812 22.753906 Z M 1.382812 201.390625 "/>
<path style="fill:none;stroke-width:0.19;stroke-linecap:butt;stroke-linejoin:miter;stroke:rgb(100%,100%,100%);stroke-opacity:1;stroke-miterlimit:4;" d="M 0.248906 36.405703 L 32.134219 36.405703 L 32.134219 4.095703 L 0.248906 4.095703 Z M 0.248906 36.405703 " transform="matrix(5.555556,0,0,5.555556,0,0)"/>
<path style="fill:none;stroke-width:1.9;stroke-linecap:butt;stroke-linejoin:miter;stroke:rgb(100%,100%,100%);stroke-opacity:1;stroke-miterlimit:4;" d="M 18.871875 8.980313 L 26.528906 8.980313 " transform="matrix(5.555556,0,0,5.555556,0,0)"/>
<path style=" stroke:none;fill-rule:nonzero;fill:rgb(100%,100%,100%);fill-opacity:1;" d="M 147.621094 41.011719 L 147.621094 58.132812 L 165.554688 49.910156 L 147.621094 41.011719 "/>
<path style="fill:none;stroke-width:0.475;stroke-linecap:butt;stroke-linejoin:miter;stroke:rgb(100%,100%,100%);stroke-opacity:1;stroke-miterlimit:4;" d="M 26.571797 7.382109 L 26.571797 10.463906 L 29.799844 8.983828 Z M 26.571797 7.382109 " transform="matrix(5.555556,0,0,5.555556,0,0)"/>
<path style="fill:none;stroke-width:1.9;stroke-linecap:butt;stroke-linejoin:miter;stroke:rgb(100%,100%,100%);stroke-opacity:1;stroke-miterlimit:4;" d="M 18.871875 22.753828 L 26.528906 22.753828 " transform="matrix(5.555556,0,0,5.555556,0,0)"/>
<path style=" stroke:none;fill-rule:nonzero;fill:rgb(100%,100%,100%);fill-opacity:1;" d="M 147.621094 117.542969 L 147.621094 134.65625 L 165.554688 126.433594 L 147.621094 117.542969 "/>
<path style="fill:none;stroke-width:0.475;stroke-linecap:butt;stroke-linejoin:miter;stroke:rgb(100%,100%,100%);stroke-opacity:1;stroke-miterlimit:4;" d="M 26.571797 21.157734 L 26.571797 24.238125 L 29.799844 22.758047 Z M 26.571797 21.157734 " transform="matrix(5.555556,0,0,5.555556,0,0)"/>
<path style="fill:none;stroke-width:1.9;stroke-linecap:butt;stroke-linejoin:miter;stroke:rgb(100%,100%,100%);stroke-opacity:1;stroke-miterlimit:4;" d="M 30.033984 29.974922 L 22.381875 29.974922 " transform="matrix(5.555556,0,0,5.555556,0,0)"/>
<path style=" stroke:none;fill-rule:nonzero;fill:rgb(100%,100%,100%);fill-opacity:1;" d="M 124.105469 175.433594 L 124.105469 158.277344 L 106.171875 166.523438 L 124.105469 175.429688 "/>
<path style="fill:none;stroke-width:0.475;stroke-linecap:butt;stroke-linejoin:miter;stroke:rgb(100%,100%,100%);stroke-opacity:1;stroke-miterlimit:4;" d="M 22.338984 31.578047 L 22.338984 28.489922 L 19.110937 29.974219 L 22.338984 31.577344 Z M 22.338984 31.578047 " transform="matrix(5.555556,0,0,5.555556,0,0)"/>
<path style="fill:none;stroke-width:1.9;stroke-linecap:butt;stroke-linejoin:miter;stroke:rgb(100%,100%,100%);stroke-opacity:1;stroke-miterlimit:4;" d="M 30.033984 16.200703 L 22.381875 16.200703 " transform="matrix(5.555556,0,0,5.555556,0,0)"/>
<path style=" stroke:none;fill-rule:nonzero;fill:rgb(100%,100%,100%);fill-opacity:1;" d="M 124.105469 98.871094 L 124.105469 81.785156 L 106.171875 90.003906 L 124.105469 98.871094 "/>
<path style="fill:none;stroke-width:0.475;stroke-linecap:butt;stroke-linejoin:miter;stroke:rgb(100%,100%,100%);stroke-opacity:1;stroke-miterlimit:4;" d="M 22.338984 17.796797 L 22.338984 14.721328 L 19.110937 16.200703 Z M 22.338984 17.796797 " transform="matrix(5.555556,0,0,5.555556,0,0)"/>
<path style="fill:none;stroke-width:0.95;stroke-linecap:butt;stroke-linejoin:miter;stroke:rgb(100%,100%,100%);stroke-opacity:1;stroke-miterlimit:4;" d="M 14.438672 16.552969 L 5.170781 16.552969 " transform="matrix(5.555556,0,0,5.555556,0,0)"/>
<path style=" stroke:none;fill-rule:nonzero;fill:rgb(100%,100%,100%);fill-opacity:1;" d="M 30.765625 97.816406 L 30.765625 86.859375 L 18.609375 92.128906 L 30.765625 97.816406 "/>
<path style="fill:none;stroke-width:0.475;stroke-linecap:butt;stroke-linejoin:miter;stroke:rgb(100%,100%,100%);stroke-opacity:1;stroke-miterlimit:4;" d="M 5.537812 17.606953 L 5.537812 15.634688 L 3.349687 16.583203 Z M 5.537812 17.606953 " transform="matrix(5.555556,0,0,5.555556,0,0)"/>
<path style="fill:none;stroke-width:0.95;stroke-linecap:butt;stroke-linejoin:miter;stroke:rgb(100%,100%,100%);stroke-opacity:1;stroke-miterlimit:4;" d="M 14.438672 30.092344 L 5.170781 30.092344 " transform="matrix(5.555556,0,0,5.555556,0,0)"/>
<path style=" stroke:none;fill-rule:nonzero;fill:rgb(100%,100%,100%);fill-opacity:1;" d="M 30.765625 173.015625 L 30.765625 162.054688 L 18.609375 167.320312 L 30.765625 173.015625 "/>
<path style="fill:none;stroke-width:0.475;stroke-linecap:butt;stroke-linejoin:miter;stroke:rgb(100%,100%,100%);stroke-opacity:1;stroke-miterlimit:4;" d="M 5.537812 31.142812 L 5.537812 29.169844 L 3.349687 30.117656 Z M 5.537812 31.142812 " transform="matrix(5.555556,0,0,5.555556,0,0)"/>
<path style="fill:none;stroke-width:0.95;stroke-linecap:butt;stroke-linejoin:miter;stroke:rgb(100%,100%,100%);stroke-opacity:1;stroke-miterlimit:4;" d="M 2.564297 22.87125 L 11.519297 22.87125 " transform="matrix(5.555556,0,0,5.555556,0,0)"/>
<path style=" stroke:none;fill-rule:nonzero;fill:rgb(100%,100%,100%);fill-opacity:1;" d="M 63.722656 121.226562 L 63.722656 132.160156 L 75.878906 126.921875 L 63.722656 121.226562 "/>
<path style="fill:none;stroke-width:0.475;stroke-linecap:butt;stroke-linejoin:miter;stroke:rgb(100%,100%,100%);stroke-opacity:1;stroke-miterlimit:4;" d="M 11.470078 21.820781 L 11.470078 23.788828 L 13.658203 22.845937 Z M 11.470078 21.820781 " transform="matrix(5.555556,0,0,5.555556,0,0)"/>
<path style="fill:none;stroke-width:0.95;stroke-linecap:butt;stroke-linejoin:miter;stroke:rgb(100%,100%,100%);stroke-opacity:1;stroke-miterlimit:4;" d="M 2.564297 9.331172 L 11.519297 9.331172 " transform="matrix(5.555556,0,0,5.555556,0,0)"/>
<path style=" stroke:none;fill-rule:nonzero;fill:rgb(100%,100%,100%);fill-opacity:1;" d="M 63.722656 46.003906 L 63.722656 56.964844 L 75.878906 51.699219 L 63.722656 46.003906 "/>
<path style="fill:none;stroke-width:0.475;stroke-linecap:butt;stroke-linejoin:miter;stroke:rgb(100%,100%,100%);stroke-opacity:1;stroke-miterlimit:4;" d="M 11.470078 8.280703 L 11.470078 10.253672 L 13.658203 9.305859 Z M 11.470078 8.280703 " transform="matrix(5.555556,0,0,5.555556,0,0)"/>
<path style=" stroke:none;fill-rule:nonzero;fill:rgb(0.784314%,41.960784%,60.392157%);fill-opacity:1;" d="M 178.140625 22.65625 L 1.523438 22.65625 L 29.246094 0.511719 L 201.035156 0.511719 L 201.035156 179.304688 L 178.390625 202.167969 L 178.390625 23.277344 L 178.140625 22.65625 "/>
<path style="fill:none;stroke-width:0.19;stroke-linecap:butt;stroke-linejoin:miter;stroke:rgb(100%,100%,100%);stroke-opacity:1;stroke-miterlimit:4;" d="M 32.065312 4.078125 L 0.274219 4.078125 L 5.264297 0.0921094 L 36.186328 0.0921094 L 36.186328 32.274844 L 32.110312 36.390234 L 32.110312 4.189922 Z M 32.065312 4.078125 " transform="matrix(5.555556,0,0,5.555556,0,0)"/>
<path style=" stroke:none;fill-rule:nonzero;fill:rgb(0.784314%,41.960784%,60.392157%);fill-opacity:1;" d="M 178.332031 22.457031 L 201.226562 0.1875 "/>
<path style="fill:none;stroke-width:0.19;stroke-linecap:butt;stroke-linejoin:miter;stroke:rgb(100%,100%,100%);stroke-opacity:1;stroke-miterlimit:4;" d="M 32.099766 4.042266 L 36.220781 0.03375 M 16.434844 36.390937 L 16.434844 4.189922 " transform="matrix(5.555556,0,0,5.555556,0,0)"/>
</g>
</svg>
