<?xml version="1.0" encoding="UTF-8"?>
<svg xmlns="http://www.w3.org/2000/svg" xmlns:xlink="http://www.w3.org/1999/xlink" width="183pt" height="200pt" viewBox="0 0 183 200" version="1.1">
<g id="surface1">
<path style=" stroke:none;fill-rule:nonzero;fill:rgb(0.784314%,43.921569%,62.352941%);fill-opacity:1;" d="M 141.992188 201.6875 C 145.8125 201.6875 148.921875 198.570312 148.921875 194.746094 L 148.921875 109.667969 C 148.921875 105.8125 145.8125 102.722656 141.992188 102.722656 L 10.285156 102.722656 C 6.449219 102.722656 3.355469 105.8125 3.355469 109.667969 L 3.355469 194.738281 C 3.355469 198.566406 6.449219 201.683594 10.285156 201.683594 L 141.992188 201.683594 "/>
<path style="fill:none;stroke-width:0.5;stroke-linecap:butt;stroke-linejoin:miter;stroke:rgb(100%,100%,100%);stroke-opacity:1;stroke-miterlimit:4;" d="M 25.605149 36.30375 C 26.294057 36.30375 26.854764 35.742656 26.854764 35.054297 L 26.854764 19.740234 C 26.854764 19.04625 26.294057 18.490078 25.605149 18.490078 L 1.8547 18.490078 C 1.162974 18.490078 0.605085 19.04625 0.605085 19.740234 L 0.605085 35.052891 C 0.605085 35.741953 1.162974 36.303047 1.8547 36.303047 L 25.605149 36.303047 Z M 25.605149 36.30375 " transform="matrix(5.545455,0,0,5.555556,0,0)"/>
<path style=" stroke:none;fill-rule:nonzero;fill:rgb(0.784314%,43.921569%,62.352941%);fill-opacity:1;" d="M 148.921875 102.539062 L 176.652344 74.761719 L 31.082031 74.761719 L 3.355469 102.539062 L 148.921875 102.539062 "/>
<path style="fill:none;stroke-width:0.5;stroke-linecap:butt;stroke-linejoin:miter;stroke:rgb(100%,100%,100%);stroke-opacity:1;stroke-miterlimit:4;" d="M 26.854764 18.457031 L 31.855341 13.457109 L 5.604956 13.457109 L 0.605085 18.457031 Z M 26.854764 18.457031 " transform="matrix(5.545455,0,0,5.555556,0,0)"/>
<path style=" stroke:none;fill-rule:nonzero;fill:rgb(0.784314%,43.921569%,62.352941%);fill-opacity:1;" d="M 176.652344 173.722656 L 176.652344 74.761719 L 148.921875 102.539062 L 148.921875 201.5 L 176.652344 173.722656 "/>
<path style="fill:none;stroke-width:0.5;stroke-linecap:butt;stroke-linejoin:miter;stroke:rgb(100%,100%,100%);stroke-opacity:1;stroke-miterlimit:4;" d="M 31.855341 31.270078 L 31.855341 13.457109 L 26.854764 18.457031 L 26.854764 36.27 Z M 31.855341 31.270078 " transform="matrix(5.545455,0,0,5.555556,0,0)"/>
<path style=" stroke:none;fill-rule:nonzero;fill:rgb(0.784314%,43.921569%,62.352941%);fill-opacity:1;" d="M 90.921875 13.617188 C 69.972656 13.617188 52.988281 30.632812 52.992188 51.621094 L 53.015625 85.398438 C 53.3125 88.082031 50.609375 90.871094 46.605469 91.304688 C 42.59375 91.714844 38.234375 89.707031 37.9375 87.023438 L 37.9375 53.496094 C 37.9375 24.714844 61.25 1.355469 89.976562 1.355469 C 118.734375 1.355469 142.019531 24.714844 142.019531 53.496094 L 142.019531 90.0625 C 141.746094 92.746094 138.851562 94.5625 134.789062 94.429688 C 131.109375 94.292969 127.757812 89.496094 128.023438 86.804688 L 128.15625 51.621094 C 128.15625 30.621094 111.886719 13.621094 90.921875 13.621094 "/>
<path style="fill:none;stroke-width:0.5;stroke-linecap:butt;stroke-linejoin:miter;stroke:rgb(100%,100%,100%);stroke-opacity:1;stroke-miterlimit:4;" d="M 16.395748 2.451094 C 12.61802 2.451094 9.555264 5.513906 9.555968 9.291797 L 9.560195 15.371719 C 9.61373 15.854766 9.126281 16.356797 8.404265 16.434844 C 7.68084 16.508672 6.894723 16.147266 6.841189 15.664219 L 6.841189 9.629297 C 6.841189 4.448672 11.045082 0.243984 16.225282 0.243984 C 21.411117 0.243984 25.610079 4.448672 25.610079 9.629297 L 25.610079 16.21125 C 25.560771 16.694297 25.038806 17.02125 24.306224 16.997344 C 23.642674 16.972734 23.038294 16.109297 23.086194 15.624844 L 23.110143 9.291797 C 23.110143 5.511797 20.176294 2.451797 16.395748 2.451797 Z M 16.395748 2.451094 " transform="matrix(5.545455,0,0,5.555556,0,0)"/>
<path style=" stroke:none;fill-rule:nonzero;fill:rgb(100%,100%,100%);fill-opacity:1;" d="M 75.949219 160.859375 C 82.527344 160.859375 87.875 153.972656 87.875 145.449219 C 87.875 136.9375 82.527344 130.050781 75.949219 130.050781 C 69.375 130.050781 64.035156 136.9375 64.035156 145.449219 C 64.035156 153.972656 69.375 160.859375 75.957031 160.859375 "/>
<path style=" stroke:none;fill-rule:nonzero;fill:rgb(100%,100%,100%);fill-opacity:1;" d="M 79.5 176.671875 L 79.5 146.40625 L 72.058594 151.855469 L 72.058594 182.15625 L 79.5 176.671875 "/>
</g>
</svg>
