<?xml version="1.0" encoding="UTF-8"?>
<svg xmlns="http://www.w3.org/2000/svg" xmlns:xlink="http://www.w3.org/1999/xlink" width="354pt" height="200pt" viewBox="0 0 354 200" version="1.1">
<g id="surface1">
<path style=" stroke:none;fill-rule:nonzero;fill:rgb(3.137255%,49.803922%,74.901961%);fill-opacity:1;" d="M 4.558594 73.304688 L 85.796875 7.472656 L 348.308594 7.472656 L 281.0625 73.304688 L 4.558594 73.304688 "/>
<path style="fill:none;stroke-width:0.5;stroke-linecap:butt;stroke-linejoin:miter;stroke:rgb(100%,100%,100%);stroke-opacity:1;stroke-miterlimit:4;" d="M 0.708256 11.362832 L 13.330023 1.158262 L 54.115742 1.158262 L 43.667903 11.362832 Z M 0.708256 11.362832 " transform="matrix(6.436364,0,0,6.451613,0,0)"/>
<path style=" stroke:none;fill-rule:nonzero;fill:rgb(3.137255%,49.803922%,74.901961%);fill-opacity:1;" d="M 281.058594 189.613281 L 348.316406 120.910156 L 348.316406 7.5625 L 281.058594 73.304688 L 281.058594 189.613281 "/>
<path style="fill:none;stroke-width:0.5;stroke-linecap:butt;stroke-linejoin:miter;stroke:rgb(100%,100%,100%);stroke-opacity:1;stroke-miterlimit:4;" d="M 43.667296 29.390059 L 54.116956 18.739863 L 54.116956 1.172793 L 43.667296 11.362832 Z M 43.667296 29.390059 " transform="matrix(6.436364,0,0,6.451613,0,0)"/>
<path style=" stroke:none;fill-rule:nonzero;fill:rgb(3.137255%,49.803922%,74.901961%);fill-opacity:1;" d="M 4.8125 189.675781 L 281.0625 189.675781 L 281.0625 73.304688 L 4.808594 73.304688 L 4.808594 189.675781 Z M 4.8125 189.675781 "/>
<path style="fill:none;stroke-width:0.5;stroke-linecap:butt;stroke-linejoin:miter;stroke:rgb(100%,100%,100%);stroke-opacity:1;stroke-miterlimit:4;" d="M 0.747705 29.399746 L 43.667903 29.399746 L 43.667903 11.362832 L 0.747098 11.362832 L 0.747098 29.399746 Z M 0.747705 29.399746 " transform="matrix(6.436364,0,0,6.451613,0,0)"/>
<path style=" stroke:none;fill-rule:nonzero;fill:rgb(3.137255%,49.803922%,74.901961%);fill-opacity:1;" d="M 200.503906 115.773438 C 200.503906 126.929688 177.316406 135.96875 148.710938 135.96875 C 120.121094 135.96875 96.925781 126.929688 96.925781 115.773438 L 96.925781 145.355469 C 96.925781 156.507812 120.121094 165.546875 148.710938 165.546875 C 177.316406 165.546875 200.503906 156.507812 200.503906 145.355469 L 200.503906 115.773438 "/>
<path style="fill:none;stroke-width:0.5;stroke-linecap:butt;stroke-linejoin:miter;stroke:rgb(100%,100%,100%);stroke-opacity:1;stroke-miterlimit:4;" d="M 31.151737 17.944883 C 31.151737 19.672891 27.549159 21.075156 23.104807 21.075156 C 18.662882 21.075156 15.05909 19.672891 15.05909 17.944883 L 15.05909 22.530098 C 15.05909 24.258105 18.662882 25.659766 23.104807 25.659766 C 27.549159 25.659766 31.151737 24.258105 31.151737 22.530098 Z M 31.151737 17.944883 " transform="matrix(6.436364,0,0,6.451613,0,0)"/>
<path style=" stroke:none;fill-rule:nonzero;fill:rgb(3.137255%,49.803922%,74.901961%);fill-opacity:1;" d="M 148.710938 135.96875 C 177.316406 135.96875 200.503906 126.929688 200.503906 115.773438 C 200.503906 104.621094 177.316406 95.582031 148.710938 95.582031 C 120.121094 95.582031 96.925781 104.621094 96.925781 115.773438 C 96.925781 126.929688 120.121094 135.96875 148.710938 135.96875 "/>
<path style="fill:none;stroke-width:0.5;stroke-linecap:butt;stroke-linejoin:miter;stroke:rgb(100%,100%,100%);stroke-opacity:1;stroke-miterlimit:4;" d="M 23.104807 21.075156 C 27.549159 21.075156 31.151737 19.672891 31.151737 17.944883 C 31.151737 16.21627 27.549159 14.815215 23.104807 14.815215 C 18.662882 14.815215 15.05909 16.21627 15.05909 17.944883 C 15.05909 19.672891 18.662882 21.075156 23.104807 21.075156 Z M 23.104807 21.075156 " transform="matrix(6.436364,0,0,6.451613,0,0)"/>
<path style="fill:none;stroke-width:1;stroke-linecap:butt;stroke-linejoin:miter;stroke:rgb(100%,100%,100%);stroke-opacity:1;stroke-miterlimit:4;" d="M 10.708201 14.961133 L 0.938272 14.961133 " transform="matrix(6.436364,0,0,6.451613,0,0)"/>
<path style=" stroke:none;fill-rule:nonzero;fill:rgb(100%,100%,100%);fill-opacity:1;" d="M 91.453125 96.523438 L 53.265625 112.15625 L 62.324219 96.523438 L 53.265625 80.902344 L 91.453125 96.523438 "/>
<path style="fill:none;stroke-width:1;stroke-linecap:butt;stroke-linejoin:miter;stroke:rgb(100%,100%,100%);stroke-opacity:1;stroke-miterlimit:4;" d="M 10.708201 20.209941 L 0.938272 20.209941 " transform="matrix(6.436364,0,0,6.451613,0,0)"/>
<path style=" stroke:none;fill-rule:nonzero;fill:rgb(100%,100%,100%);fill-opacity:1;" d="M 91.453125 130.386719 L 53.265625 146.011719 L 62.324219 130.386719 L 53.265625 114.769531 L 91.453125 130.386719 "/>
<path style="fill:none;stroke-width:1;stroke-linecap:butt;stroke-linejoin:miter;stroke:rgb(100%,100%,100%);stroke-opacity:1;stroke-miterlimit:4;" d="M 40.135726 20.209941 L 35.585772 20.209941 " transform="matrix(6.436364,0,0,6.451613,0,0)"/>
<path style=" stroke:none;fill-rule:nonzero;fill:rgb(100%,100%,100%);fill-opacity:1;" d="M 276.378906 130.386719 L 245.832031 142.898438 L 253.050781 130.386719 L 245.832031 117.882812 L 276.378906 130.386719 "/>
<path style="fill:none;stroke-width:1;stroke-linecap:butt;stroke-linejoin:miter;stroke:rgb(100%,100%,100%);stroke-opacity:1;stroke-miterlimit:4;" d="M 10.708201 25.45875 L 0.938272 25.45875 " transform="matrix(6.436364,0,0,6.451613,0,0)"/>
<path style=" stroke:none;fill-rule:nonzero;fill:rgb(100%,100%,100%);fill-opacity:1;" d="M 91.453125 164.257812 L 53.265625 179.878906 L 62.324219 164.257812 L 53.265625 148.632812 L 91.453125 164.257812 M 235.332031 118.167969 L 228.074219 130.671875 L 235.328125 143.175781 L 204.78125 130.671875 L 235.332031 118.167969 "/>
</g>
</svg>
