<?xml version="1.0" encoding="UTF-8"?>
<svg xmlns="http://www.w3.org/2000/svg" xmlns:xlink="http://www.w3.org/1999/xlink" width="180pt" height="200pt" viewBox="0 0 180 200" version="1.1">
<g id="surface1">
<path style=" stroke:none;fill-rule:nonzero;fill:rgb(17.254902%,41.568627%,63.529412%);fill-opacity:1;" d="M 141.488281 193.160156 L 141.316406 34.140625 L 3.652344 34.039062 L 3.558594 193.199219 L 141.488281 193.160156 "/>
<path style="fill:none;stroke-width:0.629625;stroke-linecap:butt;stroke-linejoin:miter;stroke:rgb(100%,100%,100%);stroke-opacity:1;stroke-miterlimit:4;" d="M 36.158116 49.256836 L 36.114193 8.704863 L 0.933377 8.679961 L 0.909418 49.266797 Z M 36.158116 49.256836 " transform="matrix(3.913043,0,0,3.921569,0,0)"/>
<path style=" stroke:none;fill-rule:nonzero;fill:rgb(17.254902%,41.568627%,63.529412%);fill-opacity:1;" d="M 141.316406 34.136719 L 3.652344 34.039062 L 44.957031 2.445312 L 175.039062 2.445312 L 175.039062 160.550781 L 141.488281 193.15625 L 141.316406 34.136719 "/>
<path style="fill:none;stroke-width:0.629625;stroke-linecap:butt;stroke-linejoin:miter;stroke:rgb(100%,100%,100%);stroke-opacity:1;stroke-miterlimit:4;" d="M 36.114193 8.704863 L 0.933377 8.679961 L 11.489019 0.623555 L 44.732205 0.623555 L 44.732205 40.940449 L 36.158116 49.25584 L 36.114193 8.703867 Z M 36.114193 8.704863 " transform="matrix(3.913043,0,0,3.921569,0,0)"/>
<path style=" stroke:none;fill-rule:nonzero;fill:rgb(17.254902%,41.568627%,63.529412%);fill-opacity:1;" d="M 141.316406 34.136719 L 175.34375 2.003906 "/>
<path style="fill:none;stroke-width:0.629625;stroke-linecap:butt;stroke-linejoin:miter;stroke:rgb(100%,100%,100%);stroke-opacity:1;stroke-miterlimit:4;" d="M 36.114193 8.704863 L 44.810069 0.511992 " transform="matrix(3.913043,0,0,3.921569,0,0)"/>
<path style=" stroke:none;fill-rule:nonzero;fill:rgb(17.254902%,41.568627%,63.529412%);fill-opacity:1;" d="M 13.28125 162.089844 L 36.835938 162.089844 L 36.835938 123.058594 L 13.28125 123.058594 Z M 13.28125 162.089844 "/>
<path style="fill:none;stroke-width:0.465125;stroke-linecap:round;stroke-linejoin:round;stroke:rgb(100%,100%,100%);stroke-opacity:1;stroke-miterlimit:4;" d="M 9.413628 31.379941 L 3.394097 31.379941 L 3.394097 41.331914 L 9.413628 41.331914 " transform="matrix(3.913043,0,0,3.921569,0,0)"/>
<path style=" stroke:none;fill-rule:nonzero;fill:rgb(17.254902%,41.568627%,63.529412%);fill-opacity:1;" d="M 36.835938 162.089844 L 49.867188 154.847656 L 49.867188 115.84375 L 26.292969 115.84375 L 13.28125 123.0625 L 36.835938 123.0625 L 36.835938 162.089844 "/>
<path style="fill:none;stroke-width:0.465125;stroke-linecap:round;stroke-linejoin:round;stroke:rgb(100%,100%,100%);stroke-opacity:1;stroke-miterlimit:4;" d="M 9.413628 41.331914 L 12.743837 39.486152 L 12.743837 29.540156 L 6.719314 29.540156 L 3.394097 31.379941 L 9.413628 31.379941 Z M 9.413628 41.331914 " transform="matrix(3.913043,0,0,3.921569,0,0)"/>
<path style=" stroke:none;fill-rule:nonzero;fill:rgb(17.254902%,41.568627%,63.529412%);fill-opacity:1;" d="M 36.835938 123.0625 L 49.867188 115.84375 "/>
<path style="fill:none;stroke-width:0.465125;stroke-linecap:round;stroke-linejoin:round;stroke:rgb(100%,100%,100%);stroke-opacity:1;stroke-miterlimit:4;" d="M 9.413628 31.379941 L 12.743837 29.540156 " transform="matrix(3.913043,0,0,3.921569,0,0)"/>
<path style=" stroke:none;fill-rule:nonzero;fill:rgb(17.254902%,41.568627%,63.529412%);fill-opacity:1;" d="M 36.835938 162.082031 L 84.890625 162.082031 L 84.890625 74.730469 L 36.835938 74.730469 Z M 36.835938 162.082031 "/>
<path style="fill:none;stroke-width:0.465125;stroke-linecap:round;stroke-linejoin:round;stroke:rgb(100%,100%,100%);stroke-opacity:1;stroke-miterlimit:4;" d="M 21.694271 19.057266 L 9.413628 19.057266 L 9.413628 41.331914 L 21.694271 41.331914 " transform="matrix(3.913043,0,0,3.921569,0,0)"/>
<path style=" stroke:none;fill-rule:nonzero;fill:rgb(17.254902%,41.568627%,63.529412%);fill-opacity:1;" d="M 84.890625 162.089844 L 104.453125 151.25 L 104.453125 63.894531 L 56.382812 63.894531 L 36.835938 74.730469 L 84.890625 74.730469 L 84.890625 162.089844 "/>
<path style="fill:none;stroke-width:0.465125;stroke-linecap:round;stroke-linejoin:round;stroke:rgb(100%,100%,100%);stroke-opacity:1;stroke-miterlimit:4;" d="M 21.694271 41.331914 L 26.693576 38.567754 L 26.693576 16.294102 L 14.408941 16.294102 L 9.413628 19.057266 L 21.694271 19.057266 Z M 21.694271 41.331914 " transform="matrix(3.913043,0,0,3.921569,0,0)"/>
<path style=" stroke:none;fill-rule:nonzero;fill:rgb(17.254902%,41.568627%,63.529412%);fill-opacity:1;" d="M 84.890625 74.730469 L 104.453125 63.894531 "/>
<path style="fill:none;stroke-width:0.465125;stroke-linecap:round;stroke-linejoin:round;stroke:rgb(100%,100%,100%);stroke-opacity:1;stroke-miterlimit:4;" d="M 21.694271 19.057266 L 26.693576 16.294102 " transform="matrix(3.913043,0,0,3.921569,0,0)"/>
<path style=" stroke:none;fill-rule:nonzero;fill:rgb(17.254902%,41.568627%,63.529412%);fill-opacity:1;" d="M 85.308594 162.089844 L 111.347656 162.089844 L 111.347656 88.480469 L 85.308594 88.480469 Z M 85.308594 162.089844 "/>
<path style="fill:none;stroke-width:0.465125;stroke-linecap:round;stroke-linejoin:round;stroke:rgb(100%,100%,100%);stroke-opacity:1;stroke-miterlimit:4;" d="M 28.45651 22.561523 L 21.801085 22.561523 L 21.801085 41.331914 L 28.457509 41.331914 " transform="matrix(3.913043,0,0,3.921569,0,0)"/>
<path style=" stroke:none;fill-rule:nonzero;fill:rgb(17.254902%,41.568627%,63.529412%);fill-opacity:1;" d="M 111.351562 162.089844 L 130.480469 151.492188 L 130.480469 77.890625 L 104.4375 77.890625 L 85.308594 88.476562 L 111.355469 88.476562 L 111.355469 162.085938 "/>
<path style="fill:none;stroke-width:0.465125;stroke-linecap:round;stroke-linejoin:round;stroke:rgb(100%,100%,100%);stroke-opacity:1;stroke-miterlimit:4;" d="M 28.45651 41.331914 L 33.345009 38.631504 L 33.345009 19.862109 L 26.689583 19.862109 L 21.801085 22.561523 L 28.457509 22.561523 L 28.457509 41.331914 Z M 28.45651 41.331914 " transform="matrix(3.913043,0,0,3.921569,0,0)"/>
<path style=" stroke:none;fill-rule:nonzero;fill:rgb(17.254902%,41.568627%,63.529412%);fill-opacity:1;" d="M 111.351562 88.480469 L 130.480469 77.894531 "/>
<path style="fill:none;stroke-width:0.465125;stroke-linecap:round;stroke-linejoin:round;stroke:rgb(100%,100%,100%);stroke-opacity:1;stroke-miterlimit:4;" d="M 28.45651 22.561523 L 33.345009 19.862109 " transform="matrix(3.913043,0,0,3.921569,0,0)"/>
<path style=" stroke:none;fill-rule:nonzero;fill:rgb(17.254902%,41.568627%,63.529412%);fill-opacity:1;" d="M 61.863281 110.601562 L 61.863281 114.679688 L 69.222656 114.679688 "/>
<path style="fill:none;stroke-width:0.465125;stroke-linecap:round;stroke-linejoin:round;stroke:rgb(100%,100%,100%);stroke-opacity:1;stroke-miterlimit:4;" d="M 15.809505 28.202402 L 15.809505 29.242324 L 17.690234 29.242324 " transform="matrix(3.913043,0,0,3.921569,0,0)"/>
<path style=" stroke:none;fill-rule:nonzero;fill:rgb(17.254902%,41.568627%,63.529412%);fill-opacity:1;" d="M 72.128906 110.601562 L 72.128906 114.679688 L 79.464844 114.679688 "/>
<path style="fill:none;stroke-width:0.465125;stroke-linecap:round;stroke-linejoin:round;stroke:rgb(100%,100%,100%);stroke-opacity:1;stroke-miterlimit:4;" d="M 18.432943 28.202402 L 18.432943 29.242324 L 20.307682 29.242324 " transform="matrix(3.913043,0,0,3.921569,0,0)"/>
<path style=" stroke:none;fill-rule:nonzero;fill:rgb(17.254902%,41.568627%,63.529412%);fill-opacity:1;" d="M 41.269531 110.691406 L 41.269531 114.769531 L 48.628906 114.769531 "/>
<path style="fill:none;stroke-width:0.465125;stroke-linecap:round;stroke-linejoin:round;stroke:rgb(100%,100%,100%);stroke-opacity:1;stroke-miterlimit:4;" d="M 10.546658 28.226309 L 10.546658 29.267227 L 12.427387 29.267227 " transform="matrix(3.913043,0,0,3.921569,0,0)"/>
<path style=" stroke:none;fill-rule:nonzero;fill:rgb(17.254902%,41.568627%,63.529412%);fill-opacity:1;" d="M 51.53125 110.691406 L 51.53125 114.769531 L 58.867188 114.769531 "/>
<path style="fill:none;stroke-width:0.465125;stroke-linecap:round;stroke-linejoin:round;stroke:rgb(100%,100%,100%);stroke-opacity:1;stroke-miterlimit:4;" d="M 13.169097 28.226309 L 13.169097 29.267227 L 15.043837 29.267227 " transform="matrix(3.913043,0,0,3.921569,0,0)"/>
<path style="fill-rule:nonzero;fill:rgb(17.254902%,41.568627%,63.529412%);fill-opacity:1;stroke-width:0.465125;stroke-linecap:round;stroke-linejoin:round;stroke:rgb(100%,100%,100%);stroke-opacity:1;stroke-miterlimit:4;" d="M 15.790538 30.364922 L 15.790538 31.399863 L 17.671267 31.399863 " transform="matrix(3.913043,0,0,3.921569,0,0)"/>
<path style="fill-rule:nonzero;fill:rgb(17.254902%,41.568627%,63.529412%);fill-opacity:1;stroke-width:0.465125;stroke-linecap:round;stroke-linejoin:round;stroke:rgb(100%,100%,100%);stroke-opacity:1;stroke-miterlimit:4;" d="M 18.408984 30.364922 L 18.408984 31.399863 L 20.283724 31.399863 " transform="matrix(3.913043,0,0,3.921569,0,0)"/>
<path style="fill-rule:nonzero;fill:rgb(17.254902%,41.568627%,63.529412%);fill-opacity:1;stroke-width:0.465125;stroke-linecap:round;stroke-linejoin:round;stroke:rgb(100%,100%,100%);stroke-opacity:1;stroke-miterlimit:4;" d="M 10.526693 30.389824 L 10.526693 31.429746 L 12.402431 31.429746 " transform="matrix(3.913043,0,0,3.921569,0,0)"/>
<path style="fill-rule:nonzero;fill:rgb(17.254902%,41.568627%,63.529412%);fill-opacity:1;stroke-width:0.465125;stroke-linecap:round;stroke-linejoin:round;stroke:rgb(100%,100%,100%);stroke-opacity:1;stroke-miterlimit:4;" d="M 13.140148 30.389824 L 13.140148 31.429746 L 15.02487 31.429746 " transform="matrix(3.913043,0,0,3.921569,0,0)"/>
<path style=" stroke:none;fill-rule:nonzero;fill:rgb(17.254902%,41.568627%,63.529412%);fill-opacity:1;" d="M 61.789062 127.195312 L 61.789062 131.273438 L 69.148438 131.273438 "/>
<path style="fill:none;stroke-width:0.465125;stroke-linecap:round;stroke-linejoin:round;stroke:rgb(100%,100%,100%);stroke-opacity:1;stroke-miterlimit:4;" d="M 15.790538 32.435801 L 15.790538 33.475723 L 17.671267 33.475723 " transform="matrix(3.913043,0,0,3.921569,0,0)"/>
<path style=" stroke:none;fill-rule:nonzero;fill:rgb(17.254902%,41.568627%,63.529412%);fill-opacity:1;" d="M 72.035156 127.195312 L 72.035156 131.273438 L 79.371094 131.273438 "/>
<path style="fill:none;stroke-width:0.465125;stroke-linecap:round;stroke-linejoin:round;stroke:rgb(100%,100%,100%);stroke-opacity:1;stroke-miterlimit:4;" d="M 18.408984 32.435801 L 18.408984 33.475723 L 20.283724 33.475723 " transform="matrix(3.913043,0,0,3.921569,0,0)"/>
<path style=" stroke:none;fill-rule:nonzero;fill:rgb(17.254902%,41.568627%,63.529412%);fill-opacity:1;" d="M 41.191406 127.3125 L 41.191406 131.390625 L 48.53125 131.390625 "/>
<path style="fill:none;stroke-width:0.465125;stroke-linecap:round;stroke-linejoin:round;stroke:rgb(100%,100%,100%);stroke-opacity:1;stroke-miterlimit:4;" d="M 10.526693 32.463691 L 10.526693 33.503613 L 12.402431 33.503613 " transform="matrix(3.913043,0,0,3.921569,0,0)"/>
<path style=" stroke:none;fill-rule:nonzero;fill:rgb(17.254902%,41.568627%,63.529412%);fill-opacity:1;" d="M 51.417969 127.3125 L 51.417969 131.390625 L 58.792969 131.390625 "/>
<path style="fill:none;stroke-width:0.465125;stroke-linecap:round;stroke-linejoin:round;stroke:rgb(100%,100%,100%);stroke-opacity:1;stroke-miterlimit:4;" d="M 13.140148 32.463691 L 13.140148 33.503613 L 15.02487 33.503613 " transform="matrix(3.913043,0,0,3.921569,0,0)"/>
<path style=" stroke:none;fill-rule:nonzero;fill:rgb(17.254902%,41.568627%,63.529412%);fill-opacity:1;" d="M 61.789062 134.71875 L 61.789062 138.804688 L 69.148438 138.804688 "/>
<path style="fill:none;stroke-width:0.465125;stroke-linecap:round;stroke-linejoin:round;stroke:rgb(100%,100%,100%);stroke-opacity:1;stroke-miterlimit:4;" d="M 15.790538 34.355273 L 15.790538 35.395195 L 17.671267 35.395195 " transform="matrix(3.913043,0,0,3.921569,0,0)"/>
<path style=" stroke:none;fill-rule:nonzero;fill:rgb(17.254902%,41.568627%,63.529412%);fill-opacity:1;" d="M 72.035156 134.71875 L 72.035156 138.804688 L 79.371094 138.804688 "/>
<path style="fill:none;stroke-width:0.465125;stroke-linecap:round;stroke-linejoin:round;stroke:rgb(100%,100%,100%);stroke-opacity:1;stroke-miterlimit:4;" d="M 18.408984 34.355273 L 18.408984 35.395195 L 20.283724 35.395195 " transform="matrix(3.913043,0,0,3.921569,0,0)"/>
<path style=" stroke:none;fill-rule:nonzero;fill:rgb(17.254902%,41.568627%,63.529412%);fill-opacity:1;" d="M 41.191406 134.820312 L 41.191406 138.898438 L 48.53125 138.898438 "/>
<path style="fill:none;stroke-width:0.465125;stroke-linecap:round;stroke-linejoin:round;stroke:rgb(100%,100%,100%);stroke-opacity:1;stroke-miterlimit:4;" d="M 10.526693 34.378184 L 10.526693 35.418105 L 12.402431 35.418105 " transform="matrix(3.913043,0,0,3.921569,0,0)"/>
<path style=" stroke:none;fill-rule:nonzero;fill:rgb(17.254902%,41.568627%,63.529412%);fill-opacity:1;" d="M 51.417969 134.820312 L 51.417969 138.898438 L 58.792969 138.898438 "/>
<path style="fill:none;stroke-width:0.465125;stroke-linecap:round;stroke-linejoin:round;stroke:rgb(100%,100%,100%);stroke-opacity:1;stroke-miterlimit:4;" d="M 13.140148 34.378184 L 13.140148 35.418105 L 15.02487 35.418105 " transform="matrix(3.913043,0,0,3.921569,0,0)"/>
<path style=" stroke:none;fill-rule:nonzero;fill:rgb(17.254902%,41.568627%,63.529412%);fill-opacity:1;" d="M 90.167969 91.90625 L 90.167969 96.007812 L 97.503906 96.007812 "/>
<path style="fill:none;stroke-width:0.465125;stroke-linecap:round;stroke-linejoin:round;stroke:rgb(100%,100%,100%);stroke-opacity:1;stroke-miterlimit:4;" d="M 23.042925 23.436094 L 23.042925 24.480996 L 24.917665 24.480996 " transform="matrix(3.913043,0,0,3.921569,0,0)"/>
<path style=" stroke:none;fill-rule:nonzero;fill:rgb(17.254902%,41.568627%,63.529412%);fill-opacity:1;" d="M 100.40625 91.90625 L 100.40625 96.007812 L 107.761719 96.007812 "/>
<path style="fill:none;stroke-width:0.465125;stroke-linecap:round;stroke-linejoin:round;stroke:rgb(100%,100%,100%);stroke-opacity:1;stroke-miterlimit:4;" d="M 25.659375 23.436094 L 25.659375 24.480996 L 27.539106 24.480996 " transform="matrix(3.913043,0,0,3.921569,0,0)"/>
<path style="fill-rule:nonzero;fill:rgb(17.254902%,41.568627%,63.529412%);fill-opacity:1;stroke-width:0.465125;stroke-linecap:round;stroke-linejoin:round;stroke:rgb(100%,100%,100%);stroke-opacity:1;stroke-miterlimit:4;" d="M 23.012977 25.39541 L 23.012977 26.435332 L 24.887717 26.435332 " transform="matrix(3.913043,0,0,3.921569,0,0)"/>
<path style="fill-rule:nonzero;fill:rgb(17.254902%,41.568627%,63.529412%);fill-opacity:1;stroke-width:0.465125;stroke-linecap:round;stroke-linejoin:round;stroke:rgb(100%,100%,100%);stroke-opacity:1;stroke-miterlimit:4;" d="M 25.630425 25.39541 L 25.630425 26.435332 L 27.505165 26.435332 " transform="matrix(3.913043,0,0,3.921569,0,0)"/>
<path style="fill-rule:nonzero;fill:rgb(17.254902%,41.568627%,63.529412%);fill-opacity:1;stroke-width:0.465125;stroke-linecap:round;stroke-linejoin:round;stroke:rgb(100%,100%,100%);stroke-opacity:1;stroke-miterlimit:4;" d="M 23.012977 27.151523 L 23.012977 28.192441 L 24.887717 28.192441 " transform="matrix(3.913043,0,0,3.921569,0,0)"/>
<path style="fill-rule:nonzero;fill:rgb(17.254902%,41.568627%,63.529412%);fill-opacity:1;stroke-width:0.465125;stroke-linecap:round;stroke-linejoin:round;stroke:rgb(100%,100%,100%);stroke-opacity:1;stroke-miterlimit:4;" d="M 25.630425 27.151523 L 25.630425 28.192441 L 27.505165 28.192441 " transform="matrix(3.913043,0,0,3.921569,0,0)"/>
<path style=" stroke:none;fill-rule:nonzero;fill:rgb(17.254902%,41.568627%,63.529412%);fill-opacity:1;" d="M 16.679688 126.371094 L 16.679688 130.449219 L 24.019531 130.449219 "/>
<path style="fill:none;stroke-width:0.465125;stroke-linecap:round;stroke-linejoin:round;stroke:rgb(100%,100%,100%);stroke-opacity:1;stroke-miterlimit:4;" d="M 4.262587 32.225625 L 4.262587 33.265547 L 6.138325 33.265547 " transform="matrix(3.913043,0,0,3.921569,0,0)"/>
<path style=" stroke:none;fill-rule:nonzero;fill:rgb(17.254902%,41.568627%,63.529412%);fill-opacity:1;" d="M 26.921875 126.371094 L 26.921875 130.449219 L 34.277344 130.449219 "/>
<path style="fill:none;stroke-width:0.465125;stroke-linecap:round;stroke-linejoin:round;stroke:rgb(100%,100%,100%);stroke-opacity:1;stroke-miterlimit:4;" d="M 6.880035 32.225625 L 6.880035 33.265547 L 8.759766 33.265547 " transform="matrix(3.913043,0,0,3.921569,0,0)"/>
<path style=" stroke:none;fill-rule:nonzero;fill:rgb(17.254902%,41.568627%,63.529412%);fill-opacity:1;" d="M 17.234375 134.035156 L 17.234375 138.132812 L 24.589844 138.132812 "/>
<path style="fill:none;stroke-width:0.465125;stroke-linecap:round;stroke-linejoin:round;stroke:rgb(100%,100%,100%);stroke-opacity:1;stroke-miterlimit:4;" d="M 4.40434 34.177969 L 4.40434 35.222871 L 6.284071 35.222871 " transform="matrix(3.913043,0,0,3.921569,0,0)"/>
<path style=" stroke:none;fill-rule:nonzero;fill:rgb(17.254902%,41.568627%,63.529412%);fill-opacity:1;" d="M 27.472656 134.035156 L 27.472656 138.132812 L 34.828125 138.132812 "/>
<path style="fill:none;stroke-width:0.465125;stroke-linecap:round;stroke-linejoin:round;stroke:rgb(100%,100%,100%);stroke-opacity:1;stroke-miterlimit:4;" d="M 7.02079 34.177969 L 7.02079 35.222871 L 8.900521 35.222871 " transform="matrix(3.913043,0,0,3.921569,0,0)"/>
<path style=" stroke:none;fill-rule:nonzero;fill:rgb(17.254902%,41.568627%,63.529412%);fill-opacity:1;" d="M 17.234375 140.945312 L 17.234375 145.003906 L 24.589844 145.003906 "/>
<path style="fill:none;stroke-width:0.465125;stroke-linecap:round;stroke-linejoin:round;stroke:rgb(100%,100%,100%);stroke-opacity:1;stroke-miterlimit:4;" d="M 4.40434 35.940059 L 4.40434 36.975996 L 6.284071 36.975996 " transform="matrix(3.913043,0,0,3.921569,0,0)"/>
<path style=" stroke:none;fill-rule:nonzero;fill:rgb(17.254902%,41.568627%,63.529412%);fill-opacity:1;" d="M 27.472656 140.945312 L 27.472656 145.003906 L 34.828125 145.003906 "/>
<path style="fill:none;stroke-width:0.465125;stroke-linecap:round;stroke-linejoin:round;stroke:rgb(100%,100%,100%);stroke-opacity:1;stroke-miterlimit:4;" d="M 7.02079 35.940059 L 7.02079 36.975996 L 8.900521 36.975996 " transform="matrix(3.913043,0,0,3.921569,0,0)"/>
<path style="fill-rule:nonzero;fill:rgb(17.254902%,41.568627%,63.529412%);fill-opacity:1;stroke-width:0.465125;stroke-linecap:round;stroke-linejoin:round;stroke:rgb(100%,100%,100%);stroke-opacity:1;stroke-miterlimit:4;" d="M 15.86441 20.164922 L 15.86441 21.204844 L 17.744141 21.204844 " transform="matrix(3.913043,0,0,3.921569,0,0)"/>
<path style="fill-rule:nonzero;fill:rgb(17.254902%,41.568627%,63.529412%);fill-opacity:1;stroke-width:0.465125;stroke-linecap:round;stroke-linejoin:round;stroke:rgb(100%,100%,100%);stroke-opacity:1;stroke-miterlimit:4;" d="M 18.485851 20.164922 L 18.485851 21.204844 L 20.36059 21.204844 " transform="matrix(3.913043,0,0,3.921569,0,0)"/>
<path style=" stroke:none;fill-rule:nonzero;fill:rgb(17.254902%,41.568627%,63.529412%);fill-opacity:1;" d="M 41.476562 79.191406 L 41.476562 83.269531 L 48.816406 83.269531 "/>
<path style="fill:none;stroke-width:0.465125;stroke-linecap:round;stroke-linejoin:round;stroke:rgb(100%,100%,100%);stroke-opacity:1;stroke-miterlimit:4;" d="M 10.599566 20.194805 L 10.599566 21.234727 L 12.475304 21.234727 " transform="matrix(3.913043,0,0,3.921569,0,0)"/>
<path style=" stroke:none;fill-rule:nonzero;fill:rgb(17.254902%,41.568627%,63.529412%);fill-opacity:1;" d="M 51.699219 79.191406 L 51.699219 83.269531 L 59.054688 83.269531 "/>
<path style="fill:none;stroke-width:0.465125;stroke-linecap:round;stroke-linejoin:round;stroke:rgb(100%,100%,100%);stroke-opacity:1;stroke-miterlimit:4;" d="M 13.212023 20.194805 L 13.212023 21.234727 L 15.091753 21.234727 " transform="matrix(3.913043,0,0,3.921569,0,0)"/>
<path style=" stroke:none;fill-rule:nonzero;fill:rgb(17.254902%,41.568627%,63.529412%);fill-opacity:1;" d="M 61.984375 87.5625 L 61.984375 91.660156 L 69.339844 91.660156 "/>
<path style="fill:none;stroke-width:0.465125;stroke-linecap:round;stroke-linejoin:round;stroke:rgb(100%,100%,100%);stroke-opacity:1;stroke-miterlimit:4;" d="M 15.840451 22.328437 L 15.840451 23.374336 L 17.720182 23.374336 " transform="matrix(3.913043,0,0,3.921569,0,0)"/>
<path style=" stroke:none;fill-rule:nonzero;fill:rgb(17.254902%,41.568627%,63.529412%);fill-opacity:1;" d="M 72.242188 87.5625 L 72.242188 91.660156 L 79.578125 91.660156 "/>
<path style="fill:none;stroke-width:0.465125;stroke-linecap:round;stroke-linejoin:round;stroke:rgb(100%,100%,100%);stroke-opacity:1;stroke-miterlimit:4;" d="M 18.461892 22.328437 L 18.461892 23.374336 L 20.336632 23.374336 " transform="matrix(3.913043,0,0,3.921569,0,0)"/>
<path style="fill-rule:nonzero;fill:rgb(17.254902%,41.568627%,63.529412%);fill-opacity:1;stroke-width:0.465125;stroke-linecap:round;stroke-linejoin:round;stroke:rgb(100%,100%,100%);stroke-opacity:1;stroke-miterlimit:4;" d="M 10.575608 22.357324 L 10.575608 23.397246 L 12.456337 23.397246 " transform="matrix(3.913043,0,0,3.921569,0,0)"/>
<path style="fill-rule:nonzero;fill:rgb(17.254902%,41.568627%,63.529412%);fill-opacity:1;stroke-width:0.465125;stroke-linecap:round;stroke-linejoin:round;stroke:rgb(100%,100%,100%);stroke-opacity:1;stroke-miterlimit:4;" d="M 13.199045 22.357324 L 13.199045 23.397246 L 15.073785 23.397246 " transform="matrix(3.913043,0,0,3.921569,0,0)"/>
<path style=" stroke:none;fill-rule:nonzero;fill:rgb(17.254902%,41.568627%,63.529412%);fill-opacity:1;" d="M 61.984375 95.683594 L 61.984375 99.78125 L 69.339844 99.78125 "/>
<path style="fill:none;stroke-width:0.465125;stroke-linecap:round;stroke-linejoin:round;stroke:rgb(100%,100%,100%);stroke-opacity:1;stroke-miterlimit:4;" d="M 15.840451 24.39832 L 15.840451 25.443223 L 17.720182 25.443223 " transform="matrix(3.913043,0,0,3.921569,0,0)"/>
<path style=" stroke:none;fill-rule:nonzero;fill:rgb(17.254902%,41.568627%,63.529412%);fill-opacity:1;" d="M 72.242188 95.683594 L 72.242188 99.78125 L 79.578125 99.78125 "/>
<path style="fill:none;stroke-width:0.465125;stroke-linecap:round;stroke-linejoin:round;stroke:rgb(100%,100%,100%);stroke-opacity:1;stroke-miterlimit:4;" d="M 18.461892 24.39832 L 18.461892 25.443223 L 20.336632 25.443223 " transform="matrix(3.913043,0,0,3.921569,0,0)"/>
<path style=" stroke:none;fill-rule:nonzero;fill:rgb(17.254902%,41.568627%,63.529412%);fill-opacity:1;" d="M 41.382812 95.796875 L 41.382812 99.875 L 48.742188 99.875 "/>
<path style="fill:none;stroke-width:0.465125;stroke-linecap:round;stroke-linejoin:round;stroke:rgb(100%,100%,100%);stroke-opacity:1;stroke-miterlimit:4;" d="M 10.575608 24.427207 L 10.575608 25.467129 L 12.456337 25.467129 " transform="matrix(3.913043,0,0,3.921569,0,0)"/>
<path style=" stroke:none;fill-rule:nonzero;fill:rgb(17.254902%,41.568627%,63.529412%);fill-opacity:1;" d="M 51.648438 95.796875 L 51.648438 99.875 L 58.984375 99.875 "/>
<path style="fill:none;stroke-width:0.465125;stroke-linecap:round;stroke-linejoin:round;stroke:rgb(100%,100%,100%);stroke-opacity:1;stroke-miterlimit:4;" d="M 13.199045 24.427207 L 13.199045 25.467129 L 15.073785 25.467129 " transform="matrix(3.913043,0,0,3.921569,0,0)"/>
<path style="fill-rule:nonzero;fill:rgb(17.254902%,41.568627%,63.529412%);fill-opacity:1;stroke-width:0.465125;stroke-linecap:round;stroke-linejoin:round;stroke:rgb(100%,100%,100%);stroke-opacity:1;stroke-miterlimit:4;" d="M 15.840451 26.316797 L 15.840451 27.356719 L 17.720182 27.356719 " transform="matrix(3.913043,0,0,3.921569,0,0)"/>
<path style="fill-rule:nonzero;fill:rgb(17.254902%,41.568627%,63.529412%);fill-opacity:1;stroke-width:0.465125;stroke-linecap:round;stroke-linejoin:round;stroke:rgb(100%,100%,100%);stroke-opacity:1;stroke-miterlimit:4;" d="M 18.461892 26.316797 L 18.461892 27.356719 L 20.336632 27.356719 " transform="matrix(3.913043,0,0,3.921569,0,0)"/>
<path style=" stroke:none;fill-rule:nonzero;fill:rgb(17.254902%,41.568627%,63.529412%);fill-opacity:1;" d="M 41.382812 103.296875 L 41.382812 107.394531 L 48.742188 107.394531 "/>
<path style="fill:none;stroke-width:0.465125;stroke-linecap:round;stroke-linejoin:round;stroke:rgb(100%,100%,100%);stroke-opacity:1;stroke-miterlimit:4;" d="M 10.575608 26.341699 L 10.575608 27.386602 L 12.456337 27.386602 " transform="matrix(3.913043,0,0,3.921569,0,0)"/>
<path style=" stroke:none;fill-rule:nonzero;fill:rgb(17.254902%,41.568627%,63.529412%);fill-opacity:1;" d="M 51.648438 103.296875 L 51.648438 107.394531 L 58.984375 107.394531 "/>
<path style="fill:none;stroke-width:0.465125;stroke-linecap:round;stroke-linejoin:round;stroke:rgb(100%,100%,100%);stroke-opacity:1;stroke-miterlimit:4;" d="M 13.199045 26.341699 L 13.199045 27.386602 L 15.073785 27.386602 M 22.984028 28.998281 L 22.984028 30.038203 M 22.984028 30.039199 L 24.863759 30.039199 " transform="matrix(3.913043,0,0,3.921569,0,0)"/>
<path style=" stroke:none;fill-rule:nonzero;fill:rgb(17.254902%,41.568627%,63.529412%);fill-opacity:1;" d="M 100.175781 113.714844 L 100.175781 117.792969 L 107.53125 117.792969 "/>
<path style="fill:none;stroke-width:0.465125;stroke-linecap:round;stroke-linejoin:round;stroke:rgb(100%,100%,100%);stroke-opacity:1;stroke-miterlimit:4;" d="M 25.600477 28.998281 L 25.600477 30.038203 L 27.480208 30.038203 M 22.984028 30.785273 L 22.984028 31.825195 M 22.984028 31.825195 L 24.863759 31.825195 " transform="matrix(3.913043,0,0,3.921569,0,0)"/>
<path style="fill-rule:nonzero;fill:rgb(17.254902%,41.568627%,63.529412%);fill-opacity:1;stroke-width:0.465125;stroke-linecap:round;stroke-linejoin:round;stroke:rgb(100%,100%,100%);stroke-opacity:1;stroke-miterlimit:4;" d="M 25.600477 30.785273 L 25.600477 31.825195 L 27.480208 31.825195 " transform="matrix(3.913043,0,0,3.921569,0,0)"/>
<path style=" stroke:none;fill-rule:evenodd;fill:rgb(100%,100%,100%);fill-opacity:1;" d="M 78.320312 71.917969 L 78.320312 69.90625 L 78.359375 68.535156 L 78.472656 67.226562 L 78.664062 65.980469 L 78.910156 64.8125 L 79.214844 63.722656 L 79.578125 62.6875 L 80 61.710938 L 80.4375 60.808594 L 80.9375 59.953125 L 81.488281 59.160156 L 82.039062 58.414062 L 82.640625 57.726562 L 83.25 57.097656 L 83.859375 56.503906 L 84.507812 55.984375 L 85.136719 55.484375 L 85.769531 55.050781 L 86.417969 54.648438 L 87.03125 54.277344 L 87.644531 53.957031 L 88.230469 53.667969 L 88.804688 53.421875 L 89.347656 53.191406 L 89.839844 53 L 90.699219 52.710938 L 91.0625 52.613281 L 91.371094 52.523438 L 91.808594 52.421875 L 91.964844 52.382812 L 77.785156 52.382812 L 77.652344 52.421875 L 77.207031 52.523438 L 76.90625 52.613281 L 76.539062 52.710938 L 76.121094 52.84375 L 75.664062 53 L 75.164062 53.191406 L 74.628906 53.421875 L 74.082031 53.667969 L 73.484375 53.957031 L 72.867188 54.277344 L 72.242188 54.648438 L 71.617188 55.050781 L 70.984375 55.480469 L 70.332031 55.984375 L 69.703125 56.503906 L 69.070312 57.097656 L 68.457031 57.726562 L 67.886719 58.417969 L 67.316406 59.164062 L 66.777344 59.949219 L 66.28125 60.792969 L 65.820312 61.710938 L 65.402344 62.6875 L 65.039062 63.722656 L 64.734375 64.8125 L 64.488281 65.980469 L 64.3125 67.226562 L 64.179688 67.820312 L 64.164062 69.195312 L 64.164062 72.511719 L 78.320312 71.917969 "/>
<path style=" stroke:none;fill-rule:nonzero;fill:rgb(9.411765%,9.411765%,9.019608%);fill-opacity:1;" d="M 79.273438 69.90625 L 77.359375 69.90625 L 77.359375 71.917969 L 79.273438 71.917969 L 79.273438 69.789062 L 79.253906 69.695312 L 79.140625 69.40625 L 79.082031 69.332031 L 79.042969 69.273438 L 78.96875 69.195312 L 78.890625 69.140625 L 78.835938 69.101562 L 78.742188 69.0625 L 78.664062 69.023438 L 78.585938 69.003906 L 78.492188 68.984375 L 78.414062 68.964844 L 78.222656 68.964844 L 78.148438 68.984375 L 78.050781 69.003906 L 77.972656 69.023438 L 77.902344 69.0625 L 77.800781 69.101562 L 77.75 69.140625 L 77.671875 69.195312 L 77.609375 69.273438 L 77.550781 69.332031 L 77.496094 69.40625 L 77.378906 69.695312 L 77.378906 69.789062 L 77.359375 69.90625 L 79.273438 69.90625 "/>
<path style=" stroke:none;fill-rule:nonzero;fill:rgb(9.411765%,9.411765%,9.019608%);fill-opacity:1;" d="M 91.964844 53.324219 L 91.808594 51.460938 L 91.601562 51.503906 L 91.140625 51.621094 L 90.808594 51.699219 L 90.429688 51.808594 L 89.988281 51.945312 L 89.519531 52.117188 L 89 52.328125 L 88.136719 52.671875 L 87.832031 52.808594 L 87.222656 53.113281 L 86.246094 53.632812 L 85.597656 54.050781 L 85.257812 54.257812 L 84.929688 54.488281 L 84.585938 54.722656 L 84.242188 54.972656 L 83.894531 55.238281 L 83.25 55.8125 L 82.902344 56.117188 L 82.578125 56.425781 L 82.253906 56.75 L 81.925781 57.097656 L 81.316406 57.824219 L 81.011719 58.203125 L 80.726562 58.609375 L 80.417969 59.007812 L 79.886719 59.890625 L 79.613281 60.351562 L 79.371094 60.828125 L 78.910156 61.824219 L 78.699219 62.339844 L 78.492188 62.878906 L 78.320312 63.433594 L 78.148438 64.007812 L 77.992188 64.605469 L 77.859375 65.195312 L 77.730469 65.808594 L 77.609375 66.457031 L 77.535156 67.113281 L 77.496094 67.453125 L 77.457031 67.78125 L 77.417969 68.46875 L 77.398438 68.835938 L 77.378906 69.175781 L 77.359375 69.546875 L 77.359375 69.90625 L 79.273438 69.90625 L 79.273438 68.910156 L 79.3125 68.257812 L 79.351562 67.953125 L 79.371094 67.628906 L 79.402344 67.335938 L 79.441406 67.035156 L 79.480469 66.746094 L 79.542969 66.4375 L 79.582031 66.152344 L 79.691406 65.582031 L 79.824219 65.042969 L 79.964844 64.527344 L 80.117188 64.007812 L 80.289062 63.511719 L 80.457031 63.027344 L 80.648438 62.558594 L 80.839844 62.113281 L 81.046875 61.671875 L 81.28125 61.25 L 81.738281 60.445312 L 81.988281 60.0625 L 82.253906 59.703125 L 82.503906 59.347656 L 82.792969 59.007812 L 83.054688 58.667969 L 83.324219 58.355469 L 84.199219 57.480469 L 84.488281 57.207031 L 85.097656 56.710938 L 85.386719 56.464844 L 85.695312 56.253906 L 85.996094 56.023438 L 86.308594 55.8125 L 86.609375 55.625 L 86.898438 55.449219 L 87.203125 55.273438 L 87.492188 55.101562 L 87.792969 54.929688 L 88.632812 54.511719 L 89.171875 54.277344 L 89.6875 54.070312 L 90.148438 53.875 L 90.585938 53.746094 L 90.984375 53.613281 L 91.332031 53.515625 L 91.617188 53.433594 L 92.015625 53.339844 L 92.132812 53.324219 L 91.960938 51.441406 L 92.132812 53.324219 L 92.226562 53.285156 L 92.34375 53.261719 L 92.433594 53.222656 L 92.667969 53.054688 L 92.785156 52.902344 L 92.824219 52.824219 L 92.835938 52.75 L 92.875 52.671875 L 92.894531 52.582031 L 92.894531 52.226562 L 92.875 52.136719 L 92.835938 52.058594 L 92.820312 51.984375 L 92.78125 51.90625 L 92.664062 51.753906 L 92.550781 51.636719 L 92.472656 51.585938 L 92.402344 51.546875 L 92.304688 51.507812 L 92.226562 51.464844 L 92.132812 51.445312 L 91.902344 51.445312 L 91.808594 51.464844 L 91.964844 53.324219 "/>
<path style=" stroke:none;fill-rule:nonzero;fill:rgb(9.411765%,9.411765%,9.019608%);fill-opacity:1;" d="M 77.632812 51.460938 L 77.785156 53.324219 L 91.964844 53.324219 L 91.964844 51.441406 L 77.785156 51.441406 L 77.628906 51.464844 L 77.785156 51.445312 L 77.691406 51.445312 L 77.570312 51.464844 L 77.476562 51.484375 L 77.378906 51.527344 L 77.304688 51.585938 L 77.207031 51.621094 L 77.148438 51.679688 L 77.097656 51.757812 L 77.019531 51.808594 L 76.902344 52.039062 L 76.886719 52.117188 L 76.847656 52.308594 L 76.847656 52.476562 L 76.863281 52.582031 L 76.886719 52.652344 L 76.90625 52.75 L 76.976562 52.90625 L 77.015625 52.960938 L 77.09375 53.035156 L 77.148438 53.113281 L 77.207031 53.152344 L 77.304688 53.210938 L 77.378906 53.246094 L 77.476562 53.285156 L 77.570312 53.300781 L 77.691406 53.324219 L 77.785156 53.324219 L 77.628906 51.464844 "/>
<path style=" stroke:none;fill-rule:nonzero;fill:rgb(9.411765%,9.411765%,9.019608%);fill-opacity:1;" d="M 65.097656 69.195312 L 65.097656 68.53125 L 65.132812 67.878906 L 65.152344 68.257812 L 65.171875 67.953125 L 65.210938 67.628906 L 65.25 67.316406 L 65.289062 67.035156 L 65.324219 66.726562 L 65.363281 66.4375 L 65.53125 65.578125 L 65.59375 65.308594 L 65.648438 65.0625 L 65.78125 64.507812 L 65.9375 63.988281 L 66.28125 63.027344 L 66.496094 62.558594 L 66.683594 62.09375 L 66.894531 61.671875 L 67.125 61.230469 L 67.351562 60.847656 L 67.578125 60.445312 L 67.828125 60.0625 L 68.074219 59.703125 L 68.878906 58.667969 L 69.449219 58.054688 L 70.023438 57.480469 L 70.332031 57.207031 L 70.632812 56.960938 L 70.925781 56.710938 L 71.230469 56.464844 L 71.535156 56.230469 L 71.824219 56.023438 L 72.144531 55.8125 L 72.433594 55.625 L 72.738281 55.449219 L 73.027344 55.257812 L 73.3125 55.101562 L 73.621094 54.929688 L 73.902344 54.800781 L 74.191406 54.648438 L 74.480469 54.511719 L 74.722656 54.394531 L 74.992188 54.277344 L 75.511719 54.070312 L 75.988281 53.875 L 76.425781 53.746094 L 76.808594 53.613281 L 77.148438 53.519531 L 77.4375 53.4375 L 77.863281 53.34375 L 77.957031 53.324219 L 77.632812 51.464844 L 77.4375 51.507812 L 76.976562 51.621094 L 76.636719 51.699219 L 76.253906 51.808594 L 75.835938 51.945312 L 75.335938 52.117188 L 74.820312 52.308594 L 74.269531 52.542969 L 73.960938 52.671875 L 73.675781 52.808594 L 73.351562 52.960938 L 73.046875 53.113281 L 72.734375 53.28125 L 72.085938 53.636719 L 71.765625 53.839844 L 71.425781 54.035156 L 71.074219 54.257812 L 70.75 54.488281 L 70.410156 54.722656 L 70.082031 54.972656 L 69.738281 55.238281 L 69.414062 55.507812 L 68.730469 56.117188 L 68.398438 56.425781 L 68.09375 56.75 L 67.769531 57.097656 L 67.445312 57.457031 L 67.144531 57.824219 L 66.855469 58.203125 L 66.546875 58.609375 L 66.261719 59.007812 L 65.972656 59.449219 L 65.710938 59.894531 L 65.460938 60.351562 L 64.960938 61.308594 L 64.734375 61.824219 L 64.539062 62.34375 L 64.332031 62.878906 L 64.140625 63.433594 L 63.988281 64.007812 L 63.816406 64.585938 L 63.757812 64.886719 L 63.679688 65.195312 L 63.625 65.503906 L 63.566406 65.828125 L 63.507812 66.132812 L 63.453125 66.457031 L 63.375 67.113281 L 63.335938 67.453125 L 63.296875 67.78125 L 63.265625 68.128906 L 63.246094 68.46875 L 63.226562 68.128906 L 63.203125 68.46875 L 63.203125 69.3125 L 63.226562 69.425781 L 63.246094 69.527344 L 63.285156 69.621094 L 63.335938 69.699219 L 63.375 69.789062 L 63.492188 69.90625 L 63.648438 70.019531 L 63.796875 70.097656 L 63.890625 70.117188 L 63.96875 70.136719 L 64.332031 70.136719 L 64.410156 70.117188 L 64.507812 70.097656 L 64.660156 70.019531 L 64.734375 69.964844 L 64.792969 69.90625 L 64.871094 69.847656 L 64.921875 69.789062 L 64.960938 69.699219 L 65.019531 69.621094 L 65.058594 69.527344 L 65.078125 69.425781 L 65.097656 69.308594 L 65.097656 69.195312 "/>
<path style=" stroke:none;fill-rule:nonzero;fill:rgb(9.411765%,9.411765%,9.019608%);fill-opacity:1;" d="M 64.238281 73.441406 L 65.097656 72.511719 L 65.097656 69.195312 L 63.203125 69.195312 L 63.203125 72.511719 L 64.238281 73.441406 L 63.203125 72.511719 L 63.203125 72.644531 L 63.242188 72.832031 L 63.28125 72.933594 L 63.335938 73.011719 L 63.375 73.101562 L 63.492188 73.21875 L 63.648438 73.335938 L 63.796875 73.414062 L 63.890625 73.429688 L 63.96875 73.441406 L 64.0625 73.464844 L 64.238281 73.464844 L 64.332031 73.441406 L 64.410156 73.429688 L 64.507812 73.410156 L 64.660156 73.332031 L 64.734375 73.273438 L 64.792969 73.21875 L 64.871094 73.160156 L 64.921875 73.101562 L 64.960938 73.011719 L 65.019531 72.933594 L 65.058594 72.832031 L 65.097656 72.644531 L 65.097656 72.511719 L 64.238281 73.441406 "/>
<path style=" stroke:none;fill-rule:nonzero;fill:rgb(9.411765%,9.411765%,9.019608%);fill-opacity:1;" d="M 79.273438 71.917969 L 78.242188 70.980469 L 64.0625 71.59375 L 64.238281 73.445312 L 78.394531 72.855469 L 79.273438 71.914062 L 78.394531 72.855469 L 78.621094 72.816406 L 78.816406 72.738281 L 78.972656 72.628906 L 79.023438 72.570312 L 79.082031 72.488281 L 79.121094 72.429688 L 79.179688 72.335938 L 79.195312 72.277344 L 79.234375 72.1875 L 79.253906 72.109375 L 79.253906 72.015625 L 79.273438 71.9375 L 79.253906 71.839844 L 79.253906 71.746094 L 79.230469 71.667969 L 79.191406 71.59375 L 79.160156 71.492188 L 79.082031 71.339844 L 79.023438 71.285156 L 78.96875 71.207031 L 78.890625 71.148438 L 78.660156 71.03125 L 78.550781 70.992188 L 78.453125 70.980469 L 78.242188 70.980469 L 79.273438 71.917969 "/>
<path style=" stroke:none;fill-rule:nonzero;fill:rgb(6.27451%,5.882353%,5.098039%);fill-opacity:1;" d="M 77.359375 71.917969 L 79.273438 71.917969 L 79.273438 69.90625 L 77.359375 69.90625 Z M 77.785156 53.324219 L 91.957031 53.324219 L 91.957031 51.441406 L 77.785156 51.441406 Z M 63.203125 72.511719 L 65.097656 72.511719 L 65.097656 69.195312 L 63.203125 69.195312 Z M 63.203125 72.511719 "/>
<path style=" stroke:none;fill-rule:evenodd;fill:rgb(100%,100%,100%);fill-opacity:1;" d="M 77 52.386719 L 93.796875 52.386719 L 95.609375 52.632812 L 97.292969 53.074219 L 98.875 53.6875 L 100.332031 54.449219 L 101.703125 55.351562 L 102.949219 56.40625 L 104.109375 57.574219 L 105.164062 58.839844 L 106.132812 60.214844 L 107.019531 61.671875 L 107.820312 63.183594 L 108.542969 64.777344 L 109.195312 66.402344 L 109.765625 68.066406 L 110.265625 69.738281 L 110.722656 71.433594 L 111.125 73.121094 L 111.449219 74.789062 L 111.738281 73.351562 L 111.96875 74.941406 L 112.175781 76.472656 L 112.328125 77.964844 L 112.441406 79.347656 L 112.539062 80.648438 L 112.613281 75.230469 L 112.652344 76.300781 L 112.691406 77.242188 L 112.710938 78.042969 L 112.710938 79.171875 L 112.691406 79.5625 L 127.386719 79.5625 L 104.296875 102.554688 L 81.203125 79.5625 L 95.894531 79.5625 L 95.894531 77.199219 L 95.878906 76.242188 L 95.820312 75.152344 L 95.742188 80.554688 L 95.652344 79.25 L 95.53125 77.835938 L 95.378906 76.335938 L 95.167969 74.789062 L 94.941406 76.242188 L 94.65625 74.597656 L 94.328125 72.910156 L 93.929688 71.207031 L 93.46875 69.507812 L 92.972656 67.820312 L 92.402344 66.132812 L 91.75 64.507812 L 91.019531 62.917969 L 90.21875 61.402344 L 89.34375 59.953125 L 88.363281 58.589844 L 87.320312 57.324219 L 86.148438 56.175781 L 84.910156 55.160156 L 83.550781 54.277344 L 82.078125 53.554688 L 80.515625 52.980469 L 78.8125 52.601562 L 77 52.386719 "/>
<path style=" stroke:none;fill-rule:nonzero;fill:rgb(9.411765%,9.411765%,9.019608%);fill-opacity:1;" d="M 93.871094 51.445312 L 77 51.445312 L 77 53.324219 L 93.796875 53.324219 L 93.871094 51.441406 L 93.796875 53.324219 L 93.914062 53.324219 L 94.03125 53.300781 L 94.125 53.28125 L 94.3125 53.210938 L 94.371094 53.152344 L 94.449219 53.113281 L 94.523438 53.035156 L 94.582031 52.957031 L 94.621094 52.902344 L 94.660156 52.824219 L 94.675781 52.75 L 94.714844 52.652344 L 94.734375 52.582031 L 94.734375 52.476562 L 94.753906 52.386719 L 94.734375 52.308594 L 94.734375 52.210938 L 94.714844 52.117188 L 94.675781 52.039062 L 94.660156 51.96875 L 94.582031 51.8125 L 94.449219 51.679688 L 94.371094 51.621094 L 94.3125 51.582031 L 94.222656 51.527344 L 94.125 51.484375 L 94.03125 51.464844 L 93.914062 51.445312 L 93.800781 51.445312 L 93.875 51.445312 "/>
<path style=" stroke:none;fill-rule:nonzero;fill:rgb(9.411765%,9.411765%,9.019608%);fill-opacity:1;" d="M 112.691406 78.617188 L 113.628906 79.574219 L 113.644531 79.171875 L 113.644531 78.042969 L 113.628906 77.21875 L 113.609375 76.261719 L 113.546875 75.171875 L 113.492188 80.59375 L 113.453125 79.941406 L 113.378906 79.269531 L 113.320312 78.582031 L 113.261719 77.875 L 113.109375 76.375 L 113.011719 75.613281 L 112.898438 74.808594 L 112.789062 74.023438 L 112.671875 73.199219 L 112.515625 75.4375 L 112.386719 74.617188 L 112.210938 73.773438 L 112.039062 72.910156 L 111.832031 72.070312 L 111.636719 71.207031 L 111.429688 70.347656 L 110.933594 68.625 L 110.664062 67.78125 L 110.53125 67.335938 L 109.921875 65.660156 L 109.75 65.234375 L 109.59375 64.8125 L 109.40625 64.410156 L 109.234375 63.988281 L 109.039062 63.589844 L 108.867188 63.183594 L 108.679688 62.785156 L 108.46875 62.382812 L 108.277344 61.980469 L 108.070312 61.601562 L 107.835938 61.1875 L 107.628906 60.828125 L 107.171875 60.0625 L 106.425781 58.972656 L 106.175781 58.628906 L 105.90625 58.261719 L 105.640625 57.9375 L 105.375 57.59375 L 104.511719 56.621094 L 103.902344 56.003906 L 103.578125 55.714844 L 103.269531 55.429688 L 102.929688 55.140625 L 102.605469 54.875 L 102.253906 54.609375 L 101.570312 54.105469 L 101.191406 53.859375 L 100.824219 53.632812 L 100.058594 53.210938 L 99.257812 52.824219 L 98.859375 52.652344 L 98.4375 52.476562 L 97.59375 52.175781 L 97.136719 52.058594 L 96.699219 51.925781 L 96.242188 51.808594 L 95.78125 51.714844 L 95.320312 51.636719 L 94.847656 51.566406 L 94.367188 51.507812 L 93.871094 51.445312 L 93.71875 53.324219 L 94.15625 53.363281 L 94.597656 53.417969 L 94.996094 53.472656 L 95.4375 53.574219 L 95.84375 53.652344 L 96.222656 53.746094 L 97.023438 53.976562 L 98.117188 54.375 L 98.496094 54.53125 L 99.179688 54.875 L 99.527344 55.0625 L 99.851562 55.257812 L 100.175781 55.46875 L 100.503906 55.664062 L 101.113281 56.117188 L 101.433594 56.347656 L 101.722656 56.582031 L 102.007812 56.828125 L 102.3125 57.097656 L 102.605469 57.34375 L 102.871094 57.632812 L 103.136719 57.90625 L 103.410156 58.183594 L 103.671875 58.492188 L 104.417969 59.410156 L 104.664062 59.742188 L 104.898438 60.042969 L 105.105469 60.386719 L 105.355469 60.714844 L 105.773438 61.402344 L 106.402344 62.492188 L 106.785156 63.226562 L 106.960938 63.609375 L 107.171875 63.988281 L 107.339844 64.351562 L 107.511719 64.734375 L 107.6875 65.136719 L 107.839844 65.539062 L 107.992188 65.921875 L 108.140625 66.324219 L 108.316406 66.726562 L 108.449219 67.128906 L 108.601562 67.53125 L 108.867188 68.335938 L 109.117188 69.175781 L 109.367188 69.980469 L 109.59375 70.824219 L 109.804688 71.648438 L 110.1875 73.292969 L 110.359375 74.136719 L 110.53125 74.941406 L 110.664062 75.765625 L 110.796875 73.507812 L 111.023438 75.078125 L 111.140625 75.84375 L 111.21875 76.589844 L 111.3125 77.316406 L 111.394531 78.042969 L 111.511719 79.417969 L 111.566406 80.074219 L 111.601562 80.6875 L 111.679688 75.269531 L 111.71875 76.316406 L 111.757812 77.257812 L 111.757812 79.519531 L 112.691406 80.496094 L 111.757812 79.519531 L 111.757812 79.753906 L 111.792969 79.84375 L 111.8125 79.941406 L 111.851562 80.015625 L 111.910156 80.113281 L 111.96875 80.171875 L 112.019531 80.242188 L 112.097656 80.300781 L 112.160156 80.339844 L 112.25 80.378906 L 112.40625 80.457031 L 112.484375 80.472656 L 112.578125 80.492188 L 112.839844 80.492188 L 112.917969 80.472656 L 113.011719 80.433594 L 113.089844 80.414062 L 113.167969 80.378906 L 113.261719 80.339844 L 113.320312 80.285156 L 113.378906 80.207031 L 113.453125 80.152344 L 113.492188 80.074219 L 113.546875 79.996094 L 113.585938 79.902344 L 113.609375 79.804688 L 113.628906 79.691406 L 113.628906 79.574219 L 112.6875 78.617188 "/>
<path style=" stroke:none;fill-rule:nonzero;fill:rgb(9.411765%,9.411765%,9.019608%);fill-opacity:1;" d="M 113.742188 80.492188 L 113.742188 78.617188 L 112.695312 78.617188 L 112.695312 80.496094 L 113.859375 80.496094 L 113.957031 80.476562 L 114.070312 80.453125 L 114.167969 80.414062 L 114.242188 80.382812 L 114.398438 80.265625 L 114.449219 80.207031 L 114.511719 80.128906 L 114.550781 80.050781 L 114.609375 79.980469 L 114.628906 79.902344 L 114.660156 79.824219 L 114.679688 79.730469 L 114.679688 79.652344 L 114.699219 79.5625 L 114.679688 79.480469 L 114.679688 79.382812 L 114.660156 79.289062 L 114.628906 79.210938 L 114.609375 79.136719 L 114.550781 79.058594 L 114.511719 78.980469 L 114.449219 78.90625 L 114.398438 78.851562 L 114.242188 78.734375 L 114.164062 78.695312 L 114.070312 78.65625 L 113.957031 78.640625 L 113.859375 78.617188 L 113.746094 78.617188 L 113.746094 80.496094 "/>
<path style=" stroke:none;fill-rule:nonzero;fill:rgb(9.411765%,9.411765%,9.019608%);fill-opacity:1;" d="M 128.054688 80.222656 L 127.386719 78.617188 L 113.742188 78.617188 L 113.742188 80.496094 L 127.386719 80.496094 L 128.054688 80.222656 L 127.386719 80.496094 L 127.496094 80.496094 L 127.613281 80.472656 L 127.691406 80.453125 L 127.808594 80.414062 L 127.886719 80.378906 L 127.976562 80.320312 L 128.015625 80.261719 L 128.09375 80.207031 L 128.148438 80.128906 L 128.1875 80.050781 L 128.246094 79.980469 L 128.285156 79.902344 L 128.300781 79.824219 L 128.300781 79.730469 L 128.320312 79.652344 L 128.320312 79.480469 L 128.300781 79.382812 L 128.300781 79.289062 L 128.285156 79.210938 L 128.246094 79.136719 L 128.1875 79.058594 L 128.148438 78.980469 L 128.09375 78.90625 L 128.015625 78.851562 L 127.976562 78.789062 L 127.882812 78.738281 L 127.804688 78.699219 L 127.6875 78.660156 L 127.613281 78.640625 L 127.496094 78.617188 L 127.386719 78.617188 L 128.054688 80.222656 "/>
<path style=" stroke:none;fill-rule:nonzero;fill:rgb(9.411765%,9.411765%,9.019608%);fill-opacity:1;" d="M 103.617188 103.222656 L 104.972656 103.222656 L 128.058594 80.226562 L 126.710938 78.886719 L 103.617188 101.882812 L 103.617188 103.222656 L 103.617188 101.882812 L 103.539062 101.960938 L 103.425781 102.152344 L 103.386719 102.242188 L 103.367188 102.320312 L 103.347656 102.421875 L 103.328125 102.492188 L 103.328125 102.59375 L 103.347656 102.6875 L 103.367188 102.765625 L 103.386719 102.859375 L 103.425781 102.917969 L 103.460938 103.015625 L 103.519531 103.089844 L 103.558594 103.148438 L 103.617188 103.226562 L 103.765625 103.335938 L 103.84375 103.375 L 103.902344 103.414062 L 104 103.453125 L 104.148438 103.492188 L 104.261719 103.511719 L 104.339844 103.511719 L 104.4375 103.488281 L 104.511719 103.46875 L 104.609375 103.453125 L 104.703125 103.414062 L 104.78125 103.359375 L 104.875 103.296875 L 104.972656 103.222656 L 103.617188 103.222656 "/>
<path style=" stroke:none;fill-rule:nonzero;fill:rgb(9.411765%,9.411765%,9.019608%);fill-opacity:1;" d="M 81.207031 78.617188 L 80.535156 80.207031 L 103.617188 103.226562 L 104.972656 101.882812 L 81.867188 78.886719 L 81.203125 78.617188 L 81.867188 78.890625 L 81.796875 78.828125 L 81.699219 78.753906 L 81.621094 78.695312 L 81.527344 78.65625 L 81.429688 78.640625 L 81.355469 78.617188 L 81.257812 78.597656 L 81.167969 78.597656 L 80.917969 78.660156 L 80.820312 78.699219 L 80.667969 78.769531 L 80.609375 78.828125 L 80.535156 78.886719 L 80.476562 78.960938 L 80.417969 79.019531 L 80.269531 79.324219 L 80.246094 79.417969 L 80.246094 79.695312 L 80.269531 79.785156 L 80.308594 79.863281 L 80.347656 79.960938 L 80.386719 80.035156 L 80.457031 80.132812 L 80.535156 80.207031 L 81.207031 78.617188 "/>
<path style=" stroke:none;fill-rule:nonzero;fill:rgb(9.411765%,9.411765%,9.019608%);fill-opacity:1;" d="M 96.832031 79.574219 L 95.894531 78.617188 L 81.203125 78.617188 L 81.203125 80.496094 L 95.894531 80.496094 L 96.832031 79.574219 L 95.894531 80.492188 L 96.011719 80.492188 L 96.125 80.472656 L 96.222656 80.453125 L 96.316406 80.414062 L 96.394531 80.378906 L 96.492188 80.320312 L 96.542969 80.261719 L 96.621094 80.207031 L 96.679688 80.128906 L 96.796875 79.902344 L 96.8125 79.824219 L 96.832031 79.730469 L 96.832031 79.652344 L 96.851562 79.5625 L 96.832031 79.480469 L 96.832031 79.382812 L 96.8125 79.289062 L 96.792969 79.210938 L 96.679688 78.980469 L 96.621094 78.90625 L 96.542969 78.851562 L 96.492188 78.789062 L 96.394531 78.738281 L 96.316406 78.699219 L 96.222656 78.660156 L 96.125 78.640625 L 96.011719 78.617188 L 95.894531 78.617188 L 96.832031 79.574219 "/>
<path style=" stroke:none;fill-rule:nonzero;fill:rgb(9.411765%,9.411765%,9.019608%);fill-opacity:1;" d="M 77 51.445312 L 76.960938 53.324219 L 77.398438 53.363281 L 77.824219 53.402344 L 78.660156 53.515625 L 79.464844 53.667969 L 79.84375 53.785156 L 80.226562 53.878906 L 80.609375 53.996094 L 80.976562 54.128906 L 81.355469 54.257812 L 81.71875 54.414062 L 82.410156 54.722656 L 82.734375 54.914062 L 83.074219 55.082031 L 83.402344 55.292969 L 83.722656 55.484375 L 84.035156 55.699219 L 84.949219 56.386719 L 85.808594 57.132812 L 86.339844 57.671875 L 86.882812 58.246094 L 87.625 59.160156 L 87.851562 59.488281 L 88.101562 59.816406 L 88.554688 60.464844 L 88.765625 60.808594 L 89 61.160156 L 89.1875 61.523438 L 89.398438 61.863281 L 89.589844 62.226562 L 89.800781 62.59375 L 89.988281 62.957031 L 90.183594 63.335938 L 90.699219 64.484375 L 90.886719 64.867188 L 91.351562 66.082031 L 91.503906 66.457031 L 91.652344 66.882812 L 91.808594 67.285156 L 92.074219 68.085938 L 92.324219 68.933594 L 92.574219 69.757812 L 93.03125 71.433594 L 93.203125 72.257812 L 93.414062 73.101562 L 93.570312 73.925781 L 93.738281 74.75 L 93.871094 75.574219 L 94.027344 73.3125 L 94.121094 74.117188 L 94.253906 74.921875 L 94.347656 75.691406 L 94.425781 76.453125 L 94.519531 77.199219 L 94.597656 77.929688 L 94.65625 78.636719 L 94.710938 79.328125 L 94.769531 79.980469 L 94.808594 80.609375 L 94.878906 75.191406 L 94.917969 76.285156 L 94.957031 77.21875 L 94.957031 79.519531 L 96.835938 79.574219 L 96.851562 79.15625 L 96.851562 78.003906 L 96.832031 77.179688 L 96.8125 76.207031 L 96.753906 81.722656 L 96.699219 80.492188 L 96.660156 79.84375 L 96.601562 79.171875 L 96.523438 78.464844 L 96.492188 77.757812 L 96.394531 77.011719 L 96.316406 76.242188 L 96.222656 75.457031 L 96.125 74.660156 L 96.011719 73.851562 L 95.878906 76.09375 L 95.742188 75.269531 L 95.589844 74.421875 L 95.246094 72.699219 L 95.054688 71.835938 L 94.636719 70.117188 L 94.140625 68.390625 L 93.867188 67.53125 L 93.738281 67.09375 L 93.585938 66.671875 L 93.449219 66.246094 L 93.273438 65.828125 L 92.972656 64.984375 L 92.800781 64.566406 L 92.609375 64.140625 L 92.433594 63.71875 L 91.484375 61.710938 L 91.273438 61.328125 L 91.039062 60.945312 L 90.828125 60.566406 L 90.601562 60.175781 L 90.375 59.8125 L 90.128906 59.429688 L 89.894531 59.066406 L 89.628906 58.726562 L 89.378906 58.355469 L 88.84375 57.671875 L 88.574219 57.339844 L 88.003906 56.695312 L 87.71875 56.386719 L 87.109375 55.777344 L 86.785156 55.484375 L 86.476562 55.199219 L 86.128906 54.929688 L 85.808594 54.664062 L 85.464844 54.394531 L 85.117188 54.148438 L 84.394531 53.6875 L 84.011719 53.453125 L 83.648438 53.246094 L 83.25 53.050781 L 82.863281 52.863281 L 82.464844 52.671875 L 81.203125 52.210938 L 80.785156 52.078125 L 80.347656 51.945312 L 78.96875 51.65625 L 78.511719 51.601562 L 78.03125 51.523438 L 77.550781 51.480469 L 77.054688 51.441406 L 77 53.324219 L 77.054688 51.441406 L 76.9375 51.441406 L 76.828125 51.460938 L 76.636719 51.503906 L 76.558594 51.566406 L 76.464844 51.601562 L 76.386719 51.65625 L 76.277344 51.773438 L 76.214844 51.851562 L 76.136719 52 L 76.121094 52.078125 L 76.082031 52.175781 L 76.066406 52.25 L 76.066406 52.523438 L 76.085938 52.613281 L 76.105469 52.691406 L 76.136719 52.789062 L 76.175781 52.84375 L 76.214844 52.941406 L 76.277344 53 L 76.328125 53.074219 L 76.386719 53.132812 L 76.464844 53.191406 L 76.558594 53.222656 L 76.636719 53.261719 L 76.75 53.28125 L 76.847656 53.320312 L 76.960938 53.320312 L 77 51.445312 "/>
<path style=" stroke:none;fill-rule:evenodd;fill:rgb(100%,100%,100%);fill-opacity:1;" d="M 62.402344 171.257812 L 45.605469 171.257812 L 43.789062 171.007812 L 42.109375 170.570312 L 40.542969 169.957031 L 39.070312 169.191406 L 37.71875 168.289062 L 36.453125 167.234375 L 35.3125 166.070312 L 34.238281 164.804688 L 33.265625 163.425781 L 32.382812 161.972656 L 31.582031 160.453125 L 30.859375 158.867188 L 30.230469 157.238281 L 29.636719 155.574219 L 29.136719 153.914062 L 28.679688 152.207031 L 28.296875 150.523438 L 27.953125 148.855469 L 27.664062 147.226562 L 27.433594 145.640625 L 27.226562 144.109375 L 27.074219 142.613281 L 26.960938 151.171875 L 26.863281 149.886719 L 26.804688 148.683594 L 26.75 147.609375 L 26.730469 146.671875 L 26.710938 145.867188 L 26.710938 144.351562 L 12.015625 144.351562 L 35.121094 121.355469 L 58.199219 144.351562 L 43.507812 144.351562 L 43.507812 146.710938 L 43.539062 147.667969 L 43.578125 148.761719 L 43.65625 149.964844 L 43.75 151.285156 L 43.867188 142.746094 L 44.023438 144.238281 L 44.234375 145.789062 L 44.460938 147.394531 L 44.746094 149.042969 L 45.09375 150.730469 L 45.472656 152.433594 L 45.933594 154.136719 L 46.429688 155.824219 L 47.019531 157.511719 L 47.652344 159.136719 L 48.382812 160.726562 L 49.183594 162.238281 L 50.054688 163.699219 L 51.035156 165.054688 L 52.082031 166.316406 L 53.253906 167.464844 L 54.511719 168.476562 L 55.851562 169.359375 L 57.320312 170.089844 L 58.90625 170.667969 L 60.589844 171.050781 L 62.402344 171.257812 "/>
<path style="fill:none;stroke-width:0.75;stroke-linecap:butt;stroke-linejoin:miter;stroke:rgb(12.941176%,10.980392%,11.372549%);stroke-opacity:1;stroke-miterlimit:4;" d="M 15.947266 43.669746 L 11.654731 43.669746 L 11.190538 43.606992 L 10.761285 43.49543 L 10.360981 43.338047 L 9.984635 43.143809 L 9.639236 42.913711 L 9.315799 42.645762 L 9.024306 42.346934 L 8.749783 42.026191 L 8.501215 41.672578 L 8.275608 41.303027 L 8.070964 40.916543 L 7.886285 40.512129 L 7.725564 40.096758 L 7.573828 39.672422 L 7.44605 39.24709 L 7.329253 38.811797 L 7.231424 38.38248 L 7.143576 37.958145 L 7.069705 37.542773 L 7.010807 37.137363 L 6.957899 36.746895 L 6.918967 36.366387 L 6.890017 38.547832 L 6.865061 38.222109 L 6.850087 37.914316 L 6.836111 37.641387 L 6.83112 37.401328 L 6.826128 37.196133 L 6.826128 36.810645 L 3.07066 36.810645 L 8.975391 30.945645 L 14.873134 36.810645 L 11.118663 36.810645 L 11.118663 37.411289 L 11.126649 37.655332 L 11.136632 37.933242 L 11.156597 38.241035 L 11.180556 38.577715 L 11.210503 36.40125 L 11.250434 36.780762 L 11.30434 37.177207 L 11.36224 37.586602 L 11.435113 38.006953 L 11.523958 38.43627 L 11.62079 38.870566 L 11.738585 39.305859 L 11.865365 39.73418 L 12.016102 40.164492 L 12.177821 40.579863 L 12.364497 40.984277 L 12.569141 41.370762 L 12.791753 41.742305 L 13.042318 42.087949 L 13.309852 42.410684 L 13.609332 42.704531 L 13.930773 42.96252 L 14.273177 43.186641 L 14.648524 43.373906 L 15.053819 43.520332 L 15.484071 43.616953 L 15.947266 43.670742 Z M 15.947266 43.669746 " transform="matrix(3.913043,0,0,3.921569,0,0)"/>
<path style=" stroke:none;fill-rule:nonzero;fill:rgb(100%,100%,100%);fill-opacity:1;" d="M 71.4375 164.902344 C 69.203125 169.378906 61.863281 171.644531 61.863281 171.644531 C 58.597656 171.429688 54.738281 168.578125 54.738281 168.578125 L 57.988281 164.902344 "/>
<path style="fill:none;stroke-width:0.75;stroke-linecap:butt;stroke-linejoin:miter;stroke:rgb(12.941176%,10.980392%,11.372549%);stroke-opacity:1;stroke-miterlimit:4;" d="M 18.25625 42.050098 C 17.685243 43.191621 15.809505 43.769355 15.809505 43.769355 C 14.974957 43.713574 13.988672 42.987422 13.988672 42.987422 L 14.819227 42.050098 " transform="matrix(3.913043,0,0,3.921569,0,0)"/>
</g>
</svg>
