<?xml version="1.0" encoding="UTF-8"?>
<svg xmlns="http://www.w3.org/2000/svg" xmlns:xlink="http://www.w3.org/1999/xlink" width="338pt" height="200pt" viewBox="0 0 338 200" version="1.1">
<g id="surface1">
<path style=" stroke:none;fill-rule:nonzero;fill:rgb(3.137255%,50.588235%,75.686275%);fill-opacity:1;" d="M 3.921875 87.632812 L 103.839844 6.609375 L 334.570312 6.609375 L 251.859375 87.632812 L 3.921875 87.632812 "/>
<path style="fill:none;stroke-width:0.5;stroke-linecap:butt;stroke-linejoin:miter;stroke:rgb(100%,100%,100%);stroke-opacity:1;stroke-miterlimit:4;" d="M 0.707794 15.773906 L 18.740327 1.189688 L 60.381033 1.189688 L 45.453911 15.773906 Z M 0.707794 15.773906 " transform="matrix(5.540984,0,0,5.555556,0,0)"/>
<path style=" stroke:none;fill-rule:nonzero;fill:rgb(3.137255%,50.588235%,75.686275%);fill-opacity:1;" d="M 251.859375 191.042969 L 334.570312 106.542969 L 334.570312 6.746094 L 251.859375 87.632812 L 251.859375 191.042969 "/>
<path style="fill:none;stroke-width:0.5;stroke-linecap:butt;stroke-linejoin:miter;stroke:rgb(100%,100%,100%);stroke-opacity:1;stroke-miterlimit:4;" d="M 45.453911 34.387734 L 60.381033 19.177734 L 60.381033 1.214297 L 45.453911 15.773906 Z M 45.453911 34.387734 " transform="matrix(5.540984,0,0,5.555556,0,0)"/>
<path style=" stroke:none;fill-rule:nonzero;fill:rgb(3.137255%,50.588235%,75.686275%);fill-opacity:1;" d="M 4.246094 191.117188 L 251.859375 191.117188 L 251.859375 87.632812 L 4.246094 87.632812 Z M 4.246094 191.117188 "/>
<path style="fill:none;stroke-width:0.5;stroke-linecap:butt;stroke-linejoin:miter;stroke:rgb(100%,100%,100%);stroke-opacity:1;stroke-miterlimit:4;" d="M 0.766307 34.401797 L 45.453911 34.401797 L 45.453911 15.773906 L 0.766307 15.773906 Z M 0.766307 34.401797 " transform="matrix(5.540984,0,0,5.555556,0,0)"/>
<path style="fill:none;stroke-width:0.5625;stroke-linecap:round;stroke-linejoin:miter;stroke:rgb(100%,100%,100%);stroke-opacity:1;stroke-miterlimit:1;" d="M 42.935038 25.612734 C 42.935038 25.612734 39.960753 33.254297 36.385829 25.588828 C 32.81302 17.928984 29.833799 25.574063 29.833799 25.574063 C 29.833799 25.574063 26.865153 33.22125 23.290935 25.559297 C 19.720946 17.893125 16.757235 25.607812 16.757235 25.607812 C 16.757235 25.607812 13.794228 33.254297 10.22001 25.588828 C 6.650021 17.928984 3.68631 25.569141 3.68631 25.569141 " transform="matrix(5.540984,0,0,5.555556,0,0)"/>
<path style="fill:none;stroke-width:1.125;stroke-linecap:round;stroke-linejoin:miter;stroke:rgb(100%,100%,100%);stroke-opacity:1;stroke-miterlimit:1;" d="M 3.68631 25.612734 C 3.68631 25.612734 6.65989 33.254297 10.234814 25.588828 C 13.804098 17.928984 16.783319 25.574063 16.783319 25.574063 C 16.783319 25.574063 19.756195 33.22125 23.324773 25.559297 C 26.899697 17.893125 29.859179 25.607812 29.859179 25.607812 C 29.859179 25.607812 32.822185 33.254297 36.395699 25.588828 C 39.971327 17.928984 42.935038 25.569141 42.935038 25.569141 " transform="matrix(5.540984,0,0,5.555556,0,0)"/>
<path style="fill:none;stroke-width:0.5625;stroke-linecap:round;stroke-linejoin:miter;stroke:rgb(13.72549%,12.156863%,12.54902%);stroke-opacity:1;stroke-miterlimit:1;" d="M 43.623093 25.612734 C 43.623093 25.612734 40.650217 33.254297 37.075294 25.588828 C 33.50178 17.928984 30.523264 25.574063 30.523264 25.574063 C 30.523264 25.574063 27.553208 33.226172 23.979694 25.559297 C 20.409706 17.893125 17.445994 25.607812 17.445994 25.607812 C 17.445994 25.607812 14.482283 33.254297 10.908769 25.588828 C 7.338781 17.928984 4.375069 25.569141 4.375069 25.569141 " transform="matrix(5.540984,0,0,5.555556,0,0)"/>
<path style="fill:none;stroke-width:1.125;stroke-linecap:round;stroke-linejoin:miter;stroke:rgb(13.72549%,12.156863%,12.54902%);stroke-opacity:1;stroke-miterlimit:1;" d="M 4.375069 25.612734 C 4.375069 25.612734 7.34865 33.254297 10.922164 25.588828 C 14.492153 17.928984 17.472078 25.574063 17.472078 25.574063 C 17.472078 25.574063 20.444249 33.226172 24.014238 25.559297 C 27.587047 17.893125 30.547233 25.607812 30.547233 25.607812 C 30.547233 25.607812 33.510944 33.254297 37.085163 25.588828 C 40.658677 17.928984 43.621683 25.569141 43.621683 25.569141 " transform="matrix(5.540984,0,0,5.555556,0,0)"/>
<path style="fill:none;stroke-width:0.5625;stroke-linecap:round;stroke-linejoin:miter;stroke:rgb(100%,100%,100%);stroke-opacity:1;stroke-miterlimit:1;" d="M 42.935038 25.612734 C 42.935038 25.612734 39.960753 33.254297 36.385829 25.588828 C 32.81302 17.928984 29.833799 25.574063 29.833799 25.574063 C 29.833799 25.574063 26.865153 33.22125 23.290935 25.559297 C 19.720946 17.893125 16.757235 25.607812 16.757235 25.607812 C 16.757235 25.607812 13.794228 33.254297 10.22001 25.588828 C 6.650021 17.928984 3.68631 25.569141 3.68631 25.569141 " transform="matrix(5.540984,0,0,5.555556,0,0)"/>
<path style="fill:none;stroke-width:1.125;stroke-linecap:round;stroke-linejoin:miter;stroke:rgb(100%,100%,100%);stroke-opacity:1;stroke-miterlimit:1;" d="M 3.68631 25.612734 C 3.68631 25.612734 6.65989 33.254297 10.234814 25.588828 C 13.804098 17.928984 16.783319 25.574063 16.783319 25.574063 C 16.783319 25.574063 19.756195 33.22125 23.324773 25.559297 C 26.899697 17.893125 29.859179 25.607812 29.859179 25.607812 C 29.859179 25.607812 32.822185 33.254297 36.395699 25.588828 C 39.971327 17.928984 42.935038 25.569141 42.935038 25.569141 " transform="matrix(5.540984,0,0,5.555556,0,0)"/>
<path style="fill:none;stroke-width:0.5625;stroke-linecap:round;stroke-linejoin:miter;stroke:rgb(13.72549%,12.156863%,12.54902%);stroke-opacity:1;stroke-miterlimit:1;" d="M 43.623093 25.612734 C 43.623093 25.612734 40.650217 33.254297 37.075294 25.588828 C 33.50178 17.928984 30.523264 25.574063 30.523264 25.574063 C 30.523264 25.574063 27.553208 33.226172 23.979694 25.559297 C 20.409706 17.893125 17.445994 25.607812 17.445994 25.607812 C 17.445994 25.607812 14.482283 33.254297 10.908769 25.588828 C 7.338781 17.928984 4.375069 25.569141 4.375069 25.569141 " transform="matrix(5.540984,0,0,5.555556,0,0)"/>
<path style="fill:none;stroke-width:1.125;stroke-linecap:round;stroke-linejoin:miter;stroke:rgb(13.72549%,12.156863%,12.54902%);stroke-opacity:1;stroke-miterlimit:1;" d="M 4.375069 25.612734 C 4.375069 25.612734 7.34865 33.254297 10.922164 25.588828 C 14.492153 17.928984 17.472078 25.574063 17.472078 25.574063 C 17.472078 25.574063 20.444249 33.226172 24.014238 25.559297 C 27.587047 17.893125 30.547233 25.607812 30.547233 25.607812 C 30.547233 25.607812 33.510944 33.254297 37.085163 25.588828 C 40.658677 17.928984 43.621683 25.569141 43.621683 25.569141 " transform="matrix(5.540984,0,0,5.555556,0,0)"/>
<path style="fill:none;stroke-width:0.5625;stroke-linecap:round;stroke-linejoin:miter;stroke:rgb(100%,100%,100%);stroke-opacity:1;stroke-miterlimit:1;" d="M 42.935038 25.612734 C 42.935038 25.612734 39.960753 33.254297 36.385829 25.588828 C 32.81302 17.928984 29.833799 25.574063 29.833799 25.574063 C 29.833799 25.574063 26.865153 33.22125 23.290935 25.559297 C 19.720946 17.893125 16.757235 25.607812 16.757235 25.607812 C 16.757235 25.607812 13.794228 33.254297 10.22001 25.588828 C 6.650021 17.928984 3.68631 25.569141 3.68631 25.569141 " transform="matrix(5.540984,0,0,5.555556,0,0)"/>
<path style="fill:none;stroke-width:1.125;stroke-linecap:round;stroke-linejoin:miter;stroke:rgb(100%,100%,100%);stroke-opacity:1;stroke-miterlimit:1;" d="M 3.68631 25.612734 C 3.68631 25.612734 6.65989 33.254297 10.234814 25.588828 C 13.804098 17.928984 16.783319 25.574063 16.783319 25.574063 C 16.783319 25.574063 19.756195 33.22125 23.324773 25.559297 C 26.899697 17.893125 29.859179 25.607812 29.859179 25.607812 C 29.859179 25.607812 32.822185 33.254297 36.395699 25.588828 C 39.971327 17.928984 42.935038 25.569141 42.935038 25.569141 " transform="matrix(5.540984,0,0,5.555556,0,0)"/>
<path style="fill:none;stroke-width:0.31375;stroke-linecap:round;stroke-linejoin:miter;stroke:rgb(13.72549%,12.156863%,12.54902%);stroke-opacity:1;stroke-miterlimit:1;" d="M 59.429318 11.394141 C 59.429318 11.394141 58.13992 20.282344 57.363744 13.557656 C 56.583337 6.839297 55.293235 15.735234 55.293235 15.735234 C 55.293235 15.735234 53.998902 24.626953 53.222726 17.902969 C 52.445844 11.178984 51.157856 20.138906 51.157856 20.138906 C 51.157856 20.138906 49.867754 29.027109 49.090872 22.303125 C 48.314696 15.584062 47.026003 24.470859 47.026003 24.470859 " transform="matrix(5.540984,0,0,5.555556,0,0)"/>
<path style="fill:none;stroke-width:0.6275;stroke-linecap:round;stroke-linejoin:miter;stroke:rgb(13.72549%,12.156863%,12.54902%);stroke-opacity:1;stroke-miterlimit:1;" d="M 47.021773 24.51375 C 47.021773 24.51375 47.611837 31.414219 49.092282 22.298203 C 50.576253 13.196953 51.167726 20.096016 51.167726 20.096016 C 51.167726 20.096016 51.752855 27.004219 53.238235 17.893125 C 54.715861 8.786953 55.298169 15.759141 55.298169 15.759141 C 55.298169 15.759141 55.884003 22.66875 57.367973 13.552734 C 58.847714 4.450781 59.434252 11.35125 59.434252 11.35125 " transform="matrix(5.540984,0,0,5.555556,0,0)"/>
<path style="fill:none;stroke-width:0.31375;stroke-linecap:round;stroke-linejoin:miter;stroke:rgb(100%,100%,100%);stroke-opacity:1;stroke-miterlimit:1;" d="M 59.214301 11.624062 C 59.214301 11.624062 57.919968 20.510156 57.143792 13.786875 C 56.36832 7.072734 55.073988 15.96375 55.073988 15.96375 C 55.073988 15.96375 53.783885 24.851953 53.007004 18.132891 C 52.232237 11.413828 50.9372 20.368828 50.9372 20.368828 C 50.9372 20.368828 49.649212 29.259844 48.873035 22.532344 C 48.096154 15.818203 46.806051 24.700781 46.806051 24.700781 " transform="matrix(5.540984,0,0,5.555556,0,0)"/>
<path style="fill:none;stroke-width:0.6275;stroke-linecap:round;stroke-linejoin:miter;stroke:rgb(100%,100%,100%);stroke-opacity:1;stroke-miterlimit:1;" d="M 46.806051 24.743672 C 46.806051 24.743672 47.398229 31.644141 48.87797 22.532344 C 50.357006 13.424766 50.947774 20.325937 50.947774 20.325937 C 50.947774 20.325937 51.537837 27.229219 53.018283 18.123047 C 54.498024 9.011953 55.078217 15.989062 55.078217 15.989062 C 55.078217 15.989062 55.664051 22.897969 57.148021 13.781953 C 58.627762 4.680703 59.214301 11.57625 59.214301 11.57625 " transform="matrix(5.540984,0,0,5.555556,0,0)"/>
<path style=" stroke:none;fill-rule:nonzero;fill:rgb(100%,100%,100%);fill-opacity:1;" d="M 184.199219 23.105469 L 174.835938 22.503906 L 205.402344 14.640625 L 218.769531 25.109375 L 208.894531 24.5625 L 206.949219 24.488281 L 190.472656 36.253906 L 168.070312 36.394531 L 185.65625 23.210938 L 184.199219 23.101562 M 160.4375 69.753906 L 169.804688 70.355469 L 139.226562 78.222656 L 125.863281 67.75 L 135.738281 68.292969 L 137.6875 68.378906 L 154.160156 56.605469 L 176.5625 56.464844 L 158.976562 69.628906 L 160.4375 69.753906 M 114.792969 47.246094 L 78.597656 47.246094 L 89.316406 37.996094 L 125.535156 37.964844 L 130.488281 32.378906 L 147.367188 44.34375 L 105.269531 56.304688 L 114.796875 47.246094 M 228.78125 42.714844 L 265.015625 42.6875 L 254.265625 51.964844 L 218.039062 51.964844 L 213.09375 57.550781 L 196.207031 45.589844 L 238.335938 33.628906 L 228.78125 42.714844 "/>
</g>
</svg>
