<?xml version="1.0" encoding="UTF-8"?>
<svg xmlns="http://www.w3.org/2000/svg" xmlns:xlink="http://www.w3.org/1999/xlink" width="228pt" height="200pt" viewBox="0 0 228 200" version="1.1">
<g id="surface1">
<path style="fill-rule:nonzero;fill:rgb(3.137255%,49.803922%,74.901961%);fill-opacity:1;stroke-width:0.5;stroke-linecap:butt;stroke-linejoin:miter;stroke:rgb(100%,100%,100%);stroke-opacity:1;stroke-miterlimit:4;" d="M 0.590735 34.881738 L 35.161047 34.881738 L 35.161047 4.666895 L 0.590735 4.666895 Z M 0.590735 34.881738 " transform="matrix(5.7,0,0,5.714286,0,0)"/>
<path style=" stroke:none;fill-rule:nonzero;fill:rgb(3.137255%,49.803922%,74.901961%);fill-opacity:1;" d="M 26.078125 3.320312 L 3.367188 26.675781 L 200.417969 26.675781 L 223.125 3.3125 L 26.078125 3.3125 "/>
<path style="fill:none;stroke-width:0.5;stroke-linecap:butt;stroke-linejoin:miter;stroke:rgb(100%,100%,100%);stroke-opacity:1;stroke-miterlimit:4;" d="M 4.57511 0.581055 L 0.590735 4.668262 L 35.161047 4.668262 L 39.144737 0.579687 L 4.57511 0.579687 Z M 4.57511 0.581055 " transform="matrix(5.7,0,0,5.714286,0,0)"/>
<path style=" stroke:none;fill-rule:nonzero;fill:rgb(3.137255%,49.803922%,74.901961%);fill-opacity:1;" d="M 223.125 176.003906 L 223.125 3.320312 L 200.417969 26.667969 L 200.417969 199.324219 L 223.125 176.011719 "/>
<path style="fill:none;stroke-width:0.5;stroke-linecap:butt;stroke-linejoin:miter;stroke:rgb(100%,100%,100%);stroke-opacity:1;stroke-miterlimit:4;" d="M 39.144737 30.800684 L 39.144737 0.581055 L 35.161047 4.666895 L 35.161047 34.881738 L 39.144737 30.802051 Z M 39.144737 30.800684 " transform="matrix(5.7,0,0,5.714286,0,0)"/>
<path style="fill-rule:nonzero;fill:rgb(3.137255%,49.803922%,74.901961%);fill-opacity:1;stroke-width:0.5;stroke-linecap:butt;stroke-linejoin:miter;stroke:rgb(100%,100%,100%);stroke-opacity:1;stroke-miterlimit:4;" d="M 3.832922 32.480273 L 32.367736 32.480273 L 32.367736 7.445703 L 3.832922 7.445703 Z M 3.832922 32.480273 " transform="matrix(5.7,0,0,5.714286,0,0)"/>
<path style="fill:none;stroke-width:0.5;stroke-linecap:butt;stroke-linejoin:miter;stroke:rgb(100%,100%,100%);stroke-opacity:1;stroke-dasharray:10,10;stroke-miterlimit:4;" d="M 15.27892 17.636035 L 5.176124 20.96582 " transform="matrix(5.7,0,0,5.714286,0,0)"/>
<path style=" stroke:none;fill-rule:nonzero;fill:rgb(3.137255%,49.803922%,74.901961%);fill-opacity:1;" d="M 113.804688 86.492188 L 184.167969 60.292969 L 184.167969 75.777344 L 113.804688 86.492188 "/>
<path style="fill:none;stroke-width:0.5;stroke-linecap:butt;stroke-linejoin:miter;stroke:rgb(100%,100%,100%);stroke-opacity:1;stroke-miterlimit:4;" d="M 19.965735 15.136133 L 32.31017 10.55127 L 32.31017 13.261035 Z M 19.965735 15.136133 " transform="matrix(5.7,0,0,5.714286,0,0)"/>
<path style="fill-rule:nonzero;fill:rgb(3.137255%,49.803922%,74.901961%);fill-opacity:1;stroke-width:0.5;stroke-linecap:butt;stroke-linejoin:miter;stroke:rgb(100%,100%,100%);stroke-opacity:1;stroke-miterlimit:4;" d="M 19.965735 15.136133 L 32.31017 13.466113 L 32.31017 16.175879 L 19.965735 15.136133 " transform="matrix(5.7,0,0,5.714286,0,0)"/>
<path style="fill-rule:nonzero;fill:rgb(3.137255%,49.803922%,74.901961%);fill-opacity:1;stroke-width:0.5;stroke-linecap:butt;stroke-linejoin:miter;stroke:rgb(100%,100%,100%);stroke-opacity:1;stroke-miterlimit:4;" d="M 19.965735 15.136133 L 32.31017 16.201172 L 32.31017 18.906152 L 19.965735 15.136133 " transform="matrix(5.7,0,0,5.714286,0,0)"/>
<path style=" stroke:none;fill-rule:nonzero;fill:rgb(100%,100%,100%);fill-opacity:1;" d="M 155.496094 163.582031 L 54.433594 163.582031 L 104.984375 62.285156 L 155.496094 163.589844 "/>
</g>
</svg>
