<?xml version="1.0" encoding="UTF-8"?>
<svg xmlns="http://www.w3.org/2000/svg" xmlns:xlink="http://www.w3.org/1999/xlink" width="246pt" height="200pt" viewBox="0 0 246 200" version="1.1">
<g id="surface1">
<path style="fill-rule:nonzero;fill:rgb(3.137255%,48.235294%,73.333333%);fill-opacity:1;stroke-width:0.5;stroke-linecap:butt;stroke-linejoin:miter;stroke:rgb(100%,100%,100%);stroke-opacity:1;stroke-miterlimit:4;" d="M 13.935055 39.633906 L 47.436246 39.633906 L 47.436246 6.103984 L 13.935055 6.103984 Z M 13.935055 39.633906 " transform="matrix(4.641509,0,0,4.651163,0,0)"/>
<path style=" stroke:none;fill-rule:nonzero;fill:rgb(3.137255%,48.235294%,73.333333%);fill-opacity:1;" d="M 82.855469 8.246094 L 238.375 8.246094 L 218.90625 27.933594 L 63.417969 27.933594 L 82.855469 8.246094 "/>
<path style="fill:none;stroke-width:0.5;stroke-linecap:butt;stroke-linejoin:miter;stroke:rgb(100%,100%,100%);stroke-opacity:1;stroke-miterlimit:4;" d="M 17.850975 1.77291 L 51.357215 1.77291 L 47.162729 6.005723 L 13.663221 6.005723 Z M 17.850975 1.77291 " transform="matrix(4.641509,0,0,4.651163,0,0)"/>
<path style=" stroke:none;fill-rule:nonzero;fill:rgb(3.137255%,48.235294%,73.333333%);fill-opacity:1;" d="M 239.027344 159.585938 L 219.566406 188.09375 L 219.566406 26.929688 L 239.039062 7.222656 L 239.039062 159.582031 "/>
<path style="fill:none;stroke-width:0.5;stroke-linecap:butt;stroke-linejoin:miter;stroke:rgb(100%,100%,100%);stroke-opacity:1;stroke-miterlimit:4;" d="M 51.497761 34.310977 L 47.304957 40.440156 L 47.304957 5.789883 L 51.500286 1.552031 L 51.500286 34.310977 Z M 51.497761 34.310977 " transform="matrix(4.641509,0,0,4.651163,0,0)"/>
<path style="fill-rule:nonzero;fill:rgb(3.137255%,48.235294%,73.333333%);fill-opacity:1;stroke-width:0.5;stroke-linecap:butt;stroke-linejoin:miter;stroke:rgb(100%,100%,100%);stroke-opacity:1;stroke-miterlimit:4;" d="M 0.355993 39.633906 L 13.935896 39.633906 L 13.935896 6.103984 L 0.355151 6.103984 L 0.355151 39.633906 Z M 0.355993 39.633906 " transform="matrix(4.641509,0,0,4.651163,0,0)"/>
<path style=" stroke:none;fill-rule:nonzero;fill:rgb(3.137255%,48.235294%,73.333333%);fill-opacity:1;" d="M 22.257812 8.246094 L 85.28125 8.246094 L 65.816406 27.933594 L 2.785156 27.933594 L 22.257812 8.246094 "/>
<path style="fill:none;stroke-width:0.5;stroke-linecap:butt;stroke-linejoin:miter;stroke:rgb(100%,100%,100%);stroke-opacity:1;stroke-miterlimit:4;" d="M 4.795382 1.77291 L 18.373603 1.77291 L 14.179957 6.005723 L 0.600054 6.005723 Z M 13.935055 6.103145 L 13.935055 39.633066 " transform="matrix(4.641509,0,0,4.651163,0,0)"/>
<path style="fill-rule:nonzero;fill:rgb(69.803922%,69.803922%,69.803922%);fill-opacity:1;stroke-width:0.5;stroke-linecap:butt;stroke-linejoin:miter;stroke:rgb(100%,100%,100%);stroke-opacity:1;stroke-miterlimit:4;" d="M 14.140403 6.005723 L 18.334889 1.77291 " transform="matrix(4.641509,0,0,4.651163,0,0)"/>
<path style=" stroke:none;fill-rule:nonzero;fill:rgb(100%,100%,100%);fill-opacity:1;" d="M 31.1875 71.5625 L 30.617188 72.332031 C 26.714844 78.261719 23.527344 81.214844 21.007812 81.214844 C 18.128906 81.214844 15.296875 78.917969 12.507812 74.332031 C 12.898438 74.332031 13.167969 74.351562 13.347656 74.351562 C 16.636719 74.351562 20.285156 71.8125 24.316406 66.726562 L 25.339844 65.410156 L 24.023438 63.976562 C 20.285156 60.046875 18.425781 56.730469 18.425781 53.984375 C 18.425781 51.753906 20.464844 49.101562 24.542969 46.054688 C 25.109375 49.960938 26.832031 53.757812 29.6875 57.460938 L 30.820312 58.910156 L 31.730469 57.734375 C 35.902344 52.347656 39.683594 49.640625 43.109375 49.640625 C 45.757812 49.640625 47.769531 51.6875 49.160156 55.78125 C 48.746094 55.734375 48.457031 55.6875 48.25 55.6875 C 47.070312 55.6875 45.394531 56.507812 43.21875 58.117188 C 41.117188 59.664062 39.253906 61.515625 37.695312 63.609375 L 36.535156 65.136719 L 37.644531 66.203125 C 41.703125 70.113281 45.867188 72.082031 50.246094 72.082031 C 47.910156 76.828125 45.464844 79.191406 42.925781 79.191406 C 40.613281 79.191406 37.285156 77.167969 32.929688 73.128906 L 31.1875 71.5625 M 49.113281 130.113281 C 45.304688 134.175781 41.132812 139.488281 36.578125 146.050781 C 32.046875 152.636719 28.664062 158.226562 26.453125 162.882812 L 23.6875 164.765625 C 21.375 166.351562 19.808594 167.582031 18.96875 168.375 C 18.652344 167.171875 17.949219 165.21875 16.835938 162.539062 L 15.800781 160.136719 C 14.277344 156.589844 12.898438 153.976562 11.605469 152.296875 C 10.308594 150.589844 8.859375 149.507812 7.25 148.980469 C 9.972656 146.050781 12.460938 144.578125 14.730469 144.578125 C 16.636719 144.578125 18.761719 147.226562 21.125 152.507812 L 22.277344 155.15625 C 26.714844 147.683594 33.609375 139.332031 42.941406 130.113281 L 45.511719 127.679688 L 52.601562 122.050781 C 54.394531 120.820312 56.070312 119.800781 57.660156 118.933594 L 59.039062 120.886719 C 57.699219 121.886719 56.226562 123.09375 54.621094 124.480469 L 49.113281 130.105469 "/>
<path style="fill:none;stroke-width:0.5;stroke-linecap:butt;stroke-linejoin:miter;stroke:rgb(100%,100%,100%);stroke-opacity:1;stroke-miterlimit:4;" d="M 13.818915 22.255859 L 0.239012 22.255859 " transform="matrix(4.641509,0,0,4.651163,0,0)"/>
<path style="fill:none;stroke-width:0.5;stroke-linecap:round;stroke-linejoin:round;stroke:rgb(100%,100%,100%);stroke-opacity:1;stroke-miterlimit:4;" d="M 47.197234 30.199941 L 13.887084 30.199941 M 47.197234 34.814883 L 13.887084 34.814883 M 51.157759 29.29291 L 47.470751 34.88291 M 23.749682 35.04332 L 23.749682 39.233301 M 36.636115 35.04332 L 36.636115 39.233301 M 30.453792 30.404863 L 30.453792 34.594844 M 17.569042 30.404863 L 17.569042 34.594844 M 43.335175 30.404863 L 43.335175 34.594844 " transform="matrix(4.641509,0,0,4.651163,0,0)"/>
<path style=" stroke:none;fill-rule:nonzero;fill:rgb(0%,0%,0%);fill-opacity:1;" d="M 219.320312 140.894531 L 238.535156 112.511719 "/>
<path style="fill:none;stroke-width:0.5;stroke-linecap:butt;stroke-linejoin:miter;stroke:rgb(100%,100%,100%);stroke-opacity:1;stroke-miterlimit:4;" d="M 47.251937 30.293164 L 51.391721 24.19002 " transform="matrix(4.641509,0,0,4.651163,0,0)"/>
<path style="fill:none;stroke-width:0.5;stroke-linecap:round;stroke-linejoin:round;stroke:rgb(100%,100%,100%);stroke-opacity:1;stroke-miterlimit:4;" d="M 49.223784 32.826973 L 49.223784 37.772813 M 50.106612 26.635645 L 50.106612 31.583164 " transform="matrix(4.641509,0,0,4.651163,0,0)"/>
<path style=" stroke:none;fill-rule:nonzero;fill:rgb(100%,100%,100%);fill-opacity:1;" d="M 108.195312 133.628906 C 110.945312 133.628906 113.179688 131.390625 113.179688 128.632812 C 113.179688 125.875 110.945312 123.636719 108.195312 123.636719 C 105.441406 123.636719 103.207031 125.875 103.207031 128.632812 C 103.207031 131.390625 105.441406 133.628906 108.195312 133.628906 "/>
<path style="fill:none;stroke-width:0.5;stroke-linecap:butt;stroke-linejoin:miter;stroke:rgb(0%,0%,0%);stroke-opacity:1;stroke-miterlimit:4;" d="M 23.310372 28.731055 C 23.903693 28.731055 24.384242 28.249824 24.384242 27.656895 C 24.384242 27.063125 23.903693 26.581895 23.310372 26.581895 C 22.918191 26.570137 22.551258 26.772539 22.351801 27.109316 C 22.152344 27.446934 22.152344 27.866016 22.351801 28.203633 C 22.551258 28.54041 22.918191 28.742812 23.310372 28.731055 Z M 23.310372 28.731055 " transform="matrix(4.641509,0,0,4.651163,0,0)"/>
<path style=" stroke:none;fill-rule:nonzero;fill:rgb(100%,100%,100%);fill-opacity:1;" d="M 103.914062 123.296875 L 113.683594 132.859375 L 141.242188 104.582031 L 131.472656 95.023438 L 103.914062 123.296875 "/>
<path style="fill:none;stroke-width:0.5;stroke-linecap:butt;stroke-linejoin:miter;stroke:rgb(0%,0%,0%);stroke-opacity:1;stroke-miterlimit:4;" d="M 22.387989 26.508828 L 24.492807 28.564766 L 30.430227 22.485137 L 28.32541 20.430039 Z M 22.387989 26.508828 " transform="matrix(4.641509,0,0,4.651163,0,0)"/>
<path style=" stroke:none;fill-rule:nonzero;fill:rgb(100%,100%,100%);fill-opacity:1;" d="M 127.570312 74.199219 C 127.570312 94.859375 144.363281 111.6875 164.992188 111.6875 C 185.613281 111.6875 202.410156 94.859375 202.410156 74.199219 C 202.410156 53.53125 185.613281 36.722656 164.992188 36.722656 C 144.371094 36.722656 127.570312 53.53125 127.570312 74.199219 Z M 132.8125 74.199219 C 132.828125 56.398438 147.226562 41.96875 164.992188 41.949219 C 182.734375 41.949219 197.171875 56.414062 197.171875 74.199219 C 197.171875 91.976562 182.734375 106.445312 164.992188 106.445312 C 147.230469 106.421875 132.835938 92 132.8125 74.199219 "/>
<path style="fill:none;stroke-width:0.5;stroke-linecap:butt;stroke-linejoin:miter;stroke:rgb(0%,0%,0%);stroke-opacity:1;stroke-miterlimit:4;" d="M 27.484661 15.951992 C 27.484661 20.395605 31.102658 24.013652 35.547097 24.013652 C 39.989853 24.013652 43.608692 20.395605 43.608692 15.951992 C 43.608692 11.509219 39.989853 7.896211 35.547097 7.896211 C 31.104341 7.896211 27.484661 11.509219 27.484661 15.951992 Z M 28.614075 15.951992 C 28.617442 12.123984 31.719544 9.021602 35.547097 9.018242 C 39.374651 9.021602 42.476753 12.123984 42.480119 15.951992 C 42.480119 19.774961 39.369601 22.885742 35.547097 22.885742 C 31.723752 22.885742 28.614075 19.774961 28.614075 15.951992 Z M 28.614075 15.951992 " transform="matrix(4.641509,0,0,4.651163,0,0)"/>
<path style=" stroke:none;fill-rule:nonzero;fill:rgb(100%,100%,100%);fill-opacity:1;" d="M 123.199219 76.351562 C 123.199219 97.042969 139.96875 113.851562 160.621094 113.851562 C 181.238281 113.851562 198.011719 97.042969 198.011719 76.351562 C 198.011719 55.6875 181.238281 38.882812 160.621094 38.882812 C 139.96875 38.882812 123.199219 55.6875 123.199219 76.351562 Z M 128.433594 76.351562 C 128.449219 58.546875 142.851562 44.117188 160.621094 44.101562 C 178.363281 44.101562 192.78125 58.566406 192.78125 76.351562 C 192.78125 94.136719 178.363281 108.605469 160.621094 108.605469 C 142.871094 108.605469 128.433594 94.136719 128.433594 76.351562 "/>
<path style="fill:none;stroke-width:0.5;stroke-linecap:butt;stroke-linejoin:miter;stroke:rgb(0%,0%,0%);stroke-opacity:1;stroke-miterlimit:4;" d="M 26.542921 16.415586 C 26.542921 20.865078 30.155869 24.478086 34.605358 24.478086 C 39.047272 24.478086 42.661061 20.865078 42.661061 16.415586 C 42.661061 11.971973 39.047272 8.359805 34.605358 8.359805 C 30.155869 8.359805 26.542921 11.971973 26.542921 16.415586 Z M 27.670652 16.415586 C 27.674019 12.587578 30.776963 9.485195 34.605358 9.481836 C 38.427861 9.481836 41.534172 12.591777 41.534172 16.415586 C 41.534172 20.240234 38.427861 23.350176 34.605358 23.350176 C 30.776963 23.346816 27.674019 20.244434 27.670652 16.415586 Z M 27.670652 16.415586 " transform="matrix(4.641509,0,0,4.651163,0,0)"/>
</g>
</svg>
