<?xml version="1.0" encoding="UTF-8"?>
<svg xmlns="http://www.w3.org/2000/svg" xmlns:xlink="http://www.w3.org/1999/xlink" width="218pt" height="200pt" viewBox="0 0 218 200" version="1.1">
<g id="surface1">
<path style=" stroke:none;fill-rule:nonzero;fill:rgb(0.784314%,42.352941%,60.784314%);fill-opacity:1;" d="M 2.859375 163.15625 L 181.53125 163.15625 L 181.53125 129.574219 L 2.859375 129.574219 Z M 2.859375 163.15625 "/>
<path style="fill:none;stroke-width:0.5;stroke-linecap:butt;stroke-linejoin:miter;stroke:rgb(100%,100%,100%);stroke-opacity:1;stroke-miterlimit:4;" d="M 0.629587 35.892656 L 39.970183 35.892656 L 39.970183 28.504609 L 0.629587 28.504609 Z M 27.920298 32.675156 L 37.840596 32.675156 M 27.920298 32.323672 L 37.840596 32.323672 " transform="matrix(4.541667,0,0,4.545455,0,0)"/>
<path style=" stroke:none;fill-rule:nonzero;fill:rgb(0.784314%,42.352941%,60.784314%);fill-opacity:1;" d="M 211.542969 131.277344 L 211.542969 101.25 L 181.535156 129.574219 L 181.535156 162.953125 L 211.542969 131.277344 "/>
<path style="fill:none;stroke-width:0.5;stroke-linecap:butt;stroke-linejoin:miter;stroke:rgb(100%,100%,100%);stroke-opacity:1;stroke-miterlimit:4;" d="M 46.578268 28.881016 L 46.578268 22.275 L 39.971044 28.504609 L 39.971044 35.848828 Z M 46.578268 28.881016 " transform="matrix(4.541667,0,0,4.545455,0,0)"/>
<path style=" stroke:none;fill-rule:nonzero;fill:rgb(0.784314%,42.352941%,60.784314%);fill-opacity:1;" d="M 149.800781 190.425781 L 149.800781 182.90625 L 166.035156 160.417969 L 166.035156 174.183594 L 149.800781 190.425781 "/>
<path style="fill:none;stroke-width:0.5;stroke-linecap:butt;stroke-linejoin:miter;stroke:rgb(100%,100%,100%);stroke-opacity:1;stroke-miterlimit:4;" d="M 32.983658 41.893672 L 32.983658 40.239375 L 36.5582 35.292812 L 36.5582 38.320391 Z M 32.983658 41.893672 " transform="matrix(4.541667,0,0,4.545455,0,0)"/>
<path style=" stroke:none;fill-rule:nonzero;fill:rgb(0.784314%,42.352941%,60.784314%);fill-opacity:1;" d="M 6.808594 190.433594 L 149.800781 190.433594 L 149.800781 183.019531 L 6.808594 183.019531 Z M 6.808594 190.433594 "/>
<path style="fill:none;stroke-width:0.5;stroke-linecap:butt;stroke-linejoin:miter;stroke:rgb(100%,100%,100%);stroke-opacity:1;stroke-miterlimit:4;" d="M 1.49914 41.89625 L 32.983658 41.89625 L 32.983658 40.264297 L 1.49914 40.264297 Z M 1.49914 41.89625 " transform="matrix(4.541667,0,0,4.545455,0,0)"/>
<path style=" stroke:none;fill-rule:nonzero;fill:rgb(0.784314%,42.352941%,60.784314%);fill-opacity:1;" d="M 149.800781 183.019531 L 6.808594 183.019531 L 23.347656 160.417969 L 166.035156 160.417969 L 149.800781 183.019531 "/>
<path style="fill:none;stroke-width:0.5;stroke-linecap:butt;stroke-linejoin:miter;stroke:rgb(100%,100%,100%);stroke-opacity:1;stroke-miterlimit:4;" d="M 32.983658 40.264297 L 1.49914 40.264297 L 5.140768 35.292812 L 36.5582 35.292812 Z M 32.983658 40.264297 " transform="matrix(4.541667,0,0,4.545455,0,0)"/>
<path style=" stroke:none;fill-rule:nonzero;fill:rgb(0.784314%,42.352941%,60.784314%);fill-opacity:1;" d="M 211.542969 101.25 L 32.789062 101.25 L 2.859375 129.574219 L 181.53125 129.574219 L 211.539062 101.25 "/>
<path style="fill:none;stroke-width:0.5;stroke-linecap:butt;stroke-linejoin:miter;stroke:rgb(100%,100%,100%);stroke-opacity:1;stroke-miterlimit:4;" d="M 46.578268 22.275 L 7.21961 22.275 L 0.629587 28.504609 L 39.970183 28.504609 L 46.577408 22.275 Z M 46.578268 22.275 " transform="matrix(4.541667,0,0,4.545455,0,0)"/>
<path style=" stroke:none;fill-rule:nonzero;fill:rgb(0.784314%,42.352941%,60.784314%);fill-opacity:1;" d="M 34.816406 112.949219 L 158.09375 112.949219 L 158.09375 22.527344 L 34.816406 22.527344 Z M 34.816406 112.949219 "/>
<path style="fill:none;stroke-width:0.5;stroke-linecap:butt;stroke-linejoin:miter;stroke:rgb(100%,100%,100%);stroke-opacity:1;stroke-miterlimit:4;" d="M 7.665998 24.847969 L 34.809633 24.847969 L 34.809633 4.955156 L 7.665998 4.955156 Z M 7.665998 24.847969 " transform="matrix(4.541667,0,0,4.545455,0,0)"/>
<path style=" stroke:none;fill-rule:nonzero;fill:rgb(0.784314%,42.352941%,60.784314%);fill-opacity:1;" d="M 45.21875 42.34375 C 45.21875 33.289062 54.617188 31.9375 54.617188 31.9375 L 135.855469 31.9375 C 147.269531 31.9375 146.9375 42.683594 146.9375 42.683594 L 146.9375 93.414062 C 146.9375 99.808594 138.203125 102.496094 138.203125 102.496094 L 55.953125 102.496094 C 47.90625 102.496094 45.222656 94.078125 45.222656 94.078125 L 45.222656 42.351562 "/>
<path style="fill:none;stroke-width:0.5;stroke-linecap:butt;stroke-linejoin:miter;stroke:rgb(100%,100%,100%);stroke-opacity:1;stroke-miterlimit:4;" d="M 9.956422 9.315625 C 9.956422 7.323594 12.025803 7.02625 12.025803 7.02625 L 29.913131 7.02625 C 32.426319 7.02625 32.353211 9.388672 32.353211 9.388672 L 32.353211 20.551953 C 32.353211 21.957891 30.430046 22.549141 30.430046 22.549141 L 12.319954 22.549141 C 10.548165 22.549141 9.957282 20.698047 9.957282 20.698047 L 9.957282 9.315625 Z M 9.956422 9.315625 " transform="matrix(4.541667,0,0,4.545455,0,0)"/>
<path style=" stroke:none;fill-rule:nonzero;fill:rgb(0.784314%,42.352941%,60.784314%);fill-opacity:1;" d="M 178.652344 3.039062 L 55.460938 3.039062 L 34.816406 22.527344 L 158.09375 22.527344 L 178.652344 3.039062 "/>
<path style="fill:none;stroke-width:0.5;stroke-linecap:butt;stroke-linejoin:miter;stroke:rgb(100%,100%,100%);stroke-opacity:1;stroke-miterlimit:4;" d="M 39.336296 0.668594 L 12.211583 0.668594 L 7.665998 4.955156 L 34.809633 4.955156 L 39.336296 0.670312 Z M 39.336296 0.668594 " transform="matrix(4.541667,0,0,4.545455,0,0)"/>
<path style=" stroke:none;fill-rule:nonzero;fill:rgb(0.784314%,42.352941%,60.784314%);fill-opacity:1;" d="M 178.652344 93.703125 L 178.652344 3 L 158.09375 22.363281 L 158.09375 112.953125 L 178.652344 93.710938 "/>
<path style="fill:none;stroke-width:0.5;stroke-linecap:butt;stroke-linejoin:miter;stroke:rgb(100%,100%,100%);stroke-opacity:1;stroke-miterlimit:4;" d="M 39.336296 20.614687 L 39.336296 0.66 L 34.809633 4.920781 L 34.809633 24.847969 Z M 39.336296 20.614687 " transform="matrix(4.541667,0,0,4.545455,0,0)"/>
<path style=" stroke:none;fill-rule:nonzero;fill:rgb(0%,0%,0%);fill-opacity:1;" d="M 93.761719 69.222656 L 93.761719 85.761719 L 85.691406 85.761719 L 97.265625 99.117188 L 109.214844 85.761719 L 100.433594 85.761719 L 100.433594 69.21875 L 93.761719 69.21875 "/>
<path style=" stroke:none;fill-rule:nonzero;fill:rgb(100%,100%,100%);fill-opacity:1;" d="M 91.34375 69.066406 L 91.34375 85.601562 L 83.269531 85.601562 L 94.871094 98.964844 L 106.796875 85.601562 L 98.023438 85.601562 L 98.023438 69.066406 L 91.347656 69.066406 "/>
<path style=" stroke:none;fill-rule:nonzero;fill:rgb(0%,0%,0%);fill-opacity:1;" d="M 93.761719 64.714844 L 93.761719 48.183594 L 85.691406 48.183594 L 97.265625 34.824219 L 109.214844 48.1875 L 100.433594 48.1875 L 100.433594 64.714844 L 93.761719 64.714844 "/>
<path style=" stroke:none;fill-rule:nonzero;fill:rgb(100%,100%,100%);fill-opacity:1;" d="M 91.34375 64.855469 L 91.34375 48.339844 L 83.269531 48.339844 L 94.871094 34.976562 L 106.796875 48.339844 L 98.023438 48.339844 L 98.023438 64.855469 L 91.347656 64.855469 "/>
<path style=" stroke:none;fill-rule:nonzero;fill:rgb(0%,0%,0%);fill-opacity:1;" d="M 135.097656 73.039062 L 118.582031 73.039062 L 118.582031 81.140625 L 105.230469 69.53125 L 118.582031 57.574219 L 118.582031 66.363281 L 135.101562 66.363281 L 135.101562 73.039062 "/>
<path style=" stroke:none;fill-rule:nonzero;fill:rgb(100%,100%,100%);fill-opacity:1;" d="M 133.234375 70.730469 L 116.722656 70.730469 L 116.722656 78.835938 L 103.367188 67.226562 L 116.722656 55.261719 L 116.722656 64.050781 L 133.238281 64.050781 L 133.238281 70.730469 "/>
<path style=" stroke:none;fill-rule:nonzero;fill:rgb(0%,0%,0%);fill-opacity:1;" d="M 58.148438 73.039062 L 74.664062 73.039062 L 74.664062 81.140625 L 87.996094 69.53125 L 74.664062 57.574219 L 74.664062 66.363281 L 58.148438 66.363281 L 58.148438 73.039062 "/>
<path style=" stroke:none;fill-rule:nonzero;fill:rgb(100%,100%,100%);fill-opacity:1;" d="M 57.503906 70.730469 L 74 70.730469 L 74 78.835938 L 87.355469 67.226562 L 74 55.261719 L 74 64.050781 L 57.503906 64.050781 L 57.503906 70.730469 "/>
</g>
</svg>
