<?xml version="1.0" encoding="UTF-8"?>
<svg xmlns="http://www.w3.org/2000/svg" xmlns:xlink="http://www.w3.org/1999/xlink" width="232pt" height="200pt" viewBox="0 0 232 200" version="1.1">
<g id="surface1">
<path style=" stroke:none;fill-rule:nonzero;fill:rgb(0.784314%,43.921569%,62.352941%);fill-opacity:1;" d="M 117.398438 160.972656 C 161.460938 160.972656 197.140625 125.21875 197.140625 81.121094 C 197.140625 37.050781 161.460938 1.289062 117.398438 1.289062 C 73.34375 1.289062 37.667969 37.050781 37.667969 81.121094 C 37.667969 125.21875 73.34375 160.972656 117.398438 160.972656 "/>
<path style="fill:none;stroke-width:0.5;stroke-linecap:butt;stroke-linejoin:miter;stroke:rgb(100%,100%,100%);stroke-opacity:1;stroke-miterlimit:4;" d="M 18.216999 24.950762 C 25.054283 24.950762 30.590787 19.408906 30.590787 12.57377 C 30.590787 5.742871 25.054283 0.199805 18.216999 0.199805 C 11.380927 0.199805 5.84503 5.742871 5.84503 12.57377 C 5.84503 19.408906 11.380927 24.950762 18.216999 24.950762 Z M 18.216999 24.950762 " transform="matrix(6.444444,0,0,6.451613,0,0)"/>
<path style=" stroke:none;fill-rule:nonzero;fill:rgb(0.784314%,43.921569%,62.352941%);fill-opacity:1;" d="M 1.882812 202.304688 L 22.53125 78.730469 C 22.53125 131.613281 65.351562 174.523438 118.230469 174.523438 C 171.054688 174.523438 213.917969 131.613281 213.917969 78.730469 L 233.359375 202.433594 L 1.882812 202.304688 "/>
<path style="fill:none;stroke-width:0.5;stroke-linecap:butt;stroke-linejoin:miter;stroke:rgb(100%,100%,100%);stroke-opacity:1;stroke-miterlimit:4;" d="M 0.292161 31.357227 L 3.496228 12.203223 C 3.496228 20.400059 10.14076 27.051133 18.346107 27.051133 C 26.542969 27.051133 33.194168 20.400059 33.194168 12.203223 L 36.210938 31.377207 Z M 0.292161 31.357227 " transform="matrix(6.444444,0,0,6.451613,0,0)"/>
<path style="fill-rule:nonzero;fill:rgb(0.784314%,43.921569%,62.352941%);fill-opacity:1;stroke-width:0.5;stroke-linecap:butt;stroke-linejoin:miter;stroke:rgb(100%,100%,100%);stroke-opacity:1;stroke-miterlimit:4;" d="M 9.740706 15.800918 L 26.615706 15.800918 L 26.615706 10.176113 L 9.740706 10.176113 Z M 9.740706 15.800918 " transform="matrix(6.444444,0,0,6.451613,0,0)"/>
</g>
</svg>
