<?xml version="1.0" encoding="UTF-8"?>
<svg xmlns="http://www.w3.org/2000/svg" xmlns:xlink="http://www.w3.org/1999/xlink" width="251pt" height="200pt" viewBox="0 0 251 200" version="1.1">
<g id="surface1">
<path style="fill-rule:nonzero;fill:rgb(0.784314%,43.921569%,62.352941%);fill-opacity:1;stroke-width:0.5;stroke-linecap:butt;stroke-linejoin:miter;stroke:rgb(100%,100%,100%);stroke-opacity:1;stroke-miterlimit:4;" d="M 0.501945 29.27502 L 26.737239 29.27502 L 26.737239 23.118008 L 0.501945 23.118008 Z M 0.501945 29.27502 " transform="matrix(6.435897,0,0,6.451613,0,0)"/>
<path style=" stroke:none;fill-rule:nonzero;fill:rgb(0.784314%,43.921569%,62.352941%);fill-opacity:1;" d="M 172.089844 149.148438 L 3.050781 149.148438 L 83.371094 32.269531 L 244.886719 32.269531 L 172.097656 149.148438 "/>
<path style="fill:none;stroke-width:0.5;stroke-linecap:butt;stroke-linejoin:miter;stroke:rgb(100%,100%,100%);stroke-opacity:1;stroke-miterlimit:4;" d="M 26.739059 23.118008 L 0.474026 23.118008 L 12.954074 5.001777 L 38.050128 5.001777 L 26.740273 23.116797 Z M 26.739059 23.118008 " transform="matrix(6.435897,0,0,6.451613,0,0)"/>
<path style=" stroke:none;fill-rule:nonzero;fill:rgb(0.784314%,43.921569%,62.352941%);fill-opacity:1;" d="M 244.890625 32.277344 L 244.890625 106.992188 L 172.097656 189.304688 L 172.097656 149.148438 L 244.886719 32.277344 "/>
<path style="fill:none;stroke-width:0.5;stroke-linecap:butt;stroke-linejoin:miter;stroke:rgb(100%,100%,100%);stroke-opacity:1;stroke-miterlimit:4;" d="M 38.050735 5.001777 L 38.050735 16.583789 L 26.740273 29.342832 L 26.740273 23.118008 L 38.050128 5.001777 Z M 38.050735 5.001777 " transform="matrix(6.435897,0,0,6.451613,0,0)"/>
<path style="fill-rule:nonzero;fill:rgb(0.784314%,43.921569%,62.352941%);fill-opacity:1;stroke-width:0.5;stroke-linecap:butt;stroke-linejoin:miter;stroke:rgb(100%,100%,100%);stroke-opacity:1;stroke-miterlimit:4;" d="M 26.739059 23.118008 L 38.050128 5.001777 " transform="matrix(6.435897,0,0,6.451613,0,0)"/>
<path style=" stroke:none;fill-rule:nonzero;fill:rgb(0.784314%,43.921569%,62.352941%);fill-opacity:1;" d="M 136.761719 53.527344 C 126.394531 65.476562 113.601562 79.425781 105.40625 92.949219 L 106.097656 101.703125 L 80.511719 141.328125 L 77.558594 115.566406 C 82.398438 96.03125 142.800781 19.386719 156.71875 10.316406 L 159.675781 36.117188 L 137.425781 61.753906 L 136.761719 53.527344 "/>
<path style="fill:none;stroke-width:0.5;stroke-linecap:butt;stroke-linejoin:miter;stroke:rgb(100%,100%,100%);stroke-opacity:1;stroke-miterlimit:4;" d="M 21.249829 8.297949 C 19.638991 10.148262 17.651239 12.312207 16.377864 14.407129 L 16.485293 15.763984 L 12.509789 21.90707 L 12.050937 17.912793 C 12.802944 14.884844 22.188169 3.004941 24.350722 1.599043 L 24.810181 5.598164 L 21.35301 9.573066 Z M 21.249829 8.297949 " transform="matrix(6.435897,0,0,6.451613,0,0)"/>
<path style=" stroke:none;fill-rule:nonzero;fill:rgb(0.784314%,43.921569%,62.352941%);fill-opacity:1;" d="M 47.328125 115.566406 L 44.375 141.328125 L 80.511719 141.328125 L 77.558594 115.566406 L 47.328125 115.566406 "/>
<path style="fill:none;stroke-width:0.5;stroke-linecap:butt;stroke-linejoin:miter;stroke:rgb(100%,100%,100%);stroke-opacity:1;stroke-miterlimit:4;" d="M 7.353772 17.912793 L 6.89492 21.90707 L 12.509789 21.90707 L 12.050937 17.912793 Z M 7.353772 17.912793 " transform="matrix(6.435897,0,0,6.451613,0,0)"/>
<path style=" stroke:none;fill-rule:nonzero;fill:rgb(0.784314%,43.921569%,62.352941%);fill-opacity:1;" d="M 156.714844 10.316406 C 142.792969 19.386719 82.398438 96.03125 77.558594 115.566406 L 47.328125 115.566406 C 52.195312 96.03125 112.5625 19.386719 126.492188 10.316406 L 156.714844 10.316406 "/>
<path style="fill:none;stroke-width:0.5;stroke-linecap:butt;stroke-linejoin:miter;stroke:rgb(100%,100%,100%);stroke-opacity:1;stroke-miterlimit:4;" d="M 24.350115 1.600254 C 22.186955 3.004941 12.802944 14.884844 12.050937 17.912793 L 7.353772 17.912793 C 8.110029 14.884844 17.489791 3.004941 19.654165 1.599043 L 24.350115 1.599043 Z M 24.350115 1.600254 " transform="matrix(6.435897,0,0,6.451613,0,0)"/>
<path style=" stroke:none;fill-rule:nonzero;fill:rgb(0.784314%,43.921569%,62.352941%);fill-opacity:1;" d="M 104.519531 135.695312 L 140.191406 84.664062 L 193.894531 84.664062 L 162.035156 135.695312 L 104.519531 135.695312 "/>
<path style="fill:none;stroke-width:0.5;stroke-linecap:butt;stroke-linejoin:miter;stroke:rgb(100%,100%,100%);stroke-opacity:1;stroke-miterlimit:4;" d="M 16.240087 21.032773 L 21.782728 13.121719 L 30.127039 13.121719 L 25.176777 21.032168 L 16.240087 21.032168 Z M 16.240087 21.032773 " transform="matrix(6.435897,0,0,6.451613,0,0)"/>
<path style=" stroke:none;fill-rule:nonzero;fill:rgb(0.784314%,43.921569%,62.352941%);fill-opacity:1;" d="M 142.859375 135.695312 L 176.015625 84.664062 "/>
<path style="fill:none;stroke-width:0.5;stroke-linecap:butt;stroke-linejoin:miter;stroke:rgb(100%,100%,100%);stroke-opacity:1;stroke-miterlimit:4;" d="M 22.197273 21.032773 L 27.349041 13.121719 " transform="matrix(6.435897,0,0,6.451613,0,0)"/>
<path style=" stroke:none;fill-rule:nonzero;fill:rgb(0.784314%,43.921569%,62.352941%);fill-opacity:1;" d="M 123.691406 135.695312 L 158.097656 84.664062 "/>
<path style="fill:none;stroke-width:0.5;stroke-linecap:butt;stroke-linejoin:miter;stroke:rgb(100%,100%,100%);stroke-opacity:1;stroke-miterlimit:4;" d="M 19.218983 21.032773 L 24.564974 13.121719 M 26.416163 19.054707 L 17.626961 19.054707 M 27.651301 17.077852 L 19.013835 17.077852 M 28.891294 15.099785 L 20.395247 15.099785 " transform="matrix(6.435897,0,0,6.451613,0,0)"/>
</g>
</svg>
