<?xml version="1.0" encoding="UTF-8"?>
<svg xmlns="http://www.w3.org/2000/svg" xmlns:xlink="http://www.w3.org/1999/xlink" width="129pt" height="200pt" viewBox="0 0 129 200" version="1.1">
<g id="surface1">
<path style="fill-rule:nonzero;fill:rgb(0.784314%,42.352941%,60.784314%);fill-opacity:1;stroke-width:0.5;stroke-linecap:butt;stroke-linejoin:miter;stroke:rgb(100%,100%,100%);stroke-opacity:1;stroke-miterlimit:4;" d="M 6.454578 45.541875 L 29.614462 45.541875 L 29.614462 5.88 L 6.454578 5.88 Z M 6.454578 45.541875 " transform="matrix(4.16129,0,0,4.166667,0,0)"/>
<path style=" stroke:none;fill-rule:nonzero;fill:rgb(0.784314%,42.352941%,60.784314%);fill-opacity:1;" d="M 94.320312 4.726562 L 123.234375 24.5 L 26.859375 24.5 L 2.914062 4.726562 L 94.324219 4.726562 "/>
<path style="fill:none;stroke-width:0.5;stroke-linecap:butt;stroke-linejoin:miter;stroke:rgb(100%,100%,100%);stroke-opacity:1;stroke-miterlimit:4;" d="M 22.666122 1.134375 L 29.614462 5.88 L 6.454578 5.88 L 0.700279 1.134375 L 22.66706 1.134375 Z M 22.666122 1.134375 " transform="matrix(4.16129,0,0,4.166667,0,0)"/>
<path style=" stroke:none;fill-rule:nonzero;fill:rgb(0.784314%,42.352941%,60.784314%);fill-opacity:1;" d="M 2.910156 160.078125 L 2.910156 4.726562 L 26.859375 24.5 L 26.859375 189.757812 L 2.914062 160.082031 "/>
<path style="fill:none;stroke-width:0.5;stroke-linecap:butt;stroke-linejoin:miter;stroke:rgb(100%,100%,100%);stroke-opacity:1;stroke-miterlimit:4;" d="M 0.69934 38.417812 L 0.69934 1.134375 L 6.454578 5.88 L 6.454578 45.541875 L 0.700279 38.417812 Z M 0.69934 38.417812 " transform="matrix(4.16129,0,0,4.166667,0,0)"/>
<path style=" stroke:none;fill-rule:nonzero;fill:rgb(100%,100%,100%);fill-opacity:1;" d="M 50.332031 63.117188 L 50.308594 119.667969 L 54.554688 119.667969 L 54.554688 63.117188 L 61.160156 63.117188 L 52.445312 51.25 L 43.722656 63.117188 L 50.332031 63.117188 M 97.796875 107.996094 L 97.773438 51.433594 L 102.019531 51.433594 L 102.019531 107.996094 L 108.625 107.996094 L 99.910156 119.855469 L 91.191406 107.996094 L 97.789062 107.996094 M 56.34375 155.152344 L 62.78125 155.195312 L 53.542969 143.332031 L 44.820312 155.191406 L 51.078125 155.171875 C 53.703125 165.429688 65.308594 172.648438 75.804688 172.648438 C 88.386719 172.648438 101.164062 162.253906 101.164062 148.765625 L 96.613281 148.765625 C 96.613281 159.546875 85.867188 168.296875 75.804688 168.296875 C 67.824219 168.296875 58.839844 162.847656 56.34375 155.152344 "/>
</g>
</svg>
