<?xml version="1.0" encoding="UTF-8"?>
<svg xmlns="http://www.w3.org/2000/svg" xmlns:xlink="http://www.w3.org/1999/xlink" width="250pt" height="200pt" viewBox="0 0 250 200" version="1.1">
<g id="surface1">
<path style=" stroke:none;fill-rule:nonzero;fill:rgb(0.784314%,42.352941%,60.784314%);fill-opacity:1;" d="M 208.277344 38.714844 L 240.890625 6.328125 L 240.890625 6.132812 L 38.195312 6.132812 L 3.5 38.714844 L 208.277344 38.714844 "/>
<path style="fill:none;stroke-width:0.5;stroke-linecap:butt;stroke-linejoin:miter;stroke:rgb(100%,100%,100%);stroke-opacity:1;stroke-miterlimit:4;" d="M 37.489922 6.968672 L 43.360312 1.137656 L 43.360312 1.103906 L 6.875156 1.103906 L 0.63 6.968672 Z M 37.489922 6.968672 " transform="matrix(5.555556,0,0,5.555556,0,0)"/>
<path style=" stroke:none;fill-rule:nonzero;fill:rgb(0.784314%,42.352941%,60.784314%);fill-opacity:1;" d="M 209.359375 191.082031 L 209.226562 37.871094 L 4.253906 37.578125 L 4.253906 191.082031 L 209.359375 191.082031 "/>
<path style="fill:none;stroke-width:0.5;stroke-linecap:butt;stroke-linejoin:miter;stroke:rgb(100%,100%,100%);stroke-opacity:1;stroke-miterlimit:4;" d="M 37.684687 34.394766 L 37.660781 6.816094 L 0.765703 6.762656 L 0.765703 34.394766 Z M 37.684687 34.394766 " transform="matrix(5.555556,0,0,5.555556,0,0)"/>
<path style=" stroke:none;fill-rule:nonzero;fill:rgb(0.784314%,42.352941%,60.784314%);fill-opacity:1;" d="M 241.726562 158.75 L 241.699219 5.457031 L 209.226562 37.871094 L 209.359375 191.082031 L 241.726562 158.75 "/>
<path style="fill:none;stroke-width:0.5;stroke-linecap:butt;stroke-linejoin:miter;stroke:rgb(100%,100%,100%);stroke-opacity:1;stroke-miterlimit:4;" d="M 43.510781 28.575 L 43.505859 0.980859 L 37.660781 6.816094 L 37.684687 34.394766 Z M 43.510781 28.575 " transform="matrix(5.555556,0,0,5.555556,0,0)"/>
<path style="fill:none;stroke-width:0.2;stroke-linecap:butt;stroke-linejoin:miter;stroke:rgb(100%,100%,100%);stroke-opacity:1;stroke-miterlimit:4;" d="M 13.91625 34.131094 L 13.91625 6.762656 M 24.633984 34.164844 L 24.633984 6.762656 " transform="matrix(5.555556,0,0,5.555556,0,0)"/>
<path style="fill:none;stroke-width:1.25;stroke-linecap:butt;stroke-linejoin:miter;stroke:rgb(100%,100%,100%);stroke-opacity:1;stroke-miterlimit:4;" d="M 20.80125 9.833906 L 14.660156 9.833906 " transform="matrix(5.555556,0,0,5.555556,0,0)"/>
<path style=" stroke:none;fill-rule:nonzero;fill:rgb(100%,100%,100%);fill-opacity:1;" d="M 130.050781 54.640625 L 110.273438 62.722656 L 114.964844 54.640625 L 110.273438 46.554688 L 130.050781 54.640625 "/>
<path style="fill:none;stroke-width:1.25;stroke-linecap:butt;stroke-linejoin:miter;stroke:rgb(100%,100%,100%);stroke-opacity:1;stroke-miterlimit:4;" d="M 20.80125 15.048984 L 14.660156 15.048984 " transform="matrix(5.555556,0,0,5.555556,0,0)"/>
<path style=" stroke:none;fill-rule:nonzero;fill:rgb(100%,100%,100%);fill-opacity:1;" d="M 130.050781 83.609375 L 110.273438 91.695312 L 114.964844 83.609375 L 110.273438 75.550781 L 130.050781 83.605469 "/>
<path style="fill:none;stroke-width:1.25;stroke-linecap:butt;stroke-linejoin:miter;stroke:rgb(100%,100%,100%);stroke-opacity:1;stroke-miterlimit:4;" d="M 20.80125 20.268984 L 14.660156 20.268984 " transform="matrix(5.555556,0,0,5.555556,0,0)"/>
<path style=" stroke:none;fill-rule:nonzero;fill:rgb(100%,100%,100%);fill-opacity:1;" d="M 130.050781 112.601562 L 110.273438 120.65625 L 114.964844 112.601562 L 110.273438 104.523438 L 130.050781 112.601562 "/>
<path style="fill:none;stroke-width:1.25;stroke-linecap:butt;stroke-linejoin:miter;stroke:rgb(100%,100%,100%);stroke-opacity:1;stroke-miterlimit:4;" d="M 20.80125 25.484063 L 14.660156 25.484063 " transform="matrix(5.555556,0,0,5.555556,0,0)"/>
<path style=" stroke:none;fill-rule:nonzero;fill:rgb(100%,100%,100%);fill-opacity:1;" d="M 130.050781 141.578125 L 110.273438 149.660156 L 114.964844 141.578125 L 110.273438 133.496094 L 130.050781 141.578125 "/>
<path style="fill:none;stroke-width:1.25;stroke-linecap:butt;stroke-linejoin:miter;stroke:rgb(100%,100%,100%);stroke-opacity:1;stroke-miterlimit:4;" d="M 21.235078 31.313672 L 14.65875 31.313672 " transform="matrix(5.555556,0,0,5.555556,0,0)"/>
<path style=" stroke:none;fill-rule:nonzero;fill:rgb(100%,100%,100%);fill-opacity:1;" d="M 130.050781 173.964844 L 110.273438 182.050781 L 114.964844 173.964844 L 110.273438 165.910156 L 130.050781 173.964844 M 6.023438 80.273438 L 50.671875 80.273438 L 50.484375 85.394531 L 71.183594 71.078125 L 50.484375 56.746094 L 50.671875 61.882812 L 6.023438 61.882812 L 6.023438 80.273438 M 6.023438 122.394531 L 50.671875 122.394531 L 50.484375 127.527344 L 71.183594 113.207031 L 50.484375 98.882812 L 50.671875 104.003906 L 6.023438 104.003906 L 6.023438 122.394531 M 140.488281 105.828125 L 185.167969 105.828125 L 184.976562 112.5 L 205.671875 93.890625 L 184.976562 75.25 L 185.167969 81.921875 L 140.488281 81.921875 L 140.488281 105.828125 M 140.488281 160.589844 L 185.167969 160.589844 L 184.976562 167.261719 L 205.671875 148.660156 L 184.976562 130.023438 L 185.167969 136.695312 L 140.488281 136.695312 L 140.488281 160.589844 M 6.023438 164.527344 L 50.671875 164.527344 L 50.484375 169.65625 L 71.183594 155.332031 L 50.484375 141.003906 L 50.671875 146.132812 L 6.023438 146.132812 L 6.023438 164.527344 "/>
</g>
</svg>
