<?xml version="1.0" encoding="UTF-8"?>
<svg xmlns="http://www.w3.org/2000/svg" xmlns:xlink="http://www.w3.org/1999/xlink" width="350pt" height="200pt" viewBox="0 0 350 200" version="1.1">
<g id="surface1">
<path style="fill-rule:nonzero;fill:rgb(16.862745%,40%,61.960784%);fill-opacity:1;stroke-width:0.5;stroke-linecap:butt;stroke-linejoin:miter;stroke:rgb(100%,100%,100%);stroke-opacity:1;stroke-miterlimit:4;" d="M 0.76125 17.731875 L 37.982109 17.731875 L 37.982109 8.42625 L 0.761797 8.42625 L 0.761797 17.731875 Z M 0.76125 17.731875 " transform="matrix(7.142857,0,0,7.142857,0,0)"/>
<path style=" stroke:none;fill-rule:nonzero;fill:rgb(16.862745%,40%,61.960784%);fill-opacity:1;" d="M 271.3125 126.980469 L 271.3125 60.191406 L 5.308594 60.191406 L 71.042969 10.035156 L 325.6875 10.035156 L 325.6875 65.691406 L 271.3125 126.980469 "/>
<path style="fill:none;stroke-width:0.5;stroke-linecap:butt;stroke-linejoin:miter;stroke:rgb(100%,100%,100%);stroke-opacity:1;stroke-miterlimit:4;" d="M 37.98375 17.777266 L 37.98375 8.42625 L 0.743203 8.42625 L 9.946016 1.404922 L 45.59625 1.404922 L 45.59625 9.197891 L 37.98375 17.777812 Z M 37.98375 17.777266 " transform="matrix(7.142857,0,0,7.142857,0,0)"/>
<path style=" stroke:none;fill-rule:nonzero;fill:rgb(16.862745%,40%,61.960784%);fill-opacity:1;" d="M 274.136719 59 L 321.777344 11.078125 "/>
<path style="fill:none;stroke-width:0.5;stroke-linecap:butt;stroke-linejoin:miter;stroke:rgb(100%,100%,100%);stroke-opacity:1;stroke-miterlimit:4;" d="M 38.379141 8.26 L 45.048828 1.549844 " transform="matrix(7.142857,0,0,7.142857,0,0)"/>
<path style=" stroke:none;fill-rule:nonzero;fill:rgb(100%,100%,100%);fill-opacity:1;" d="M 31.5625 100.894531 L 73.972656 100.894531 L 73.972656 88.613281 L 31.570312 88.613281 L 31.570312 100.894531 Z M 87.363281 100.894531 L 129.777344 100.894531 L 129.777344 88.613281 L 87.363281 88.613281 Z M 143.171875 100.894531 L 185.585938 100.894531 L 185.585938 88.613281 L 143.171875 88.613281 Z M 198.980469 100.894531 L 241.386719 100.894531 L 241.386719 88.613281 L 198.972656 88.613281 L 198.972656 100.894531 Z M 198.980469 100.894531 "/>
<path style="fill:none;stroke-width:0.5;stroke-linecap:round;stroke-linejoin:round;stroke:rgb(16.862745%,40%,61.960784%);stroke-opacity:1;stroke-miterlimit:1;" d="M 48.145234 17.537187 C 48.442187 19.466016 47.754219 21.703828 46.127266 23.475156 C 44.418828 25.335078 42.105 26.208984 40.083203 25.955781 " transform="matrix(7.142857,0,0,7.142857,0,0)"/>
<path style="fill:none;stroke-width:0.5;stroke-linecap:round;stroke-linejoin:round;stroke:rgb(16.862745%,40%,61.960784%);stroke-opacity:1;stroke-miterlimit:1;" d="M 47.289922 17.328828 C 47.563906 19.124766 46.924062 21.205078 45.409766 22.848984 C 43.818906 24.583125 41.664766 25.395234 39.785156 25.165 " transform="matrix(7.142857,0,0,7.142857,0,0)"/>
<path style="fill:none;stroke-width:0.5;stroke-linecap:round;stroke-linejoin:round;stroke:rgb(16.862745%,40%,61.960784%);stroke-opacity:1;stroke-miterlimit:1;" d="M 46.430781 17.122109 C 46.69 18.782969 46.098828 20.706875 44.697187 22.228828 C 43.222812 23.832266 41.23 24.584219 39.493125 24.36875 " transform="matrix(7.142857,0,0,7.142857,0,0)"/>
<path style="fill:none;stroke-width:0.5;stroke-linecap:round;stroke-linejoin:round;stroke:rgb(16.862745%,40%,61.960784%);stroke-opacity:1;stroke-miterlimit:1;" d="M 45.576016 16.912109 C 45.810078 18.441172 45.269219 20.209219 43.980234 21.609766 C 42.627812 23.079766 40.795781 23.773203 39.198906 23.573047 " transform="matrix(7.142857,0,0,7.142857,0,0)"/>
<path style="fill:none;stroke-width:0.5;stroke-linecap:round;stroke-linejoin:round;stroke:rgb(16.862745%,40%,61.960784%);stroke-opacity:1;stroke-miterlimit:1;" d="M 44.72125 16.707031 C 44.936172 18.095 44.439062 19.711016 43.266016 20.990156 C 42.031172 22.328906 40.361016 22.962187 38.905781 22.782266 " transform="matrix(7.142857,0,0,7.142857,0,0)"/>
<path style="fill:none;stroke-width:0.5;stroke-linecap:round;stroke-linejoin:round;stroke:rgb(16.862745%,40%,61.960784%);stroke-opacity:1;stroke-miterlimit:1;" d="M 43.868125 16.497031 C 44.057891 17.752109 43.607812 19.217187 42.547969 20.365078 C 41.435078 21.580781 39.92625 22.146797 38.61375 21.984922 " transform="matrix(7.142857,0,0,7.142857,0,0)"/>
<path style="fill:none;stroke-width:0.5;stroke-linecap:round;stroke-linejoin:round;stroke:rgb(16.862745%,40%,61.960784%);stroke-opacity:1;stroke-miterlimit:1;" d="M 43.006797 16.291953 C 43.179062 17.415781 42.77875 18.715156 41.837031 19.744922 C 40.840078 20.828828 39.493125 21.336875 38.315156 21.189219 " transform="matrix(7.142857,0,0,7.142857,0,0)"/>
<path style="fill:none;stroke-width:0.5;stroke-linecap:round;stroke-linejoin:round;stroke:rgb(16.862745%,40%,61.960784%);stroke-opacity:1;stroke-miterlimit:1;" d="M 42.154219 16.086875 C 42.305156 17.067969 41.952969 18.215859 41.118984 19.124766 C 40.243984 20.076875 39.057812 20.524766 38.023125 20.400078 " transform="matrix(7.142857,0,0,7.142857,0,0)"/>
</g>
</svg>
