<?xml version="1.0" encoding="UTF-8"?>
<svg xmlns="http://www.w3.org/2000/svg" xmlns:xlink="http://www.w3.org/1999/xlink" width="144pt" height="200pt" viewBox="0 0 144 200" version="1.1">
<defs>
<clipPath id="clip1">
  <path d="M 121 35 L 144 35 L 144 194.257812 L 121 194.257812 Z M 121 35 "/>
</clipPath>
</defs>
<g id="surface1">
<path style="fill-rule:nonzero;fill:rgb(0.784314%,42.352941%,60.784314%);fill-opacity:1;stroke-width:4;stroke-linecap:butt;stroke-linejoin:miter;stroke:rgb(100%,100%,100%);stroke-opacity:1;stroke-miterlimit:4;" d="M 6.453451 14.805889 L 274.731445 14.805889 L 274.731445 282.810096 L 6.453451 282.810096 Z M 6.453451 14.805889 " transform="matrix(0.48,0,0,-0.481481,0,199.074074)"/>
<path style=" stroke:none;fill-rule:nonzero;fill:rgb(0.784314%,42.352941%,60.784314%);fill-opacity:1;" d="M 148.125 175.808594 L 148.125 46.75 L 131.871094 62.90625 L 131.871094 191.945312 L 148.125 175.804688 "/>
<g clip-path="url(#clip1)" clip-rule="nonzero">
<path style="fill:none;stroke-width:4;stroke-linecap:butt;stroke-linejoin:miter;stroke:rgb(100%,100%,100%);stroke-opacity:1;stroke-miterlimit:4;" d="M 308.59375 48.320613 L 308.59375 316.365385 L 274.731445 282.810096 L 274.731445 14.805889 L 308.59375 48.328726 Z M 308.59375 48.320613 " transform="matrix(0.48,0,0,-0.481481,0,199.074074)"/>
</g>
<path style=" stroke:none;fill-rule:nonzero;fill:rgb(0.784314%,42.352941%,60.784314%);fill-opacity:1;" d="M 26.644531 -5.558594 L 3.09375 10.601562 L 131.871094 10.601562 L 148.125 -5.558594 L 26.644531 -5.558594 "/>
<path style="fill:none;stroke-width:4;stroke-linecap:butt;stroke-linejoin:miter;stroke:rgb(100%,100%,100%);stroke-opacity:1;stroke-miterlimit:4;" d="M 55.50944 425.00631 L 6.445312 391.442909 L 274.731445 391.442909 L 308.59375 425.00631 Z M 55.50944 425.00631 " transform="matrix(0.48,0,0,-0.481481,0,199.074074)"/>
<path style="fill-rule:nonzero;fill:rgb(0.784314%,42.352941%,60.784314%);fill-opacity:1;stroke-width:4;stroke-linecap:butt;stroke-linejoin:miter;stroke:rgb(100%,100%,100%);stroke-opacity:1;stroke-miterlimit:4;" d="M 6.453451 282.810096 L 274.731445 282.810096 L 274.731445 391.442909 L 6.453451 391.442909 Z M 6.453451 282.810096 " transform="matrix(0.48,0,0,-0.481481,0,199.074074)"/>
<path style=" stroke:none;fill-rule:nonzero;fill:rgb(0.784314%,42.352941%,60.784314%);fill-opacity:1;" d="M 148.125 46.75 L 148.125 -5.558594 L 131.871094 10.601562 L 131.871094 62.90625 L 148.125 46.75 "/>
<path style="fill:none;stroke-width:4;stroke-linecap:butt;stroke-linejoin:miter;stroke:rgb(100%,100%,100%);stroke-opacity:1;stroke-miterlimit:4;" d="M 308.59375 316.365385 L 308.59375 425.00631 L 274.731445 391.442909 L 274.731445 282.810096 Z M 274.731445 282.810096 L 6.453451 282.810096 " transform="matrix(0.48,0,0,-0.481481,0,199.074074)"/>
<path style="fill-rule:nonzero;fill:rgb(0.784314%,42.352941%,60.784314%);fill-opacity:1;stroke-width:4;stroke-linecap:butt;stroke-linejoin:miter;stroke:rgb(100%,100%,100%);stroke-opacity:1;stroke-miterlimit:4;" d="M 274.731445 282.810096 L 308.59375 316.365385 " transform="matrix(0.48,0,0,-0.481481,0,199.074074)"/>
<path style=" stroke:none;fill-rule:nonzero;fill:rgb(100%,100%,100%);fill-opacity:1;" d="M 24.109375 28.46875 L 44.886719 28.46875 L 44.886719 17.617188 L 24.109375 17.617188 Z M 92.34375 28.46875 L 113.117188 28.46875 L 113.117188 17.617188 L 92.34375 17.617188 Z M 24.109375 55.570312 L 44.886719 55.570312 L 44.886719 44.738281 L 24.109375 44.738281 Z M 92.34375 55.570312 L 113.117188 55.570312 L 113.117188 44.738281 L 92.34375 44.738281 Z M 92.34375 55.570312 "/>
<path style="fill:none;stroke-width:4;stroke-linecap:butt;stroke-linejoin:miter;stroke:rgb(100%,100%,100%);stroke-opacity:1;stroke-miterlimit:4;" d="M 79.60612 365.586839 L 212.45931 365.586839 M 79.60612 309.290865 L 212.45931 309.290865 " transform="matrix(0.48,0,0,-0.481481,0,199.074074)"/>
<path style="fill-rule:nonzero;fill:rgb(0%,0%,0%);fill-opacity:1;stroke-width:4;stroke-linecap:butt;stroke-linejoin:miter;stroke:rgb(100%,100%,100%);stroke-opacity:1;stroke-miterlimit:4;" d="M 71.875 309.290865 L 212.45931 365.586839 " transform="matrix(0.48,0,0,-0.481481,0,199.074074)"/>
<path style="fill-rule:nonzero;fill:rgb(0%,0%,0%);fill-opacity:1;stroke-width:4;stroke-linecap:butt;stroke-linejoin:miter;stroke:rgb(100%,100%,100%);stroke-opacity:1;stroke-miterlimit:4;" d="M 71.875 365.586839 L 212.45931 309.290865 " transform="matrix(0.48,0,0,-0.481481,0,199.074074)"/>
<path style=" stroke:none;fill-rule:nonzero;fill:rgb(100%,100%,100%);fill-opacity:1;" d="M 70.277344 108.664062 L 70.277344 80.753906 L 75 80.753906 L 68.023438 70.203125 L 61.050781 80.753906 L 65.792969 80.753906 L 65.792969 108.664062 L 70.277344 108.664062 M 56.066406 112.707031 L 36.394531 92.957031 L 39.730469 89.613281 L 27.375 87.09375 L 29.890625 99.488281 L 33.207031 96.140625 L 52.894531 115.886719 L 56.066406 112.707031 M 48.882812 125.632812 L 21.039062 125.632812 L 21.039062 120.890625 L 10.535156 127.882812 L 21.039062 134.867188 L 21.039062 130.125 L 48.882812 130.125 L 48.882812 125.632812 M 52.894531 139.867188 L 33.207031 159.613281 L 29.890625 156.269531 L 27.375 168.660156 L 39.730469 166.144531 L 36.394531 162.792969 L 56.066406 143.066406 L 52.894531 139.867188 M 65.792969 147.089844 L 65.792969 175.015625 L 61.050781 175.015625 L 68.023438 185.550781 L 75 175.015625 L 70.277344 175.015625 L 70.277344 147.089844 L 65.792969 147.089844 M 79.988281 143.066406 L 99.675781 162.792969 L 96.335938 166.144531 L 108.695312 168.660156 L 106.179688 156.269531 L 102.847656 159.613281 L 83.152344 139.867188 L 79.988281 143.066406 M 87.1875 130.125 L 115.011719 130.125 L 115.011719 134.867188 L 125.53125 127.882812 L 115.011719 120.890625 L 115.011719 125.632812 L 87.1875 125.632812 L 87.1875 130.125 M 83.152344 115.886719 L 102.847656 96.140625 L 106.179688 99.488281 L 108.695312 87.09375 L 96.335938 89.613281 L 99.675781 92.957031 L 79.988281 112.707031 L 83.152344 115.886719 "/>
<path style=" stroke:none;fill-rule:nonzero;fill:rgb(100%,100%,100%);fill-opacity:1;" d="M 85.050781 151.285156 C 98.101562 142.121094 101.269531 124.085938 92.136719 111.011719 C 83.007812 97.945312 65.023438 94.761719 51.992188 103.925781 C 38.960938 113.085938 35.792969 131.101562 44.921875 144.175781 C 54.058594 157.265625 72.019531 160.441406 85.050781 151.285156 "/>
</g>
</svg>
