<?xml version="1.0" encoding="UTF-8"?>
<svg xmlns="http://www.w3.org/2000/svg" xmlns:xlink="http://www.w3.org/1999/xlink" width="282pt" height="200pt" viewBox="0 0 282 200" version="1.1">
<g id="surface1">
<path style=" stroke:none;fill-rule:evenodd;fill:rgb(12.54902%,63.921569%,89.411765%);fill-opacity:1;" d="M 271.890625 59.78125 C 271.890625 88.839844 211.417969 112.40625 136.835938 112.40625 C 62.222656 112.40625 1.746094 88.839844 1.746094 59.78125 L 1.746094 136.839844 C 1.746094 165.882812 62.222656 189.429688 136.835938 189.429688 C 211.417969 189.429688 271.890625 165.882812 271.890625 136.839844 L 271.890625 59.78125 "/>
<path style=" stroke:none;fill-rule:evenodd;fill:rgb(12.54902%,63.921569%,89.411765%);fill-opacity:1;" d="M 136.835938 112.40625 C 211.417969 112.40625 271.890625 88.839844 271.890625 59.78125 C 271.890625 30.742188 211.417969 7.195312 136.835938 7.195312 C 62.222656 7.195312 1.746094 30.742188 1.746094 59.78125 C 1.746094 88.839844 62.222656 112.40625 136.835938 112.40625 "/>
<path style="fill:none;stroke-width:0.596375;stroke-linecap:square;stroke-linejoin:bevel;stroke:rgb(68.627451%,87.45098%,95.686275%);stroke-opacity:1;stroke-miterlimit:10;" d="M 46.279255 10.164141 C 46.279255 15.104102 35.986037 19.107734 23.291223 19.107734 C 10.59109 19.107734 0.297207 15.104766 0.297207 10.164141 L 0.297207 23.264102 C 0.297207 28.200078 10.59109 32.203711 23.291223 32.203711 C 35.986037 32.203711 46.279255 28.200078 46.279255 23.264102 Z M 46.279255 10.164141 " transform="matrix(5.875,0,0,5.882353,0,0)"/>
<path style="fill:none;stroke-width:0.596375;stroke-linecap:square;stroke-linejoin:bevel;stroke:rgb(68.627451%,87.45098%,95.686275%);stroke-opacity:1;stroke-miterlimit:10;" d="M 23.291223 19.107734 C 35.986037 19.107734 46.279255 15.104766 46.279255 10.164141 C 46.279255 5.226172 35.986037 1.221875 23.291223 1.221875 C 10.59109 1.221875 0.297207 5.226172 0.297207 10.164141 C 0.297207 15.104102 10.59109 19.107734 23.291223 19.107734 Z M 23.291223 19.107734 " transform="matrix(5.875,0,0,5.882353,0,0)"/>
<path style=" stroke:none;fill-rule:nonzero;fill:rgb(100%,100%,100%);fill-opacity:1;" d="M 105.972656 39.210938 L 117.125 55.964844 L 74.960938 65.730469 L 84.164062 58.058594 L 18.988281 46.882812 L 35.339844 34.617188 L 98.230469 45.3125 L 105.980469 39.210938 M 165.324219 79.859375 L 157.691406 62.566406 L 195.726562 54.953125 L 189.15625 60.875 L 252.558594 71.730469 L 237.320312 83.910156 L 174.324219 72.078125 L 165.324219 79.859375 M 144.523438 30.082031 L 187.117188 18.386719 L 187.640625 36.6875 L 176.964844 34.648438 L 156.167969 51.910156 L 136.339844 49.007812 L 157.800781 32.125 L 144.523438 30.082031 M 126.246094 95.601562 L 85.6875 103.210938 L 84.164062 84.429688 L 95.84375 86.957031 L 118.15625 67.882812 L 137.921875 71.21875 L 114.085938 92.042969 L 126.246094 95.59375 "/>
<path style=" stroke:none;fill-rule:evenodd;fill:rgb(10.980392%,48.235294%,65.490196%);fill-opacity:1;" d="M 76.734375 176.246094 L 198.023438 176.246094 L 198.023438 122.882812 L 76.734375 122.882812 Z M 76.734375 176.246094 "/>
<path style="fill:none;stroke-width:0.894625;stroke-linecap:square;stroke-linejoin:miter;stroke:rgb(55.686275%,81.568627%,94.901961%);stroke-opacity:1;stroke-miterlimit:10;" d="M 13.06117 29.963164 L 33.706117 29.963164 L 33.706117 20.890742 L 13.06117 20.890742 Z M 13.06117 29.963164 " transform="matrix(5.875,0,0,5.882353,0,0)"/>
<path style=" stroke:none;fill-rule:evenodd;fill:rgb(100%,100%,100%);fill-opacity:1;" d="M 170.050781 160.371094 L 186.542969 160.371094 L 186.542969 137.269531 L 170.050781 137.269531 Z M 170.050781 160.371094 "/>
<path style="fill:none;stroke-width:0.29825;stroke-linecap:square;stroke-linejoin:miter;stroke:rgb(100%,100%,100%);stroke-opacity:1;stroke-miterlimit:10;" d="M 28.944814 27.263086 L 31.751995 27.263086 L 31.751995 23.337148 L 28.944814 23.337148 Z M 28.944814 27.263086 " transform="matrix(5.875,0,0,5.882353,0,0)"/>
<path style=" stroke:none;fill-rule:evenodd;fill:rgb(100%,100%,100%);fill-opacity:1;" d="M 186.550781 130.789062 L 191.566406 130.789062 L 191.566406 126.507812 L 186.550781 126.507812 Z M 186.550781 130.789062 "/>
<path style="fill:none;stroke-width:0.29825;stroke-linecap:square;stroke-linejoin:miter;stroke:rgb(100%,100%,100%);stroke-opacity:1;stroke-miterlimit:10;" d="M 31.753324 22.232812 L 32.607048 22.232812 L 32.607048 21.506328 L 31.753324 21.506328 Z M 31.753324 22.232812 " transform="matrix(5.875,0,0,5.882353,0,0)"/>
<path style=" stroke:none;fill-rule:evenodd;fill:rgb(100%,100%,100%);fill-opacity:1;" d="M 176.507812 130.789062 L 181.53125 130.789062 L 181.53125 126.507812 L 176.507812 126.507812 Z M 176.507812 130.789062 "/>
<path style="fill:none;stroke-width:0.29825;stroke-linecap:square;stroke-linejoin:miter;stroke:rgb(100%,100%,100%);stroke-opacity:1;stroke-miterlimit:10;" d="M 30.043883 22.232812 L 30.898936 22.232812 L 30.898936 21.506328 L 30.043883 21.506328 Z M 30.043883 22.232812 " transform="matrix(5.875,0,0,5.882353,0,0)"/>
<path style=" stroke:none;fill-rule:evenodd;fill:rgb(100%,100%,100%);fill-opacity:1;" d="M 166.46875 130.789062 L 171.492188 130.789062 L 171.492188 126.507812 L 166.46875 126.507812 Z M 166.46875 130.789062 "/>
<path style="fill:none;stroke-width:0.29825;stroke-linecap:square;stroke-linejoin:miter;stroke:rgb(100%,100%,100%);stroke-opacity:1;stroke-miterlimit:10;" d="M 28.335106 22.232812 L 29.19016 22.232812 L 29.19016 21.506328 L 28.335106 21.506328 Z M 28.335106 22.232812 " transform="matrix(5.875,0,0,5.882353,0,0)"/>
<path style=" stroke:none;fill-rule:evenodd;fill:rgb(100%,100%,100%);fill-opacity:1;" d="M 157.136719 130.789062 L 161.445312 130.789062 L 161.445312 126.507812 L 157.136719 126.507812 Z M 157.136719 130.789062 "/>
<path style="fill:none;stroke-width:0.29825;stroke-linecap:square;stroke-linejoin:miter;stroke:rgb(100%,100%,100%);stroke-opacity:1;stroke-miterlimit:10;" d="M 26.746676 22.232812 L 27.480053 22.232812 L 27.480053 21.506328 L 26.746676 21.506328 Z M 26.746676 22.232812 " transform="matrix(5.875,0,0,5.882353,0,0)"/>
<path style=" stroke:none;fill-rule:evenodd;fill:rgb(100%,100%,100%);fill-opacity:1;" d="M 147.074219 130.789062 L 151.410156 130.789062 L 151.410156 126.507812 L 147.074219 126.507812 Z M 147.074219 130.789062 "/>
<path style="fill:none;stroke-width:0.29825;stroke-linecap:square;stroke-linejoin:miter;stroke:rgb(100%,100%,100%);stroke-opacity:1;stroke-miterlimit:10;" d="M 25.03391 22.232812 L 25.771941 22.232812 L 25.771941 21.506328 L 25.03391 21.506328 Z M 25.03391 22.232812 " transform="matrix(5.875,0,0,5.882353,0,0)"/>
<path style=" stroke:none;fill-rule:evenodd;fill:rgb(100%,100%,100%);fill-opacity:1;" d="M 137.035156 130.789062 L 142.058594 130.789062 L 142.058594 126.507812 L 137.035156 126.507812 Z M 137.035156 130.789062 "/>
<path style="fill:none;stroke-width:0.29825;stroke-linecap:square;stroke-linejoin:miter;stroke:rgb(100%,100%,100%);stroke-opacity:1;stroke-miterlimit:10;" d="M 23.325133 22.232812 L 24.180186 22.232812 L 24.180186 21.506328 L 23.325133 21.506328 Z M 23.325133 22.232812 " transform="matrix(5.875,0,0,5.882353,0,0)"/>
<path style=" stroke:none;fill-rule:evenodd;fill:rgb(100%,100%,100%);fill-opacity:1;" d="M 126.964844 130.789062 L 131.988281 130.789062 L 131.988281 126.507812 L 126.964844 126.507812 Z M 126.964844 130.789062 "/>
<path style="fill:none;stroke-width:0.29825;stroke-linecap:square;stroke-linejoin:miter;stroke:rgb(100%,100%,100%);stroke-opacity:1;stroke-miterlimit:10;" d="M 21.611037 22.232812 L 22.46609 22.232812 L 22.46609 21.506328 L 21.611037 21.506328 Z M 21.611037 22.232812 " transform="matrix(5.875,0,0,5.882353,0,0)"/>
<path style=" stroke:none;fill-rule:evenodd;fill:rgb(100%,100%,100%);fill-opacity:1;" d="M 116.925781 130.789062 L 121.949219 130.789062 L 121.949219 126.507812 L 116.925781 126.507812 Z M 116.925781 130.789062 "/>
<path style="fill:none;stroke-width:0.29825;stroke-linecap:square;stroke-linejoin:miter;stroke:rgb(100%,100%,100%);stroke-opacity:1;stroke-miterlimit:10;" d="M 19.902261 22.232812 L 20.757314 22.232812 L 20.757314 21.506328 L 19.902261 21.506328 Z M 19.902261 22.232812 " transform="matrix(5.875,0,0,5.882353,0,0)"/>
<path style=" stroke:none;fill-rule:evenodd;fill:rgb(100%,100%,100%);fill-opacity:1;" d="M 106.890625 130.789062 L 111.914062 130.789062 L 111.914062 126.507812 L 106.890625 126.507812 Z M 106.890625 130.789062 "/>
<path style="fill:none;stroke-width:0.29825;stroke-linecap:square;stroke-linejoin:miter;stroke:rgb(100%,100%,100%);stroke-opacity:1;stroke-miterlimit:10;" d="M 18.194149 22.232812 L 19.049202 22.232812 L 19.049202 21.506328 L 18.194149 21.506328 Z M 18.194149 22.232812 " transform="matrix(5.875,0,0,5.882353,0,0)"/>
<path style=" stroke:none;fill-rule:evenodd;fill:rgb(100%,100%,100%);fill-opacity:1;" d="M 97.566406 130.789062 L 101.867188 130.789062 L 101.867188 126.507812 L 97.566406 126.507812 Z M 97.566406 130.789062 "/>
<path style="fill:none;stroke-width:0.29825;stroke-linecap:square;stroke-linejoin:miter;stroke:rgb(100%,100%,100%);stroke-opacity:1;stroke-miterlimit:10;" d="M 16.607048 22.232812 L 17.339096 22.232812 L 17.339096 21.506328 L 16.607048 21.506328 Z M 16.607048 22.232812 " transform="matrix(5.875,0,0,5.882353,0,0)"/>
<path style=" stroke:none;fill-rule:evenodd;fill:rgb(100%,100%,100%);fill-opacity:1;" d="M 87.527344 126.507812 L 91.828125 126.507812 L 92.542969 130.789062 L 87.519531 130.789062 L 87.519531 126.507812 "/>
<path style="fill:none;stroke-width:0.29825;stroke-linecap:square;stroke-linejoin:miter;stroke:rgb(100%,100%,100%);stroke-opacity:1;stroke-miterlimit:10;" d="M 14.898271 21.506328 L 15.630319 21.506328 L 15.751995 22.232812 L 14.896941 22.232812 L 14.896941 21.506328 Z M 14.898271 21.506328 " transform="matrix(5.875,0,0,5.882353,0,0)"/>
<path style="fill-rule:evenodd;fill:rgb(100%,100%,100%);fill-opacity:1;stroke-width:0.29825;stroke-linecap:square;stroke-linejoin:miter;stroke:rgb(100%,100%,100%);stroke-opacity:1;stroke-miterlimit:10;" d="M 31.753324 29.103867 L 32.607048 29.103867 L 32.607048 28.370742 L 31.753324 28.370742 Z M 31.753324 29.103867 " transform="matrix(5.875,0,0,5.882353,0,0)"/>
<path style="fill-rule:evenodd;fill:rgb(100%,100%,100%);fill-opacity:1;stroke-width:0.29825;stroke-linecap:square;stroke-linejoin:miter;stroke:rgb(100%,100%,100%);stroke-opacity:1;stroke-miterlimit:10;" d="M 30.043883 29.103867 L 30.898936 29.103867 L 30.898936 28.370742 L 30.043883 28.370742 Z M 30.043883 29.103867 " transform="matrix(5.875,0,0,5.882353,0,0)"/>
<path style="fill-rule:evenodd;fill:rgb(100%,100%,100%);fill-opacity:1;stroke-width:0.29825;stroke-linecap:square;stroke-linejoin:miter;stroke:rgb(100%,100%,100%);stroke-opacity:1;stroke-miterlimit:10;" d="M 28.335106 29.103867 L 29.19016 29.103867 L 29.19016 28.370742 L 28.335106 28.370742 Z M 28.335106 29.103867 " transform="matrix(5.875,0,0,5.882353,0,0)"/>
<path style="fill-rule:evenodd;fill:rgb(100%,100%,100%);fill-opacity:1;stroke-width:0.29825;stroke-linecap:square;stroke-linejoin:miter;stroke:rgb(100%,100%,100%);stroke-opacity:1;stroke-miterlimit:10;" d="M 26.746676 29.103867 L 27.480053 29.103867 L 27.480053 28.370742 L 26.746676 28.370742 Z M 26.746676 29.103867 " transform="matrix(5.875,0,0,5.882353,0,0)"/>
<path style="fill-rule:evenodd;fill:rgb(100%,100%,100%);fill-opacity:1;stroke-width:0.29825;stroke-linecap:square;stroke-linejoin:miter;stroke:rgb(100%,100%,100%);stroke-opacity:1;stroke-miterlimit:10;" d="M 25.03391 29.103867 L 25.771941 29.103867 L 25.771941 28.370742 L 25.03391 28.370742 Z M 25.03391 29.103867 " transform="matrix(5.875,0,0,5.882353,0,0)"/>
<path style="fill-rule:evenodd;fill:rgb(100%,100%,100%);fill-opacity:1;stroke-width:0.29825;stroke-linecap:square;stroke-linejoin:miter;stroke:rgb(100%,100%,100%);stroke-opacity:1;stroke-miterlimit:10;" d="M 23.325133 29.103867 L 24.180186 29.103867 L 24.180186 28.370742 L 23.325133 28.370742 Z M 23.325133 29.103867 " transform="matrix(5.875,0,0,5.882353,0,0)"/>
<path style="fill-rule:evenodd;fill:rgb(100%,100%,100%);fill-opacity:1;stroke-width:0.29825;stroke-linecap:square;stroke-linejoin:miter;stroke:rgb(100%,100%,100%);stroke-opacity:1;stroke-miterlimit:10;" d="M 21.611037 29.103867 L 22.46609 29.103867 L 22.46609 28.370742 L 21.611037 28.370742 Z M 21.611037 29.103867 " transform="matrix(5.875,0,0,5.882353,0,0)"/>
<path style="fill-rule:evenodd;fill:rgb(100%,100%,100%);fill-opacity:1;stroke-width:0.29825;stroke-linecap:square;stroke-linejoin:miter;stroke:rgb(100%,100%,100%);stroke-opacity:1;stroke-miterlimit:10;" d="M 19.902261 29.103867 L 20.757314 29.103867 L 20.757314 28.370742 L 19.902261 28.370742 Z M 19.902261 29.103867 " transform="matrix(5.875,0,0,5.882353,0,0)"/>
<path style="fill-rule:evenodd;fill:rgb(100%,100%,100%);fill-opacity:1;stroke-width:0.29825;stroke-linecap:square;stroke-linejoin:miter;stroke:rgb(100%,100%,100%);stroke-opacity:1;stroke-miterlimit:10;" d="M 18.194149 29.103867 L 19.049202 29.103867 L 19.049202 28.370742 L 18.194149 28.370742 Z M 18.194149 29.103867 " transform="matrix(5.875,0,0,5.882353,0,0)"/>
<path style="fill-rule:evenodd;fill:rgb(100%,100%,100%);fill-opacity:1;stroke-width:0.29825;stroke-linecap:square;stroke-linejoin:miter;stroke:rgb(100%,100%,100%);stroke-opacity:1;stroke-miterlimit:10;" d="M 16.607048 29.103867 L 17.339096 29.103867 L 17.339096 28.370742 L 16.607048 28.370742 Z M 16.607048 29.103867 " transform="matrix(5.875,0,0,5.882353,0,0)"/>
<path style="fill-rule:evenodd;fill:rgb(100%,100%,100%);fill-opacity:1;stroke-width:0.29825;stroke-linecap:square;stroke-linejoin:miter;stroke:rgb(100%,100%,100%);stroke-opacity:1;stroke-miterlimit:10;" d="M 14.898271 29.103867 L 15.751995 29.103867 L 15.751995 28.370742 L 14.896941 28.370742 L 14.896941 29.103867 Z M 14.898271 29.103867 " transform="matrix(5.875,0,0,5.882353,0,0)"/>
<path style=" stroke:none;fill-rule:evenodd;fill:rgb(100%,100%,100%);fill-opacity:1;" d="M 143.519531 160.371094 L 160.011719 160.371094 L 160.011719 137.269531 L 143.527344 137.269531 L 143.527344 160.371094 Z M 143.519531 160.371094 "/>
<path style="fill:none;stroke-width:0.29825;stroke-linecap:square;stroke-linejoin:miter;stroke:rgb(100%,100%,100%);stroke-opacity:1;stroke-miterlimit:10;" d="M 24.428856 27.263086 L 27.236037 27.263086 L 27.236037 23.337148 L 24.430186 23.337148 L 24.430186 27.263086 Z M 24.428856 27.263086 " transform="matrix(5.875,0,0,5.882353,0,0)"/>
<path style=" stroke:none;fill-rule:evenodd;fill:rgb(100%,100%,100%);fill-opacity:1;" d="M 116.925781 160.371094 L 133.421875 160.371094 L 133.421875 137.269531 L 116.925781 137.269531 Z M 116.925781 160.371094 "/>
<path style="fill:none;stroke-width:0.29825;stroke-linecap:square;stroke-linejoin:miter;stroke:rgb(100%,100%,100%);stroke-opacity:1;stroke-miterlimit:10;" d="M 19.902261 27.263086 L 22.710106 27.263086 L 22.710106 23.337148 L 19.902261 23.337148 Z M 19.902261 27.263086 " transform="matrix(5.875,0,0,5.882353,0,0)"/>
<path style=" stroke:none;fill-rule:evenodd;fill:rgb(100%,100%,100%);fill-opacity:1;" d="M 91.105469 160.371094 L 106.878906 160.371094 L 106.878906 137.269531 L 91.105469 137.269531 Z M 91.105469 160.371094 "/>
<path style="fill:none;stroke-width:0.29825;stroke-linecap:square;stroke-linejoin:miter;stroke:rgb(100%,100%,100%);stroke-opacity:1;stroke-miterlimit:10;" d="M 15.507314 27.263086 L 18.192154 27.263086 L 18.192154 23.337148 L 15.507314 23.337148 Z M 15.507314 27.263086 " transform="matrix(5.875,0,0,5.882353,0,0)"/>
</g>
</svg>
