<?xml version="1.0" encoding="UTF-8"?>
<svg xmlns="http://www.w3.org/2000/svg" xmlns:xlink="http://www.w3.org/1999/xlink" width="194pt" height="200pt" viewBox="0 0 194 200" version="1.1">
<g id="surface1">
<path style=" stroke:none;fill-rule:nonzero;fill:rgb(36.470588%,69.803922%,90.196078%);fill-opacity:1;" d="M 168.03125 23.21875 L 1.421875 23.21875 L 21.484375 7.171875 L 188.089844 7.171875 L 168.03125 23.21875 "/>
<path style=" stroke:none;fill-rule:nonzero;fill:rgb(11.372549%,26.666667%,42.745098%);fill-opacity:1;" d="M 188.28125 173.941406 L 167.753906 189.925781 L 167.753906 23.085938 L 188.28125 7.089844 L 188.28125 173.949219 "/>
<path style="fill:none;stroke-width:0.5;stroke-linecap:butt;stroke-linejoin:miter;stroke:rgb(100%,100%,100%);stroke-opacity:1;stroke-miterlimit:4;" d="M 32.997745 30.439746 L 29.400169 33.237695 L 29.400169 4.037988 L 32.997745 1.240039 Z M 32.997745 30.439746 " transform="matrix(5.705882,0,0,5.714286,0,0)"/>
<path style=" stroke:none;fill-rule:nonzero;fill:rgb(25.882353%,58.823529%,84.705882%);fill-opacity:1;" d="M 1.421875 189.925781 L 168.019531 189.925781 L 168.019531 23.085938 L 1.425781 23.085938 L 1.425781 189.929688 Z M 1.421875 189.925781 "/>
<path style="fill:none;stroke-width:0.5;stroke-linecap:butt;stroke-linejoin:miter;stroke:rgb(100%,100%,100%);stroke-opacity:1;stroke-miterlimit:4;" d="M 0.249195 33.237012 L 29.446722 33.237012 L 29.446722 4.037988 L 0.249879 4.037988 L 0.249879 33.237012 Z M 0.249195 33.237012 " transform="matrix(5.705882,0,0,5.714286,0,0)"/>
<path style=" stroke:none;fill-rule:nonzero;fill:rgb(6.27451%,5.882353%,5.098039%);fill-opacity:1;" d="M 85.195312 102.738281 C 85.195312 103.347656 84.667969 103.878906 84.054688 103.878906 L 60.625 103.878906 C 60 103.867188 59.496094 103.363281 59.484375 102.738281 L 59.484375 79.273438 C 59.484375 78.644531 59.996094 78.132812 60.625 78.132812 L 84.054688 78.132812 C 84.683594 78.132812 85.195312 78.644531 85.195312 79.273438 L 85.195312 102.738281 M 115.53125 102.570312 C 115.535156 102.792969 115.449219 103.007812 115.292969 103.164062 C 115.136719 103.320312 114.921875 103.410156 114.699219 103.40625 L 97.683594 103.40625 C 97.460938 103.410156 97.25 103.320312 97.09375 103.164062 C 96.933594 103.007812 96.847656 102.792969 96.851562 102.570312 L 96.851562 85.492188 C 96.851562 85.050781 97.210938 84.65625 97.683594 84.65625 L 114.707031 84.65625 C 115.179688 84.65625 115.539062 85.050781 115.539062 85.492188 L 115.539062 102.578125 M 79.179688 129.800781 C 79.175781 130.261719 78.804688 130.632812 78.339844 130.632812 L 61.296875 130.632812 C 61.078125 130.636719 60.863281 130.546875 60.707031 130.390625 C 60.546875 130.234375 60.460938 130.023438 60.460938 129.800781 L 60.460938 112.730469 C 60.460938 112.273438 60.847656 111.914062 61.296875 111.914062 L 78.339844 111.914062 C 78.792969 111.914062 79.179688 112.28125 79.179688 112.730469 L 79.179688 129.800781 M 113.199219 134.234375 C 113.1875 134.792969 112.730469 135.238281 112.171875 135.238281 L 91.304688 135.238281 C 91.039062 135.242188 90.78125 135.136719 90.589844 134.949219 C 90.402344 134.757812 90.296875 134.503906 90.296875 134.234375 L 90.296875 113.335938 C 90.296875 112.777344 90.746094 112.316406 91.304688 112.308594 L 112.171875 112.308594 C 112.726562 112.308594 113.199219 112.777344 113.199219 113.335938 L 113.199219 134.234375 "/>
<path style=" stroke:none;fill-rule:nonzero;fill:rgb(6.27451%,5.882353%,5.098039%);fill-opacity:1;" d="M 65.082031 52.792969 L 32.375 52.792969 L 32.375 125.976562 L 47.644531 125.976562 L 47.644531 68.085938 L 65.082031 68.085938 L 65.082031 52.792969 M 86.902344 52.792969 L 86.902344 68.085938 L 127.269531 68.085938 L 127.269531 111.777344 L 142.53125 111.777344 L 142.53125 52.792969 L 86.902344 52.792969 M 127.269531 133.621094 L 127.269531 147.828125 L 32.375 147.828125 L 32.375 163.113281 L 142.53125 163.113281 L 142.53125 133.621094 L 127.269531 133.621094 "/>
<path style=" stroke:none;fill-rule:nonzero;fill:rgb(100%,100%,100%);fill-opacity:1;" d="M 82.914062 100.453125 C 82.914062 101.0625 82.386719 101.59375 81.769531 101.59375 L 58.34375 101.59375 C 57.71875 101.582031 57.214844 101.078125 57.203125 100.453125 L 57.203125 76.988281 C 57.203125 76.34375 57.730469 75.835938 58.34375 75.835938 L 81.769531 75.835938 C 82.386719 75.835938 82.914062 76.34375 82.914062 76.988281 L 82.914062 100.453125 M 113.257812 100.28125 C 113.261719 100.5 113.179688 100.710938 113.027344 100.871094 C 112.875 101.027344 112.664062 101.117188 112.445312 101.121094 L 95.367188 101.121094 C 95.148438 101.117188 94.941406 101.027344 94.789062 100.867188 C 94.636719 100.710938 94.554688 100.5 94.558594 100.28125 L 94.558594 83.199219 C 94.558594 82.75 94.921875 82.386719 95.367188 82.386719 L 112.445312 82.386719 C 112.890625 82.386719 113.257812 82.75 113.257812 83.199219 L 113.257812 100.273438 M 76.890625 127.542969 C 76.878906 127.992188 76.511719 128.351562 76.058594 128.347656 L 59.003906 128.347656 C 58.789062 128.351562 58.578125 128.269531 58.421875 128.121094 C 58.265625 127.96875 58.175781 127.761719 58.171875 127.542969 L 58.171875 110.457031 C 58.171875 109.984375 58.535156 109.621094 59.003906 109.621094 L 76.066406 109.621094 C 76.511719 109.621094 76.890625 109.988281 76.890625 110.457031 L 76.890625 127.539062 M 110.917969 131.949219 C 110.90625 132.515625 110.441406 132.964844 109.878906 132.960938 L 89.011719 132.960938 C 88.746094 132.960938 88.488281 132.851562 88.300781 132.664062 C 88.113281 132.472656 88.011719 132.214844 88.011719 131.949219 L 88.011719 111.050781 C 88.011719 110.492188 88.453125 110.023438 89.011719 110.023438 L 109.878906 110.023438 C 110.4375 110.023438 110.917969 110.492188 110.917969 111.050781 L 110.917969 131.949219 "/>
<path style=" stroke:none;fill-rule:nonzero;fill:rgb(6.27451%,5.882353%,5.098039%);fill-opacity:1;" d="M 102.191406 119.617188 C 102.191406 120.3125 101.609375 120.875 100.910156 120.875 L 75.082031 120.875 C 74.75 120.875 74.429688 120.742188 74.195312 120.507812 C 73.960938 120.269531 73.832031 119.949219 73.835938 119.617188 L 73.835938 93.75 C 73.835938 93.054688 74.394531 92.496094 75.082031 92.492188 L 100.910156 92.492188 C 101.609375 92.492188 102.191406 93.0625 102.191406 93.75 L 102.191406 119.617188 "/>
<path style=" stroke:none;fill-rule:nonzero;fill:rgb(100%,100%,100%);fill-opacity:1;" d="M 99.910156 117.332031 C 99.910156 118.027344 99.328125 118.589844 98.625 118.589844 L 72.808594 118.589844 C 72.472656 118.589844 72.152344 118.457031 71.917969 118.222656 C 71.683594 117.984375 71.550781 117.664062 71.550781 117.332031 L 71.550781 91.460938 C 71.550781 90.765625 72.105469 90.207031 72.808594 90.207031 L 98.632812 90.207031 C 99.332031 90.207031 99.914062 90.765625 99.914062 91.460938 L 99.914062 117.332031 "/>
<path style="fill:none;stroke-width:0.3125;stroke-linecap:butt;stroke-linejoin:miter;stroke:rgb(6.27451%,5.882353%,5.098039%);stroke-opacity:1;stroke-miterlimit:4;" d="M 17.510027 20.533105 C 17.510027 20.654102 17.408022 20.753223 17.284794 20.753223 L 12.760269 20.753223 C 12.63841 20.753223 12.539828 20.654785 12.539828 20.533105 L 12.539828 16.007031 C 12.539828 15.883984 12.637041 15.786914 12.760269 15.786914 L 17.286163 15.786914 C 17.408707 15.786914 17.510712 15.883984 17.510712 16.007031 L 17.510712 20.533105 Z M 17.510027 20.533105 " transform="matrix(5.705882,0,0,5.714286,0,0)"/>
<path style=" stroke:none;fill-rule:nonzero;fill:rgb(100%,100%,100%);fill-opacity:1;" d="M 62.800781 50.507812 L 30.09375 50.507812 L 30.09375 123.695312 L 45.355469 123.695312 L 45.355469 65.792969 L 62.800781 65.792969 L 62.800781 50.507812 M 84.613281 50.507812 L 84.613281 65.792969 L 124.980469 65.792969 L 124.980469 109.484375 L 140.25 109.484375 L 140.25 50.515625 L 84.617188 50.515625 M 124.980469 131.335938 L 124.980469 145.539062 L 30.09375 145.539062 L 30.09375 160.828125 L 140.25 160.828125 L 140.25 131.335938 L 124.980469 131.335938 "/>
</g>
</svg>
