<?xml version="1.0" encoding="UTF-8"?>
<svg xmlns="http://www.w3.org/2000/svg" xmlns:xlink="http://www.w3.org/1999/xlink" width="188pt" height="200pt" viewBox="0 0 188 200" version="1.1">
<g id="surface1">
<path style=" stroke:none;fill-rule:nonzero;fill:rgb(8.235294%,50.980392%,72.941176%);fill-opacity:1;" d="M 3.753906 191.167969 L 152.867188 191.167969 L 152.867188 38.554688 L 3.761719 38.554688 L 3.761719 191.167969 Z M 3.753906 191.167969 "/>
<path style="fill:none;stroke-width:0.5;stroke-linecap:butt;stroke-linejoin:miter;stroke:rgb(100%,100%,100%);stroke-opacity:1;stroke-miterlimit:4;" d="M 0.678898 34.410234 L 27.646193 34.410234 L 27.646193 6.937031 L 0.680311 6.937031 L 0.680311 34.408125 Z M 0.678898 34.410234 " transform="matrix(5.529412,0,0,5.555556,0,0)"/>
<path style=" stroke:none;fill-rule:nonzero;fill:rgb(8.235294%,50.980392%,72.941176%);fill-opacity:1;" d="M 152.867188 38.550781 L 3.921875 38.550781 L 41.609375 8.109375 L 183.703125 8.109375 L 183.703125 159.828125 L 152.867188 191.078125 L 152.867188 38.550781 "/>
<path style="fill:none;stroke-width:0.5;stroke-linecap:butt;stroke-linejoin:miter;stroke:rgb(100%,100%,100%);stroke-opacity:1;stroke-miterlimit:4;" d="M 27.646193 6.937734 L 0.709275 6.937734 L 7.525806 1.458984 L 33.224318 1.458984 L 33.224318 28.769063 L 27.6469 34.394766 L 27.6469 6.937734 Z M 27.646193 6.937734 " transform="matrix(5.529412,0,0,5.555556,0,0)"/>
<path style=" stroke:none;fill-rule:nonzero;fill:rgb(8.235294%,50.980392%,72.941176%);fill-opacity:1;" d="M 152.867188 38.550781 L 183.703125 8.109375 "/>
<path style="fill:none;stroke-width:0.5;stroke-linecap:butt;stroke-linejoin:miter;stroke:rgb(100%,100%,100%);stroke-opacity:1;stroke-miterlimit:4;" d="M 27.646193 6.937734 L 33.222906 1.458984 M 4.428732 14.032969 L 26.200091 14.032969 M 3.403674 20.688047 L 25.321975 20.688047 M 2.430893 27.011953 L 24.214262 27.011953 " transform="matrix(5.529412,0,0,5.555556,0,0)"/>
<path style="fill-rule:nonzero;fill:rgb(8.235294%,50.980392%,72.941176%);fill-opacity:1;stroke-width:0.5;stroke-linecap:butt;stroke-linejoin:miter;stroke:rgb(100%,100%,100%);stroke-opacity:1;stroke-miterlimit:4;" d="M 5.414935 30.732187 L 9.907954 10.034297 " transform="matrix(5.529412,0,0,5.555556,0,0)"/>
<path style="fill-rule:nonzero;fill:rgb(8.235294%,50.980392%,72.941176%);fill-opacity:1;stroke-width:0.5;stroke-linecap:butt;stroke-linejoin:miter;stroke:rgb(100%,100%,100%);stroke-opacity:1;stroke-miterlimit:4;" d="M 19.389919 30.732187 L 23.880818 10.034297 " transform="matrix(5.529412,0,0,5.555556,0,0)"/>
<path style=" stroke:none;fill-rule:nonzero;fill:rgb(8.235294%,50.980392%,72.941176%);fill-opacity:1;" d="M 68.574219 169.839844 L 93.417969 54.84375 "/>
<path style="fill:none;stroke-width:0.5;stroke-linecap:butt;stroke-linejoin:miter;stroke:rgb(100%,100%,100%);stroke-opacity:1;stroke-miterlimit:4;" d="M 12.40172 30.569766 L 16.894739 9.873281 " transform="matrix(5.529412,0,0,5.555556,0,0)"/>
<path style=" stroke:none;fill-rule:nonzero;fill:rgb(100%,100%,100%);fill-opacity:1;" d="M 59.257812 77.632812 C 59.257812 81.105469 55.050781 83.929688 49.84375 83.929688 C 44.628906 83.929688 40.421875 81.105469 40.421875 77.632812 C 40.421875 74.140625 44.628906 71.3125 49.84375 71.3125 C 55.050781 71.3125 59.257812 74.144531 59.257812 77.632812 M 98.308594 76.0625 C 98.308594 79.5625 94.089844 82.382812 88.90625 82.382812 C 83.691406 82.382812 79.457031 79.5625 79.457031 76.0625 C 79.457031 72.5625 83.691406 69.746094 88.90625 69.746094 C 94.089844 69.746094 98.308594 72.5625 98.308594 76.0625 M 137.457031 78.828125 C 137.457031 82.328125 133.238281 85.144531 128.027344 85.144531 C 122.820312 85.144531 118.605469 82.328125 118.605469 78.828125 C 118.605469 75.355469 122.820312 72.503906 128.027344 72.503906 C 133.238281 72.503906 137.457031 75.355469 137.457031 78.828125 M 50.378906 115.128906 C 50.378906 118.601562 46.175781 121.445312 40.960938 121.445312 C 35.746094 121.445312 31.535156 118.601562 31.535156 115.128906 C 31.535156 111.628906 35.746094 108.804688 40.960938 108.804688 C 46.171875 108.804688 50.378906 111.621094 50.378906 115.128906 M 89.421875 116.320312 C 89.421875 119.820312 85.207031 122.640625 79.992188 122.640625 C 74.8125 122.640625 70.578125 119.816406 70.578125 116.320312 C 70.578125 112.851562 74.8125 110 79.992188 110 C 85.207031 110 89.421875 112.84375 89.421875 116.316406 M 128.574219 114.472656 C 128.574219 117.972656 124.328125 120.792969 119.140625 120.792969 C 113.933594 120.792969 109.699219 117.972656 109.699219 114.472656 C 109.699219 111 113.933594 108.148438 119.140625 108.148438 C 124.328125 108.148438 128.574219 111 128.574219 114.472656 M 42.605469 150.746094 C 42.605469 154.214844 38.367188 157.035156 33.183594 157.035156 C 27.972656 157.035156 23.730469 154.214844 23.730469 150.746094 C 23.730469 147.246094 27.972656 144.421875 33.1875 144.421875 C 38.367188 144.421875 42.605469 147.246094 42.605469 150.746094 M 81.640625 151.015625 C 81.640625 154.488281 77.433594 157.332031 72.21875 157.332031 C 67.011719 157.332031 62.796875 154.488281 62.796875 151.015625 C 62.796875 147.515625 67.011719 144.695312 72.21875 144.695312 C 77.433594 144.695312 81.640625 147.515625 81.640625 151.015625 M 120.769531 151.015625 C 120.769531 154.488281 116.554688 157.332031 111.339844 157.332031 C 106.132812 157.332031 101.921875 154.488281 101.921875 151.015625 C 101.921875 147.515625 106.125 144.695312 111.339844 144.695312 C 116.554688 144.695312 120.769531 147.515625 120.769531 151.015625 "/>
</g>
</svg>
