<?xml version="1.0" encoding="UTF-8"?>
<svg xmlns="http://www.w3.org/2000/svg" xmlns:xlink="http://www.w3.org/1999/xlink" width="492pt" height="200pt" viewBox="0 0 492 200" version="1.1">
<g id="surface1">
<path style=" stroke:none;fill-rule:nonzero;fill:rgb(3.137255%,50.588235%,75.686275%);fill-opacity:1;" d="M 5.847656 179.957031 L 377.726562 179.957031 L 377.726562 111.144531 L 5.847656 111.144531 Z M 5.847656 179.957031 "/>
<path style=" stroke:none;fill-rule:nonzero;fill:rgb(3.137255%,50.588235%,75.686275%);fill-opacity:1;" d="M 13.191406 176.777344 L 368.671875 176.777344 L 368.671875 120.664062 L 13.191406 120.664062 Z M 13.191406 176.777344 "/>
<path style="fill:none;stroke-width:0.5;stroke-linecap:butt;stroke-linejoin:miter;stroke:rgb(100%,100%,100%);stroke-opacity:1;stroke-miterlimit:4;" d="M 1.850014 24.748828 L 51.703982 24.748828 L 51.703982 16.891875 L 1.850014 16.891875 Z M 1.850014 24.748828 " transform="matrix(7.130435,0,0,7.142857,0,0)"/>
<path style=" stroke:none;fill-rule:nonzero;fill:rgb(3.137255%,50.588235%,75.686275%);fill-opacity:1;" d="M 5.011719 111.65625 L 133.625 7.242188 L 484.191406 7.242188 L 377.414062 111.65625 L 5.011719 111.65625 "/>
<path style="fill:none;stroke-width:0.5;stroke-linecap:butt;stroke-linejoin:miter;stroke:rgb(100%,100%,100%);stroke-opacity:1;stroke-miterlimit:4;" d="M 0.702863 15.631875 L 18.740091 1.013906 L 67.904892 1.013906 L 52.930021 15.631875 Z M 0.702863 15.631875 " transform="matrix(7.130435,0,0,7.142857,0,0)"/>
<path style=" stroke:none;fill-rule:nonzero;fill:rgb(3.137255%,50.588235%,75.686275%);fill-opacity:1;" d="M 377.550781 183.191406 L 483.871094 77.101562 L 483.941406 7.441406 L 377.554688 111.527344 L 377.554688 183.191406 "/>
<path style="fill:none;stroke-width:0.5;stroke-linecap:butt;stroke-linejoin:miter;stroke:rgb(100%,100%,100%);stroke-opacity:1;stroke-miterlimit:4;" d="M 52.949195 25.646797 L 67.85997 10.794219 L 67.869831 1.043984 L 52.948099 15.613828 L 52.948099 25.646797 Z M 52.949195 25.646797 " transform="matrix(7.130435,0,0,7.142857,0,0)"/>
<path style=" stroke:none;fill-rule:nonzero;fill:rgb(100%,100%,100%);fill-opacity:1;" d="M 28.378906 156.722656 L 50.417969 156.722656 L 50.417969 139.984375 L 28.378906 139.984375 Z M 170.988281 156.722656 L 193.027344 156.722656 L 193.027344 139.984375 L 170.988281 139.984375 Z M 337.375 156.722656 L 359.382812 156.722656 L 359.382812 139.984375 L 337.375 139.984375 Z M 337.375 156.722656 "/>
<path style=" stroke:none;fill-rule:nonzero;fill:rgb(3.137255%,50.588235%,75.686275%);fill-opacity:1;" d="M 284.5625 119.855469 C 297.753906 125.613281 306.496094 135.558594 306.496094 146.855469 C 306.496094 164.644531 284.867188 179.042969 258.199219 179.042969 C 231.5625 179.042969 209.949219 164.644531 209.949219 146.855469 C 209.949219 129.0625 231.5625 114.664062 258.199219 114.664062 C 267.917969 114.664062 276.960938 116.578125 284.5625 119.855469 "/>
<path style="fill:none;stroke-width:0.466375;stroke-linecap:butt;stroke-linejoin:miter;stroke:rgb(100%,100%,100%);stroke-opacity:1;stroke-miterlimit:4;" d="M 39.908155 16.779766 C 41.75817 17.585859 42.984208 18.977109 42.984208 20.559766 C 42.984208 23.050234 39.950886 25.066016 36.210866 25.066016 C 32.475229 25.066016 29.444098 23.050234 29.444098 20.559766 C 29.444098 18.069844 32.475229 16.051875 36.210866 16.051875 C 37.573861 16.051875 38.842083 16.320937 39.908155 16.779766 " transform="matrix(7.130435,0,0,7.142857,0,0)"/>
<path style=" stroke:none;fill-rule:nonzero;fill:rgb(100%,100%,100%);fill-opacity:1;" d="M 294.785156 146.679688 C 294.785156 160.035156 278.566406 170.851562 258.585938 170.851562 C 238.597656 170.851562 222.371094 160.035156 222.371094 146.679688 C 222.371094 133.355469 238.597656 122.542969 258.59375 122.542969 C 278.566406 122.542969 294.785156 133.355469 294.785156 146.6875 "/>
<path style="fill:none;stroke-width:0.34975;stroke-linecap:butt;stroke-linejoin:miter;stroke:rgb(100%,100%,100%);stroke-opacity:1;stroke-miterlimit:4;" d="M 41.341821 20.535156 C 41.341821 22.404922 39.06724 23.918125 36.265101 23.918125 C 33.461866 23.918125 31.18619 22.404922 31.18619 20.535156 C 31.18619 18.669766 33.461866 17.154922 36.266197 17.154922 C 39.06724 17.154922 41.341821 18.669766 41.341821 20.535156 Z M 41.341821 20.535156 " transform="matrix(7.130435,0,0,7.142857,0,0)"/>
</g>
</svg>
