<?xml version="1.0" encoding="UTF-8"?>
<svg xmlns="http://www.w3.org/2000/svg" xmlns:xlink="http://www.w3.org/1999/xlink" width="125pt" height="200pt" viewBox="0 0 125 200" version="1.1">
<defs>
<clipPath id="clip1">
  <path d="M 35 27 L 125 27 L 125 194.257812 L 35 194.257812 Z M 35 27 "/>
</clipPath>
</defs>
<g id="surface1">
<path style=" stroke:none;fill-rule:nonzero;fill:rgb(1.176471%,41.176471%,59.607843%);fill-opacity:1;" d="M 33.90625 19.574219 L 1.734375 18.824219 L 0 20.324219 L 9.222656 48.445312 L 43.367188 46.675781 L 44.863281 44.925781 L 33.90625 19.574219 M 76.019531 -3.523438 L 88.15625 6.503906 L 86.703125 10.429688 L 87.675781 15.8125 L 89.59375 21.191406 L 101.433594 26.34375 L 104.421875 20.078125 L 101.171875 17.5625 L 101.9375 11.789062 L 94.707031 -2.261719 L 76.019531 -3.523438 M 76.972656 1.609375 L 73.015625 7.519531 L 72.023438 13.554688 L 68.535156 5.015625 L 76.972656 1.609375 "/>
<path style=" stroke:none;fill-rule:nonzero;fill:rgb(1.176471%,41.176471%,59.607843%);fill-opacity:1;" d="M 73.765625 4.753906 L 75.257812 6.765625 L 77.011719 7.011719 L 76.265625 5.503906 L 77.253906 3.511719 L 78.246094 5.503906 L 79.253906 7.519531 L 81.496094 8.535156 L 81.496094 6.519531 L 82.503906 4.753906 L 83.492188 6.765625 L 85.734375 8.023438 L 85.972656 6.253906 L 88.714844 6.011719 L 78.75 -2.261719 L 73.519531 -2.019531 L 71.785156 -0.265625 L 73.765625 4.753906 M 72.269531 12.539062 L 72.511719 15.058594 L 72.511719 22.074219 L 69.039062 21.832031 L 67.285156 19.820312 L 68.78125 17.070312 L 69.28125 14.550781 L 71.28125 10.28125 L 72.269531 12.539062 M 45.609375 47.695312 L 10.714844 50.191406 L 9.226562 52.207031 L 9.726562 56.230469 L 25.671875 63.246094 L 60.5625 59.238281 L 61.066406 54.726562 L 45.609375 47.695312 M 40.625 41.917969 L 13.203125 43.421875 L 5.730469 22.339844 L 32.410156 22.339844 L 40.625 41.917969 "/>
<path style=" stroke:none;fill-rule:nonzero;fill:rgb(1.176471%,41.176471%,59.607843%);fill-opacity:1;" d="M 40.125 62.25 L 36.894531 56.722656 L 32.652344 53.222656 L 32.410156 54.96875 L 26.175781 52.207031 L 26.921875 54.21875 L 22.925781 52.714844 L 24.417969 55.214844 L 22.179688 54.96875 L 24.417969 58.734375 L 27.167969 61.25 L 35.136719 65.257812 L 40.125 62.25 M 47.941406 96.890625 L 34.199219 99.542969 L 30.859375 104.527344 L 31.125 113.140625 L 38.929688 146.902344 L 38.773438 160.070312 L 33.738281 167.988281 L 44.953125 167.796875 L 50.40625 163.664062 L 52.835938 162.925781 L 53.042969 156.234375 L 49.234375 149.648438 L 48.074219 143.929688 L 48.839844 128.09375 L 47.53125 118.636719 L 47.941406 96.890625 "/>
<path style=" stroke:none;fill-rule:nonzero;fill:rgb(1.176471%,41.176471%,59.607843%);fill-opacity:1;" d="M 52.050781 153.769531 L 49.644531 153.976562 L 46.058594 157.625 L 40.792969 163.902344 L 36.238281 164.828125 L 37.917969 162.195312 L 33.515625 166.632812 L 26.472656 169.90625 L 26.960938 171.261719 L 34.386719 172.839844 L 40.773438 173.046875 L 44.84375 171.28125 L 47.683594 165.726562 L 49.832031 173.855469 L 50.632812 173.894531 L 54.140625 163.792969 L 54.066406 157.605469 L 52.050781 153.769531 "/>
<path style=" stroke:none;fill-rule:nonzero;fill:rgb(1.176471%,41.176471%,59.607843%);fill-opacity:1;" d="M 65.570312 96.101562 L 48.929688 98.792969 L 46.636719 104.097656 L 45.441406 108.363281 L 57.746094 142.125 L 57.597656 155.289062 L 52.554688 163.191406 L 63.777344 163.003906 L 69.226562 158.882812 L 71.652344 158.148438 L 71.859375 151.4375 L 68.070312 144.871094 L 66.894531 139.136719 L 67.65625 123.320312 L 66.351562 113.859375 L 65.570312 96.101562 "/>
<path style=" stroke:none;fill-rule:nonzero;fill:rgb(1.176471%,41.176471%,59.607843%);fill-opacity:1;" d="M 70.871094 148.992188 L 68.460938 149.179688 L 64.894531 152.828125 L 59.613281 159.109375 L 55.058594 160.050781 L 56.738281 157.417969 L 52.328125 161.839844 L 45.292969 165.109375 L 45.796875 166.484375 L 53.207031 168.0625 L 59.59375 168.25 L 63.660156 166.5 L 66.5 160.953125 L 68.644531 169.078125 L 69.449219 169.097656 L 72.960938 158.996094 L 72.886719 152.808594 L 70.871094 148.992188 M 91.945312 29.105469 L 79.496094 33.132812 L 67.039062 34.128906 L 57.070312 37.648438 L 54.570312 41.675781 L 57.558594 57.738281 L 53.582031 63.753906 L 50.59375 63.753906 L 49.097656 66.273438 L 43.109375 61.742188 L 38.140625 61.742188 L 33.160156 65.769531 L 35.136719 72.800781 L 49.097656 82.335938 L 59.574219 83.84375 L 64.558594 79.816406 L 59.070312 94.390625 L 47.589844 97.402344 L 43.109375 107.949219 L 47.589844 120.5 L 71.523438 125.007812 L 85.488281 126.515625 L 97.457031 125.007812 L 103.914062 119.988281 L 105.914062 113.96875 L 106.417969 108.945312 L 109.40625 105.433594 L 105.410156 93.882812 L 104.421875 81.828125 L 107.910156 82.335938 L 113.382812 79.816406 L 118.871094 42.671875 L 115.398438 36.652344 L 103.914062 31.632812 L 91.945312 29.105469 "/>
<path style=" stroke:none;fill-rule:nonzero;fill:rgb(1.176471%,41.176471%,59.607843%);fill-opacity:1;" d="M 73.109375 4.074219 L 78.691406 2.0625 L 89.839844 5.675781 L 92.226562 22.527344 L 91.03125 30.144531 L 77.890625 33.359375 L 71.914062 26.53125 L 70.71875 16.507812 L 73.109375 4.074219 M 106.304688 109.753906 L 101.824219 107.347656 L 97.34375 112.164062 L 83.601562 114.269531 L 69.863281 108.855469 L 59.070312 94.390625 L 47.589844 97.402344 L 43.109375 107.949219 L 47.589844 120.5 L 80.617188 126.308594 L 97.457031 125.007812 L 103.914062 119.988281 L 106.304688 109.753906 "/>
<path style=" stroke:none;fill-rule:nonzero;fill:rgb(1.176471%,41.176471%,59.607843%);fill-opacity:1;" d="M 72.511719 21.585938 L 75.761719 28.109375 L 77.761719 29.863281 L 79.738281 30.878906 L 80.503906 35.902344 L 75.761719 38.398438 L 73.765625 39.152344 L 66.78125 39.90625 L 63.289062 38.648438 L 61.554688 35.390625 L 63.796875 35.902344 L 65.289062 34.640625 L 62.804688 33.644531 L 61.3125 31.875 L 61.3125 29.617188 L 63.289062 30.878906 L 66.296875 30.125 L 65.042969 29.105469 L 64.558594 27.359375 L 67.546875 27.09375 L 68.273438 25.101562 L 67.792969 23.335938 L 70.027344 19.574219 L 72.511719 21.585938 M 90.476562 21.980469 L 90.730469 24.238281 L 89.742188 25.496094 L 87.988281 25.496094 L 88.980469 26.738281 L 90.730469 27.003906 L 90.476562 28.75 L 88.980469 29.75 L 86.738281 29.503906 L 87.726562 31.253906 L 89.988281 32.027344 L 91.964844 31.007812 L 91.722656 33.269531 L 90.730469 35.519531 L 88.496094 36.277344 L 90.476562 37.53125 L 93.460938 37.027344 L 92.730469 39.304688 L 92.730469 41.804688 L 94.46875 41.054688 L 96.222656 39.058594 L 97.457031 40.5625 L 99.9375 41.804688 L 103.6875 43.066406 L 107.929688 43.816406 L 111.160156 42.070312 L 111.90625 40.058594 L 109.664062 40.300781 L 107.425781 39.546875 L 109.179688 38.796875 L 110.414062 37.292969 L 111.660156 34.523438 L 110.171875 32.777344 L 109.425781 34.523438 L 107.929688 35.519531 L 107.683594 33.269531 L 108.171875 31.253906 L 106.4375 31.761719 L 104.175781 31.253906 L 104.941406 28.996094 L 105.929688 27.25 L 105.667969 24.726562 L 104.679688 25.742188 L 103.1875 26.253906 L 100.945312 25.742188 L 101.691406 24.238281 L 101.953125 21.980469 L 100.703125 20.964844 L 100.199219 22.226562 L 98.703125 21.71875 L 98.703125 18.953125 L 93.71875 18.953125 L 90.476562 21.980469 "/>
<g clip-path="url(#clip1)" clip-rule="nonzero">
<path style=" stroke:none;fill-rule:nonzero;fill:rgb(1.176471%,41.176471%,59.607843%);fill-opacity:1;" d="M 91.070312 39.339844 L 87.785156 43.253906 L 83.304688 38.738281 C 83.304688 38.738281 81.210938 44.457031 79.722656 42.652344 L 79.125 39.039062 L 76.433594 41.144531 C 76.433594 41.144531 70.164062 42.347656 71.652344 41.144531 C 73.148438 39.941406 73.148438 37.53125 73.148438 37.53125 L 82.109375 27.902344 L 94.355469 28.503906 L 91.070312 39.339844 M 82.238281 129.617188 L 81.679688 151.265625 L 52.535156 157.886719 C 47.980469 156.835938 46.597656 162.550781 46.597656 162.550781 L 46.453125 166.59375 L 48.746094 166.691406 L 48.597656 170.453125 C 50.722656 174.566406 54.609375 170.679688 54.609375 170.679688 L 54.796875 166.070312 L 78.246094 157.792969 L 57.316406 173.292969 C 53.621094 179.519531 56.550781 185.402344 56.550781 185.402344 C 53.472656 190.78125 58.472656 194.734375 58.472656 194.734375 C 65.230469 198.472656 65.265625 190.085938 65.265625 190.085938 C 66.332031 185.214844 61.441406 185.027344 61.441406 185.027344 L 60.132812 182.074219 L 85.617188 160.386719 L 115.304688 180.546875 L 116.609375 184.085938 C 113.175781 190.875 118.8125 193.414062 118.8125 193.414062 C 126.785156 195.183594 123.910156 187.828125 123.910156 187.828125 C 124.359375 183.800781 121.199219 183.691406 121.199219 183.691406 L 119.015625 181 C 119.015625 181 116.964844 181.769531 119.335938 179.855469 C 121.726562 177.917969 120.210938 172.367188 120.210938 172.367188 L 92.660156 156.628906 L 112.613281 161.839844 L 116.535156 164.601562 C 116.273438 171.242188 120.925781 169.398438 120.925781 169.398438 C 125.792969 169.585938 123.144531 164.285156 123.144531 164.285156 C 121.464844 162.777344 119.222656 161.816406 119.222656 161.816406 L 117.207031 157.664062 L 105.761719 154.371094 L 88.527344 151.136719 L 89.035156 131.914062 M 75.351562 135.429688 L 36.894531 122.152344 C 34.335938 119.5 37.621094 114.816406 37.621094 114.816406 L 75.558594 126.929688 "/>
</g>
<path style=" stroke:none;fill-rule:nonzero;fill:rgb(1.176471%,41.176471%,59.607843%);fill-opacity:1;" d="M 102.90625 125.988281 L 76.226562 136.105469 L 76.527344 112.992188 C 96.296875 61.574219 99.453125 61.855469 99.453125 61.855469 C 106.058594 58.09375 107.761719 57.808594 107.761719 57.808594 C 117.242188 58.390625 120.605469 54.953125 120.605469 54.953125 C 123.761719 52.339844 126.917969 56.101562 126.917969 56.101562 L 102.90625 125.988281 "/>
</g>
</svg>
