<?xml version="1.0" encoding="UTF-8"?>
<svg xmlns="http://www.w3.org/2000/svg" xmlns:xlink="http://www.w3.org/1999/xlink" width="147pt" height="200pt" viewBox="0 0 147 200" version="1.1">
<g id="surface1">
<path style=" stroke:none;fill-rule:nonzero;fill:rgb(0.784314%,42.352941%,60.784314%);fill-opacity:1;" d="M 3.820312 194.847656 L 107.636719 194.847656 L 107.636719 33.585938 L 3.820312 33.585938 Z M 3.820312 194.847656 "/>
<path style="fill:none;stroke-width:0.5;stroke-linecap:butt;stroke-linejoin:miter;stroke:rgb(100%,100%,100%);stroke-opacity:1;stroke-miterlimit:4;" d="M 20.502976 6.381328 L 0.727679 6.381328 L 0.727679 37.021055 L 20.502232 37.021055 " transform="matrix(5.25,0,0,5.263158,0,0)"/>
<path style=" stroke:none;fill-rule:nonzero;fill:rgb(0.784314%,42.352941%,60.784314%);fill-opacity:1;" d="M 107.640625 194.847656 L 139.886719 162.519531 L 139.886719 1.257812 L 45.09375 1.257812 L 3.820312 33.578125 L 107.640625 33.578125 L 107.640625 194.84375 "/>
<path style="fill:none;stroke-width:0.5;stroke-linecap:butt;stroke-linejoin:miter;stroke:rgb(100%,100%,100%);stroke-opacity:1;stroke-miterlimit:4;" d="M 20.502976 37.021055 L 26.645089 30.878711 L 26.645089 0.238984 L 8.589286 0.238984 L 0.727679 6.379844 L 20.502976 6.379844 Z M 20.502976 37.021055 " transform="matrix(5.25,0,0,5.263158,0,0)"/>
<path style=" stroke:none;fill-rule:nonzero;fill:rgb(0.784314%,42.352941%,60.784314%);fill-opacity:1;" d="M 107.640625 33.585938 L 139.886719 1.261719 "/>
<path style="fill:none;stroke-width:0.5;stroke-linecap:butt;stroke-linejoin:miter;stroke:rgb(100%,100%,100%);stroke-opacity:1;stroke-miterlimit:4;" d="M 20.502976 6.381328 L 26.645089 0.239727 M 10.541667 6.381328 L 10.541667 37.021055 " transform="matrix(5.25,0,0,5.263158,0,0)"/>
<path style="fill-rule:nonzero;fill:rgb(0.784314%,42.352941%,60.784314%);fill-opacity:1;stroke-width:0.5;stroke-linecap:butt;stroke-linejoin:miter;stroke:rgb(100%,100%,100%);stroke-opacity:1;stroke-miterlimit:4;" d="M 10.854911 6.381328 L 17.53869 0.239727 " transform="matrix(5.25,0,0,5.263158,0,0)"/>
<path style="fill-rule:nonzero;fill:rgb(0.784314%,42.352941%,60.784314%);fill-opacity:1;stroke-width:0.5;stroke-linecap:butt;stroke-linejoin:miter;stroke:rgb(100%,100%,100%);stroke-opacity:1;stroke-miterlimit:4;" d="M 2.436012 13.242852 L 9.075893 13.242852 L 9.075893 9.180117 L 2.436012 9.180117 Z M 2.436012 13.242852 " transform="matrix(5.25,0,0,5.263158,0,0)"/>
<path style="fill-rule:nonzero;fill:rgb(0.784314%,42.352941%,60.784314%);fill-opacity:1;stroke-width:0.5;stroke-linecap:butt;stroke-linejoin:miter;stroke:rgb(100%,100%,100%);stroke-opacity:1;stroke-miterlimit:4;" d="M 11.962054 13.242852 L 18.601935 13.242852 L 18.601935 9.180117 L 11.962054 9.180117 Z M 11.962054 13.242852 " transform="matrix(5.25,0,0,5.263158,0,0)"/>
<path style="fill-rule:nonzero;fill:rgb(0.784314%,42.352941%,60.784314%);fill-opacity:1;stroke-width:0.5;stroke-linecap:butt;stroke-linejoin:miter;stroke:rgb(100%,100%,100%);stroke-opacity:1;stroke-miterlimit:4;" d="M 2.436012 28.243203 L 9.075893 28.243203 L 9.075893 24.179727 L 2.436012 24.179727 Z M 2.436012 28.243203 " transform="matrix(5.25,0,0,5.263158,0,0)"/>
<path style="fill-rule:nonzero;fill:rgb(0.784314%,42.352941%,60.784314%);fill-opacity:1;stroke-width:0.5;stroke-linecap:butt;stroke-linejoin:miter;stroke:rgb(100%,100%,100%);stroke-opacity:1;stroke-miterlimit:4;" d="M 11.962054 28.243203 L 18.601935 28.243203 L 18.601935 24.179727 L 11.962054 24.179727 Z M 11.962054 28.243203 " transform="matrix(5.25,0,0,5.263158,0,0)"/>
<path style="fill-rule:nonzero;fill:rgb(0.784314%,42.352941%,60.784314%);fill-opacity:1;stroke-width:0.5;stroke-linecap:butt;stroke-linejoin:miter;stroke:rgb(100%,100%,100%);stroke-opacity:1;stroke-miterlimit:4;" d="M 2.436012 34.804883 L 9.075893 34.804883 L 9.075893 30.742891 L 2.436012 30.742891 Z M 2.436012 34.804883 " transform="matrix(5.25,0,0,5.263158,0,0)"/>
<path style="fill-rule:nonzero;fill:rgb(0.784314%,42.352941%,60.784314%);fill-opacity:1;stroke-width:0.5;stroke-linecap:butt;stroke-linejoin:miter;stroke:rgb(100%,100%,100%);stroke-opacity:1;stroke-miterlimit:4;" d="M 11.962054 34.804883 L 18.601935 34.804883 L 18.601935 30.742891 L 11.962054 30.742891 Z M 11.962054 34.804883 " transform="matrix(5.25,0,0,5.263158,0,0)"/>
</g>
</svg>
