<?xml version="1.0" encoding="UTF-8"?>
<svg xmlns="http://www.w3.org/2000/svg" xmlns:xlink="http://www.w3.org/1999/xlink" width="443pt" height="200pt" viewBox="0 0 443 200" version="1.1">
<g id="surface1">
<path style="fill-rule:nonzero;fill:rgb(1.176471%,41.176471%,59.607843%);fill-opacity:1;stroke-width:0.5;stroke-linecap:butt;stroke-linejoin:miter;stroke:rgb(100%,100%,100%);stroke-opacity:1;stroke-miterlimit:4;" d="M 43.998113 21.708945 L 51.497822 11.234961 L 51.497822 3.852949 C 51.498721 1.864707 49.888332 0.251563 47.900192 0.248867 L 10.098097 0.248867 C 8.109957 0.248867 7.334218 1.708828 6.084042 2.959004 L 0.669159 8.793906 " transform="matrix(8.686275,0,0,8.695652,0,0)"/>
<path style=" stroke:none;fill-rule:nonzero;fill:rgb(1.176471%,41.176471%,59.607843%);fill-opacity:1;" d="M 393.035156 162.914062 C 393.035156 180.199219 379.050781 194.207031 361.785156 194.207031 L 33.425781 194.207031 C 16.15625 194.207031 2.152344 180.191406 2.152344 162.90625 L 2.152344 98.722656 C 2.148438 81.421875 16.144531 67.394531 33.425781 67.375 L 361.785156 67.375 C 379.0625 67.394531 393.054688 81.425781 393.046875 98.722656 L 393.046875 162.914062 "/>
<path style="fill:none;stroke-width:0.5;stroke-linecap:butt;stroke-linejoin:miter;stroke:rgb(100%,100%,100%);stroke-opacity:1;stroke-miterlimit:4;" d="M 45.24784 18.735117 C 45.24784 20.72291 43.6379 22.333809 41.65021 22.333809 L 3.848115 22.333809 C 1.859975 22.333809 0.247787 20.722012 0.247787 18.734219 L 0.247787 11.353105 C 0.247337 9.363516 1.858625 7.750371 3.848115 7.748125 L 41.65021 7.748125 C 43.639249 7.750371 45.250088 9.363965 45.249189 11.353105 L 45.249189 18.735117 Z M 45.24784 18.735117 " transform="matrix(8.686275,0,0,8.695652,0,0)"/>
<path style="fill-rule:nonzero;fill:rgb(1.176471%,41.176471%,59.607843%);fill-opacity:1;stroke-width:0.5;stroke-linecap:butt;stroke-linejoin:miter;stroke:rgb(100%,100%,100%);stroke-opacity:1;stroke-miterlimit:4;" d="M 13.804106 15.02502 L 32.764064 15.02502 L 32.764064 9.018965 L 13.804106 9.018965 Z M 13.804106 15.02502 " transform="matrix(8.686275,0,0,8.695652,0,0)"/>
<path style=" stroke:none;fill-rule:nonzero;fill:rgb(1.176471%,41.176471%,59.607843%);fill-opacity:1;" d="M 322.886719 98.296875 C 322.996094 101.992188 321.085938 105.453125 317.90625 107.332031 C 314.726562 109.210938 310.777344 109.210938 307.601562 107.332031 C 304.421875 105.453125 302.511719 101.992188 302.621094 98.296875 C 302.78125 92.808594 307.269531 88.445312 312.753906 88.445312 C 318.238281 88.445312 322.726562 92.808594 322.886719 98.296875 "/>
<path style="fill:none;stroke-width:0.5;stroke-linecap:butt;stroke-linejoin:miter;stroke:rgb(100%,100%,100%);stroke-opacity:1;stroke-miterlimit:4;" d="M 37.17206 11.304141 C 37.184652 11.729102 36.964747 12.127109 36.598688 12.343184 C 36.232629 12.559258 35.777979 12.559258 35.412369 12.343184 C 35.046311 12.127109 34.826406 11.729102 34.838997 11.304141 C 34.857435 10.672988 35.374145 10.171211 36.005529 10.171211 C 36.636913 10.171211 37.153622 10.672988 37.17206 11.304141 Z M 37.17206 11.304141 " transform="matrix(8.686275,0,0,8.695652,0,0)"/>
<path style=" stroke:none;fill-rule:nonzero;fill:rgb(1.176471%,41.176471%,59.607843%);fill-opacity:1;" d="M 322.886719 127.253906 C 322.996094 130.945312 321.089844 134.410156 317.910156 136.289062 C 314.734375 138.171875 310.785156 138.171875 307.605469 136.292969 C 304.421875 134.417969 302.515625 130.957031 302.621094 127.261719 C 302.777344 121.773438 307.265625 117.40625 312.75 117.40625 C 318.230469 117.402344 322.722656 121.765625 322.886719 127.253906 "/>
<path style="fill:none;stroke-width:0.5;stroke-linecap:butt;stroke-linejoin:miter;stroke:rgb(100%,100%,100%);stroke-opacity:1;stroke-miterlimit:4;" d="M 37.17206 14.634199 C 37.184652 15.058711 36.965196 15.457168 36.599138 15.673242 C 36.233528 15.889766 35.778878 15.889766 35.412819 15.673691 C 35.046311 15.458066 34.826855 15.060059 34.838997 14.635098 C 34.856985 14.003945 35.373695 13.501719 36.005079 13.501719 C 36.636013 13.50127 37.153173 14.003047 37.17206 14.634199 Z M 37.17206 14.634199 " transform="matrix(8.686275,0,0,8.695652,0,0)"/>
<path style=" stroke:none;fill-rule:nonzero;fill:rgb(1.176471%,41.176471%,59.607843%);fill-opacity:1;" d="M 322.886719 156.253906 C 322.996094 159.945312 321.085938 163.410156 317.90625 165.289062 C 314.726562 167.167969 310.777344 167.167969 307.601562 165.289062 C 304.421875 163.410156 302.511719 159.945312 302.621094 156.253906 C 302.78125 150.765625 307.269531 146.402344 312.753906 146.402344 C 318.238281 146.402344 322.726562 150.765625 322.886719 156.253906 "/>
<path style="fill:none;stroke-width:0.5;stroke-linecap:butt;stroke-linejoin:miter;stroke:rgb(100%,100%,100%);stroke-opacity:1;stroke-miterlimit:4;" d="M 37.17206 17.969199 C 37.184652 18.393711 36.964747 18.792168 36.598688 19.008242 C 36.232629 19.224316 35.777979 19.224316 35.412369 19.008242 C 35.046311 18.792168 34.826406 18.393711 34.838997 17.969199 C 34.857435 17.338047 35.374145 16.83627 36.005529 16.83627 C 36.636913 16.83627 37.153622 17.338047 37.17206 17.969199 Z M 37.17206 17.969199 " transform="matrix(8.686275,0,0,8.695652,0,0)"/>
<path style=" stroke:none;fill-rule:nonzero;fill:rgb(1.176471%,41.176471%,59.607843%);fill-opacity:1;" d="M 254.019531 165.382812 C 254.019531 173.398438 232.972656 179.90625 206.976562 179.90625 C 181.023438 179.90625 159.941406 173.398438 159.941406 165.382812 C 159.941406 157.390625 181.023438 150.90625 206.976562 150.90625 C 232.972656 150.90625 254.019531 157.390625 254.019531 165.382812 "/>
<path style="fill:none;stroke-width:0.5;stroke-linecap:butt;stroke-linejoin:miter;stroke:rgb(100%,100%,100%);stroke-opacity:1;stroke-miterlimit:4;" d="M 29.243784 19.019023 C 29.243784 19.94082 26.82078 20.689219 23.828002 20.689219 C 20.84017 20.689219 18.413119 19.94082 18.413119 19.019023 C 18.413119 18.099922 20.84017 17.354219 23.828002 17.354219 C 26.82078 17.354219 29.243784 18.099922 29.243784 19.019023 Z M 29.243784 19.019023 " transform="matrix(8.686275,0,0,8.695652,0,0)"/>
</g>
</svg>
