<?xml version="1.0" encoding="UTF-8"?>
<svg xmlns="http://www.w3.org/2000/svg" xmlns:xlink="http://www.w3.org/1999/xlink" width="209pt" height="200pt" viewBox="0 0 209 200" version="1.1">
<g id="surface1">
<path style=" stroke:none;fill-rule:nonzero;fill:rgb(0.784314%,42.352941%,60.784314%);fill-opacity:1;" d="M 3.417969 191.703125 L 186.203125 191.703125 L 186.203125 19.824219 L 3.417969 19.824219 Z M 3.417969 191.703125 "/>
<path style="fill:none;stroke-width:0.5;stroke-linecap:butt;stroke-linejoin:miter;stroke:rgb(100%,100%,100%);stroke-opacity:1;stroke-miterlimit:4;" d="M 0.703218 39.29834 L 38.309734 39.29834 L 38.309734 4.063164 L 0.703218 4.063164 Z M 0.703218 39.29834 " transform="matrix(4.860465,0,0,4.878049,0,0)"/>
<path style=" stroke:none;fill-rule:nonzero;fill:rgb(0.784314%,42.352941%,60.784314%);fill-opacity:1;" d="M 3.417969 19.824219 L 22.1875 4.53125 L 201.464844 4.53125 L 186.203125 19.824219 L 3.417969 19.824219 "/>
<path style="fill:none;stroke-width:0.5;stroke-linecap:butt;stroke-linejoin:miter;stroke:rgb(100%,100%,100%);stroke-opacity:1;stroke-miterlimit:4;" d="M 0.703218 4.063164 L 4.564892 0.928105 L 41.449705 0.928105 L 38.309734 4.063164 Z M 0.703218 4.063164 " transform="matrix(4.860465,0,0,4.878049,0,0)"/>
<path style=" stroke:none;fill-rule:nonzero;fill:rgb(0.784314%,42.352941%,60.784314%);fill-opacity:1;" d="M 186.203125 191.691406 L 201.464844 172.855469 L 201.464844 4.535156 L 186.203125 19.828125 L 186.203125 191.699219 "/>
<path style="fill:none;stroke-width:0.5;stroke-linecap:butt;stroke-linejoin:miter;stroke:rgb(100%,100%,100%);stroke-opacity:1;stroke-miterlimit:4;" d="M 38.309734 39.29834 L 41.449705 35.436172 L 41.449705 0.928105 L 38.309734 4.063164 Z M 38.022821 15.986797 L 30.916698 15.986797 C 28.462265 15.986797 28.462265 13.530801 28.462265 13.530801 C 32.285362 5.064941 25.454097 6.431074 25.454097 6.431074 C 25.454097 6.431074 18.627654 5.064941 22.450751 13.530801 C 22.450751 13.530801 22.450751 15.986797 19.994711 15.986797 L 2.783941 15.986797 C 2.783941 15.986797 1.416081 16.260664 0.868776 18.17373 M 0.663838 27.012754 L 7.764335 27.012754 C 10.220376 27.012754 10.220376 29.472754 10.220376 29.472754 C 6.395671 37.940215 13.226936 36.573281 13.226936 36.573281 C 13.226936 36.573281 20.059005 37.940215 16.235104 29.472754 C 16.235104 29.472754 16.235104 27.012754 18.691145 27.012754 L 35.904325 27.012754 C 35.904325 27.012754 37.264952 26.743691 37.812257 24.829824 " transform="matrix(4.860465,0,0,4.878049,0,0)"/>
<path style=" stroke:none;fill-rule:nonzero;fill:rgb(100%,100%,100%);fill-opacity:1;" d="M 46.042969 98.300781 L 50.644531 105.257812 L 33.203125 109.308594 L 37.027344 106.117188 L 10.0625 101.492188 L 16.828125 96.394531 L 42.839844 100.828125 L 46.042969 98.300781 M 70.578125 115.144531 L 67.449219 108 L 83.183594 104.828125 L 80.457031 107.28125 L 106.683594 111.785156 L 100.363281 116.835938 L 74.308594 111.925781 L 70.582031 115.144531 M 61.992188 94.523438 L 79.605469 89.683594 L 79.8125 97.253906 L 75.425781 96.394531 L 66.808594 103.566406 L 58.597656 102.375 L 67.46875 95.371094 L 61.992188 94.523438 M 54.441406 121.667969 L 37.640625 124.839844 L 37.027344 117.046875 L 41.839844 118.097656 L 51.074219 110.191406 L 59.257812 111.570312 L 49.390625 120.195312 L 54.445312 121.667969 M 146.4375 105.589844 L 157.964844 114.664062 L 163.355469 114.640625 L 163.355469 112.261719 L 175.59375 116.625 L 163.355469 120.980469 L 163.355469 118.523438 L 156.371094 118.496094 L 143.175781 108.140625 L 129.988281 118.496094 L 123.007812 118.523438 L 123.007812 120.980469 L 110.761719 116.625 L 123.007812 112.261719 L 123.007812 114.644531 L 128.371094 114.664062 L 139.929688 105.589844 L 128.371094 96.492188 L 123.007812 96.515625 L 123.007812 98.898438 L 110.761719 94.542969 L 123.007812 90.179688 L 123.007812 92.632812 L 129.988281 92.660156 L 143.175781 103.019531 L 156.371094 92.660156 L 163.355469 92.632812 L 163.355469 90.179688 L 175.59375 94.542969 L 163.355469 98.898438 L 163.355469 96.515625 L 157.964844 96.492188 L 146.429688 105.59375 "/>
</g>
</svg>
