<?xml version="1.0" encoding="UTF-8"?>
<svg xmlns="http://www.w3.org/2000/svg" xmlns:xlink="http://www.w3.org/1999/xlink" width="137pt" height="200pt" viewBox="0 0 137 200" version="1.1">
<g id="surface1">
<path style="fill:none;stroke-width:1.25;stroke-linecap:butt;stroke-linejoin:miter;stroke:rgb(1.176471%,41.176471%,59.607843%);stroke-opacity:1;stroke-miterlimit:4;" d="M 18.715785 15.630547 L 18.715785 58.070234 M 18.715785 15.630547 L 36.870438 51.189531 M 18.715785 15.630547 L 0.556569 51.189531 " transform="matrix(3.425,0,0,3.448276,0,0)"/>
<path style="fill-rule:nonzero;fill:rgb(1.176471%,41.176471%,59.607843%);fill-opacity:1;stroke-width:0.5;stroke-linecap:butt;stroke-linejoin:miter;stroke:rgb(100%,100%,100%);stroke-opacity:1;stroke-miterlimit:4;" d="M 13.275547 20.526563 L 24.150319 20.526563 L 24.150319 10.726602 L 13.275547 10.726602 Z M 13.275547 20.526563 " transform="matrix(3.425,0,0,3.448276,0,0)"/>
<path style=" stroke:none;fill-rule:nonzero;fill:rgb(1.176471%,41.176471%,59.607843%);fill-opacity:1;" d="M 10.703125 35.84375 C 8.746094 35.84375 7.160156 31.164062 7.160156 25.394531 C 7.160156 19.632812 8.746094 14.953125 10.703125 14.953125 L 29.316406 14.953125 C 31.273438 14.953125 32.863281 19.632812 32.863281 25.394531 C 32.863281 31.164062 31.273438 35.84375 29.316406 35.84375 L 10.703125 35.84375 "/>
<path style="fill:none;stroke-width:0.5;stroke-linecap:butt;stroke-linejoin:miter;stroke:rgb(100%,100%,100%);stroke-opacity:1;stroke-miterlimit:4;" d="M 3.125 10.394688 C 2.553604 10.394688 2.090557 9.037578 2.090557 7.364414 C 2.090557 5.693516 2.553604 4.336406 3.125 4.336406 L 8.559535 4.336406 C 9.130931 4.336406 9.595119 5.693516 9.595119 7.364414 C 9.595119 9.037578 9.130931 10.394688 8.559535 10.394688 Z M 3.125 10.394688 " transform="matrix(3.425,0,0,3.448276,0,0)"/>
<path style="fill-rule:nonzero;fill:rgb(1.176471%,41.176471%,59.607843%);fill-opacity:1;stroke-width:0.5;stroke-linecap:butt;stroke-linejoin:miter;stroke:rgb(100%,100%,100%);stroke-opacity:1;stroke-miterlimit:4;" d="M 7.119069 14.545313 L 30.3125 14.545313 L 30.3125 3.994297 L 7.119069 3.994297 Z M 7.119069 14.545313 " transform="matrix(3.425,0,0,3.448276,0,0)"/>
<path style=" stroke:none;fill-rule:nonzero;fill:rgb(1.176471%,41.176471%,59.607843%);fill-opacity:1;" d="M 103.820312 50.257812 L 103.820312 13.773438 L 24.335938 13.773438 L 34.566406 3.46875 L 113.96875 3.46875 L 113.96875 39.96875 L 103.820312 50.257812 "/>
<path style="fill:none;stroke-width:0.5;stroke-linecap:butt;stroke-linejoin:miter;stroke:rgb(100%,100%,100%);stroke-opacity:1;stroke-miterlimit:4;" d="M 30.3125 14.574766 L 30.3125 3.994297 L 7.105383 3.994297 L 10.092381 1.005938 L 33.275547 1.005938 L 33.275547 11.590938 Z M 30.3125 14.574766 " transform="matrix(3.425,0,0,3.448276,0,0)"/>
<path style=" stroke:none;fill-rule:nonzero;fill:rgb(1.176471%,41.176471%,59.607843%);fill-opacity:1;" d="M 103.820312 13.773438 L 113.96875 3.46875 "/>
<path style="fill:none;stroke-width:0.5;stroke-linecap:butt;stroke-linejoin:miter;stroke:rgb(100%,100%,100%);stroke-opacity:1;stroke-miterlimit:4;" d="M 30.3125 3.994297 L 33.275547 1.005938 M 30.3125 11.748398 L 7.119069 11.748398 " transform="matrix(3.425,0,0,3.448276,0,0)"/>
<path style="fill-rule:nonzero;fill:rgb(1.176471%,41.176471%,59.607843%);fill-opacity:1;stroke-width:0.5;stroke-linecap:butt;stroke-linejoin:miter;stroke:rgb(100%,100%,100%);stroke-opacity:1;stroke-miterlimit:4;" d="M 33.275547 8.794023 L 30.3125 11.783516 " transform="matrix(3.425,0,0,3.448276,0,0)"/>
<path style=" stroke:none;fill-rule:nonzero;fill:rgb(1.176471%,41.176471%,59.607843%);fill-opacity:1;" d="M 137.464844 1.34375 L 135.898438 9.125 L 108.003906 27.394531 L 106.628906 12.863281 L 137.464844 1.34375 "/>
<path style="fill:none;stroke-width:0.5;stroke-linecap:butt;stroke-linejoin:miter;stroke:rgb(100%,100%,100%);stroke-opacity:1;stroke-miterlimit:4;" d="M 40.135721 0.389688 L 39.678376 2.64625 L 31.533987 7.944414 L 31.132527 3.730352 Z M 40.135721 0.389688 " transform="matrix(3.425,0,0,3.448276,0,0)"/>
</g>
</svg>
