<?xml version="1.0" encoding="UTF-8"?>
<svg xmlns="http://www.w3.org/2000/svg" xmlns:xlink="http://www.w3.org/1999/xlink" width="144pt" height="200pt" viewBox="0 0 144 200" version="1.1">
<defs>
<clipPath id="clip1">
  <path d="M 111 0 L 144 0 L 144 194.257812 L 111 194.257812 Z M 111 0 "/>
</clipPath>
</defs>
<g id="surface1">
<path style=" stroke:none;fill-rule:nonzero;fill:rgb(0.784314%,42.352941%,60.784314%);fill-opacity:1;" d="M 147.019531 168.542969 L 147.019531 -3.589844 L 122.382812 19.882812 L 122.382812 192.011719 L 147.019531 168.542969 "/>
<g clip-path="url(#clip1)" clip-rule="nonzero">
<path style="fill:none;stroke-width:4;stroke-linecap:butt;stroke-linejoin:miter;stroke:rgb(100%,100%,100%);stroke-opacity:1;stroke-miterlimit:4;" d="M 306.29069 63.410757 L 306.29069 420.917368 L 254.964193 372.166466 L 254.964193 14.667969 Z M 306.29069 63.410757 " transform="matrix(0.48,0,0,-0.481481,0,199.074074)"/>
</g>
<path style=" stroke:none;fill-rule:nonzero;fill:rgb(0.784314%,42.352941%,60.784314%);fill-opacity:1;" d="M 147.019531 -3.589844 L 122.382812 19.882812 L 2.871094 19.882812 L 33.824219 -3.589844 L 147.019531 -3.589844 "/>
<path style="fill:none;stroke-width:4;stroke-linecap:butt;stroke-linejoin:miter;stroke:rgb(100%,100%,100%);stroke-opacity:1;stroke-miterlimit:4;" d="M 306.29069 420.917368 L 254.964193 372.166466 L 5.981445 372.166466 L 70.467122 420.917368 Z M 306.29069 420.917368 " transform="matrix(0.48,0,0,-0.481481,0,199.074074)"/>
<path style="fill-rule:nonzero;fill:rgb(0.784314%,42.352941%,60.784314%);fill-opacity:1;stroke-width:4;stroke-linecap:butt;stroke-linejoin:miter;stroke:rgb(100%,100%,100%);stroke-opacity:1;stroke-miterlimit:4;" d="M 5.981445 125.913161 L 254.956055 125.913161 L 254.956055 372.166466 L 5.981445 372.166466 Z M 5.981445 125.913161 " transform="matrix(0.48,0,0,-0.481481,0,199.074074)"/>
<path style="fill-rule:nonzero;fill:rgb(0.784314%,42.352941%,60.784314%);fill-opacity:1;stroke-width:4;stroke-linecap:butt;stroke-linejoin:miter;stroke:rgb(100%,100%,100%);stroke-opacity:1;stroke-miterlimit:4;" d="M 5.981445 14.667969 L 254.956055 14.667969 L 254.956055 123.414363 L 5.981445 123.414363 Z M 5.981445 14.667969 " transform="matrix(0.48,0,0,-0.481481,0,199.074074)"/>
<path style=" stroke:none;fill-rule:nonzero;fill:rgb(100%,100%,100%);fill-opacity:1;" d="M 51.953125 65.113281 L 33.789062 46.871094 L 36.863281 43.769531 L 25.445312 41.453125 L 27.75 52.910156 L 30.847656 49.828125 L 49.03125 68.050781 L 51.953125 65.113281 M 45.316406 77.058594 L 19.59375 77.058594 L 19.59375 72.679688 L 9.882812 79.128906 L 19.59375 85.597656 L 19.59375 81.214844 L 45.316406 81.214844 L 45.316406 77.058594 M 49.03125 90.203125 L 30.847656 108.449219 L 27.75 105.367188 L 25.445312 116.820312 L 36.863281 114.484375 L 33.789062 111.40625 L 51.953125 93.160156 L 49.03125 90.203125 M 60.933594 96.882812 L 60.933594 122.6875 L 56.570312 122.6875 L 63 132.410156 L 69.453125 122.6875 L 65.082031 122.6875 L 65.082031 96.882812 L 60.933594 96.882812 M 60.933594 62.125 L 60.933594 36.339844 L 56.570312 36.339844 L 63 26.597656 L 69.453125 36.339844 L 65.082031 36.339844 L 65.082031 62.125 L 60.933594 62.125 M 74.046875 93.160156 L 92.230469 111.40625 L 89.152344 114.484375 L 100.574219 116.820312 L 98.25 105.367188 L 95.175781 108.449219 L 76.988281 90.203125 L 74.046875 93.160156 M 80.699219 81.214844 L 106.425781 81.214844 L 106.425781 85.597656 L 116.117188 79.128906 L 106.425781 72.679688 L 106.425781 77.058594 L 80.699219 77.058594 L 80.699219 81.214844 M 76.988281 68.050781 L 95.175781 49.828125 L 98.25 52.910156 L 100.574219 41.453125 L 89.152344 43.769531 L 92.230469 46.871094 L 74.046875 65.113281 L 76.988281 68.050781 "/>
<path style=" stroke:none;fill-rule:nonzero;fill:rgb(100%,100%,100%);fill-opacity:1;" d="M 78.789062 100.964844 C 90.917969 92.441406 93.882812 75.667969 85.367188 63.496094 C 76.875 51.332031 60.148438 48.378906 48.019531 56.894531 C 35.890625 65.417969 32.941406 82.191406 41.4375 94.363281 C 49.929688 106.53125 66.65625 109.5 78.789062 100.964844 "/>
<path style="fill:none;stroke-width:4;stroke-linecap:butt;stroke-linejoin:miter;stroke:rgb(0.784314%,42.352941%,60.784314%);stroke-opacity:1;stroke-miterlimit:4;" d="M 164.14388 203.765325 C 189.412435 221.467849 195.589193 256.304988 177.848307 281.585036 C 160.15625 306.848858 125.309245 312.982272 100.04069 295.295974 C 74.772135 277.59345 68.62793 242.75631 86.328125 217.476262 C 104.020182 192.204327 138.867187 186.038462 164.14388 203.765325 Z M 164.14388 203.765325 " transform="matrix(0.48,0,0,-0.481481,0,199.074074)"/>
<path style=" stroke:none;fill-rule:nonzero;fill:rgb(100%,100%,100%);fill-opacity:1;" d="M 65.066406 156.070312 L 69.453125 156.070312 L 63 146.347656 L 56.570312 156.070312 L 60.902344 156.070312 L 60.902344 176.382812 L 56.53125 176.382812 L 62.960938 186.125 L 69.394531 176.382812 L 65.066406 176.382812 L 65.066406 156.070312 M 31.820312 156.070312 L 36.207031 156.070312 L 29.753906 146.347656 L 23.324219 156.070312 L 27.65625 156.070312 L 27.65625 176.382812 L 23.269531 176.382812 L 29.71875 186.125 L 36.148438 176.382812 L 31.820312 176.382812 L 31.820312 156.070312 M 96.847656 156.070312 L 101.230469 156.070312 L 94.78125 146.347656 L 88.347656 156.070312 L 92.683594 156.070312 L 92.683594 176.382812 L 88.296875 176.382812 L 94.742188 186.125 L 101.175781 176.382812 L 96.847656 176.382812 L 96.847656 156.070312 "/>
</g>
</svg>
