<?xml version="1.0" encoding="UTF-8"?>
<svg xmlns="http://www.w3.org/2000/svg" xmlns:xlink="http://www.w3.org/1999/xlink" width="296pt" height="200pt" viewBox="0 0 296 200" version="1.1">
<g id="surface1">
<path style=" stroke:none;fill-rule:nonzero;fill:rgb(1.176471%,41.176471%,59.607843%);fill-opacity:1;" d="M 291.546875 59.058594 L 291.546875 135.671875 L 221.382812 191.933594 L 75.570312 191.933594 L 2.671875 135.671875 L 2.671875 59.058594 "/>
<path style="fill:none;stroke-width:0.5;stroke-linecap:butt;stroke-linejoin:miter;stroke:rgb(100%,100%,100%);stroke-opacity:1;stroke-miterlimit:4;" d="M 45.30796 9.154082 L 45.30796 21.029141 L 34.404086 29.749102 L 11.744035 29.749102 L 0.415224 21.029141 L 0.415224 9.154082 " transform="matrix(6.434783,0,0,6.451613,0,0)"/>
<path style=" stroke:none;fill-rule:nonzero;fill:rgb(1.176471%,41.176471%,59.607843%);fill-opacity:1;" d="M 220.003906 3.832031 L 76.945312 3.832031 L 2.671875 59.058594 L 75.570312 115.324219 L 221.382812 115.324219 L 291.546875 59.058594 L 220.003906 3.832031 "/>
<path style="fill:none;stroke-width:0.5;stroke-linecap:butt;stroke-linejoin:miter;stroke:rgb(100%,100%,100%);stroke-opacity:1;stroke-miterlimit:4;" d="M 34.189796 0.593965 L 11.957717 0.593965 L 0.415224 9.154082 L 11.744035 17.874043 L 34.404086 17.874043 L 45.30796 9.154082 Z M 34.189796 0.593965 " transform="matrix(6.434783,0,0,6.451613,0,0)"/>
<path style=" stroke:none;fill-rule:nonzero;fill:rgb(100%,100%,100%);fill-opacity:1;" d="M 118.703125 37.859375 L 129.835938 54.613281 L 87.71875 64.347656 L 96.933594 56.695312 L 43.074219 45.226562 L 59.417969 32.941406 L 110.972656 43.933594 L 118.703125 37.859375 M 177.929688 78.457031 L 170.335938 61.199219 L 208.3125 53.605469 L 201.75 59.503906 L 257.988281 69.167969 L 242.816406 81.359375 L 186.910156 70.675781 L 177.929688 78.457031 M 160.179688 24.683594 L 202.714844 13.007812 L 203.230469 31.277344 L 192.597656 29.257812 L 171.835938 46.515625 L 152.035156 43.621094 L 173.460938 26.734375 L 160.179688 24.683594 M 134.230469 97.929688 L 93.722656 105.554688 L 92.21875 86.78125 L 103.84375 89.296875 L 126.152344 70.207031 L 145.882812 73.546875 L 122.074219 94.375 L 134.230469 97.921875 "/>
<path style="fill:none;stroke-width:0.5;stroke-linecap:butt;stroke-linejoin:miter;stroke:rgb(100%,100%,100%);stroke-opacity:1;stroke-miterlimit:4;" d="M 11.546743 29.612871 L 11.546743 17.874043 M 34.359771 29.612871 L 34.359771 17.874043 " transform="matrix(6.434783,0,0,6.451613,0,0)"/>
</g>
</svg>
