<?xml version="1.0" encoding="UTF-8"?>
<svg xmlns="http://www.w3.org/2000/svg" xmlns:xlink="http://www.w3.org/1999/xlink" width="236pt" height="200pt" viewBox="0 0 236 200" version="1.1">
<g id="surface1">
<path style="fill:none;stroke-width:0.5;stroke-linecap:round;stroke-linejoin:round;stroke:rgb(0%,0%,0%);stroke-opacity:1;stroke-miterlimit:4;" d="M 40.78125 31.890312 C 41.289228 31.27875 38.51099 30.448984 41.640791 29.936133 C 43.637695 29.605117 49.687252 26.050039 35.49664 25.86375 " transform="matrix(5.244444,0,0,5.263158,0,0)"/>
<path style="fill-rule:nonzero;fill:rgb(1.176471%,41.176471%,59.607843%);fill-opacity:1;stroke-width:0.5;stroke-linecap:butt;stroke-linejoin:miter;stroke:rgb(100%,100%,100%);stroke-opacity:1;stroke-miterlimit:4;" d="M 8.319816 30.849023 L 31.260014 30.849023 L 31.260014 27.382266 L 8.319816 27.382266 Z M 8.319816 30.849023 " transform="matrix(5.244444,0,0,5.263158,0,0)"/>
<path style=" stroke:none;fill-rule:nonzero;fill:rgb(1.176471%,41.176471%,59.607843%);fill-opacity:1;" d="M 163.808594 162.421875 L 163.808594 144.117188 L 188.085938 119.328125 L 188.085938 138.078125 L 163.804688 162.421875 "/>
<path style="fill:none;stroke-width:0.5;stroke-linecap:butt;stroke-linejoin:miter;stroke:rgb(100%,100%,100%);stroke-opacity:1;stroke-miterlimit:4;" d="M 31.234689 30.860156 L 31.234689 27.382266 L 35.863844 22.672344 L 35.863844 26.234844 L 31.233945 30.860156 Z M 31.234689 30.860156 " transform="matrix(5.244444,0,0,5.263158,0,0)"/>
<path style="fill-rule:nonzero;fill:rgb(1.176471%,41.176471%,59.607843%);fill-opacity:1;stroke-width:0.5;stroke-linecap:butt;stroke-linejoin:miter;stroke:rgb(100%,100%,100%);stroke-opacity:1;stroke-miterlimit:4;" d="M 8.319816 31.473945 L 31.260014 31.473945 L 31.260014 27.382266 L 8.319816 27.382266 Z M 8.319816 31.473945 " transform="matrix(5.244444,0,0,5.263158,0,0)"/>
<path style=" stroke:none;fill-rule:nonzero;fill:rgb(1.176471%,41.176471%,59.607843%);fill-opacity:1;" d="M 163.808594 165.710938 L 163.808594 144.117188 L 188.085938 119.328125 L 188.085938 141.367188 L 163.804688 165.710938 "/>
<path style="fill:none;stroke-width:0.5;stroke-linecap:butt;stroke-linejoin:miter;stroke:rgb(100%,100%,100%);stroke-opacity:1;stroke-miterlimit:4;" d="M 31.234689 31.485078 L 31.234689 27.382266 L 35.863844 22.672344 L 35.863844 26.859766 L 31.233945 31.485078 Z M 31.234689 31.485078 " transform="matrix(5.244444,0,0,5.263158,0,0)"/>
<path style=" stroke:none;fill-rule:nonzero;fill:rgb(1.176471%,41.176471%,59.607843%);fill-opacity:1;" d="M 196.515625 116.03125 L 179.511719 140.828125 L 29.777344 140.828125 L 53.875 116.035156 L 196.507812 116.035156 "/>
<path style="fill:none;stroke-width:0.5;stroke-linecap:butt;stroke-linejoin:miter;stroke:rgb(100%,100%,100%);stroke-opacity:1;stroke-miterlimit:4;" d="M 37.4712 22.045937 L 34.228929 26.757344 L 5.677883 26.757344 L 10.272775 22.04668 L 37.46971 22.04668 Z M 37.4712 22.045937 " transform="matrix(5.244444,0,0,5.263158,0,0)"/>
<path style="fill-rule:nonzero;fill:rgb(1.176471%,41.176471%,59.607843%);fill-opacity:1;stroke-width:0.5;stroke-linecap:butt;stroke-linejoin:miter;stroke:rgb(100%,100%,100%);stroke-opacity:1;stroke-miterlimit:4;" d="M 5.610103 28.349336 L 32.924722 28.349336 L 32.924722 26.757344 L 5.610103 26.757344 Z M 5.610103 28.349336 " transform="matrix(5.244444,0,0,5.263158,0,0)"/>
<path style=" stroke:none;fill-rule:nonzero;fill:rgb(1.176471%,41.176471%,59.607843%);fill-opacity:1;" d="M 172.542969 149.261719 L 172.542969 140.828125 L 196.820312 116.035156 L 196.820312 124.921875 L 172.535156 149.261719 "/>
<path style="fill:none;stroke-width:0.5;stroke-linecap:butt;stroke-linejoin:miter;stroke:rgb(100%,100%,100%);stroke-opacity:1;stroke-miterlimit:4;" d="M 32.900142 28.359727 L 32.900142 26.757344 L 37.529297 22.04668 L 37.529297 23.735156 L 32.898653 28.359727 Z M 32.900142 28.359727 " transform="matrix(5.244444,0,0,5.263158,0,0)"/>
<path style=" stroke:none;fill-rule:nonzero;fill:rgb(1.176471%,41.176471%,59.607843%);fill-opacity:1;" d="M 196.515625 116.03125 L 179.511719 140.828125 L 29.777344 140.828125 L 53.875 116.035156 L 196.507812 116.035156 "/>
<path style="fill:none;stroke-width:0.5;stroke-linecap:butt;stroke-linejoin:miter;stroke:rgb(100%,100%,100%);stroke-opacity:1;stroke-miterlimit:4;" d="M 37.4712 22.045937 L 34.228929 26.757344 L 5.677883 26.757344 L 10.272775 22.04668 L 37.46971 22.04668 Z M 37.4712 22.045937 " transform="matrix(5.244444,0,0,5.263158,0,0)"/>
<path style="fill-rule:nonzero;fill:rgb(1.176471%,41.176471%,59.607843%);fill-opacity:1;stroke-width:0.5;stroke-linecap:butt;stroke-linejoin:miter;stroke:rgb(100%,100%,100%);stroke-opacity:1;stroke-miterlimit:4;" d="M 5.610103 28.349336 L 32.924722 28.349336 L 32.924722 26.757344 L 5.610103 26.757344 Z M 5.610103 28.349336 " transform="matrix(5.244444,0,0,5.263158,0,0)"/>
<path style=" stroke:none;fill-rule:nonzero;fill:rgb(1.176471%,41.176471%,59.607843%);fill-opacity:1;" d="M 172.542969 149.261719 L 172.542969 140.828125 L 196.820312 116.035156 L 196.820312 124.921875 L 172.535156 149.261719 "/>
<path style="fill:none;stroke-width:0.5;stroke-linecap:butt;stroke-linejoin:miter;stroke:rgb(100%,100%,100%);stroke-opacity:1;stroke-miterlimit:4;" d="M 32.900142 28.359727 L 32.900142 26.757344 L 37.529297 22.04668 L 37.529297 23.735156 L 32.898653 28.359727 Z M 32.900142 28.359727 " transform="matrix(5.244444,0,0,5.263158,0,0)"/>
<path style=" stroke:none;fill-rule:nonzero;fill:rgb(1.176471%,41.176471%,59.607843%);fill-opacity:1;" d="M 197.285156 2.03125 L 67.90625 2.03125 L 30.066406 10.972656 L 179.921875 10.972656 L 197.285156 2.03125 "/>
<path style="fill:none;stroke-width:0.5;stroke-linecap:butt;stroke-linejoin:miter;stroke:rgb(100%,100%,100%);stroke-opacity:1;stroke-miterlimit:4;" d="M 37.617932 0.385937 L 12.948226 0.385937 L 5.733001 2.084805 L 34.307137 2.084805 Z M 37.617932 0.385937 " transform="matrix(5.244444,0,0,5.263158,0,0)"/>
<path style=" stroke:none;fill-rule:nonzero;fill:rgb(1.176471%,41.176471%,59.607843%);fill-opacity:1;" d="M 173.4375 130.320312 L 166.804688 124.820312 L 45.269531 124.820312 L 51.679688 130.320312 L 173.433594 130.320312 "/>
<path style="fill:none;stroke-width:0.5;stroke-linecap:butt;stroke-linejoin:miter;stroke:rgb(100%,100%,100%);stroke-opacity:1;stroke-miterlimit:4;" d="M 33.07071 24.760859 L 31.805979 23.715859 L 8.631902 23.715859 L 9.854178 24.760859 Z M 33.07071 24.760859 " transform="matrix(5.244444,0,0,5.263158,0,0)"/>
<path style=" stroke:none;fill-rule:nonzero;fill:rgb(1.176471%,41.176471%,59.607843%);fill-opacity:1;" d="M 174.179688 129.34375 L 165.808594 123.742188 L 196.796875 107.292969 L 176.847656 127.078125 L 174.179688 129.34375 "/>
<path style="fill:none;stroke-width:0.5;stroke-linecap:butt;stroke-linejoin:miter;stroke:rgb(100%,100%,100%);stroke-opacity:1;stroke-miterlimit:4;" d="M 33.212229 24.575312 L 31.616045 23.511016 L 37.524828 20.385664 L 33.720951 24.144844 Z M 33.212229 24.575312 " transform="matrix(5.244444,0,0,5.263158,0,0)"/>
<path style=" stroke:none;fill-rule:nonzero;fill:rgb(1.176471%,41.176471%,59.607843%);fill-opacity:1;" d="M 179.914062 10.972656 L 179.914062 123.121094 L 197.285156 106.910156 L 197.285156 2.03125 L 179.914062 10.972656 "/>
<path style="fill:none;stroke-width:0.5;stroke-linecap:butt;stroke-linejoin:miter;stroke:rgb(100%,100%,100%);stroke-opacity:1;stroke-miterlimit:4;" d="M 34.305648 2.084805 L 34.305648 23.393008 L 37.617932 20.31293 L 37.617932 0.385937 Z M 34.305648 2.084805 " transform="matrix(5.244444,0,0,5.263158,0,0)"/>
<path style="fill-rule:nonzero;fill:rgb(1.176471%,41.176471%,59.607843%);fill-opacity:1;stroke-width:0.5;stroke-linecap:butt;stroke-linejoin:miter;stroke:rgb(100%,100%,100%);stroke-opacity:1;stroke-miterlimit:4;" d="M 5.732256 23.626797 L 34.305648 23.626797 L 34.305648 2.084805 L 5.732256 2.084805 Z M 5.732256 23.626797 " transform="matrix(5.244444,0,0,5.263158,0,0)"/>
<path style=" stroke:none;fill-rule:nonzero;fill:rgb(1.176471%,41.176471%,59.607843%);fill-opacity:1;" d="M 167.320312 195.078125 L 167.320312 186.34375 L 186.0625 160.335938 L 186.0625 176.269531 L 167.320312 195.078125 "/>
<path style="fill:none;stroke-width:0.5;stroke-linecap:butt;stroke-linejoin:miter;stroke:rgb(100%,100%,100%);stroke-opacity:1;stroke-miterlimit:4;" d="M 31.904297 37.064844 L 31.904297 35.405312 L 35.478019 30.463828 L 35.478019 33.491211 Z M 31.904297 37.064844 " transform="matrix(5.244444,0,0,5.263158,0,0)"/>
<path style="fill-rule:nonzero;fill:rgb(1.176471%,41.176471%,59.607843%);fill-opacity:1;stroke-width:0.5;stroke-linecap:butt;stroke-linejoin:miter;stroke:rgb(100%,100%,100%);stroke-opacity:1;stroke-miterlimit:4;" d="M 0.385825 37.066328 L 31.905042 37.066328 L 31.905042 35.429805 L 0.385825 35.429805 Z M 0.385825 37.066328 " transform="matrix(5.244444,0,0,5.263158,0,0)"/>
<path style=" stroke:none;fill-rule:nonzero;fill:rgb(1.176471%,41.176471%,59.607843%);fill-opacity:1;" d="M 214.308594 188.191406 L 225.296875 166.199219 L 200.226562 166.199219 L 189.265625 188.191406 L 214.308594 188.191406 "/>
<path style="fill:none;stroke-width:0.5;stroke-linecap:butt;stroke-linejoin:miter;stroke:rgb(100%,100%,100%);stroke-opacity:1;stroke-miterlimit:4;" d="M 40.863927 35.756367 L 42.95915 31.577852 L 38.178794 31.577852 L 36.088784 35.756367 Z M 40.863927 35.756367 " transform="matrix(5.244444,0,0,5.263158,0,0)"/>
<path style="fill-rule:nonzero;fill:rgb(1.176471%,41.176471%,59.607843%);fill-opacity:1;stroke-width:0.5;stroke-linecap:butt;stroke-linejoin:miter;stroke:rgb(100%,100%,100%);stroke-opacity:1;stroke-miterlimit:4;" d="M 36.088784 37.098984 L 40.863927 37.098984 L 40.863927 35.756367 L 36.088784 35.756367 L 36.088784 37.099727 Z M 36.088784 37.098984 " transform="matrix(5.244444,0,0,5.263158,0,0)"/>
<path style=" stroke:none;fill-rule:nonzero;fill:rgb(1.176471%,41.176471%,59.607843%);fill-opacity:1;" d="M 214.128906 195.46875 L 214.183594 188.191406 L 225.144531 166.199219 L 225.089844 181.304688 L 214.128906 195.464844 "/>
<path style="fill:none;stroke-width:0.5;stroke-linecap:butt;stroke-linejoin:miter;stroke:rgb(100%,100%,100%);stroke-opacity:1;stroke-miterlimit:4;" d="M 40.829664 37.139062 L 40.840092 35.756367 L 42.930101 31.577852 L 42.919674 34.447891 L 40.829664 37.13832 Z M 40.829664 37.139062 " transform="matrix(5.244444,0,0,5.263158,0,0)"/>
<path style=" stroke:none;fill-rule:nonzero;fill:rgb(1.176471%,41.176471%,59.607843%);fill-opacity:1;" d="M 167.320312 186.472656 L 2.566406 186.472656 L 21.304688 160.335938 L 186.0625 160.335938 L 167.320312 186.472656 "/>
<path style="fill:none;stroke-width:0.5;stroke-linecap:butt;stroke-linejoin:miter;stroke:rgb(100%,100%,100%);stroke-opacity:1;stroke-miterlimit:4;" d="M 31.904297 35.429805 L 0.489357 35.429805 L 4.062334 30.463828 L 35.478019 30.463828 Z M 31.904297 35.429805 " transform="matrix(5.244444,0,0,5.263158,0,0)"/>
<path style=" stroke:none;fill-rule:nonzero;fill:rgb(1.176471%,41.176471%,59.607843%);fill-opacity:1;" d="M 51.824219 22.792969 L 157.082031 22.792969 C 163.933594 22.804688 169.480469 28.382812 169.472656 35.257812 L 169.472656 101.972656 C 169.46875 108.84375 163.921875 114.410156 157.078125 114.414062 L 51.824219 114.414062 C 44.980469 114.414062 39.433594 108.84375 39.4375 101.972656 L 39.4375 35.257812 C 39.429688 31.953125 40.730469 28.78125 43.054688 26.445312 C 45.378906 24.105469 48.535156 22.789062 51.824219 22.789062 "/>
<path style="fill:none;stroke-width:0.5;stroke-linecap:butt;stroke-linejoin:miter;stroke:rgb(100%,100%,100%);stroke-opacity:1;stroke-miterlimit:4;" d="M 9.881737 4.330664 L 29.952082 4.330664 C 31.258524 4.332891 32.316191 5.392734 32.314701 6.698984 L 32.314701 19.374805 C 32.313957 20.680312 31.25629 21.73793 29.951337 21.738672 L 9.881737 21.738672 C 8.576784 21.738672 7.519117 20.680312 7.519862 19.374805 L 7.519862 6.698984 C 7.518373 6.071094 7.766403 5.468437 8.20958 5.024609 C 8.652758 4.580039 9.254585 4.329922 9.881737 4.329922 Z M 9.881737 4.330664 " transform="matrix(5.244444,0,0,5.263158,0,0)"/>
</g>
</svg>
