<?xml version="1.0" encoding="UTF-8"?>
<svg xmlns="http://www.w3.org/2000/svg" xmlns:xlink="http://www.w3.org/1999/xlink" width="369pt" height="200pt" viewBox="0 0 369 200" version="1.1">
<g id="surface1">
<path style="fill-rule:nonzero;fill:rgb(1.176471%,41.176471%,59.607843%);fill-opacity:1;stroke-width:0.5;stroke-linecap:butt;stroke-linejoin:miter;stroke:rgb(100%,100%,100%);stroke-opacity:1;stroke-miterlimit:4;" d="M 0.820101 30.15375 L 45.469099 30.15375 L 45.469099 15.660176 L 0.818809 15.660176 L 0.818809 30.153105 Z M 0.820101 30.15375 " transform="matrix(6.04918,0,0,6.060606,0,0)"/>
<path style=" stroke:none;fill-rule:nonzero;fill:rgb(1.176471%,41.176471%,59.607843%);fill-opacity:1;" d="M 4.253906 95.359375 L 113.363281 6.757812 L 365.371094 6.757812 L 274.8125 95.359375 L 4.253906 95.359375 "/>
<path style="fill:none;stroke-width:0.5;stroke-linecap:butt;stroke-linejoin:miter;stroke:rgb(100%,100%,100%);stroke-opacity:1;stroke-miterlimit:4;" d="M 0.70322 15.734297 L 18.740271 1.115039 L 60.4001 1.115039 L 45.429709 15.734297 Z M 0.70322 15.734297 " transform="matrix(6.04918,0,0,6.060606,0,0)"/>
<path style=" stroke:none;fill-rule:nonzero;fill:rgb(1.176471%,41.176471%,59.607843%);fill-opacity:1;" d="M 274.898438 185.527344 L 365.128906 87.878906 L 365.1875 6.945312 L 274.894531 95.25 L 274.894531 185.535156 "/>
<path style="fill:none;stroke-width:0.5;stroke-linecap:butt;stroke-linejoin:miter;stroke:rgb(100%,100%,100%);stroke-opacity:1;stroke-miterlimit:4;" d="M 45.443915 30.612012 L 60.360063 14.50002 L 60.369749 1.145977 L 45.443269 15.71625 L 45.443269 30.613301 Z M 45.443915 30.612012 " transform="matrix(6.04918,0,0,6.060606,0,0)"/>
<path style=" stroke:none;fill-rule:nonzero;fill:rgb(100%,100%,100%);fill-opacity:1;" d="M 162.570312 72.304688 L 157.34375 76.628906 L 89.96875 76.628906 L 83.265625 83.34375 L 65.015625 75.386719 L 101.722656 64.847656 L 95.230469 72.304688 L 162.570312 72.304688 M 215.503906 39.15625 L 210.277344 43.484375 L 142.894531 43.484375 L 136.199219 50.207031 L 117.941406 42.242188 L 154.660156 31.710938 L 148.164062 39.164062 L 215.503906 39.164062 M 174.46875 60.585938 L 179.710938 56.296875 L 247.078125 56.296875 L 253.78125 49.574219 L 272.039062 57.539062 L 235.320312 68.042969 L 241.816406 60.585938 L 174.46875 60.585938 M 209.441406 27.449219 L 214.679688 23.144531 L 282.054688 23.144531 L 288.757812 16.429688 L 307.015625 24.394531 L 270.296875 34.902344 L 276.785156 27.449219 L 209.445312 27.449219 "/>
</g>
</svg>
