<?xml version="1.0" encoding="UTF-8"?>
<svg xmlns="http://www.w3.org/2000/svg" xmlns:xlink="http://www.w3.org/1999/xlink" width="148pt" height="200pt" viewBox="0 0 148 200" version="1.1">
<g id="surface1">
<path style=" stroke:none;fill-rule:nonzero;fill:rgb(3.137255%,48.235294%,73.333333%);fill-opacity:1;" d="M 141.65625 82.503906 L 117.917969 105.074219 L 2.769531 105.074219 L 32.589844 82.503906 L 141.65625 82.503906 "/>
<path style="fill:none;stroke-width:0.5;stroke-linecap:butt;stroke-linejoin:miter;stroke:rgb(100%,100%,100%);stroke-opacity:1;stroke-miterlimit:4;" d="M 38.285473 22.276055 L 31.869721 28.370039 L 0.748522 28.370039 L 8.808066 22.276055 Z M 38.285473 22.276055 " transform="matrix(3.7,0,0,3.703704,0,0)"/>
<path style="fill-rule:nonzero;fill:rgb(47.058824%,70.196078%,85.490196%);fill-opacity:1;stroke-width:0.5;stroke-linecap:butt;stroke-linejoin:miter;stroke:rgb(100%,100%,100%);stroke-opacity:1;stroke-miterlimit:4;" d="M 0.748522 51.909609 L 31.869721 51.909609 L 31.869721 28.370039 L 0.748522 28.370039 Z M 0.748522 51.909609 " transform="matrix(3.7,0,0,3.703704,0,0)"/>
<path style=" stroke:none;fill-rule:nonzero;fill:rgb(19.607843%,56.078431%,78.039216%);fill-opacity:1;" d="M 139.308594 170.847656 L 139.308594 83.679688 L 117.234375 105.074219 L 117.234375 192.257812 L 139.308594 170.847656 "/>
<path style="fill:none;stroke-width:0.5;stroke-linecap:butt;stroke-linejoin:miter;stroke:rgb(100%,100%,100%);stroke-opacity:1;stroke-miterlimit:4;" d="M 37.650971 46.128867 L 37.650971 22.593516 L 31.684966 28.370039 L 31.684966 51.909609 Z M 37.650971 46.128867 " transform="matrix(3.7,0,0,3.703704,0,0)"/>
<path style=" stroke:none;fill-rule:nonzero;fill:rgb(3.137255%,48.235294%,73.333333%);fill-opacity:1;" d="M 141.65625 1.777344 L 117.917969 24.347656 L 2.769531 24.347656 L 32.589844 1.777344 L 141.65625 1.777344 "/>
<path style="fill:none;stroke-width:0.5;stroke-linecap:butt;stroke-linejoin:miter;stroke:rgb(100%,100%,100%);stroke-opacity:1;stroke-miterlimit:4;" d="M 38.285473 0.479883 L 31.869721 6.573867 L 0.748522 6.573867 L 8.808066 0.479883 Z M 38.285473 0.479883 " transform="matrix(3.7,0,0,3.703704,0,0)"/>
<path style="fill-rule:nonzero;fill:rgb(3.137255%,48.235294%,73.333333%);fill-opacity:1;stroke-width:0.5;stroke-linecap:butt;stroke-linejoin:miter;stroke:rgb(100%,100%,100%);stroke-opacity:1;stroke-miterlimit:4;" d="M 0.748522 28.590469 L 31.869721 28.590469 L 31.869721 6.573867 L 0.748522 6.573867 Z M 0.748522 28.590469 " transform="matrix(3.7,0,0,3.703704,0,0)"/>
<path style=" stroke:none;fill-rule:nonzero;fill:rgb(3.137255%,48.235294%,73.333333%);fill-opacity:1;" d="M 139.308594 84.476562 L 139.308594 2.933594 L 117.234375 24.347656 L 117.234375 105.890625 L 139.308594 84.476562 "/>
<path style="fill:none;stroke-width:0.5;stroke-linecap:butt;stroke-linejoin:miter;stroke:rgb(100%,100%,100%);stroke-opacity:1;stroke-miterlimit:4;" d="M 37.650971 22.809727 L 37.650971 0.79207 L 31.684966 6.572813 L 31.684966 28.590469 Z M 37.650971 22.809727 " transform="matrix(3.7,0,0,3.703704,0,0)"/>
<path style=" stroke:none;fill-rule:nonzero;fill:rgb(100%,100%,100%);fill-opacity:1;" d="M 49.648438 63.261719 L 32.394531 63.261719 L 32.394531 58.816406 L 25.90625 65.378906 L 32.394531 71.945312 L 32.394531 67.496094 L 49.644531 67.496094 L 49.644531 63.257812 M 59.386719 77.246094 L 59.386719 94.511719 L 54.941406 94.511719 L 61.496094 101.003906 L 68.058594 94.511719 L 63.609375 94.511719 L 63.609375 77.246094 L 59.386719 77.246094 M 59.386719 54.003906 L 59.386719 36.753906 L 54.941406 36.753906 L 61.496094 30.242188 L 68.058594 36.753906 L 63.609375 36.753906 L 63.609375 54.003906 L 59.386719 54.003906 M 73.347656 67.496094 L 90.582031 67.496094 L 90.582031 71.941406 L 97.105469 65.378906 L 90.582031 58.816406 L 90.582031 63.261719 L 73.347656 63.261719 L 73.347656 67.496094 "/>
<path style="fill:none;stroke-width:0.434625;stroke-linecap:butt;stroke-linejoin:miter;stroke:rgb(100%,100%,100%);stroke-opacity:1;stroke-miterlimit:4;" d="M 24.116343 25.133203 C 23.243243 26.057109 19.224029 23.517422 15.145693 19.463203 C 11.065245 15.412148 8.466005 11.377969 9.341216 10.455117 C 10.22065 9.528047 14.23353 12.065625 18.315034 16.124063 C 22.39337 20.173008 24.990498 24.211406 24.116343 25.133203 Z M 24.116343 25.133203 " transform="matrix(3.7,0,0,3.703704,0,0)"/>
<path style="fill:none;stroke-width:0.434625;stroke-linecap:butt;stroke-linejoin:miter;stroke:rgb(100%,100%,100%);stroke-opacity:1;stroke-miterlimit:4;" d="M 23.886191 10.386563 C 24.809966 11.261953 22.269848 15.275039 18.21685 19.35668 C 14.159628 23.434102 10.126689 26.031797 9.20397 25.157461 C 8.28125 24.28418 10.820312 20.264766 14.872255 16.187344 C 18.926309 12.104648 22.959248 9.506953 23.886191 10.386563 Z M 23.886191 10.386563 " transform="matrix(3.7,0,0,3.703704,0,0)"/>
<path style=" stroke:none;fill-rule:nonzero;fill:rgb(74.901961%,74.509804%,74.509804%);fill-opacity:1;" d="M 68.5625 75.414062 C 71.296875 73.503906 73.164062 70.578125 73.742188 67.289062 C 74.324219 63.996094 73.570312 60.613281 71.652344 57.878906 C 67.667969 52.179688 59.820312 50.792969 54.128906 54.78125 C 51.394531 56.695312 49.535156 59.621094 48.960938 62.90625 C 48.386719 66.195312 49.140625 69.578125 51.054688 72.308594 C 55.03125 78.003906 62.867188 79.394531 68.558594 75.417969 "/>
<path style="fill:none;stroke-width:1.78125;stroke-linecap:butt;stroke-linejoin:miter;stroke:rgb(100%,100%,100%);stroke-opacity:1;stroke-miterlimit:4;" d="M 15.263936 36.363516 L 7.439823 36.363516 M 18.203125 33.819609 L 26.86022 33.819609 " transform="matrix(3.7,0,0,3.703704,0,0)"/>
<path style=" stroke:none;fill-rule:nonzero;fill:rgb(100%,100%,100%);fill-opacity:1;" d="M 91.832031 114.300781 L 91.832031 135.441406 L 104.566406 125.296875 L 91.832031 114.300781 "/>
<path style="fill:none;stroke-width:0.2375;stroke-linecap:butt;stroke-linejoin:miter;stroke:rgb(100%,100%,100%);stroke-opacity:1;stroke-miterlimit:4;" d="M 24.819468 30.860156 L 24.819468 36.56918 L 28.261191 33.829102 Z M 24.819468 30.860156 " transform="matrix(3.7,0,0,3.703704,0,0)"/>
<path style=" stroke:none;fill-rule:nonzero;fill:rgb(100%,100%,100%);fill-opacity:1;" d="M 30.5 145.460938 L 30.5 124.320312 L 17.761719 134.480469 L 30.5 145.460938 "/>
<path style="fill:none;stroke-width:0.2375;stroke-linecap:butt;stroke-linejoin:miter;stroke:rgb(100%,100%,100%);stroke-opacity:1;stroke-miterlimit:4;" d="M 8.243243 39.274453 L 8.243243 33.56543 L 4.800465 36.309727 Z M 8.243243 39.274453 " transform="matrix(3.7,0,0,3.703704,0,0)"/>
<path style="fill:none;stroke-width:1.78125;stroke-linecap:butt;stroke-linejoin:miter;stroke:rgb(100%,100%,100%);stroke-opacity:1;stroke-miterlimit:4;" d="M 15.263936 46.67625 L 7.439823 46.67625 M 18.203125 44.133398 L 26.86022 44.133398 " transform="matrix(3.7,0,0,3.703704,0,0)"/>
<path style=" stroke:none;fill-rule:nonzero;fill:rgb(100%,100%,100%);fill-opacity:1;" d="M 91.832031 152.496094 L 91.832031 173.632812 L 104.566406 163.492188 L 91.832031 152.492188 "/>
<path style="fill:none;stroke-width:0.2375;stroke-linecap:butt;stroke-linejoin:miter;stroke:rgb(100%,100%,100%);stroke-opacity:1;stroke-miterlimit:4;" d="M 24.819468 41.172891 L 24.819468 46.880859 L 28.261191 44.140781 Z M 24.819468 41.172891 " transform="matrix(3.7,0,0,3.703704,0,0)"/>
<path style=" stroke:none;fill-rule:nonzero;fill:rgb(100%,100%,100%);fill-opacity:1;" d="M 30.5 183.652344 L 30.5 162.519531 L 17.761719 172.679688 L 30.5 183.652344 "/>
<path style="fill:none;stroke-width:0.2375;stroke-linecap:butt;stroke-linejoin:miter;stroke:rgb(100%,100%,100%);stroke-opacity:1;stroke-miterlimit:4;" d="M 8.243243 49.586133 L 8.243243 43.878164 L 4.800465 46.623516 Z M 8.243243 49.586133 " transform="matrix(3.7,0,0,3.703704,0,0)"/>
</g>
</svg>
