<?xml version="1.0" encoding="UTF-8"?>
<svg xmlns="http://www.w3.org/2000/svg" xmlns:xlink="http://www.w3.org/1999/xlink" width="200pt" height="200pt" viewBox="0 0 200 200" version="1.1">
<g id="surface1">
<path style="fill:none;stroke-width:5;stroke-linecap:round;stroke-linejoin:round;stroke:rgb(0.784314%,43.921569%,62.352941%);stroke-opacity:1;stroke-miterlimit:1;" d="M 18.440204 12.488431 C 8.828425 20.191406 2.500451 33.511719 2.500451 48.659856 C 2.500451 64.601262 9.530799 78.511569 19.960637 85.968299 " transform="matrix(2.363636,0,0,-2.363636,0,204.545455)"/>
<path style="fill:none;stroke-width:5;stroke-linecap:round;stroke-linejoin:round;stroke:rgb(0.784314%,43.921569%,62.352941%);stroke-opacity:1;stroke-miterlimit:1;" d="M 32.889273 12.488431 C 23.280799 20.191406 16.949519 33.511719 16.949519 48.659856 C 16.949519 64.601262 23.95012 78.511569 34.409706 85.968299 " transform="matrix(2.363636,0,0,-2.363636,0,204.545455)"/>
<path style="fill:none;stroke-width:5;stroke-linecap:round;stroke-linejoin:round;stroke:rgb(0.784314%,43.921569%,62.352941%);stroke-opacity:1;stroke-miterlimit:1;" d="M 47.339994 12.488431 C 37.729868 20.191406 31.410156 33.511719 31.410156 48.659856 C 31.410156 64.601262 38.440505 78.511569 48.870343 85.968299 " transform="matrix(2.363636,0,0,-2.363636,0,204.545455)"/>
<path style="fill:none;stroke-width:5;stroke-linecap:round;stroke-linejoin:round;stroke:rgb(0.784314%,43.921569%,62.352941%);stroke-opacity:1;stroke-miterlimit:1;" d="M 61.76262 12.488431 C 52.192157 20.191406 45.859225 33.511719 45.859225 48.659856 C 45.859225 64.601262 52.851562 78.511569 63.319411 85.968299 " transform="matrix(2.363636,0,0,-2.363636,0,204.545455)"/>
<path style="fill:none;stroke-width:5;stroke-linecap:round;stroke-linejoin:round;stroke:rgb(0.784314%,43.921569%,62.352941%);stroke-opacity:1;stroke-miterlimit:1;" d="M 76.2497 12.488431 C 66.639573 20.191406 60.308293 33.511719 60.308293 48.659856 C 60.308293 64.601262 67.300631 78.511569 77.730469 85.968299 " transform="matrix(2.363636,0,0,-2.363636,0,204.545455)"/>
<path style="fill:none;stroke-width:5;stroke-linecap:round;stroke-linejoin:round;stroke:rgb(0.784314%,43.921569%,62.352941%);stroke-opacity:1;stroke-miterlimit:1;" d="M 90.660757 12.488431 C 81.090294 20.191406 74.770583 33.511719 74.770583 48.659856 C 74.770583 64.601262 81.761268 78.511569 92.191106 85.968299 M 18.440204 12.488431 C 8.828425 20.191406 2.500451 33.511719 2.500451 48.659856 C 2.500451 64.601262 9.530799 78.511569 19.960637 85.968299 " transform="matrix(2.363636,0,0,-2.363636,0,204.545455)"/>
<path style="fill:none;stroke-width:5;stroke-linecap:round;stroke-linejoin:round;stroke:rgb(0.784314%,43.921569%,62.352941%);stroke-opacity:1;stroke-miterlimit:1;" d="M 32.889273 12.488431 C 23.280799 20.191406 16.949519 33.511719 16.949519 48.659856 C 16.949519 64.601262 23.95012 78.511569 34.409706 85.968299 " transform="matrix(2.363636,0,0,-2.363636,0,204.545455)"/>
<path style="fill:none;stroke-width:5;stroke-linecap:round;stroke-linejoin:round;stroke:rgb(0.784314%,43.921569%,62.352941%);stroke-opacity:1;stroke-miterlimit:1;" d="M 47.339994 12.488431 C 37.729868 20.191406 31.410156 33.511719 31.410156 48.659856 C 31.410156 64.601262 38.440505 78.511569 48.870343 85.968299 " transform="matrix(2.363636,0,0,-2.363636,0,204.545455)"/>
<path style="fill:none;stroke-width:5;stroke-linecap:round;stroke-linejoin:round;stroke:rgb(0.784314%,43.921569%,62.352941%);stroke-opacity:1;stroke-miterlimit:1;" d="M 61.76262 12.488431 C 52.192157 20.191406 45.859225 33.511719 45.859225 48.659856 C 45.859225 64.601262 52.851562 78.511569 63.319411 85.968299 " transform="matrix(2.363636,0,0,-2.363636,0,204.545455)"/>
<path style="fill:none;stroke-width:5;stroke-linecap:round;stroke-linejoin:round;stroke:rgb(0.784314%,43.921569%,62.352941%);stroke-opacity:1;stroke-miterlimit:1;" d="M 76.2497 12.488431 C 66.639573 20.191406 60.308293 33.511719 60.308293 48.659856 C 60.308293 64.601262 67.300631 78.511569 77.730469 85.968299 " transform="matrix(2.363636,0,0,-2.363636,0,204.545455)"/>
<path style="fill:none;stroke-width:5;stroke-linecap:round;stroke-linejoin:round;stroke:rgb(0.784314%,43.921569%,62.352941%);stroke-opacity:1;stroke-miterlimit:1;" d="M 90.660757 12.488431 C 81.090294 20.191406 74.770583 33.511719 74.770583 48.659856 C 74.770583 64.601262 81.761268 78.511569 92.191106 85.968299 " transform="matrix(2.363636,0,0,-2.363636,0,204.545455)"/>
</g>
</svg>
