<?xml version="1.0" encoding="UTF-8"?>
<svg xmlns="http://www.w3.org/2000/svg" xmlns:xlink="http://www.w3.org/1999/xlink" width="125pt" height="200pt" viewBox="0 0 125 200" version="1.1">
<defs>
<clipPath id="clip1">
  <path d="M 91 0 L 125 0 L 125 192.5 L 91 192.5 Z M 91 0 "/>
</clipPath>
</defs>
<g id="surface1">
<path style="fill-rule:nonzero;fill:rgb(3.137255%,48.235294%,73.333333%);fill-opacity:1;stroke-width:4;stroke-linecap:butt;stroke-linejoin:miter;stroke:rgb(100%,100%,100%);stroke-opacity:1;stroke-miterlimit:4;" d="M 6.483173 15.675481 L 191.711538 15.675481 L 191.711538 332.96875 L 6.483173 332.96875 Z M 6.483173 15.675481 " transform="matrix(0.541667,0,0,-0.541667,0,197.916667)"/>
<path style=" stroke:none;fill-rule:nonzero;fill:rgb(3.137255%,48.235294%,73.333333%);fill-opacity:1;" d="M 33.601562 -3.007812 L 3.511719 17.558594 L 103.847656 17.558594 L 128.8125 -3.007812 L 33.601562 -3.007812 "/>
<path style="fill:none;stroke-width:4;stroke-linecap:butt;stroke-linejoin:miter;stroke:rgb(100%,100%,100%);stroke-opacity:1;stroke-miterlimit:4;" d="M 62.033654 370.9375 L 6.483173 332.96875 L 191.71875 332.96875 L 237.807692 370.9375 Z M 62.033654 370.9375 " transform="matrix(0.541667,0,0,-0.541667,0,197.916667)"/>
<path style=" stroke:none;fill-rule:nonzero;fill:rgb(3.137255%,48.235294%,73.333333%);fill-opacity:1;" d="M 128.8125 158.558594 L 128.8125 -3.007812 L 103.847656 18.722656 L 103.847656 189.433594 L 128.8125 158.558594 "/>
<g clip-path="url(#clip1)" clip-rule="nonzero">
<path style="fill:none;stroke-width:4;stroke-linecap:butt;stroke-linejoin:miter;stroke:rgb(100%,100%,100%);stroke-opacity:1;stroke-miterlimit:4;" d="M 237.807692 72.661058 L 237.807692 370.9375 L 191.71875 330.819712 L 191.71875 15.661058 Z M 237.807692 72.661058 " transform="matrix(0.541667,0,0,-0.541667,0,197.916667)"/>
</g>
<path style=" stroke:none;fill-rule:nonzero;fill:rgb(100%,100%,100%);fill-opacity:1;" d="M 55.011719 19.953125 L 6.9375 102.339844 L 103.085938 102.339844 L 55.011719 19.953125 "/>
<path style=" stroke:none;fill-rule:nonzero;fill:rgb(100%,100%,100%);fill-opacity:1;" d="M 55.011719 184.753906 L 6.9375 102.339844 L 103.085938 102.339844 L 55.011719 184.753906 "/>
<path style=" stroke:none;fill-rule:nonzero;fill:rgb(3.137255%,48.235294%,73.333333%);fill-opacity:1;" d="M 48.917969 119.839844 L 59.835938 109.984375 C 49.085938 109.832031 43.632812 110.214844 36.542969 110.828125 C 33.113281 123.671875 30.214844 131.285156 26.765625 139.855469 L 38.195312 129.550781 C 46.339844 137.105469 56.386719 138.96875 64.890625 135.074219 C 65.125 134.859375 65.378906 134.671875 65.636719 134.460938 L 79.34375 122.0625 C 70.585938 129.976562 58.207031 129.210938 48.917969 119.839844 M 39.25 102.257812 C 36.417969 91.234375 37.917969 79.070312 43.988281 70.480469 C 45.074219 68.925781 46.328125 67.5 47.730469 66.226562 L 34.023438 78.625 C 32.667969 79.828125 31.421875 81.269531 30.277344 82.878906 C 24.230469 91.402344 22.746094 103.402344 25.453125 114.359375 L 39.25 102.257812 "/>
<path style=" stroke:none;fill-rule:nonzero;fill:rgb(3.137255%,48.235294%,73.333333%);fill-opacity:1;" d="M 66.3125 65.90625 C 60.828125 63.367188 55.011719 62.945312 49.640625 64.699219 C 48.984375 65.167969 48.371094 65.671875 47.730469 66.226562 L 34.023438 78.625 C 40.304688 72.933594 48.453125 71.746094 56.007812 74.964844 L 48.453125 81.582031 L 71.75 80.972656 L 75.792969 57.59375 L 66.3125 65.90625 M 83.832031 74.222656 C 92.441406 91.550781 89.25 108.796875 83.089844 117.808594 C 82.007812 119.363281 80.75 120.789062 79.34375 122.0625 L 65.636719 134.460938 C 66.964844 133.234375 68.21875 131.816406 69.382812 130.207031 C 80.550781 113.746094 73.992188 97.351562 70.503906 86.554688 L 83.832031 74.222656 "/>
</g>
</svg>
