<?xml version="1.0" encoding="UTF-8"?>
<svg xmlns="http://www.w3.org/2000/svg" xmlns:xlink="http://www.w3.org/1999/xlink" width="375pt" height="200pt" viewBox="0 0 375 200" version="1.1">
<g id="surface1">
<path style=" stroke:none;fill-rule:nonzero;fill:rgb(3.137255%,48.235294%,73.333333%);fill-opacity:1;" d="M 5.898438 94.992188 L 114.375 7.308594 L 364.792969 7.308594 L 275.023438 94.992188 L 5.890625 94.992188 "/>
<path style="fill:none;stroke-width:0.5;stroke-linecap:butt;stroke-linejoin:miter;stroke:rgb(100%,100%,100%);stroke-opacity:1;stroke-miterlimit:4;" d="M 0.707812 11.398125 L 13.725 0.876094 L 43.775156 0.876094 L 33.002812 11.398125 L 0.706875 11.398125 Z M 0.707812 11.398125 " transform="matrix(8.333333,0,0,8.333333,0,0)"/>
<path style=" stroke:none;fill-rule:nonzero;fill:rgb(3.137255%,48.235294%,73.333333%);fill-opacity:1;" d="M 275.015625 182.183594 L 364.792969 85.265625 L 364.792969 7.433594 L 275.015625 94.984375 L 275.015625 182.175781 "/>
<path style="fill:none;stroke-width:0.5;stroke-linecap:butt;stroke-linejoin:miter;stroke:rgb(100%,100%,100%);stroke-opacity:1;stroke-miterlimit:4;" d="M 33.001875 21.862031 L 43.775156 10.230937 L 43.775156 0.891094 L 33.001875 11.398125 Z M 33.001875 21.862031 " transform="matrix(8.333333,0,0,8.333333,0,0)"/>
<path style=" stroke:none;fill-rule:nonzero;fill:rgb(3.137255%,48.235294%,73.333333%);fill-opacity:1;" d="M 6.265625 182.273438 L 275.035156 182.273438 L 275.035156 94.992188 L 6.265625 94.992188 Z M 6.265625 182.273438 "/>
<path style="fill:none;stroke-width:0.5;stroke-linecap:butt;stroke-linejoin:miter;stroke:rgb(100%,100%,100%);stroke-opacity:1;stroke-miterlimit:4;" d="M 0.751875 21.872812 L 33.004219 21.872812 L 33.004219 11.398125 L 0.751875 11.398125 Z M 0.751875 21.872812 " transform="matrix(8.333333,0,0,8.333333,0,0)"/>
<path style=" stroke:none;fill-rule:nonzero;fill:rgb(100%,100%,100%);fill-opacity:1;" d="M 152.667969 143.367188 L 47.601562 143.410156 L 47.601562 130.589844 L 152.667969 130.550781 L 152.707031 110.535156 L 199.382812 136.984375 L 152.714844 163.382812 L 152.667969 143.367188 "/>
<path style="fill:none;stroke-width:0.497875;stroke-linecap:butt;stroke-linejoin:miter;stroke:rgb(100%,100%,100%);stroke-opacity:1;stroke-miterlimit:4;" d="M 18.320156 17.204062 L 5.712187 17.207812 L 5.712187 15.670781 L 18.320156 15.666094 L 18.324844 13.264219 L 23.925937 16.437188 L 18.325781 19.605937 Z M 18.320156 17.204062 " transform="matrix(8.333333,0,0,8.333333,0,0)"/>
<path style=" stroke:none;fill-rule:nonzero;fill:rgb(100%,100%,100%);fill-opacity:1;" d="M 59.125 130.589844 L 59.082031 110.617188 L 12.410156 137.015625 L 59.074219 163.464844 L 59.125 143.410156 "/>
<path style="fill:none;stroke-width:0.497875;stroke-linecap:butt;stroke-linejoin:miter;stroke:rgb(100%,100%,100%);stroke-opacity:1;stroke-miterlimit:4;" d="M 7.095 15.670781 L 7.089844 13.273125 L 1.489219 16.442812 L 7.088906 19.615781 L 7.095 17.209219 " transform="matrix(8.333333,0,0,8.333333,0,0)"/>
<path style=" stroke:none;fill-rule:nonzero;fill:rgb(100%,100%,100%);fill-opacity:1;" d="M 263.390625 130.589844 L 263.339844 110.617188 L 216.632812 137.015625 L 263.339844 163.464844 L 263.390625 143.410156 L 263.390625 130.589844 "/>
<path style="fill:none;stroke-width:0.497875;stroke-linecap:butt;stroke-linejoin:miter;stroke:rgb(100%,100%,100%);stroke-opacity:1;stroke-miterlimit:4;" d="M 31.606875 15.670781 L 31.600781 13.273125 L 25.995938 16.442812 L 31.600781 19.615781 L 31.606875 17.207812 Z M 31.606875 15.670781 " transform="matrix(8.333333,0,0,8.333333,0,0)"/>
</g>
</svg>
