<?xml version="1.0" encoding="UTF-8"?>
<svg xmlns="http://www.w3.org/2000/svg" xmlns:xlink="http://www.w3.org/1999/xlink" width="224pt" height="200pt" viewBox="0 0 224 200" version="1.1">
<g id="surface1">
<path style=" stroke:none;fill-rule:nonzero;fill:rgb(8.235294%,50.980392%,72.941176%);fill-opacity:1;" d="M 222.007812 45.222656 C 222.007812 68.972656 172.597656 88.21875 111.609375 88.21875 C 50.644531 88.21875 1.210938 68.972656 1.210938 45.230469 L 1.210938 150.90625 C 1.210938 174.652344 50.636719 193.902344 111.605469 193.902344 C 172.597656 193.902344 222.007812 174.652344 222.007812 150.90625 L 222.007812 45.222656 "/>
<path style="fill:none;stroke-width:0.5;stroke-linecap:butt;stroke-linejoin:miter;stroke:rgb(100%,100%,100%);stroke-opacity:1;stroke-miterlimit:4;" d="M 45.59089 9.270645 C 45.59089 14.139395 35.444162 18.084844 22.919782 18.084844 C 10.400216 18.084844 0.248675 14.139395 0.248675 9.270645 L 0.248675 30.935781 C 0.248675 35.80373 10.398612 39.74998 22.91898 39.74998 C 35.444162 39.74998 45.59089 35.80373 45.59089 30.935781 Z M 45.59089 9.270645 " transform="matrix(4.869565,0,0,4.878049,0,0)"/>
<path style=" stroke:none;fill-rule:nonzero;fill:rgb(8.235294%,50.980392%,72.941176%);fill-opacity:1;" d="M 111.609375 88.21875 C 172.597656 88.21875 222.007812 68.972656 222.007812 45.230469 C 222.007812 21.453125 172.597656 2.203125 111.609375 2.203125 C 50.644531 2.210938 1.210938 21.457031 1.210938 45.234375 C 1.210938 68.976562 50.636719 88.222656 111.605469 88.222656 "/>
<path style="fill:none;stroke-width:0.5;stroke-linecap:butt;stroke-linejoin:miter;stroke:rgb(100%,100%,100%);stroke-opacity:1;stroke-miterlimit:4;" d="M 22.919782 18.084844 C 35.444162 18.084844 45.59089 14.139395 45.59089 9.270645 C 45.59089 4.397891 35.444162 0.453242 22.919782 0.453242 C 10.400216 0.453242 0.248675 4.397891 0.248675 9.269844 C 0.248675 14.137793 10.398612 18.084043 22.91898 18.084043 Z M 22.919782 18.084844 " transform="matrix(4.869565,0,0,4.878049,0,0)"/>
<path style=" stroke:none;fill-rule:nonzero;fill:rgb(100%,100%,100%);fill-opacity:1;" d="M 87.453125 27.980469 L 96.703125 41.886719 L 61.726562 49.984375 L 69.382812 43.605469 L 15.359375 34.367188 L 28.914062 24.171875 L 81.03125 33.035156 L 87.453125 27.980469 M 136.621094 61.683594 L 130.324219 47.367188 L 161.851562 41.027344 L 156.382812 45.960938 L 208.921875 54.945312 L 196.328125 65.042969 L 144.089844 55.222656 L 136.621094 61.683594 M 119.382812 20.410156 L 154.695312 10.730469 L 155.121094 25.878906 L 146.300781 24.191406 L 129.0625 38.527344 L 112.609375 36.121094 L 130.390625 22.121094 L 119.386719 20.40625 M 104.261719 74.738281 L 70.636719 81.046875 L 69.363281 65.46875 L 79.03125 67.566406 L 97.558594 51.722656 L 113.941406 54.511719 L 94.183594 71.78125 L 104.261719 74.738281 M 204.054688 165.414062 L 204.054688 127.566406 L 181.296875 145.738281 L 204.054688 165.414062 "/>
<path style="fill:none;stroke-width:0.375;stroke-linecap:butt;stroke-linejoin:miter;stroke:rgb(0%,0%,0%);stroke-opacity:1;stroke-miterlimit:4;" d="M 41.904088 33.909883 L 41.904088 26.150313 L 37.230608 29.874746 L 41.904088 33.909082 Z M 41.904088 33.909883 " transform="matrix(4.869565,0,0,4.878049,0,0)"/>
<path style=" stroke:none;fill-rule:nonzero;fill:rgb(100%,100%,100%);fill-opacity:1;" d="M 19.902344 165.554688 L 19.902344 127.730469 L 42.632812 145.90625 L 19.902344 165.554688 "/>
<path style="fill:none;stroke-width:0.375;stroke-linecap:butt;stroke-linejoin:miter;stroke:rgb(0%,0%,0%);stroke-opacity:1;stroke-miterlimit:4;" d="M 4.087088 33.93791 L 4.087088 26.184746 L 8.754953 29.910781 Z M 4.087088 33.93791 " transform="matrix(4.869565,0,0,4.878049,0,0)"/>
<path style=" stroke:none;fill-rule:nonzero;fill:rgb(100%,100%,100%);fill-opacity:1;" d="M 35.140625 90.433594 L 35.140625 128.308594 L 12.386719 110.125 L 35.140625 90.433594 "/>
<path style="fill:none;stroke-width:0.375;stroke-linecap:butt;stroke-linejoin:miter;stroke:rgb(0%,0%,0%);stroke-opacity:1;stroke-miterlimit:4;" d="M 7.216378 18.538887 L 7.216378 26.30166 L 2.543701 22.575625 Z M 7.216378 18.538887 " transform="matrix(4.869565,0,0,4.878049,0,0)"/>
<path style=" stroke:none;fill-rule:nonzero;fill:rgb(100%,100%,100%);fill-opacity:1;" d="M 187.074219 90.289062 L 187.074219 128.136719 L 209.835938 109.960938 L 187.074219 90.289062 "/>
<path style="fill:none;stroke-width:0.375;stroke-linecap:butt;stroke-linejoin:miter;stroke:rgb(0%,0%,0%);stroke-opacity:1;stroke-miterlimit:4;" d="M 38.417027 18.510059 L 38.417027 26.268027 L 43.091309 22.541992 Z M 38.417027 18.510059 " transform="matrix(4.869565,0,0,4.878049,0,0)"/>
<path style="fill:none;stroke-width:0.95;stroke-linecap:butt;stroke-linejoin:miter;stroke:rgb(100%,100%,100%);stroke-opacity:1;stroke-miterlimit:4;" d="M 39.429374 22.288945 L 36.609724 22.288945 M 40.415248 29.813086 L 43.944824 29.813086 M 5.336879 29.846719 L 1.572266 29.846719 M 5.498117 22.558008 L 9.023682 22.558008 " transform="matrix(4.869565,0,0,4.878049,0,0)"/>
<path style=" stroke:none;fill-rule:nonzero;fill:rgb(100%,100%,100%);fill-opacity:1;" d="M 160.449219 120.371094 L 160.355469 188.394531 L 61.347656 188.394531 L 61.25 120.371094 L 160.441406 120.371094 "/>
<path style="fill:none;stroke-width:0.375;stroke-linecap:butt;stroke-linejoin:miter;stroke:rgb(0%,0%,0%);stroke-opacity:1;stroke-miterlimit:4;" d="M 32.949393 24.676074 L 32.930141 38.620879 L 12.598179 38.620879 L 12.578125 24.676074 Z M 32.949393 24.676074 " transform="matrix(4.869565,0,0,4.878049,0,0)"/>
<path style=" stroke:none;fill-rule:nonzero;fill:rgb(100%,100%,100%);fill-opacity:1;" d="M 137.171875 101.484375 C 137.171875 101.484375 141.070312 101.027344 141.941406 104.941406 L 142.804688 117.488281 L 168.773438 121.824219 L 171.359375 116.199219 L 164.847656 100.605469 C 131.554688 92.386719 99.546875 94.980469 99.546875 94.980469 L 100.835938 94.980469 C 100.835938 94.980469 89.160156 92.386719 55.855469 100.605469 L 49.359375 116.199219 L 51.953125 121.824219 L 77.914062 117.488281 L 78.765625 104.941406 C 79.628906 101.027344 83.527344 101.476562 83.527344 101.476562 L 137.164062 101.476562 "/>
<path style="fill:none;stroke-width:0.375;stroke-linecap:butt;stroke-linejoin:miter;stroke:rgb(0%,0%,0%);stroke-opacity:1;stroke-miterlimit:4;" d="M 28.169224 20.804297 C 28.169224 20.804297 28.969796 20.710605 29.148682 21.512188 L 29.325963 24.085098 L 34.658831 24.973965 L 35.189872 23.821641 L 33.852644 20.624121 C 27.015695 18.939277 20.442662 19.470996 20.442662 19.470996 L 20.70738 19.470996 C 20.70738 19.470996 18.309675 18.939277 11.470319 20.624121 L 10.1363 23.821641 L 10.668945 24.973965 L 16.000209 24.085098 L 16.175084 21.512188 C 16.352365 20.710605 17.152937 20.804297 17.152937 20.804297 Z M 28.169224 20.804297 " transform="matrix(4.869565,0,0,4.878049,0,0)"/>
<path style=" stroke:none;fill-rule:nonzero;fill:rgb(100%,100%,100%);fill-opacity:1;" d="M 155.640625 124.230469 L 155.554688 136.472656 L 66.460938 136.472656 L 66.363281 124.230469 L 155.640625 124.230469 "/>
<path style="fill:none;stroke-width:0.375;stroke-linecap:butt;stroke-linejoin:miter;stroke:rgb(0%,0%,0%);stroke-opacity:1;stroke-miterlimit:4;" d="M 31.961914 25.467246 L 31.944266 27.976895 L 13.648228 27.976895 L 13.628174 25.467246 Z M 31.961914 25.467246 " transform="matrix(4.869565,0,0,4.878049,0,0)"/>
<path style=" stroke:none;fill-rule:nonzero;fill:rgb(100%,100%,100%);fill-opacity:1;" d="M 154.792969 141.738281 L 154.695312 184.058594 L 66.835938 184.058594 L 66.765625 141.738281 L 154.792969 141.738281 "/>
<path style="fill:none;stroke-width:0.375;stroke-linecap:butt;stroke-linejoin:miter;stroke:rgb(0.784314%,0.784314%,0.784314%);stroke-opacity:1;stroke-miterlimit:4;" d="M 31.787842 29.056348 L 31.767787 37.732012 L 13.725237 37.732012 L 13.710798 29.056348 Z M 31.787842 29.056348 " transform="matrix(4.869565,0,0,4.878049,0,0)"/>
<path style="fill:none;stroke-width:0.315125;stroke-linecap:butt;stroke-linejoin:miter;stroke:rgb(1.176471%,1.176471%,1.176471%);stroke-opacity:1;stroke-miterlimit:4;" d="M 15.064069 37.040137 L 30.469064 37.040137 L 30.469064 29.486367 L 15.064069 29.486367 Z M 15.064069 37.040137 " transform="matrix(4.869565,0,0,4.878049,0,0)"/>
<path style=" stroke:none;fill-rule:nonzero;fill:rgb(100%,100%,100%);fill-opacity:1;" d="M 66.765625 141.738281 L 112.417969 164.894531 L 154.792969 141.738281 L 66.761719 141.738281 "/>
<path style="fill:none;stroke-width:0.315125;stroke-linecap:butt;stroke-linejoin:miter;stroke:rgb(0.784314%,0.784314%,0.784314%);stroke-opacity:1;stroke-miterlimit:4;" d="M 13.710798 29.056348 L 23.085833 33.801777 L 31.787842 29.056348 L 13.709996 29.056348 Z M 13.710798 29.056348 " transform="matrix(4.869565,0,0,4.878049,0,0)"/>
</g>
</svg>
