<?xml version="1.0" encoding="UTF-8"?>
<svg xmlns="http://www.w3.org/2000/svg" xmlns:xlink="http://www.w3.org/1999/xlink" width="158pt" height="200pt" viewBox="0 0 158 200" version="1.1">
<g id="surface1">
<path style=" stroke:none;fill-rule:nonzero;fill:rgb(16.862745%,39.607843%,61.568627%);fill-opacity:1;" d="M 4.109375 189.261719 L 97.980469 189.261719 L 97.980469 25.398438 L 4.109375 25.398438 Z M 4.109375 189.261719 "/>
<path style="fill:none;stroke-width:0.5;stroke-linecap:butt;stroke-linejoin:miter;stroke:rgb(100%,100%,100%);stroke-opacity:1;stroke-miterlimit:4;" d="M 0.884296 40.68959 L 21.084405 40.68959 L 21.084405 5.459824 L 0.884296 5.459824 Z M 0.874209 38.287637 L 20.986056 38.287637 " transform="matrix(4.647059,0,0,4.651163,0,0)"/>
<path style="fill:none;stroke-width:0.75;stroke-linecap:butt;stroke-linejoin:miter;stroke:rgb(100%,100%,100%);stroke-opacity:1;stroke-miterlimit:4;" d="M 20.106804 32.564941 C 20.106804 34.709063 18.369314 36.446699 16.22498 36.446699 C 14.079806 36.446699 12.340635 34.708223 12.340635 32.563262 C 12.340635 30.418301 14.079806 28.678984 16.22498 28.678984 C 18.369314 28.681504 20.106804 30.41998 20.106804 32.564941 Z M 20.106804 32.564941 " transform="matrix(4.647059,0,0,4.651163,0,0)"/>
<path style=" stroke:none;fill-rule:nonzero;fill:rgb(100%,100%,100%);fill-opacity:1;" d="M 80.441406 151.464844 C 80.441406 154.238281 78.167969 156.511719 75.398438 156.511719 C 72.609375 156.511719 70.359375 154.238281 70.359375 151.464844 C 70.445312 148.738281 72.675781 146.570312 75.402344 146.570312 C 78.125 146.570312 80.359375 148.738281 80.441406 151.464844 "/>
<path style="fill:none;stroke-width:0.5;stroke-linecap:butt;stroke-linejoin:miter;stroke:rgb(100%,100%,100%);stroke-opacity:1;stroke-miterlimit:4;" d="M 17.310176 32.564941 C 17.326988 32.963027 17.123566 33.339277 16.781448 33.543359 C 16.438489 33.747441 16.012312 33.747441 15.669353 33.54252 C 15.327235 33.338437 15.124654 32.962187 15.142306 32.564102 C 15.167524 31.98377 15.644976 31.526055 16.226661 31.526055 C 16.807506 31.526055 17.284958 31.984609 17.310176 32.564941 Z M 17.310176 32.564941 " transform="matrix(4.647059,0,0,4.651163,0,0)"/>
<path style="fill:none;stroke-width:0.75;stroke-linecap:butt;stroke-linejoin:miter;stroke:rgb(100%,100%,100%);stroke-opacity:1;stroke-miterlimit:4;" d="M 9.735661 32.56998 C 9.775168 33.982598 9.043859 35.304512 7.826691 36.022578 C 6.610364 36.740645 5.098991 36.740645 3.881824 36.022578 C 2.664656 35.304512 1.933347 33.982598 1.972854 32.56998 C 2.031695 30.468691 3.752373 28.794883 5.854678 28.794883 C 7.956982 28.794883 9.67766 30.468691 9.735661 32.56998 Z M 9.735661 32.56998 " transform="matrix(4.647059,0,0,4.651163,0,0)"/>
<path style="fill:none;stroke-width:1;stroke-linecap:round;stroke-linejoin:miter;stroke:rgb(100%,100%,100%);stroke-opacity:1;stroke-miterlimit:4;" d="M 4.287826 34.143008 L 7.422369 31.002832 M 4.287826 31.002832 L 7.422369 34.143008 " transform="matrix(4.647059,0,0,4.651163,0,0)"/>
<path style="fill:none;stroke-width:0.75;stroke-linecap:butt;stroke-linejoin:miter;stroke:rgb(100%,100%,100%);stroke-opacity:1;stroke-miterlimit:4;" d="M 14.823724 24.039687 C 14.823724 26.185488 13.085394 27.923965 10.94022 27.923965 C 8.795045 27.923965 7.055874 26.185488 7.055874 24.039687 C 7.055874 21.894727 8.795045 20.15625 10.94022 20.15625 C 13.085394 20.15625 14.823724 21.894727 14.823724 24.039687 Z M 14.823724 24.039687 " transform="matrix(4.647059,0,0,4.651163,0,0)"/>
<path style="fill:none;stroke-width:1;stroke-linecap:round;stroke-linejoin:miter;stroke:rgb(100%,100%,100%);stroke-opacity:1;stroke-miterlimit:4;" d="M 10.190417 25.74877 L 8.921133 24.478926 M 13.06606 22.873145 L 10.190417 25.74877 " transform="matrix(4.647059,0,0,4.651163,0,0)"/>
<path style=" stroke:none;fill-rule:nonzero;fill:rgb(16.862745%,39.607843%,61.568627%);fill-opacity:1;" d="M 4.109375 25.398438 L 37.1875 4.980469 L 127.722656 4.980469 L 97.980469 25.398438 L 4.109375 25.398438 "/>
<path style="fill:none;stroke-width:0.5;stroke-linecap:butt;stroke-linejoin:miter;stroke:rgb(100%,100%,100%);stroke-opacity:1;stroke-miterlimit:4;" d="M 0.884296 5.459824 L 8.002373 1.071641 L 27.484622 1.071641 L 21.084405 5.459824 Z M 0.884296 5.459824 " transform="matrix(4.647059,0,0,4.651163,0,0)"/>
<path style=" stroke:none;fill-rule:nonzero;fill:rgb(16.862745%,39.607843%,61.568627%);fill-opacity:1;" d="M 98.023438 189.417969 L 127.183594 165.636719 L 127.183594 5.140625 L 98.023438 24.699219 L 98.023438 189.417969 "/>
<path style="fill:none;stroke-width:0.5;stroke-linecap:butt;stroke-linejoin:miter;stroke:rgb(100%,100%,100%);stroke-opacity:1;stroke-miterlimit:4;" d="M 21.093651 40.724023 L 27.368621 35.611895 L 27.368621 1.105234 L 21.093651 5.310332 L 21.093651 40.724863 Z M 21.093651 40.724023 " transform="matrix(4.647059,0,0,4.651163,0,0)"/>
<path style="fill:none;stroke-width:0.375;stroke-linecap:butt;stroke-linejoin:miter;stroke:rgb(100%,100%,100%);stroke-opacity:1;stroke-miterlimit:4;" d="M 0.874209 18.762109 L 20.986056 18.762109 " transform="matrix(4.647059,0,0,4.651163,0,0)"/>
<path style=" stroke:none;fill-rule:nonzero;fill:rgb(16.862745%,39.607843%,61.568627%);fill-opacity:1;" d="M 11.546875 54.925781 L 55.113281 54.925781 L 55.113281 37.003906 L 11.546875 37.003906 Z M 11.546875 54.925781 "/>
<path style="fill:none;stroke-width:0.5;stroke-linecap:butt;stroke-linejoin:miter;stroke:rgb(100%,100%,100%);stroke-opacity:1;stroke-miterlimit:4;" d="M 2.484771 11.808203 L 11.85982 11.808203 L 11.85982 7.95584 L 2.484771 7.95584 Z M 3.422023 10.011777 L 11.030162 10.011777 " transform="matrix(4.647059,0,0,4.651163,0,0)"/>
<path style=" stroke:none;fill-rule:nonzero;fill:rgb(100%,100%,100%);fill-opacity:1;" d="M 126.816406 79.746094 L 129.605469 79.746094 C 150.625 79.746094 153.957031 98.640625 153.957031 98.640625 L 153.957031 79.015625 C 153.957031 79.015625 150.625 60.121094 129.605469 60.121094 L 126.246094 60.121094 "/>
<path style="fill:none;stroke-width:0.5;stroke-linecap:butt;stroke-linejoin:miter;stroke:rgb(13.72549%,12.156863%,12.54902%);stroke-opacity:1;stroke-miterlimit:4;" d="M 27.289606 17.14541 L 27.889784 17.14541 C 32.412975 17.14541 33.129994 21.207734 33.129994 21.207734 L 33.129994 16.989199 C 33.129994 16.989199 32.412975 12.926875 27.889784 12.926875 L 27.166881 12.926875 " transform="matrix(4.647059,0,0,4.651163,0,0)"/>
<path style=" stroke:none;fill-rule:nonzero;fill:rgb(100%,100%,100%);fill-opacity:1;" d="M 153.957031 77.929688 L 153.957031 101.1875 C 151.660156 128.800781 102.746094 127.347656 102.746094 127.347656 L 102.746094 147.699219 L 70.796875 115.722656 L 102.746094 83.746094 L 102.746094 104.09375 C 102.746094 104.09375 152.503906 105.542969 153.957031 77.929688 "/>
<path style="fill:none;stroke-width:0.5;stroke-linecap:butt;stroke-linejoin:miter;stroke:rgb(0%,0%,0%);stroke-opacity:1;stroke-miterlimit:4;" d="M 33.129994 16.754883 L 33.129994 21.755312 C 32.63573 27.693008 22.109919 27.379746 22.109919 27.379746 L 22.109919 31.755332 L 15.234771 24.880371 L 22.109919 18.00541 L 22.109919 22.380156 C 22.109919 22.380156 32.817296 22.693418 33.129994 16.754883 " transform="matrix(4.647059,0,0,4.651163,0,0)"/>
</g>
</svg>
