<?xml version="1.0" encoding="UTF-8"?>
<svg xmlns="http://www.w3.org/2000/svg" xmlns:xlink="http://www.w3.org/1999/xlink" width="268pt" height="200pt" viewBox="0 0 268 200" version="1.1">
<g id="surface1">
<path style=" stroke:none;fill-rule:nonzero;fill:rgb(3.137255%,48.235294%,73.333333%);fill-opacity:1;" d="M 3.449219 191.171875 L 235.804688 191.171875 L 235.804688 38.351562 L 3.449219 38.351562 Z M 3.449219 191.171875 "/>
<path style="fill:none;stroke-width:0.5;stroke-linecap:butt;stroke-linejoin:miter;stroke:rgb(100%,100%,100%);stroke-opacity:1;stroke-miterlimit:4;" d="M 0.707862 39.190234 L 48.392753 39.190234 L 48.392753 7.862871 L 0.707862 7.862871 Z M 0.707862 39.190234 " transform="matrix(4.872727,0,0,4.878049,0,0)"/>
<path style=" stroke:none;fill-rule:nonzero;fill:rgb(3.137255%,48.235294%,73.333333%);fill-opacity:1;" d="M 262.527344 152.042969 L 235.804688 191.175781 L 235.804688 38.351562 L 262.527344 5.914062 L 262.527344 152.046875 "/>
<path style="fill:none;stroke-width:0.5;stroke-linecap:butt;stroke-linejoin:miter;stroke:rgb(100%,100%,100%);stroke-opacity:1;stroke-miterlimit:4;" d="M 53.87688 31.168008 L 48.392753 39.190234 L 48.392753 7.862871 L 53.87688 1.213184 Z M 53.87688 31.168008 " transform="matrix(4.872727,0,0,4.878049,0,0)"/>
<path style=" stroke:none;fill-rule:nonzero;fill:rgb(3.137255%,48.235294%,73.333333%);fill-opacity:1;" d="M 43.539062 5.914062 L 262.527344 5.914062 L 235.804688 38.351562 L 3.449219 38.351562 L 43.539062 5.914062 "/>
<path style="fill:none;stroke-width:0.5;stroke-linecap:butt;stroke-linejoin:miter;stroke:rgb(100%,100%,100%);stroke-opacity:1;stroke-miterlimit:4;" d="M 8.935255 1.213184 L 53.87688 1.213184 L 48.392753 7.862871 L 0.707862 7.862871 Z M 8.935255 1.213184 " transform="matrix(4.872727,0,0,4.878049,0,0)"/>
<path style=" stroke:none;fill-rule:nonzero;fill:rgb(100%,100%,100%);fill-opacity:1;" d="M 55.675781 78.511719 L 16.746094 78.5625 L 16.746094 72.367188 L 55.679688 72.347656 L 55.679688 62.679688 L 78.207031 75.4375 L 55.675781 88.210938 L 55.675781 78.511719 M 55.675781 117.144531 L 16.746094 117.171875 L 16.746094 110.976562 L 55.679688 110.957031 L 55.679688 101.289062 L 78.207031 114.046875 L 55.675781 126.816406 L 55.675781 117.144531 M 55.675781 155.757812 L 16.746094 155.78125 L 16.746094 149.589844 L 55.679688 149.566406 L 55.679688 139.902344 L 78.207031 152.683594 L 55.675781 165.453125 L 55.675781 155.757812 M 185.460938 112.074219 L 224.363281 112.023438 L 224.363281 118.21875 L 185.460938 118.242188 L 185.4375 127.917969 L 162.910156 115.144531 L 185.4375 102.375 L 185.460938 112.074219 M 154.199219 92.804688 C 154.199219 98.042969 140.210938 102.289062 122.9375 102.289062 C 105.664062 102.289062 91.652344 98.042969 91.652344 92.804688 L 91.652344 132.058594 C 91.652344 137.300781 105.664062 141.535156 122.9375 141.535156 C 140.210938 141.535156 154.199219 137.300781 154.199219 132.058594 L 154.199219 92.804688 "/>
<path style=" stroke:none;fill-rule:nonzero;fill:rgb(3.137255%,48.235294%,73.333333%);fill-opacity:1;" d="M 122.890625 102.289062 C 140.164062 102.289062 154.171875 98.042969 154.171875 92.804688 C 154.171875 87.566406 140.164062 83.320312 122.890625 83.320312 C 105.617188 83.320312 91.601562 87.566406 91.601562 92.804688 C 91.601562 98.042969 105.617188 102.289062 122.890625 102.289062 "/>
<path style="fill:none;stroke-width:1;stroke-linecap:butt;stroke-linejoin:miter;stroke:rgb(100%,100%,100%);stroke-opacity:1;stroke-miterlimit:4;" d="M 25.220091 20.967656 C 28.765013 20.967656 31.63975 20.098809 31.63975 19.024961 C 31.63975 17.951113 28.765013 17.082266 25.220091 17.082266 C 21.675169 17.082266 18.798828 17.951113 18.798828 19.024961 C 18.798828 20.098809 21.675169 20.967656 25.220091 20.967656 Z M 25.220091 20.967656 " transform="matrix(4.872727,0,0,4.878049,0,0)"/>
<path style=" stroke:none;fill-rule:nonzero;fill:rgb(100%,100%,100%);fill-opacity:1;" d="M 122.9375 146.210938 C 140.210938 146.210938 154.199219 141.945312 154.199219 136.699219 C 154.199219 131.464844 140.210938 127.222656 122.9375 127.222656 C 105.664062 127.222656 91.652344 131.46875 91.652344 136.703125 C 91.652344 141.945312 105.664062 146.210938 122.9375 146.210938 "/>
<path style="fill:none;stroke-width:1;stroke-linecap:butt;stroke-linejoin:miter;stroke:rgb(100%,100%,100%);stroke-opacity:1;stroke-miterlimit:4;" d="M 25.229711 29.971641 C 28.774633 29.971641 31.645362 29.097988 31.645362 28.024141 C 31.645362 26.948691 28.774633 26.080645 25.229711 26.080645 C 21.684789 26.080645 18.80925 26.948691 18.80925 28.024141 C 18.80925 29.097988 21.684789 29.971641 25.229711 29.971641 Z M 25.229711 29.971641 " transform="matrix(4.872727,0,0,4.878049,0,0)"/>
</g>
</svg>
