<?xml version="1.0" encoding="UTF-8"?>
<svg xmlns="http://www.w3.org/2000/svg" xmlns:xlink="http://www.w3.org/1999/xlink" width="296pt" height="200pt" viewBox="0 0 296 200" version="1.1">
<g id="surface1">
<path style=" stroke:none;fill-rule:nonzero;fill:rgb(3.137255%,49.803922%,74.901961%);fill-opacity:1;" d="M 297.480469 59.289062 C 297.480469 91.167969 231.246094 116.96875 149.5625 116.96875 C 67.84375 116.96875 1.601562 91.167969 1.601562 59.289062 L 1.601562 143.804688 C 1.601562 175.652344 67.835938 201.484375 149.5625 201.484375 C 231.253906 201.484375 297.480469 175.652344 297.480469 143.804688 L 297.480469 59.289062 "/>
<path style="fill:none;stroke-width:0.5;stroke-linecap:butt;stroke-linejoin:miter;stroke:rgb(100%,100%,100%);stroke-opacity:1;stroke-miterlimit:4;" d="M 46.230073 9.189805 C 46.230073 14.131035 35.936893 18.130156 23.242821 18.130156 C 10.543285 18.130156 0.248891 14.131035 0.248891 9.189805 L 0.248891 22.289727 C 0.248891 27.226113 10.542071 31.230078 23.242821 31.230078 C 35.938107 31.230078 46.230073 27.226113 46.230073 22.289727 Z M 46.230073 9.189805 " transform="matrix(6.434783,0,0,6.451613,0,0)"/>
<path style=" stroke:none;fill-rule:nonzero;fill:rgb(3.137255%,49.803922%,74.901961%);fill-opacity:1;" d="M 149.5625 116.96875 C 231.253906 116.96875 297.480469 91.167969 297.480469 59.289062 C 297.480469 27.433594 231.253906 1.601562 149.5625 1.601562 C 67.84375 1.601562 1.601562 27.433594 1.601562 59.289062 C 1.601562 91.167969 67.835938 116.96875 149.5625 116.96875 "/>
<path style="fill:none;stroke-width:0.5;stroke-linecap:butt;stroke-linejoin:miter;stroke:rgb(100%,100%,100%);stroke-opacity:1;stroke-miterlimit:4;" d="M 23.242821 18.130156 C 35.938107 18.130156 46.230073 14.131035 46.230073 9.189805 C 46.230073 4.252207 35.938107 0.248242 23.242821 0.248242 C 10.543285 0.248242 0.248891 4.252207 0.248891 9.189805 C 0.248891 14.131035 10.542071 18.130156 23.242821 18.130156 Z M 23.242821 18.130156 " transform="matrix(6.434783,0,0,6.451613,0,0)"/>
<path style=" stroke:none;fill-rule:nonzero;fill:rgb(100%,100%,100%);fill-opacity:1;" d="M 115.789062 36.734375 L 127.976562 55.097656 L 81.785156 65.804688 L 91.871094 57.394531 L 20.527344 45.140625 L 38.394531 31.695312 L 107.304688 43.375 L 115.792969 36.730469 M 180.757812 81.277344 L 172.402344 62.34375 L 214.058594 53.992188 L 206.871094 60.484375 L 276.308594 72.394531 L 259.617188 85.75 L 190.625 72.742188 L 180.757812 81.277344 M 157.980469 26.710938 L 204.632812 13.898438 L 205.210938 33.960938 L 193.519531 31.730469 L 170.742188 50.652344 L 149.023438 47.476562 L 172.523438 28.949219 L 157.980469 26.710938 M 137.992188 98.574219 L 93.535156 106.882812 L 91.871094 86.285156 L 104.660156 89.089844 L 129.109375 68.136719 L 150.753906 71.820312 L 124.640625 94.65625 L 137.992188 98.574219 M 142.175781 159.277344 L 185.28125 159.277344 L 185.28125 166.582031 L 201.53125 155.804688 L 185.28125 144.972656 L 185.28125 152.285156 L 142.175781 152.285156 L 142.175781 159.277344 M 141.171875 147.277344 L 181.667969 132.503906 L 184.175781 139.359375 L 195.777344 123.644531 L 176.796875 119.050781 L 179.3125 125.941406 L 138.8125 140.714844 L 141.171875 147.277344 M 141.171875 164.03125 L 181.667969 178.804688 L 184.175781 171.933594 L 195.777344 187.65625 L 176.796875 192.257812 L 179.3125 185.355469 L 138.8125 170.582031 L 141.171875 164.03125 M 75.34375 159.277344 L 116.914062 159.277344 L 116.914062 166.582031 L 133.160156 155.804688 L 116.914062 144.972656 L 116.914062 152.285156 L 75.34375 152.285156 L 75.34375 159.277344 "/>
</g>
</svg>
