<?xml version="1.0" encoding="UTF-8"?>
<svg xmlns="http://www.w3.org/2000/svg" xmlns:xlink="http://www.w3.org/1999/xlink" width="370pt" height="200pt" viewBox="0 0 370 200" version="1.1">
<g id="surface1">
<path style=" stroke:none;fill-rule:nonzero;fill:rgb(3.137255%,48.235294%,73.333333%);fill-opacity:1;" d="M 4.015625 187.695312 L 329.324219 187.695312 L 329.324219 35.398438 L 4.015625 35.398438 Z M 4.015625 187.695312 "/>
<path style="fill:none;stroke-width:0.5;stroke-linecap:butt;stroke-linejoin:miter;stroke:rgb(100%,100%,100%);stroke-opacity:1;stroke-miterlimit:4;" d="M 0.683742 31.906875 L 56.074124 31.906875 L 56.074124 6.019727 L 0.683742 6.019727 L 0.683742 31.908203 Z M 0.683742 31.906875 " transform="matrix(5.873016,0,0,5.882353,0,0)"/>
<path style="fill:none;stroke-width:1.875;stroke-linecap:butt;stroke-linejoin:miter;stroke:rgb(100%,100%,100%);stroke-opacity:1;stroke-miterlimit:4;" d="M 42.92008 25.266914 C 45.559269 25.264258 47.697625 23.125312 47.700285 20.486328 C 47.698955 17.84668 45.559269 15.70707 42.92008 15.705742 C 40.306831 15.743594 38.208383 17.873242 38.208383 20.486328 C 38.208383 23.100078 40.306831 25.229062 42.92008 25.266914 Z M 42.92008 15.705742 L 51.220756 15.705742 " transform="matrix(5.873016,0,0,5.882353,0,0)"/>
<path style=" stroke:none;fill-rule:nonzero;fill:rgb(100%,100%,100%);fill-opacity:1;" d="M 301.308594 74.066406 L 301.308594 109.417969 L 322.582031 92.445312 L 301.308594 74.066406 "/>
<path style="fill:none;stroke-width:0.25;stroke-linecap:butt;stroke-linejoin:miter;stroke:rgb(100%,100%,100%);stroke-opacity:1;stroke-miterlimit:4;" d="M 51.303896 12.589961 L 51.303896 18.601719 L 54.92613 15.715703 L 51.303896 12.591289 Z M 51.303896 12.589961 " transform="matrix(5.873016,0,0,5.882353,0,0)"/>
<path style="fill:none;stroke-width:1.875;stroke-linecap:butt;stroke-linejoin:miter;stroke:rgb(100%,100%,100%);stroke-opacity:1;stroke-miterlimit:4;" d="M 38.145196 20.520859 L 38.145196 12.220078 " transform="matrix(5.873016,0,0,5.882353,0,0)"/>
<path style=" stroke:none;fill-rule:nonzero;fill:rgb(100%,100%,100%);fill-opacity:1;" d="M 206.097656 71.652344 L 241.40625 71.652344 L 224.449219 50.371094 L 206.097656 71.652344 "/>
<path style="fill:none;stroke-width:0.25;stroke-linecap:butt;stroke-linejoin:miter;stroke:rgb(100%,100%,100%);stroke-opacity:1;stroke-miterlimit:4;" d="M 35.092304 12.180898 L 41.104307 12.180898 L 38.217029 8.561758 L 35.092304 12.182227 Z M 35.092304 12.180898 " transform="matrix(5.873016,0,0,5.882353,0,0)"/>
<path style="fill:none;stroke-width:1.875;stroke-linecap:butt;stroke-linejoin:miter;stroke:rgb(100%,100%,100%);stroke-opacity:1;stroke-miterlimit:4;" d="M 43.037806 25.256953 L 34.7358 25.256953 " transform="matrix(5.873016,0,0,5.882353,0,0)"/>
<path style=" stroke:none;fill-rule:nonzero;fill:rgb(100%,100%,100%);fill-opacity:1;" d="M 203.316406 166.976562 L 203.316406 131.652344 L 182.039062 148.625 L 203.316406 166.976562 "/>
<path style="fill:none;stroke-width:0.25;stroke-linecap:butt;stroke-linejoin:miter;stroke:rgb(100%,100%,100%);stroke-opacity:1;stroke-miterlimit:4;" d="M 34.618739 28.38668 L 34.618739 22.380898 L 30.99584 25.266914 Z M 34.618739 28.38668 " transform="matrix(5.873016,0,0,5.882353,0,0)"/>
<path style="fill:none;stroke-width:1.875;stroke-linecap:butt;stroke-linejoin:miter;stroke:rgb(100%,100%,100%);stroke-opacity:1;stroke-miterlimit:4;" d="M 13.569077 25.266914 C 10.929223 25.265586 8.789538 23.125977 8.788872 20.486328 C 8.753621 18.755781 9.656187 17.141445 11.149377 16.266211 C 12.641902 15.390312 14.491596 15.390312 15.984787 16.266211 C 17.477312 17.141445 18.380543 18.755781 18.345291 20.486328 C 18.345291 23.124648 16.207601 25.264258 13.569077 25.266914 Z M 13.569077 15.705742 L 5.269067 15.705742 " transform="matrix(5.873016,0,0,5.882353,0,0)"/>
<path style=" stroke:none;fill-rule:nonzero;fill:rgb(100%,100%,100%);fill-opacity:1;" d="M 30.429688 74.066406 L 30.429688 109.417969 L 9.171875 92.445312 L 30.433594 74.066406 "/>
<path style="fill:none;stroke-width:0.25;stroke-linecap:butt;stroke-linejoin:miter;stroke:rgb(100%,100%,100%);stroke-opacity:1;stroke-miterlimit:4;" d="M 5.181271 12.589961 L 5.181271 18.601719 L 1.561698 15.715703 L 5.181936 12.591289 Z M 5.181271 12.589961 " transform="matrix(5.873016,0,0,5.882353,0,0)"/>
<path style="fill:none;stroke-width:1.875;stroke-linecap:butt;stroke-linejoin:miter;stroke:rgb(100%,100%,100%);stroke-opacity:1;stroke-miterlimit:4;" d="M 18.33997 20.520859 L 18.33997 12.220078 " transform="matrix(5.873016,0,0,5.882353,0,0)"/>
<path style=" stroke:none;fill-rule:nonzero;fill:rgb(100%,100%,100%);fill-opacity:1;" d="M 125.628906 71.652344 L 90.363281 71.652344 L 107.304688 50.371094 L 125.628906 71.652344 "/>
<path style="fill:none;stroke-width:0.25;stroke-linecap:butt;stroke-linejoin:miter;stroke:rgb(100%,100%,100%);stroke-opacity:1;stroke-miterlimit:4;" d="M 21.390868 12.180898 L 15.38618 12.180898 L 18.270798 8.561758 L 21.390868 12.182227 Z M 21.390868 12.180898 " transform="matrix(5.873016,0,0,5.882353,0,0)"/>
<path style="fill:none;stroke-width:1.875;stroke-linecap:butt;stroke-linejoin:miter;stroke:rgb(100%,100%,100%);stroke-opacity:1;stroke-miterlimit:4;" d="M 13.446696 25.256953 L 21.752692 25.256953 " transform="matrix(5.873016,0,0,5.882353,0,0)"/>
<path style=" stroke:none;fill-rule:nonzero;fill:rgb(100%,100%,100%);fill-opacity:1;" d="M 128.441406 166.976562 L 128.441406 131.652344 L 149.726562 148.625 L 128.441406 166.976562 "/>
<path style="fill:none;stroke-width:0.25;stroke-linecap:butt;stroke-linejoin:miter;stroke:rgb(100%,100%,100%);stroke-opacity:1;stroke-miterlimit:4;" d="M 21.869753 28.38668 L 21.869753 22.380898 L 25.493982 25.266914 Z M 21.869753 28.38668 " transform="matrix(5.873016,0,0,5.882353,0,0)"/>
<path style=" stroke:none;fill-rule:nonzero;fill:rgb(3.137255%,48.235294%,73.333333%);fill-opacity:1;" d="M 328.777344 35.230469 L 4.179688 35.230469 L 44.222656 3.230469 L 361.824219 3.230469 L 361.824219 154.519531 L 329.160156 187.605469 L 329.160156 36.148438 L 328.78125 35.230469 "/>
<path style="fill:none;stroke-width:0.5;stroke-linecap:butt;stroke-linejoin:miter;stroke:rgb(100%,100%,100%);stroke-opacity:1;stroke-miterlimit:4;" d="M 55.981007 5.989844 L 0.711677 5.989844 L 7.529804 0.549844 L 61.607908 0.549844 L 61.607908 26.266992 L 56.046189 31.892266 L 56.046189 6.145898 L 55.981672 5.989844 Z M 56.030226 5.946016 L 61.655131 0.476797 " transform="matrix(5.873016,0,0,5.882353,0,0)"/>
<path style="fill:none;stroke-width:1.25;stroke-linecap:butt;stroke-linejoin:miter;stroke:rgb(100%,100%,100%);stroke-opacity:1;stroke-miterlimit:4;" d="M 28.232274 12.014883 L 28.232274 27.014727 " transform="matrix(5.873016,0,0,5.882353,0,0)"/>
</g>
</svg>
