<?xml version="1.0" encoding="UTF-8"?>
<svg xmlns="http://www.w3.org/2000/svg" xmlns:xlink="http://www.w3.org/1999/xlink" width="130pt" height="200pt" viewBox="0 0 130 200" version="1.1">
<defs>
<clipPath id="clip1">
  <path d="M 0 0 L 130 0 L 130 195.449219 L 0 195.449219 Z M 0 0 "/>
</clipPath>
<clipPath id="clip2">
  <path d="M 0 0 L 130 0 L 130 195.449219 L 0 195.449219 Z M 0 0 "/>
</clipPath>
</defs>
<g id="surface1">
<path style=" stroke:none;fill-rule:nonzero;fill:rgb(3.137255%,49.803922%,74.901961%);fill-opacity:1;" d="M 3.144531 190.367188 L 103.160156 190.367188 L 103.160156 31.039062 L 3.144531 31.039062 Z M 3.144531 190.367188 "/>
<path style=" stroke:none;fill-rule:nonzero;fill:rgb(3.137255%,49.803922%,74.901961%);fill-opacity:1;" d="M 103.164062 190.367188 L 135.105469 158.425781 L 135.105469 -0.902344 L 35.085938 -0.902344 L 3.144531 31.039062 L 103.160156 31.039062 L 103.160156 190.367188 M 103.164062 31.039062 L 135.105469 -0.902344 "/>
<path style=" stroke:none;fill-rule:nonzero;fill:rgb(3.137255%,49.803922%,74.901961%);fill-opacity:1;" d="M 3.144531 190.367188 L 103.160156 190.367188 L 103.160156 31.039062 L 3.144531 31.039062 Z M 3.144531 190.367188 "/>
<path style="fill:none;stroke-width:4;stroke-linecap:butt;stroke-linejoin:miter;stroke:rgb(100%,100%,100%);stroke-opacity:1;stroke-miterlimit:4;" d="M 158.713942 259.939904 L 4.83774 259.939904 L 4.83774 14.819712 L 158.707933 14.819712 " transform="matrix(0.65,0,0,-0.65,0,200)"/>
<path style=" stroke:none;fill-rule:nonzero;fill:rgb(3.137255%,49.803922%,74.901961%);fill-opacity:1;" d="M 103.164062 190.367188 L 135.105469 158.425781 L 135.105469 -0.902344 L 35.085938 -0.902344 L 3.144531 31.039062 L 103.160156 31.039062 L 103.160156 190.367188 "/>
<g clip-path="url(#clip1)" clip-rule="nonzero">
<path style="fill:none;stroke-width:4;stroke-linecap:butt;stroke-linejoin:miter;stroke:rgb(100%,100%,100%);stroke-opacity:1;stroke-miterlimit:4;" d="M 158.713942 14.819712 L 207.854567 63.960337 L 207.854567 309.080529 L 53.978365 309.080529 L 4.83774 259.939904 L 158.707933 259.939904 L 158.707933 14.819712 Z M 158.713942 14.819712 " transform="matrix(0.65,0,0,-0.65,0,200)"/>
</g>
<path style="fill-rule:nonzero;fill:rgb(13.72549%,12.156863%,12.54902%);fill-opacity:1;stroke-width:4;stroke-linecap:round;stroke-linejoin:round;stroke:rgb(100%,100%,100%);stroke-opacity:1;stroke-miterlimit:4;" d="M 158.713942 259.939904 L 207.854567 309.080529 " transform="matrix(0.65,0,0,-0.65,0,200)"/>
<path style="fill:none;stroke-width:4;stroke-linecap:butt;stroke-linejoin:miter;stroke:rgb(100%,100%,100%);stroke-opacity:1;stroke-miterlimit:4;" d="M 158.713942 259.939904 L 4.83774 259.939904 L 4.83774 14.819712 L 158.707933 14.819712 " transform="matrix(0.65,0,0,-0.65,0,200)"/>
<g clip-path="url(#clip2)" clip-rule="nonzero">
<path style="fill:none;stroke-width:4;stroke-linecap:butt;stroke-linejoin:miter;stroke:rgb(100%,100%,100%);stroke-opacity:1;stroke-miterlimit:4;" d="M 158.713942 14.819712 L 207.854567 63.960337 L 207.854567 309.080529 L 53.978365 309.080529 L 4.83774 259.939904 L 158.707933 259.939904 L 158.707933 14.819712 Z M 158.713942 259.939904 L 207.854567 309.080529 " transform="matrix(0.65,0,0,-0.65,0,200)"/>
</g>
<path style=" stroke:none;fill-rule:nonzero;fill:rgb(100%,100%,100%);fill-opacity:1;" d="M 50.574219 151.847656 C 50.574219 155.808594 42.101562 159.011719 31.636719 159.011719 C 21.148438 159.011719 12.667969 155.808594 12.667969 151.847656 C 12.667969 147.917969 21.148438 144.710938 31.636719 144.710938 C 42.101562 144.710938 50.574219 147.917969 50.574219 151.847656 "/>
<path style="fill:none;stroke-width:3.5;stroke-linecap:round;stroke-linejoin:round;stroke:rgb(13.72549%,12.156863%,12.54902%);stroke-opacity:1;stroke-miterlimit:4;" d="M 77.80649 74.080529 C 77.80649 67.986779 64.771635 63.058894 48.671875 63.058894 C 32.536058 63.058894 19.489183 67.986779 19.489183 74.080529 C 19.489183 80.126202 32.536058 85.060096 48.671875 85.060096 C 64.771635 85.060096 77.80649 80.126202 77.80649 74.080529 Z M 77.80649 74.080529 " transform="matrix(0.65,0,0,-0.65,0,200)"/>
<path style=" stroke:none;fill-rule:nonzero;fill:rgb(13.72549%,12.156863%,12.54902%);fill-opacity:1;" d="M 37.226562 151.472656 C 37.226562 152.660156 34.683594 153.605469 31.539062 153.605469 C 28.386719 153.605469 25.851562 152.660156 25.851562 151.472656 C 25.851562 150.273438 28.386719 149.308594 31.539062 149.308594 C 34.683594 149.308594 37.226562 150.273438 37.226562 151.472656 "/>
<path style=" stroke:none;fill-rule:nonzero;fill:rgb(13.72549%,12.156863%,12.54902%);fill-opacity:1;" d="M 37.226562 147.558594 C 37.226562 148.753906 34.683594 149.714844 31.539062 149.714844 C 28.386719 149.714844 25.851562 148.753906 25.851562 147.558594 C 25.851562 146.386719 28.386719 145.425781 31.539062 145.425781 C 34.683594 145.425781 37.226562 146.386719 37.226562 147.558594 "/>
<path style=" stroke:none;fill-rule:nonzero;fill:rgb(100%,100%,100%);fill-opacity:1;" d="M 50.574219 144.054688 C 50.574219 148.011719 42.101562 151.210938 31.636719 151.210938 C 21.148438 151.210938 12.667969 148.011719 12.667969 144.054688 C 12.667969 140.097656 21.148438 136.890625 31.636719 136.890625 C 42.101562 136.890625 50.574219 140.097656 50.574219 144.054688 "/>
<path style="fill:none;stroke-width:3.5;stroke-linecap:round;stroke-linejoin:round;stroke:rgb(13.72549%,12.156863%,12.54902%);stroke-opacity:1;stroke-miterlimit:4;" d="M 77.80649 86.069712 C 77.80649 79.981971 64.771635 75.060096 48.671875 75.060096 C 32.536058 75.060096 19.489183 79.981971 19.489183 86.069712 C 19.489183 92.157452 32.536058 97.091346 48.671875 97.091346 C 64.771635 97.091346 77.80649 92.157452 77.80649 86.069712 Z M 77.80649 86.069712 " transform="matrix(0.65,0,0,-0.65,0,200)"/>
<path style=" stroke:none;fill-rule:nonzero;fill:rgb(13.72549%,12.156863%,12.54902%);fill-opacity:1;" d="M 37.226562 143.671875 C 37.226562 144.839844 34.683594 145.804688 31.539062 145.804688 C 28.386719 145.804688 25.851562 144.839844 25.851562 143.671875 C 25.851562 142.484375 28.386719 141.511719 31.539062 141.511719 C 34.683594 141.511719 37.226562 142.484375 37.226562 143.671875 "/>
<path style=" stroke:none;fill-rule:nonzero;fill:rgb(13.72549%,12.156863%,12.54902%);fill-opacity:1;" d="M 37.226562 139.765625 C 37.226562 140.953125 34.683594 141.921875 31.539062 141.921875 C 28.386719 141.921875 25.851562 140.953125 25.851562 139.765625 C 25.851562 138.566406 28.386719 137.632812 31.539062 137.632812 C 34.683594 137.632812 37.226562 138.566406 37.226562 139.765625 "/>
<path style=" stroke:none;fill-rule:nonzero;fill:rgb(100%,100%,100%);fill-opacity:1;" d="M 50.574219 136.261719 C 50.574219 140.191406 42.101562 143.390625 31.636719 143.390625 C 21.148438 143.390625 12.667969 140.191406 12.667969 136.261719 C 12.667969 132.296875 21.148438 129.097656 31.636719 129.097656 C 42.101562 129.097656 50.574219 132.296875 50.574219 136.261719 "/>
<path style="fill:none;stroke-width:3.5;stroke-linecap:round;stroke-linejoin:round;stroke:rgb(13.72549%,12.156863%,12.54902%);stroke-opacity:1;stroke-miterlimit:4;" d="M 77.80649 98.058894 C 77.80649 92.013221 64.771635 87.091346 48.671875 87.091346 C 32.536058 87.091346 19.489183 92.013221 19.489183 98.058894 C 19.489183 104.158654 32.536058 109.080529 48.671875 109.080529 C 64.771635 109.080529 77.80649 104.158654 77.80649 98.058894 Z M 77.80649 98.058894 " transform="matrix(0.65,0,0,-0.65,0,200)"/>
<path style=" stroke:none;fill-rule:nonzero;fill:rgb(13.72549%,12.156863%,12.54902%);fill-opacity:1;" d="M 37.226562 135.878906 C 37.226562 137.046875 34.683594 138.007812 31.539062 138.007812 C 28.386719 138.007812 25.851562 137.046875 25.851562 135.878906 C 25.851562 134.683594 28.386719 133.71875 31.539062 133.71875 C 34.683594 133.71875 37.226562 134.683594 37.226562 135.878906 "/>
<path style=" stroke:none;fill-rule:nonzero;fill:rgb(100%,100%,100%);fill-opacity:1;" d="M 50.574219 120.667969 C 50.574219 124.609375 42.101562 127.804688 31.636719 127.804688 C 21.148438 127.804688 12.667969 124.609375 12.667969 120.667969 C 12.667969 116.707031 21.148438 113.511719 31.636719 113.511719 C 42.101562 113.511719 50.574219 116.707031 50.574219 120.667969 "/>
<path style="fill:none;stroke-width:3.5;stroke-linecap:round;stroke-linejoin:round;stroke:rgb(13.72549%,12.156863%,12.54902%);stroke-opacity:1;stroke-miterlimit:4;" d="M 77.80649 122.049279 C 77.80649 115.985577 64.771635 111.069712 48.671875 111.069712 C 32.536058 111.069712 19.489183 115.985577 19.489183 122.049279 C 19.489183 128.143029 32.536058 133.058894 48.671875 133.058894 C 64.771635 133.058894 77.80649 128.143029 77.80649 122.049279 Z M 77.80649 122.049279 " transform="matrix(0.65,0,0,-0.65,0,200)"/>
<path style=" stroke:none;fill-rule:nonzero;fill:rgb(13.72549%,12.156863%,12.54902%);fill-opacity:1;" d="M 37.226562 120.265625 C 37.226562 121.453125 34.683594 122.421875 31.539062 122.421875 C 28.386719 122.421875 25.851562 121.453125 25.851562 120.265625 C 25.851562 119.066406 28.386719 118.132812 31.539062 118.132812 C 34.683594 118.132812 37.226562 119.066406 37.226562 120.265625 "/>
<path style=" stroke:none;fill-rule:nonzero;fill:rgb(13.72549%,12.156863%,12.54902%);fill-opacity:1;" d="M 37.226562 116.378906 C 37.226562 117.546875 34.683594 118.507812 31.539062 118.507812 C 28.386719 118.507812 25.851562 117.546875 25.851562 116.378906 C 25.851562 115.183594 28.386719 114.21875 31.539062 114.21875 C 34.683594 114.21875 37.226562 115.183594 37.226562 116.378906 "/>
<path style=" stroke:none;fill-rule:nonzero;fill:rgb(100%,100%,100%);fill-opacity:1;" d="M 50.574219 112.847656 C 50.574219 116.808594 42.101562 120.011719 31.636719 120.011719 C 21.148438 120.011719 12.667969 116.808594 12.667969 112.847656 C 12.667969 108.917969 21.148438 105.710938 31.636719 105.710938 C 42.101562 105.710938 50.574219 108.917969 50.574219 112.847656 "/>
<path style="fill:none;stroke-width:3.5;stroke-linecap:round;stroke-linejoin:round;stroke:rgb(13.72549%,12.156863%,12.54902%);stroke-opacity:1;stroke-miterlimit:4;" d="M 77.80649 134.080529 C 77.80649 127.986779 64.771635 123.058894 48.671875 123.058894 C 32.536058 123.058894 19.489183 127.986779 19.489183 134.080529 C 19.489183 140.126202 32.536058 145.060096 48.671875 145.060096 C 64.771635 145.060096 77.80649 140.126202 77.80649 134.080529 Z M 77.80649 134.080529 " transform="matrix(0.65,0,0,-0.65,0,200)"/>
<path style=" stroke:none;fill-rule:nonzero;fill:rgb(13.72549%,12.156863%,12.54902%);fill-opacity:1;" d="M 37.226562 112.472656 C 37.226562 113.660156 34.683594 114.605469 31.539062 114.605469 C 28.386719 114.605469 25.851562 113.660156 25.851562 112.472656 C 25.851562 111.273438 28.386719 110.308594 31.539062 110.308594 C 34.683594 110.308594 37.226562 111.273438 37.226562 112.472656 "/>
<path style=" stroke:none;fill-rule:nonzero;fill:rgb(13.72549%,12.156863%,12.54902%);fill-opacity:1;" d="M 37.226562 108.558594 C 37.226562 109.753906 34.683594 110.714844 31.539062 110.714844 C 28.386719 110.714844 25.851562 109.753906 25.851562 108.558594 C 25.851562 107.386719 28.386719 106.425781 31.539062 106.425781 C 34.683594 106.425781 37.226562 107.386719 37.226562 108.558594 "/>
<path style=" stroke:none;fill-rule:nonzero;fill:rgb(100%,100%,100%);fill-opacity:1;" d="M 50.574219 105.054688 C 50.574219 109.011719 42.101562 112.210938 31.636719 112.210938 C 21.148438 112.210938 12.667969 109.011719 12.667969 105.054688 C 12.667969 101.097656 21.148438 97.890625 31.636719 97.890625 C 42.101562 97.890625 50.574219 101.097656 50.574219 105.054688 "/>
<path style="fill:none;stroke-width:3.5;stroke-linecap:round;stroke-linejoin:round;stroke:rgb(13.72549%,12.156863%,12.54902%);stroke-opacity:1;stroke-miterlimit:4;" d="M 77.80649 146.069712 C 77.80649 139.981971 64.771635 135.060096 48.671875 135.060096 C 32.536058 135.060096 19.489183 139.981971 19.489183 146.069712 C 19.489183 152.157452 32.536058 157.091346 48.671875 157.091346 C 64.771635 157.091346 77.80649 152.157452 77.80649 146.069712 Z M 77.80649 146.069712 " transform="matrix(0.65,0,0,-0.65,0,200)"/>
<path style=" stroke:none;fill-rule:nonzero;fill:rgb(13.72549%,12.156863%,12.54902%);fill-opacity:1;" d="M 37.226562 104.671875 C 37.226562 105.839844 34.683594 106.804688 31.539062 106.804688 C 28.386719 106.804688 25.851562 105.839844 25.851562 104.671875 C 25.851562 103.484375 28.386719 102.511719 31.539062 102.511719 C 34.683594 102.511719 37.226562 103.484375 37.226562 104.671875 "/>
<path style=" stroke:none;fill-rule:nonzero;fill:rgb(100%,100%,100%);fill-opacity:1;" d="M 50.574219 89.460938 C 50.574219 93.398438 42.101562 96.597656 31.636719 96.597656 C 21.148438 96.597656 12.667969 93.398438 12.667969 89.460938 C 12.667969 85.503906 21.148438 82.304688 31.636719 82.304688 C 42.101562 82.304688 50.574219 85.503906 50.574219 89.460938 "/>
<path style="fill:none;stroke-width:3.5;stroke-linecap:round;stroke-linejoin:round;stroke:rgb(13.72549%,12.156863%,12.54902%);stroke-opacity:1;stroke-miterlimit:4;" d="M 77.80649 170.060096 C 77.80649 164.002404 64.771635 159.080529 48.671875 159.080529 C 32.536058 159.080529 19.489183 164.002404 19.489183 170.060096 C 19.489183 176.147837 32.536058 181.069712 48.671875 181.069712 C 64.771635 181.069712 77.80649 176.147837 77.80649 170.060096 Z M 77.80649 170.060096 " transform="matrix(0.65,0,0,-0.65,0,200)"/>
<path style=" stroke:none;fill-rule:nonzero;fill:rgb(13.72549%,12.156863%,12.54902%);fill-opacity:1;" d="M 37.226562 89.058594 C 37.226562 90.253906 34.683594 91.214844 31.539062 91.214844 C 28.386719 91.214844 25.851562 90.253906 25.851562 89.058594 C 25.851562 87.886719 28.386719 86.925781 31.539062 86.925781 C 34.683594 86.925781 37.226562 87.886719 37.226562 89.058594 "/>
<path style=" stroke:none;fill-rule:nonzero;fill:rgb(13.72549%,12.156863%,12.54902%);fill-opacity:1;" d="M 37.226562 85.171875 C 37.226562 86.339844 34.683594 87.304688 31.539062 87.304688 C 28.386719 87.304688 25.851562 86.339844 25.851562 85.171875 C 25.851562 83.984375 28.386719 83.011719 31.539062 83.011719 C 34.683594 83.011719 37.226562 83.984375 37.226562 85.171875 "/>
<path style=" stroke:none;fill-rule:nonzero;fill:rgb(100%,100%,100%);fill-opacity:1;" d="M 50.574219 81.667969 C 50.574219 85.609375 42.101562 88.804688 31.636719 88.804688 C 21.148438 88.804688 12.667969 85.609375 12.667969 81.667969 C 12.667969 77.707031 21.148438 74.511719 31.636719 74.511719 C 42.101562 74.511719 50.574219 77.707031 50.574219 81.667969 "/>
<path style="fill:none;stroke-width:3.5;stroke-linecap:round;stroke-linejoin:round;stroke:rgb(13.72549%,12.156863%,12.54902%);stroke-opacity:1;stroke-miterlimit:4;" d="M 77.80649 182.049279 C 77.80649 175.985577 64.771635 171.069712 48.671875 171.069712 C 32.536058 171.069712 19.489183 175.985577 19.489183 182.049279 C 19.489183 188.143029 32.536058 193.058894 48.671875 193.058894 C 64.771635 193.058894 77.80649 188.143029 77.80649 182.049279 Z M 77.80649 182.049279 " transform="matrix(0.65,0,0,-0.65,0,200)"/>
<path style=" stroke:none;fill-rule:nonzero;fill:rgb(13.72549%,12.156863%,12.54902%);fill-opacity:1;" d="M 37.226562 81.265625 C 37.226562 82.453125 34.683594 83.421875 31.539062 83.421875 C 28.386719 83.421875 25.851562 82.453125 25.851562 81.265625 C 25.851562 80.066406 28.386719 79.132812 31.539062 79.132812 C 34.683594 79.132812 37.226562 80.066406 37.226562 81.265625 "/>
<path style=" stroke:none;fill-rule:nonzero;fill:rgb(13.72549%,12.156863%,12.54902%);fill-opacity:1;" d="M 37.226562 77.378906 C 37.226562 78.546875 34.683594 79.507812 31.539062 79.507812 C 28.386719 79.507812 25.851562 78.546875 25.851562 77.378906 C 25.851562 76.183594 28.386719 75.21875 31.539062 75.21875 C 34.683594 75.21875 37.226562 76.183594 37.226562 77.378906 "/>
<path style=" stroke:none;fill-rule:nonzero;fill:rgb(100%,100%,100%);fill-opacity:1;" d="M 50.574219 73.847656 C 50.574219 77.808594 42.101562 81.011719 31.636719 81.011719 C 21.148438 81.011719 12.667969 77.808594 12.667969 73.847656 C 12.667969 69.917969 21.148438 66.710938 31.636719 66.710938 C 42.101562 66.710938 50.574219 69.917969 50.574219 73.847656 "/>
<path style="fill:none;stroke-width:3.5;stroke-linecap:round;stroke-linejoin:round;stroke:rgb(13.72549%,12.156863%,12.54902%);stroke-opacity:1;stroke-miterlimit:4;" d="M 77.80649 194.080529 C 77.80649 187.986779 64.771635 183.058894 48.671875 183.058894 C 32.536058 183.058894 19.489183 187.986779 19.489183 194.080529 C 19.489183 200.126202 32.536058 205.060096 48.671875 205.060096 C 64.771635 205.060096 77.80649 200.126202 77.80649 194.080529 Z M 77.80649 194.080529 " transform="matrix(0.65,0,0,-0.65,0,200)"/>
<path style=" stroke:none;fill-rule:nonzero;fill:rgb(13.72549%,12.156863%,12.54902%);fill-opacity:1;" d="M 37.226562 73.472656 C 37.226562 74.660156 34.683594 75.605469 31.539062 75.605469 C 28.386719 75.605469 25.851562 74.660156 25.851562 73.472656 C 25.851562 72.273438 28.386719 71.308594 31.539062 71.308594 C 34.683594 71.308594 37.226562 72.273438 37.226562 73.472656 "/>
<path style=" stroke:none;fill-rule:nonzero;fill:rgb(100%,100%,100%);fill-opacity:1;" d="M 92.824219 151.847656 C 92.824219 155.808594 84.351562 159.011719 73.886719 159.011719 C 63.398438 159.011719 54.917969 155.808594 54.917969 151.847656 C 54.917969 147.917969 63.398438 144.710938 73.886719 144.710938 C 84.351562 144.710938 92.824219 147.917969 92.824219 151.847656 "/>
<path style="fill:none;stroke-width:3.5;stroke-linecap:round;stroke-linejoin:round;stroke:rgb(13.72549%,12.156863%,12.54902%);stroke-opacity:1;stroke-miterlimit:4;" d="M 142.80649 74.080529 C 142.80649 67.986779 129.771635 63.058894 113.671875 63.058894 C 97.536058 63.058894 84.489183 67.986779 84.489183 74.080529 C 84.489183 80.126202 97.536058 85.060096 113.671875 85.060096 C 129.771635 85.060096 142.80649 80.126202 142.80649 74.080529 Z M 142.80649 74.080529 " transform="matrix(0.65,0,0,-0.65,0,200)"/>
<path style=" stroke:none;fill-rule:nonzero;fill:rgb(13.72549%,12.156863%,12.54902%);fill-opacity:1;" d="M 79.476562 151.472656 C 79.476562 152.660156 76.933594 153.605469 73.789062 153.605469 C 70.636719 153.605469 68.101562 152.660156 68.101562 151.472656 C 68.101562 150.273438 70.636719 149.308594 73.789062 149.308594 C 76.933594 149.308594 79.476562 150.273438 79.476562 151.472656 "/>
<path style=" stroke:none;fill-rule:nonzero;fill:rgb(13.72549%,12.156863%,12.54902%);fill-opacity:1;" d="M 79.476562 147.558594 C 79.476562 148.753906 76.933594 149.714844 73.789062 149.714844 C 70.636719 149.714844 68.101562 148.753906 68.101562 147.558594 C 68.101562 146.386719 70.636719 145.425781 73.789062 145.425781 C 76.933594 145.425781 79.476562 146.386719 79.476562 147.558594 "/>
<path style=" stroke:none;fill-rule:nonzero;fill:rgb(100%,100%,100%);fill-opacity:1;" d="M 92.824219 144.054688 C 92.824219 148.011719 84.351562 151.210938 73.886719 151.210938 C 63.398438 151.210938 54.917969 148.011719 54.917969 144.054688 C 54.917969 140.097656 63.398438 136.890625 73.886719 136.890625 C 84.351562 136.890625 92.824219 140.097656 92.824219 144.054688 "/>
<path style="fill:none;stroke-width:3.5;stroke-linecap:round;stroke-linejoin:round;stroke:rgb(13.72549%,12.156863%,12.54902%);stroke-opacity:1;stroke-miterlimit:4;" d="M 142.80649 86.069712 C 142.80649 79.981971 129.771635 75.060096 113.671875 75.060096 C 97.536058 75.060096 84.489183 79.981971 84.489183 86.069712 C 84.489183 92.157452 97.536058 97.091346 113.671875 97.091346 C 129.771635 97.091346 142.80649 92.157452 142.80649 86.069712 Z M 142.80649 86.069712 " transform="matrix(0.65,0,0,-0.65,0,200)"/>
<path style=" stroke:none;fill-rule:nonzero;fill:rgb(13.72549%,12.156863%,12.54902%);fill-opacity:1;" d="M 79.476562 143.671875 C 79.476562 144.839844 76.933594 145.804688 73.789062 145.804688 C 70.636719 145.804688 68.101562 144.839844 68.101562 143.671875 C 68.101562 142.484375 70.636719 141.511719 73.789062 141.511719 C 76.933594 141.511719 79.476562 142.484375 79.476562 143.671875 "/>
<path style=" stroke:none;fill-rule:nonzero;fill:rgb(13.72549%,12.156863%,12.54902%);fill-opacity:1;" d="M 79.476562 139.765625 C 79.476562 140.953125 76.933594 141.921875 73.789062 141.921875 C 70.636719 141.921875 68.101562 140.953125 68.101562 139.765625 C 68.101562 138.566406 70.636719 137.632812 73.789062 137.632812 C 76.933594 137.632812 79.476562 138.566406 79.476562 139.765625 "/>
<path style=" stroke:none;fill-rule:nonzero;fill:rgb(100%,100%,100%);fill-opacity:1;" d="M 92.824219 136.261719 C 92.824219 140.191406 84.351562 143.390625 73.886719 143.390625 C 63.398438 143.390625 54.917969 140.191406 54.917969 136.261719 C 54.917969 132.296875 63.398438 129.097656 73.886719 129.097656 C 84.351562 129.097656 92.824219 132.296875 92.824219 136.261719 "/>
<path style="fill:none;stroke-width:3.5;stroke-linecap:round;stroke-linejoin:round;stroke:rgb(13.72549%,12.156863%,12.54902%);stroke-opacity:1;stroke-miterlimit:4;" d="M 142.80649 98.058894 C 142.80649 92.013221 129.771635 87.091346 113.671875 87.091346 C 97.536058 87.091346 84.489183 92.013221 84.489183 98.058894 C 84.489183 104.158654 97.536058 109.080529 113.671875 109.080529 C 129.771635 109.080529 142.80649 104.158654 142.80649 98.058894 Z M 142.80649 98.058894 " transform="matrix(0.65,0,0,-0.65,0,200)"/>
<path style=" stroke:none;fill-rule:nonzero;fill:rgb(13.72549%,12.156863%,12.54902%);fill-opacity:1;" d="M 79.476562 135.878906 C 79.476562 137.046875 76.933594 138.007812 73.789062 138.007812 C 70.636719 138.007812 68.101562 137.046875 68.101562 135.878906 C 68.101562 134.683594 70.636719 133.71875 73.789062 133.71875 C 76.933594 133.71875 79.476562 134.683594 79.476562 135.878906 "/>
<path style=" stroke:none;fill-rule:nonzero;fill:rgb(100%,100%,100%);fill-opacity:1;" d="M 92.824219 120.667969 C 92.824219 124.609375 84.351562 127.804688 73.886719 127.804688 C 63.398438 127.804688 54.917969 124.609375 54.917969 120.667969 C 54.917969 116.707031 63.398438 113.511719 73.886719 113.511719 C 84.351562 113.511719 92.824219 116.707031 92.824219 120.667969 "/>
<path style="fill:none;stroke-width:3.5;stroke-linecap:round;stroke-linejoin:round;stroke:rgb(13.72549%,12.156863%,12.54902%);stroke-opacity:1;stroke-miterlimit:4;" d="M 142.80649 122.049279 C 142.80649 115.985577 129.771635 111.069712 113.671875 111.069712 C 97.536058 111.069712 84.489183 115.985577 84.489183 122.049279 C 84.489183 128.143029 97.536058 133.058894 113.671875 133.058894 C 129.771635 133.058894 142.80649 128.143029 142.80649 122.049279 Z M 142.80649 122.049279 " transform="matrix(0.65,0,0,-0.65,0,200)"/>
<path style=" stroke:none;fill-rule:nonzero;fill:rgb(13.72549%,12.156863%,12.54902%);fill-opacity:1;" d="M 79.476562 120.265625 C 79.476562 121.453125 76.933594 122.421875 73.789062 122.421875 C 70.636719 122.421875 68.101562 121.453125 68.101562 120.265625 C 68.101562 119.066406 70.636719 118.132812 73.789062 118.132812 C 76.933594 118.132812 79.476562 119.066406 79.476562 120.265625 "/>
<path style=" stroke:none;fill-rule:nonzero;fill:rgb(13.72549%,12.156863%,12.54902%);fill-opacity:1;" d="M 79.476562 116.378906 C 79.476562 117.546875 76.933594 118.507812 73.789062 118.507812 C 70.636719 118.507812 68.101562 117.546875 68.101562 116.378906 C 68.101562 115.183594 70.636719 114.21875 73.789062 114.21875 C 76.933594 114.21875 79.476562 115.183594 79.476562 116.378906 "/>
<path style=" stroke:none;fill-rule:nonzero;fill:rgb(100%,100%,100%);fill-opacity:1;" d="M 92.824219 112.847656 C 92.824219 116.808594 84.351562 120.011719 73.886719 120.011719 C 63.398438 120.011719 54.917969 116.808594 54.917969 112.847656 C 54.917969 108.917969 63.398438 105.710938 73.886719 105.710938 C 84.351562 105.710938 92.824219 108.917969 92.824219 112.847656 "/>
<path style="fill:none;stroke-width:3.5;stroke-linecap:round;stroke-linejoin:round;stroke:rgb(13.72549%,12.156863%,12.54902%);stroke-opacity:1;stroke-miterlimit:4;" d="M 142.80649 134.080529 C 142.80649 127.986779 129.771635 123.058894 113.671875 123.058894 C 97.536058 123.058894 84.489183 127.986779 84.489183 134.080529 C 84.489183 140.126202 97.536058 145.060096 113.671875 145.060096 C 129.771635 145.060096 142.80649 140.126202 142.80649 134.080529 Z M 142.80649 134.080529 " transform="matrix(0.65,0,0,-0.65,0,200)"/>
<path style=" stroke:none;fill-rule:nonzero;fill:rgb(13.72549%,12.156863%,12.54902%);fill-opacity:1;" d="M 79.476562 112.472656 C 79.476562 113.660156 76.933594 114.605469 73.789062 114.605469 C 70.636719 114.605469 68.101562 113.660156 68.101562 112.472656 C 68.101562 111.273438 70.636719 110.308594 73.789062 110.308594 C 76.933594 110.308594 79.476562 111.273438 79.476562 112.472656 "/>
<path style=" stroke:none;fill-rule:nonzero;fill:rgb(13.72549%,12.156863%,12.54902%);fill-opacity:1;" d="M 79.476562 108.558594 C 79.476562 109.753906 76.933594 110.714844 73.789062 110.714844 C 70.636719 110.714844 68.101562 109.753906 68.101562 108.558594 C 68.101562 107.386719 70.636719 106.425781 73.789062 106.425781 C 76.933594 106.425781 79.476562 107.386719 79.476562 108.558594 "/>
<path style=" stroke:none;fill-rule:nonzero;fill:rgb(100%,100%,100%);fill-opacity:1;" d="M 92.824219 105.054688 C 92.824219 109.011719 84.351562 112.210938 73.886719 112.210938 C 63.398438 112.210938 54.917969 109.011719 54.917969 105.054688 C 54.917969 101.097656 63.398438 97.890625 73.886719 97.890625 C 84.351562 97.890625 92.824219 101.097656 92.824219 105.054688 "/>
<path style="fill:none;stroke-width:3.5;stroke-linecap:round;stroke-linejoin:round;stroke:rgb(13.72549%,12.156863%,12.54902%);stroke-opacity:1;stroke-miterlimit:4;" d="M 142.80649 146.069712 C 142.80649 139.981971 129.771635 135.060096 113.671875 135.060096 C 97.536058 135.060096 84.489183 139.981971 84.489183 146.069712 C 84.489183 152.157452 97.536058 157.091346 113.671875 157.091346 C 129.771635 157.091346 142.80649 152.157452 142.80649 146.069712 Z M 142.80649 146.069712 " transform="matrix(0.65,0,0,-0.65,0,200)"/>
<path style=" stroke:none;fill-rule:nonzero;fill:rgb(13.72549%,12.156863%,12.54902%);fill-opacity:1;" d="M 79.476562 104.671875 C 79.476562 105.839844 76.933594 106.804688 73.789062 106.804688 C 70.636719 106.804688 68.101562 105.839844 68.101562 104.671875 C 68.101562 103.484375 70.636719 102.511719 73.789062 102.511719 C 76.933594 102.511719 79.476562 103.484375 79.476562 104.671875 "/>
<path style=" stroke:none;fill-rule:nonzero;fill:rgb(100%,100%,100%);fill-opacity:1;" d="M 92.824219 89.460938 C 92.824219 93.398438 84.351562 96.597656 73.886719 96.597656 C 63.398438 96.597656 54.917969 93.398438 54.917969 89.460938 C 54.917969 85.503906 63.398438 82.304688 73.886719 82.304688 C 84.351562 82.304688 92.824219 85.503906 92.824219 89.460938 "/>
<path style="fill:none;stroke-width:3.5;stroke-linecap:round;stroke-linejoin:round;stroke:rgb(13.72549%,12.156863%,12.54902%);stroke-opacity:1;stroke-miterlimit:4;" d="M 142.80649 170.060096 C 142.80649 164.002404 129.771635 159.080529 113.671875 159.080529 C 97.536058 159.080529 84.489183 164.002404 84.489183 170.060096 C 84.489183 176.147837 97.536058 181.069712 113.671875 181.069712 C 129.771635 181.069712 142.80649 176.147837 142.80649 170.060096 Z M 142.80649 170.060096 " transform="matrix(0.65,0,0,-0.65,0,200)"/>
<path style=" stroke:none;fill-rule:nonzero;fill:rgb(13.72549%,12.156863%,12.54902%);fill-opacity:1;" d="M 79.476562 89.058594 C 79.476562 90.253906 76.933594 91.214844 73.789062 91.214844 C 70.636719 91.214844 68.101562 90.253906 68.101562 89.058594 C 68.101562 87.886719 70.636719 86.925781 73.789062 86.925781 C 76.933594 86.925781 79.476562 87.886719 79.476562 89.058594 "/>
<path style=" stroke:none;fill-rule:nonzero;fill:rgb(13.72549%,12.156863%,12.54902%);fill-opacity:1;" d="M 79.476562 85.171875 C 79.476562 86.339844 76.933594 87.304688 73.789062 87.304688 C 70.636719 87.304688 68.101562 86.339844 68.101562 85.171875 C 68.101562 83.984375 70.636719 83.011719 73.789062 83.011719 C 76.933594 83.011719 79.476562 83.984375 79.476562 85.171875 "/>
<path style=" stroke:none;fill-rule:nonzero;fill:rgb(100%,100%,100%);fill-opacity:1;" d="M 92.824219 81.667969 C 92.824219 85.609375 84.351562 88.804688 73.886719 88.804688 C 63.398438 88.804688 54.917969 85.609375 54.917969 81.667969 C 54.917969 77.707031 63.398438 74.511719 73.886719 74.511719 C 84.351562 74.511719 92.824219 77.707031 92.824219 81.667969 "/>
<path style="fill:none;stroke-width:3.5;stroke-linecap:round;stroke-linejoin:round;stroke:rgb(13.72549%,12.156863%,12.54902%);stroke-opacity:1;stroke-miterlimit:4;" d="M 142.80649 182.049279 C 142.80649 175.985577 129.771635 171.069712 113.671875 171.069712 C 97.536058 171.069712 84.489183 175.985577 84.489183 182.049279 C 84.489183 188.143029 97.536058 193.058894 113.671875 193.058894 C 129.771635 193.058894 142.80649 188.143029 142.80649 182.049279 Z M 142.80649 182.049279 " transform="matrix(0.65,0,0,-0.65,0,200)"/>
<path style=" stroke:none;fill-rule:nonzero;fill:rgb(13.72549%,12.156863%,12.54902%);fill-opacity:1;" d="M 79.476562 81.265625 C 79.476562 82.453125 76.933594 83.421875 73.789062 83.421875 C 70.636719 83.421875 68.101562 82.453125 68.101562 81.265625 C 68.101562 80.066406 70.636719 79.132812 73.789062 79.132812 C 76.933594 79.132812 79.476562 80.066406 79.476562 81.265625 "/>
<path style=" stroke:none;fill-rule:nonzero;fill:rgb(13.72549%,12.156863%,12.54902%);fill-opacity:1;" d="M 79.476562 77.378906 C 79.476562 78.546875 76.933594 79.507812 73.789062 79.507812 C 70.636719 79.507812 68.101562 78.546875 68.101562 77.378906 C 68.101562 76.183594 70.636719 75.21875 73.789062 75.21875 C 76.933594 75.21875 79.476562 76.183594 79.476562 77.378906 "/>
<path style=" stroke:none;fill-rule:nonzero;fill:rgb(100%,100%,100%);fill-opacity:1;" d="M 92.824219 73.847656 C 92.824219 77.808594 84.351562 81.011719 73.886719 81.011719 C 63.398438 81.011719 54.917969 77.808594 54.917969 73.847656 C 54.917969 69.917969 63.398438 66.710938 73.886719 66.710938 C 84.351562 66.710938 92.824219 69.917969 92.824219 73.847656 "/>
<path style="fill:none;stroke-width:3.5;stroke-linecap:round;stroke-linejoin:round;stroke:rgb(13.72549%,12.156863%,12.54902%);stroke-opacity:1;stroke-miterlimit:4;" d="M 142.80649 194.080529 C 142.80649 187.986779 129.771635 183.058894 113.671875 183.058894 C 97.536058 183.058894 84.489183 187.986779 84.489183 194.080529 C 84.489183 200.126202 97.536058 205.060096 113.671875 205.060096 C 129.771635 205.060096 142.80649 200.126202 142.80649 194.080529 Z M 142.80649 194.080529 " transform="matrix(0.65,0,0,-0.65,0,200)"/>
<path style=" stroke:none;fill-rule:nonzero;fill:rgb(13.72549%,12.156863%,12.54902%);fill-opacity:1;" d="M 79.476562 73.472656 C 79.476562 74.660156 76.933594 75.605469 73.789062 75.605469 C 70.636719 75.605469 68.101562 74.660156 68.101562 73.472656 C 68.101562 72.273438 70.636719 71.308594 73.789062 71.308594 C 76.933594 71.308594 79.476562 72.273438 79.476562 73.472656 "/>
</g>
</svg>
