<?xml version="1.0" encoding="UTF-8"?>
<svg xmlns="http://www.w3.org/2000/svg" xmlns:xlink="http://www.w3.org/1999/xlink" width="121pt" height="200pt" viewBox="0 0 121 200" version="1.1">
<defs>
<clipPath id="clip1">
  <path d="M 2 141 L 113 141 L 113 195.882812 L 2 195.882812 Z M 2 141 "/>
</clipPath>
<clipPath id="clip2">
  <path d="M 1 140 L 114 140 L 114 195.882812 L 1 195.882812 Z M 1 140 "/>
</clipPath>
<clipPath id="clip3">
  <path d="M 112 127 L 121 127 L 121 195.882812 L 112 195.882812 Z M 112 127 "/>
</clipPath>
<clipPath id="clip4">
  <path d="M 101 115 L 121 115 L 121 195.882812 L 101 195.882812 Z M 101 115 "/>
</clipPath>
</defs>
<g id="surface1">
<path style=" stroke:none;fill-rule:nonzero;fill:rgb(3.137255%,49.803922%,74.901961%);fill-opacity:1;" d="M 126.917969 -5.929688 L 112.960938 9.941406 L 2.695312 9.941406 L 20.773438 -5.929688 L 126.917969 -5.929688 "/>
<path style="fill:none;stroke-width:4;stroke-linecap:butt;stroke-linejoin:miter;stroke:rgb(100%,100%,100%);stroke-opacity:1;stroke-miterlimit:4;" d="M 250.124414 405.862079 L 222.618504 374.730319 L 5.311805 374.730319 L 40.939387 405.862079 Z M 250.124414 405.862079 " transform="matrix(0.507419,0,0,-0.509804,0,200.980392)"/>
<path style="fill-rule:nonzero;fill:rgb(3.137255%,49.803922%,74.901961%);fill-opacity:1;stroke-width:4;stroke-linecap:butt;stroke-linejoin:miter;stroke:rgb(100%,100%,100%);stroke-opacity:1;stroke-miterlimit:4;" d="M 5.311805 287.725361 L 222.610805 287.725361 L 222.610805 376.048227 L 5.311805 376.048227 Z M 5.311805 287.725361 " transform="matrix(0.507419,0,0,-0.509804,0,200.980392)"/>
<path style=" stroke:none;fill-rule:nonzero;fill:rgb(3.137255%,49.803922%,74.901961%);fill-opacity:1;" d="M 126.894531 39.535156 L 126.894531 -5.488281 L 112.960938 9.269531 L 112.960938 54.296875 L 126.894531 39.535156 "/>
<path style="fill:none;stroke-width:4;stroke-linecap:butt;stroke-linejoin:miter;stroke:rgb(100%,100%,100%);stroke-opacity:1;stroke-miterlimit:4;" d="M 250.078224 316.68104 L 250.078224 404.996244 L 222.618504 376.048227 L 222.618504 287.725361 Z M 250.078224 316.68104 " transform="matrix(0.507419,0,0,-0.509804,0,200.980392)"/>
<path style=" stroke:none;fill-rule:nonzero;fill:rgb(3.137255%,49.803922%,74.901961%);fill-opacity:1;" d="M 112.960938 53.796875 L 112.960938 142.292969 L 126.894531 127.558594 L 126.894531 39.058594 L 112.960938 53.796875 "/>
<path style="fill:none;stroke-width:4;stroke-linecap:butt;stroke-linejoin:miter;stroke:rgb(100%,100%,100%);stroke-opacity:1;stroke-miterlimit:4;" d="M 222.618504 288.70613 L 222.618504 115.117638 L 250.078224 144.019681 L 250.078224 317.615835 Z M 222.618504 288.70613 " transform="matrix(0.507419,0,0,-0.509804,0,200.980392)"/>
<path style="fill:none;stroke-width:4;stroke-linecap:round;stroke-linejoin:round;stroke:rgb(100%,100%,100%);stroke-opacity:1;stroke-miterlimit:4;" d="M 221.556143 348.31851 L 6.412657 348.31851 M 238.015039 393.158053 L 22.848458 393.158053 M 221.556143 318.519982 L 6.412657 318.519982 M 250.701784 379.297025 L 223.319046 349.299279 M 250.701784 349.452524 L 223.319046 319.485427 M 70.162011 375.619141 L 70.162011 348.586689 M 153.35719 375.619141 L 153.35719 348.586689 M 70.162011 317.025841 L 70.162011 289.993389 M 153.35719 317.025841 L 153.35719 289.993389 M 113.395482 346.985276 L 113.395482 319.960487 M 30.231097 346.985276 L 30.231097 319.960487 M 196.598359 346.985276 L 196.598359 319.960487 M 101.016668 406.95012 L 70.162011 376.132512 M 184.181053 406.95012 L 153.35719 376.132512 " transform="matrix(0.507419,0,0,-0.509804,0,200.980392)"/>
<path style=" stroke:none;fill-rule:nonzero;fill:rgb(3.137255%,49.803922%,74.901961%);fill-opacity:1;" d="M 2.695312 141.578125 L 112.957031 141.578125 L 112.957031 53.796875 L 2.695312 53.796875 Z M 2.695312 141.578125 "/>
<path style="fill:none;stroke-width:4;stroke-linecap:butt;stroke-linejoin:miter;stroke:rgb(100%,100%,100%);stroke-opacity:1;stroke-miterlimit:4;" d="M 222.618504 288.70613 L 222.618504 116.519832 L 5.311805 116.519832 L 5.311805 288.70613 " transform="matrix(0.507419,0,0,-0.509804,0,200.980392)"/>
<g clip-path="url(#clip1)" clip-rule="nonzero">
<path style=" stroke:none;fill-rule:nonzero;fill:rgb(3.137255%,49.803922%,74.901961%);fill-opacity:1;" d="M 2.695312 195.765625 L 112.957031 195.765625 L 112.957031 141.378906 L 2.695312 141.378906 Z M 2.695312 195.765625 "/>
</g>
<g clip-path="url(#clip2)" clip-rule="nonzero">
<path style="fill:none;stroke-width:4;stroke-linecap:butt;stroke-linejoin:miter;stroke:rgb(100%,100%,100%);stroke-opacity:1;stroke-miterlimit:4;" d="M 5.311805 10.228966 L 222.610805 10.228966 L 222.610805 116.910607 L 5.311805 116.910607 Z M 5.311805 10.228966 " transform="matrix(0.507419,0,0,-0.509804,0,200.980392)"/>
</g>
<g clip-path="url(#clip3)" clip-rule="nonzero">
<path style=" stroke:none;fill-rule:nonzero;fill:rgb(3.137255%,49.803922%,74.901961%);fill-opacity:1;" d="M 126.894531 181.007812 L 126.894531 127 L 112.960938 141.738281 L 112.960938 195.765625 L 126.894531 181.007812 "/>
</g>
<g clip-path="url(#clip4)" clip-rule="nonzero">
<path style="fill:none;stroke-width:4;stroke-linecap:butt;stroke-linejoin:miter;stroke:rgb(100%,100%,100%);stroke-opacity:1;stroke-miterlimit:4;" d="M 250.078224 39.176983 L 250.078224 145.115385 L 222.618504 116.205679 L 222.618504 10.228966 Z M 250.078224 39.176983 " transform="matrix(0.507419,0,0,-0.509804,0,200.980392)"/>
</g>
<path style=" stroke:none;fill-rule:nonzero;fill:rgb(100%,100%,100%);fill-opacity:1;" d="M 59.640625 87.449219 L 59.640625 68.292969 L 62.875 68.292969 L 58.117188 61.066406 L 53.339844 68.292969 L 56.566406 68.292969 L 56.566406 87.449219 L 59.640625 87.449219 M 49.929688 90.214844 L 36.433594 76.65625 L 38.730469 74.367188 L 30.265625 72.652344 L 31.972656 81.15625 L 34.269531 78.847656 L 47.75 92.386719 L 49.929688 90.214844 M 44.992188 99.082031 L 25.925781 99.082031 L 25.925781 95.835938 L 18.730469 100.628906 L 25.925781 105.414062 L 25.925781 102.167969 L 44.992188 102.167969 L 44.992188 99.082031 M 47.75 108.859375 L 34.269531 122.402344 L 31.972656 120.109375 L 30.265625 128.613281 L 38.730469 126.882812 L 36.433594 124.589844 L 49.929688 111.027344 L 47.75 108.859375 M 56.566406 107.085938 L 56.566406 144.066406 L 53.339844 144.066406 L 58.117188 151.316406 L 62.875 144.066406 L 59.640625 144.066406 L 59.640625 107.085938 L 56.566406 107.085938 M 66.300781 111.027344 L 79.78125 124.589844 L 77.5 126.882812 L 85.960938 128.613281 L 84.242188 120.109375 L 81.957031 122.402344 L 68.480469 108.859375 L 66.300781 111.027344 M 71.238281 102.167969 L 90.304688 102.167969 L 90.304688 105.414062 L 97.5 100.628906 L 90.304688 95.835938 L 90.304688 99.082031 L 71.238281 99.082031 L 71.238281 102.167969 M 68.480469 92.386719 L 81.957031 78.847656 L 84.242188 81.15625 L 85.960938 72.652344 L 77.5 74.367188 L 79.78125 76.65625 L 66.300781 90.214844 L 68.480469 92.386719 "/>
<path style=" stroke:none;fill-rule:nonzero;fill:rgb(100%,100%,100%);fill-opacity:1;" d="M 69.769531 116.683594 C 78.710938 110.390625 80.871094 98.027344 74.625 89.066406 C 68.363281 80.082031 56.054688 77.890625 47.132812 84.183594 C 38.195312 90.476562 36.035156 102.84375 42.277344 111.804688 C 48.539062 120.789062 60.851562 122.957031 69.769531 116.683594 "/>
<path style="fill:none;stroke-width:4;stroke-linecap:round;stroke-linejoin:round;stroke:rgb(100%,100%,100%);stroke-opacity:1;stroke-miterlimit:4;" d="M 238.092022 392.338191 L 238.092022 305.861929 " transform="matrix(0.507419,0,0,-0.509804,0,200.980392)"/>
<path style=" stroke:none;fill-rule:nonzero;fill:rgb(100%,100%,100%);fill-opacity:1;" d="M 56.929688 162.808594 L 85.960938 162.808594 L 85.960938 159.894531 L 95.457031 165.691406 L 85.960938 171.648438 L 85.960938 168.742188 L 56.929688 168.742188 L 56.929688 162.808594 M 56.929688 180.945312 L 85.960938 180.945312 L 85.960938 178.039062 L 95.457031 183.835938 L 85.960938 189.769531 L 85.960938 186.882812 L 56.929688 186.882812 L 56.929688 180.945312 M 57.582031 154.125 L 28.542969 154.125 L 28.542969 151.234375 L 19.046875 157.011719 L 28.542969 162.964844 L 28.542969 160.082031 L 57.582031 160.082031 L 57.582031 154.125 M 57.582031 172.265625 L 28.542969 172.265625 L 28.542969 169.359375 L 19.046875 175.15625 L 28.542969 181.109375 L 28.542969 178.21875 L 57.582031 178.21875 L 57.582031 172.265625 "/>
<path style="fill:none;stroke-width:4;stroke-linecap:round;stroke-linejoin:round;stroke:rgb(100%,100%,100%);stroke-opacity:1;stroke-miterlimit:4;" d="M 221.556143 288.315355 L 6.412657 288.315355 M 250.701784 319.29387 L 223.319046 289.296124 M 221.556143 117.063852 L 6.412657 117.063852 M 249.262208 143.705529 L 224.019588 117.339694 " transform="matrix(0.507419,0,0,-0.509804,0,200.980392)"/>
</g>
</svg>
