<?xml version="1.0" encoding="UTF-8"?>
<svg xmlns="http://www.w3.org/2000/svg" xmlns:xlink="http://www.w3.org/1999/xlink" width="135pt" height="200pt" viewBox="0 0 135 200" version="1.1">
<g id="surface1">
<path style=" stroke:none;fill-rule:nonzero;fill:rgb(0.784314%,43.921569%,62.352941%);fill-opacity:1;" d="M 1.511719 199.742188 L 28.039062 199.742188 L 28.039062 120.609375 L 1.511719 120.609375 Z M 1.511719 199.742188 "/>
<path style="fill:none;stroke-width:0.5;stroke-linecap:butt;stroke-linejoin:miter;stroke:rgb(100%,100%,100%);stroke-opacity:1;stroke-miterlimit:4;" d="M 11.215625 48.24375 L 0.604688 48.24375 L 0.604688 79.896875 L 11.215625 79.896875 " transform="matrix(2.5,0,0,2.5,0,0)"/>
<path style=" stroke:none;fill-rule:nonzero;fill:rgb(0.784314%,43.921569%,62.352941%);fill-opacity:1;" d="M 28.039062 199.742188 L 42.710938 185.074219 L 42.710938 105.941406 L 16.175781 105.941406 L 1.511719 120.609375 L 28.039062 120.609375 L 28.039062 199.742188 "/>
<path style="fill:none;stroke-width:0.5;stroke-linecap:butt;stroke-linejoin:miter;stroke:rgb(100%,100%,100%);stroke-opacity:1;stroke-miterlimit:4;" d="M 11.215625 79.896875 L 17.084375 74.029688 L 17.084375 42.376563 L 6.470313 42.376563 L 0.604688 48.24375 L 11.215625 48.24375 Z M 11.215625 79.896875 " transform="matrix(2.5,0,0,2.5,0,0)"/>
<path style="fill-rule:nonzero;fill:rgb(0.784314%,43.921569%,62.352941%);fill-opacity:1;stroke-width:0.5;stroke-linecap:butt;stroke-linejoin:miter;stroke:rgb(100%,100%,100%);stroke-opacity:1;stroke-miterlimit:4;" d="M 11.215625 48.24375 L 17.084375 42.376563 " transform="matrix(2.5,0,0,2.5,0,0)"/>
<path style=" stroke:none;fill-rule:nonzero;fill:rgb(0.784314%,43.921569%,62.352941%);fill-opacity:1;" d="M 28.039062 199.742188 L 82.140625 199.742188 L 82.140625 22.585938 L 28.039062 22.585938 Z M 28.039062 199.742188 "/>
<path style="fill:none;stroke-width:0.5;stroke-linecap:butt;stroke-linejoin:miter;stroke:rgb(100%,100%,100%);stroke-opacity:1;stroke-miterlimit:4;" d="M 32.85625 9.034375 L 11.215625 9.034375 L 11.215625 79.896875 L 32.85625 79.896875 " transform="matrix(2.5,0,0,2.5,0,0)"/>
<path style=" stroke:none;fill-rule:nonzero;fill:rgb(0.784314%,43.921569%,62.352941%);fill-opacity:1;" d="M 82.140625 199.742188 L 104.136719 177.746094 L 104.136719 0.585938 L 50.039062 0.585938 L 28.039062 22.585938 L 82.140625 22.585938 L 82.140625 199.742188 "/>
<path style="fill:none;stroke-width:0.5;stroke-linecap:butt;stroke-linejoin:miter;stroke:rgb(100%,100%,100%);stroke-opacity:1;stroke-miterlimit:4;" d="M 32.85625 79.896875 L 41.654688 71.098438 L 41.654688 0.234375 L 20.015625 0.234375 L 11.215625 9.034375 L 32.85625 9.034375 Z M 32.85625 79.896875 " transform="matrix(2.5,0,0,2.5,0,0)"/>
<path style="fill-rule:nonzero;fill:rgb(0.784314%,43.921569%,62.352941%);fill-opacity:1;stroke-width:0.5;stroke-linecap:butt;stroke-linejoin:miter;stroke:rgb(100%,100%,100%);stroke-opacity:1;stroke-miterlimit:4;" d="M 32.85625 9.034375 L 41.654688 0.234375 " transform="matrix(2.5,0,0,2.5,0,0)"/>
<path style=" stroke:none;fill-rule:nonzero;fill:rgb(0.784314%,43.921569%,62.352941%);fill-opacity:1;" d="M 82.59375 199.742188 L 111.929688 199.742188 L 111.929688 50.460938 L 82.59375 50.460938 Z M 82.59375 199.742188 "/>
<path style="fill:none;stroke-width:0.5;stroke-linecap:butt;stroke-linejoin:miter;stroke:rgb(100%,100%,100%);stroke-opacity:1;stroke-miterlimit:4;" d="M 44.770313 20.184375 L 33.0375 20.184375 L 33.0375 79.896875 L 44.770313 79.896875 " transform="matrix(2.5,0,0,2.5,0,0)"/>
<path style=" stroke:none;fill-rule:nonzero;fill:rgb(0.784314%,43.921569%,62.352941%);fill-opacity:1;" d="M 111.925781 199.742188 L 133.433594 178.234375 L 133.433594 28.953125 L 104.101562 28.953125 L 82.59375 50.460938 L 111.925781 50.460938 L 111.925781 199.742188 "/>
<path style="fill:none;stroke-width:0.5;stroke-linecap:butt;stroke-linejoin:miter;stroke:rgb(100%,100%,100%);stroke-opacity:1;stroke-miterlimit:4;" d="M 44.770313 79.896875 L 53.373438 71.29375 L 53.373438 11.58125 L 41.640625 11.58125 L 33.0375 20.184375 L 44.770313 20.184375 Z M 44.770313 79.896875 " transform="matrix(2.5,0,0,2.5,0,0)"/>
<path style="fill-rule:nonzero;fill:rgb(0.784314%,43.921569%,62.352941%);fill-opacity:1;stroke-width:0.5;stroke-linecap:butt;stroke-linejoin:miter;stroke:rgb(100%,100%,100%);stroke-opacity:1;stroke-miterlimit:4;" d="M 44.770313 20.184375 L 53.373438 11.582813 " transform="matrix(2.5,0,0,2.5,0,0)"/>
<path style="fill-rule:nonzero;fill:rgb(0.784314%,43.921569%,62.352941%);fill-opacity:1;stroke-width:0.5;stroke-linecap:butt;stroke-linejoin:miter;stroke:rgb(100%,100%,100%);stroke-opacity:1;stroke-miterlimit:4;" d="M 22.484375 38.120313 L 22.484375 41.426563 L 25.790625 41.426563 " transform="matrix(2.5,0,0,2.5,0,0)"/>
<path style="fill-rule:nonzero;fill:rgb(0.784314%,43.921569%,62.352941%);fill-opacity:1;stroke-width:0.5;stroke-linecap:butt;stroke-linejoin:miter;stroke:rgb(100%,100%,100%);stroke-opacity:1;stroke-miterlimit:4;" d="M 27.1 38.120313 L 27.1 41.426563 L 30.404688 41.426563 " transform="matrix(2.5,0,0,2.5,0,0)"/>
<path style="fill-rule:nonzero;fill:rgb(0.784314%,43.921569%,62.352941%);fill-opacity:1;stroke-width:0.5;stroke-linecap:butt;stroke-linejoin:miter;stroke:rgb(100%,100%,100%);stroke-opacity:1;stroke-miterlimit:4;" d="M 13.20625 38.207813 L 13.20625 41.514063 L 16.514063 41.514063 " transform="matrix(2.5,0,0,2.5,0,0)"/>
<path style="fill-rule:nonzero;fill:rgb(0.784314%,43.921569%,62.352941%);fill-opacity:1;stroke-width:0.5;stroke-linecap:butt;stroke-linejoin:miter;stroke:rgb(100%,100%,100%);stroke-opacity:1;stroke-miterlimit:4;" d="M 17.821875 38.207813 L 17.821875 41.514063 L 21.128125 41.514063 " transform="matrix(2.5,0,0,2.5,0,0)"/>
<path style="fill-rule:nonzero;fill:rgb(0.784314%,43.921569%,62.352941%);fill-opacity:1;stroke-width:0.5;stroke-linecap:butt;stroke-linejoin:miter;stroke:rgb(100%,100%,100%);stroke-opacity:1;stroke-miterlimit:4;" d="M 22.445312 45.004688 L 22.445312 48.309375 L 25.75625 48.309375 " transform="matrix(2.5,0,0,2.5,0,0)"/>
<path style="fill-rule:nonzero;fill:rgb(0.784314%,43.921569%,62.352941%);fill-opacity:1;stroke-width:0.5;stroke-linecap:butt;stroke-linejoin:miter;stroke:rgb(100%,100%,100%);stroke-opacity:1;stroke-miterlimit:4;" d="M 27.059375 45.004688 L 27.059375 48.309375 L 30.370313 48.309375 " transform="matrix(2.5,0,0,2.5,0,0)"/>
<path style="fill-rule:nonzero;fill:rgb(0.784314%,43.921569%,62.352941%);fill-opacity:1;stroke-width:0.5;stroke-linecap:butt;stroke-linejoin:miter;stroke:rgb(100%,100%,100%);stroke-opacity:1;stroke-miterlimit:4;" d="M 13.16875 45.0875 L 13.16875 48.4 L 16.479688 48.4 " transform="matrix(2.5,0,0,2.5,0,0)"/>
<path style="fill-rule:nonzero;fill:rgb(0.784314%,43.921569%,62.352941%);fill-opacity:1;stroke-width:0.5;stroke-linecap:butt;stroke-linejoin:miter;stroke:rgb(100%,100%,100%);stroke-opacity:1;stroke-miterlimit:4;" d="M 17.784375 45.0875 L 17.784375 48.4 L 21.09375 48.4 " transform="matrix(2.5,0,0,2.5,0,0)"/>
<path style="fill-rule:nonzero;fill:rgb(0.784314%,43.921569%,62.352941%);fill-opacity:1;stroke-width:0.5;stroke-linecap:butt;stroke-linejoin:miter;stroke:rgb(100%,100%,100%);stroke-opacity:1;stroke-miterlimit:4;" d="M 22.445312 51.590625 L 22.445312 54.901563 L 25.75625 54.901563 " transform="matrix(2.5,0,0,2.5,0,0)"/>
<path style="fill-rule:nonzero;fill:rgb(0.784314%,43.921569%,62.352941%);fill-opacity:1;stroke-width:0.5;stroke-linecap:butt;stroke-linejoin:miter;stroke:rgb(100%,100%,100%);stroke-opacity:1;stroke-miterlimit:4;" d="M 27.059375 51.590625 L 27.059375 54.901563 L 30.370313 54.901563 " transform="matrix(2.5,0,0,2.5,0,0)"/>
<path style="fill-rule:nonzero;fill:rgb(0.784314%,43.921569%,62.352941%);fill-opacity:1;stroke-width:0.5;stroke-linecap:butt;stroke-linejoin:miter;stroke:rgb(100%,100%,100%);stroke-opacity:1;stroke-miterlimit:4;" d="M 13.16875 51.679688 L 13.16875 54.990625 L 16.479688 54.990625 " transform="matrix(2.5,0,0,2.5,0,0)"/>
<path style="fill-rule:nonzero;fill:rgb(0.784314%,43.921569%,62.352941%);fill-opacity:1;stroke-width:0.5;stroke-linecap:butt;stroke-linejoin:miter;stroke:rgb(100%,100%,100%);stroke-opacity:1;stroke-miterlimit:4;" d="M 17.784375 51.679688 L 17.784375 54.990625 L 21.09375 54.990625 " transform="matrix(2.5,0,0,2.5,0,0)"/>
<path style="fill-rule:nonzero;fill:rgb(0.784314%,43.921569%,62.352941%);fill-opacity:1;stroke-width:0.5;stroke-linecap:butt;stroke-linejoin:miter;stroke:rgb(100%,100%,100%);stroke-opacity:1;stroke-miterlimit:4;" d="M 22.445312 57.690625 L 22.445312 60.995313 L 25.75625 60.995313 " transform="matrix(2.5,0,0,2.5,0,0)"/>
<path style="fill-rule:nonzero;fill:rgb(0.784314%,43.921569%,62.352941%);fill-opacity:1;stroke-width:0.5;stroke-linecap:butt;stroke-linejoin:miter;stroke:rgb(100%,100%,100%);stroke-opacity:1;stroke-miterlimit:4;" d="M 27.059375 57.690625 L 27.059375 60.995313 L 30.370313 60.995313 " transform="matrix(2.5,0,0,2.5,0,0)"/>
<path style="fill-rule:nonzero;fill:rgb(0.784314%,43.921569%,62.352941%);fill-opacity:1;stroke-width:0.5;stroke-linecap:butt;stroke-linejoin:miter;stroke:rgb(100%,100%,100%);stroke-opacity:1;stroke-miterlimit:4;" d="M 13.16875 57.773438 L 13.16875 61.084375 L 16.479688 61.084375 " transform="matrix(2.5,0,0,2.5,0,0)"/>
<path style="fill-rule:nonzero;fill:rgb(0.784314%,43.921569%,62.352941%);fill-opacity:1;stroke-width:0.5;stroke-linecap:butt;stroke-linejoin:miter;stroke:rgb(100%,100%,100%);stroke-opacity:1;stroke-miterlimit:4;" d="M 17.784375 57.773438 L 17.784375 61.084375 L 21.09375 61.084375 " transform="matrix(2.5,0,0,2.5,0,0)"/>
<path style="fill-rule:nonzero;fill:rgb(0.784314%,43.921569%,62.352941%);fill-opacity:1;stroke-width:0.5;stroke-linecap:butt;stroke-linejoin:miter;stroke:rgb(100%,100%,100%);stroke-opacity:1;stroke-miterlimit:4;" d="M 35.220312 22.973438 L 35.220312 26.284375 L 38.529688 26.284375 " transform="matrix(2.5,0,0,2.5,0,0)"/>
<path style="fill-rule:nonzero;fill:rgb(0.784314%,43.921569%,62.352941%);fill-opacity:1;stroke-width:0.5;stroke-linecap:butt;stroke-linejoin:miter;stroke:rgb(100%,100%,100%);stroke-opacity:1;stroke-miterlimit:4;" d="M 39.834375 22.973438 L 39.834375 26.284375 L 43.145313 26.284375 " transform="matrix(2.5,0,0,2.5,0,0)"/>
<path style="fill-rule:nonzero;fill:rgb(0.784314%,43.921569%,62.352941%);fill-opacity:1;stroke-width:0.5;stroke-linecap:butt;stroke-linejoin:miter;stroke:rgb(100%,100%,100%);stroke-opacity:1;stroke-miterlimit:4;" d="M 35.160938 29.19375 L 35.160938 32.5 L 38.470313 32.5 " transform="matrix(2.5,0,0,2.5,0,0)"/>
<path style="fill-rule:nonzero;fill:rgb(0.784314%,43.921569%,62.352941%);fill-opacity:1;stroke-width:0.5;stroke-linecap:butt;stroke-linejoin:miter;stroke:rgb(100%,100%,100%);stroke-opacity:1;stroke-miterlimit:4;" d="M 39.775 29.19375 L 39.775 32.5 L 43.085938 32.5 " transform="matrix(2.5,0,0,2.5,0,0)"/>
<path style="fill-rule:nonzero;fill:rgb(0.784314%,43.921569%,62.352941%);fill-opacity:1;stroke-width:0.5;stroke-linecap:butt;stroke-linejoin:miter;stroke:rgb(100%,100%,100%);stroke-opacity:1;stroke-miterlimit:4;" d="M 35.160938 34.790625 L 35.160938 38.095312 L 38.470313 38.095312 " transform="matrix(2.5,0,0,2.5,0,0)"/>
<path style="fill-rule:nonzero;fill:rgb(0.784314%,43.921569%,62.352941%);fill-opacity:1;stroke-width:0.5;stroke-linecap:butt;stroke-linejoin:miter;stroke:rgb(100%,100%,100%);stroke-opacity:1;stroke-miterlimit:4;" d="M 39.775 34.790625 L 39.775 38.095312 L 43.085938 38.095312 " transform="matrix(2.5,0,0,2.5,0,0)"/>
<path style="fill-rule:nonzero;fill:rgb(0.784314%,43.921569%,62.352941%);fill-opacity:1;stroke-width:0.5;stroke-linecap:butt;stroke-linejoin:miter;stroke:rgb(100%,100%,100%);stroke-opacity:1;stroke-miterlimit:4;" d="M 2.139063 50.921875 L 2.139063 54.234375 L 5.44375 54.234375 " transform="matrix(2.5,0,0,2.5,0,0)"/>
<path style="fill-rule:nonzero;fill:rgb(0.784314%,43.921569%,62.352941%);fill-opacity:1;stroke-width:0.5;stroke-linecap:butt;stroke-linejoin:miter;stroke:rgb(100%,100%,100%);stroke-opacity:1;stroke-miterlimit:4;" d="M 6.751563 50.921875 L 6.751563 54.234375 L 10.059375 54.234375 " transform="matrix(2.5,0,0,2.5,0,0)"/>
<path style="fill-rule:nonzero;fill:rgb(0.784314%,43.921569%,62.352941%);fill-opacity:1;stroke-width:0.5;stroke-linecap:butt;stroke-linejoin:miter;stroke:rgb(100%,100%,100%);stroke-opacity:1;stroke-miterlimit:4;" d="M 2.3875 57.14375 L 2.3875 60.448438 L 5.69375 60.448438 " transform="matrix(2.5,0,0,2.5,0,0)"/>
<path style="fill-rule:nonzero;fill:rgb(0.784314%,43.921569%,62.352941%);fill-opacity:1;stroke-width:0.5;stroke-linecap:butt;stroke-linejoin:miter;stroke:rgb(100%,100%,100%);stroke-opacity:1;stroke-miterlimit:4;" d="M 7.001563 57.14375 L 7.001563 60.448438 L 10.307813 60.448438 " transform="matrix(2.5,0,0,2.5,0,0)"/>
<path style="fill-rule:nonzero;fill:rgb(0.784314%,43.921569%,62.352941%);fill-opacity:1;stroke-width:0.5;stroke-linecap:butt;stroke-linejoin:miter;stroke:rgb(100%,100%,100%);stroke-opacity:1;stroke-miterlimit:4;" d="M 2.3875 62.739063 L 2.3875 66.048438 L 5.69375 66.048438 " transform="matrix(2.5,0,0,2.5,0,0)"/>
<path style="fill-rule:nonzero;fill:rgb(0.784314%,43.921569%,62.352941%);fill-opacity:1;stroke-width:0.5;stroke-linecap:butt;stroke-linejoin:miter;stroke:rgb(100%,100%,100%);stroke-opacity:1;stroke-miterlimit:4;" d="M 7.001563 62.739063 L 7.001563 66.048438 L 10.307813 66.048438 " transform="matrix(2.5,0,0,2.5,0,0)"/>
<path style="fill-rule:nonzero;fill:rgb(0.784314%,43.921569%,62.352941%);fill-opacity:1;stroke-width:0.5;stroke-linecap:butt;stroke-linejoin:miter;stroke:rgb(100%,100%,100%);stroke-opacity:1;stroke-miterlimit:4;" d="M 22.578125 12.559375 L 22.578125 15.864063 L 25.884375 15.864063 " transform="matrix(2.5,0,0,2.5,0,0)"/>
<path style="fill-rule:nonzero;fill:rgb(0.784314%,43.921569%,62.352941%);fill-opacity:1;stroke-width:0.5;stroke-linecap:butt;stroke-linejoin:miter;stroke:rgb(100%,100%,100%);stroke-opacity:1;stroke-miterlimit:4;" d="M 27.192188 12.559375 L 27.192188 15.864063 L 30.496875 15.864063 " transform="matrix(2.5,0,0,2.5,0,0)"/>
<path style="fill-rule:nonzero;fill:rgb(0.784314%,43.921569%,62.352941%);fill-opacity:1;stroke-width:0.5;stroke-linecap:butt;stroke-linejoin:miter;stroke:rgb(100%,100%,100%);stroke-opacity:1;stroke-miterlimit:4;" d="M 13.301563 12.640625 L 13.301563 15.953125 L 16.60625 15.953125 " transform="matrix(2.5,0,0,2.5,0,0)"/>
<path style="fill-rule:nonzero;fill:rgb(0.784314%,43.921569%,62.352941%);fill-opacity:1;stroke-width:0.5;stroke-linecap:butt;stroke-linejoin:miter;stroke:rgb(100%,100%,100%);stroke-opacity:1;stroke-miterlimit:4;" d="M 17.915625 12.640625 L 17.915625 15.953125 L 21.220313 15.953125 " transform="matrix(2.5,0,0,2.5,0,0)"/>
<path style="fill-rule:nonzero;fill:rgb(0.784314%,43.921569%,62.352941%);fill-opacity:1;stroke-width:0.5;stroke-linecap:butt;stroke-linejoin:miter;stroke:rgb(100%,100%,100%);stroke-opacity:1;stroke-miterlimit:4;" d="M 22.539062 19.439063 L 22.539062 22.748438 L 25.85 22.748438 " transform="matrix(2.5,0,0,2.5,0,0)"/>
<path style="fill-rule:nonzero;fill:rgb(0.784314%,43.921569%,62.352941%);fill-opacity:1;stroke-width:0.5;stroke-linecap:butt;stroke-linejoin:miter;stroke:rgb(100%,100%,100%);stroke-opacity:1;stroke-miterlimit:4;" d="M 27.154688 19.439063 L 27.154688 22.748438 L 30.464063 22.748438 " transform="matrix(2.5,0,0,2.5,0,0)"/>
<path style="fill-rule:nonzero;fill:rgb(0.784314%,43.921569%,62.352941%);fill-opacity:1;stroke-width:0.5;stroke-linecap:butt;stroke-linejoin:miter;stroke:rgb(100%,100%,100%);stroke-opacity:1;stroke-miterlimit:4;" d="M 13.260938 19.526563 L 13.260938 22.8375 L 16.571875 22.8375 " transform="matrix(2.5,0,0,2.5,0,0)"/>
<path style="fill-rule:nonzero;fill:rgb(0.784314%,43.921569%,62.352941%);fill-opacity:1;stroke-width:0.5;stroke-linecap:butt;stroke-linejoin:miter;stroke:rgb(100%,100%,100%);stroke-opacity:1;stroke-miterlimit:4;" d="M 17.876563 19.526563 L 17.876563 22.8375 L 21.185938 22.8375 " transform="matrix(2.5,0,0,2.5,0,0)"/>
<path style="fill-rule:nonzero;fill:rgb(0.784314%,43.921569%,62.352941%);fill-opacity:1;stroke-width:0.5;stroke-linecap:butt;stroke-linejoin:miter;stroke:rgb(100%,100%,100%);stroke-opacity:1;stroke-miterlimit:4;" d="M 22.539062 26.029688 L 22.539062 29.340625 L 25.85 29.340625 " transform="matrix(2.5,0,0,2.5,0,0)"/>
<path style="fill-rule:nonzero;fill:rgb(0.784314%,43.921569%,62.352941%);fill-opacity:1;stroke-width:0.5;stroke-linecap:butt;stroke-linejoin:miter;stroke:rgb(100%,100%,100%);stroke-opacity:1;stroke-miterlimit:4;" d="M 27.154688 26.029688 L 27.154688 29.340625 L 30.464063 29.340625 " transform="matrix(2.5,0,0,2.5,0,0)"/>
<path style="fill-rule:nonzero;fill:rgb(0.784314%,43.921569%,62.352941%);fill-opacity:1;stroke-width:0.5;stroke-linecap:butt;stroke-linejoin:miter;stroke:rgb(100%,100%,100%);stroke-opacity:1;stroke-miterlimit:4;" d="M 13.260938 26.11875 L 13.260938 29.429688 L 16.571875 29.429688 " transform="matrix(2.5,0,0,2.5,0,0)"/>
<path style="fill-rule:nonzero;fill:rgb(0.784314%,43.921569%,62.352941%);fill-opacity:1;stroke-width:0.5;stroke-linecap:butt;stroke-linejoin:miter;stroke:rgb(100%,100%,100%);stroke-opacity:1;stroke-miterlimit:4;" d="M 17.876563 26.11875 L 17.876563 29.429688 L 21.185938 29.429688 " transform="matrix(2.5,0,0,2.5,0,0)"/>
<path style="fill-rule:nonzero;fill:rgb(0.784314%,43.921569%,62.352941%);fill-opacity:1;stroke-width:0.5;stroke-linecap:butt;stroke-linejoin:miter;stroke:rgb(100%,100%,100%);stroke-opacity:1;stroke-miterlimit:4;" d="M 22.539062 32.123438 L 22.539062 35.434375 L 25.85 35.434375 " transform="matrix(2.5,0,0,2.5,0,0)"/>
<path style="fill-rule:nonzero;fill:rgb(0.784314%,43.921569%,62.352941%);fill-opacity:1;stroke-width:0.5;stroke-linecap:butt;stroke-linejoin:miter;stroke:rgb(100%,100%,100%);stroke-opacity:1;stroke-miterlimit:4;" d="M 27.154688 32.123438 L 27.154688 35.434375 L 30.464063 35.434375 " transform="matrix(2.5,0,0,2.5,0,0)"/>
<path style="fill-rule:nonzero;fill:rgb(0.784314%,43.921569%,62.352941%);fill-opacity:1;stroke-width:0.5;stroke-linecap:butt;stroke-linejoin:miter;stroke:rgb(100%,100%,100%);stroke-opacity:1;stroke-miterlimit:4;" d="M 13.260938 32.2125 L 13.260938 35.521875 L 16.571875 35.521875 " transform="matrix(2.5,0,0,2.5,0,0)"/>
<path style=" stroke:none;fill-rule:nonzero;fill:rgb(0.784314%,43.921569%,62.352941%);fill-opacity:1;" d="M 44.691406 80.53125 L 44.691406 88.804688 L 52.964844 88.804688 "/>
<path style="fill:none;stroke-width:0.5;stroke-linecap:butt;stroke-linejoin:miter;stroke:rgb(100%,100%,100%);stroke-opacity:1;stroke-miterlimit:4;" d="M 17.876563 32.2125 L 17.876563 35.521875 L 21.185938 35.521875 M 35.11875 40.659375 L 35.11875 43.965625 M 35.11875 43.965625 L 38.421875 43.965625 " transform="matrix(2.5,0,0,2.5,0,0)"/>
<path style=" stroke:none;fill-rule:nonzero;fill:rgb(0.784314%,43.921569%,62.352941%);fill-opacity:1;" d="M 99.328125 101.648438 L 99.328125 109.914062 L 107.59375 109.914062 "/>
<path style="fill:none;stroke-width:0.5;stroke-linecap:butt;stroke-linejoin:miter;stroke:rgb(100%,100%,100%);stroke-opacity:1;stroke-miterlimit:4;" d="M 39.73125 40.659375 L 39.73125 43.965625 L 43.0375 43.965625 M 35.11875 46.3375 L 35.11875 49.648438 M 35.11875 49.648438 L 38.421875 49.648438 " transform="matrix(2.5,0,0,2.5,0,0)"/>
<path style="fill-rule:nonzero;fill:rgb(0.784314%,43.921569%,62.352941%);fill-opacity:1;stroke-width:0.5;stroke-linecap:butt;stroke-linejoin:miter;stroke:rgb(100%,100%,100%);stroke-opacity:1;stroke-miterlimit:4;" d="M 39.73125 46.3375 L 39.73125 49.648438 L 43.0375 49.648438 " transform="matrix(2.5,0,0,2.5,0,0)"/>
</g>
</svg>
