<?xml version="1.0" encoding="UTF-8"?>
<svg xmlns="http://www.w3.org/2000/svg" xmlns:xlink="http://www.w3.org/1999/xlink" width="162pt" height="200pt" viewBox="0 0 162 200" version="1.1">
<g id="surface1">
<path style=" stroke:none;fill-rule:nonzero;fill:rgb(16.862745%,40%,61.960784%);fill-opacity:1;" d="M 69.398438 85.171875 L 92.839844 85.171875 L 92.839844 115.675781 C 92.839844 115.675781 68.976562 123.09375 69.398438 123.09375 C 69.808594 123.09375 69.398438 85.167969 69.398438 85.167969 "/>
<path style=" stroke:none;fill-rule:nonzero;fill:rgb(100%,100%,100%);fill-opacity:1;" d="M 79.429688 61.417969 C 122.921875 61.417969 158.175781 54.734375 158.175781 46.488281 C 158.175781 38.242188 122.921875 31.566406 79.429688 31.566406 C 35.9375 31.566406 0.671875 38.242188 0.671875 46.488281 C 0.671875 54.734375 35.9375 61.417969 79.429688 61.417969 "/>
<path style="fill:none;stroke-width:0.1875;stroke-linecap:butt;stroke-linejoin:miter;stroke:rgb(13.72549%,12.156863%,12.54902%);stroke-opacity:1;stroke-miterlimit:4;" d="M 29.418403 22.724648 C 45.52662 22.724648 58.583623 20.251719 58.583623 17.200664 C 58.583623 14.149609 45.52662 11.67957 29.418403 11.67957 C 13.310185 11.67957 0.248843 14.149609 0.248843 17.200664 C 0.248843 20.251719 13.310185 22.724648 29.418403 22.724648 Z M 29.418403 22.724648 " transform="matrix(2.7,0,0,2.702703,0,0)"/>
<path style=" stroke:none;fill-rule:nonzero;fill:rgb(16.862745%,40%,61.960784%);fill-opacity:1;" d="M 79.851562 87.609375 C 123.347656 87.609375 158.175781 54.734375 158.175781 46.488281 C 158.175781 38.242188 122.921875 31.566406 79.429688 31.566406 C 35.9375 31.566406 0.671875 38.242188 0.671875 46.488281 C 0.671875 54.738281 36.359375 87.609375 79.851562 87.609375 "/>
<path style=" stroke:none;fill-rule:nonzero;fill:rgb(100%,100%,100%);fill-opacity:1;" d="M 79.429688 61.417969 C 122.921875 61.417969 158.175781 54.734375 158.175781 46.488281 C 158.175781 38.242188 122.921875 31.566406 79.429688 31.566406 C 35.9375 31.566406 0.671875 38.242188 0.671875 46.488281 C 0.671875 54.734375 35.9375 61.417969 79.429688 61.417969 "/>
<path style="fill:none;stroke-width:0.5;stroke-linecap:butt;stroke-linejoin:miter;stroke:rgb(16.862745%,40%,61.960784%);stroke-opacity:1;stroke-miterlimit:4;" d="M 29.418403 22.724648 C 45.52662 22.724648 58.583623 20.251719 58.583623 17.200664 C 58.583623 14.149609 45.52662 11.67957 29.418403 11.67957 C 13.310185 11.67957 0.248843 14.149609 0.248843 17.200664 C 0.248843 20.251719 13.310185 22.724648 29.418403 22.724648 Z M 29.418403 22.724648 " transform="matrix(2.7,0,0,2.702703,0,0)"/>
<path style="fill:none;stroke-width:0.46875;stroke-linecap:butt;stroke-linejoin:miter;stroke:rgb(16.862745%,40%,61.960784%);stroke-opacity:1;stroke-miterlimit:4;" d="M 21.835938 13.065625 C 17.23235 13.34457 13.149595 13.880781 9.960938 14.59332 M 22.14265 14.221875 C 17.680845 14.545625 13.770255 15.142539 10.814525 15.921563 M 22.460938 15.457617 C 18.090278 15.837734 14.32581 16.508359 11.605903 17.36832 M 23.090278 16.904375 C 18.823785 17.31918 15.189525 18.036055 12.65625 18.959609 M 23.398438 18.251406 C 19.346065 18.715352 15.962095 19.49582 13.710938 20.471406 M 23.945312 19.842695 C 20.7364 20.28207 18.0136 20.941133 16.050347 21.751953 M 24.130498 21.322695 C 22.935475 21.533711 21.752025 21.80832 20.585938 22.146523 " transform="matrix(2.7,0,0,2.702703,0,0)"/>
<path style="fill:none;stroke-width:0.5;stroke-linecap:butt;stroke-linejoin:miter;stroke:rgb(16.862745%,40%,61.960784%);stroke-opacity:1;stroke-miterlimit:4;" d="M 0.170718 17.728203 L 29.574653 2.98168 L 58.583623 17.202109 " transform="matrix(2.7,0,0,2.702703,0,0)"/>
<path style=" stroke:none;fill-rule:nonzero;fill:rgb(16.862745%,40%,61.960784%);fill-opacity:1;" d="M 80.277344 18.140625 C 83.242188 18.140625 85.640625 16.941406 85.640625 15.449219 C 85.640625 13.972656 83.242188 12.757812 80.273438 12.757812 C 77.304688 12.757812 74.910156 13.972656 74.910156 15.449219 C 74.910156 16.941406 77.304688 18.140625 80.277344 18.140625 "/>
<path style=" stroke:none;fill-rule:nonzero;fill:rgb(16.862745%,40%,61.960784%);fill-opacity:1;" d="M 80.277344 2.570312 L 78.589844 57.890625 L 82.386719 57.890625 L 80.269531 2.566406 M 60.0625 106.257812 L 98.035156 106.257812 L 98.035156 91.164062 L 60.0625 91.164062 Z M 60.0625 106.257812 "/>
<path style=" stroke:none;fill-rule:nonzero;fill:rgb(100%,100%,100%);fill-opacity:1;" d="M 65.890625 101.03125 L 77.570312 101.03125 L 77.570312 97.640625 L 65.890625 97.640625 Z M 81.277344 101.03125 L 92.957031 101.03125 L 92.957031 97.640625 L 81.277344 97.640625 Z M 81.277344 101.03125 "/>
<path style=" stroke:none;fill-rule:nonzero;fill:rgb(16.862745%,40%,61.960784%);fill-opacity:1;" d="M 141.484375 135.714844 C 141.484375 149.054688 113.695312 159.875 79.417969 159.875 C 45.128906 159.875 17.335938 149.054688 17.335938 135.714844 L 17.335938 171.109375 C 17.335938 184.449219 45.128906 195.269531 79.417969 195.269531 C 113.695312 195.269531 141.484375 184.449219 141.484375 171.109375 L 141.484375 135.714844 "/>
<path style="fill:none;stroke-width:0.5;stroke-linecap:butt;stroke-linejoin:miter;stroke:rgb(100%,100%,100%);stroke-opacity:1;stroke-miterlimit:4;" d="M 52.40162 50.213047 C 52.40162 55.150234 42.109375 59.152305 29.414062 59.152305 C 16.71441 59.152305 6.420718 55.150234 6.420718 50.213047 L 6.420718 63.310469 C 6.420718 68.246211 16.71441 72.249727 29.414062 72.249727 C 42.109375 72.249727 52.40162 68.246211 52.40162 63.310469 Z M 52.40162 50.213047 " transform="matrix(2.7,0,0,2.702703,0,0)"/>
<path style=" stroke:none;fill-rule:nonzero;fill:rgb(16.862745%,40%,61.960784%);fill-opacity:1;" d="M 79.417969 159.875 C 113.695312 159.875 141.484375 149.054688 141.484375 135.714844 C 141.484375 122.371094 113.695312 111.550781 79.417969 111.550781 C 45.128906 111.550781 17.335938 122.371094 17.335938 135.714844 C 17.335938 149.054688 45.128906 159.875 79.417969 159.875 "/>
<path style="fill:none;stroke-width:0.5;stroke-linecap:butt;stroke-linejoin:miter;stroke:rgb(100%,100%,100%);stroke-opacity:1;stroke-miterlimit:4;" d="M 29.414062 59.15375 C 42.109375 59.15375 52.40162 55.150234 52.40162 50.214492 C 52.40162 45.277305 42.109375 41.273789 29.414062 41.273789 C 16.71441 41.273789 6.420718 45.277305 6.420718 50.214492 C 6.420718 55.150234 16.71441 59.15375 29.414062 59.15375 Z M 29.414062 59.15375 " transform="matrix(2.7,0,0,2.702703,0,0)"/>
<path style=" stroke:none;fill-rule:nonzero;fill:rgb(100%,100%,100%);fill-opacity:1;" d="M 65.246094 126.261719 L 70.363281 133.960938 L 50.980469 138.445312 L 55.210938 134.921875 L 25.269531 129.785156 L 32.773438 124.152344 L 61.683594 129.046875 L 65.246094 126.261719 M 92.511719 144.925781 L 89.015625 136.996094 L 106.5 133.496094 L 103.464844 136.214844 L 132.597656 141.1875 L 125.613281 146.796875 L 96.648438 141.347656 L 92.507812 144.925781 M 82.953125 122.066406 L 102.527344 116.699219 L 102.765625 125.101562 L 97.863281 124.164062 L 88.316406 132.097656 L 79.195312 130.761719 L 89.058594 123.003906 L 82.953125 122.066406 M 74.570312 152.171875 L 55.910156 155.664062 L 55.210938 147.039062 L 60.578125 148.195312 L 70.835938 139.421875 L 79.921875 140.96875 L 68.964844 150.535156 L 74.570312 152.171875 "/>
</g>
</svg>
