<?xml version="1.0" encoding="UTF-8"?>
<svg xmlns="http://www.w3.org/2000/svg" xmlns:xlink="http://www.w3.org/1999/xlink" width="251pt" height="200pt" viewBox="0 0 251 200" version="1.1">
<g id="surface1">
<path style=" stroke:none;fill-rule:nonzero;fill:rgb(0.784314%,43.921569%,62.352941%);fill-opacity:1;" d="M 3.230469 188.84375 L 172.042969 188.84375 L 172.042969 149.121094 L 3.230469 149.121094 Z M 3.230469 188.84375 "/>
<path style="fill:none;stroke-width:0.5;stroke-linecap:butt;stroke-linejoin:miter;stroke:rgb(100%,100%,100%);stroke-opacity:1;stroke-miterlimit:4;" d="M 0.501945 29.271992 L 26.731776 29.271992 L 26.731776 23.11377 L 0.501945 23.11377 Z M 0.501945 29.271992 " transform="matrix(6.435897,0,0,6.451613,0,0)"/>
<path style=" stroke:none;fill-rule:nonzero;fill:rgb(0.784314%,43.921569%,62.352941%);fill-opacity:1;" d="M 172.058594 149.121094 L 3.050781 149.121094 L 83.371094 32.285156 L 244.886719 32.285156 L 172.050781 149.121094 "/>
<path style="fill:none;stroke-width:0.5;stroke-linecap:butt;stroke-linejoin:miter;stroke:rgb(100%,100%,100%);stroke-opacity:1;stroke-miterlimit:4;" d="M 26.734204 23.11377 L 0.474026 23.11377 L 12.954074 5.004199 L 38.050128 5.004199 L 26.73299 23.11377 Z M 26.734204 23.11377 " transform="matrix(6.435897,0,0,6.451613,0,0)"/>
<path style=" stroke:none;fill-rule:nonzero;fill:rgb(0.784314%,43.921569%,62.352941%);fill-opacity:1;" d="M 244.890625 34.019531 L 244.890625 106.96875 L 172.058594 189.289062 L 172.058594 150.890625 L 244.886719 34.011719 "/>
<path style="fill:none;stroke-width:0.5;stroke-linecap:butt;stroke-linejoin:miter;stroke:rgb(100%,100%,100%);stroke-opacity:1;stroke-miterlimit:4;" d="M 38.050735 5.273027 L 38.050735 16.580762 L 26.734204 29.339199 L 26.734204 23.389258 L 38.050128 5.271816 Z M 38.050735 5.273027 " transform="matrix(6.435897,0,0,6.451613,0,0)"/>
<path style=" stroke:none;fill-rule:nonzero;fill:rgb(0.784314%,43.921569%,62.352941%);fill-opacity:1;" d="M 115.648438 53.546875 C 105.238281 65.484375 92.453125 79.414062 84.253906 92.960938 L 84.949219 105.214844 L 59.363281 144.804688 L 56.410156 115.542969 C 61.277344 96.039062 121.675781 19.375 135.570312 10.328125 L 140.285156 36.097656 L 116.277344 65.230469 L 115.648438 53.546875 "/>
<path style="fill:none;stroke-width:0.5;stroke-linecap:butt;stroke-linejoin:miter;stroke:rgb(100%,100%,100%);stroke-opacity:1;stroke-miterlimit:4;" d="M 17.969279 8.299766 C 16.351765 10.150078 14.365227 12.307969 13.091244 14.407734 L 13.199281 16.308301 L 9.223777 22.445937 L 8.764925 17.90916 C 9.521181 14.887266 18.905799 3.001914 21.06471 1.600859 L 21.797295 5.593926 L 18.066998 10.111934 L 17.969279 8.29916 Z M 17.969279 8.299766 " transform="matrix(6.435897,0,0,6.451613,0,0)"/>
<path style=" stroke:none;fill-rule:nonzero;fill:rgb(0.784314%,43.921569%,62.352941%);fill-opacity:1;" d="M 26.175781 115.542969 L 23.226562 144.804688 L 59.363281 144.804688 L 56.410156 115.542969 L 26.175781 115.542969 "/>
<path style="fill:none;stroke-width:0.5;stroke-linecap:butt;stroke-linejoin:miter;stroke:rgb(100%,100%,100%);stroke-opacity:1;stroke-miterlimit:4;" d="M 4.067153 17.909766 L 3.608908 22.445937 L 9.223777 22.445937 L 8.764925 17.90916 L 4.067153 17.90916 Z M 4.067153 17.909766 " transform="matrix(6.435897,0,0,6.451613,0,0)"/>
<path style=" stroke:none;fill-rule:nonzero;fill:rgb(0.784314%,43.921569%,62.352941%);fill-opacity:1;" d="M 135.570312 10.328125 C 121.675781 19.375 61.277344 96.039062 56.410156 115.546875 L 26.175781 115.546875 C 31.046875 96.039062 91.453125 19.375 105.335938 10.324219 L 135.570312 10.324219 "/>
<path style="fill:none;stroke-width:0.5;stroke-linecap:butt;stroke-linejoin:miter;stroke:rgb(100%,100%,100%);stroke-opacity:1;stroke-miterlimit:4;" d="M 21.06471 1.600254 C 18.905799 3.001914 9.521181 14.887266 8.764925 17.909766 L 4.067153 17.909766 C 4.824016 14.887266 14.209241 3.001914 16.366938 1.600254 Z M 21.06471 1.600254 " transform="matrix(6.435897,0,0,6.451613,0,0)"/>
<path style=" stroke:none;fill-rule:nonzero;fill:rgb(0.784314%,43.921569%,62.352941%);fill-opacity:1;" d="M 90.289062 137.398438 L 79.414062 137.398438 L 84.625 131.355469 L 95.503906 131.355469 L 90.289062 137.398438 "/>
<path style="fill:none;stroke-width:0.5;stroke-linecap:butt;stroke-linejoin:miter;stroke:rgb(100%,100%,100%);stroke-opacity:1;stroke-miterlimit:4;" d="M 14.028978 21.297969 L 12.339237 21.297969 L 13.148904 20.360703 L 14.839252 20.360703 Z M 14.028978 21.297969 " transform="matrix(6.435897,0,0,6.451613,0,0)"/>
<path style=" stroke:none;fill-rule:nonzero;fill:rgb(0.784314%,43.921569%,62.352941%);fill-opacity:1;" d="M 114.421875 137.398438 L 103.546875 137.398438 L 108.761719 131.355469 L 119.636719 131.355469 L 114.421875 137.398438 "/>
<path style="fill:none;stroke-width:0.5;stroke-linecap:butt;stroke-linejoin:miter;stroke:rgb(100%,100%,100%);stroke-opacity:1;stroke-miterlimit:4;" d="M 17.778698 21.297969 L 16.088957 21.297969 L 16.899231 20.360703 L 18.588972 20.360703 Z M 17.778698 21.297969 " transform="matrix(6.435897,0,0,6.451613,0,0)"/>
<path style=" stroke:none;fill-rule:nonzero;fill:rgb(0.784314%,43.921569%,62.352941%);fill-opacity:1;" d="M 138.558594 137.398438 L 127.683594 137.398438 L 132.894531 131.355469 L 143.773438 131.355469 L 138.558594 137.398438 "/>
<path style="fill:none;stroke-width:0.5;stroke-linecap:butt;stroke-linejoin:miter;stroke:rgb(100%,100%,100%);stroke-opacity:1;stroke-miterlimit:4;" d="M 21.529025 21.297969 L 19.839283 21.297969 L 20.648951 20.360703 L 22.339299 20.360703 Z M 21.529025 21.297969 " transform="matrix(6.435897,0,0,6.451613,0,0)"/>
<path style=" stroke:none;fill-rule:nonzero;fill:rgb(0.784314%,43.921569%,62.352941%);fill-opacity:1;" d="M 162.691406 137.398438 L 151.816406 137.398438 L 157.03125 131.355469 L 167.90625 131.355469 L 162.691406 137.398438 "/>
<path style="fill:none;stroke-width:0.5;stroke-linecap:butt;stroke-linejoin:miter;stroke:rgb(100%,100%,100%);stroke-opacity:1;stroke-miterlimit:4;" d="M 25.278744 21.297969 L 23.589003 21.297969 L 24.399278 20.360703 L 26.089019 20.360703 Z M 25.278744 21.297969 " transform="matrix(6.435897,0,0,6.451613,0,0)"/>
</g>
</svg>
