<?xml version="1.0" encoding="UTF-8"?>
<svg xmlns="http://www.w3.org/2000/svg" xmlns:xlink="http://www.w3.org/1999/xlink" width="177pt" height="200pt" viewBox="0 0 177 200" version="1.1">
<g id="surface1">
<path style=" stroke:none;fill-rule:nonzero;fill:rgb(3.137255%,49.803922%,74.901961%);fill-opacity:1;" d="M 144.910156 197.910156 L 173.910156 170.210938 L 173.910156 2.59375 L 144.910156 30.296875 L 144.910156 197.910156 "/>
<path style="fill:none;stroke-width:0.5;stroke-linecap:butt;stroke-linejoin:miter;stroke:rgb(100%,100%,100%);stroke-opacity:1;stroke-miterlimit:4;" d="M 31.929356 43.540234 L 38.319187 37.446406 L 38.319187 0.570625 L 31.929356 6.665312 Z M 31.929356 43.540234 " transform="matrix(4.538462,0,0,4.545455,0,0)"/>
<path style=" stroke:none;fill-rule:nonzero;fill:rgb(3.137255%,49.803922%,74.901961%);fill-opacity:1;" d="M 173.914062 2.59375 L 144.910156 30.296875 L 3.414062 30.296875 L 40.289062 2.59375 L 173.914062 2.59375 "/>
<path style="fill:none;stroke-width:0.5;stroke-linecap:butt;stroke-linejoin:miter;stroke:rgb(100%,100%,100%);stroke-opacity:1;stroke-miterlimit:4;" d="M 38.320048 0.570625 L 31.929356 6.665312 L 0.752251 6.665312 L 8.877251 0.570625 Z M 38.320048 0.570625 " transform="matrix(4.538462,0,0,4.545455,0,0)"/>
<path style="fill-rule:nonzero;fill:rgb(3.137255%,49.803922%,74.901961%);fill-opacity:1;stroke-width:0.5;stroke-linecap:butt;stroke-linejoin:miter;stroke:rgb(100%,100%,100%);stroke-opacity:1;stroke-miterlimit:4;" d="M 0.829714 43.540234 L 31.930217 43.540234 L 31.930217 6.665312 L 0.829714 6.665312 Z M 0.829714 43.540234 " transform="matrix(4.538462,0,0,4.545455,0,0)"/>
<path style=" stroke:none;fill-rule:nonzero;fill:rgb(100%,100%,100%);fill-opacity:1;" d="M 77.203125 54.640625 L 82.375 54.640625 L 74.769531 43.167969 L 67.167969 54.640625 L 72.289062 54.640625 L 72.289062 176.644531 L 67.101562 176.644531 L 74.726562 188.117188 L 82.328125 176.644531 L 77.203125 176.644531 L 77.203125 54.644531 M 37.894531 54.640625 L 43.082031 54.640625 L 35.476562 43.167969 L 27.878906 54.640625 L 32.996094 54.640625 L 32.996094 176.644531 L 27.808594 176.644531 L 35.414062 188.117188 L 43.039062 176.644531 L 37.894531 176.644531 L 37.894531 54.644531 M 114.75 54.640625 L 119.933594 54.640625 L 112.335938 43.167969 L 104.730469 54.640625 L 109.847656 54.640625 L 109.847656 176.644531 L 104.65625 176.644531 L 112.257812 188.117188 L 119.882812 176.644531 L 114.746094 176.644531 L 114.746094 54.644531 "/>
</g>
</svg>
