<?xml version="1.0" encoding="UTF-8"?>
<svg xmlns="http://www.w3.org/2000/svg" xmlns:xlink="http://www.w3.org/1999/xlink" width="147pt" height="200pt" viewBox="0 0 147 200" version="1.1">
<g id="surface1">
<path style=" stroke:none;fill-rule:evenodd;fill:rgb(13.72549%,12.156863%,12.54902%);fill-opacity:1;" d="M 143.90625 37.5625 L 143.683594 33.832031 L 143.253906 30.113281 L 142.164062 26.402344 L 141.085938 23.117188 L 139.359375 19.839844 L 137.621094 16.78125 L 135.46875 13.722656 L 133.09375 11.097656 L 130.507812 8.695312 L 127.476562 6.503906 L 124.445312 4.757812 L 121.210938 3.011719 L 117.972656 1.910156 L 114.300781 0.820312 L 110.617188 0.386719 L 106.949219 0.164062 L 103.058594 0.386719 L 99.390625 0.820312 L 95.929688 1.910156 L 92.484375 3.011719 L 89.230469 4.757812 L 86.214844 6.503906 L 83.390625 8.695312 L 80.8125 11.097656 L 78.433594 13.722656 L 76.28125 16.78125 L 74.539062 19.839844 L 72.816406 23.117188 L 71.730469 26.402344 L 70.652344 30.113281 L 70.21875 33.832031 L 70.011719 37.5625 L 70.21875 41.050781 L 70.4375 44.335938 L 71.074219 47.390625 L 72.164062 50.445312 L 69.785156 49.363281 L 68.0625 48.480469 L 66.773438 48.046875 L 65.464844 47.390625 L 64.378906 47.390625 L 63.519531 47.824219 L 62.875 48.480469 L 46.019531 66.636719 L 45.589844 67.292969 L 45.363281 67.949219 L 45.160156 68.808594 L 45.363281 69.695312 L 45.816406 71.007812 L 47.105469 74.285156 L 48.398438 78 L 49.480469 81.058594 L 48.617188 82.164062 L 46.675781 84.113281 L 46.242188 84.566406 L 46.019531 85.222656 L 45.816406 85.648438 L 45.816406 87.191406 L 46.019531 89.363281 L 46.019531 93.738281 L 45.160156 94.621094 L 43.644531 96.359375 L 41.265625 98.988281 L 38.238281 102.046875 L 34.792969 105.757812 L 30.898438 109.921875 L 27.003906 114.292969 L 22.6875 118.886719 L 18.585938 123.257812 L 14.695312 127.625 L 10.804688 131.789062 L 7.566406 135.28125 L 4.757812 138.355469 L 2.585938 140.753906 L 1.089844 142.277344 L 0.640625 142.722656 L 0.210938 143.378906 L 0.00390625 144.246094 L 0.00390625 145.128906 L 0.210938 145.785156 L 4.964844 158.890625 L 5.390625 159.777344 L 6.046875 160.433594 L 6.910156 160.640625 L 7.785156 160.867188 L 25.066406 160.429688 L 25.71875 160.210938 L 26.351562 160 L 26.800781 159.777344 L 27.214844 159.34375 L 31.328125 154.753906 L 31.753906 154.300781 L 31.964844 153.875 L 32.191406 153.214844 L 32.191406 148.847656 L 31.964844 146.878906 L 33.910156 146.878906 L 35.855469 146.648438 L 38.234375 146.648438 L 38.886719 146.441406 L 39.316406 146.21875 L 39.746094 145.785156 L 44.070312 141.195312 L 44.722656 140.3125 L 44.933594 139 L 44.5 137.90625 L 43.863281 137.042969 L 43.210938 136.164062 L 42.78125 135.074219 L 42.78125 133.765625 L 43.644531 132.453125 L 44.5 131.796875 L 45.585938 131.347656 L 46.875 131.347656 L 48.171875 132.226562 L 49.253906 132.882812 L 50.339844 133.105469 L 51.425781 132.886719 L 52.503906 132.226562 L 56.609375 127.628906 L 57.039062 127.199219 L 57.261719 126.542969 L 57.46875 126.109375 L 57.46875 123.484375 L 57.261719 121.742188 L 57.261719 119.753906 L 59.191406 119.546875 L 63.515625 119.546875 L 63.945312 119.324219 L 64.597656 118.890625 L 65.03125 118.664062 L 65.457031 118.234375 L 66.324219 117.144531 L 67.40625 116.039062 L 68.269531 114.953125 L 70.867188 114.953125 L 71.933594 114.726562 L 73.019531 115.832031 L 74.328125 117.355469 L 75.625 118.664062 L 76.484375 119.753906 L 76.050781 131.347656 L 75.398438 154.300781 L 74.535156 176.828125 L 74.105469 186.894531 L 74.328125 187.761719 L 74.535156 188.417969 L 74.964844 189.074219 L 75.621094 189.730469 L 87.726562 196.296875 L 88.589844 196.726562 L 89.449219 196.726562 L 90.535156 196.296875 L 91.171875 195.863281 L 103.933594 183.824219 L 104.351562 183.394531 L 104.570312 182.957031 L 104.796875 182.300781 L 104.796875 181.855469 L 105 175.515625 L 105 174.425781 L 104.570312 173.769531 L 104.351562 173.339844 L 103.933594 172.886719 L 103.054688 172.023438 L 101.761719 170.710938 L 100.46875 169.175781 L 101.988281 167.867188 L 103.277344 166.546875 L 104.140625 165.6875 L 104.570312 165.234375 L 105.003906 164.808594 L 105.226562 164.371094 L 105.433594 163.714844 L 105.65625 163.058594 L 105.867188 156.929688 L 105.65625 155.617188 L 105.003906 154.753906 L 104.140625 154.09375 L 102.851562 153.871094 L 101.761719 153.664062 L 100.902344 152.988281 L 100.042969 152.125 L 99.816406 150.589844 L 100.042969 149.5 L 100.679688 148.417969 L 101.542969 147.757812 L 103.054688 147.53125 L 104.351562 147.324219 L 105.226562 146.652344 L 105.867188 145.785156 L 106.289062 144.476562 L 106.519531 138.359375 L 106.519531 137.683594 L 106.289062 137.253906 L 105.867188 136.597656 L 105.65625 136.164062 L 105.226562 135.730469 L 104.351562 134.625 L 103.054688 133.316406 L 101.761719 132.019531 L 103.277344 130.703125 L 104.570312 129.394531 L 105.433594 128.507812 L 105.867188 128.082031 L 106.289062 127.628906 L 106.742188 126.972656 L 106.949219 126.546875 L 106.949219 120.851562 L 108.464844 119.539062 L 110.410156 118.007812 L 111.925781 116.484375 L 112.5625 115.828125 L 112.785156 115.394531 L 113.21875 114.722656 L 113.4375 114.289062 L 113.4375 113.632812 L 113.648438 107.949219 L 115.800781 105.753906 L 117.542969 103.355469 L 119.261719 100.953125 L 120.777344 98.332031 L 121.863281 95.496094 L 122.726562 92.4375 L 123.363281 89.359375 L 123.585938 86.082031 L 123.585938 82.363281 L 122.945312 78.878906 L 122.070312 75.371094 L 121 72.09375 L 125.960938 69.6875 L 130.28125 66.40625 L 134.175781 62.691406 L 137.621094 58.320312 L 140.222656 53.726562 L 142.164062 48.703125 L 143.457031 43.242188 L 143.90625 37.558594 Z M 8.644531 151.464844 L 10.59375 149.5 L 12.953125 146.875 L 15.773438 143.816406 L 19.007812 140.308594 L 22.457031 136.59375 L 26.347656 132.449219 L 30.035156 128.285156 L 33.910156 124.136719 L 37.800781 120.203125 L 41.265625 116.261719 L 44.726562 112.550781 L 47.753906 109.265625 L 50.339844 106.640625 L 52.285156 104.449219 L 53.800781 102.929688 L 54.4375 102.042969 L 54.871094 102.496094 L 55.316406 102.703125 L 55.527344 103.152344 L 55.953125 103.582031 L 55.316406 104.234375 L 53.800781 105.757812 L 51.855469 107.953125 L 49.480469 110.578125 L 46.449219 113.859375 L 43.210938 117.355469 L 39.542969 121.066406 L 35.855469 125.226562 L 31.96875 129.390625 L 28.300781 133.539062 L 24.40625 137.683594 L 20.738281 141.617188 L 17.496094 145.335938 L 14.261719 148.617188 L 11.660156 151.46875 L 9.507812 153.867188 L 9.28125 153.433594 L 9.078125 152.777344 L 8.851562 152.121094 Z M 61.570312 113.414062 L 60.707031 113.414062 L 59.625 113.636719 L 54.007812 113.636719 L 53.367188 113.863281 L 52.921875 114.085938 L 52.285156 114.292969 L 51.855469 114.722656 L 51.632812 115.171875 L 51.425781 115.605469 L 51.199219 116.261719 L 51.199219 117.800781 L 51.425781 119.972656 L 51.425781 124.347656 L 50.992188 124.796875 L 49.6875 126.109375 L 48.171875 125.453125 L 46.675781 125.222656 L 45.160156 125.453125 L 43.863281 125.660156 L 42.558594 126.105469 L 41.261719 126.761719 L 40.179688 127.40625 L 39.316406 128.285156 L 37.371094 131.136719 L 36.71875 133.96875 L 36.941406 136.59375 L 38.023438 138.996094 L 37.371094 139.667969 L 36.941406 139.878906 L 36.71875 140.308594 L 36.304688 140.753906 L 31.964844 140.753906 L 30.894531 140.964844 L 28.300781 140.964844 L 27.65625 141.191406 L 27.210938 141.617188 L 26.796875 141.847656 L 26.347656 142.277344 L 26.140625 142.933594 L 25.921875 143.378906 L 25.921875 144.902344 L 26.140625 147.09375 L 26.140625 151.675781 L 25.488281 152.347656 L 25.0625 152.988281 L 24.410156 153.660156 L 23.765625 154.296875 L 20.738281 154.296875 L 19.222656 154.523438 L 15.984375 154.523438 L 14.257812 154.75 L 12.742188 154.75 L 58.125 105.554688 L 63.734375 111.011719 L 63.082031 111.667969 L 62.65625 112.324219 L 62.019531 112.980469 Z M 76.914062 105.984375 L 76.277344 106.640625 L 74.964844 107.953125 L 74.328125 108.609375 L 72.8125 108.609375 L 71.9375 108.832031 L 66.546875 108.832031 L 66.320312 109.039062 L 66.113281 109.039062 L 60.28125 103.355469 L 58.984375 102.269531 L 54.230469 97.675781 L 7.335938 148.410156 L 7.132812 147.527344 L 6.902344 146.871094 L 6.699219 146.214844 L 6.472656 145.558594 L 7.335938 144.691406 L 9.078125 142.722656 L 11.453125 140.097656 L 14.46875 136.820312 L 17.929688 133.101562 L 21.597656 128.945312 L 25.710938 124.792969 L 29.8125 120.203125 L 33.703125 115.828125 L 37.597656 111.664062 L 41.261719 107.746094 L 44.5 104.234375 L 47.3125 101.179688 L 49.480469 98.988281 L 50.773438 97.464844 L 51.199219 97.019531 L 51.632812 96.585938 L 51.855469 95.929688 L 52.0625 95.5 L 52.0625 91.769531 L 51.855469 89.367188 L 51.855469 87.398438 L 52.921875 86.3125 L 54.011719 85 L 54.871094 84.113281 L 55.316406 83.6875 L 55.746094 83.03125 L 55.953125 82.167969 L 55.953125 81.496094 L 55.746094 80.628906 L 55.316406 79.316406 L 54.011719 75.828125 L 52.71875 72.097656 L 51.632812 69.257812 L 52.71875 68.175781 L 54.4375 66.414062 L 56.386719 64.234375 L 58.554688 61.816406 L 60.707031 59.417969 L 62.875 57.226562 L 64.597656 55.480469 L 65.683594 54.167969 L 66.546875 54.613281 L 67.628906 55.046875 L 70.210938 56.359375 L 73.25 57.671875 L 74.761719 58.535156 L 76.277344 59.210938 L 76.6875 59.210938 L 77.570312 60.503906 L 78.636719 61.816406 L 79.71875 62.921875 L 80.804688 64.234375 L 82.09375 65.320312 L 83.183594 66.414062 L 84.476562 67.5 L 85.78125 68.378906 L 85.992188 69.257812 L 86.417969 70.128906 L 86.851562 71.007812 L 87.503906 71.664062 L 88.589844 72.316406 L 89.65625 72.972656 L 90.746094 73.203125 L 93.121094 73.203125 L 94.199219 72.753906 L 95.289062 72.097656 L 96.152344 71.234375 L 97.441406 69.257812 L 97.871094 66.859375 L 97.230469 64.667969 L 95.925781 62.703125 L 94.84375 61.816406 L 93.773438 61.160156 L 92.480469 60.953125 L 91.171875 60.953125 L 90.3125 60.503906 L 89.660156 59.847656 L 88.796875 59.210938 L 87.933594 58.535156 L 89.023438 58.109375 L 90.089844 57.671875 L 91.171875 57.445312 L 92.480469 57.445312 L 93.773438 57.671875 L 95.0625 58.328125 L 96.359375 59.210938 L 97.871094 60.296875 L 98.09375 60.503906 L 98.300781 60.726562 L 99.816406 62.476562 L 100.902344 65.546875 L 100.902344 69.257812 L 98.300781 73.632812 L 97.875 74.289062 L 97.648438 75.378906 L 97.648438 76.253906 L 97.875 77.121094 L 98.09375 77.574219 L 98.957031 79.09375 L 100.042969 81.058594 L 101.332031 83.6875 L 102.851562 86.3125 L 104.140625 88.710938 L 105.226562 90.90625 L 106.085938 92.441406 L 105.003906 93.742188 L 103.277344 95.5 L 101.113281 97.679688 L 98.957031 100.097656 L 96.789062 102.5 L 94.84375 104.675781 L 93.121094 106.644531 L 92.035156 107.746094 L 90.746094 107.296875 L 89.230469 106.867188 L 87.28125 106.214844 L 85.558594 105.558594 L 83.613281 105.121094 L 82.09375 104.675781 L 81.238281 104.449219 L 80.804688 104.238281 L 79.945312 104.019531 L 79.082031 104.238281 L 78.429688 104.449219 L 77.777344 105.121094 L 77.566406 105.332031 L 77.140625 105.558594 L 76.910156 105.988281 Z M 83.835938 53.953125 L 81.890625 50.242188 L 80.152344 46.078125 L 79.292969 41.929688 L 78.855469 37.5625 L 79.515625 31.859375 L 81.03125 26.625 L 83.613281 21.804688 L 87.074219 17.660156 L 91.171875 14.152344 L 95.925781 11.53125 L 101.332031 10.011719 L 106.949219 9.355469 L 112.5625 10.011719 L 117.746094 11.527344 L 122.5 14.152344 L 126.617188 17.664062 L 130.0625 21.804688 L 132.660156 26.625 L 134.175781 31.859375 L 134.816406 37.5625 L 134.382812 42.140625 L 133.523438 46.304688 L 131.796875 50.445312 L 129.632812 54.164062 L 126.820312 57.441406 L 123.585938 60.296875 L 119.917969 62.699219 L 115.800781 64.4375 L 114.300781 62.917969 L 112.785156 61.378906 L 111.046875 60.070312 L 109.101562 58.757812 L 107.378906 57.667969 L 105.226562 56.578125 L 103.277344 55.703125 L 101.113281 55.042969 L 98.734375 53.296875 L 96.359375 52.195312 L 93.980469 51.554688 L 91.824219 51.554688 L 89.449219 51.765625 L 87.507812 52.195312 L 85.558594 52.847656 Z M 87.726562 189.503906 L 87.28125 189.070312 L 86.851562 188.847656 L 86.210938 188.414062 L 85.78125 188.195312 L 86.417969 172.886719 L 87.074219 150.808594 L 87.933594 130.480469 L 88.140625 120.425781 L 88.792969 120.632812 L 90.3125 120.632812 L 89.882812 130.253906 L 89.230469 150.378906 L 88.367188 172.679688 Z M 100.902344 124.347656 L 99.597656 125.660156 L 97.652344 127.40625 L 96.148438 128.945312 L 95.0625 130.027344 L 94.84375 130.480469 L 94.636719 131.132812 L 94.636719 132.882812 L 95.0625 133.3125 L 95.289062 133.757812 L 95.925781 134.417969 L 97.441406 135.9375 L 99.167969 137.90625 L 100.472656 139.441406 L 100.472656 140.308594 L 100.25 140.964844 L 100.25 141.847656 L 98.734375 142.277344 L 97.441406 143.15625 L 96.359375 144.246094 L 95.496094 145.335938 L 94.84375 146.4375 L 94.199219 147.753906 L 93.980469 149.066406 L 93.773438 150.378906 L 94.199219 153.660156 L 95.496094 156.273438 L 97.441406 158.03125 L 99.597656 159.34375 L 99.597656 161.746094 L 98.300781 163.058594 L 96.359375 164.578125 L 94.84375 166.113281 L 94.199219 166.769531 L 93.773438 167.207031 L 93.339844 167.863281 L 93.121094 168.289062 L 93.121094 169.398438 L 93.339844 170.050781 L 93.550781 170.707031 L 94.636719 171.800781 L 96.152344 173.335938 L 97.871094 175.304688 L 99.167969 176.617188 L 98.957031 177.480469 L 98.957031 180.332031 L 98.527344 180.761719 L 97.652344 181.417969 L 96.789062 182.300781 L 95.714844 183.390625 L 94.410156 184.476562 L 93.339844 185.582031 L 92.035156 186.671875 L 90.964844 187.757812 L 93.339844 120.628906 L 101.113281 121.066406 L 101.113281 122.824219 L 100.902344 123.6875 Z M 117.746094 85.875 L 117.316406 89.144531 L 116.675781 92.21875 L 115.597656 95.277344 L 114.078125 98.105469 L 112.785156 100.09375 L 111.269531 101.835938 L 109.546875 103.355469 L 107.808594 104.894531 L 107.605469 107.296875 L 107.605469 112.324219 L 107.378906 112.324219 L 105.867188 113.636719 L 104.140625 115.398438 L 102.625 116.691406 L 101.988281 117.355469 L 101.761719 117.574219 L 101.761719 117.800781 L 101.542969 118.011719 L 93.339844 117.574219 L 91.824219 117.574219 L 85.332031 117.355469 L 82.75 186.671875 L 82.097656 186.21875 L 81.457031 185.789062 L 80.804688 185.582031 L 80.152344 185.132812 L 80.578125 173.335938 L 81.457031 150.582031 L 82.09375 128.714844 L 82.527344 118.886719 L 82.527344 118.230469 L 82.320312 117.574219 L 82.09375 117.140625 L 81.667969 116.691406 L 81.457031 116.261719 L 80.578125 115.398438 L 79.515625 114.292969 L 78.429688 112.980469 L 79.082031 112.550781 L 79.71875 111.894531 L 80.152344 111.234375 L 80.804688 110.578125 L 82.09375 111.011719 L 83.613281 111.460938 L 85.558594 112.097656 L 87.507812 112.550781 L 89.230469 113.207031 L 90.746094 113.632812 L 91.824219 113.863281 L 92.261719 114.085938 L 93.773438 114.085938 L 94.636719 113.636719 L 95.289062 113.203125 L 111.925781 95.050781 L 112.558594 94.394531 L 112.789062 93.300781 L 112.789062 92.4375 L 112.558594 91.5625 L 112.355469 90.90625 L 111.496094 89.59375 L 110.410156 87.398438 L 108.894531 84.769531 L 107.378906 82.164062 L 106.085938 79.539062 L 105 77.339844 L 104.140625 76.03125 L 105.867188 72.96875 L 106.945312 69.914062 L 107.15625 67.066406 L 106.742188 64.4375 L 109.101562 66.40625 L 111.496094 68.378906 L 113.21875 70.777344 L 114.9375 73.40625 L 116.246094 76.460938 L 117.109375 79.3125 L 117.539062 82.59375 Z M 119.488281 69.464844 L 119.054688 68.808594 L 118.609375 68.171875 L 118.191406 67.496094 L 117.746094 66.855469 L 122.070312 64.871094 L 125.960938 62.261719 L 129.421875 58.980469 L 132.230469 55.472656 L 134.605469 51.328125 L 136.332031 46.957031 L 137.414062 42.367188 L 137.84375 37.5625 L 137.210938 31.207031 L 135.46875 25.316406 L 132.660156 20.0625 L 128.769531 15.464844 L 124.242188 11.53125 L 119.054688 8.695312 L 113.21875 6.949219 L 106.949219 6.296875 L 100.675781 6.949219 L 94.84375 8.695312 L 89.65625 11.527344 L 84.902344 15.464844 L 81.242188 20.066406 L 78.222656 25.316406 L 76.484375 31.210938 L 75.832031 37.5625 L 76.054688 42.144531 L 77.140625 46.511719 L 78.636719 50.675781 L 80.808594 54.386719 L 81.894531 55.90625 L 82.972656 57.445312 L 84.269531 58.984375 L 85.558594 60.296875 L 85.996094 60.730469 L 86.648438 61.164062 L 87.285156 61.820312 L 87.9375 62.265625 L 88.59375 62.703125 L 89.230469 63.128906 L 89.886719 63.785156 L 90.539062 64.234375 L 90.96875 64.441406 L 91.175781 64.667969 L 91.609375 64.875 L 92.035156 65.101562 L 92.265625 65.320312 L 92.265625 65.757812 L 92.484375 65.980469 L 92.484375 66.859375 L 92.265625 67.070312 L 91.828125 67.5 L 90.96875 67.949219 L 90.539062 67.5 L 89.886719 67.296875 L 89.230469 66.859375 L 88.800781 66.640625 L 88.148438 66.1875 L 87.511719 65.761719 L 86.855469 65.320312 L 86.214844 64.875 L 85.339844 64.011719 L 83.617188 62.699219 L 82.757812 61.816406 L 81.671875 60.726562 L 80.808594 59.644531 L 79.949219 58.535156 L 79.085938 57.222656 L 78.222656 56.132812 L 77.570312 54.824219 L 76.917969 53.734375 L 76.28125 52.421875 L 74.765625 48.929688 L 73.679688 45.199219 L 73.027344 41.484375 L 72.816406 37.5625 L 73.46875 30.777344 L 75.402344 24.214844 L 78.636719 18.527344 L 82.753906 13.296875 L 87.9375 9.132812 L 93.777344 5.851562 L 100.046875 3.882812 L 106.949219 3.226562 L 113.652344 3.882812 L 120.128906 5.847656 L 125.757812 9.128906 L 130.941406 13.292969 L 135.039062 18.527344 L 138.277344 24.214844 L 140.226562 30.777344 L 140.878906 37.5625 L 140.449219 42.800781 L 139.363281 47.621094 L 137.414062 52.417969 L 135.039062 56.789062 L 131.804688 60.726562 L 128.117188 64.234375 L 124.019531 67.070312 L 119.492188 69.472656 "/>
<path style=" stroke:none;fill-rule:evenodd;fill:rgb(75.686275%,87.058824%,96.078431%);fill-opacity:1;" d="M 80.804688 104.238281 L 81.238281 104.449219 L 82.09375 104.671875 L 83.613281 105.117188 L 85.558594 105.554688 L 87.28125 106.210938 L 89.230469 106.867188 L 90.746094 107.296875 L 92.035156 107.746094 L 93.121094 106.640625 L 94.84375 104.671875 L 96.789062 102.496094 L 98.953125 100.09375 L 101.109375 97.675781 L 103.277344 95.5 L 105 93.738281 L 106.085938 92.4375 L 105.226562 90.902344 L 104.140625 88.707031 L 102.851562 86.308594 L 101.332031 83.683594 L 100.042969 81.058594 L 98.957031 79.09375 L 98.09375 77.570312 L 97.871094 77.117188 L 97.652344 76.253906 L 97.652344 75.375 L 97.871094 74.289062 L 98.300781 73.632812 L 100.902344 69.253906 L 100.902344 65.542969 L 99.816406 62.472656 L 98.300781 60.722656 L 98.09375 60.5 L 97.871094 60.296875 L 96.359375 59.207031 L 95.0625 58.320312 L 93.773438 57.664062 L 92.480469 57.441406 L 91.171875 57.441406 L 90.089844 57.667969 L 89.023438 58.101562 L 87.933594 58.53125 L 88.796875 59.207031 L 89.65625 59.84375 L 90.308594 60.5 L 91.171875 60.949219 L 92.480469 60.949219 L 93.773438 61.160156 L 94.84375 61.816406 L 95.925781 62.695312 L 97.230469 64.664062 L 97.871094 66.859375 L 97.441406 69.253906 L 96.152344 71.230469 L 95.289062 72.09375 L 94.199219 72.75 L 93.121094 73.195312 L 90.746094 73.195312 L 89.65625 72.96875 L 88.589844 72.316406 L 87.507812 71.660156 L 86.855469 71.003906 L 86.417969 70.125 L 85.992188 69.253906 L 85.78125 68.378906 L 84.476562 67.496094 L 83.183594 66.410156 L 82.09375 65.316406 L 80.804688 64.234375 L 79.71875 62.917969 L 78.636719 61.8125 L 77.566406 60.5 L 76.6875 59.207031 L 76.277344 59.207031 L 74.761719 58.53125 L 73.246094 57.667969 L 70.214844 56.355469 L 67.628906 55.042969 L 66.546875 54.609375 L 65.683594 54.164062 L 64.597656 55.476562 L 62.875 57.222656 L 60.707031 59.414062 L 58.550781 61.8125 L 56.386719 64.234375 L 54.4375 66.410156 L 52.71875 68.171875 L 51.632812 69.253906 L 52.71875 72.09375 L 54.011719 75.824219 L 55.316406 79.3125 L 55.746094 80.625 L 55.953125 81.492188 L 55.953125 82.164062 L 55.746094 83.03125 L 55.316406 83.683594 L 54.871094 84.113281 L 54.011719 84.996094 L 52.921875 86.308594 L 51.855469 87.398438 L 51.855469 89.363281 L 52.0625 91.765625 L 52.0625 95.5 L 51.855469 95.929688 L 51.632812 96.585938 L 51.203125 97.019531 L 50.773438 97.464844 L 49.480469 98.988281 L 47.308594 101.179688 L 44.5 104.238281 L 41.265625 107.746094 L 37.597656 111.667969 L 33.703125 115.828125 L 29.816406 120.199219 L 25.710938 124.792969 L 21.597656 128.945312 L 17.929688 133.101562 L 14.46875 136.820312 L 11.453125 140.097656 L 9.078125 142.722656 L 7.335938 144.691406 L 6.472656 145.558594 L 6.703125 146.214844 L 6.90625 146.871094 L 7.132812 147.527344 L 7.335938 148.414062 L 54.230469 97.671875 L 58.984375 102.265625 L 60.28125 103.355469 L 66.113281 109.035156 L 66.324219 109.035156 L 66.546875 108.828125 L 71.933594 108.828125 L 72.8125 108.605469 L 74.328125 108.605469 L 74.964844 107.949219 L 76.277344 106.636719 L 76.914062 105.980469 L 77.140625 105.550781 L 77.566406 105.324219 L 77.777344 105.113281 L 78.429688 104.441406 L 79.082031 104.234375 L 79.945312 104.011719 L 80.804688 104.234375 "/>
<path style=" stroke:none;fill-rule:evenodd;fill:rgb(75.686275%,87.058824%,96.078431%);fill-opacity:1;" d="M 12.742188 154.75 L 14.257812 154.75 L 15.984375 154.519531 L 19.21875 154.519531 L 20.738281 154.296875 L 23.765625 154.296875 L 24.40625 153.660156 L 25.058594 152.988281 L 25.488281 152.347656 L 26.144531 151.675781 L 26.144531 147.09375 L 25.921875 144.898438 L 25.921875 143.382812 L 26.140625 142.933594 L 26.347656 142.277344 L 26.796875 141.847656 L 27.210938 141.617188 L 27.65625 141.191406 L 28.300781 140.960938 L 30.894531 140.960938 L 31.964844 140.753906 L 36.304688 140.753906 L 36.71875 140.308594 L 36.941406 139.878906 L 37.367188 139.667969 L 38.023438 138.996094 L 36.941406 136.59375 L 36.71875 133.96875 L 37.371094 131.132812 L 39.316406 128.289062 L 40.179688 127.402344 L 41.261719 126.765625 L 42.554688 126.109375 L 43.863281 125.660156 L 45.160156 125.453125 L 46.675781 125.222656 L 48.171875 125.453125 L 49.6875 126.109375 L 50.992188 124.796875 L 51.425781 124.347656 L 51.425781 119.972656 L 51.199219 117.800781 L 51.199219 116.261719 L 51.425781 115.605469 L 51.632812 115.171875 L 51.855469 114.722656 L 52.285156 114.292969 L 52.921875 114.085938 L 53.367188 113.863281 L 54.011719 113.632812 L 59.625 113.632812 L 60.707031 113.414062 L 61.570312 113.414062 L 62.019531 112.980469 L 62.65625 112.324219 L 63.082031 111.667969 L 63.734375 111.011719 L 58.125 105.554688 L 12.738281 154.75 "/>
<path style=" stroke:none;fill-rule:evenodd;fill:rgb(23.529412%,65.490196%,89.411765%);fill-opacity:1;" d="M 54.4375 102.042969 L 53.800781 102.929688 L 52.285156 104.445312 L 50.339844 106.640625 L 47.753906 109.265625 L 44.722656 112.550781 L 41.261719 116.261719 L 37.800781 120.199219 L 33.914062 124.136719 L 30.035156 128.289062 L 26.347656 132.445312 L 22.457031 136.59375 L 19.011719 140.308594 L 15.773438 143.816406 L 12.953125 146.871094 L 10.59375 149.496094 L 8.644531 151.464844 L 8.851562 152.121094 L 9.078125 152.777344 L 9.28125 153.433594 L 9.507812 153.867188 L 11.660156 151.464844 L 14.257812 148.613281 L 17.496094 145.335938 L 20.738281 141.621094 L 24.40625 137.683594 L 28.300781 133.535156 L 31.964844 129.390625 L 35.855469 125.226562 L 39.542969 121.0625 L 43.207031 117.351562 L 46.449219 113.859375 L 49.476562 110.582031 L 51.851562 107.957031 L 53.800781 105.761719 L 55.316406 104.234375 L 55.953125 103.582031 L 55.523438 103.152344 L 55.316406 102.703125 L 54.871094 102.496094 L 54.4375 102.042969 "/>
<path style=" stroke:none;fill-rule:evenodd;fill:rgb(75.686275%,87.058824%,96.078431%);fill-opacity:1;" d="M 90.964844 187.757812 L 92.035156 186.675781 L 93.339844 185.582031 L 94.410156 184.476562 L 95.714844 183.390625 L 96.789062 182.296875 L 97.652344 181.417969 L 98.527344 180.765625 L 98.957031 180.332031 L 98.957031 177.480469 L 99.167969 176.617188 L 97.871094 175.304688 L 96.152344 173.335938 L 94.636719 171.796875 L 93.550781 170.707031 L 93.339844 170.050781 L 93.121094 169.398438 L 93.121094 168.292969 L 93.339844 167.859375 L 93.773438 167.203125 L 94.199219 166.769531 L 94.84375 166.113281 L 96.359375 164.578125 L 98.300781 163.054688 L 99.597656 161.746094 L 99.597656 159.34375 L 97.441406 158.03125 L 95.496094 156.273438 L 94.199219 153.660156 L 93.773438 150.378906 L 93.980469 149.066406 L 94.199219 147.753906 L 94.84375 146.4375 L 95.496094 145.335938 L 96.359375 144.246094 L 97.4375 143.15625 L 98.734375 142.277344 L 100.25 141.847656 L 100.25 140.960938 L 100.46875 140.308594 L 100.46875 139.441406 L 99.164062 137.90625 L 97.441406 135.9375 L 95.925781 134.417969 L 95.289062 133.757812 L 95.0625 133.3125 L 94.636719 132.882812 L 94.636719 131.132812 L 94.84375 130.480469 L 95.0625 130.03125 L 96.152344 128.945312 L 97.652344 127.402344 L 99.597656 125.660156 L 100.902344 124.347656 L 100.902344 123.691406 L 101.113281 122.824219 L 101.113281 121.066406 L 93.339844 120.632812 L 90.964844 187.757812 "/>
<path style=" stroke:none;fill-rule:evenodd;fill:rgb(23.529412%,65.490196%,89.411765%);fill-opacity:1;" d="M 106.949219 3.21875 L 100.042969 3.875 L 93.773438 5.847656 L 87.933594 9.128906 L 82.753906 13.292969 L 78.636719 18.523438 L 75.398438 24.210938 L 73.46875 30.773438 L 72.8125 37.5625 L 73.023438 41.480469 L 73.675781 45.195312 L 74.761719 48.925781 L 76.277344 52.417969 L 76.914062 53.726562 L 77.566406 54.820312 L 78.21875 56.132812 L 79.082031 57.222656 L 79.945312 58.535156 L 80.804688 59.640625 L 81.667969 60.722656 L 82.753906 61.8125 L 83.613281 62.699219 L 85.335938 64.011719 L 86.210938 64.871094 L 86.851562 65.316406 L 87.503906 65.753906 L 88.140625 66.183594 L 88.792969 66.636719 L 89.230469 66.855469 L 89.882812 67.292969 L 90.535156 67.496094 L 90.964844 67.949219 L 91.824219 67.496094 L 92.261719 67.070312 L 92.480469 66.855469 L 92.480469 65.972656 L 92.261719 65.753906 L 92.261719 65.316406 L 92.03125 65.097656 L 91.605469 64.871094 L 91.171875 64.664062 L 90.964844 64.4375 L 90.535156 64.234375 L 89.882812 63.785156 L 89.230469 63.128906 L 88.589844 62.695312 L 87.933594 62.261719 L 87.28125 61.816406 L 86.644531 61.160156 L 85.992188 60.722656 L 85.558594 60.296875 L 84.265625 58.980469 L 82.972656 57.441406 L 81.890625 55.90625 L 80.804688 54.382812 L 78.636719 50.671875 L 77.140625 46.507812 L 76.050781 42.136719 L 75.824219 37.5625 L 76.480469 31.207031 L 78.21875 25.316406 L 81.238281 20.0625 L 84.902344 15.464844 L 89.65625 11.53125 L 94.84375 8.695312 L 100.679688 6.949219 L 106.949219 6.296875 L 113.21875 6.949219 L 119.054688 8.695312 L 124.242188 11.527344 L 128.769531 15.464844 L 132.65625 20.0625 L 135.46875 25.316406 L 137.210938 31.207031 L 137.84375 37.5625 L 137.414062 42.363281 L 136.332031 46.957031 L 134.605469 51.328125 L 132.226562 55.476562 L 129.417969 58.980469 L 125.960938 62.261719 L 122.070312 64.871094 L 117.746094 66.855469 L 118.191406 67.496094 L 118.609375 68.171875 L 119.054688 68.808594 L 119.488281 69.464844 L 124.015625 67.066406 L 128.117188 64.234375 L 131.796875 60.722656 L 135.035156 56.785156 L 137.414062 52.417969 L 139.359375 47.613281 L 140.445312 42.792969 L 140.875 37.5625 L 140.222656 30.773438 L 138.273438 24.210938 L 135.035156 18.523438 L 130.933594 13.292969 L 125.753906 9.128906 L 120.121094 5.847656 L 113.648438 3.878906 L 106.949219 3.222656 M 85.78125 188.195312 L 86.210938 188.414062 L 86.851562 188.847656 L 87.28125 189.070312 L 87.726562 189.503906 L 88.367188 172.679688 L 89.230469 150.378906 L 89.882812 130.253906 L 90.308594 120.632812 L 88.796875 120.632812 L 88.144531 120.425781 L 87.933594 130.480469 L 87.074219 150.8125 L 86.417969 172.886719 L 85.78125 188.195312 "/>
<path style=" stroke:none;fill-rule:evenodd;fill:rgb(75.686275%,87.058824%,96.078431%);fill-opacity:1;" d="M 106.742188 64.4375 L 107.15625 67.066406 L 106.949219 69.914062 L 105.867188 72.96875 L 104.140625 76.03125 L 105 77.34375 L 106.085938 79.539062 L 107.378906 82.164062 L 108.894531 84.769531 L 110.410156 87.398438 L 111.496094 89.59375 L 112.355469 90.90625 L 112.5625 91.5625 L 112.785156 92.4375 L 112.785156 93.304688 L 112.558594 94.394531 L 111.925781 95.050781 L 95.289062 113.203125 L 94.636719 113.636719 L 93.773438 114.085938 L 92.261719 114.085938 L 91.824219 113.863281 L 90.746094 113.632812 L 89.230469 113.207031 L 87.507812 112.550781 L 85.558594 112.097656 L 83.613281 111.460938 L 82.09375 111.011719 L 80.804688 110.578125 L 80.152344 111.234375 L 79.71875 111.894531 L 79.082031 112.550781 L 78.429688 112.980469 L 79.515625 114.292969 L 80.582031 115.398438 L 81.457031 116.261719 L 81.667969 116.691406 L 82.09375 117.144531 L 82.324219 117.570312 L 82.527344 118.230469 L 82.527344 118.886719 L 82.09375 128.71875 L 81.457031 150.585938 L 80.582031 173.335938 L 80.152344 185.132812 L 80.804688 185.582031 L 81.457031 185.789062 L 82.09375 186.21875 L 82.753906 186.671875 L 85.335938 117.355469 L 91.824219 117.574219 L 93.339844 117.574219 L 101.542969 118.011719 L 101.761719 117.800781 L 101.761719 117.570312 L 101.992188 117.355469 L 102.625 116.691406 L 104.140625 115.398438 L 105.867188 113.636719 L 107.378906 112.324219 L 107.605469 112.324219 L 107.605469 107.296875 L 107.808594 104.894531 L 109.546875 103.355469 L 111.273438 101.835938 L 112.785156 100.09375 L 114.078125 98.105469 L 115.59375 95.277344 L 116.675781 92.21875 L 117.316406 89.144531 L 117.746094 85.875 L 117.542969 82.597656 L 117.109375 79.3125 L 116.246094 76.460938 L 114.9375 73.40625 L 113.21875 70.777344 L 111.496094 68.378906 L 109.101562 66.410156 L 106.742188 64.4375 "/>
<path style=" stroke:none;fill-rule:evenodd;fill:rgb(100%,100%,100%);fill-opacity:1;" d="M 59.84375 81.9375 L 55.746094 70.125 L 69.132812 55.699219 L 68.0625 55.269531 L 67.183594 54.820312 L 66.324219 54.609375 L 65.683594 54.164062 L 64.597656 55.476562 L 62.875 57.222656 L 60.707031 59.414062 L 58.550781 61.816406 L 56.386719 64.234375 L 54.4375 66.410156 L 52.71875 68.171875 L 51.632812 69.253906 L 52.71875 72.09375 L 54.011719 75.824219 L 55.316406 79.3125 L 55.746094 80.625 L 55.953125 81.492188 L 55.953125 82.164062 L 55.746094 83.03125 L 55.316406 83.683594 L 54.871094 84.113281 L 54.011719 84.996094 L 52.921875 86.308594 L 51.855469 87.398438 L 51.855469 89.363281 L 52.0625 91.765625 L 52.0625 95.5 L 51.855469 95.929688 L 51.632812 96.585938 L 51.203125 97.019531 L 50.773438 97.46875 L 49.480469 98.988281 L 47.308594 101.179688 L 44.5 104.238281 L 41.265625 107.746094 L 37.597656 111.667969 L 33.703125 115.828125 L 29.816406 120.199219 L 25.710938 124.792969 L 21.597656 128.945312 L 17.929688 133.101562 L 14.46875 136.820312 L 11.453125 140.097656 L 9.078125 142.722656 L 7.335938 144.691406 L 6.472656 145.558594 L 6.703125 146.214844 L 6.90625 146.871094 L 7.132812 147.527344 L 7.335938 148.414062 L 54.230469 97.898438 L 54.230469 88.707031 L 59.84375 81.9375 M 78.429688 112.980469 L 79.515625 114.292969 L 80.578125 115.398438 L 81.457031 116.261719 L 81.667969 116.691406 L 82.09375 117.144531 L 82.324219 117.570312 L 82.527344 118.230469 L 82.527344 118.886719 L 82.09375 128.71875 L 81.457031 150.585938 L 80.578125 173.335938 L 80.152344 185.132812 L 80.808594 185.582031 L 81.457031 185.789062 L 82.09375 186.21875 L 82.753906 186.671875 L 85.335938 117.355469 L 80.152344 111.460938 L 79.292969 112.324219 L 78.855469 112.550781 L 78.429688 112.980469 "/>
</g>
</svg>
