<?xml version="1.0" encoding="UTF-8"?>
<svg xmlns="http://www.w3.org/2000/svg" xmlns:xlink="http://www.w3.org/1999/xlink" width="135pt" height="200pt" viewBox="0 0 135 200" version="1.1">
<g id="surface1">
<path style=" stroke:none;fill-rule:nonzero;fill:rgb(0.784314%,43.921569%,62.352941%);fill-opacity:1;" d="M 79.863281 173.71875 L 77.027344 179.976562 C 77.027344 179.976562 77.027344 182.667969 80.773438 181.324219 L 83.988281 179.976562 L 87.472656 175.945312 L 88.039062 175.707031 C 88.117188 174.496094 88.214844 173.28125 88.476562 172.058594 C 88.925781 169.929688 88.214844 167.640625 88.886719 165.730469 C 90.542969 160.898438 92.25 156.085938 94.003906 151.289062 C 95.378906 147.527344 93.359375 143.121094 94.816406 139.414062 L 84.429688 136.054688 C 83.714844 147.226562 83.566406 158.28125 83.015625 169.402344 C 82.019531 170.933594 80.921875 172.355469 79.835938 173.761719 L 79.863281 173.71875 M 108.191406 172.902344 L 108.324219 174.109375 L 111.277344 177.867188 L 116.089844 181.902344 L 119.3125 181.636719 C 120.105469 179.484375 121.171875 178.9375 121.171875 178.9375 C 119.230469 177.097656 116.792969 175.785156 115.703125 173.164062 C 115.019531 171.515625 114.527344 169.699219 114.589844 168.070312 C 114.960938 157.464844 116.023438 147.015625 117.125 136.347656 L 106.042969 139.027344 C 105.101562 139.484375 105.5 140.558594 105.4375 141.199219 C 105.195312 143.675781 104.808594 146.164062 105.371094 148.675781 C 105.886719 150.933594 106.796875 152.949219 107.195312 155.183594 C 108.242188 161.183594 108.679688 166.976562 108.191406 172.902344 M 29.726562 7.167969 C 30.136719 7.664062 30.300781 8.34375 30.355469 8.804688 C 30.574219 10.960938 29.789062 13.164062 29.015625 15.179688 C 28.828125 15.691406 28.847656 17.070312 28.230469 16.664062 C 27.515625 16.199219 26.921875 15.136719 26.167969 14.878906 C 25.226562 14.539062 24.222656 15.503906 23.28125 16.039062 C 25.015625 18.394531 27.140625 20.777344 26.230469 23.84375 C 24.023438 20.566406 21.699219 17.324219 20.058594 13.773438 C 19.15625 11.839844 19.503906 9.015625 20.675781 7.417969 C 22.476562 4.953125 25.183594 2.875 28.175781 2.109375 C 32.226562 1.078125 36.253906 0.238281 40.417969 0.183594 C 36.664062 2.074219 33.105469 3.890625 29.484375 6.433594 C 29.296875 6.570312 29.539062 6.9375 29.726562 7.167969 "/>
<path style=" stroke:none;fill-rule:nonzero;fill:rgb(0.784314%,43.921569%,62.352941%);fill-opacity:1;" d="M 43.933594 7.460938 C 42.996094 9.308594 42.082031 11.105469 40.960938 12.816406 C 41.035156 12.558594 40.902344 12.355469 40.691406 12.3125 C 40.15625 12.222656 39.449219 12.460938 39.171875 12.1875 C 38.902344 11.914062 38.902344 11.054688 39.171875 10.75 C 39.488281 10.40625 40.46875 10.925781 40.535156 10.84375 C 42.375 7.871094 38.988281 5.464844 37.738281 2.875 C 40.46875 2.820312 42.648438 4.636719 45.246094 5.027344 C 44.707031 5.78125 44.363281 6.632812 43.933594 7.460938 "/>
<path style=" stroke:none;fill-rule:nonzero;fill:rgb(0%,0%,0%);fill-opacity:1;" d="M 33.722656 12.578125 C 33.273438 12.492188 32.5625 12.628906 32.53125 12.511719 C 31.746094 9.898438 35.332031 11.125 36.945312 10.40625 C 36.558594 12.113281 35.542969 12.921875 33.722656 12.578125 M 38.285156 16.847656 L 36.402344 16.847656 C 37.125 16.199219 37.941406 15.65625 38.816406 15.234375 C 38.722656 15.808594 38.894531 16.335938 39.078125 16.847656 L 38.285156 16.847656 M 37.738281 20.074219 L 33.996094 20.074219 C 34.453125 19.644531 35.167969 19.484375 35.617188 19.433594 C 36.820312 19.296875 38.390625 18.449219 39.351562 20.074219 L 37.738281 20.074219 M 37.445312 21.21875 C 38.355469 21.59375 37.070312 21.621094 37.207031 21.953125 C 36.503906 22.121094 36.289062 21.472656 35.871094 21.15625 C 36.402344 21.15625 36.996094 21.019531 37.445312 21.21875 "/>
<path style=" stroke:none;fill-rule:nonzero;fill:rgb(0.784314%,43.921569%,62.352941%);fill-opacity:1;" d="M 47.660156 186.46875 C 51.195312 188.820312 54.636719 191.285156 58.101562 193.734375 C 57.589844 194.140625 57.757812 195.195312 57.296875 195.195312 C 54.449219 195.214844 51.605469 195.320312 48.757812 194.878906 C 46.144531 194.480469 43.957031 192.796875 41.445312 192.023438 C 41.035156 191.894531 40.996094 193.222656 40.660156 193.292969 C 38.546875 193.710938 36.289062 193 34.738281 191.835938 C 33.542969 190.941406 34.75 188.640625 33.941406 187.035156 L 47.660156 186.46875 "/>
<path style=" stroke:none;fill-rule:nonzero;fill:rgb(0.784314%,43.921569%,62.352941%);fill-opacity:1;" d="M 33.941406 187.035156 C 33.910156 186.960938 33.523438 187.011719 33.523438 187.003906 C 32.730469 162.785156 33.160156 138.625 32.382812 114.433594 C 28.511719 138.070312 25.46875 160.984375 20.925781 185.355469 C 20.839844 185.796875 19.285156 185.542969 19.15625 186.238281 L 7.46875 186.050781 C 7.898438 185.269531 7.085938 183.75 7.21875 182.445312 C 8.621094 169.5625 10.265625 157.035156 10.902344 144.257812 C 11.5625 131.257812 11.886719 118.308594 12.503906 105.300781 C 12.621094 102.988281 13.632812 100.625 13.4375 98.324219 C 13.371094 97.589844 12.167969 97.167969 11.226562 96.960938 C 12.125 94.785156 12.378906 92.453125 13.113281 90.238281 C 9.179688 86.023438 5.042969 82.28125 1.59375 77.410156 C 0.480469 75.855469 -0.09375 73.566406 0.0117188 71.703125 C 0.660156 60.429688 3.234375 49.410156 3.191406 38.085938 C 8.671875 34.621094 15.191406 33.789062 21.019531 31.113281 C 23.1875 30.117188 25.4375 28.8125 26.230469 26.261719 C 29.203125 28.351562 31.621094 31.183594 34.875 32.832031 C 35.175781 32.980469 35.410156 32.132812 35.605469 31.636719 C 35.699219 31.730469 35.785156 31.816406 35.871094 31.910156 C 36.167969 31.039062 36.160156 30.410156 36.945312 29.757812 C 36.757812 29.628906 36.539062 29.421875 36.703125 29.25 C 37.207031 28.761719 37.277344 28.078125 37.738281 27.605469 C 38.234375 28.550781 39.121094 29.230469 39.960938 29.609375 C 44.585938 31.738281 49.273438 33.433594 54.03125 35.28125 C 55.714844 35.933594 57.601562 37.128906 58.320312 38.527344 C 58.84375 39.546875 58.164062 41.359375 57.808594 42.925781 C 57.390625 44.773438 56.980469 46.570312 56.972656 48.300781 C 56.929688 56.242188 59.105469 64.023438 59.714844 71.960938 C 56.292969 76.289062 53.738281 81.15625 50.601562 85.671875 C 51.28125 89.484375 53.078125 93.203125 52.960938 96.949219 C 52.953125 97.265625 50.882812 97.667969 50.871094 98.304688 C 50.753906 102.664062 51.613281 107.054688 51.363281 111.472656 C 49.929688 136.558594 49.886719 161.519531 47.660156 186.472656 L 33.941406 187.035156 "/>
<path style=" stroke:none;fill-rule:nonzero;fill:rgb(0.784314%,43.921569%,62.352941%);fill-opacity:1;" d="M 19.15625 186.238281 C 18.886719 187.800781 19.847656 189.691406 19.023438 190.867188 C 17.894531 192.4375 15.800781 193.125 13.96875 194.113281 C 13.320312 194.457031 13.683594 195.917969 12.828125 196.011719 C 9.25 196.410156 5.691406 196.148438 2.125 196.148438 C 2.207031 194.449219 1.769531 192.503906 2.625 191.195312 C 3.933594 189.207031 6.363281 188.03125 7.46875 186.050781 L 19.15625 186.238281 M 15.445312 68.734375 C 15.382812 65.582031 14.984375 62.441406 14.453125 59.324219 C 13.222656 62.300781 12.613281 65.5 12.664062 68.722656 C 12.679688 70.015625 14.269531 71.421875 15.246094 72.765625 C 15.902344 71.453125 15.460938 70.066406 15.445312 68.734375 M 86.5 35.941406 C 85.652344 35.027344 84.082031 35.015625 84.082031 33.515625 C 85.011719 33.523438 85.953125 33.601562 86.761719 32.976562 C 85.191406 32.398438 84.394531 30.960938 84.238281 29.472656 C 84.214844 29.28125 84.585938 28.496094 84.878906 28.527344 C 85.527344 28.578125 85.554688 29.683594 86.238281 30.007812 C 86.480469 30.121094 86.6875 29.964844 86.742188 29.742188 C 86.9375 28.914062 86.644531 28.136719 86.5 27.332031 C 87.378906 27.609375 88.992188 27.960938 88.980469 27.066406 C 88.957031 25.742188 87.117188 24.273438 88.253906 23.195312 C 88.578125 22.886719 89.878906 24.546875 89.996094 23.539062 C 90.109375 22.582031 88.714844 21.449219 88.8125 20.355469 C 88.875 19.589844 90.347656 19.398438 90.644531 18.675781 C 91.125 17.460938 90.128906 15.90625 90.472656 14.773438 C 91.480469 11.410156 93.476562 8.4375 95.066406 5.289062 C 99.179688 5.164062 100.726562 1.132812 107.371094 4.65625 C 107.550781 4.742188 106.714844 4.605469 106.878906 5.007812 C 106.976562 5.226562 107.203125 5.492188 107.394531 5.507812 C 108.492188 5.59375 109.75 5.390625 110.21875 6.421875 C 110.550781 7.167969 109.453125 8.058594 109.683594 8.734375 C 110.03125 9.753906 112.042969 9.289062 112.246094 10.183594 C 112.667969 11.925781 110.65625 13.613281 110.917969 15.179688 C 111.078125 16.0625 113.054688 16.441406 113.660156 17.480469 C 114.351562 18.6875 113.453125 20.429688 114.625 21.691406 C 115.074219 21.144531 115.640625 20.734375 116.226562 20.347656 C 116.390625 21.40625 116.808594 22.363281 117.300781 23.300781 C 117.984375 22.386719 118.800781 21.5625 119.4375 20.609375 C 120.085938 21.164062 119.792969 22.140625 119.574219 22.351562 C 118.433594 23.453125 117.34375 24.902344 115.734375 25.332031 C 115.542969 25.398438 115.386719 25.539062 115.304688 25.722656 L 113.421875 24.652344 C 113.191406 25.113281 114.75 25.804688 114.078125 25.988281 L 114.351562 27.066406 C 115.328125 28.121094 116.464844 27.40625 117.566406 27.066406 C 118.132812 28.945312 115.605469 29.1875 115.363281 30.59375 C 115.230469 31.320312 116.570312 31.109375 117.300781 30.824219 C 117.0625 32.160156 115.910156 32.832031 115.160156 33.785156 "/>
<path style=" stroke:none;fill-rule:nonzero;fill:rgb(0%,0%,0%);fill-opacity:1;" d="M 121.171875 178.675781 C 122.941406 180.34375 124.113281 182.824219 125.683594 184.621094 C 126.019531 185.007812 124.867188 185.945312 124.273438 185.902344 C 121.214844 185.71875 118.546875 186.28125 115.789062 185.261719 C 113.398438 184.375 113.335938 180.933594 110.0625 179.347656 C 108.976562 180.429688 109.675781 181.910156 109.183594 183.074219 C 109.152344 183.179688 108.566406 183.160156 108.542969 183.085938 C 107.507812 179.632812 104.808594 175.429688 108.191406 172.625 L 108.324219 173.835938 L 111.277344 177.605469 L 116.089844 181.636719 L 119.3125 181.363281 C 120.105469 179.214844 121.171875 178.675781 121.171875 178.675781 "/>
<path style=" stroke:none;fill-rule:nonzero;fill:rgb(0.784314%,43.921569%,62.352941%);fill-opacity:1;" d="M 94.816406 140.882812 C 95.378906 139.433594 97.757812 139.214844 99.328125 139.382812 C 100.027344 139.449219 100.5625 141.03125 101.242188 141.09375 C 102.546875 141.199219 103.597656 139.457031 104.996094 139.300781 C 105.40625 139.257812 105.75 140.003906 106.046875 140.503906 L 110.472656 139.160156 L 114.214844 141.179688 L 116.496094 137.816406 L 117.125 137.828125 C 117.152344 137.546875 117.953125 137.355469 117.960938 137.261719 C 119.472656 124.222656 120.023438 111.640625 121.601562 98.578125 C 121.832031 96.632812 121.175781 94.816406 121.320312 92.925781 C 121.894531 93.105469 122.355469 92.570312 122.921875 92.652344 C 122.773438 89.742188 121.664062 86.984375 121.582031 84.054688 C 125.515625 79.289062 129.621094 74.824219 132.871094 69.394531 C 133.457031 68.417969 133.710938 66.84375 133.304688 65.535156 C 131.992188 61.40625 130.546875 57.46875 129.074219 53.414062 C 126.875 47.394531 125.140625 41.347656 122.921875 35.394531 C 120.398438 34.542969 117.679688 34.648438 115.15625 33.785156 L 102.964844 32.308594 L 86.5 35.941406 C 82.761719 37.136719 79.121094 38.449219 75.785156 40.507812 C 75.125 46.222656 75.828125 51.820312 74.613281 57.691406 C 73.921875 61.050781 73.554688 64.09375 72.988281 67.410156 C 72.75 68.828125 72.152344 70.265625 72.636719 71.664062 C 73.222656 73.375 73.242188 75.433594 74.371094 76.609375 C 77.492188 79.875 81.75 81.621094 85.160156 84.589844 C 84.835938 86.929688 84.03125 89.074219 83.300781 91.320312 C 83.015625 92.183594 84.25 92.046875 84.199219 92.359375 C 83.925781 93.875 82.878906 95.300781 82.734375 96.71875 C 81.289062 110.316406 81.84375 123.738281 82.503906 137.261719 C 82.511719 137.558594 84.480469 136.757812 84.429688 137.535156 L 87.03125 140.097656 L 91.449219 138.753906 L 94.796875 141.179688 "/>
<path style=" stroke:none;fill-rule:nonzero;fill:rgb(0%,0%,0%);fill-opacity:1;" d="M 111.402344 28.675781 C 110.730469 27.824219 109.738281 27.320312 108.996094 26.53125 C 108.722656 26.792969 108.273438 27.070312 108.285156 27.332031 C 108.304688 28.316406 107.949219 30.070312 108.984375 30.019531 C 109.644531 29.988281 109.097656 28.496094 109.265625 27.601562 C 109.570312 28.265625 109.8125 29.023438 110.386719 29.398438 C 110.871094 29.710938 110.964844 28.832031 111.402344 28.675781 "/>
<path style=" stroke:none;fill-rule:nonzero;fill:rgb(100%,100%,100%);fill-opacity:1;" d="M 108.472656 39.929688 C 108.304688 39.859375 108.191406 39.628906 107.925781 39.699219 C 107.925781 39.34375 107.804688 38.871094 107.988281 38.679688 C 108.167969 38.503906 108.640625 38.628906 108.996094 38.628906 C 108.921875 38.890625 109.078125 39.035156 109.265625 39.164062 C 109.875 37.285156 109.316406 35.386719 109.058594 33.546875 C 108.964844 32.832031 107.445312 32.863281 107.015625 32.316406 C 106.179688 31.226562 105.710938 27.332031 106.828125 27.414062 C 109.683594 27.625 109.832031 22.027344 110.65625 18.898438 C 110.992188 17.613281 110.34375 17.15625 109.800781 15.777344 C 109.425781 15.945312 109.636719 16.441406 109.496094 16.503906 C 108.878906 16.816406 107.96875 17.207031 107.476562 16.753906 C 107.203125 16.503906 107.203125 15.582031 107.476562 15.335938 C 107.960938 14.90625 110.050781 14.582031 110.03125 14.644531 C 110.535156 13.175781 109.695312 11.996094 108.722656 10.664062 C 108.242188 11.421875 107.75 11.609375 106.851562 11.472656 C 107.421875 10.980469 107.394531 9.394531 106.703125 9.804688 C 105.574219 10.476562 105.71875 12.546875 103.910156 12.546875 C 103.953125 11.769531 103.953125 11 103.363281 10.402344 C 102.789062 11.25 102.128906 12.199219 101.253906 12.09375 C 100.675781 12.019531 100.863281 10.300781 100.019531 11.074219 C 99.035156 11.976562 100.738281 13.207031 100.375 14.414062 C 99.664062 16.828125 99.683594 19.167969 98.34375 21.457031 C 98.144531 21.804688 98.164062 22.359375 98.332031 22.742188 C 98.605469 23.328125 99.167969 23.738281 99.890625 23.570312 C 99.847656 24.609375 98.742188 24.023438 98.324219 24.671875 C 98.199219 24.910156 98.199219 25.191406 98.324219 25.429688 C 98.828125 26.289062 99.785156 26.351562 100.6875 26.257812 C 100.445312 27.875 98.613281 28.125 97.476562 27.332031 C 97.210938 28.988281 98.070312 30.429688 99.621094 30.824219 C 98.898438 31.835938 97.757812 31.003906 97.054688 31.519531 C 96.148438 32.191406 97.273438 33.515625 96.941406 34.59375 C 96.773438 34.207031 96.300781 34.238281 96.210938 34.375 C 95.414062 35.539062 96.417969 37.085938 96.667969 38.355469 C 96.847656 37.976562 97.203125 38.039062 97.464844 38.121094 C 97.953125 38.292969 97.683594 38.796875 97.746094 39.164062 C 97.476562 39.164062 97.179688 39.09375 96.960938 39.195312 C 96.199219 39.542969 97.238281 40.054688 96.941406 40.507812 C 99.484375 41.96875 102.371094 42.816406 105.214844 42.453125 C 105.972656 42.355469 106.933594 41.902344 107.65625 41.316406 C 106.976562 40.8125 105.59375 41.25 106.09375 39.984375 C 106.316406 39.429688 107.015625 39.625 107.351562 39.78125 C 107.761719 39.984375 107.300781 40.601562 107.417969 41.03125 C 107.476562 41.253906 107.6875 41.441406 107.90625 41.285156 C 108.609375 40.789062 109.425781 40.4375 109.726562 39.667969 C 109.757812 39.570312 109.445312 39.226562 109.253906 39.214844 C 108.890625 39.207031 109.070312 40.152344 108.472656 39.929688 "/>
<path style=" stroke:none;fill-rule:nonzero;fill:rgb(0%,0%,0%);fill-opacity:1;" d="M 105.214844 16.765625 C 105.113281 16.972656 104.871094 17.269531 104.71875 17.238281 C 103.5625 17.078125 102.382812 17.164062 101.765625 15.96875 C 103.199219 15.527344 104.675781 14.917969 105.960938 15.832031 C 106.304688 16.074219 105.449219 16.347656 105.214844 16.765625 M 108.847656 20.558594 C 108.542969 21.398438 107.507812 20.683594 106.714844 20.882812 C 107.203125 20.054688 107.59375 19.695312 108.597656 19.539062 C 108.609375 20 108.933594 20.324219 108.847656 20.558594 M 107.855469 23.195312 C 106.957031 23.300781 106.066406 23.539062 105.15625 23.257812 C 106.546875 22.40625 108.167969 22.816406 109.644531 22.4375 C 109.472656 22.582031 109.339844 22.75 109.445312 22.992188 C 108.910156 23.066406 108.378906 23.128906 107.855469 23.195312 M 105.207031 41.792969 C 104.652344 42.144531 103.660156 41.597656 103.960938 40.789062 C 104.097656 40.414062 104.484375 40.046875 104.96875 40.265625 C 105.550781 40.539062 105.835938 41.390625 105.207031 41.792969 M 102.832031 41.578125 C 102.488281 41.75 102.382812 41.160156 102.027344 41.316406 C 102.089844 40.949219 101.816406 40.414062 102.308594 40.289062 C 102.652344 40.203125 103.167969 40.023438 103.347656 40.519531 C 103.503906 40.96875 103.304688 41.367188 102.832031 41.578125 "/>
<path style=" stroke:none;fill-rule:nonzero;fill:rgb(0.784314%,43.921569%,62.352941%);fill-opacity:1;" d="M 100.6875 41.023438 C 100.394531 41.066406 99.984375 41.179688 99.921875 40.773438 C 99.871094 40.414062 99.671875 39.886719 100.175781 39.742188 C 100.875 39.53125 101.503906 40.097656 101.1875 40.761719 C 101.125 40.90625 100.875 40.992188 100.6875 41.023438 "/>
<path style=" stroke:none;fill-rule:nonzero;fill:rgb(0%,0%,0%);fill-opacity:1;" d="M 99.0625 39.921875 C 98.835938 40.035156 98.429688 40.089844 98.289062 39.699219 C 98.027344 38.953125 98.941406 38.652344 99.292969 38.964844 C 99.496094 39.140625 99.421875 39.742188 99.0625 39.921875 M 107.71875 24.324219 C 107.1875 24.355469 106.746094 24.179688 106.328125 23.929688 C 107.203125 23.8125 108.09375 23.707031 108.984375 23.601562 C 108.710938 24.09375 108.304688 24.292969 107.71875 24.324219 "/>
<path style=" stroke:none;fill-rule:nonzero;fill:rgb(100%,100%,100%);fill-opacity:1;" d="M 23.417969 30.429688 L 27.433594 42.523438 L 36.003906 62.949219 L 40.019531 41.714844 L 39.214844 29.890625 L 37.617188 28.273438 L 34.9375 33.25 L 26.097656 26.929688 C 26.097656 28.675781 23.417969 30.429688 23.417969 30.429688 "/>
<path style=" stroke:none;fill-rule:nonzero;fill:rgb(0.784314%,43.921569%,62.352941%);fill-opacity:1;" d="M 33.996094 33.515625 L 35.0625 34.1875 L 35.730469 33.378906 L 36.808594 34.859375 L 35.472656 36.738281 L 37.480469 55.558594 L 36.003906 63.492188 L 32.125 54.484375 L 33.996094 36.613281 L 32.925781 35.269531 L 33.996094 33.515625 "/>
<path style=" stroke:none;fill-rule:nonzero;fill:rgb(100%,100%,100%);fill-opacity:1;" d="M 97.078125 40.507812 L 98.007812 44.804688 L 108.324219 63.890625 L 111.945312 46.148438 L 109.53125 39.835938 C 105.113281 45.476562 97.078125 40.507812 97.078125 40.507812 "/>
<path style=" stroke:none;fill-rule:nonzero;fill:rgb(0%,0%,0%);fill-opacity:1;" d="M 87.429688 175.714844 L 83.945312 179.75 L 80.734375 181.09375 C 76.988281 182.4375 76.988281 179.75 76.988281 179.75 L 79.835938 173.492188 C 78.328125 175.417969 76.820312 177.332031 75.523438 179.515625 C 74.425781 181.363281 72.992188 183.367188 73.035156 185.53125 C 73.035156 185.902344 73.902344 186.550781 74.707031 186.308594 C 77.125 185.585938 79.6875 185.585938 81.84375 184.515625 C 83.757812 183.558594 84.585938 181.140625 86.226562 179.621094 C 86.855469 180.417969 86.207031 181.480469 86.761719 182.308594 C 87.804688 180.105469 87.890625 177.792969 88.039062 175.441406 L 87.429688 175.714844 "/>
<path style=" stroke:none;fill-rule:nonzero;fill:rgb(100%,100%,100%);fill-opacity:1;" d="M 122.523438 54.347656 C 119.847656 50.589844 117.167969 54.214844 117.167969 54.214844 C 115.6875 56.363281 117.566406 58.246094 117.566406 58.246094 L 117.835938 57.84375 C 116.226562 55.558594 118.234375 53.949219 118.234375 53.949219 C 120.246094 56.101562 122.523438 54.347656 122.523438 54.347656 "/>
<path style=" stroke:none;fill-rule:nonzero;fill:rgb(100%,100%,100%);fill-opacity:1;" d="M 121.53125 49.378906 C 121.539062 48.097656 119.992188 48.730469 119.4375 49.378906 C 119.257812 48.949219 119.804688 48.667969 119.679688 48.308594 C 119.5 47.828125 118.96875 47.984375 118.652344 48.089844 C 118.097656 48.289062 118.464844 48.929688 118.371094 49.378906 C 117.40625 48.75 116.300781 48.15625 116.046875 49.664062 C 115.890625 50.609375 117.335938 50.179688 117.566406 50.988281 C 117.117188 51.082031 116.484375 50.714844 116.277344 51.28125 C 116.171875 51.585938 116.015625 52.164062 116.507812 52.28125 C 117.167969 52.457031 117.804688 52.207031 118.371094 51.796875 C 118.296875 52.613281 117.867188 53.800781 119.152344 53.359375 C 119.910156 53.101562 119.707031 52.226562 119.707031 51.523438 C 119.96875 52.109375 120.695312 51.921875 121.046875 52.332031 C 121.308594 52.015625 121.445312 51.648438 121.613281 51.269531 C 122.085938 50.242188 120.734375 50.671875 120.515625 50.179688 C 121.164062 50.3125 121.519531 49.882812 121.53125 49.378906 "/>
</g>
</svg>
