<?xml version="1.0" encoding="UTF-8"?>
<svg xmlns="http://www.w3.org/2000/svg" xmlns:xlink="http://www.w3.org/1999/xlink" width="165pt" height="200pt" viewBox="0 0 165 200" version="1.1">
<g id="surface1">
<path style=" stroke:none;fill-rule:nonzero;fill:rgb(100%,100%,100%);fill-opacity:1;" d="M 26.066406 48.957031 L 1.214844 48.957031 L 1.214844 69.589844 L 23.085938 69.535156 L 25.6875 69.535156 "/>
<path style="fill:none;stroke-width:0.5;stroke-linecap:butt;stroke-linejoin:miter;stroke:rgb(3.137255%,50.588235%,75.686275%);stroke-opacity:1;stroke-miterlimit:4;" d="M 5.371259 10.036992 L 0.250331 10.036992 L 0.250331 14.265117 L 4.757102 14.254707 L 5.293182 14.254707 " transform="matrix(4.852941,0,0,4.878049,0,0)"/>
<path style=" stroke:none;fill-rule:nonzero;fill:rgb(100%,100%,100%);fill-opacity:1;" d="M 131.84375 69.535156 L 134.785156 69.535156 C 156.703125 69.535156 160.179688 89.351562 160.179688 89.351562 L 160.179688 68.78125 C 160.179688 68.78125 156.703125 48.960938 134.785156 48.960938 L 129.945312 48.960938 "/>
<path style="fill:none;stroke-width:0.5;stroke-linecap:butt;stroke-linejoin:miter;stroke:rgb(3.137255%,50.588235%,75.686275%);stroke-opacity:1;stroke-miterlimit:4;" d="M 27.167803 14.256309 L 27.773911 14.256309 C 32.290341 14.256309 33.006723 18.317871 33.006723 18.317871 L 33.006723 14.100156 C 33.006723 14.100156 32.290341 10.036992 27.773911 10.036992 L 26.77661 10.036992 " transform="matrix(4.852941,0,0,4.878049,0,0)"/>
<path style=" stroke:none;fill-rule:nonzero;fill:rgb(3.137255%,50.588235%,75.686275%);fill-opacity:1;" d="M 22.152344 191.683594 L 120.207031 191.683594 L 120.207031 19.828125 L 22.152344 19.828125 Z M 22.152344 191.683594 "/>
<path style="fill:none;stroke-width:0.5;stroke-linecap:butt;stroke-linejoin:miter;stroke:rgb(100%,100%,100%);stroke-opacity:1;stroke-miterlimit:4;" d="M 4.564725 39.294336 L 24.769934 39.294336 L 24.769934 4.063965 L 4.564725 4.063965 Z M 4.564725 39.294336 " transform="matrix(4.852941,0,0,4.878049,0,0)"/>
<path style=" stroke:none;fill-rule:nonzero;fill:rgb(3.137255%,50.588235%,75.686275%);fill-opacity:1;" d="M 22.152344 19.828125 L 40.871094 4.535156 L 135.421875 4.535156 L 120.207031 19.828125 L 22.152344 19.828125 "/>
<path style="fill:none;stroke-width:0.5;stroke-linecap:butt;stroke-linejoin:miter;stroke:rgb(100%,100%,100%);stroke-opacity:1;stroke-miterlimit:4;" d="M 4.564725 4.064766 L 8.421922 0.929707 L 27.905114 0.929707 L 24.769934 4.064766 Z M 4.564725 4.064766 " transform="matrix(4.852941,0,0,4.878049,0,0)"/>
<path style=" stroke:none;fill-rule:nonzero;fill:rgb(3.137255%,50.588235%,75.686275%);fill-opacity:1;" d="M 120.207031 191.679688 L 135.421875 172.859375 L 135.421875 4.535156 L 120.207031 19.828125 L 120.207031 191.679688 "/>
<path style="fill:none;stroke-width:0.5;stroke-linecap:butt;stroke-linejoin:miter;stroke:rgb(100%,100%,100%);stroke-opacity:1;stroke-miterlimit:4;" d="M 24.769934 39.294336 L 27.905114 35.436973 L 27.905114 0.929707 L 24.769934 4.064766 L 24.769934 39.295137 Z M 24.769934 39.294336 " transform="matrix(4.852941,0,0,4.878049,0,0)"/>
<path style=" stroke:none;fill-rule:nonzero;fill:rgb(100%,100%,100%);fill-opacity:1;" d="M 160.179688 67.632812 L 160.179688 92.023438 C 157.816406 120.992188 106.730469 119.464844 106.730469 119.464844 L 106.730469 140.804688 L 73.367188 107.269531 L 106.730469 73.730469 L 106.730469 95.074219 C 106.730469 95.074219 158.667969 96.601562 160.179688 67.632812 "/>
<path style="fill:none;stroke-width:0.5;stroke-linecap:butt;stroke-linejoin:miter;stroke:rgb(3.137255%,50.588235%,75.686275%);stroke-opacity:1;stroke-miterlimit:4;" d="M 33.006723 13.864727 L 33.006723 18.864805 C 32.519744 24.801797 21.992945 24.490293 21.992945 24.490293 L 21.992945 28.864961 L 15.118087 21.990254 L 21.992945 15.114746 L 21.992945 19.490215 C 21.992945 19.490215 32.695218 19.801719 33.006723 13.864727 " transform="matrix(4.852941,0,0,4.878049,0,0)"/>
<path style=" stroke:none;fill-rule:nonzero;fill:rgb(100%,100%,100%);fill-opacity:1;" d="M 39.265625 53.152344 L 33.648438 58.625 L 33.675781 32.738281 L 59.429688 32.738281 L 53.742188 38.601562 L 52.65625 39.761719 L 90.992188 78.234375 L 78.480469 90.828125 L 40.164062 52.316406 L 39.265625 53.152344 M 39.265625 161.359375 L 33.648438 155.878906 L 33.675781 181.796875 L 59.429688 181.796875 L 53.742188 175.90625 L 52.65625 174.742188 L 90.992188 136.273438 L 78.480469 123.703125 L 40.164062 162.191406 L 39.265625 161.359375 "/>
</g>
</svg>
