<?xml version="1.0" encoding="UTF-8"?>
<svg xmlns="http://www.w3.org/2000/svg" xmlns:xlink="http://www.w3.org/1999/xlink" width="297pt" height="200pt" viewBox="0 0 297 200" version="1.1">
<g id="surface1">
<path style=" stroke:none;fill-rule:nonzero;fill:rgb(0.784314%,42.352941%,60.784314%);fill-opacity:1;" d="M 3.445312 76.71875 L 91.242188 5.574219 L 293.984375 5.574219 L 221.308594 76.71875 L 3.445312 76.71875 "/>
<path style="fill:none;stroke-width:0.5;stroke-linecap:butt;stroke-linejoin:miter;stroke:rgb(100%,100%,100%);stroke-opacity:1;stroke-miterlimit:4;" d="M 0.707623 15.727344 L 18.739978 1.141914 L 60.380629 1.141914 L 45.453954 15.727344 Z M 0.707623 15.727344 " transform="matrix(4.868852,0,0,4.878049,0,0)"/>
<path style=" stroke:none;fill-rule:nonzero;fill:rgb(100%,100%,100%);fill-opacity:1;" d="M 165.273438 30.152344 L 163.160156 32.296875 L 103.511719 32.296875 L 97.566406 38.25 L 81.402344 31.175781 L 113.902344 21.863281 L 105.625 30.15625 L 165.269531 30.15625 "/>
<path style=" stroke:none;fill-rule:nonzero;fill:rgb(0.784314%,42.352941%,60.784314%);fill-opacity:1;" d="M 221.308594 192.144531 L 293.980469 117.953125 L 293.980469 5.6875 L 221.308594 76.722656 L 221.308594 192.144531 "/>
<path style="fill:none;stroke-width:0.5;stroke-linecap:butt;stroke-linejoin:miter;stroke:rgb(100%,100%,100%);stroke-opacity:1;stroke-miterlimit:4;" d="M 45.453954 39.389629 L 60.379827 24.180391 L 60.379827 1.16834 L 45.453954 15.725742 Z M 45.453954 39.389629 " transform="matrix(4.868852,0,0,4.878049,0,0)"/>
<path style=" stroke:none;fill-rule:nonzero;fill:rgb(100%,100%,100%);fill-opacity:1;" d="M 234.191406 18.894531 L 240.136719 12.933594 L 256.375 20.367188 L 223.800781 29.75 L 232.078125 21.027344 L 170.984375 21.027344 L 174.546875 18.894531 L 234.191406 18.894531 M 133.320312 63.6875 L 131.210938 65.835938 L 71.558594 65.835938 L 65.617188 71.785156 L 49.453125 64.710938 L 81.949219 55.398438 L 73.671875 63.691406 L 133.320312 63.691406 M 202.242188 52.425781 L 208.183594 46.472656 L 224.425781 53.902344 L 191.851562 63.289062 L 200.128906 54.566406 L 139.03125 54.566406 L 142.597656 52.425781 L 202.242188 52.425781 "/>
<path style=" stroke:none;fill-rule:nonzero;fill:rgb(0.784314%,42.352941%,60.784314%);fill-opacity:1;" d="M 3.730469 192.214844 L 221.308594 192.214844 L 221.308594 76.722656 L 3.730469 76.722656 Z M 3.730469 192.214844 "/>
<path style="fill:none;stroke-width:0.5;stroke-linecap:butt;stroke-linejoin:miter;stroke:rgb(100%,100%,100%);stroke-opacity:1;stroke-miterlimit:4;" d="M 0.766191 39.403242 L 45.453954 39.403242 L 45.453954 15.727344 L 0.766191 15.727344 Z M 0.766191 39.403242 " transform="matrix(4.868852,0,0,4.878049,0,0)"/>
<path style=" stroke:none;fill-rule:nonzero;fill:rgb(100%,100%,100%);fill-opacity:1;" d="M 38.5625 126.140625 L 71.464844 126.140625 L 71.464844 108.996094 L 38.5625 108.996094 Z M 146.703125 126.140625 L 179.605469 126.140625 L 179.605469 108.996094 L 146.699219 108.996094 L 146.699219 126.140625 Z M 38.5625 169.0625 L 71.464844 169.0625 L 71.464844 151.894531 L 38.5625 151.894531 Z M 146.703125 169.0625 L 179.605469 169.0625 L 179.605469 151.894531 L 146.699219 151.894531 L 146.699219 169.0625 Z M 146.703125 169.0625 "/>
<path style="fill:none;stroke-width:0.5;stroke-linecap:butt;stroke-linejoin:miter;stroke:rgb(100%,100%,100%);stroke-opacity:1;stroke-miterlimit:4;" d="M 12.505353 24.101113 L 33.266309 24.101113 M 12.505353 32.900098 L 33.266309 32.900098 M 11.298703 32.900098 L 33.266309 24.100313 M 11.298703 24.101113 L 33.266309 32.900098 " transform="matrix(4.868852,0,0,4.878049,0,0)"/>
<path style=" stroke:none;fill-rule:nonzero;fill:rgb(100%,100%,100%);fill-opacity:1;" d="M 256.0625 91.816406 L 264.082031 50.902344 L 271.871094 42.394531 L 271.925781 33.9375 L 285.382812 33.464844 L 273.160156 59.214844 L 273.394531 46.972656 L 267.859375 54.613281 L 260.582031 93.4375 L 258.824219 101.683594 L 249.082031 146.101562 L 240.710938 155.75 L 240.710938 163.945312 L 228.011719 168.035156 L 239.6875 137.9375 L 239.761719 149.703125 L 245.011719 143.292969 L 254.308594 100.0625 L 256.0625 91.820312 "/>
<path style=" stroke:none;fill-rule:nonzero;fill:rgb(100%,100%,100%);fill-opacity:1;" d="M 238.738281 83.980469 L 238.660156 83.917969 L 243.824219 79.195312 L 253.644531 97.984375 L 257.398438 104.203125 L 267.785156 122.023438 L 276.867188 115.589844 L 276.515625 126.359375 L 288.945312 102.511719 L 276.207031 103.535156 L 276.109375 110.78125 L 268.785156 116.613281 L 257.5625 97.015625 L 254.664062 91.390625 L 244.324219 73.433594 L 238.855469 78.316406 L 238.808594 66.710938 L 225.710938 93.992188 L 238.640625 91.316406 L 238.738281 83.980469 "/>
</g>
</svg>
