<?xml version="1.0" encoding="UTF-8"?>
<svg xmlns="http://www.w3.org/2000/svg" xmlns:xlink="http://www.w3.org/1999/xlink" width="268pt" height="200pt" viewBox="0 0 268 200" version="1.1">
<g id="surface1">
<path style=" stroke:none;fill-rule:nonzero;fill:rgb(17.254902%,41.568627%,63.529412%);fill-opacity:1;" d="M 3.449219 191.171875 L 235.804688 191.171875 L 235.804688 38.351562 L 3.449219 38.351562 Z M 3.449219 191.171875 "/>
<path style="fill:none;stroke-width:0.5;stroke-linecap:butt;stroke-linejoin:miter;stroke:rgb(100%,100%,100%);stroke-opacity:1;stroke-miterlimit:4;" d="M 0.707862 39.190234 L 48.392753 39.190234 L 48.392753 7.862871 L 0.707862 7.862871 Z M 0.707862 39.190234 " transform="matrix(4.872727,0,0,4.878049,0,0)"/>
<path style=" stroke:none;fill-rule:nonzero;fill:rgb(17.254902%,41.568627%,63.529412%);fill-opacity:1;" d="M 262.527344 152.042969 L 235.804688 191.175781 L 235.804688 38.351562 L 262.527344 5.914062 L 262.527344 152.046875 "/>
<path style="fill:none;stroke-width:0.5;stroke-linecap:butt;stroke-linejoin:miter;stroke:rgb(100%,100%,100%);stroke-opacity:1;stroke-miterlimit:4;" d="M 53.87688 31.168008 L 48.392753 39.190234 L 48.392753 7.862871 L 53.87688 1.213184 Z M 53.87688 31.168008 " transform="matrix(4.872727,0,0,4.878049,0,0)"/>
<path style=" stroke:none;fill-rule:nonzero;fill:rgb(17.254902%,41.568627%,63.529412%);fill-opacity:1;" d="M 43.539062 5.914062 L 262.527344 5.914062 L 235.804688 38.351562 L 3.449219 38.351562 L 43.539062 5.914062 "/>
<path style="fill:none;stroke-width:0.5;stroke-linecap:butt;stroke-linejoin:miter;stroke:rgb(100%,100%,100%);stroke-opacity:1;stroke-miterlimit:4;" d="M 8.935255 1.213184 L 53.87688 1.213184 L 48.392753 7.862871 L 0.707862 7.862871 Z M 8.935255 1.213184 " transform="matrix(4.872727,0,0,4.878049,0,0)"/>
<path style=" stroke:none;fill-rule:nonzero;fill:rgb(100%,100%,100%);fill-opacity:1;" d="M 44.136719 82.230469 L 44.113281 91.996094 L 21.414062 79.105469 L 44.136719 66.25 L 44.136719 76.015625 L 43.941406 75.5625 L 83.152344 75.5625 L 83.175781 65.820312 L 105.902344 78.707031 L 83.152344 91.566406 L 83.152344 81.796875 L 43.945312 81.796875 L 44.136719 82.234375 M 44.136719 153.117188 L 44.113281 162.878906 L 21.414062 149.972656 L 44.136719 137.105469 L 44.136719 146.875 L 43.941406 146.445312 L 83.152344 146.417969 L 83.175781 136.679688 L 105.902344 149.566406 L 83.152344 162.425781 L 83.152344 152.660156 L 43.945312 152.660156 L 44.136719 153.117188 M 44.136719 118.457031 L 44.113281 128.222656 L 21.414062 115.335938 L 44.136719 102.472656 L 44.136719 112.242188 L 43.941406 111.785156 L 71.277344 111.785156 L 71.277344 102.046875 L 94.003906 114.933594 L 71.28125 127.789062 L 71.253906 118.035156 L 43.953125 118.035156 L 44.140625 118.457031 M 220.394531 143.132812 C 216.539062 143.105469 213.492188 132.007812 213.605469 118.359375 C 213.726562 104.738281 216.9375 93.707031 220.792969 93.707031 L 191.886719 93.492188 C 188.035156 93.445312 184.824219 104.472656 184.699219 118.144531 C 184.609375 131.777344 187.628906 142.875 191.484375 142.898438 L 220.394531 143.132812 "/>
<path style=" stroke:none;fill-rule:nonzero;fill:rgb(17.254902%,41.568627%,63.529412%);fill-opacity:1;" d="M 213.605469 118.378906 C 213.519531 131.125 216.539062 141.488281 220.417969 141.511719 C 224.265625 141.535156 227.484375 131.222656 227.574219 118.507812 C 227.699219 105.738281 224.652344 95.378906 220.796875 95.351562 C 216.914062 95.300781 213.734375 105.621094 213.605469 118.386719 "/>
<path style="fill:none;stroke-width:0.5;stroke-linecap:butt;stroke-linejoin:miter;stroke:rgb(100%,100%,100%);stroke-opacity:1;stroke-miterlimit:4;" d="M 43.836943 24.270078 C 43.819307 26.882227 44.438987 29.005098 45.235031 29.009902 C 46.024662 29.016309 46.685226 26.899844 46.703664 24.293301 C 46.729317 21.677148 46.104026 19.551875 45.312792 19.547871 C 44.515946 19.538262 43.863398 21.652324 43.836943 24.269277 Z M 43.836943 24.270078 " transform="matrix(4.872727,0,0,4.878049,0,0)"/>
<path style=" stroke:none;fill-rule:nonzero;fill:rgb(100%,100%,100%);fill-opacity:1;" d="M 198.191406 116.574219 C 197.980469 143.609375 175.925781 165.335938 148.890625 165.113281 C 121.914062 164.878906 100.210938 142.800781 100.457031 115.765625 C 100.664062 88.757812 122.71875 67.007812 149.703125 67.230469 C 176.734375 67.464844 198.433594 89.570312 198.1875 116.574219 "/>
<path style=" stroke:none;fill-rule:nonzero;fill:rgb(17.254902%,41.568627%,63.529412%);fill-opacity:1;" d="M 173.167969 117.269531 C 173.0625 130.238281 162.472656 140.667969 149.515625 140.5625 C 136.558594 140.453125 126.140625 129.855469 126.246094 116.882812 C 126.292969 110.652344 128.808594 104.699219 133.246094 100.328125 C 137.679688 95.960938 143.667969 93.535156 149.890625 93.589844 C 156.117188 93.632812 162.066406 96.152344 166.433594 100.59375 C 170.800781 105.039062 173.222656 111.035156 173.167969 117.269531 "/>
</g>
</svg>
