<?xml version="1.0" encoding="UTF-8"?>
<svg xmlns="http://www.w3.org/2000/svg" xmlns:xlink="http://www.w3.org/1999/xlink" width="150pt" height="200pt" viewBox="0 0 150 200" version="1.1">
<g id="surface1">
<path style=" stroke:none;fill-rule:nonzero;fill:rgb(13.72549%,12.156863%,12.54902%);fill-opacity:1;" d="M 139.914062 56.421875 L 116.566406 78.566406 L 3.398438 78.566406 L 32.71875 56.421875 L 139.910156 56.421875 "/>
<path style="fill:none;stroke-width:0.5;stroke-linecap:round;stroke-linejoin:round;stroke:rgb(100%,100%,100%);stroke-opacity:1;stroke-miterlimit:4;" d="M 30.781094 12.412812 L 25.644609 17.284609 L 0.747656 17.284609 L 7.198125 12.412812 Z M 30.781094 12.412812 " transform="matrix(4.545455,0,0,4.545455,0,0)"/>
<path style="fill-rule:nonzero;fill:rgb(3.137255%,48.235294%,73.333333%);fill-opacity:1;stroke-width:0.5;stroke-linecap:butt;stroke-linejoin:miter;stroke:rgb(100%,100%,100%);stroke-opacity:1;stroke-miterlimit:4;" d="M 0.747656 41.909141 L 25.644609 41.909141 L 25.644609 17.284609 L 0.747656 17.284609 L 0.747656 41.91 Z M 0.747656 41.909141 " transform="matrix(4.545455,0,0,4.545455,0,0)"/>
<path style=" stroke:none;fill-rule:nonzero;fill:rgb(3.137255%,48.235294%,73.333333%);fill-opacity:1;" d="M 137.582031 169.476562 L 137.582031 57.550781 L 115.898438 78.566406 L 115.898438 190.5 L 137.582031 169.476562 "/>
<path style="fill:none;stroke-width:0.5;stroke-linecap:butt;stroke-linejoin:miter;stroke:rgb(100%,100%,100%);stroke-opacity:1;stroke-miterlimit:4;" d="M 30.268047 37.284844 L 30.268047 12.662031 L 25.497656 17.284609 L 25.497656 41.91 Z M 30.268047 37.284844 " transform="matrix(4.545455,0,0,4.545455,0,0)"/>
<path style=" stroke:none;fill-rule:nonzero;fill:rgb(100%,100%,100%);fill-opacity:1;" d="M 43.589844 131.527344 L 19.246094 131.527344 L 19.246094 125.246094 L 10.054688 134.5 L 19.246094 143.777344 L 19.246094 137.492188 L 43.589844 137.492188 L 43.589844 131.527344 M 57.378906 151.253906 L 57.378906 175.628906 L 51.066406 175.628906 L 60.34375 184.816406 L 69.621094 175.628906 L 63.339844 175.628906 L 63.339844 151.253906 L 57.371094 151.253906 M 57.378906 118.453125 L 57.378906 94.109375 L 51.066406 94.109375 L 60.34375 84.921875 L 69.621094 94.105469 L 63.339844 94.105469 L 63.339844 118.453125 L 57.371094 118.453125 M 77.101562 137.492188 L 101.449219 137.492188 L 101.449219 143.777344 L 110.664062 134.5 L 101.449219 125.246094 L 101.449219 131.527344 L 77.101562 131.527344 L 77.101562 137.496094 "/>
<path style="fill:none;stroke-width:0.5;stroke-linecap:butt;stroke-linejoin:miter;stroke:rgb(100%,100%,100%);stroke-opacity:1;stroke-miterlimit:4;" d="M 21.900312 38.194062 C 20.893984 39.257969 16.269687 36.337812 11.578359 31.674844 C 6.885312 27.012734 3.896406 22.373828 4.901875 21.309062 C 5.909062 20.248594 10.531641 23.16875 15.224687 27.831719 C 19.917734 32.490391 22.904922 37.133594 21.900312 38.194062 Z M 21.900312 38.194062 " transform="matrix(4.545455,0,0,4.545455,0,0)"/>
<path style="fill:none;stroke-width:0.5;stroke-linecap:butt;stroke-linejoin:miter;stroke:rgb(100%,100%,100%);stroke-opacity:1;stroke-miterlimit:4;" d="M 21.631328 21.231719 C 22.690078 22.236328 19.769922 26.857187 15.112109 31.547656 C 10.449141 36.239844 5.805937 39.22875 4.746328 38.223281 C 3.680703 37.217812 6.600859 32.597812 11.266406 27.904766 C 15.927656 23.212578 20.565703 20.225391 21.631328 21.231719 Z M 21.631328 21.231719 " transform="matrix(4.545455,0,0,4.545455,0,0)"/>
<path style=" stroke:none;fill-rule:nonzero;fill:rgb(74.901961%,74.509804%,74.509804%);fill-opacity:1;" d="M 70.335938 148.660156 C 74.203125 145.960938 76.835938 141.835938 77.65625 137.191406 C 78.476562 132.550781 77.414062 127.773438 74.703125 123.914062 C 71.113281 118.589844 64.929688 115.613281 58.527344 116.136719 C 52.125 116.65625 46.503906 120.59375 43.820312 126.429688 C 41.136719 132.265625 41.8125 139.09375 45.585938 144.289062 C 48.285156 148.15625 52.410156 150.792969 57.054688 151.613281 C 61.699219 152.429688 66.476562 151.367188 70.335938 148.660156 "/>
<path style=" stroke:none;fill-rule:nonzero;fill:rgb(3.137255%,48.235294%,73.333333%);fill-opacity:1;" d="M 139.914062 3.492188 L 116.566406 25.636719 L 3.398438 25.636719 L 32.71875 3.492188 L 139.910156 3.492188 "/>
<path style="fill:none;stroke-width:0.5;stroke-linecap:butt;stroke-linejoin:miter;stroke:rgb(100%,100%,100%);stroke-opacity:1;stroke-miterlimit:4;" d="M 30.781094 0.767422 L 25.644609 5.640078 L 0.747656 5.640078 L 7.198125 0.767422 Z M 30.781094 0.767422 " transform="matrix(4.545455,0,0,4.545455,0,0)"/>
<path style="fill-rule:nonzero;fill:rgb(3.137255%,48.235294%,73.333333%);fill-opacity:1;stroke-width:0.5;stroke-linecap:butt;stroke-linejoin:miter;stroke:rgb(100%,100%,100%);stroke-opacity:1;stroke-miterlimit:4;" d="M 0.747656 17.460781 L 25.644609 17.460781 L 25.644609 5.640937 L 0.747656 5.640937 Z M 0.747656 17.460781 " transform="matrix(4.545455,0,0,4.545455,0,0)"/>
<path style=" stroke:none;fill-rule:nonzero;fill:rgb(3.137255%,48.235294%,73.333333%);fill-opacity:1;" d="M 137.582031 58.351562 L 137.582031 4.621094 L 115.898438 25.636719 L 115.898438 79.367188 L 137.582031 58.351562 "/>
<path style="fill:none;stroke-width:0.5;stroke-linecap:butt;stroke-linejoin:miter;stroke:rgb(100%,100%,100%);stroke-opacity:1;stroke-miterlimit:4;" d="M 30.268047 12.838203 L 30.268047 1.016641 L 25.497656 5.640078 L 25.497656 17.460781 Z M 30.268047 12.838203 " transform="matrix(4.545455,0,0,4.545455,0,0)"/>
<path style=" stroke:none;fill-rule:nonzero;fill:rgb(100%,100%,100%);fill-opacity:1;" d="M 13.539062 45.453125 L 35.671875 45.453125 L 35.671875 33.914062 L 13.535156 33.914062 L 13.535156 45.453125 Z M 86.25 45.453125 L 108.359375 45.453125 L 108.359375 33.914062 L 86.25 33.914062 Z M 13.539062 74.238281 L 35.671875 74.238281 L 35.671875 62.726562 L 13.535156 62.726562 L 13.535156 74.246094 Z M 86.25 74.238281 L 108.359375 74.238281 L 108.359375 62.726562 L 86.25 62.726562 L 86.25 74.246094 Z M 86.25 74.238281 "/>
<path style="fill:none;stroke-width:0.5;stroke-linecap:butt;stroke-linejoin:miter;stroke:rgb(100%,100%,100%);stroke-opacity:1;stroke-miterlimit:4;" d="M 6.28375 8.73125 L 21.23 8.73125 M 6.28375 15.24875 L 21.23 15.24875 " transform="matrix(4.545455,0,0,4.545455,0,0)"/>
<path style="fill-rule:nonzero;fill:rgb(13.72549%,12.156863%,12.54902%);fill-opacity:1;stroke-width:0.5;stroke-linecap:butt;stroke-linejoin:miter;stroke:rgb(100%,100%,100%);stroke-opacity:1;stroke-miterlimit:4;" d="M 5.414922 15.069141 L 21.23 8.730391 " transform="matrix(4.545455,0,0,4.545455,0,0)"/>
<path style="fill-rule:nonzero;fill:rgb(13.72549%,12.156863%,12.54902%);fill-opacity:1;stroke-width:0.5;stroke-linecap:butt;stroke-linejoin:miter;stroke:rgb(100%,100%,100%);stroke-opacity:1;stroke-miterlimit:4;" d="M 5.414922 8.73125 L 21.23 15.07 " transform="matrix(4.545455,0,0,4.545455,0,0)"/>
</g>
</svg>
