<?xml version="1.0" encoding="UTF-8"?>
<svg xmlns="http://www.w3.org/2000/svg" xmlns:xlink="http://www.w3.org/1999/xlink" width="268pt" height="200pt" viewBox="0 0 268 200" version="1.1">
<g id="surface1">
<path style="fill-rule:nonzero;fill:rgb(3.137255%,48.235294%,73.333333%);fill-opacity:1;stroke-width:0.5;stroke-linecap:butt;stroke-linejoin:miter;stroke:rgb(100%,100%,100%);stroke-opacity:1;stroke-miterlimit:4;" d="M 0.707862 39.188633 L 48.392753 39.188633 L 48.392753 7.86127 L 0.707862 7.86127 L 0.707862 39.190234 Z M 0.707862 39.188633 " transform="matrix(4.872727,0,0,4.878049,0,0)"/>
<path style=" stroke:none;fill-rule:nonzero;fill:rgb(3.137255%,48.235294%,73.333333%);fill-opacity:1;" d="M 262.527344 152.035156 L 235.804688 191.171875 L 235.804688 38.339844 L 262.527344 5.902344 L 262.527344 152.027344 "/>
<path style="fill:none;stroke-width:0.5;stroke-linecap:butt;stroke-linejoin:miter;stroke:rgb(100%,100%,100%);stroke-opacity:1;stroke-miterlimit:4;" d="M 53.87688 31.165605 L 48.392753 39.188633 L 48.392753 7.86127 L 53.87688 1.210781 L 53.87688 31.167207 Z M 53.87688 31.165605 " transform="matrix(4.872727,0,0,4.878049,0,0)"/>
<path style=" stroke:none;fill-rule:nonzero;fill:rgb(3.137255%,48.235294%,73.333333%);fill-opacity:1;" d="M 43.539062 5.90625 L 262.527344 5.90625 L 235.804688 38.347656 L 3.449219 38.347656 L 43.539062 5.90625 "/>
<path style="fill:none;stroke-width:0.5;stroke-linecap:butt;stroke-linejoin:miter;stroke:rgb(100%,100%,100%);stroke-opacity:1;stroke-miterlimit:4;" d="M 8.935255 1.210781 L 53.87688 1.210781 L 48.392753 7.86127 L 0.707862 7.86127 Z M 8.935255 1.210781 " transform="matrix(4.872727,0,0,4.878049,0,0)"/>
<path style=" stroke:none;fill-rule:nonzero;fill:rgb(100%,100%,100%);fill-opacity:1;" d="M 115.304688 161.585938 L 115.277344 140.90625 L 121.457031 140.90625 L 121.480469 161.585938 L 131.144531 161.585938 L 118.394531 184.140625 L 105.640625 161.585938 L 115.304688 161.585938 M 43.039062 156.152344 L 59.246094 128.121094 L 52.746094 124.375 L 36.570312 152.414062 L 26.433594 146.582031 L 26.148438 177.953125 L 53.15625 162.035156 L 43.039062 156.152344 M 195.808594 156.152344 L 179.609375 128.121094 L 186.085938 124.375 L 202.285156 152.414062 L 212.421875 146.582031 L 212.679688 177.953125 L 185.675781 162.035156 L 195.808594 156.152344 M 155.53125 159.058594 L 150.152344 139.121094 L 156.128906 137.507812 L 161.488281 157.457031 L 170.832031 154.984375 L 164.332031 180.066406 L 146.183594 161.585938 L 155.53125 159.058594 M 82.128906 159.058594 L 87.507812 139.121094 L 81.539062 137.507812 L 76.160156 157.457031 L 66.835938 154.984375 L 73.328125 180.066406 L 91.484375 161.585938 L 82.128906 159.058594 M 68.097656 75.574219 L 68.121094 107.945312 L 60.621094 107.945312 L 60.597656 75.574219 L 48.917969 75.554688 L 64.359375 48.257812 L 79.777344 75.554688 L 68.097656 75.574219 M 173.78125 75.574219 L 173.804688 107.945312 L 166.3125 107.945312 L 166.292969 75.574219 L 154.605469 75.554688 L 170.046875 48.257812 L 185.460938 75.554688 L 173.78125 75.574219 "/>
<path style=" stroke:none;fill-rule:nonzero;fill:rgb(3.137255%,48.235294%,73.333333%);fill-opacity:1;" d="M 146.183594 107.28125 C 146.183594 122.742188 133.667969 135.273438 118.226562 135.28125 C 102.976562 134.996094 90.765625 122.542969 90.765625 107.273438 C 90.765625 92.003906 102.976562 79.546875 118.226562 79.261719 C 133.679688 79.269531 146.199219 91.820312 146.183594 107.289062 "/>
<path style="fill:none;stroke-width:1;stroke-linecap:butt;stroke-linejoin:miter;stroke:rgb(100%,100%,100%);stroke-opacity:1;stroke-miterlimit:4;" d="M 30.000364 21.992656 C 30.000364 25.162148 27.431859 27.731055 24.262914 27.732656 C 21.13325 27.674199 18.627274 25.121309 18.627274 21.991055 C 18.627274 18.860801 21.13325 16.307109 24.262914 16.248652 C 27.434264 16.250254 30.003571 18.823164 30.000364 21.994258 Z M 30.000364 21.992656 " transform="matrix(4.872727,0,0,4.878049,0,0)"/>
</g>
</svg>
