<?xml version="1.0" encoding="UTF-8"?>
<svg xmlns="http://www.w3.org/2000/svg" xmlns:xlink="http://www.w3.org/1999/xlink" width="238pt" height="200pt" viewBox="0 0 238 200" version="1.1">
<g id="surface1">
<path style=" stroke:none;fill-rule:nonzero;fill:rgb(0.784314%,43.921569%,62.352941%);fill-opacity:1;" d="M 176.535156 158.070312 C 176.535156 131.40625 149.96875 111.40625 116.753906 111.40625 C 86.863281 111.40625 60.296875 131.40625 60.296875 158.070312 C 60.296875 181.394531 86.863281 201.417969 116.753906 201.417969 C 149.96875 201.417969 176.535156 181.394531 176.535156 158.070312 "/>
<path style="fill:none;stroke-width:0.5;stroke-linecap:butt;stroke-linejoin:miter;stroke:rgb(100%,100%,100%);stroke-opacity:1;stroke-miterlimit:4;" d="M 31.895007 28.452656 C 31.895007 23.653125 27.095194 20.053125 21.094193 20.053125 C 15.693786 20.053125 10.893973 23.653125 10.893973 28.452656 C 10.893973 32.651016 15.693786 36.255234 21.094193 36.255234 C 27.095194 36.255234 31.895007 32.651016 31.895007 28.452656 Z M 31.895007 28.452656 " transform="matrix(5.534884,0,0,5.555556,0,0)"/>
<path style=" stroke:none;fill-rule:evenodd;fill:rgb(0.784314%,43.921569%,62.352941%);fill-opacity:1;" d="M 156.585938 156.605469 L 179.855469 156.605469 L 196.457031 159.9375 L 219.691406 159.9375 L 226.339844 156.605469 L 229.660156 149.929688 L 232.992188 143.285156 L 229.664062 133.273438 L 209.746094 113.277344 L 196.457031 96.601562 L 179.855469 79.945312 L 169.886719 66.59375 L 159.902344 49.945312 L 149.960938 36.601562 L 139.984375 19.945312 L 136.660156 6.59375 L 123.394531 -0.078125 L 113.425781 -0.078125 L 100.125 6.589844 L 96.828125 16.605469 L 90.179688 29.921875 L 80.210938 43.265625 L 73.585938 56.582031 L 53.636719 83.25 L 40.371094 99.9375 L 7.15625 133.273438 L 3.835938 139.9375 L 3.835938 143.285156 L 10.484375 156.605469 L 17.128906 156.605469 L 23.75 159.9375 L 37.046875 159.9375 L 50.3125 156.605469 L 156.582031 156.605469 "/>
<path style=" stroke:none;fill-rule:nonzero;fill:rgb(0.784314%,43.921569%,62.352941%);fill-opacity:1;" d="M 179.855469 99.9375 C 179.855469 73.273438 149.96875 53.25 116.753906 53.25 C 83.53125 53.25 56.964844 73.273438 56.964844 99.9375 C 56.964844 126.601562 83.53125 146.617188 116.753906 146.617188 C 149.96875 146.617188 179.855469 126.601562 179.855469 99.9375 "/>
<path style="fill:none;stroke-width:0.5;stroke-linecap:butt;stroke-linejoin:miter;stroke:rgb(100%,100%,100%);stroke-opacity:1;stroke-miterlimit:4;" d="M 32.494896 17.98875 C 32.494896 13.189219 27.095194 9.585 21.094193 9.585 C 15.09178 9.585 10.291968 13.189219 10.291968 17.98875 C 10.291968 22.788281 15.09178 26.391094 21.094193 26.391094 C 27.095194 26.391094 32.494896 22.788281 32.494896 17.98875 Z M 32.494896 17.98875 " transform="matrix(5.534884,0,0,5.555556,0,0)"/>
<path style=" stroke:none;fill-rule:nonzero;fill:rgb(100%,100%,100%);fill-opacity:1;" d="M 123.398438 23.273438 L 126.722656 23.273438 L 126.722656 -0.0820312 L 123.398438 -0.0820312 Z M 116.753906 23.273438 L 120.074219 23.273438 L 120.074219 -0.0820312 L 116.753906 -0.0820312 Z M 110.105469 23.273438 L 113.425781 23.273438 L 113.425781 -0.0820312 L 110.105469 -0.0820312 Z M 7.671875 157.714844 L 9.597656 160.429688 L 28.558594 146.945312 L 26.644531 144.210938 L 7.664062 157.710938 M 3.839844 152.265625 L 5.757812 155 L 24.722656 141.496094 L 22.808594 138.777344 L 3.839844 152.265625 M 0 146.839844 L 1.914062 149.550781 L 20.894531 136.070312 L 18.972656 133.328125 L 0 146.832031 M 230.992188 157.714844 L 229.066406 160.429688 L 210.097656 146.945312 L 212.019531 144.210938 L 230.992188 157.710938 M 234.824219 152.265625 L 232.90625 155 L 213.933594 141.496094 L 215.847656 138.777344 L 234.824219 152.265625 M 238.664062 146.839844 L 236.75 149.550781 L 217.777344 136.070312 L 219.691406 133.328125 L 238.664062 146.839844 "/>
<path style="fill-rule:evenodd;fill:rgb(0%,0%,0%);fill-opacity:1;stroke-width:0.4;stroke-linecap:butt;stroke-linejoin:miter;stroke:rgb(100%,100%,100%);stroke-opacity:1;stroke-miterlimit:4;" d="M 17.940192 29.922187 L 19.77585 29.922187 L 19.77585 28.925859 L 17.940192 28.925859 Z M 17.940192 29.922187 " transform="matrix(5.534884,0,0,5.555556,0,0)"/>
<path style="fill-rule:evenodd;fill:rgb(0%,0%,0%);fill-opacity:1;stroke-width:0.4;stroke-linecap:butt;stroke-linejoin:miter;stroke:rgb(100%,100%,100%);stroke-opacity:1;stroke-miterlimit:4;" d="M 20.27411 29.922187 L 22.109769 29.922187 L 22.109769 28.925859 L 20.27411 28.925859 Z M 20.27411 29.922187 " transform="matrix(5.534884,0,0,5.555556,0,0)"/>
<path style="fill-rule:evenodd;fill:rgb(0%,0%,0%);fill-opacity:1;stroke-width:0.4;stroke-linecap:butt;stroke-linejoin:miter;stroke:rgb(100%,100%,100%);stroke-opacity:1;stroke-miterlimit:4;" d="M 22.607323 29.922187 L 24.443688 29.922187 L 24.443688 28.925859 L 22.607323 28.925859 Z M 22.607323 29.922187 " transform="matrix(5.534884,0,0,5.555556,0,0)"/>
<path style="fill-rule:evenodd;fill:rgb(0%,0%,0%);fill-opacity:1;stroke-width:0.4;stroke-linecap:butt;stroke-linejoin:miter;stroke:rgb(100%,100%,100%);stroke-opacity:1;stroke-miterlimit:4;" d="M 17.940192 31.592109 L 19.77585 31.592109 L 19.77585 30.592266 L 17.940192 30.592266 Z M 17.940192 31.592109 " transform="matrix(5.534884,0,0,5.555556,0,0)"/>
<path style="fill-rule:evenodd;fill:rgb(0%,0%,0%);fill-opacity:1;stroke-width:0.4;stroke-linecap:butt;stroke-linejoin:miter;stroke:rgb(100%,100%,100%);stroke-opacity:1;stroke-miterlimit:4;" d="M 20.27411 31.592109 L 22.109769 31.592109 L 22.109769 30.592266 L 20.27411 30.592266 Z M 20.27411 31.592109 " transform="matrix(5.534884,0,0,5.555556,0,0)"/>
<path style="fill-rule:evenodd;fill:rgb(0%,0%,0%);fill-opacity:1;stroke-width:0.4;stroke-linecap:butt;stroke-linejoin:miter;stroke:rgb(100%,100%,100%);stroke-opacity:1;stroke-miterlimit:4;" d="M 22.607323 31.592109 L 24.443688 31.592109 L 24.443688 30.592266 L 22.607323 30.592266 Z M 22.607323 31.592109 " transform="matrix(5.534884,0,0,5.555556,0,0)"/>
<path style="fill-rule:evenodd;fill:rgb(0%,0%,0%);fill-opacity:1;stroke-width:0.4;stroke-linecap:butt;stroke-linejoin:miter;stroke:rgb(100%,100%,100%);stroke-opacity:1;stroke-miterlimit:4;" d="M 17.940192 33.257109 L 19.77585 33.257109 L 19.77585 32.257266 L 17.940192 32.257266 Z M 17.940192 33.257109 " transform="matrix(5.534884,0,0,5.555556,0,0)"/>
<path style="fill-rule:evenodd;fill:rgb(0%,0%,0%);fill-opacity:1;stroke-width:0.4;stroke-linecap:butt;stroke-linejoin:miter;stroke:rgb(100%,100%,100%);stroke-opacity:1;stroke-miterlimit:4;" d="M 20.27411 33.257109 L 22.109769 33.257109 L 22.109769 32.257266 L 20.27411 32.257266 Z M 20.27411 33.257109 " transform="matrix(5.534884,0,0,5.555556,0,0)"/>
<path style="fill-rule:evenodd;fill:rgb(0%,0%,0%);fill-opacity:1;stroke-width:0.4;stroke-linecap:butt;stroke-linejoin:miter;stroke:rgb(100%,100%,100%);stroke-opacity:1;stroke-miterlimit:4;" d="M 22.607323 33.257109 L 24.443688 33.257109 L 24.443688 32.257266 L 22.607323 32.257266 Z M 22.607323 33.257109 " transform="matrix(5.534884,0,0,5.555556,0,0)"/>
</g>
</svg>
