<?xml version="1.0" encoding="UTF-8"?>
<svg xmlns="http://www.w3.org/2000/svg" xmlns:xlink="http://www.w3.org/1999/xlink" width="184pt" height="200pt" viewBox="0 0 184 200" version="1.1">
<defs>
<clipPath id="clip1">
  <path d="M 143 0 L 184 0 L 184 191.210938 L 143 191.210938 Z M 143 0 "/>
</clipPath>
</defs>
<g id="surface1">
<path style="fill-rule:nonzero;fill:rgb(0.784314%,43.921569%,62.352941%);fill-opacity:1;stroke-width:4;stroke-linecap:butt;stroke-linejoin:miter;stroke:rgb(100%,100%,100%);stroke-opacity:1;stroke-miterlimit:4;" d="M 5.469893 14.685697 L 232.267552 14.685697 L 232.267552 245.420373 L 5.469893 245.420373 Z M 5.469893 14.685697 " transform="matrix(0.683429,0,0,-0.684211,0,197.368421)"/>
<path style=" stroke:none;fill-rule:nonzero;fill:rgb(0%,0%,0%);fill-opacity:1;" d="M 132.949219 85.492188 L 132.949219 120.023438 L 153.746094 103.425781 L 132.949219 85.492188 M 68.929688 56.605469 L 103.421875 56.605469 L 86.871094 35.804688 L 68.929688 56.605469 M 104.039062 156.421875 L 69.546875 156.421875 L 86.28125 177.214844 L 104.039062 156.421875 M 36.121094 124.113281 L 36.121094 89.558594 L 15.324219 106.152344 L 36.121094 124.113281 "/>
<path style=" stroke:none;fill-rule:nonzero;fill:rgb(100%,100%,100%);fill-opacity:1;" d="M 129.375 89.078125 L 129.375 123.601562 L 150.144531 107.035156 L 129.375 89.078125 "/>
<path style="fill:none;stroke-width:2;stroke-linecap:butt;stroke-linejoin:miter;stroke:rgb(100%,100%,100%);stroke-opacity:1;stroke-miterlimit:4;" d="M 189.302885 158.270433 L 189.302885 107.813101 L 219.693085 132.025541 Z M 189.302885 158.270433 " transform="matrix(0.683429,0,0,-0.684211,0,197.368421)"/>
<path style=" stroke:none;fill-rule:nonzero;fill:rgb(100%,100%,100%);fill-opacity:1;" d="M 65.351562 60.210938 L 99.84375 60.210938 L 83.269531 39.390625 L 65.351562 60.210938 "/>
<path style="fill:none;stroke-width:2;stroke-linecap:butt;stroke-linejoin:miter;stroke:rgb(100%,100%,100%);stroke-opacity:1;stroke-miterlimit:4;" d="M 95.623106 200.460938 L 146.092444 200.460938 L 121.840869 230.890625 Z M 95.623106 200.460938 " transform="matrix(0.683429,0,0,-0.684211,0,197.368421)"/>
<path style=" stroke:none;fill-rule:nonzero;fill:rgb(100%,100%,100%);fill-opacity:1;" d="M 100.457031 160.007812 L 65.964844 160.007812 L 82.707031 180.828125 L 100.457031 160.007812 "/>
<path style="fill:none;stroke-width:2;stroke-linecap:butt;stroke-linejoin:miter;stroke:rgb(100%,100%,100%);stroke-opacity:1;stroke-miterlimit:4;" d="M 146.989803 54.603966 L 96.520465 54.603966 L 121.017813 24.174279 Z M 146.989803 54.603966 " transform="matrix(0.683429,0,0,-0.684211,0,197.368421)"/>
<path style=" stroke:none;fill-rule:nonzero;fill:rgb(100%,100%,100%);fill-opacity:1;" d="M 32.085938 127.695312 L 32.085938 93.164062 L 11.289062 109.734375 L 32.085938 127.695312 "/>
<path style="fill:none;stroke-width:2;stroke-linecap:butt;stroke-linejoin:miter;stroke:rgb(100%,100%,100%);stroke-opacity:1;stroke-miterlimit:4;" d="M 46.948487 101.829928 L 46.948487 152.298678 L 16.518277 128.080529 Z M 46.948487 101.829928 " transform="matrix(0.683429,0,0,-0.684211,0,197.368421)"/>
<path style=" stroke:none;fill-rule:nonzero;fill:rgb(0.784314%,43.921569%,62.352941%);fill-opacity:1;" d="M 158.199219 29.253906 L 3.894531 29.253906 L 43.007812 -1.984375 L 190.476562 -1.984375 L 190.476562 -1.800781 L 190.027344 -1.800781 L 158.546875 29.179688 L 158.546875 30.167969 L 158.199219 29.253906 "/>
<path style="fill:none;stroke-width:4;stroke-linecap:butt;stroke-linejoin:miter;stroke:rgb(100%,100%,100%);stroke-opacity:1;stroke-miterlimit:4;" d="M 231.47879 245.705829 L 5.69852 245.705829 L 62.929492 291.361779 L 278.707345 291.361779 L 278.707345 291.09345 L 278.050043 291.09345 L 231.987484 245.814303 L 231.987484 244.369892 Z M 231.47879 245.705829 " transform="matrix(0.683429,0,0,-0.684211,0,197.368421)"/>
<path style=" stroke:none;fill-rule:nonzero;fill:rgb(0.784314%,43.921569%,62.352941%);fill-opacity:1;" d="M 190.128906 155.785156 L 190.128906 -1.800781 L 158.710938 29.605469 L 158.710938 187.210938 L 190.128906 155.785156 "/>
<g clip-path="url(#clip1)" clip-rule="nonzero">
<path style="fill:none;stroke-width:4;stroke-linecap:butt;stroke-linejoin:miter;stroke:rgb(100%,100%,100%);stroke-opacity:1;stroke-miterlimit:4;" d="M 278.19865 60.775541 L 278.19865 291.09345 L 232.227542 245.192007 L 232.227542 14.845553 Z M 278.19865 60.775541 " transform="matrix(0.683429,0,0,-0.684211,0,197.368421)"/>
</g>
<path style=" stroke:none;fill-rule:nonzero;fill:rgb(0%,0%,0%);fill-opacity:1;" d="M 107.558594 86.613281 L 107.558594 99.738281 L 124.375 99.738281 L 124.375 90.734375 C 124.375 75.980469 105.746094 68.121094 82.757812 68.121094 L 83.425781 68.121094 C 60.414062 68.121094 41.777344 75.980469 41.777344 90.734375 L 41.777344 99.738281 L 58.597656 99.738281 L 58.597656 86.613281 C 80.835938 57.507812 107.558594 86.613281 107.558594 86.613281 "/>
<path style=" stroke:none;fill-rule:nonzero;fill:rgb(0%,0%,0%);fill-opacity:1;" d="M 85.988281 82.097656 L 100.539062 82.097656 L 100.539062 98.515625 L 116.769531 112.058594 L 116.769531 144.503906 L 49.28125 144.503906 L 49.28125 112.058594 L 65.484375 98.515625 L 65.484375 82.097656 L 85.988281 82.097656 "/>
<path style=" stroke:none;fill-rule:nonzero;fill:rgb(100%,100%,100%);fill-opacity:1;" d="M 107.484375 90.304688 L 107.484375 103.453125 L 124.300781 103.453125 L 124.300781 94.421875 C 124.300781 79.667969 105.664062 71.808594 82.65625 71.808594 L 83.316406 71.808594 C 60.332031 71.808594 41.703125 79.667969 41.703125 94.421875 L 41.703125 103.453125 L 58.515625 103.453125 L 58.515625 90.304688 C 80.726562 61.195312 107.480469 90.304688 107.480469 90.304688 "/>
<path style=" stroke:none;fill-rule:nonzero;fill:rgb(100%,100%,100%);fill-opacity:1;" d="M 85.90625 85.785156 L 100.457031 85.785156 L 100.457031 102.226562 L 116.660156 115.773438 L 116.660156 148.195312 L 49.199219 148.195312 L 49.199219 115.773438 L 65.402344 102.226562 L 65.402344 85.785156 L 85.90625 85.785156 "/>
</g>
</svg>
