<?xml version="1.0" encoding="UTF-8"?>
<svg xmlns="http://www.w3.org/2000/svg" xmlns:xlink="http://www.w3.org/1999/xlink" width="218pt" height="200pt" viewBox="0 0 218 200" version="1.1">
<g id="surface1">
<path style=" stroke:none;fill-rule:nonzero;fill:rgb(0.784314%,43.921569%,62.352941%);fill-opacity:1;" d="M 2.859375 163.101562 L 181.53125 163.101562 L 181.53125 129.546875 L 2.859375 129.546875 Z M 2.859375 163.101562 "/>
<path style="fill:none;stroke-width:0.5;stroke-linecap:butt;stroke-linejoin:miter;stroke:rgb(100%,100%,100%);stroke-opacity:1;stroke-miterlimit:4;" d="M 0.629587 35.883203 L 39.970183 35.883203 L 39.970183 28.500312 L 0.629587 28.500312 Z M 27.920298 32.680312 L 37.845757 32.680312 M 27.920298 32.323672 L 37.845757 32.323672 " transform="matrix(4.541667,0,0,4.545455,0,0)"/>
<path style=" stroke:none;fill-rule:nonzero;fill:rgb(0.784314%,43.921569%,62.352941%);fill-opacity:1;" d="M 211.542969 131.277344 L 211.542969 101.25 L 181.511719 129.683594 L 181.511719 163.109375 L 211.542969 131.277344 "/>
<path style="fill:none;stroke-width:0.5;stroke-linecap:butt;stroke-linejoin:miter;stroke:rgb(100%,100%,100%);stroke-opacity:1;stroke-miterlimit:4;" d="M 46.578268 28.881016 L 46.578268 22.275 L 39.965883 28.530391 L 39.965883 35.884062 Z M 46.578268 28.881016 " transform="matrix(4.541667,0,0,4.545455,0,0)"/>
<path style=" stroke:none;fill-rule:nonzero;fill:rgb(0.784314%,43.921569%,62.352941%);fill-opacity:1;" d="M 149.800781 190.449219 L 149.800781 182.996094 L 166.035156 160.441406 L 166.035156 174.183594 L 149.800781 190.449219 "/>
<path style="fill:none;stroke-width:0.5;stroke-linecap:butt;stroke-linejoin:miter;stroke:rgb(100%,100%,100%);stroke-opacity:1;stroke-miterlimit:4;" d="M 32.983658 41.898828 L 32.983658 40.259141 L 36.5582 35.297969 L 36.5582 38.320391 L 32.983658 41.899687 Z M 32.983658 41.898828 " transform="matrix(4.541667,0,0,4.545455,0,0)"/>
<path style=" stroke:none;fill-rule:nonzero;fill:rgb(0.784314%,43.921569%,62.352941%);fill-opacity:1;" d="M 6.808594 190.453125 L 149.800781 190.453125 L 149.800781 183.019531 L 6.808594 183.019531 Z M 6.808594 190.453125 "/>
<path style="fill:none;stroke-width:0.5;stroke-linecap:butt;stroke-linejoin:miter;stroke:rgb(100%,100%,100%);stroke-opacity:1;stroke-miterlimit:4;" d="M 1.49914 41.898828 L 32.983658 41.898828 L 32.983658 40.262578 L 1.49914 40.262578 Z M 1.49914 41.898828 " transform="matrix(4.541667,0,0,4.545455,0,0)"/>
<path style=" stroke:none;fill-rule:nonzero;fill:rgb(0.784314%,43.921569%,62.352941%);fill-opacity:1;" d="M 149.800781 182.996094 L 6.808594 182.996094 L 23.347656 160.441406 L 166.035156 160.441406 L 149.800781 182.996094 "/>
<path style="fill:none;stroke-width:0.5;stroke-linecap:butt;stroke-linejoin:miter;stroke:rgb(100%,100%,100%);stroke-opacity:1;stroke-miterlimit:4;" d="M 32.983658 40.259141 L 1.49914 40.259141 L 5.140768 35.297969 L 36.5582 35.297969 L 32.983658 40.258281 Z M 32.983658 40.259141 " transform="matrix(4.541667,0,0,4.545455,0,0)"/>
<path style=" stroke:none;fill-rule:nonzero;fill:rgb(0.784314%,43.921569%,62.352941%);fill-opacity:1;" d="M 211.542969 101.25 L 32.789062 101.25 L 2.859375 129.523438 L 181.53125 129.523438 L 211.539062 101.25 "/>
<path style="fill:none;stroke-width:0.5;stroke-linecap:butt;stroke-linejoin:miter;stroke:rgb(100%,100%,100%);stroke-opacity:1;stroke-miterlimit:4;" d="M 46.578268 22.275 L 7.21961 22.275 L 0.629587 28.495156 L 39.970183 28.495156 L 46.577408 22.275 Z M 46.578268 22.275 " transform="matrix(4.541667,0,0,4.545455,0,0)"/>
<path style=" stroke:none;fill-rule:nonzero;fill:rgb(0.784314%,43.921569%,62.352941%);fill-opacity:1;" d="M 34.816406 112.972656 L 158.003906 112.972656 L 158.003906 22.5 L 34.816406 22.5 Z M 34.816406 112.972656 "/>
<path style="fill:none;stroke-width:0.5;stroke-linecap:butt;stroke-linejoin:miter;stroke:rgb(100%,100%,100%);stroke-opacity:1;stroke-miterlimit:4;" d="M 7.665998 24.852266 L 34.789851 24.852266 L 34.789851 4.95 L 7.665998 4.95 Z M 7.665998 24.852266 " transform="matrix(4.541667,0,0,4.545455,0,0)"/>
<path style=" stroke:none;fill-rule:nonzero;fill:rgb(0.784314%,43.921569%,62.352941%);fill-opacity:1;" d="M 45.21875 42.367188 C 45.21875 33.289062 54.617188 31.9375 54.617188 31.9375 L 135.855469 31.9375 C 147.269531 31.9375 146.9375 42.695312 146.9375 42.695312 L 146.9375 93.4375 C 146.9375 99.808594 138.203125 102.496094 138.203125 102.496094 L 55.972656 102.496094 C 47.902344 102.496094 45.21875 94.078125 45.21875 94.078125 L 45.21875 42.367188 "/>
<path style="fill:none;stroke-width:0.5;stroke-linecap:butt;stroke-linejoin:miter;stroke:rgb(100%,100%,100%);stroke-opacity:1;stroke-miterlimit:4;" d="M 9.956422 9.320781 C 9.956422 7.323594 12.025803 7.02625 12.025803 7.02625 L 29.913131 7.02625 C 32.426319 7.02625 32.353211 9.393828 32.353211 9.393828 L 32.353211 20.55625 C 32.353211 21.957031 30.430046 22.549141 30.430046 22.549141 L 12.324255 22.549141 C 10.547305 22.549141 9.956422 20.698047 9.956422 20.698047 L 9.956422 9.319922 Z M 9.956422 9.320781 " transform="matrix(4.541667,0,0,4.545455,0,0)"/>
<path style=" stroke:none;fill-rule:nonzero;fill:rgb(0.784314%,43.921569%,62.352941%);fill-opacity:1;" d="M 178.652344 3.039062 L 55.460938 3.039062 L 34.816406 22.503906 L 158.003906 22.503906 L 178.652344 3.046875 "/>
<path style="fill:none;stroke-width:0.5;stroke-linecap:butt;stroke-linejoin:miter;stroke:rgb(100%,100%,100%);stroke-opacity:1;stroke-miterlimit:4;" d="M 39.336296 0.668594 L 12.211583 0.668594 L 7.665998 4.95 L 34.789851 4.95 L 39.336296 0.670312 Z M 39.336296 0.668594 " transform="matrix(4.541667,0,0,4.545455,0,0)"/>
<path style=" stroke:none;fill-rule:nonzero;fill:rgb(0.784314%,43.921569%,62.352941%);fill-opacity:1;" d="M 178.671875 93.703125 L 178.671875 3.019531 L 158.230469 22.5 L 158.230469 112.964844 L 178.679688 93.699219 "/>
<path style="fill:none;stroke-width:0.5;stroke-linecap:butt;stroke-linejoin:miter;stroke:rgb(100%,100%,100%);stroke-opacity:1;stroke-miterlimit:4;" d="M 39.340596 20.614687 L 39.340596 0.664297 L 34.839736 4.95 L 34.839736 24.852266 L 39.342317 20.614687 Z M 39.340596 20.614687 " transform="matrix(4.541667,0,0,4.545455,0,0)"/>
</g>
</svg>
