<?xml version="1.0" encoding="UTF-8"?>
<svg xmlns="http://www.w3.org/2000/svg" xmlns:xlink="http://www.w3.org/1999/xlink" width="144pt" height="200pt" viewBox="0 0 144 200" version="1.1">
<defs>
<clipPath id="clip1">
  <path d="M 49 117 L 83 117 L 83 194.257812 L 49 194.257812 Z M 49 117 "/>
</clipPath>
<clipPath id="clip2">
  <path d="M 111 105 L 144 105 L 144 194.257812 L 111 194.257812 Z M 111 105 "/>
</clipPath>
</defs>
<g id="surface1">
<path style=" stroke:none;fill-rule:nonzero;fill:rgb(0%,0%,0%);fill-opacity:1;" d="M 72.058594 180.746094 L 72.058594 128.386719 L 60.226562 139.652344 L 60.226562 192.011719 L 72.058594 180.746094 "/>
<g clip-path="url(#clip1)" clip-rule="nonzero">
<path style="fill:none;stroke-width:4;stroke-linecap:butt;stroke-linejoin:miter;stroke:rgb(100%,100%,100%);stroke-opacity:1;stroke-miterlimit:4;" d="M 150.12207 38.065805 L 150.12207 146.8122 L 125.472005 123.414363 L 125.472005 14.667969 Z M 150.12207 38.065805 " transform="matrix(0.48,0,0,-0.481481,0,199.074074)"/>
</g>
<path style="fill-rule:nonzero;fill:rgb(0.784314%,42.352941%,60.784314%);fill-opacity:1;stroke-width:4;stroke-linecap:butt;stroke-linejoin:miter;stroke:rgb(100%,100%,100%);stroke-opacity:1;stroke-miterlimit:4;" d="M 5.981445 14.667969 L 125.472005 14.667969 L 125.472005 123.414363 L 5.981445 123.414363 Z M 5.981445 14.667969 " transform="matrix(0.48,0,0,-0.481481,0,199.074074)"/>
<path style="fill-rule:nonzero;fill:rgb(0.784314%,42.352941%,60.784314%);fill-opacity:1;stroke-width:4;stroke-linecap:butt;stroke-linejoin:miter;stroke:rgb(100%,100%,100%);stroke-opacity:1;stroke-miterlimit:4;" d="M 135.351562 14.667969 L 254.842122 14.667969 L 254.842122 123.414363 L 135.351562 123.414363 Z M 135.351562 14.667969 " transform="matrix(0.48,0,0,-0.481481,0,199.074074)"/>
<path style=" stroke:none;fill-rule:nonzero;fill:rgb(0.784314%,42.352941%,60.784314%);fill-opacity:1;" d="M 147.019531 114.976562 L 147.019531 -3.589844 L 122.382812 19.882812 L 122.382812 138.449219 L 147.019531 114.976562 "/>
<path style="fill:none;stroke-width:4;stroke-linecap:butt;stroke-linejoin:miter;stroke:rgb(100%,100%,100%);stroke-opacity:1;stroke-miterlimit:4;" d="M 306.29069 174.664062 L 306.29069 420.917368 L 254.964193 372.166466 L 254.964193 125.913161 Z M 306.29069 174.664062 " transform="matrix(0.48,0,0,-0.481481,0,199.074074)"/>
<path style=" stroke:none;fill-rule:nonzero;fill:rgb(0.784314%,42.352941%,60.784314%);fill-opacity:1;" d="M 146.980469 168.542969 L 146.980469 116.179688 L 122.324219 139.652344 L 122.324219 192.011719 L 146.980469 168.542969 "/>
<g clip-path="url(#clip2)" clip-rule="nonzero">
<path style="fill:none;stroke-width:4;stroke-linecap:butt;stroke-linejoin:miter;stroke:rgb(100%,100%,100%);stroke-opacity:1;stroke-miterlimit:4;" d="M 306.20931 63.410757 L 306.20931 172.165264 L 254.842122 123.414363 L 254.842122 14.667969 Z M 306.20931 63.410757 " transform="matrix(0.48,0,0,-0.481481,0,199.074074)"/>
</g>
<path style=" stroke:none;fill-rule:nonzero;fill:rgb(0.784314%,42.352941%,60.784314%);fill-opacity:1;" d="M 147.019531 -3.589844 L 122.382812 19.882812 L 2.871094 19.882812 L 33.824219 -3.589844 L 147.019531 -3.589844 "/>
<path style="fill:none;stroke-width:4;stroke-linecap:butt;stroke-linejoin:miter;stroke:rgb(100%,100%,100%);stroke-opacity:1;stroke-miterlimit:4;" d="M 306.29069 420.917368 L 254.964193 372.166466 L 5.981445 372.166466 L 70.467122 420.917368 Z M 306.29069 420.917368 " transform="matrix(0.48,0,0,-0.481481,0,199.074074)"/>
<path style="fill-rule:nonzero;fill:rgb(0.784314%,42.352941%,60.784314%);fill-opacity:1;stroke-width:4;stroke-linecap:butt;stroke-linejoin:miter;stroke:rgb(100%,100%,100%);stroke-opacity:1;stroke-miterlimit:4;" d="M 5.981445 125.913161 L 254.956055 125.913161 L 254.956055 372.166466 L 5.981445 372.166466 Z M 5.981445 125.913161 " transform="matrix(0.48,0,0,-0.481481,0,199.074074)"/>
<path style=" stroke:none;fill-rule:nonzero;fill:rgb(100%,100%,100%);fill-opacity:1;" d="M 51.976562 65.113281 L 33.789062 46.871094 L 36.863281 43.769531 L 25.445312 41.453125 L 27.769531 52.910156 L 30.84375 49.828125 L 49.03125 68.050781 L 51.976562 65.113281 M 45.316406 77.058594 L 19.59375 77.058594 L 19.59375 72.675781 L 9.898438 79.128906 L 19.59375 85.597656 L 19.59375 81.214844 L 45.316406 81.214844 L 45.316406 77.058594 M 49.03125 90.203125 L 30.847656 108.449219 L 27.769531 105.367188 L 25.445312 116.820312 L 36.863281 114.484375 L 33.789062 111.40625 L 51.976562 93.160156 L 49.03125 90.203125 M 60.933594 96.882812 L 60.933594 122.6875 L 56.570312 122.6875 L 63.019531 132.410156 L 69.453125 122.6875 L 65.082031 122.6875 L 65.082031 96.882812 L 60.933594 96.882812 M 60.933594 62.125 L 60.933594 36.339844 L 56.570312 36.339844 L 63.019531 26.597656 L 69.453125 36.339844 L 65.082031 36.339844 L 65.082031 62.125 L 60.933594 62.125 M 74.066406 93.160156 L 92.25 111.40625 L 89.152344 114.484375 L 100.574219 116.820312 L 98.269531 105.367188 L 95.175781 108.449219 L 76.988281 90.203125 L 74.066406 93.160156 M 80.699219 81.214844 L 106.425781 81.214844 L 106.425781 85.597656 L 116.136719 79.128906 L 106.425781 72.675781 L 106.425781 77.058594 L 80.699219 77.058594 L 80.699219 81.214844 M 76.988281 68.050781 L 95.175781 49.808594 L 98.269531 52.910156 L 100.574219 41.453125 L 89.152344 43.769531 L 92.25 46.871094 L 74.066406 65.113281 L 76.988281 68.050781 M 13.671875 153.0625 L 17.34375 153.0625 L 11.941406 144.882812 L 6.523438 153.0625 L 10.164062 153.0625 L 10.164062 179.917969 L 6.488281 179.917969 L 11.902344 188.101562 L 17.304688 179.917969 L 13.671875 179.917969 L 13.671875 153.0625 M 26.792969 153.0625 L 30.46875 153.0625 L 25.070312 144.882812 L 19.652344 153.0625 L 23.289062 153.0625 L 23.289062 179.917969 L 19.613281 179.917969 L 25.011719 188.101562 L 30.429688 179.917969 L 26.792969 179.917969 L 26.792969 153.0625 M 39.898438 153.0625 L 43.59375 153.0625 L 38.175781 144.882812 L 32.773438 153.0625 L 36.414062 153.0625 L 36.414062 179.917969 L 32.734375 179.917969 L 38.136719 188.101562 L 43.554688 179.917969 L 39.898438 179.917969 L 39.898438 153.0625 M 53.023438 153.0625 L 56.71875 153.0625 L 51.300781 144.882812 L 45.898438 153.0625 L 49.535156 153.0625 L 49.535156 179.917969 L 45.847656 179.917969 L 51.265625 188.101562 L 56.683594 179.917969 L 53.023438 179.917969 L 53.023438 153.0625 M 75.769531 153.0625 L 79.445312 153.0625 L 74.046875 144.882812 L 68.625 153.0625 L 72.265625 153.0625 L 72.265625 179.917969 L 68.585938 179.917969 L 74.007812 188.101562 L 79.40625 179.917969 L 75.769531 179.917969 L 75.769531 153.0625 M 88.894531 153.0625 L 92.570312 153.0625 L 87.167969 144.882812 L 81.75 153.0625 L 85.386719 153.0625 L 85.386719 179.917969 L 81.710938 179.917969 L 87.109375 188.101562 L 92.53125 179.917969 L 88.894531 179.917969 L 88.894531 153.0625 M 102 153.0625 L 105.695312 153.0625 L 100.277344 144.882812 L 94.875 153.0625 L 98.511719 153.0625 L 98.511719 179.917969 L 94.835938 179.917969 L 100.238281 188.101562 L 105.65625 179.917969 L 102 179.917969 L 102 153.0625 M 115.125 153.0625 L 118.820312 153.0625 L 113.398438 144.882812 L 108 153.0625 L 111.636719 153.0625 L 111.636719 179.917969 L 107.941406 179.917969 L 113.363281 188.101562 L 118.78125 179.917969 L 115.125 179.917969 L 115.125 153.0625 "/>
</g>
</svg>
