<?xml version="1.0" encoding="UTF-8"?>
<svg xmlns="http://www.w3.org/2000/svg" xmlns:xlink="http://www.w3.org/1999/xlink" width="130pt" height="200pt" viewBox="0 0 130 200" version="1.1">
<g id="surface1">
<path style=" stroke:none;fill-rule:nonzero;fill:rgb(1.176471%,41.176471%,59.607843%);fill-opacity:1;" d="M 1.429688 194.992188 L 26.949219 194.992188 L 26.949219 118.296875 L 1.429688 118.296875 Z M 1.429688 194.992188 "/>
<path style="fill:none;stroke-width:0.5;stroke-linecap:butt;stroke-linejoin:miter;stroke:rgb(100%,100%,100%);stroke-opacity:1;stroke-miterlimit:4;" d="M 11.401593 49.683047 L 0.604868 49.683047 L 0.604868 81.896719 L 11.401593 81.896719 " transform="matrix(2.363636,0,0,2.380952,0,0)"/>
<path style=" stroke:none;fill-rule:nonzero;fill:rgb(1.176471%,41.176471%,59.607843%);fill-opacity:1;" d="M 26.949219 194.988281 L 41.0625 180.769531 L 41.0625 104.070312 L 15.546875 104.070312 L 1.429688 118.296875 L 26.949219 118.296875 L 26.949219 194.988281 "/>
<path style="fill:none;stroke-width:0.5;stroke-linecap:butt;stroke-linejoin:miter;stroke:rgb(100%,100%,100%);stroke-opacity:1;stroke-miterlimit:4;" d="M 11.401593 81.896719 L 17.372596 75.923203 L 17.372596 43.712812 L 6.577524 43.712812 L 0.604868 49.683047 L 11.401593 49.683047 Z M 11.401593 81.896719 " transform="matrix(2.363636,0,0,2.380952,0,0)"/>
<path style=" stroke:none;fill-rule:nonzero;fill:rgb(1.176471%,41.176471%,59.607843%);fill-opacity:1;" d="M 26.949219 118.296875 L 41.0625 104.074219 "/>
<path style="fill:none;stroke-width:0.5;stroke-linecap:butt;stroke-linejoin:miter;stroke:rgb(100%,100%,100%);stroke-opacity:1;stroke-miterlimit:4;" d="M 11.401593 49.683047 L 17.372596 43.712812 " transform="matrix(2.363636,0,0,2.380952,0,0)"/>
<path style=" stroke:none;fill-rule:nonzero;fill:rgb(1.176471%,41.176471%,59.607843%);fill-opacity:1;" d="M 26.949219 194.988281 L 78.996094 194.988281 L 78.996094 23.289062 L 26.949219 23.289062 Z M 26.949219 194.988281 "/>
<path style="fill:none;stroke-width:0.5;stroke-linecap:butt;stroke-linejoin:miter;stroke:rgb(100%,100%,100%);stroke-opacity:1;stroke-miterlimit:4;" d="M 33.421424 9.779766 L 11.401593 9.779766 L 11.401593 81.896719 L 33.421424 81.896719 " transform="matrix(2.363636,0,0,2.380952,0,0)"/>
<path style=" stroke:none;fill-rule:nonzero;fill:rgb(1.176471%,41.176471%,59.607843%);fill-opacity:1;" d="M 78.996094 194.988281 L 100.167969 173.667969 L 100.167969 1.964844 L 48.125 1.964844 L 26.945312 23.289062 L 78.996094 23.289062 L 78.996094 194.988281 "/>
<path style="fill:none;stroke-width:0.5;stroke-linecap:butt;stroke-linejoin:miter;stroke:rgb(100%,100%,100%);stroke-opacity:1;stroke-miterlimit:4;" d="M 33.421424 81.896719 L 42.378756 72.940547 L 42.378756 0.825234 L 20.360577 0.825234 L 11.39994 9.781406 L 33.421424 9.781406 Z M 33.421424 81.896719 " transform="matrix(2.363636,0,0,2.380952,0,0)"/>
<path style=" stroke:none;fill-rule:nonzero;fill:rgb(1.176471%,41.176471%,59.607843%);fill-opacity:1;" d="M 78.996094 23.289062 L 100.167969 1.964844 "/>
<path style="fill:none;stroke-width:0.5;stroke-linecap:butt;stroke-linejoin:miter;stroke:rgb(100%,100%,100%);stroke-opacity:1;stroke-miterlimit:4;" d="M 33.421424 9.779766 L 42.378756 0.826875 " transform="matrix(2.363636,0,0,2.380952,0,0)"/>
<path style=" stroke:none;fill-rule:nonzero;fill:rgb(1.176471%,41.176471%,59.607843%);fill-opacity:1;" d="M 54.058594 93.765625 L 54.058594 101.773438 L 62.023438 101.773438 "/>
<path style="fill:none;stroke-width:0.5;stroke-linecap:butt;stroke-linejoin:miter;stroke:rgb(100%,100%,100%);stroke-opacity:1;stroke-miterlimit:4;" d="M 22.870944 39.379922 L 22.870944 42.744844 L 26.240685 42.744844 " transform="matrix(2.363636,0,0,2.380952,0,0)"/>
<path style=" stroke:none;fill-rule:nonzero;fill:rgb(1.176471%,41.176471%,59.607843%);fill-opacity:1;" d="M 65.164062 93.765625 L 65.164062 101.773438 L 73.113281 101.773438 "/>
<path style="fill:none;stroke-width:0.5;stroke-linecap:butt;stroke-linejoin:miter;stroke:rgb(100%,100%,100%);stroke-opacity:1;stroke-miterlimit:4;" d="M 27.569411 39.379922 L 27.569411 42.744844 L 30.932542 42.744844 " transform="matrix(2.363636,0,0,2.380952,0,0)"/>
<path style=" stroke:none;fill-rule:nonzero;fill:rgb(1.176471%,41.176471%,59.607843%);fill-opacity:1;" d="M 31.75 93.972656 L 31.75 101.992188 L 39.703125 101.992188 "/>
<path style="fill:none;stroke-width:0.5;stroke-linecap:butt;stroke-linejoin:miter;stroke:rgb(100%,100%,100%);stroke-opacity:1;stroke-miterlimit:4;" d="M 13.432692 39.468516 L 13.432692 42.838359 L 16.797476 42.838359 " transform="matrix(2.363636,0,0,2.380952,0,0)"/>
<path style=" stroke:none;fill-rule:nonzero;fill:rgb(1.176471%,41.176471%,59.607843%);fill-opacity:1;" d="M 42.839844 93.972656 L 42.839844 101.992188 L 50.804688 101.992188 "/>
<path style="fill:none;stroke-width:0.5;stroke-linecap:butt;stroke-linejoin:miter;stroke:rgb(100%,100%,100%);stroke-opacity:1;stroke-miterlimit:4;" d="M 18.124549 39.468516 L 18.124549 42.838359 L 21.494291 42.838359 " transform="matrix(2.363636,0,0,2.380952,0,0)"/>
<path style=" stroke:none;fill-rule:nonzero;fill:rgb(1.176471%,41.176471%,59.607843%);fill-opacity:1;" d="M 53.964844 110.449219 L 53.964844 118.453125 L 61.933594 118.453125 "/>
<path style="fill:none;stroke-width:0.5;stroke-linecap:butt;stroke-linejoin:miter;stroke:rgb(100%,100%,100%);stroke-opacity:1;stroke-miterlimit:4;" d="M 22.83128 46.387031 L 22.83128 49.751953 L 26.202674 49.751953 " transform="matrix(2.363636,0,0,2.380952,0,0)"/>
<path style=" stroke:none;fill-rule:nonzero;fill:rgb(1.176471%,41.176471%,59.607843%);fill-opacity:1;" d="M 65.070312 110.449219 L 65.070312 118.453125 L 73.019531 118.453125 "/>
<path style="fill:none;stroke-width:0.5;stroke-linecap:butt;stroke-linejoin:miter;stroke:rgb(100%,100%,100%);stroke-opacity:1;stroke-miterlimit:4;" d="M 27.529748 46.387031 L 27.529748 49.751953 L 30.892879 49.751953 " transform="matrix(2.363636,0,0,2.380952,0,0)"/>
<path style=" stroke:none;fill-rule:nonzero;fill:rgb(1.176471%,41.176471%,59.607843%);fill-opacity:1;" d="M 31.65625 110.65625 L 31.65625 118.667969 L 39.609375 118.667969 "/>
<path style="fill:none;stroke-width:0.5;stroke-linecap:butt;stroke-linejoin:miter;stroke:rgb(100%,100%,100%);stroke-opacity:1;stroke-miterlimit:4;" d="M 13.393029 46.475625 L 13.393029 49.838906 L 16.757812 49.838906 " transform="matrix(2.363636,0,0,2.380952,0,0)"/>
<path style=" stroke:none;fill-rule:nonzero;fill:rgb(1.176471%,41.176471%,59.607843%);fill-opacity:1;" d="M 42.75 110.65625 L 42.75 118.667969 L 50.714844 118.667969 "/>
<path style="fill:none;stroke-width:0.5;stroke-linecap:butt;stroke-linejoin:miter;stroke:rgb(100%,100%,100%);stroke-opacity:1;stroke-miterlimit:4;" d="M 18.086538 46.475625 L 18.086538 49.838906 L 21.45628 49.838906 M 22.83128 53.097187 L 22.83128 56.460469 L 26.202674 56.460469 M 27.529748 53.097187 L 27.529748 56.460469 L 30.892879 56.460469 M 13.393029 53.185781 L 13.393029 56.547422 L 16.757812 56.547422 M 18.086538 53.185781 L 18.086538 56.547422 L 21.45628 56.547422 M 2.166617 52.413047 L 2.166617 55.776328 L 5.533053 55.776328 M 6.860126 52.413047 L 6.860126 55.776328 L 10.229868 55.776328 M 2.422776 58.739297 L 2.422776 62.105859 L 5.785907 62.105859 M 7.114633 58.739297 L 7.114633 62.105859 L 10.484375 62.105859 M 2.422776 64.435547 L 2.422776 67.80375 L 5.785907 67.80375 M 7.114633 64.435547 L 7.114633 67.80375 L 10.484375 67.80375 " transform="matrix(2.363636,0,0,2.380952,0,0)"/>
<path style="fill-rule:nonzero;fill:rgb(1.176471%,41.176471%,59.607843%);fill-opacity:1;stroke-width:0.5;stroke-linecap:butt;stroke-linejoin:miter;stroke:rgb(100%,100%,100%);stroke-opacity:1;stroke-miterlimit:4;" d="M 22.963492 13.369453 L 22.963492 16.734375 L 26.333233 16.734375 " transform="matrix(2.363636,0,0,2.380952,0,0)"/>
<path style="fill-rule:nonzero;fill:rgb(1.176471%,41.176471%,59.607843%);fill-opacity:1;stroke-width:0.5;stroke-linecap:butt;stroke-linejoin:miter;stroke:rgb(100%,100%,100%);stroke-opacity:1;stroke-miterlimit:4;" d="M 27.660306 13.369453 L 27.660306 16.734375 L 31.030048 16.734375 " transform="matrix(2.363636,0,0,2.380952,0,0)"/>
<path style=" stroke:none;fill-rule:nonzero;fill:rgb(1.176471%,41.176471%,59.607843%);fill-opacity:1;" d="M 31.96875 32.039062 L 31.96875 40.050781 L 39.921875 40.050781 "/>
<path style="fill:none;stroke-width:0.5;stroke-linecap:butt;stroke-linejoin:miter;stroke:rgb(100%,100%,100%);stroke-opacity:1;stroke-miterlimit:4;" d="M 13.52524 13.459687 L 13.52524 16.821328 L 16.890024 16.821328 " transform="matrix(2.363636,0,0,2.380952,0,0)"/>
<path style=" stroke:none;fill-rule:nonzero;fill:rgb(1.176471%,41.176471%,59.607843%);fill-opacity:1;" d="M 43.058594 32.039062 L 43.058594 40.050781 L 51.023438 40.050781 "/>
<path style="fill:none;stroke-width:0.5;stroke-linecap:butt;stroke-linejoin:miter;stroke:rgb(100%,100%,100%);stroke-opacity:1;stroke-miterlimit:4;" d="M 18.217097 13.459687 L 18.217097 16.821328 L 21.586839 16.821328 " transform="matrix(2.363636,0,0,2.380952,0,0)"/>
<path style=" stroke:none;fill-rule:nonzero;fill:rgb(1.176471%,41.176471%,59.607843%);fill-opacity:1;" d="M 54.199219 48.507812 L 54.199219 56.527344 L 62.148438 56.527344 "/>
<path style="fill:none;stroke-width:0.5;stroke-linecap:butt;stroke-linejoin:miter;stroke:rgb(100%,100%,100%);stroke-opacity:1;stroke-miterlimit:4;" d="M 22.930439 20.371641 L 22.930439 23.741484 L 26.29357 23.741484 " transform="matrix(2.363636,0,0,2.380952,0,0)"/>
<path style=" stroke:none;fill-rule:nonzero;fill:rgb(1.176471%,41.176471%,59.607843%);fill-opacity:1;" d="M 65.289062 48.507812 L 65.289062 56.527344 L 73.253906 56.527344 "/>
<path style="fill:none;stroke-width:0.5;stroke-linecap:butt;stroke-linejoin:miter;stroke:rgb(100%,100%,100%);stroke-opacity:1;stroke-miterlimit:4;" d="M 27.622296 20.371641 L 27.622296 23.741484 L 30.992037 23.741484 " transform="matrix(2.363636,0,0,2.380952,0,0)"/>
<path style=" stroke:none;fill-rule:nonzero;fill:rgb(1.176471%,41.176471%,59.607843%);fill-opacity:1;" d="M 31.875 48.714844 L 31.875 56.734375 L 39.839844 56.734375 "/>
<path style="fill:none;stroke-width:0.5;stroke-linecap:butt;stroke-linejoin:miter;stroke:rgb(100%,100%,100%);stroke-opacity:1;stroke-miterlimit:4;" d="M 13.485577 20.460234 L 13.485577 23.830078 L 16.855319 23.830078 " transform="matrix(2.363636,0,0,2.380952,0,0)"/>
<path style=" stroke:none;fill-rule:nonzero;fill:rgb(1.176471%,41.176471%,59.607843%);fill-opacity:1;" d="M 42.980469 48.714844 L 42.980469 56.734375 L 50.929688 56.734375 "/>
<path style="fill:none;stroke-width:0.5;stroke-linecap:butt;stroke-linejoin:miter;stroke:rgb(100%,100%,100%);stroke-opacity:1;stroke-miterlimit:4;" d="M 18.184044 20.460234 L 18.184044 23.830078 L 21.547175 23.830078 " transform="matrix(2.363636,0,0,2.380952,0,0)"/>
<path style=" stroke:none;fill-rule:nonzero;fill:rgb(1.176471%,41.176471%,59.607843%);fill-opacity:1;" d="M 54.199219 64.480469 L 54.199219 72.503906 L 62.148438 72.503906 "/>
<path style="fill:none;stroke-width:0.5;stroke-linecap:butt;stroke-linejoin:miter;stroke:rgb(100%,100%,100%);stroke-opacity:1;stroke-miterlimit:4;" d="M 22.930439 27.080156 L 22.930439 30.45 L 26.29357 30.45 " transform="matrix(2.363636,0,0,2.380952,0,0)"/>
<path style=" stroke:none;fill-rule:nonzero;fill:rgb(1.176471%,41.176471%,59.607843%);fill-opacity:1;" d="M 65.289062 64.480469 L 65.289062 72.503906 L 73.253906 72.503906 "/>
<path style="fill:none;stroke-width:0.5;stroke-linecap:butt;stroke-linejoin:miter;stroke:rgb(100%,100%,100%);stroke-opacity:1;stroke-miterlimit:4;" d="M 27.622296 27.080156 L 27.622296 30.45 L 30.992037 30.45 " transform="matrix(2.363636,0,0,2.380952,0,0)"/>
<path style="fill-rule:nonzero;fill:rgb(1.176471%,41.176471%,59.607843%);fill-opacity:1;stroke-width:0.5;stroke-linecap:butt;stroke-linejoin:miter;stroke:rgb(100%,100%,100%);stroke-opacity:1;stroke-miterlimit:4;" d="M 13.485577 27.16875 L 13.485577 30.538594 L 16.855319 30.538594 " transform="matrix(2.363636,0,0,2.380952,0,0)"/>
<path style="fill-rule:nonzero;fill:rgb(1.176471%,41.176471%,59.607843%);fill-opacity:1;stroke-width:0.5;stroke-linecap:butt;stroke-linejoin:miter;stroke:rgb(100%,100%,100%);stroke-opacity:1;stroke-miterlimit:4;" d="M 18.184044 27.16875 L 18.184044 30.538594 L 21.547175 30.538594 " transform="matrix(2.363636,0,0,2.380952,0,0)"/>
<path style=" stroke:none;fill-rule:nonzero;fill:rgb(1.176471%,41.176471%,59.607843%);fill-opacity:1;" d="M 54.199219 79.246094 L 54.199219 87.253906 L 62.148438 87.253906 "/>
<path style="fill:none;stroke-width:0.5;stroke-linecap:butt;stroke-linejoin:miter;stroke:rgb(100%,100%,100%);stroke-opacity:1;stroke-miterlimit:4;" d="M 22.930439 33.281719 L 22.930439 36.646641 L 26.29357 36.646641 " transform="matrix(2.363636,0,0,2.380952,0,0)"/>
<path style=" stroke:none;fill-rule:nonzero;fill:rgb(1.176471%,41.176471%,59.607843%);fill-opacity:1;" d="M 65.289062 79.246094 L 65.289062 87.253906 L 73.253906 87.253906 "/>
<path style="fill:none;stroke-width:0.5;stroke-linecap:butt;stroke-linejoin:miter;stroke:rgb(100%,100%,100%);stroke-opacity:1;stroke-miterlimit:4;" d="M 27.622296 33.281719 L 27.622296 36.646641 L 30.992037 36.646641 " transform="matrix(2.363636,0,0,2.380952,0,0)"/>
<path style=" stroke:none;fill-rule:nonzero;fill:rgb(1.176471%,41.176471%,59.607843%);fill-opacity:1;" d="M 31.875 79.453125 L 31.875 87.472656 L 39.839844 87.472656 "/>
<path style="fill:none;stroke-width:0.5;stroke-linecap:butt;stroke-linejoin:miter;stroke:rgb(100%,100%,100%);stroke-opacity:1;stroke-miterlimit:4;" d="M 13.485577 33.370312 L 13.485577 36.740156 L 16.855319 36.740156 " transform="matrix(2.363636,0,0,2.380952,0,0)"/>
<path style=" stroke:none;fill-rule:nonzero;fill:rgb(1.176471%,41.176471%,59.607843%);fill-opacity:1;" d="M 42.980469 79.453125 L 42.980469 87.472656 L 50.929688 87.472656 "/>
<path style="fill:none;stroke-width:0.5;stroke-linecap:butt;stroke-linejoin:miter;stroke:rgb(100%,100%,100%);stroke-opacity:1;stroke-miterlimit:4;" d="M 18.184044 33.370312 L 18.184044 36.740156 L 21.547175 36.740156 M 35.726863 41.962266 L 35.726863 45.327188 M 35.726863 47.745469 L 35.726863 51.10875 " transform="matrix(2.363636,0,0,2.380952,0,0)"/>
<path style=" stroke:none;fill-rule:nonzero;fill:rgb(1.176471%,41.176471%,59.607843%);fill-opacity:1;" d="M 79.148438 194.988281 L 107.367188 194.988281 L 107.367188 50.320312 L 79.148438 50.320312 Z M 79.148438 194.988281 "/>
<path style="fill:none;stroke-width:0.5;stroke-linecap:butt;stroke-linejoin:miter;stroke:rgb(100%,100%,100%);stroke-opacity:1;stroke-miterlimit:4;" d="M 45.424579 21.132891 L 33.485877 21.132891 L 33.485877 81.896719 L 45.424579 81.896719 " transform="matrix(2.363636,0,0,2.380952,0,0)"/>
<path style=" stroke:none;fill-rule:nonzero;fill:rgb(1.176471%,41.176471%,59.607843%);fill-opacity:1;" d="M 107.367188 194.988281 L 128.0625 174.144531 L 128.0625 29.460938 L 99.84375 29.460938 L 79.148438 50.320312 L 107.367188 50.320312 L 107.367188 194.988281 "/>
<path style="fill:none;stroke-width:0.5;stroke-linecap:butt;stroke-linejoin:miter;stroke:rgb(100%,100%,100%);stroke-opacity:1;stroke-miterlimit:4;" d="M 45.424579 81.896719 L 54.180288 73.140703 L 54.180288 12.373594 L 42.241587 12.373594 L 33.485877 21.134531 L 45.424579 21.134531 Z M 45.424579 81.896719 " transform="matrix(2.363636,0,0,2.380952,0,0)"/>
<path style="fill-rule:nonzero;fill:rgb(1.176471%,41.176471%,59.607843%);fill-opacity:1;stroke-width:0.5;stroke-linecap:butt;stroke-linejoin:miter;stroke:rgb(100%,100%,100%);stroke-opacity:1;stroke-miterlimit:4;" d="M 35.708684 23.969531 L 35.708684 27.334453 L 39.071815 27.334453 " transform="matrix(2.363636,0,0,2.380952,0,0)"/>
<path style="fill-rule:nonzero;fill:rgb(1.176471%,41.176471%,59.607843%);fill-opacity:1;stroke-width:0.5;stroke-linecap:butt;stroke-linejoin:miter;stroke:rgb(100%,100%,100%);stroke-opacity:1;stroke-miterlimit:4;" d="M 40.400541 23.969531 L 40.400541 27.334453 L 43.770282 27.334453 " transform="matrix(2.363636,0,0,2.380952,0,0)"/>
<path style=" stroke:none;fill-rule:nonzero;fill:rgb(1.176471%,41.176471%,59.607843%);fill-opacity:1;" d="M 84.261719 72.140625 L 84.261719 80.148438 L 92.214844 80.148438 "/>
<path style="fill:none;stroke-width:0.5;stroke-linecap:butt;stroke-linejoin:miter;stroke:rgb(100%,100%,100%);stroke-opacity:1;stroke-miterlimit:4;" d="M 35.649189 30.297422 L 35.649189 33.662344 L 39.013972 33.662344 " transform="matrix(2.363636,0,0,2.380952,0,0)"/>
<path style=" stroke:none;fill-rule:nonzero;fill:rgb(1.176471%,41.176471%,59.607843%);fill-opacity:1;" d="M 95.351562 72.140625 L 95.351562 80.148438 L 103.316406 80.148438 "/>
<path style="fill:none;stroke-width:0.5;stroke-linecap:butt;stroke-linejoin:miter;stroke:rgb(100%,100%,100%);stroke-opacity:1;stroke-miterlimit:4;" d="M 40.341046 30.297422 L 40.341046 33.662344 L 43.710787 33.662344 " transform="matrix(2.363636,0,0,2.380952,0,0)"/>
<path style=" stroke:none;fill-rule:nonzero;fill:rgb(1.176471%,41.176471%,59.607843%);fill-opacity:1;" d="M 84.261719 85.699219 L 84.261719 93.714844 L 92.214844 93.714844 "/>
<path style="fill:none;stroke-width:0.5;stroke-linecap:butt;stroke-linejoin:miter;stroke:rgb(100%,100%,100%);stroke-opacity:1;stroke-miterlimit:4;" d="M 35.649189 35.992031 L 35.649189 39.360234 L 39.013972 39.360234 " transform="matrix(2.363636,0,0,2.380952,0,0)"/>
<path style=" stroke:none;fill-rule:nonzero;fill:rgb(1.176471%,41.176471%,59.607843%);fill-opacity:1;" d="M 95.351562 85.699219 L 95.351562 93.714844 L 103.316406 93.714844 "/>
<path style="fill:none;stroke-width:0.5;stroke-linecap:butt;stroke-linejoin:miter;stroke:rgb(100%,100%,100%);stroke-opacity:1;stroke-miterlimit:4;" d="M 40.341046 35.992031 L 40.341046 39.360234 L 43.710787 39.360234 M 35.599609 45.327188 L 38.969351 45.327188 " transform="matrix(2.363636,0,0,2.380952,0,0)"/>
<path style=" stroke:none;fill-rule:nonzero;fill:rgb(1.176471%,41.176471%,59.607843%);fill-opacity:1;" d="M 95.246094 99.914062 L 95.246094 107.921875 L 103.203125 107.921875 "/>
<path style="fill:none;stroke-width:0.5;stroke-linecap:butt;stroke-linejoin:miter;stroke:rgb(100%,100%,100%);stroke-opacity:1;stroke-miterlimit:4;" d="M 40.296424 41.962266 L 40.296424 45.327188 L 43.662861 45.327188 M 35.599609 51.110391 L 38.969351 51.110391 " transform="matrix(2.363636,0,0,2.380952,0,0)"/>
<path style="fill-rule:nonzero;fill:rgb(1.176471%,41.176471%,59.607843%);fill-opacity:1;stroke-width:0.5;stroke-linecap:butt;stroke-linejoin:miter;stroke:rgb(100%,100%,100%);stroke-opacity:1;stroke-miterlimit:4;" d="M 40.296424 47.745469 L 40.296424 51.10875 L 43.662861 51.10875 " transform="matrix(2.363636,0,0,2.380952,0,0)"/>
<path style=" stroke:none;fill-rule:nonzero;fill:rgb(100%,100%,100%);fill-opacity:1;" d="M 96.660156 156.867188 C 96.660156 163.414062 83.132812 168.714844 66.441406 168.714844 C 49.753906 168.714844 36.230469 163.414062 36.230469 156.867188 L 36.230469 174.214844 C 36.230469 180.746094 49.753906 186.046875 66.441406 186.046875 C 83.132812 186.046875 96.660156 180.746094 96.660156 174.214844 L 96.660156 156.867188 "/>
<path style="fill:none;stroke-width:0.5;stroke-linecap:butt;stroke-linejoin:miter;stroke:rgb(1.176471%,41.176471%,59.607843%);stroke-opacity:1;stroke-miterlimit:4;" d="M 40.894681 65.884219 C 40.894681 68.632266 35.171575 70.860234 28.109826 70.860234 C 21.04973 70.860234 15.328275 68.632266 15.328275 65.884219 L 15.328275 73.168594 C 15.328275 75.915 21.04973 78.141328 28.109826 78.141328 C 35.171575 78.141328 40.894681 75.915 40.894681 73.168594 Z M 40.894681 65.884219 " transform="matrix(2.363636,0,0,2.380952,0,0)"/>
<path style=" stroke:none;fill-rule:nonzero;fill:rgb(100%,100%,100%);fill-opacity:1;" d="M 66.441406 168.714844 C 83.132812 168.714844 96.660156 163.414062 96.660156 156.867188 C 96.660156 150.332031 83.132812 145.035156 66.441406 145.035156 C 49.753906 145.035156 36.230469 150.332031 36.230469 156.867188 C 36.230469 163.414062 49.753906 168.714844 66.441406 168.714844 "/>
<path style="fill:none;stroke-width:0.5;stroke-linecap:butt;stroke-linejoin:miter;stroke:rgb(1.176471%,41.176471%,59.607843%);stroke-opacity:1;stroke-miterlimit:4;" d="M 28.109826 70.860234 C 35.171575 70.860234 40.894681 68.632266 40.894681 65.884219 C 40.894681 63.141094 35.171575 60.914766 28.109826 60.914766 C 21.04973 60.914766 15.328275 63.141094 15.328275 65.884219 C 15.328275 68.632266 21.04973 70.860234 28.109826 70.860234 Z M 28.109826 70.860234 " transform="matrix(2.363636,0,0,2.380952,0,0)"/>
<path style=" stroke:none;fill-rule:nonzero;fill:rgb(1.176471%,41.176471%,59.607843%);fill-opacity:1;" d="M 57.28125 153.753906 L 60.808594 155.636719 L 53.078125 157.078125 L 54.875 155.5625 L 41.445312 153.367188 L 42.5625 152.460938 L 55.929688 154.660156 L 57.277344 153.753906 M 75.6875 159.703125 L 72.179688 157.785156 L 79.925781 156.402344 L 78.109375 157.902344 L 91.53125 160.203125 L 90.390625 161.101562 L 77.050781 158.808594 L 75.6875 159.703125 M 71.695312 149.8125 L 78.457031 147.007812 L 77.554688 150.496094 L 75.523438 150.34375 L 70.425781 154.660156 L 68.691406 154.277344 L 73.796875 150.113281 L 71.695312 149.8125 M 62.261719 163.519531 L 55.550781 166.414062 L 56.390625 162.914062 L 58.421875 163.042969 L 63.316406 158.882812 L 65.046875 159.242188 L 60.152344 163.25 L 62.261719 163.519531 M 107.664062 50.320312 L 128.359375 29.460938 "/>
<path style="fill:none;stroke-width:0.5;stroke-linecap:butt;stroke-linejoin:miter;stroke:rgb(100%,100%,100%);stroke-opacity:1;stroke-miterlimit:4;" d="M 45.55018 21.132891 L 54.305889 12.373594 " transform="matrix(2.363636,0,0,2.380952,0,0)"/>
</g>
</svg>
