<?xml version="1.0" encoding="UTF-8"?>
<svg xmlns="http://www.w3.org/2000/svg" xmlns:xlink="http://www.w3.org/1999/xlink" width="175pt" height="200pt" viewBox="0 0 175 200" version="1.1">
<defs>
<clipPath id="clip1">
  <path d="M 0 13 L 175 13 L 175 196.714844 L 0 196.714844 Z M 0 13 "/>
</clipPath>
</defs>
<g id="surface1">
<path style=" stroke:none;fill-rule:nonzero;fill:rgb(1.176471%,41.176471%,59.607843%);fill-opacity:1;" d="M 137.542969 4.769531 L 126.804688 1 L 110.792969 11.828125 L 121.039062 21.929688 L 121.910156 20.441406 L 123.90625 22.3125 L 126.28125 22.4375 L 127.28125 20.058594 L 128.132812 20.027344 L 128.402344 18.449219 L 129.527344 18.679688 L 130.398438 16.6875 L 133.28125 17.6875 L 134.027344 17.195312 L 134.40625 11.066406 L 136.65625 9.792969 L 137.636719 5.550781 M 138.613281 90.773438 L 144.167969 84.894531 L 145.796875 86.855469 L 153.957031 89.140625 L 155.917969 95.996094 L 153.308594 95.667969 L 151.347656 99.917969 L 150.039062 98.28125 L 146.773438 101.21875 L 146.449219 97.957031 L 143.183594 97.628906 L 141.226562 92.734375 L 138.613281 90.773438 M 38.628906 60.921875 L 33.316406 63.714844 L 31.992188 66.269531 L 25.390625 70.988281 L 26.007812 72.910156 L 31.71875 69.320312 L 26.390625 75.011719 L 27.582031 76.503906 L 32.972656 72.308594 L 28.542969 79.273438 L 30.195312 80.453125 L 35.003906 74.449219 L 33.386719 80.816406 L 35.34375 81.34375 L 38.742188 73.109375 L 40.246094 73.050781 L 42.472656 76.933594 L 44.488281 76.808594 L 43.289062 70.167969 L 43.945312 64.296875 L 38.628906 60.921875 M 143.183594 98.9375 L 145.144531 99.917969 L 144.492188 102.203125 L 143.835938 105.789062 L 140.902344 104.484375 L 141.550781 101.21875 L 143.183594 98.9375 M 156.242188 92.734375 L 159.835938 94.363281 L 160.484375 97.628906 L 157.550781 98.9375 L 157.550781 95.996094 L 156.242188 92.734375 "/>
<g clip-path="url(#clip1)" clip-rule="nonzero">
<path style=" stroke:none;fill-rule:nonzero;fill:rgb(1.176471%,41.176471%,59.607843%);fill-opacity:1;" d="M 169.953125 95.667969 L 128.496094 110.378906 L 137.269531 139.324219 L 143.183594 144.328125 L 181.726562 129.640625 L 177.464844 99.917969 L 169.953125 95.667969 M 141.550781 181.5625 L 136.65625 186.132812 L 130.125 185.480469 L 128.820312 190.703125 L 130.125 196.253906 L 139.59375 196.253906 L 141.550781 194.296875 L 146.773438 196.253906 L 158.199219 196.253906 L 162.445312 194.621094 L 161.140625 191.03125 L 150.039062 188.742188 L 143.183594 184.175781 L 141.550781 181.5625 M 18.066406 158.058594 L 14.707031 152.253906 L 16.8125 146.035156 L 12.023438 143.585938 L 6.308594 143.605469 L 4.1875 152.835938 L 5.660156 155.191406 L 2.578125 159.835938 L 0 170.96875 L 0.636719 175.46875 L 4.425781 175.015625 L 9.160156 164.714844 L 15.144531 159.054688 L 18.066406 158.058594 M 63.839844 92.734375 L 57.636719 87.179688 L 69.386719 68.246094 L 74.285156 38.867188 L 62.535156 45.394531 L 51.757812 64.65625 L 39.027344 57.152344 L 52.414062 31.996094 L 82.121094 13.714844 L 106.621094 14.367188 L 120.007812 24.484375 L 132.082031 40.828125 L 127.84375 45.394531 L 126.210938 67.921875 L 143.183594 83.265625 L 131.757812 92.402344 L 111.84375 75.105469 L 112.496094 96.648438 "/>
</g>
<path style=" stroke:none;fill-rule:nonzero;fill:rgb(1.176471%,41.176471%,59.607843%);fill-opacity:1;" d="M 112.496094 96.648438 L 131.105469 128.003906 L 147.105469 174.363281 L 127.84375 180.910156 L 112.496094 138.453125 L 88.976562 105.464844 L 76.894531 141.714844 L 28.257812 160.324219 L 20.75 144.328125 L 56.980469 130.292969 L 57.636719 126.046875 L 61.554688 126.375 L 65.472656 100.242188 L 63.839844 92.734375 L 112.496094 96.648438 "/>
<path style=" stroke:none;fill-rule:nonzero;fill:rgb(1.176471%,41.176471%,59.607843%);fill-opacity:1;" d="M 62.296875 91.191406 L 94.980469 101.601562 L 110.449219 94.253906 M 137.636719 5.550781 L 141.265625 5.699219 L 138.78125 -0.179688 L 128.402344 -7.285156 L 122.039062 -7.542969 L 116.414062 -4.296875 L 110.792969 11.828125 L 116.070312 7.964844 L 122.164062 5.351562 L 122.746094 6.804688 L 125.9375 8.542969 L 128.839844 3.320312 L 137.542969 4.769531 "/>
</g>
</svg>
