<?xml version="1.0" encoding="UTF-8"?>
<svg xmlns="http://www.w3.org/2000/svg" xmlns:xlink="http://www.w3.org/1999/xlink" width="204pt" height="200pt" viewBox="0 0 204 200" version="1.1">
<g id="surface1">
<path style=" stroke:none;fill-rule:nonzero;fill:rgb(1.176471%,41.176471%,59.607843%);fill-opacity:1;" d="M 66.882812 78.347656 L 173.992188 78.347656 L 189.21875 5.390625 L 87.304688 5.390625 L 66.878906 78.347656 "/>
<path style="fill:none;stroke-width:0.5;stroke-linecap:butt;stroke-linejoin:miter;stroke:rgb(100%,100%,100%);stroke-opacity:1;stroke-miterlimit:4;" d="M 16.064989 18.803437 L 41.792241 18.803437 L 45.448663 1.292812 L 20.970244 1.292812 L 16.064051 18.803437 Z M 16.064989 18.803437 " transform="matrix(4.163265,0,0,4.166667,0,0)"/>
<path style=" stroke:none;fill-rule:nonzero;fill:rgb(1.176471%,41.176471%,59.607843%);fill-opacity:1;" d="M 66.882812 78.347656 L 77.835938 99.179688 L 184.949219 99.179688 L 173.996094 78.347656 L 66.882812 78.347656 "/>
<path style="fill:none;stroke-width:0.5;stroke-linecap:butt;stroke-linejoin:miter;stroke:rgb(100%,100%,100%);stroke-opacity:1;stroke-miterlimit:4;" d="M 16.064989 18.803437 L 18.695887 23.803125 L 44.424077 23.803125 L 41.793179 18.803437 Z M 16.064989 18.803437 " transform="matrix(4.163265,0,0,4.166667,0,0)"/>
<path style=" stroke:none;fill-rule:nonzero;fill:rgb(1.176471%,41.176471%,59.607843%);fill-opacity:1;" d="M 189.214844 5.390625 L 199.484375 24.921875 L 184.949219 99.179688 L 173.996094 78.347656 L 189.214844 5.390625 "/>
<path style="fill:none;stroke-width:0.5;stroke-linecap:butt;stroke-linejoin:miter;stroke:rgb(100%,100%,100%);stroke-opacity:1;stroke-miterlimit:4;" d="M 45.448663 1.29375 L 47.915365 5.98125 L 44.424077 23.803125 L 41.793179 18.803437 L 45.448663 1.292812 Z M 45.448663 1.29375 " transform="matrix(4.163265,0,0,4.166667,0,0)"/>
<path style=" stroke:none;fill-rule:nonzero;fill:rgb(1.176471%,41.176471%,59.607843%);fill-opacity:1;" d="M 2.378906 170.019531 L 84.480469 170.019531 L 162.136719 80.378906 L 85.28125 80.378906 L 2.375 170.019531 "/>
<path style="fill:none;stroke-width:0.5;stroke-linecap:butt;stroke-linejoin:miter;stroke:rgb(100%,100%,100%);stroke-opacity:1;stroke-miterlimit:4;" d="M 0.571404 40.804688 L 20.291877 40.804688 L 38.944604 19.29 L 20.484222 19.29 L 0.570466 40.804688 Z M 0.571404 40.804688 " transform="matrix(4.163265,0,0,4.166667,0,0)"/>
<path style=" stroke:none;fill-rule:nonzero;fill:rgb(1.176471%,41.176471%,59.607843%);fill-opacity:1;" d="M 2.378906 170.019531 L 13.335938 190.855469 L 95.441406 190.855469 L 84.484375 170.019531 L 2.375 170.019531 "/>
<path style="fill:none;stroke-width:0.5;stroke-linecap:butt;stroke-linejoin:miter;stroke:rgb(100%,100%,100%);stroke-opacity:1;stroke-miterlimit:4;" d="M 0.571404 40.804688 L 3.20324 45.805312 L 22.924652 45.805312 L 20.292816 40.804688 L 0.570466 40.804688 Z M 0.571404 40.804688 " transform="matrix(4.163265,0,0,4.166667,0,0)"/>
<path style=" stroke:none;fill-rule:nonzero;fill:rgb(1.176471%,41.176471%,59.607843%);fill-opacity:1;" d="M 162.136719 80.378906 L 172.425781 99.933594 L 95.441406 190.855469 L 84.484375 170.019531 L 162.136719 80.378906 "/>
<path style="fill:none;stroke-width:0.5;stroke-linecap:butt;stroke-linejoin:miter;stroke:rgb(100%,100%,100%);stroke-opacity:1;stroke-miterlimit:4;" d="M 38.944604 19.290937 L 41.415996 23.983125 L 22.924652 45.805312 L 20.292816 40.804688 L 38.944604 19.29 Z M 38.944604 19.290937 " transform="matrix(4.163265,0,0,4.166667,0,0)"/>
<path style=" stroke:none;fill-rule:nonzero;fill:rgb(100%,100%,100%);fill-opacity:1;" d="M 82.207031 88.3125 L 90.5625 88.3125 L 84.871094 94.5625 L 76.519531 94.5625 L 82.210938 88.3125 M 69.402344 107.886719 L 79.464844 105.546875 L 73.773438 111.796875 L 68.300781 108.4375 M 96.820312 88.3125 L 105.179688 88.3125 L 99.507812 94.5625 L 91.15625 94.5625 L 96.820312 88.3125 M 111.464844 88.3125 L 119.816406 88.3125 L 115.179688 94.5625 L 105.789062 94.5625 L 111.464844 88.3125 M 126.097656 88.3125 L 134.472656 88.3125 L 129.816406 94.5625 L 121.464844 94.5625 L 126.097656 88.3125 M 65.945312 124.425781 L 74.320312 124.425781 L 68.40625 130.675781 L 60.050781 130.675781 L 65.945312 124.425781 M 80.578125 124.425781 L 88.9375 124.425781 L 84.078125 130.675781 L 74.667969 130.675781 L 80.578125 124.425781 M 95.21875 124.425781 L 103.574219 124.425781 L 98.714844 130.675781 L 90.359375 130.675781 L 95.21875 124.425781 M 49.296875 141.085938 L 57.652344 141.085938 L 52.347656 147.355469 L 43.988281 147.355469 L 49.296875 141.085938 M 63.910156 141.085938 L 72.289062 141.085938 L 68.015625 147.355469 L 58.628906 147.355469 L 63.914062 141.085938 M 78.550781 141.085938 L 86.921875 141.085938 L 82.65625 147.355469 L 74.296875 147.355469 L 78.550781 141.085938 M 141.773438 88.3125 L 150.148438 88.3125 L 144.453125 94.5625 L 136.097656 94.5625 L 141.773438 88.3125 M 121.238281 106.644531 L 127.136719 109.558594 L 126.015625 110.101562 L 115.546875 112.914062 L 121.238281 106.644531 M 107.230469 108.578125 C 105.625 111.265625 99.367188 113.441406 93.226562 113.441406 C 87.082031 113.441406 83.425781 111.265625 85.035156 108.578125 C 86.636719 105.890625 92.917969 103.722656 99.0625 103.722656 C 105.179688 103.722656 108.839844 105.886719 107.230469 108.578125 "/>
<path style=" stroke:none;fill-rule:nonzero;fill:rgb(1.176471%,41.176471%,59.607843%);fill-opacity:1;" d="M 157.382812 62.171875 C 156.484375 65.464844 153.097656 68.148438 149.777344 68.148438 L 93.777344 68.148438 C 90.464844 68.148438 88.488281 65.464844 89.363281 62.171875 L 100.242188 21.378906 C 101.117188 18.0625 104.53125 15.378906 107.820312 15.378906 L 163.84375 15.378906 C 167.160156 15.378906 169.132812 18.0625 168.238281 21.378906 L 157.382812 62.171875 "/>
<path style="fill:none;stroke-width:0.5;stroke-linecap:butt;stroke-linejoin:miter;stroke:rgb(100%,100%,100%);stroke-opacity:1;stroke-miterlimit:4;" d="M 37.802734 14.920312 C 37.586933 15.711562 36.773457 16.356562 35.975931 16.356562 L 22.52495 16.356562 C 21.729301 16.356562 21.254538 15.711562 21.46471 14.92125 L 24.07778 5.130937 C 24.287952 4.335938 25.107996 3.690937 25.898016 3.690937 L 39.354626 3.690937 C 40.151214 3.690937 40.625038 4.335938 40.410175 5.130937 L 37.802734 14.92125 Z M 37.802734 14.920312 " transform="matrix(4.163265,0,0,4.166667,0,0)"/>
</g>
</svg>
