<?xml version="1.0" encoding="UTF-8"?>
<svg xmlns="http://www.w3.org/2000/svg" xmlns:xlink="http://www.w3.org/1999/xlink" width="121pt" height="200pt" viewBox="0 0 121 200" version="1.1">
<g id="surface1">
<path style=" stroke:none;fill-rule:nonzero;fill:rgb(0.784314%,42.352941%,60.784314%);fill-opacity:1;" d="M 3.402344 191.703125 L 101.195312 191.703125 L 101.195312 19.824219 L 3.402344 19.824219 Z M 3.402344 191.703125 "/>
<path style="fill:none;stroke-width:0.5;stroke-linecap:butt;stroke-linejoin:miter;stroke:rgb(100%,100%,100%);stroke-opacity:1;stroke-miterlimit:4;" d="M 0.702964 39.29834 L 20.908122 39.29834 L 20.908122 4.063164 L 0.702964 4.063164 Z M 0.702964 39.29834 " transform="matrix(4.84,0,0,4.878049,0,0)"/>
<path style=" stroke:none;fill-rule:nonzero;fill:rgb(0.784314%,42.352941%,60.784314%);fill-opacity:1;" d="M 3.402344 19.824219 L 22.09375 4.53125 L 116.363281 4.53125 L 101.203125 19.824219 L 3.402344 19.824219 "/>
<path style="fill:none;stroke-width:0.5;stroke-linecap:butt;stroke-linejoin:miter;stroke:rgb(100%,100%,100%);stroke-opacity:1;stroke-miterlimit:4;" d="M 0.702964 4.063164 L 4.564824 0.928105 L 24.042 0.928105 L 20.909737 4.063164 Z M 0.702964 4.063164 " transform="matrix(4.84,0,0,4.878049,0,0)"/>
<path style=" stroke:none;fill-rule:nonzero;fill:rgb(0.784314%,42.352941%,60.784314%);fill-opacity:1;" d="M 101.199219 191.691406 L 116.367188 172.855469 L 116.367188 4.535156 L 101.199219 19.828125 L 101.199219 191.699219 "/>
<path style="fill:none;stroke-width:0.5;stroke-linecap:butt;stroke-linejoin:miter;stroke:rgb(100%,100%,100%);stroke-opacity:1;stroke-miterlimit:4;" d="M 20.908929 39.29834 L 24.042807 35.436172 L 24.042807 0.928105 L 20.908929 4.063164 Z M 0.698928 17.90627 L 20.809659 17.90627 " transform="matrix(4.84,0,0,4.878049,0,0)"/>
<path style="fill:none;stroke-width:0.375;stroke-linecap:butt;stroke-linejoin:miter;stroke:rgb(100%,100%,100%);stroke-opacity:1;stroke-miterlimit:4;" d="M 0.698928 36.890391 L 20.809659 36.890391 " transform="matrix(4.84,0,0,4.878049,0,0)"/>
<path style=" stroke:none;fill-rule:nonzero;fill:rgb(100%,100%,100%);fill-opacity:1;" d="M 44.875 142.007812 L 44.875 156.105469 L 39.421875 156.105469 L 50.359375 170.191406 L 61.613281 156.105469 L 56.148438 156.105469 L 56.148438 142.007812 L 44.875 142.007812 M 44.875 130.816406 L 44.875 116.71875 L 39.421875 116.71875 L 50.359375 102.621094 L 61.613281 116.71875 L 56.148438 116.71875 L 56.148438 130.816406 L 44.875 130.816406 M 16.378906 131.457031 L 30.367188 131.457031 L 30.367188 125.953125 L 44.359375 136.980469 L 30.371094 148.316406 L 30.371094 142.828125 L 16.378906 142.828125 L 16.378906 131.464844 M 84.277344 131.457031 L 70.277344 131.457031 L 70.277344 125.953125 L 56.289062 136.980469 L 70.277344 148.316406 L 70.277344 142.828125 L 84.273438 142.828125 L 84.273438 131.464844 "/>
<path style=" stroke:none;fill-rule:nonzero;fill:rgb(0.784314%,42.352941%,60.784314%);fill-opacity:1;" d="M 11.179688 50.785156 L 56.554688 50.785156 L 56.554688 32 L 11.179688 32 L 11.179688 50.789062 Z M 11.179688 50.785156 "/>
<path style="fill:none;stroke-width:0.5;stroke-linecap:butt;stroke-linejoin:miter;stroke:rgb(100%,100%,100%);stroke-opacity:1;stroke-miterlimit:4;" d="M 2.309853 10.410156 L 11.684853 10.410156 L 11.684853 6.559199 L 2.309853 6.559199 L 2.309853 10.411758 Z M 3.247676 8.619609 L 10.850336 8.619609 " transform="matrix(4.84,0,0,4.878049,0,0)"/>
</g>
</svg>
