<?xml version="1.0" encoding="UTF-8"?>
<svg xmlns="http://www.w3.org/2000/svg" xmlns:xlink="http://www.w3.org/1999/xlink" width="290pt" height="200pt" viewBox="0 0 290 200" version="1.1">
<g id="surface1">
<path style="fill-rule:nonzero;fill:rgb(3.137255%,48.235294%,73.333333%);fill-opacity:1;stroke-width:0.575;stroke-linecap:butt;stroke-linejoin:miter;stroke:rgb(100%,100%,100%);stroke-opacity:1;stroke-miterlimit:4;" d="M 0.795865 29.31377 L 39.087082 29.31377 L 39.087082 5.603008 L 0.797077 5.603008 L 0.797077 29.31377 Z M 0.795865 29.31377 " transform="matrix(6.444444,0,0,6.451613,0,0)"/>
<path style=" stroke:none;fill-rule:nonzero;fill:rgb(3.137255%,48.235294%,73.333333%);fill-opacity:1;" d="M 251.359375 35.992188 L 5.285156 35.992188 L 43.925781 5.121094 L 283.234375 5.121094 L 283.234375 157.117188 L 251.707031 189.027344 L 251.707031 36.871094 L 251.359375 35.992188 "/>
<path style="fill:none;stroke-width:0.575;stroke-linecap:butt;stroke-linejoin:miter;stroke:rgb(100%,100%,100%);stroke-opacity:1;stroke-miterlimit:4;" d="M 39.004041 5.58 L 0.82011 5.58 L 6.81607 0.791953 L 43.950162 0.791953 L 43.950162 24.351953 L 39.057988 29.298027 L 39.057988 5.71502 L 39.004041 5.578789 Z M 39.004041 5.58 " transform="matrix(6.444444,0,0,6.451613,0,0)"/>
<path style=" stroke:none;fill-rule:nonzero;fill:rgb(0%,0%,0%);fill-opacity:1;" d="M 251.636719 35.710938 L 283.515625 4.675781 "/>
<path style="fill:none;stroke-width:0.575;stroke-linecap:butt;stroke-linejoin:miter;stroke:rgb(100%,100%,100%);stroke-opacity:1;stroke-miterlimit:4;" d="M 39.047077 5.533984 L 43.993804 0.724746 " transform="matrix(6.444444,0,0,6.451613,0,0)"/>
<path style=" stroke:none;fill-rule:nonzero;fill:rgb(100%,100%,100%);fill-opacity:1;" d="M 41.695312 175.070312 L 70.457031 175.070312 L 102.113281 142.714844 L 132.601562 142.714844 L 164.351562 174.507812 L 219.234375 174.507812 L 219.234375 152 L 177.320312 152 L 144.839844 119.523438 L 103.335938 119.523438 L 71.496094 87.585938 L 41.1875 87.546875 L 41.1875 83.433594 L 28.859375 95.773438 L 40.78125 107.710938 L 40.78125 103.179688 L 65.734375 103.179688 L 65.515625 124.066406 L 41.695312 124.066406 L 41.695312 119.933594 L 29.359375 132.285156 L 41.25 144.226562 L 41.25 139.683594 L 65.515625 139.621094 L 65.515625 159.40625 L 41.695312 159.40625 L 41.695312 155.316406 L 29.359375 167.632812 L 41.25 179.566406 L 41.25 175.066406 M 214.03125 48.15625 L 185.246094 48.15625 L 153.617188 80.503906 L 123.09375 80.503906 L 91.351562 48.683594 L 36.46875 48.683594 L 36.46875 71.179688 L 78.410156 71.179688 L 110.863281 103.683594 L 152.398438 103.683594 L 184.207031 135.601562 L 214.511719 135.625 L 214.511719 139.753906 L 226.84375 127.417969 L 214.953125 115.476562 L 214.953125 120.011719 L 189.996094 120.011719 L 190.1875 99.128906 L 214.03125 99.128906 L 214.03125 103.257812 L 226.375 90.902344 L 214.453125 78.96875 L 214.453125 83.496094 L 190.183594 83.5625 L 190.183594 63.773438 L 214.03125 63.773438 L 214.03125 67.902344 L 226.375 55.554688 L 214.453125 43.613281 L 214.453125 48.15625 "/>
</g>
</svg>
