<?xml version="1.0" encoding="UTF-8"?>
<svg xmlns="http://www.w3.org/2000/svg" xmlns:xlink="http://www.w3.org/1999/xlink" width="71pt" height="200pt" viewBox="0 0 71 200" version="1.1">
<g id="surface1">
<path style=" stroke:none;fill-rule:nonzero;fill:rgb(3.137255%,49.019608%,74.117647%);fill-opacity:1;" d="M 0 104.519531 L 15.324219 104.519531 L 3.660156 148.167969 L 16.199219 148.167969 L 15.058594 192.308594 L 21.523438 192.308594 L 31.523438 148.085938 L 37.222656 148.085938 L 48.738281 192.054688 L 54.308594 191.984375 L 53.144531 147.964844 L 64.65625 147.964844 L 54.054688 104.070312 C 55.867188 104.070312 66.34375 104.414062 69.488281 103.96875 L 66.789062 81.957031 C 66.789062 77.40625 62.1875 57.445312 60.828125 52.882812 C 59.660156 48.929688 51.835938 42.871094 47.773438 41.496094 C 43.714844 40.144531 35.585938 40.589844 31.101562 40.589844 C 26.601562 40.589844 21.59375 41.742188 17.117188 42.871094 C 13.527344 43.773438 9.464844 49.703125 8.125 53.339844 C 6.765625 56.996094 4.953125 68.382812 3.617188 73.847656 L 0 104.511719 "/>
<path style=" stroke:none;fill-rule:nonzero;fill:rgb(100%,100%,100%);fill-opacity:1;" d="M 43.113281 40.742188 C 41.453125 40.589844 38.75 40.742188 36.203125 40.589844 C 33.496094 40.484375 30.785156 40.535156 28.085938 40.742188 C 26.273438 40.890625 21.914062 41.945312 21.472656 41.945312 C 21.019531 41.945312 20.726562 41.644531 20.726562 41.644531 L 33.675781 65.132812 L 47.148438 41.644531 C 47.078125 40.542969 45.855469 41.242188 45.121094 40.820312 "/>
<path style="fill:none;stroke-width:0.125;stroke-linecap:butt;stroke-linejoin:miter;stroke:rgb(100%,100%,100%);stroke-opacity:1;stroke-miterlimit:4;" d="M 8.50121 7.944727 C 8.173856 7.915781 7.640845 7.944727 7.138644 7.915781 C 6.604864 7.895215 6.070313 7.904355 5.538072 7.944727 C 5.180678 7.973672 4.321083 8.180098 4.234045 8.180098 C 4.144696 8.180098 4.086928 8.120684 4.086928 8.120684 L 6.640295 12.700898 L 9.296875 8.120684 C 9.283011 7.905879 9.041923 8.042227 8.897117 7.959961 " transform="matrix(5.071429,0,0,5.128205,0,0)"/>
<path style="fill:none;stroke-width:0.5;stroke-linecap:butt;stroke-linejoin:miter;stroke:rgb(3.137255%,49.019608%,74.117647%);stroke-opacity:1;stroke-miterlimit:4;" d="M 6.680348 7.735254 C 8.708407 7.732969 10.352113 6.087656 10.351342 4.059199 C 10.372909 2.731523 9.677377 1.496016 8.53125 0.825703 C 7.385893 0.156152 5.967099 0.156152 4.821743 0.825703 C 3.675616 1.496016 2.980084 2.731523 3.001651 4.059199 C 3.001651 6.089941 4.649208 7.736016 6.680348 7.735254 Z M 6.680348 7.735254 " transform="matrix(5.071429,0,0,5.128205,0,0)"/>
<path style=" stroke:none;fill-rule:nonzero;fill:rgb(3.137255%,49.019608%,74.117647%);fill-opacity:1;" d="M 14.757812 18.230469 C 14.757812 18.230469 10.902344 31.652344 3.609375 31.230469 C 3.609375 31.230469 12.457031 37.363281 19.890625 33.457031 "/>
<path style="fill:none;stroke-width:0.5;stroke-linecap:round;stroke-linejoin:round;stroke:rgb(3.137255%,49.019608%,74.117647%);stroke-opacity:1;stroke-miterlimit:4;" d="M 2.909991 3.554941 C 2.909991 3.554941 2.149758 6.172207 0.711708 6.089941 C 0.711708 6.089941 2.456316 7.28584 3.922095 6.523359 " transform="matrix(5.071429,0,0,5.128205,0,0)"/>
<path style=" stroke:none;fill-rule:nonzero;fill:rgb(3.137255%,49.019608%,74.117647%);fill-opacity:1;" d="M 52.921875 18.230469 C 52.921875 18.230469 56.78125 31.652344 64.058594 31.230469 C 64.058594 31.230469 55.222656 37.363281 47.792969 33.457031 "/>
<path style="fill:none;stroke-width:0.5;stroke-linecap:round;stroke-linejoin:round;stroke:rgb(3.137255%,49.019608%,74.117647%);stroke-opacity:1;stroke-miterlimit:4;" d="M 10.435299 3.554941 C 10.435299 3.554941 11.196303 6.172207 12.631272 6.089941 C 12.631272 6.089941 10.888974 7.28584 9.423966 6.523359 " transform="matrix(5.071429,0,0,5.128205,0,0)"/>
<path style=" stroke:none;fill-rule:nonzero;fill:rgb(3.137255%,49.019608%,74.117647%);fill-opacity:1;" d="M 47.167969 7.816406 C 44.203125 11.019531 39.074219 13.148438 33.234375 13.148438 C 27.785156 13.148438 23.003906 11.296875 19.957031 8.441406 "/>
<path style="fill:none;stroke-width:0.5;stroke-linecap:round;stroke-linejoin:round;stroke:rgb(3.137255%,49.019608%,74.117647%);stroke-opacity:1;stroke-miterlimit:4;" d="M 9.300726 1.522676 C 8.716109 2.148047 7.704776 2.563184 6.553257 2.563184 C 5.478763 2.563184 4.535982 2.202891 3.935189 1.646074 " transform="matrix(5.071429,0,0,5.128205,0,0)"/>
<path style=" stroke:none;fill-rule:nonzero;fill:rgb(3.137255%,49.019608%,74.117647%);fill-opacity:1;" d="M 47.167969 7.816406 C 43.582031 4.042969 38.597656 1.964844 33.425781 2.085938 C 28.253906 2.203125 23.367188 4.511719 19.957031 8.445312 C 23.003906 11.296875 27.785156 13.148438 33.234375 13.148438 C 39.074219 13.148438 44.203125 11.019531 47.167969 7.816406 "/>
<path style="fill:none;stroke-width:0.5;stroke-linecap:round;stroke-linejoin:round;stroke:rgb(3.137255%,49.019608%,74.117647%);stroke-opacity:1;stroke-miterlimit:4;" d="M 9.300726 1.522676 C 8.59364 0.787617 7.610805 0.382383 6.590999 0.405996 C 5.571193 0.429609 4.607614 0.879023 3.935189 1.646074 C 4.535982 2.202129 5.478763 2.563945 6.553257 2.563945 C 7.704776 2.563945 8.716109 2.148047 9.300726 1.524199 Z M 9.300726 1.522676 " transform="matrix(5.071429,0,0,5.128205,0,0)"/>
</g>
</svg>
