<?xml version="1.0" encoding="UTF-8"?>
<svg xmlns="http://www.w3.org/2000/svg" xmlns:xlink="http://www.w3.org/1999/xlink" width="252pt" height="200pt" viewBox="0 0 252 200" version="1.1">
<g id="surface1">
<path style=" stroke:none;fill-rule:nonzero;fill:rgb(5.098039%,43.137255%,61.176471%);fill-opacity:1;" d="M 4.605469 124.382812 L 182.542969 124.382812 L 182.542969 66.417969 L 4.605469 66.417969 Z M 4.605469 124.382812 "/>
<path style=" stroke:none;fill-rule:nonzero;fill:rgb(5.098039%,43.137255%,61.176471%);fill-opacity:1;" d="M 4.121094 66.707031 L 76.003906 8.230469 L 242.03125 8.230469 L 182.371094 66.699219 L 4.121094 66.699219 "/>
<path style=" stroke:none;fill-rule:nonzero;fill:rgb(5.098039%,43.137255%,61.176471%);fill-opacity:1;" d="M 182.425781 126.222656 L 241.863281 65.351562 L 241.914062 8.339844 L 182.417969 66.617188 L 182.417969 126.222656 "/>
<path style=" stroke:none;fill-rule:nonzero;fill:rgb(5.098039%,43.137255%,61.176471%);fill-opacity:1;" d="M 4.605469 185.757812 L 182.542969 185.757812 L 182.542969 123.089844 L 4.605469 123.089844 Z M 4.605469 185.757812 "/>
<path style=" stroke:none;fill-rule:nonzero;fill:rgb(5.098039%,43.137255%,61.176471%);fill-opacity:1;" d="M 182.425781 187.566406 L 241.863281 126.707031 L 241.914062 65.007812 L 182.417969 123.289062 L 182.417969 187.566406 "/>
<path style=" stroke:none;fill-rule:nonzero;fill:rgb(5.098039%,43.137255%,61.176471%);fill-opacity:1;" d="M 4.605469 124.382812 L 182.542969 124.382812 L 182.542969 66.417969 L 4.605469 66.417969 Z M 4.605469 124.382812 "/>
<path style="fill:none;stroke-width:0.5;stroke-linecap:butt;stroke-linejoin:miter;stroke:rgb(100%,100%,100%);stroke-opacity:1;stroke-miterlimit:4;" d="M 0.785854 21.145078 L 31.148205 21.145078 L 31.148205 11.289727 L 0.785854 11.289727 Z M 0.785854 21.145078 " transform="matrix(5.860465,0,0,5.882353,0,0)"/>
<path style=" stroke:none;fill-rule:nonzero;fill:rgb(5.098039%,43.137255%,61.176471%);fill-opacity:1;" d="M 4.121094 66.707031 L 76.003906 8.230469 L 242.03125 8.230469 L 182.371094 66.699219 L 4.121094 66.699219 "/>
<path style="fill:none;stroke-width:0.5;stroke-linecap:butt;stroke-linejoin:miter;stroke:rgb(100%,100%,100%);stroke-opacity:1;stroke-miterlimit:4;" d="M 0.703203 11.340195 L 12.968921 1.397852 L 41.298983 1.397852 L 31.118877 11.340195 Z M 0.703203 11.340195 " transform="matrix(5.860465,0,0,5.882353,0,0)"/>
<path style=" stroke:none;fill-rule:nonzero;fill:rgb(5.098039%,43.137255%,61.176471%);fill-opacity:1;" d="M 182.425781 126.222656 L 241.863281 65.351562 L 241.914062 8.339844 L 182.417969 66.617188 L 182.417969 126.222656 "/>
<path style="fill:none;stroke-width:0.5;stroke-linecap:butt;stroke-linejoin:miter;stroke:rgb(100%,100%,100%);stroke-opacity:1;stroke-miterlimit:4;" d="M 31.128209 21.457187 L 41.270322 11.109766 L 41.278987 1.419102 L 31.126876 11.324922 L 31.126876 21.457187 Z M 31.128209 21.457187 " transform="matrix(5.860465,0,0,5.882353,0,0)"/>
<path style="fill-rule:nonzero;fill:rgb(5.098039%,43.137255%,61.176471%);fill-opacity:1;stroke-width:0.5;stroke-linecap:butt;stroke-linejoin:miter;stroke:rgb(100%,100%,100%);stroke-opacity:1;stroke-miterlimit:4;" d="M 0.785854 31.578828 L 31.148205 31.578828 L 31.148205 20.925273 L 0.785854 20.925273 Z M 0.785854 31.578828 " transform="matrix(5.860465,0,0,5.882353,0,0)"/>
<path style=" stroke:none;fill-rule:nonzero;fill:rgb(5.098039%,43.137255%,61.176471%);fill-opacity:1;" d="M 182.425781 187.566406 L 241.863281 126.707031 L 241.914062 65.007812 L 182.417969 123.289062 L 182.417969 187.566406 "/>
<path style="fill:none;stroke-width:0.5;stroke-linecap:butt;stroke-linejoin:miter;stroke:rgb(100%,100%,100%);stroke-opacity:1;stroke-miterlimit:4;" d="M 31.128209 31.886953 L 41.270322 21.540195 L 41.278987 11.051992 L 31.126876 20.957812 L 31.126876 31.888281 Z M 31.128209 31.886953 " transform="matrix(5.860465,0,0,5.882353,0,0)"/>
<path style="fill:none;stroke-width:0.5;stroke-linecap:butt;stroke-linejoin:miter;stroke:rgb(100%,100%,100%);stroke-opacity:1;stroke-miterlimit:4;" d="M 0.785854 21.145078 L 31.148205 21.145078 L 31.148205 11.289727 L 0.785854 11.289727 Z M 0.785854 21.145078 " transform="matrix(5.860465,0,0,5.882353,0,0)"/>
<path style="fill:none;stroke-width:0.5;stroke-linecap:butt;stroke-linejoin:miter;stroke:rgb(100%,100%,100%);stroke-opacity:1;stroke-miterlimit:4;" d="M 0.703203 11.340195 L 12.968921 1.397852 L 41.298983 1.397852 L 31.118877 11.340195 Z M 0.703203 11.340195 " transform="matrix(5.860465,0,0,5.882353,0,0)"/>
<path style="fill:none;stroke-width:0.5;stroke-linecap:butt;stroke-linejoin:miter;stroke:rgb(100%,100%,100%);stroke-opacity:1;stroke-miterlimit:4;" d="M 31.128209 21.457187 L 41.270322 11.109766 L 41.278987 1.419102 L 31.126876 11.324922 L 31.126876 21.457187 Z M 31.128209 21.457187 " transform="matrix(5.860465,0,0,5.882353,0,0)"/>
<path style="fill:none;stroke-width:0.5;stroke-linecap:butt;stroke-linejoin:miter;stroke:rgb(100%,100%,100%);stroke-opacity:1;stroke-miterlimit:4;" d="M 0.785854 31.578828 L 31.148205 31.578828 L 31.148205 20.925273 L 0.785854 20.925273 Z M 0.785854 31.578828 " transform="matrix(5.860465,0,0,5.882353,0,0)"/>
<path style="fill:none;stroke-width:0.5;stroke-linecap:butt;stroke-linejoin:miter;stroke:rgb(100%,100%,100%);stroke-opacity:1;stroke-miterlimit:4;" d="M 31.128209 31.886953 L 41.270322 21.540195 L 41.278987 11.051992 L 31.126876 20.957812 L 31.126876 31.888281 Z M 31.128209 31.886953 " transform="matrix(5.860465,0,0,5.882353,0,0)"/>
<path style=" stroke:none;fill-rule:nonzero;fill:rgb(100%,100%,100%);fill-opacity:1;" d="M 132.207031 33.046875 L 143.164062 35.800781 L 173.324219 27.46875 L 184.28125 30.257812 L 178.820312 21.929688 L 143.164062 21.929688 L 159.617188 24.710938 L 132.207031 33.046875 M 69.136719 24.710938 L 80.09375 21.929688 L 110.257812 30.257812 L 121.21875 27.46875 L 115.75 35.800781 L 80.09375 35.800781 L 96.550781 33.046875 L 69.136719 24.707031 M 181.535156 52.457031 L 170.574219 55.210938 L 143.171875 46.882812 L 129.457031 49.671875 L 134.953125 41.347656 L 170.585938 41.347656 L 156.871094 44.128906 L 181.546875 52.457031 M 118.5 44.128906 L 107.539062 41.347656 L 80.09375 49.671875 L 66.382812 46.882812 L 71.878906 55.328125 L 107.539062 55.675781 L 91.082031 52.453125 L 118.5 44.125 M 94.058594 116.3125 C 106.050781 116.3125 115.78125 113.351562 115.78125 109.699219 C 115.78125 106.023438 106.050781 103.066406 94.058594 103.066406 C 82.035156 103.066406 72.3125 106.023438 72.3125 109.699219 C 72.3125 113.351562 82.039062 116.304688 94.054688 116.304688 "/>
<path style="fill:none;stroke-width:0.375;stroke-linecap:round;stroke-linejoin:round;stroke:rgb(0%,0%,0%);stroke-opacity:1;stroke-miterlimit:4;" d="M 16.049681 19.771797 C 18.095967 19.771797 19.756324 19.269766 19.756324 18.650195 C 19.756324 18.025312 18.095967 17.521289 16.049681 17.521289 C 13.998062 17.521289 12.339038 18.025312 12.339038 18.650195 C 12.339038 19.269766 13.998729 19.771797 16.049014 19.771797 Z M 16.049681 19.771797 " transform="matrix(5.860465,0,0,5.882353,0,0)"/>
<path style=" stroke:none;fill-rule:nonzero;fill:rgb(100%,100%,100%);fill-opacity:1;" d="M 115.78125 79.082031 C 115.78125 82.730469 106.050781 85.71875 94.058594 85.71875 C 82.035156 85.71875 72.3125 82.730469 72.3125 79.082031 L 72.3125 106.457031 C 72.3125 110.105469 82.039062 113.058594 94.054688 113.058594 C 106.050781 113.058594 115.78125 110.101562 115.78125 106.457031 L 115.78125 79.082031 "/>
<path style="fill:none;stroke-width:0.375;stroke-linecap:round;stroke-linejoin:round;stroke:rgb(0%,0%,0%);stroke-opacity:1;stroke-miterlimit:4;" d="M 19.756324 13.445273 C 19.756324 14.064844 18.095967 14.572187 16.049681 14.572187 C 13.998062 14.572187 12.339038 14.064844 12.339038 13.445273 L 12.339038 18.097031 C 12.339038 18.717266 13.998729 19.221289 16.049014 19.221289 C 18.095967 19.221289 19.756324 18.717266 19.756324 18.097031 Z M 19.756324 13.445273 " transform="matrix(5.860465,0,0,5.882353,0,0)"/>
<path style=" stroke:none;fill-rule:nonzero;fill:rgb(100%,100%,100%);fill-opacity:1;" d="M 94.03125 85.71875 C 106.023438 85.71875 115.75 82.730469 115.75 79.082031 C 115.75 75.433594 106.023438 72.476562 94.03125 72.476562 C 82.011719 72.476562 72.28125 75.433594 72.28125 79.082031 C 72.28125 82.730469 82.011719 85.71875 94.023438 85.71875 "/>
<path style="fill:none;stroke-width:0.375;stroke-linecap:round;stroke-linejoin:round;stroke:rgb(0%,0%,0%);stroke-opacity:1;stroke-miterlimit:4;" d="M 16.045015 14.572187 C 18.091301 14.572187 19.750992 14.064844 19.750992 13.445273 C 19.750992 12.825039 18.091301 12.321016 16.045015 12.321016 C 13.994063 12.321016 12.333705 12.825039 12.333705 13.445273 C 12.333705 14.064844 13.994063 14.572187 16.043682 14.572187 Z M 16.045015 14.572187 " transform="matrix(5.860465,0,0,5.882353,0,0)"/>
<path style="fill:none;stroke-width:0.5;stroke-linecap:round;stroke-linejoin:round;stroke:rgb(100%,100%,100%);stroke-opacity:1;stroke-miterlimit:4;" d="M 0.785854 21.089961 L 31.146872 21.089961 " transform="matrix(5.860465,0,0,5.882353,0,0)"/>
<path style=" stroke:none;fill-rule:nonzero;fill:rgb(100%,100%,100%);fill-opacity:1;" d="M 72.769531 153.359375 L 39.5 153.359375 L 39.5 150.289062 L 26.933594 154.792969 L 39.5 159.3125 L 39.5 156.257812 L 72.773438 156.257812 L 72.773438 153.359375 M 91.597656 162.957031 L 91.597656 174.78125 L 83.011719 174.78125 L 95.667969 179.265625 L 108.367188 174.789062 L 99.75 174.789062 L 99.75 162.957031 L 91.597656 162.957031 M 91.597656 147.019531 L 91.597656 135.148438 L 83.011719 135.148438 L 95.667969 130.699219 L 108.367188 135.148438 L 99.75 135.148438 L 99.75 147.019531 L 91.597656 147.019531 M 118.585938 156.257812 L 151.863281 156.257812 L 151.863281 159.3125 L 164.421875 154.792969 L 151.863281 150.289062 L 151.863281 153.359375 L 118.585938 153.359375 L 118.585938 156.257812 "/>
<path style="fill:none;stroke-width:0.5;stroke-linecap:butt;stroke-linejoin:miter;stroke:rgb(100%,100%,100%);stroke-opacity:1;stroke-miterlimit:4;" d="M 25.463929 29.552109 C 24.400127 29.947891 19.503038 28.85418 14.525964 27.101719 C 9.55089 25.349258 6.386145 23.606094 7.45128 23.205 C 8.519748 22.805234 13.41817 23.90293 18.393911 25.654727 C 23.36432 27.409844 26.53373 29.15168 25.463929 29.552109 Z M 25.463929 29.552109 " transform="matrix(5.860465,0,0,5.882353,0,0)"/>
<path style="fill:none;stroke-width:0.5;stroke-linecap:butt;stroke-linejoin:miter;stroke:rgb(100%,100%,100%);stroke-opacity:1;stroke-miterlimit:4;" d="M 25.181315 23.175781 C 26.309105 23.552305 23.211682 25.290156 18.271267 27.051914 C 13.324854 28.816328 8.409102 29.93793 7.285311 29.56207 C 6.158188 29.182227 9.252279 27.447695 14.194026 25.685937 C 19.135773 23.918203 24.058191 22.799922 25.181315 23.175781 Z M 25.181315 23.175781 " transform="matrix(5.860465,0,0,5.882353,0,0)"/>
<path style=" stroke:none;fill-rule:nonzero;fill:rgb(52.54902%,71.372549%,80.392157%);fill-opacity:1;" d="M 109.34375 161.6875 C 120.332031 158.964844 122.988281 153.558594 115.285156 149.652344 C 107.597656 145.746094 92.453125 144.800781 81.472656 147.535156 C 70.453125 150.257812 67.789062 155.652344 75.496094 159.566406 C 83.183594 163.46875 98.320312 164.417969 109.34375 161.6875 "/>
<path style="fill:none;stroke-width:0.5;stroke-linecap:butt;stroke-linejoin:miter;stroke:rgb(100%,100%,100%);stroke-opacity:1;stroke-miterlimit:4;" d="M 18.657862 27.486875 C 20.532847 27.022695 20.986096 26.106289 19.671673 25.440898 C 18.359918 24.776836 15.775732 24.616133 13.90208 25.080312 C 12.021763 25.543164 11.567181 26.462227 12.88227 27.126289 C 14.194026 27.789687 16.776879 27.951055 18.657862 27.486875 Z M 18.657862 27.486875 " transform="matrix(5.860465,0,0,5.882353,0,0)"/>
</g>
</svg>
