<?xml version="1.0" encoding="UTF-8"?>
<svg xmlns="http://www.w3.org/2000/svg" xmlns:xlink="http://www.w3.org/1999/xlink" width="237pt" height="200pt" viewBox="0 0 237 200" version="1.1">
<g id="surface1">
<path style=" stroke:none;fill-rule:nonzero;fill:rgb(1.176471%,41.176471%,59.607843%);fill-opacity:1;" d="M 29.316406 152.210938 L 162.167969 152.210938 L 162.167969 127.347656 L 29.324219 127.347656 L 29.324219 152.214844 Z M 29.316406 152.210938 "/>
<path style="fill:none;stroke-width:0.5;stroke-linecap:butt;stroke-linejoin:miter;stroke:rgb(100%,100%,100%);stroke-opacity:1;stroke-miterlimit:4;" d="M 6.308594 32.726191 L 34.896905 32.726191 L 34.896905 27.378906 L 6.310275 27.378906 L 6.310275 32.726191 Z M 6.308594 32.726191 " transform="matrix(4.647059,0,0,4.651163,0,0)"/>
<path style=" stroke:none;fill-rule:nonzero;fill:rgb(1.176471%,41.176471%,59.607843%);fill-opacity:1;" d="M 184.65625 104.660156 L 184.65625 129.796875 L 162.171875 152.460938 L 162.171875 127.34375 L 29.222656 127.34375 "/>
<path style="fill:none;stroke-width:0.5;stroke-linecap:butt;stroke-linejoin:miter;stroke:rgb(100%,100%,100%);stroke-opacity:1;stroke-miterlimit:4;" d="M 39.736155 22.501934 L 39.736155 27.907168 L 34.897745 32.779102 L 34.897745 27.378906 L 6.28842 27.378906 M 6.513697 22.501934 L 39.736155 22.501934 " transform="matrix(4.647059,0,0,4.651163,0,0)"/>
<path style="fill-rule:nonzero;fill:rgb(1.176471%,41.176471%,59.607843%);fill-opacity:1;stroke-width:0.5;stroke-linecap:butt;stroke-linejoin:miter;stroke:rgb(100%,100%,100%);stroke-opacity:1;stroke-miterlimit:4;" d="M 34.897745 27.378906 L 39.736155 22.501094 " transform="matrix(4.647059,0,0,4.651163,0,0)"/>
<path style=" stroke:none;fill-rule:nonzero;fill:rgb(1.176471%,41.176471%,59.607843%);fill-opacity:1;" d="M 155.589844 170.398438 L 155.589844 155.660156 L 2.8125 155.660156 L 20.195312 138.246094 L 172.992188 138.246094 L 172.992188 152.980469 L 155.589844 170.398438 "/>
<path style="fill:none;stroke-width:0.5;stroke-linecap:butt;stroke-linejoin:miter;stroke:rgb(100%,100%,100%);stroke-opacity:1;stroke-miterlimit:4;" d="M 33.481359 36.637344 L 33.481359 33.466934 L 0.605222 33.466934 L 4.345827 29.72291 L 37.226167 29.72291 L 37.226167 32.891641 Z M 33.481359 36.637344 " transform="matrix(4.647059,0,0,4.651163,0,0)"/>
<path style=" stroke:none;fill-rule:nonzero;fill:rgb(1.176471%,41.176471%,59.607843%);fill-opacity:1;" d="M 2.8125 170.398438 L 155.589844 170.398438 L 155.589844 155.660156 L 2.8125 155.660156 L 2.8125 170.40625 Z M 2.8125 170.398438 "/>
<path style="fill:none;stroke-width:0.5;stroke-linecap:butt;stroke-linejoin:miter;stroke:rgb(100%,100%,100%);stroke-opacity:1;stroke-miterlimit:4;" d="M 0.605222 36.637344 L 33.481359 36.637344 L 33.481359 33.466934 L 0.605222 33.466934 Z M 0.605222 36.637344 " transform="matrix(4.647059,0,0,4.651163,0,0)"/>
<path style=" stroke:none;fill-rule:nonzero;fill:rgb(1.176471%,41.176471%,59.607843%);fill-opacity:1;" d="M 155.589844 155.660156 L 172.992188 138.246094 "/>
<path style="fill:none;stroke-width:0.5;stroke-linecap:butt;stroke-linejoin:miter;stroke:rgb(100%,100%,100%);stroke-opacity:1;stroke-miterlimit:4;" d="M 33.481359 33.467773 L 37.226167 29.72291 " transform="matrix(4.647059,0,0,4.651163,0,0)"/>
<path style=" stroke:none;fill-rule:nonzero;fill:rgb(1.176471%,41.176471%,59.607843%);fill-opacity:1;" d="M 29.226562 126.84375 L 161.984375 126.84375 L 161.984375 26.648438 L 29.230469 26.648438 L 29.230469 126.851562 Z M 29.226562 126.84375 "/>
<path style="fill:none;stroke-width:0.5;stroke-linecap:butt;stroke-linejoin:miter;stroke:rgb(100%,100%,100%);stroke-opacity:1;stroke-miterlimit:4;" d="M 6.28926 27.271406 L 34.857397 27.271406 L 34.857397 5.730254 L 6.290101 5.730254 L 6.290101 27.273086 Z M 6.28926 27.271406 " transform="matrix(4.647059,0,0,4.651163,0,0)"/>
<path style=" stroke:none;fill-rule:nonzero;fill:rgb(1.176471%,41.176471%,59.607843%);fill-opacity:1;" d="M 161.992188 126.84375 L 184.65625 104.152344 L 184.65625 3.957031 L 51.875 3.957031 L 29.226562 26.640625 L 161.992188 26.640625 L 161.992188 126.84375 "/>
<path style="fill:none;stroke-width:0.5;stroke-linecap:butt;stroke-linejoin:miter;stroke:rgb(100%,100%,100%);stroke-opacity:1;stroke-miterlimit:4;" d="M 34.859078 27.271406 L 39.736155 22.393594 L 39.736155 0.850762 L 11.162975 0.850762 L 6.28926 5.729414 L 34.859078 5.729414 Z M 34.859078 27.271406 " transform="matrix(4.647059,0,0,4.651163,0,0)"/>
<path style=" stroke:none;fill-rule:nonzero;fill:rgb(1.176471%,41.176471%,59.607843%);fill-opacity:1;" d="M 40.796875 115.238281 L 150.386719 115.238281 L 150.386719 38.25 L 40.800781 38.25 L 40.800781 115.238281 Z M 40.796875 115.238281 "/>
<path style="fill:none;stroke-width:0.5;stroke-linecap:butt;stroke-linejoin:miter;stroke:rgb(100%,100%,100%);stroke-opacity:1;stroke-miterlimit:4;" d="M 8.779074 24.77707 L 32.361699 24.77707 L 32.361699 8.22375 L 8.779915 8.22375 L 8.779915 24.77707 Z M 8.779074 24.77707 " transform="matrix(4.647059,0,0,4.651163,0,0)"/>
<path style=" stroke:none;fill-rule:nonzero;fill:rgb(1.176471%,41.176471%,59.607843%);fill-opacity:1;" d="M 161.992188 26.640625 L 184.65625 3.957031 "/>
<path style="fill:none;stroke-width:0.5;stroke-linecap:butt;stroke-linejoin:miter;stroke:rgb(100%,100%,100%);stroke-opacity:1;stroke-miterlimit:4;" d="M 34.859078 5.729414 L 39.736155 0.850762 " transform="matrix(4.647059,0,0,4.651163,0,0)"/>
<path style=" stroke:none;fill-rule:nonzero;fill:rgb(1.176471%,41.176471%,59.607843%);fill-opacity:1;" d="M 234.078125 174.558594 L 211.164062 142.722656 L 189.417969 158.414062 L 212.367188 190.226562 L 234.078125 174.554688 "/>
<path style="fill:none;stroke-width:0.5;stroke-linecap:butt;stroke-linejoin:miter;stroke:rgb(100%,100%,100%);stroke-opacity:1;stroke-miterlimit:4;" d="M 50.371242 37.530098 L 45.440368 30.683691 L 40.760829 34.059023 L 45.700109 40.900391 L 50.372083 37.530938 Z M 50.371242 37.530098 " transform="matrix(4.647059,0,0,4.651163,0,0)"/>
<path style="fill:none;stroke-width:0.5;stroke-linecap:butt;stroke-linejoin:miter;stroke:rgb(1.176471%,41.176471%,59.607843%);stroke-opacity:1;stroke-miterlimit:4;" d="M 43.18928 32.286953 C 42.348695 30.880215 40.829757 31.744414 41.151701 29.404609 C 41.48037 26.997617 39.863924 25.406953 36.933643 26.728867 " transform="matrix(4.647059,0,0,4.651163,0,0)"/>
</g>
</svg>
