<?xml version="1.0" encoding="UTF-8"?>
<svg xmlns="http://www.w3.org/2000/svg" xmlns:xlink="http://www.w3.org/1999/xlink" width="218pt" height="200pt" viewBox="0 0 218 200" version="1.1">
<defs>
<clipPath id="clip1">
  <path d="M 5 21 L 218 21 L 218 189.089844 L 5 189.089844 Z M 5 21 "/>
</clipPath>
</defs>
<g id="surface1">
<g clip-path="url(#clip1)" clip-rule="nonzero">
<path style=" stroke:none;fill-rule:nonzero;fill:rgb(1.176471%,41.176471%,59.607843%);fill-opacity:1;" d="M 125.308594 23.851562 L 70.851562 21.945312 L 44.1875 50.378906 L 60.671875 63.796875 L 74.96875 48.261719 L 107.964844 49.394531 L 71.929688 96.300781 L 84.808594 108.242188 L 64.121094 135.941406 L 30.261719 134.765625 L 5.566406 145.820312 L 22.664062 181.308594 L 43.265625 182.007812 L 43.085938 174.195312 L 32.566406 173.851562 L 33.121094 158.253906 L 83.460938 160.003906 L 111.691406 125.691406 L 180.078125 189.09375 L 214.886719 149.941406 L 206.464844 141.851562 L 191.703125 157.820312 L 136.261719 104.976562 L 159.75 74.605469 L 180.816406 89.09375 L 229.277344 90.785156 L 229.953125 71.554688 L 195.207031 70.328125 L 125.308594 23.851562 "/>
</g>
<path style=" stroke:none;fill-rule:nonzero;fill:rgb(1.176471%,41.176471%,59.607843%);fill-opacity:1;" d="M 148.527344 -7.601562 L 188.808594 -6.214844 L 187.304688 36.875 L 147.023438 35.488281 L 148.527344 -7.601562 M 26.78125 43.765625 L 72.757812 82.386719 L 45.941406 114.335938 L 0 75.742188 L 26.78125 43.765625 "/>
</g>
</svg>
