<?xml version="1.0" encoding="UTF-8"?>
<svg xmlns="http://www.w3.org/2000/svg" xmlns:xlink="http://www.w3.org/1999/xlink" width="229pt" height="200pt" viewBox="0 0 229 200" version="1.1">
<defs>
<clipPath id="clip1">
  <path d="M 17 111 L 170 111 L 170 195.273438 L 17 195.273438 Z M 17 111 "/>
</clipPath>
<clipPath id="clip2">
  <path d="M 158 51 L 229 51 L 229 195.273438 L 158 195.273438 Z M 158 51 "/>
</clipPath>
</defs>
<g id="surface1">
<path style=" stroke:none;fill-rule:nonzero;fill:rgb(1.176471%,41.176471%,59.607843%);fill-opacity:1;" d="M 97.808594 12.363281 L 119.074219 -2.5 L 130.886719 -2.5 L 129.707031 8.820312 L 114.347656 23 L 97.808594 12.363281 "/>
<path style="fill:none;stroke-width:4;stroke-linecap:butt;stroke-linejoin:miter;stroke:rgb(100%,100%,100%);stroke-opacity:1;stroke-miterlimit:4;" d="M 206.984931 396.923828 L 251.987766 428.365385 L 276.985666 428.365385 L 274.489183 404.41857 L 241.985299 374.423077 Z M 206.984931 396.923828 " transform="matrix(0.47254,0,0,-0.472727,0,200)"/>
<path style=" stroke:none;fill-rule:nonzero;fill:rgb(1.176471%,41.176471%,59.607843%);fill-opacity:1;" d="M 18.660156 194.363281 L 168.691406 194.363281 L 168.691406 112.820312 L 18.660156 112.820312 Z M 18.660156 194.363281 "/>
<g clip-path="url(#clip1)" clip-rule="nonzero">
<path style="fill:none;stroke-width:4;stroke-linecap:butt;stroke-linejoin:miter;stroke:rgb(100%,100%,100%);stroke-opacity:1;stroke-miterlimit:4;" d="M 39.489078 11.923828 L 356.988868 11.923828 L 356.988868 184.41857 L 39.489078 184.41857 Z M 39.489078 11.923828 " transform="matrix(0.47254,0,0,-0.472727,0,200)"/>
</g>
<path style=" stroke:none;fill-rule:nonzero;fill:rgb(1.176471%,41.176471%,59.607843%);fill-opacity:1;" d="M 168.691406 112.820312 L 221.851562 62 L 221.851562 140 L 168.691406 194.363281 L 168.691406 112.820312 "/>
<g clip-path="url(#clip2)" clip-rule="nonzero">
<path style="fill:none;stroke-width:4;stroke-linecap:butt;stroke-linejoin:miter;stroke:rgb(100%,100%,100%);stroke-opacity:1;stroke-miterlimit:4;" d="M 356.988868 184.41857 L 469.487687 291.923077 L 469.487687 126.923077 L 356.988868 11.923828 Z M 356.988868 184.41857 " transform="matrix(0.47254,0,0,-0.472727,0,200)"/>
</g>
<path style=" stroke:none;fill-rule:nonzero;fill:rgb(1.176471%,41.176471%,59.607843%);fill-opacity:1;" d="M 196.453125 178.023438 L 185.230469 178.023438 L 184.640625 104.546875 L 193.5 101 L 198.816406 105.726562 L 199.996094 167.773438 L 196.453125 178.023438 "/>
<path style="fill:none;stroke-width:4;stroke-linecap:butt;stroke-linejoin:miter;stroke:rgb(100%,100%,100%);stroke-opacity:1;stroke-miterlimit:4;" d="M 415.738894 46.488882 L 391.989235 46.488882 L 390.740993 201.920072 L 409.489419 209.423077 L 420.740127 199.424579 L 423.236611 68.171575 Z M 415.738894 46.488882 " transform="matrix(0.47254,0,0,-0.472727,0,200)"/>
<path style=" stroke:none;fill-rule:nonzero;fill:rgb(1.176471%,41.176471%,59.607843%);fill-opacity:1;" d="M 193.5 101 L 196.453125 177.820312 L 216.535156 154.773438 L 207.675781 83.863281 L 193.5 101 "/>
<path style="fill:none;stroke-width:4;stroke-linecap:butt;stroke-linejoin:miter;stroke:rgb(100%,100%,100%);stroke-opacity:1;stroke-miterlimit:4;" d="M 409.489419 209.423077 L 415.738894 46.91857 L 458.236978 95.671575 L 439.488553 245.673828 Z M 409.489419 209.423077 " transform="matrix(0.47254,0,0,-0.472727,0,200)"/>
<path style=" stroke:none;fill-rule:nonzero;fill:rgb(1.176471%,41.176471%,59.607843%);fill-opacity:1;" d="M 180.503906 118.726562 L 103.714844 18.273438 L 130.296875 -2.410156 L 232.484375 62 L 180.503906 118.726562 "/>
<path style="fill:none;stroke-width:4;stroke-linecap:butt;stroke-linejoin:miter;stroke:rgb(100%,100%,100%);stroke-opacity:1;stroke-miterlimit:4;" d="M 381.986768 171.924579 L 219.483882 384.421575 L 275.737424 428.175331 L 491.989104 291.923077 Z M 381.986768 171.924579 " transform="matrix(0.47254,0,0,-0.472727,0,200)"/>
<path style=" stroke:none;fill-rule:nonzero;fill:rgb(1.176471%,41.176471%,59.607843%);fill-opacity:1;" d="M 192.316406 76.183594 L 204.132812 64.363281 L 198.226562 17.089844 L 187.59375 21.820312 L 187.59375 64.363281 L 192.316406 76.183594 "/>
<path style="fill:none;stroke-width:4;stroke-linecap:butt;stroke-linejoin:miter;stroke:rgb(100%,100%,100%);stroke-opacity:1;stroke-miterlimit:4;" d="M 406.984669 261.919321 L 431.990836 286.923828 L 419.491886 386.925331 L 396.990469 376.91857 L 396.990469 286.923828 Z M 406.984669 261.919321 " transform="matrix(0.47254,0,0,-0.472727,0,200)"/>
<path style=" stroke:none;fill-rule:nonzero;fill:rgb(1.176471%,41.176471%,59.607843%);fill-opacity:1;" d="M 174.597656 59.636719 L 192.316406 75.589844 L 191.136719 19.453125 L 181.6875 18.273438 L 174.597656 59.636719 "/>
<path style="fill:none;stroke-width:4;stroke-linecap:butt;stroke-linejoin:miter;stroke:rgb(100%,100%,100%);stroke-opacity:1;stroke-miterlimit:4;" d="M 369.487818 296.922326 L 406.984669 263.175331 L 404.488185 381.926082 L 384.491518 384.421575 Z M 369.487818 296.922326 " transform="matrix(0.47254,0,0,-0.472727,0,200)"/>
<path style=" stroke:none;fill-rule:nonzero;fill:rgb(1.176471%,41.176471%,59.607843%);fill-opacity:1;" d="M 181.6875 18.273438 L 190.546875 23.589844 L 198.226562 17.089844 L 189.363281 13.992188 L 181.6875 18.273438 "/>
<path style="fill:none;stroke-width:4;stroke-linecap:butt;stroke-linejoin:miter;stroke:rgb(100%,100%,100%);stroke-opacity:1;stroke-miterlimit:4;" d="M 384.491518 384.421575 L 403.239944 373.175331 L 419.491886 386.925331 L 400.735194 393.478065 Z M 384.491518 384.421575 " transform="matrix(0.47254,0,0,-0.472727,0,200)"/>
<path style=" stroke:none;fill-rule:nonzero;fill:rgb(1.176471%,41.176471%,59.607843%);fill-opacity:1;" d="M 110.804688 12.363281 L 181.6875 118.726562 L 2.121094 118.726562 L 97.808594 12.363281 L 110.804688 12.363281 "/>
<path style="fill:none;stroke-width:4;stroke-linecap:butt;stroke-linejoin:miter;stroke:rgb(100%,100%,100%);stroke-opacity:1;stroke-miterlimit:4;" d="M 234.487582 396.923828 L 384.491518 171.924579 L 4.48871 171.924579 L 206.984931 396.923828 Z M 234.487582 396.923828 " transform="matrix(0.47254,0,0,-0.472727,0,200)"/>
<path style=" stroke:none;fill-rule:nonzero;fill:rgb(1.176471%,41.176471%,59.607843%);fill-opacity:1;" d="M 50.039062 158.597656 L 133.675781 158.597656 L 133.675781 142.863281 L 50.039062 142.863281 Z M 50.039062 158.597656 "/>
<path style="fill:none;stroke-width:4;stroke-linecap:butt;stroke-linejoin:miter;stroke:rgb(100%,100%,100%);stroke-opacity:1;stroke-miterlimit:4;" d="M 105.893884 87.581881 L 282.887948 87.581881 L 282.887948 120.866136 L 105.893884 120.866136 Z M 228.667965 102.042518 L 273.323606 102.042518 M 228.667965 103.63732 L 273.323606 103.63732 " transform="matrix(0.47254,0,0,-0.472727,0,200)"/>
<path style=" stroke:none;fill-rule:nonzero;fill:rgb(1.176471%,41.176471%,59.607843%);fill-opacity:1;" d="M 148.132812 143.285156 L 148.132812 129.21875 L 133.675781 142.917969 L 133.675781 158.503906 L 148.132812 143.285156 "/>
<path style="fill:none;stroke-width:4;stroke-linecap:butt;stroke-linejoin:miter;stroke:rgb(100%,100%,100%);stroke-opacity:1;stroke-miterlimit:4;" d="M 313.48227 119.973708 L 313.48227 149.729567 L 282.887948 120.750451 L 282.887948 87.780198 Z M 313.48227 119.973708 " transform="matrix(0.47254,0,0,-0.472727,0,200)"/>
<path style=" stroke:none;fill-rule:nonzero;fill:rgb(1.176471%,41.176471%,59.607843%);fill-opacity:1;" d="M 118.820312 171.355469 L 118.820312 167.832031 L 126.421875 157.320312 L 126.421875 163.769531 L 118.820312 171.355469 "/>
<path style="fill:none;stroke-width:4;stroke-linecap:butt;stroke-linejoin:miter;stroke:rgb(100%,100%,100%);stroke-opacity:1;stroke-miterlimit:4;" d="M 251.450443 60.594201 L 251.450443 68.047626 L 267.537055 90.283954 L 267.537055 76.641376 Z M 251.450443 60.594201 " transform="matrix(0.47254,0,0,-0.472727,0,200)"/>
<path style="fill-rule:nonzero;fill:rgb(1.176471%,41.176471%,59.607843%);fill-opacity:1;stroke-width:4;stroke-linecap:butt;stroke-linejoin:miter;stroke:rgb(100%,100%,100%);stroke-opacity:1;stroke-miterlimit:4;" d="M 109.646876 60.594201 L 251.450443 60.594201 L 251.450443 67.931941 L 109.646876 67.931941 Z M 109.646876 60.594201 " transform="matrix(0.47254,0,0,-0.472727,0,200)"/>
<path style=" stroke:none;fill-rule:nonzero;fill:rgb(1.176471%,41.176471%,59.607843%);fill-opacity:1;" d="M 118.820312 167.886719 L 52.035156 167.886719 L 59.640625 157.320312 L 126.421875 157.320312 L 118.820312 167.886719 "/>
<path style="fill:none;stroke-width:4;stroke-linecap:butt;stroke-linejoin:miter;stroke:rgb(100%,100%,100%);stroke-opacity:1;stroke-miterlimit:4;" d="M 251.450443 67.931941 L 110.118067 67.931941 L 126.212945 90.283954 L 267.537055 90.283954 Z M 251.450443 67.931941 " transform="matrix(0.47254,0,0,-0.472727,0,200)"/>
<path style=" stroke:none;fill-rule:nonzero;fill:rgb(1.176471%,41.176471%,59.607843%);fill-opacity:1;" d="M 147.6875 129.644531 L 64.054688 129.644531 L 50.039062 142.863281 L 133.675781 142.863281 L 147.6875 129.644531 "/>
<path style="fill:none;stroke-width:4;stroke-linecap:butt;stroke-linejoin:miter;stroke:rgb(100%,100%,100%);stroke-opacity:1;stroke-miterlimit:4;" d="M 312.539889 148.828876 L 135.554092 148.828876 L 105.893884 120.866136 L 282.887948 120.866136 Z M 312.539889 148.828876 " transform="matrix(0.47254,0,0,-0.472727,0,200)"/>
<path style=" stroke:none;fill-rule:nonzero;fill:rgb(1.176471%,41.176471%,59.607843%);fill-opacity:1;" d="M 131.960938 129.699219 L 75.976562 129.699219 L 66.578125 138.546875 L 122.582031 138.546875 L 131.960938 129.699219 "/>
<path style="fill:none;stroke-width:4;stroke-linecap:butt;stroke-linejoin:miter;stroke:rgb(100%,100%,100%);stroke-opacity:1;stroke-miterlimit:4;" d="M 279.258954 148.713191 L 160.783454 148.713191 L 140.894252 129.996995 L 259.411084 129.996995 Z M 279.258954 148.713191 " transform="matrix(0.47254,0,0,-0.472727,0,200)"/>
<path style="fill-rule:nonzero;fill:rgb(1.176471%,41.176471%,59.607843%);fill-opacity:1;stroke-width:4;stroke-linecap:butt;stroke-linejoin:miter;stroke:rgb(100%,100%,100%);stroke-opacity:1;stroke-miterlimit:4;" d="M 137.538052 137.309946 L 259.60948 137.309946 L 259.60948 226.759315 L 137.538052 226.759315 Z M 137.538052 137.309946 " transform="matrix(0.47254,0,0,-0.472727,0,200)"/>
<path style=" stroke:none;fill-rule:nonzero;fill:rgb(1.176471%,41.176471%,59.607843%);fill-opacity:1;" d="M 69.867188 102.074219 C 69.867188 97.824219 74.257812 97.195312 74.257812 97.195312 L 112.304688 97.195312 C 117.636719 97.195312 117.488281 102.21875 117.488281 102.21875 L 117.488281 125.964844 C 117.488281 128.957031 113.390625 130.214844 113.390625 130.214844 L 74.886719 130.214844 C 71.121094 130.214844 69.867188 126.28125 69.867188 126.28125 L 69.867188 102.074219 "/>
<path style="fill:none;stroke-width:4;stroke-linecap:butt;stroke-linejoin:miter;stroke:rgb(100%,100%,100%);stroke-opacity:1;stroke-miterlimit:4;" d="M 147.854646 207.150691 C 147.854646 216.141076 157.146194 217.471454 157.146194 217.471454 L 237.661918 217.471454 C 248.945693 217.471454 248.631566 206.844952 248.631566 206.844952 L 248.631566 156.612831 C 248.631566 150.283203 239.960006 147.622446 239.960006 147.622446 L 158.4771 147.622446 C 150.508193 147.622446 147.854646 155.94351 147.854646 155.94351 Z M 147.854646 207.150691 " transform="matrix(0.47254,0,0,-0.472727,0,200)"/>
<path style=" stroke:none;fill-rule:nonzero;fill:rgb(1.176471%,41.176471%,59.607843%);fill-opacity:1;" d="M 132.328125 83.679688 L 74.667969 83.679688 L 64.992188 92.804688 L 122.675781 92.804688 L 132.328125 83.679688 "/>
<path style="fill:none;stroke-width:4;stroke-linecap:butt;stroke-linejoin:miter;stroke:rgb(100%,100%,100%);stroke-opacity:1;stroke-miterlimit:4;" d="M 280.036005 246.0622 L 158.014176 246.0622 L 137.538052 226.759315 L 259.60948 226.759315 Z M 280.036005 246.0622 " transform="matrix(0.47254,0,0,-0.472727,0,200)"/>
<path style=" stroke:none;fill-rule:nonzero;fill:rgb(1.176471%,41.176471%,59.607843%);fill-opacity:1;" d="M 132.328125 126.097656 L 132.328125 83.660156 L 122.765625 92.710938 L 122.765625 135.164062 L 132.328125 126.097656 "/>
<path style="fill:none;stroke-width:4;stroke-linecap:butt;stroke-linejoin:miter;stroke:rgb(100%,100%,100%);stroke-opacity:1;stroke-miterlimit:4;" d="M 280.036005 156.331881 L 280.036005 246.103516 L 259.79961 226.957632 L 259.79961 137.152945 Z M 280.036005 156.331881 " transform="matrix(0.47254,0,0,-0.472727,0,200)"/>
</g>
</svg>
