<?xml version="1.0" encoding="UTF-8"?>
<svg xmlns="http://www.w3.org/2000/svg" xmlns:xlink="http://www.w3.org/1999/xlink" width="229pt" height="200pt" viewBox="0 0 229 200" version="1.1">
<defs>
<clipPath id="clip1">
  <path d="M 17 111 L 170 111 L 170 195.273438 L 17 195.273438 Z M 17 111 "/>
</clipPath>
<clipPath id="clip2">
  <path d="M 158 51 L 229 51 L 229 195.273438 L 158 195.273438 Z M 158 51 "/>
</clipPath>
</defs>
<g id="surface1">
<path style=" stroke:none;fill-rule:nonzero;fill:rgb(1.176471%,41.176471%,59.607843%);fill-opacity:1;" d="M 97.808594 12.367188 L 119.074219 -2.496094 L 130.886719 -2.496094 L 129.707031 8.820312 L 114.347656 23.003906 L 97.808594 12.367188 "/>
<path style="fill:none;stroke-width:4;stroke-linecap:butt;stroke-linejoin:miter;stroke:rgb(100%,100%,100%);stroke-opacity:1;stroke-miterlimit:4;" d="M 206.984931 396.915565 L 251.987766 428.357121 L 276.985666 428.357121 L 274.489183 404.41857 L 241.985299 374.414814 Z M 206.984931 396.915565 " transform="matrix(0.47254,0,0,-0.472727,0,200)"/>
<path style=" stroke:none;fill-rule:nonzero;fill:rgb(1.176471%,41.176471%,59.607843%);fill-opacity:1;" d="M 18.660156 194.367188 L 168.691406 194.367188 L 168.691406 112.820312 L 18.660156 112.820312 Z M 18.660156 194.367188 "/>
<g clip-path="url(#clip1)" clip-rule="nonzero">
<path style="fill:none;stroke-width:4;stroke-linecap:butt;stroke-linejoin:miter;stroke:rgb(100%,100%,100%);stroke-opacity:1;stroke-miterlimit:4;" d="M 39.489078 11.915565 L 356.988868 11.915565 L 356.988868 184.41857 L 39.489078 184.41857 Z M 39.489078 11.915565 " transform="matrix(0.47254,0,0,-0.472727,0,200)"/>
</g>
<path style=" stroke:none;fill-rule:nonzero;fill:rgb(1.176471%,41.176471%,59.607843%);fill-opacity:1;" d="M 168.691406 112.820312 L 221.851562 62.003906 L 221.851562 140.003906 L 168.691406 194.367188 L 168.691406 112.820312 "/>
<g clip-path="url(#clip2)" clip-rule="nonzero">
<path style="fill:none;stroke-width:4;stroke-linecap:butt;stroke-linejoin:miter;stroke:rgb(100%,100%,100%);stroke-opacity:1;stroke-miterlimit:4;" d="M 356.988868 184.41857 L 469.487687 291.914814 L 469.487687 126.914814 L 356.988868 11.915565 Z M 356.988868 184.41857 " transform="matrix(0.47254,0,0,-0.472727,0,200)"/>
</g>
<path style=" stroke:none;fill-rule:nonzero;fill:rgb(1.176471%,41.176471%,59.607843%);fill-opacity:1;" d="M 196.453125 178.023438 L 185.230469 178.023438 L 184.640625 104.546875 L 193.5 101.003906 L 198.816406 105.730469 L 199.996094 167.773438 L 196.453125 178.023438 "/>
<path style="fill:none;stroke-width:4;stroke-linecap:butt;stroke-linejoin:miter;stroke:rgb(100%,100%,100%);stroke-opacity:1;stroke-miterlimit:4;" d="M 415.738894 46.488882 L 391.989235 46.488882 L 390.740993 201.920072 L 409.489419 209.414814 L 420.740127 199.416316 L 423.236611 68.171575 Z M 415.738894 46.488882 " transform="matrix(0.47254,0,0,-0.472727,0,200)"/>
<path style=" stroke:none;fill-rule:nonzero;fill:rgb(1.176471%,41.176471%,59.607843%);fill-opacity:1;" d="M 193.5 101.003906 L 196.453125 177.820312 L 216.535156 154.773438 L 207.675781 83.867188 L 193.5 101.003906 "/>
<path style="fill:none;stroke-width:4;stroke-linecap:butt;stroke-linejoin:miter;stroke:rgb(100%,100%,100%);stroke-opacity:1;stroke-miterlimit:4;" d="M 409.489419 209.414814 L 415.738894 46.91857 L 458.236978 95.671575 L 439.488553 245.665565 Z M 409.489419 209.414814 " transform="matrix(0.47254,0,0,-0.472727,0,200)"/>
<path style=" stroke:none;fill-rule:nonzero;fill:rgb(1.176471%,41.176471%,59.607843%);fill-opacity:1;" d="M 180.503906 118.730469 L 103.714844 18.273438 L 130.296875 -2.40625 L 232.484375 62.003906 L 180.503906 118.730469 "/>
<path style="fill:none;stroke-width:4;stroke-linecap:butt;stroke-linejoin:miter;stroke:rgb(100%,100%,100%);stroke-opacity:1;stroke-miterlimit:4;" d="M 381.986768 171.916316 L 219.483882 384.421575 L 275.737424 428.167067 L 491.989104 291.914814 Z M 381.986768 171.916316 " transform="matrix(0.47254,0,0,-0.472727,0,200)"/>
<path style=" stroke:none;fill-rule:nonzero;fill:rgb(1.176471%,41.176471%,59.607843%);fill-opacity:1;" d="M 192.316406 76.183594 L 204.132812 64.367188 L 198.226562 17.09375 L 187.59375 21.820312 L 187.59375 64.367188 L 192.316406 76.183594 "/>
<path style="fill:none;stroke-width:4;stroke-linecap:butt;stroke-linejoin:miter;stroke:rgb(100%,100%,100%);stroke-opacity:1;stroke-miterlimit:4;" d="M 406.984669 261.919321 L 431.990836 286.915565 L 419.491886 386.917067 L 396.990469 376.91857 L 396.990469 286.915565 Z M 406.984669 261.919321 " transform="matrix(0.47254,0,0,-0.472727,0,200)"/>
<path style=" stroke:none;fill-rule:nonzero;fill:rgb(1.176471%,41.176471%,59.607843%);fill-opacity:1;" d="M 174.597656 59.640625 L 192.316406 75.59375 L 191.136719 19.457031 L 181.6875 18.273438 L 174.597656 59.640625 "/>
<path style="fill:none;stroke-width:4;stroke-linecap:butt;stroke-linejoin:miter;stroke:rgb(100%,100%,100%);stroke-opacity:1;stroke-miterlimit:4;" d="M 369.487818 296.914062 L 406.984669 263.167067 L 404.488185 381.917819 L 384.491518 384.421575 Z M 369.487818 296.914062 " transform="matrix(0.47254,0,0,-0.472727,0,200)"/>
<path style=" stroke:none;fill-rule:nonzero;fill:rgb(1.176471%,41.176471%,59.607843%);fill-opacity:1;" d="M 181.6875 18.273438 L 190.546875 23.59375 L 198.226562 17.09375 L 189.363281 14.011719 L 181.6875 18.273438 "/>
<path style="fill:none;stroke-width:4;stroke-linecap:butt;stroke-linejoin:miter;stroke:rgb(100%,100%,100%);stroke-opacity:1;stroke-miterlimit:4;" d="M 384.491518 384.421575 L 403.239944 373.167067 L 419.491886 386.917067 L 400.735194 393.436749 Z M 384.491518 384.421575 " transform="matrix(0.47254,0,0,-0.472727,0,200)"/>
<path style=" stroke:none;fill-rule:nonzero;fill:rgb(1.176471%,41.176471%,59.607843%);fill-opacity:1;" d="M 110.804688 12.367188 L 181.6875 118.730469 L 2.121094 118.730469 L 97.808594 12.367188 L 110.804688 12.367188 "/>
<path style="fill:none;stroke-width:4;stroke-linecap:butt;stroke-linejoin:miter;stroke:rgb(100%,100%,100%);stroke-opacity:1;stroke-miterlimit:4;" d="M 234.487582 396.915565 L 384.491518 171.916316 L 4.48871 171.916316 L 206.984931 396.915565 Z M 234.487582 396.915565 " transform="matrix(0.47254,0,0,-0.472727,0,200)"/>
<path style=" stroke:none;fill-rule:nonzero;fill:rgb(1.176471%,41.176471%,59.607843%);fill-opacity:1;" d="M 144.253906 120.261719 C 144.253906 130.53125 122.84375 138.859375 96.445312 138.859375 C 70.046875 138.859375 48.636719 130.53125 48.636719 120.261719 L 48.636719 147.5 C 48.636719 157.769531 70.046875 166.097656 96.445312 166.097656 C 122.84375 166.097656 144.253906 157.769531 144.253906 147.5 L 144.253906 120.261719 "/>
<path style="fill:none;stroke-width:4;stroke-linecap:butt;stroke-linejoin:miter;stroke:rgb(100%,100%,100%);stroke-opacity:1;stroke-miterlimit:4;" d="M 305.273634 168.677133 C 305.273634 146.953125 259.96494 129.335938 204.099922 129.335938 C 148.234905 129.335938 102.92621 146.953125 102.92621 168.677133 L 102.92621 111.057692 C 102.92621 89.333684 148.234905 71.716496 204.099922 71.716496 C 259.96494 71.716496 305.273634 89.333684 305.273634 111.057692 Z M 305.273634 168.677133 " transform="matrix(0.47254,0,0,-0.472727,0,200)"/>
<path style=" stroke:none;fill-rule:nonzero;fill:rgb(1.176471%,41.176471%,59.607843%);fill-opacity:1;" d="M 96.445312 138.859375 C 122.84375 138.859375 144.253906 130.53125 144.253906 120.261719 C 144.253906 109.980469 122.84375 101.667969 96.445312 101.667969 C 70.046875 101.667969 48.636719 109.980469 48.636719 120.261719 C 48.636719 130.53125 70.046875 138.859375 96.445312 138.859375 "/>
<path style="fill:none;stroke-width:4;stroke-linecap:butt;stroke-linejoin:miter;stroke:rgb(100%,100%,100%);stroke-opacity:1;stroke-miterlimit:4;" d="M 204.099922 129.335938 C 259.96494 129.335938 305.273634 146.953125 305.273634 168.677133 C 305.273634 190.425931 259.96494 208.010066 204.099922 208.010066 C 148.234905 208.010066 102.92621 190.425931 102.92621 168.677133 C 102.92621 146.953125 148.234905 129.335938 204.099922 129.335938 Z M 204.099922 129.335938 " transform="matrix(0.47254,0,0,-0.472727,0,200)"/>
<path style=" stroke:none;fill-rule:nonzero;fill:rgb(100%,100%,100%);fill-opacity:1;" d="M 85.539062 112.988281 L 89.488281 118.914062 L 74.550781 122.371094 L 77.824219 119.636719 L 54.746094 115.707031 L 60.542969 111.367188 L 82.789062 115.128906 L 85.539062 112.988281 M 106.523438 127.351562 L 103.851562 121.238281 L 117.300781 118.542969 L 114.960938 120.648438 L 137.40625 124.472656 L 132.019531 128.792969 L 109.71875 124.601562 L 106.523438 127.351562 M 99.175781 109.757812 L 114.261719 105.621094 L 114.425781 112.082031 L 110.660156 111.367188 L 103.292969 117.476562 L 96.28125 116.441406 L 103.863281 110.476562 L 99.175781 109.757812 M 92.71875 132.910156 L 78.355469 135.609375 L 77.824219 128.960938 L 81.9375 129.867188 L 89.839844 123.109375 L 96.832031 124.289062 L 88.398438 131.660156 L 92.71875 132.910156 "/>
</g>
</svg>
