<?xml version="1.0" encoding="UTF-8"?>
<svg xmlns="http://www.w3.org/2000/svg" xmlns:xlink="http://www.w3.org/1999/xlink" width="162pt" height="200pt" viewBox="0 0 162 200" version="1.1">
<g id="surface1">
<path style=" stroke:none;fill-rule:nonzero;fill:rgb(100%,100%,100%);fill-opacity:1;" d="M 22.257812 48.929688 L 0.917969 48.929688 L 0.917969 66.65625 L 19.703125 66.617188 L 21.9375 66.617188 "/>
<path style="fill:none;stroke-width:0.5;stroke-linecap:butt;stroke-linejoin:miter;stroke:rgb(13.72549%,12.156863%,12.54902%);stroke-opacity:1;stroke-miterlimit:4;" d="M 6.045332 13.21207 L 0.249325 13.21207 L 0.249325 17.997188 L 5.351466 17.986641 L 5.958333 17.986641 " transform="matrix(3.681818,0,0,3.703704,0,0)"/>
<path style=" stroke:none;fill-rule:nonzero;fill:rgb(100%,100%,100%);fill-opacity:1;" d="M 132.617188 67.304688 L 135.117188 67.304688 C 153.941406 67.304688 156.949219 84.324219 156.949219 84.324219 L 156.949219 66.640625 C 156.949219 66.640625 153.941406 49.621094 135.117188 49.621094 L 130.984375 49.621094 "/>
<path style="fill:none;stroke-width:0.5;stroke-linecap:butt;stroke-linejoin:miter;stroke:rgb(13.72549%,12.156863%,12.54902%);stroke-opacity:1;stroke-miterlimit:4;" d="M 36.019483 18.17332 L 36.698495 18.17332 C 41.811246 18.17332 42.628183 22.766484 42.628183 22.766484 L 42.628183 17.991914 C 42.628183 17.991914 41.811246 13.396641 36.698495 13.396641 L 35.576003 13.396641 " transform="matrix(3.681818,0,0,3.703704,0,0)"/>
<path style="fill-rule:nonzero;fill:rgb(3.137255%,50.588235%,75.686275%);fill-opacity:1;stroke-width:0.5;stroke-linecap:butt;stroke-linejoin:miter;stroke:rgb(100%,100%,100%);stroke-opacity:1;stroke-miterlimit:4;" d="M 5.244309 51.795703 L 32.138503 51.795703 L 32.138503 4.906406 L 5.244309 4.906406 Z M 5.244309 51.795703 " transform="matrix(3.681818,0,0,3.703704,0,0)"/>
<path style=" stroke:none;fill-rule:nonzero;fill:rgb(3.137255%,50.588235%,75.686275%);fill-opacity:1;" d="M 19.308594 18.171875 L 38.238281 2.707031 L 133.703125 2.707031 L 118.328125 18.171875 L 19.308594 18.171875 "/>
<path style="fill:none;stroke-width:0.5;stroke-linecap:butt;stroke-linejoin:miter;stroke:rgb(100%,100%,100%);stroke-opacity:1;stroke-miterlimit:4;" d="M 5.244309 4.906406 L 10.385706 0.729844 L 36.314429 0.729844 L 32.138503 4.905352 L 5.244309 4.905352 Z M 5.244309 4.906406 " transform="matrix(3.681818,0,0,3.703704,0,0)"/>
<path style=" stroke:none;fill-rule:nonzero;fill:rgb(3.137255%,50.588235%,75.686275%);fill-opacity:1;" d="M 118.328125 191.835938 L 133.703125 172.8125 L 133.703125 2.703125 L 118.328125 18.167969 L 118.328125 191.832031 "/>
<path style="fill:none;stroke-width:0.5;stroke-linecap:butt;stroke-linejoin:miter;stroke:rgb(100%,100%,100%);stroke-opacity:1;stroke-miterlimit:4;" d="M 32.138503 51.795703 L 36.314429 46.66043 L 36.314429 0.729844 L 32.138503 4.905352 Z M 32.138503 51.795703 " transform="matrix(3.681818,0,0,3.703704,0,0)"/>
<path style=" stroke:none;fill-rule:nonzero;fill:rgb(100%,100%,100%);fill-opacity:1;" d="M 156.945312 72.230469 L 156.945312 93.167969 C 154.914062 118.046875 111.066406 116.75 111.066406 116.75 L 111.066406 135.070312 L 82.429688 106.257812 L 111.066406 77.457031 L 111.066406 95.789062 C 111.066406 95.789062 155.648438 97.109375 156.945312 72.230469 "/>
<path style="fill:none;stroke-width:0.5;stroke-linecap:butt;stroke-linejoin:miter;stroke:rgb(13.72549%,12.156863%,12.54902%);stroke-opacity:1;stroke-miterlimit:4;" d="M 42.627122 19.501172 L 42.627122 25.155352 C 42.075424 31.872656 30.166184 31.5225 30.166184 31.5225 L 30.166184 36.46793 L 22.38831 28.690664 L 30.166184 20.912344 L 30.166184 25.863047 C 30.166184 25.863047 42.274884 26.219531 42.627122 19.501172 " transform="matrix(3.681818,0,0,3.703704,0,0)"/>
<path style=" stroke:none;fill-rule:nonzero;fill:rgb(100%,100%,100%);fill-opacity:1;" d="M 33.582031 46.542969 L 28.761719 51.25 L 28.78125 29.003906 L 50.898438 29.003906 L 46.003906 34.050781 L 45.070312 35.039062 L 77.984375 68.082031 L 67.234375 78.894531 L 34.355469 45.820312 L 33.582031 46.542969 M 35.609375 163.535156 L 30.792969 158.828125 L 30.8125 181.074219 L 52.925781 181.074219 L 48.035156 176.035156 L 47.097656 175.035156 L 80.019531 141.976562 L 69.269531 131.179688 L 36.382812 164.257812 L 35.609375 163.535156 M 50.070312 101.394531 L 50.070312 123.761719 L 26.480469 123.761719 L 26.480469 101.394531 C 38.273438 94.285156 50.070312 101.394531 50.070312 101.394531 "/>
<path style=" stroke:none;fill-rule:nonzero;fill:rgb(100%,100%,100%);fill-opacity:1;" d="M 45.570312 91.683594 C 45.5625 95.613281 42.390625 98.789062 38.488281 98.78125 C 34.585938 98.773438 31.425781 95.585938 31.433594 91.660156 C 31.4375 87.734375 34.605469 84.554688 38.507812 84.558594 C 40.382812 84.5625 42.183594 85.3125 43.507812 86.648438 C 44.832031 87.988281 45.574219 89.796875 45.570312 91.683594 M 78.832031 101.394531 L 78.832031 123.761719 L 55.246094 123.761719 L 55.246094 101.394531 C 67.035156 94.285156 78.832031 101.394531 78.832031 101.394531 "/>
<path style=" stroke:none;fill-rule:nonzero;fill:rgb(100%,100%,100%);fill-opacity:1;" d="M 74.335938 91.683594 C 74.335938 95.613281 71.167969 98.800781 67.261719 98.800781 C 63.355469 98.800781 60.191406 95.613281 60.191406 91.683594 C 60.191406 87.753906 63.355469 84.570312 67.261719 84.570312 C 71.167969 84.570312 74.335938 87.753906 74.335938 91.683594 "/>
</g>
</svg>
