<?xml version="1.0" encoding="UTF-8"?>
<svg xmlns="http://www.w3.org/2000/svg" xmlns:xlink="http://www.w3.org/1999/xlink" width="369pt" height="200pt" viewBox="0 0 369 200" version="1.1">
<g id="surface1">
<path style=" stroke:none;fill-rule:nonzero;fill:rgb(3.137255%,48.235294%,73.333333%);fill-opacity:1;" d="M 4.28125 97.667969 L 113.390625 9.304688 L 365.253906 9.304688 L 274.960938 97.667969 L 4.28125 97.667969 "/>
<path style="fill:none;stroke-width:0.5;stroke-linecap:butt;stroke-linejoin:miter;stroke:rgb(100%,100%,100%);stroke-opacity:1;stroke-miterlimit:4;" d="M 0.707741 16.115215 L 18.744792 1.535273 L 60.380727 1.535273 L 45.454247 16.115215 Z M 0.707741 16.115215 " transform="matrix(6.04918,0,0,6.060606,0,0)"/>
<path style=" stroke:none;fill-rule:nonzero;fill:rgb(3.137255%,48.235294%,73.333333%);fill-opacity:1;" d="M 274.960938 185.527344 L 365.25 87.878906 L 365.25 9.417969 L 274.953125 97.660156 L 274.953125 185.519531 "/>
<path style="fill:none;stroke-width:0.5;stroke-linecap:butt;stroke-linejoin:miter;stroke:rgb(100%,100%,100%);stroke-opacity:1;stroke-miterlimit:4;" d="M 45.454247 30.613301 L 60.380081 14.49873 L 60.380081 1.555254 L 45.452956 16.115215 L 45.452956 30.613301 Z M 45.454247 30.613301 " transform="matrix(6.04918,0,0,6.060606,0,0)"/>
<path style="fill-rule:nonzero;fill:rgb(3.137255%,48.235294%,73.333333%);fill-opacity:1;stroke-width:0.5;stroke-linecap:butt;stroke-linejoin:miter;stroke:rgb(100%,100%,100%);stroke-opacity:1;stroke-miterlimit:4;" d="M 0.765858 30.626191 L 45.454247 30.626191 L 45.454247 16.115859 L 0.765858 16.115859 Z M 0.765858 30.626191 " transform="matrix(6.04918,0,0,6.060606,0,0)"/>
<path style="fill:none;stroke-width:1.25;stroke-linecap:butt;stroke-linejoin:miter;stroke:rgb(100%,100%,100%);stroke-opacity:1;stroke-miterlimit:4;" d="M 23.110053 30.626191 L 23.110053 16.115859 " transform="matrix(6.04918,0,0,6.060606,0,0)"/>
<path style=" stroke:none;fill-rule:nonzero;fill:rgb(100%,100%,100%);fill-opacity:1;" d="M 190.695312 168.394531 L 237.660156 141.761719 L 190.695312 115.128906 L 190.695312 168.398438 "/>
<path style="fill:none;stroke-width:0.497875;stroke-linecap:butt;stroke-linejoin:miter;stroke:rgb(100%,100%,100%);stroke-opacity:1;stroke-miterlimit:4;" d="M 31.524157 27.785098 L 39.287993 23.390039 L 31.524157 18.996914 Z M 31.524157 27.785098 " transform="matrix(6.04918,0,0,6.060606,0,0)"/>
<path style=" stroke:none;fill-rule:nonzero;fill:rgb(100%,100%,100%);fill-opacity:1;" d="M 108.867188 55.640625 L 108.898438 55.640625 L 228.113281 55.625 L 213.222656 69.734375 L 278.886719 51.089844 L 252.570312 32.449219 L 237.660156 46.5625 L 118.441406 46.59375 L 108.875 55.640625 M 82.730469 124.242188 L 24.929688 124.242188 L 24.929688 116.902344 L 82.730469 116.902344 L 82.730469 105.425781 L 116.230469 120.574219 L 82.730469 135.695312 L 82.730469 124.242188 M 82.730469 165.351562 L 24.929688 165.351562 L 24.929688 158.035156 L 82.730469 158.035156 L 82.730469 146.550781 L 116.230469 161.703125 L 82.730469 176.835938 L 82.730469 165.351562 "/>
</g>
</svg>
