<?xml version="1.0" encoding="UTF-8"?>
<svg xmlns="http://www.w3.org/2000/svg" xmlns:xlink="http://www.w3.org/1999/xlink" width="203pt" height="200pt" viewBox="0 0 203 200" version="1.1">
<g id="surface1">
<path style=" stroke:none;fill-rule:nonzero;fill:rgb(3.137255%,49.803922%,74.901961%);fill-opacity:1;" d="M 180.453125 132.488281 L 196.5625 44.46875 L 73.65625 44.46875 L 55.542969 132.488281 L 180.449219 132.488281 "/>
<path style="fill:none;stroke-width:0.5;stroke-linecap:butt;stroke-linejoin:miter;stroke:rgb(100%,100%,100%);stroke-opacity:1;stroke-miterlimit:4;" d="M 48.891241 35.771836 L 53.25585 12.006563 L 19.956127 12.006563 L 15.048588 35.771836 Z M 48.891241 35.771836 " transform="matrix(3.690909,0,0,3.703704,0,0)"/>
<path style=" stroke:none;fill-rule:nonzero;fill:rgb(3.137255%,49.803922%,74.901961%);fill-opacity:1;" d="M 196.5625 44.46875 L 201.375 50.707031 L 186.378906 136.179688 L 180.453125 132.488281 L 196.5625 44.46875 "/>
<path style="fill:none;stroke-width:0.5;stroke-linecap:butt;stroke-linejoin:miter;stroke:rgb(100%,100%,100%);stroke-opacity:1;stroke-miterlimit:4;" d="M 53.25585 12.006563 L 54.559729 13.691953 L 50.496748 36.768516 L 48.891241 35.771836 Z M 53.25585 12.006563 " transform="matrix(3.690909,0,0,3.703704,0,0)"/>
<path style=" stroke:none;fill-rule:nonzero;fill:rgb(3.137255%,49.803922%,74.901961%);fill-opacity:1;" d="M 55.542969 132.488281 L 60.914062 136.179688 L 186.378906 136.179688 L 180.453125 132.488281 L 55.546875 132.488281 "/>
<path style="fill:none;stroke-width:0.5;stroke-linecap:butt;stroke-linejoin:miter;stroke:rgb(100%,100%,100%);stroke-opacity:1;stroke-miterlimit:4;" d="M 15.048588 35.771836 L 16.50381 36.768516 L 50.496748 36.768516 L 48.891241 35.771836 Z M 15.048588 35.771836 " transform="matrix(3.690909,0,0,3.703704,0,0)"/>
<path style=" stroke:none;fill-rule:nonzero;fill:rgb(3.137255%,49.803922%,74.901961%);fill-opacity:1;" d="M 181.589844 138.292969 L 181.589844 150.917969 L 178.328125 153.753906 C 178.328125 153.753906 170.703125 156.015625 172.398438 160.554688 L 138.355469 192.3125 L 138.355469 178.421875 L 181.589844 138.292969 "/>
<path style="fill:none;stroke-width:0.5;stroke-linecap:butt;stroke-linejoin:miter;stroke:rgb(100%,100%,100%);stroke-opacity:1;stroke-miterlimit:4;" d="M 49.199219 37.340156 L 49.199219 40.746797 L 48.315502 41.5125 C 48.315502 41.5125 46.249615 42.125273 46.708936 43.349766 L 37.485472 51.924375 L 37.485472 48.173906 Z M 49.199219 37.340156 " transform="matrix(3.690909,0,0,3.703704,0,0)"/>
<path style="fill-rule:nonzero;fill:rgb(3.137255%,49.803922%,74.901961%);fill-opacity:1;stroke-width:0.5;stroke-linecap:butt;stroke-linejoin:miter;stroke:rgb(100%,100%,100%);stroke-opacity:1;stroke-miterlimit:4;" d="M 0.770474 51.924375 L 37.485472 51.924375 L 37.485472 48.173906 L 0.770474 48.173906 Z M 0.770474 51.924375 " transform="matrix(3.690909,0,0,3.703704,0,0)"/>
<path style=" stroke:none;fill-rule:nonzero;fill:rgb(3.137255%,49.803922%,74.901961%);fill-opacity:1;" d="M 56.96875 139.144531 L 181.589844 138.292969 L 138.355469 178.421875 L 2.84375 178.421875 L 56.964844 139.144531 "/>
<path style="fill:none;stroke-width:0.5;stroke-linecap:butt;stroke-linejoin:miter;stroke:rgb(100%,100%,100%);stroke-opacity:1;stroke-miterlimit:4;" d="M 15.434883 37.567969 L 49.199219 37.339102 L 37.485472 48.173906 L 0.770474 48.173906 L 15.433825 37.567969 Z M 15.434883 37.567969 " transform="matrix(3.690909,0,0,3.703704,0,0)"/>
<path style=" stroke:none;fill-rule:nonzero;fill:rgb(3.137255%,49.803922%,74.901961%);fill-opacity:1;" d="M 170.023438 124.203125 L 182.886719 54.613281 L 82.9375 54.613281 L 70.070312 124.207031 L 170.023438 124.207031 "/>
<path style="fill:none;stroke-width:0.5;stroke-linecap:butt;stroke-linejoin:miter;stroke:rgb(100%,100%,100%);stroke-opacity:1;stroke-miterlimit:4;" d="M 46.065463 33.535898 L 49.550589 14.745586 L 22.470751 14.745586 L 18.984567 33.535898 Z M 46.065463 33.535898 " transform="matrix(3.690909,0,0,3.703704,0,0)"/>
<path style="fill:none;stroke-width:0.125;stroke-linecap:butt;stroke-linejoin:round;stroke:rgb(100%,100%,100%);stroke-opacity:1;stroke-miterlimit:4;" d="M 16.225466 37.808438 L 7.710033 44.687109 M 18.960226 37.808438 L 10.443735 44.687109 M 21.693927 37.808438 L 13.178494 44.687109 M 24.428687 37.808438 L 15.913254 44.687109 M 27.163447 37.808438 L 18.648014 44.687109 M 29.898207 37.808438 L 21.380657 44.687109 M 32.63085 37.808438 L 24.116476 44.687109 M 35.36561 37.808438 L 26.850177 44.687109 M 38.100369 37.808438 L 29.584937 44.687109 M 40.835129 37.808438 L 32.318638 44.687109 M 43.568831 37.808438 L 35.054457 44.687109 M 46.303591 37.808438 L 37.788158 44.687109 M 8.662542 43.96043 L 38.979853 43.96043 M 10.703029 42.382617 L 40.54726 42.382617 M 12.816541 40.810078 L 42.583513 40.810078 M 14.697218 39.23332 L 44.703375 39.23332 " transform="matrix(3.690909,0,0,3.703704,0,0)"/>
<path style=" stroke:none;fill-rule:nonzero;fill:rgb(3.137255%,49.803922%,74.901961%);fill-opacity:1;" d="M 138.664062 33.148438 C 147.238281 33.144531 154.183594 26.164062 154.175781 17.558594 C 154.179688 13.429688 152.546875 9.46875 149.636719 6.550781 C 146.726562 3.628906 142.78125 1.992188 138.667969 1.992188 C 130.089844 1.980469 123.132812 8.953125 123.128906 17.558594 C 123.128906 26.171875 130.085938 33.152344 138.667969 33.152344 "/>
<path style="fill:none;stroke-width:0.4;stroke-linecap:butt;stroke-linejoin:miter;stroke:rgb(100%,100%,100%);stroke-opacity:1;stroke-miterlimit:4;" d="M 37.569081 8.950078 C 39.892145 8.949023 41.774938 7.063242 41.771763 4.739766 C 41.772822 2.418398 39.891087 0.536836 37.570139 0.537891 C 35.246017 0.534727 33.360048 2.418398 33.360048 4.741875 C 33.35899 7.067461 35.244958 8.952188 37.570139 8.952188 Z M 37.569081 8.950078 " transform="matrix(3.690909,0,0,3.703704,0,0)"/>
<path style=" stroke:none;fill-rule:nonzero;fill:rgb(3.137255%,49.803922%,74.901961%);fill-opacity:1;" d="M 116.171875 41.210938 L 120.191406 17.089844 C 120.394531 27.265625 128.671875 35.410156 138.816406 35.410156 C 148.957031 35.410156 157.238281 27.265625 157.4375 17.089844 L 161.242188 41.230469 L 116.175781 41.210938 "/>
<path style=" stroke:none;fill-rule:nonzero;fill:rgb(100%,100%,100%);fill-opacity:1;" d="M 128.011719 21.628906 L 149.1875 21.628906 L 149.1875 14.539062 L 128.011719 14.539062 Z M 125.109375 64.269531 L 142.339844 64.269531 C 133.722656 66.492188 130.277344 76.113281 130.277344 76.113281 L 137.421875 80.078125 L 122.15625 90.1875 L 114.527344 67.980469 L 120.675781 71 C 121.648438 67.3125 125.109375 64.273438 125.109375 64.273438 M 139.382812 118.601562 C 141.992188 110.0625 135.273438 102.867188 135.273438 102.867188 L 128.1875 106.917969 L 127.542969 88.578125 L 150.425781 93.644531 L 144.648438 97.3125 C 150.699219 105.503906 149.042969 115.304688 149.042969 115.304688 C 145.78125 119.574219 139.382812 118.601562 139.382812 118.601562 M 97.679688 92.894531 C 103.210938 95.824219 109.433594 94.488281 109.433594 94.488281 L 109.632812 86.320312 L 125.613281 95.214844 L 109.5 112.289062 L 109.335938 105.414062 C 104.636719 105.867188 100.46875 104.710938 97.386719 103.351562 L 97.679688 92.894531 "/>
</g>
</svg>
