<?xml version="1.0" encoding="UTF-8"?>
<svg xmlns="http://www.w3.org/2000/svg" xmlns:xlink="http://www.w3.org/1999/xlink" width="232pt" height="200pt" viewBox="0 0 232 200" version="1.1">
<g id="surface1">
<path style="fill-rule:nonzero;fill:rgb(3.137255%,49.019608%,74.117647%);fill-opacity:1;stroke-width:0.5;stroke-linecap:butt;stroke-linejoin:miter;stroke:rgb(100%,100%,100%);stroke-opacity:1;stroke-miterlimit:4;" d="M 0.708008 40.440996 L 43.228044 40.440996 L 43.228044 8.570605 L 0.708008 8.570605 Z M 0.708008 40.440996 " transform="matrix(4.64,0,0,4.651163,0,0)"/>
<path style=" stroke:none;fill-rule:nonzero;fill:rgb(3.137255%,49.019608%,74.117647%);fill-opacity:1;" d="M 226.042969 150.785156 L 200.578125 188.097656 L 200.578125 39.863281 L 226.042969 8.933594 L 226.042969 150.789062 "/>
<path style="fill:none;stroke-width:0.5;stroke-linecap:butt;stroke-linejoin:miter;stroke:rgb(100%,100%,100%);stroke-opacity:1;stroke-miterlimit:4;" d="M 48.716157 32.418809 L 43.228044 40.440996 L 43.228044 8.570605 L 48.716157 1.920723 L 48.716157 32.419648 Z M 48.716157 32.418809 " transform="matrix(4.64,0,0,4.651163,0,0)"/>
<path style=" stroke:none;fill-rule:nonzero;fill:rgb(3.137255%,49.019608%,74.117647%);fill-opacity:1;" d="M 41.457031 8.933594 L 226.042969 8.933594 L 200.578125 39.863281 L 3.285156 39.863281 L 41.457031 8.933594 "/>
<path style="fill:none;stroke-width:0.5;stroke-linecap:butt;stroke-linejoin:miter;stroke:rgb(100%,100%,100%);stroke-opacity:1;stroke-miterlimit:4;" d="M 8.934705 1.920723 L 48.716157 1.920723 L 43.228044 8.570605 L 0.708008 8.570605 Z M 8.934705 1.920723 " transform="matrix(4.64,0,0,4.651163,0,0)"/>
<path style=" stroke:none;fill-rule:evenodd;fill:rgb(100%,100%,100%);fill-opacity:1;" d="M 189.339844 118.96875 L 22.339844 118.96875 L 22.339844 122.640625 L 10.625 116.335938 L 22.339844 109.753906 L 22.339844 113.449219 L 189.246094 113.449219 L 189.339844 118.972656 "/>
<path style=" stroke:none;fill-rule:nonzero;fill:rgb(100%,100%,100%);fill-opacity:1;" d="M 41.894531 63.667969 L 162.375 63.667969 C 167.132812 63.667969 170.964844 67.507812 170.964844 72.273438 L 170.964844 163.277344 C 170.964844 168.023438 167.132812 171.859375 162.382812 171.859375 L 41.890625 171.859375 C 39.613281 171.867188 37.429688 170.96875 35.820312 169.355469 C 34.207031 167.746094 33.300781 165.558594 33.300781 163.277344 L 33.300781 72.273438 C 33.300781 67.507812 37.125 63.667969 41.886719 63.667969 "/>
<path style="fill:none;stroke-width:0.4;stroke-linecap:butt;stroke-linejoin:miter;stroke:rgb(100%,100%,100%);stroke-opacity:1;stroke-miterlimit:4;" d="M 9.028994 13.688613 L 34.994612 13.688613 C 36.020003 13.688613 36.845871 14.51418 36.845871 15.538789 L 36.845871 35.103789 C 36.845871 35.594258 36.650559 36.06457 36.303711 36.410586 C 35.956863 36.757441 35.486261 36.951445 34.996296 36.949766 L 9.028152 36.949766 C 8.537345 36.951445 8.066743 36.757441 7.719053 36.411426 C 7.372205 36.06541 7.176893 35.594258 7.176893 35.103789 L 7.176893 15.538789 C 7.176893 14.51418 8.001078 13.688613 9.02731 13.688613 Z M 9.028994 13.688613 " transform="matrix(4.64,0,0,4.651163,0,0)"/>
<path style=" stroke:none;fill-rule:nonzero;fill:rgb(47.058824%,70.588235%,85.882353%);fill-opacity:1;" d="M 40.050781 134.046875 L 100.613281 134.046875 L 100.613281 73.34375 L 40.050781 73.34375 Z M 40.050781 134.046875 "/>
<path style="fill:none;stroke-width:0.55;stroke-linecap:round;stroke-linejoin:round;stroke:rgb(100%,100%,100%);stroke-opacity:1;stroke-miterlimit:4;" d="M 10.883621 18.259043 L 19.438645 18.259043 M 10.883621 19.953008 L 19.438645 19.953008 M 10.883621 21.647813 L 19.438645 21.647813 M 10.883621 23.335898 L 19.438645 23.335898 M 10.883621 25.030703 L 19.438645 25.030703 M 10.883621 26.724668 L 19.438645 26.724668 " transform="matrix(4.64,0,0,4.651163,0,0)"/>
<path style="fill-rule:nonzero;fill:rgb(47.058824%,70.588235%,85.882353%);fill-opacity:1;stroke-width:0.4125;stroke-linecap:round;stroke-linejoin:round;stroke:rgb(100%,100%,100%);stroke-opacity:1;stroke-miterlimit:4;" d="M 21.055024 36.06625 L 35.409651 36.06625 L 35.409651 21.710801 L 21.055024 21.710801 Z M 21.055024 36.06625 " transform="matrix(4.64,0,0,4.651163,0,0)"/>
<path style=" stroke:none;fill-rule:nonzero;fill:rgb(100%,100%,100%);fill-opacity:1;" d="M 134.578125 138.496094 C 139.519531 136.886719 142.5625 131.914062 141.753906 126.769531 C 140.949219 121.625 136.535156 117.828125 131.339844 117.808594 C 125.492188 117.808594 120.746094 122.550781 120.734375 128.414062 C 120.734375 132.851562 123.492188 136.820312 127.644531 138.359375 C 122.578125 138.726562 117.667969 140.300781 113.328125 142.949219 L 113.328125 170.472656 L 148.648438 170.472656 L 148.648438 142.949219 C 148.648438 142.949219 142.847656 139.449219 134.578125 138.496094 "/>
<path style=" stroke:none;fill-rule:evenodd;fill:rgb(100%,100%,100%);fill-opacity:1;" d="M 188.003906 139.953125 L 183.875 139.953125 L 183.875 136.25 L 172.167969 142.835938 L 183.878906 149.148438 L 183.878906 145.472656 L 188.003906 145.472656 L 188.003906 176.996094 L 193.53125 176.996094 L 193.53125 139.953125 L 188.003906 139.953125 "/>
<path style=" stroke:none;fill-rule:nonzero;fill:rgb(6.27451%,5.882353%,5.098039%);fill-opacity:1;" d="M 123.5 143.066406 C 123.246094 143.382812 123.128906 143.792969 123.175781 144.195312 C 123.222656 144.601562 123.429688 144.972656 123.75 145.222656 C 124.40625 145.75 125.363281 145.644531 125.890625 144.984375 C 126.414062 144.324219 126.308594 143.363281 125.652344 142.835938 C 125.335938 142.578125 124.933594 142.457031 124.527344 142.5 C 124.121094 142.542969 123.753906 142.746094 123.5 143.066406 "/>
<path style="fill:none;stroke-width:0.25;stroke-linecap:butt;stroke-linejoin:round;stroke:rgb(13.72549%,12.156863%,12.54902%);stroke-opacity:1;stroke-miterlimit:4;" d="M 24.121094 29.162734 C 24.434267 29.664961 25.205415 30.342715 25.947097 30.762637 C 26.435379 31.038105 26.79738 31.134687 26.962386 31.061621 " transform="matrix(4.64,0,0,4.651163,0,0)"/>
<path style=" stroke:none;fill-rule:nonzero;fill:rgb(6.27451%,5.882353%,5.098039%);fill-opacity:1;" d="M 115.300781 131.933594 C 115.300781 133.816406 113.777344 135.34375 111.902344 135.34375 C 110.023438 135.34375 108.5 133.816406 108.5 131.933594 C 108.5 130.054688 110.023438 128.527344 111.902344 128.527344 C 113.777344 128.527344 115.300781 130.054688 115.300781 131.933594 M 146.378906 131.933594 C 146.375 133.816406 147.894531 135.339844 149.769531 135.34375 C 151.644531 135.347656 153.167969 133.824219 153.171875 131.945312 C 153.171875 130.0625 151.65625 128.539062 149.777344 128.535156 C 147.902344 128.53125 146.378906 130.054688 146.378906 131.933594 "/>
<path style=" stroke:none;fill-rule:nonzero;fill:rgb(13.72549%,12.156863%,12.54902%);fill-opacity:1;" d="M 130.75 106.15625 C 130.75 106.15625 151.640625 106.75 151.640625 127.027344 L 151.640625 130.613281 L 149.351562 130.300781 L 150.304688 127.347656 C 150.097656 107.457031 130.75 107.976562 130.75 107.976562 L 130.902344 107.976562 C 130.902344 107.976562 112.667969 106.953125 111.449219 126.578125 L 112.328125 130.300781 L 110.042969 130.617188 L 110.042969 127.027344 C 110.042969 106.75 130.902344 106.15625 130.902344 106.15625 "/>
<path style="fill:none;stroke-width:0.075;stroke-linecap:butt;stroke-linejoin:miter;stroke:rgb(13.72549%,12.156863%,12.54902%);stroke-opacity:1;stroke-miterlimit:4;" d="M 28.178879 22.823594 C 28.178879 22.823594 32.681169 22.95125 32.681169 27.310879 L 32.681169 28.082695 L 32.187837 28.014668 L 32.393252 27.379746 C 32.348633 23.103262 28.178879 23.214961 28.178879 23.214961 L 28.211712 23.214961 C 28.211712 23.214961 24.28189 22.994922 24.019228 27.214297 L 24.208648 28.014668 L 23.716157 28.082695 L 23.716157 27.311719 C 23.716157 22.95209 28.211712 22.823594 28.211712 22.823594 " transform="matrix(4.64,0,0,4.651163,0,0)"/>
<path style=" stroke:none;fill-rule:nonzero;fill:rgb(100%,100%,100%);fill-opacity:1;" d="M 94.023438 123.039062 C 93.523438 123.097656 93.015625 122.953125 92.621094 122.636719 C 92.226562 122.320312 91.972656 121.859375 91.917969 121.351562 C 91.804688 120.308594 92.550781 119.367188 93.59375 119.238281 C 94.585938 119.207031 95.4375 119.949219 95.550781 120.9375 C 95.660156 121.929688 94.996094 122.839844 94.019531 123.03125 "/>
<path style="fill:none;stroke-width:0.3125;stroke-linecap:butt;stroke-linejoin:miter;stroke:rgb(13.72549%,12.156863%,12.54902%);stroke-opacity:1;stroke-miterlimit:4;" d="M 20.263672 26.453398 C 20.155913 26.465996 20.046471 26.434922 19.961443 26.366895 C 19.876414 26.298867 19.821693 26.199766 19.809907 26.090586 C 19.786335 25.866348 19.947131 25.663945 20.171067 25.63623 C 20.3849 25.629512 20.568427 25.789082 20.592841 26.001562 C 20.616413 26.214883 20.473296 26.410566 20.26283 26.451719 Z M 20.263672 26.453398 " transform="matrix(4.64,0,0,4.651163,0,0)"/>
<path style=" stroke:none;fill-rule:nonzero;fill:rgb(100%,100%,100%);fill-opacity:1;" d="M 95.203125 118.925781 L 91.917969 122.984375 L 80.25 113.46875 L 83.507812 109.40625 L 95.199219 118.925781 "/>
<path style="fill:none;stroke-width:0.3125;stroke-linecap:butt;stroke-linejoin:miter;stroke:rgb(13.72549%,12.156863%,12.54902%);stroke-opacity:1;stroke-miterlimit:4;" d="M 20.517915 25.569043 L 19.809907 26.441641 L 17.295259 24.395781 L 17.997373 23.522344 L 20.517073 25.569043 Z M 20.517915 25.569043 " transform="matrix(4.64,0,0,4.651163,0,0)"/>
<path style=" stroke:none;fill-rule:nonzero;fill:rgb(100%,100%,100%);fill-opacity:1;" d="M 51.226562 100.707031 C 52.195312 92.378906 59.707031 86.40625 68.019531 87.359375 C 76.320312 88.324219 82.273438 95.839844 81.335938 104.164062 C 80.375 112.5 72.863281 118.484375 64.546875 117.535156 C 56.238281 116.566406 50.277344 109.039062 51.226562 100.707031 Z M 48.78125 100.4375 C 47.671875 110.125 54.609375 118.878906 64.277344 119.988281 C 73.941406 121.097656 82.671875 114.144531 83.78125 104.457031 C 84.886719 94.769531 77.949219 86.015625 68.285156 84.90625 C 58.621094 83.796875 49.886719 90.75 48.78125 100.4375 "/>
<path style="fill:none;stroke-width:0.3125;stroke-linecap:butt;stroke-linejoin:miter;stroke:rgb(13.72549%,12.156863%,12.54902%);stroke-opacity:1;stroke-miterlimit:4;" d="M 11.040207 21.652852 C 11.248148 19.861465 12.867053 18.576504 14.659382 18.780586 C 16.448343 18.988027 17.732186 20.604727 17.529297 22.395273 C 17.322198 24.1875 15.703293 25.474141 13.910964 25.270059 C 12.120319 25.061777 10.836476 23.444238 11.040207 21.652852 Z M 10.5132 21.593223 C 10.274111 23.676875 11.769262 25.558965 13.852876 25.79748 C 15.93649 26.035996 17.818898 24.541074 18.057988 22.457422 C 18.296235 20.37377 16.800242 18.49168 14.716629 18.253164 C 12.634698 18.016328 10.753132 19.51041 10.5132 21.593223 Z M 10.5132 21.593223 " transform="matrix(4.64,0,0,4.651163,0,0)"/>
<path style=" stroke:none;fill-rule:nonzero;fill:rgb(100%,100%,100%);fill-opacity:1;" d="M 53.222656 99.164062 C 54.191406 90.835938 61.691406 84.855469 70.003906 85.785156 C 78.320312 86.75 84.289062 94.273438 83.351562 102.613281 C 82.375 110.9375 74.875 116.90625 66.566406 115.972656 C 58.261719 115.003906 52.300781 107.492188 53.222656 99.164062 Z M 50.792969 98.863281 C 49.6875 108.546875 56.613281 117.300781 66.273438 118.421875 C 75.941406 119.523438 84.671875 112.574219 85.796875 102.886719 C 86.886719 93.199219 79.945312 84.453125 70.28125 83.335938 C 60.621094 82.230469 51.898438 89.1875 50.792969 98.871094 "/>
<path style="fill:none;stroke-width:0.3125;stroke-linecap:butt;stroke-linejoin:miter;stroke:rgb(13.72549%,12.156863%,12.54902%);stroke-opacity:1;stroke-miterlimit:4;" d="M 11.4704 21.320273 C 11.679182 19.529727 13.295562 18.243926 15.087049 18.443809 C 16.879378 18.65125 18.166588 20.269629 17.963699 22.062695 C 17.752391 23.851562 16.136012 25.134844 14.346208 24.934121 C 12.556405 24.72584 11.27172 23.11082 11.4704 21.320273 Z M 10.946761 21.255605 C 10.709355 23.337578 12.20198 25.218828 14.283068 25.460703 C 16.366682 25.697539 18.248249 24.203457 18.490706 22.120645 C 18.723902 20.037832 17.228751 18.158262 15.146821 17.917227 C 13.064891 17.680391 11.185008 19.175313 10.946761 21.257285 Z M 10.946761 21.255605 " transform="matrix(4.64,0,0,4.651163,0,0)"/>
<path style=" stroke:none;fill-rule:evenodd;fill:rgb(47.058824%,70.588235%,85.882353%);fill-opacity:1;" d="M 66.246094 73.246094 L 66.246094 56.875 L 62.578125 56.875 L 68.875 45.136719 L 75.445312 56.878906 L 71.753906 56.878906 L 71.753906 73.140625 L 66.246094 73.25 "/>
</g>
</svg>
