<?xml version="1.0" encoding="UTF-8"?>
<svg xmlns="http://www.w3.org/2000/svg" xmlns:xlink="http://www.w3.org/1999/xlink" width="148pt" height="200pt" viewBox="0 0 148 200" version="1.1">
<g id="surface1">
<path style=" stroke:none;fill-rule:nonzero;fill:rgb(3.137255%,48.235294%,73.333333%);fill-opacity:1;" d="M 2.996094 192.21875 L 127.058594 192.21875 L 127.058594 68.136719 L 2.996094 68.136719 L 2.996094 192.222656 Z M 2.996094 192.21875 "/>
<path style="fill:none;stroke-width:0.5;stroke-linecap:butt;stroke-linejoin:miter;stroke:rgb(100%,100%,100%);stroke-opacity:1;stroke-miterlimit:4;" d="M 0.809755 51.899063 L 34.34016 51.899063 L 34.34016 18.397969 L 0.809755 18.397969 Z M 0.809755 51.899063 " transform="matrix(3.7,0,0,3.703704,0,0)"/>
<path style=" stroke:none;fill-rule:nonzero;fill:rgb(3.137255%,48.235294%,73.333333%);fill-opacity:1;" d="M 142.722656 176.679688 L 142.722656 52.605469 L 127.0625 68.136719 L 127.0625 192.222656 L 142.722656 176.683594 "/>
<path style="fill:none;stroke-width:0.5;stroke-linecap:butt;stroke-linejoin:miter;stroke:rgb(100%,100%,100%);stroke-opacity:1;stroke-miterlimit:4;" d="M 38.573691 47.703516 L 38.573691 14.203477 L 34.341216 18.397969 L 34.341216 51.898008 Z M 38.573691 47.703516 " transform="matrix(3.7,0,0,3.703704,0,0)"/>
<path style=" stroke:none;fill-rule:nonzero;fill:rgb(3.137255%,48.235294%,73.333333%);fill-opacity:1;" d="M 25.675781 2.421875 L 2.996094 17.957031 L 127.0625 17.957031 L 142.722656 2.421875 L 25.675781 2.421875 "/>
<path style="fill:none;stroke-width:0.5;stroke-linecap:butt;stroke-linejoin:miter;stroke:rgb(100%,100%,100%);stroke-opacity:1;stroke-miterlimit:4;" d="M 6.9394 0.652852 L 0.809755 4.848398 L 34.341216 4.848398 L 38.573691 0.652852 Z M 6.9394 0.652852 " transform="matrix(3.7,0,0,3.703704,0,0)"/>
<path style="fill-rule:nonzero;fill:rgb(3.137255%,48.235294%,73.333333%);fill-opacity:1;stroke-width:0.5;stroke-linecap:butt;stroke-linejoin:miter;stroke:rgb(100%,100%,100%);stroke-opacity:1;stroke-miterlimit:4;" d="M 0.809755 18.397969 L 34.34016 18.397969 L 34.34016 4.848398 L 0.809755 4.848398 Z M 0.809755 18.397969 " transform="matrix(3.7,0,0,3.703704,0,0)"/>
<path style=" stroke:none;fill-rule:nonzero;fill:rgb(3.137255%,48.235294%,73.333333%);fill-opacity:1;" d="M 142.722656 52.605469 L 142.722656 2.417969 L 127.058594 17.960938 L 127.058594 68.144531 L 142.71875 52.605469 "/>
<path style="fill:none;stroke-width:0.5;stroke-linecap:butt;stroke-linejoin:miter;stroke:rgb(100%,100%,100%);stroke-opacity:1;stroke-miterlimit:4;" d="M 38.573691 14.203477 L 38.573691 0.652852 L 34.34016 4.848398 L 34.34016 18.397969 L 38.572635 14.203477 Z M 38.573691 14.203477 " transform="matrix(3.7,0,0,3.703704,0,0)"/>
<path style="fill-rule:nonzero;fill:rgb(3.137255%,48.235294%,73.333333%);fill-opacity:1;stroke-width:0.5;stroke-linecap:butt;stroke-linejoin:miter;stroke:rgb(100%,100%,100%);stroke-opacity:1;stroke-miterlimit:4;" d="M 34.341216 18.397969 L 38.573691 14.203477 " transform="matrix(3.7,0,0,3.703704,0,0)"/>
<path style=" stroke:none;fill-rule:nonzero;fill:rgb(100%,100%,100%);fill-opacity:1;" d="M 23.230469 35.039062 L 43.25 35.039062 L 43.25 24.679688 L 23.230469 24.679688 Z M 88.972656 35.039062 L 108.992188 35.039062 L 108.992188 24.679688 L 88.972656 24.679688 Z M 23.230469 61.089844 L 43.25 61.089844 L 43.25 50.667969 L 23.230469 50.667969 Z M 88.972656 61.089844 L 108.992188 61.089844 L 108.992188 50.667969 L 88.972656 50.667969 Z M 88.972656 61.089844 "/>
<path style="fill:none;stroke-width:0.5;stroke-linecap:butt;stroke-linejoin:miter;stroke:rgb(100%,100%,100%);stroke-opacity:1;stroke-miterlimit:4;" d="M 9.951436 8.059922 L 26.558277 8.059922 M 9.951436 15.08625 L 26.558277 15.08625 " transform="matrix(3.7,0,0,3.703704,0,0)"/>
<path style=" stroke:none;fill-rule:nonzero;fill:rgb(13.72549%,12.156863%,12.54902%);fill-opacity:1;" d="M 33.246094 55.878906 L 98.265625 29.851562 "/>
<path style="fill:none;stroke-width:0.5;stroke-linecap:butt;stroke-linejoin:miter;stroke:rgb(100%,100%,100%);stroke-opacity:1;stroke-miterlimit:4;" d="M 8.985431 15.08625 L 26.558277 8.059922 " transform="matrix(3.7,0,0,3.703704,0,0)"/>
<path style=" stroke:none;fill-rule:nonzero;fill:rgb(13.72549%,12.156863%,12.54902%);fill-opacity:1;" d="M 33.246094 29.851562 L 98.265625 55.878906 "/>
<path style="fill:none;stroke-width:0.5;stroke-linecap:butt;stroke-linejoin:miter;stroke:rgb(100%,100%,100%);stroke-opacity:1;stroke-miterlimit:4;" d="M 8.985431 8.059922 L 26.558277 15.08625 " transform="matrix(3.7,0,0,3.703704,0,0)"/>
<path style=" stroke:none;fill-rule:nonzero;fill:rgb(100%,100%,100%);fill-opacity:1;" d="M 41.863281 123.980469 L 41.863281 113.535156 L 43.628906 113.535156 L 41.03125 109.605469 L 38.410156 113.535156 L 40.183594 113.535156 L 40.183594 123.980469 L 41.863281 123.980469 M 36.542969 125.503906 L 29.160156 118.125 L 30.402344 116.855469 L 25.757812 115.914062 L 26.699219 120.542969 L 27.96875 119.300781 L 35.355469 126.695312 L 36.542969 125.503906 M 33.835938 130.332031 L 23.398438 130.332031 L 23.398438 128.558594 L 19.457031 131.179688 L 23.398438 133.808594 L 23.398438 132.03125 L 33.835938 132.03125 L 33.835938 130.332031 M 35.355469 135.683594 L 27.972656 143.0625 L 26.703125 141.816406 L 25.761719 146.464844 L 30.40625 145.523438 L 29.164062 144.253906 L 36.546875 136.878906 L 35.363281 135.683594 M 40.183594 138.378906 L 40.183594 148.832031 L 38.410156 148.832031 L 41.03125 152.769531 L 43.628906 148.832031 L 41.863281 148.832031 L 41.863281 138.378906 L 40.183594 138.378906 M 46.707031 126.691406 L 54.089844 119.300781 L 55.335938 120.542969 L 56.277344 115.914062 L 51.632812 116.855469 L 52.898438 118.121094 L 45.511719 125.503906 L 46.703125 126.691406 "/>
<path style=" stroke:none;fill-rule:nonzero;fill:rgb(100%,100%,100%);fill-opacity:1;" d="M 47.40625 139.9375 C 49.761719 138.292969 51.363281 135.78125 51.859375 132.953125 C 52.355469 130.128906 51.710938 127.21875 50.0625 124.871094 C 48.421875 122.515625 45.910156 120.910156 43.085938 120.410156 C 40.261719 119.910156 37.355469 120.558594 35.007812 122.210938 C 32.660156 123.855469 31.058594 126.367188 30.5625 129.195312 C 30.0625 132.019531 30.710938 134.929688 32.355469 137.277344 C 33.996094 139.628906 36.507812 141.234375 39.328125 141.730469 C 42.152344 142.230469 45.058594 141.585938 47.40625 139.9375 "/>
<path style=" stroke:none;fill-rule:nonzero;fill:rgb(100%,100%,100%);fill-opacity:1;" d="M 46.46875 136.878906 L 53.855469 144.253906 L 52.609375 145.523438 L 57.234375 146.464844 L 56.296875 141.816406 L 55.042969 143.066406 L 47.660156 135.683594 L 46.46875 136.878906 M 87.949219 123.980469 L 87.949219 113.535156 L 86.15625 113.535156 L 88.777344 109.605469 L 91.402344 113.535156 L 89.625 113.535156 L 89.625 123.980469 L 87.949219 123.980469 M 93.257812 125.503906 L 100.652344 118.125 L 99.382812 116.855469 L 104.027344 115.914062 L 103.085938 120.542969 L 101.84375 119.300781 L 94.449219 126.695312 L 93.257812 125.503906 M 95.953125 130.332031 L 106.410156 130.332031 L 106.410156 128.558594 L 110.332031 131.179688 L 106.410156 133.808594 L 106.410156 132.03125 L 95.953125 132.03125 L 95.953125 130.332031 M 94.449219 135.683594 L 101.84375 143.0625 L 103.085938 141.816406 L 104.027344 146.464844 L 99.382812 145.523438 L 100.652344 144.253906 L 93.257812 136.878906 L 94.449219 135.683594 M 89.628906 138.378906 L 89.628906 148.832031 L 91.402344 148.832031 L 88.773438 152.769531 L 86.15625 148.832031 L 87.949219 148.832031 L 87.949219 138.378906 L 89.628906 138.378906 M 83.105469 126.691406 L 75.71875 119.300781 L 74.472656 120.542969 L 73.53125 115.914062 L 78.171875 116.855469 L 76.90625 118.121094 L 84.300781 125.503906 L 83.105469 126.691406 "/>
<path style=" stroke:none;fill-rule:nonzero;fill:rgb(100%,100%,100%);fill-opacity:1;" d="M 82.378906 139.9375 C 80.027344 138.292969 78.425781 135.78125 77.929688 132.957031 C 77.429688 130.128906 78.078125 127.21875 79.722656 124.871094 C 81.367188 122.515625 83.882812 120.910156 86.707031 120.414062 C 89.535156 119.914062 92.445312 120.5625 94.792969 122.210938 C 99.683594 125.636719 100.871094 132.382812 97.445312 137.277344 C 94.019531 142.175781 87.273438 143.367188 82.378906 139.9375 "/>
<path style=" stroke:none;fill-rule:nonzero;fill:rgb(100%,100%,100%);fill-opacity:1;" d="M 83.324219 136.878906 L 75.949219 144.253906 L 77.195312 145.523438 L 72.558594 146.464844 L 73.496094 141.816406 L 74.757812 143.066406 L 82.128906 135.683594 L 83.324219 136.878906 "/>
<path style="fill:none;stroke-width:1.21675;stroke-linecap:butt;stroke-linejoin:miter;stroke:rgb(100%,100%,100%);stroke-opacity:1;stroke-miterlimit:4;" d="M 12.758657 35.456484 L 22.319468 35.456484 " transform="matrix(3.7,0,0,3.703704,0,0)"/>
<path style="fill:none;stroke-width:0.5;stroke-linecap:butt;stroke-linejoin:miter;stroke:rgb(100%,100%,100%);stroke-opacity:1;stroke-miterlimit:4;" d="M 18.23163 35.430117 C 18.23163 37.479375 17.882179 39.143672 17.446157 39.143672 C 17.011191 39.143672 16.655405 37.479375 16.655405 35.429063 C 16.655405 33.377695 17.011191 31.717617 17.446157 31.717617 C 17.881123 31.717617 18.23163 33.377695 18.23163 35.429063 Z M 18.23163 35.430117 " transform="matrix(3.7,0,0,3.703704,0,0)"/>
<path style="fill:none;stroke-width:0.5;stroke-linecap:butt;stroke-linejoin:miter;stroke:rgb(100%,100%,100%);stroke-opacity:1;stroke-dasharray:18,18;stroke-miterlimit:4;" d="M 4.042441 45.702773 L 30.897382 45.702773 L 30.897382 24.609023 L 4.042441 24.609023 Z M 4.042441 45.702773 " transform="matrix(3.7,0,0,3.703704,0,0)"/>
</g>
</svg>
