<?xml version="1.0" encoding="UTF-8"?>
<svg xmlns="http://www.w3.org/2000/svg" xmlns:xlink="http://www.w3.org/1999/xlink" width="268pt" height="200pt" viewBox="0 0 268 200" version="1.1">
<g id="surface1">
<path style=" stroke:none;fill-rule:nonzero;fill:rgb(3.137255%,48.235294%,73.333333%);fill-opacity:1;" d="M 3.449219 191.171875 L 235.804688 191.171875 L 235.804688 38.351562 L 3.449219 38.351562 Z M 3.449219 191.171875 "/>
<path style="fill:none;stroke-width:0.5;stroke-linecap:butt;stroke-linejoin:miter;stroke:rgb(100%,100%,100%);stroke-opacity:1;stroke-miterlimit:4;" d="M 0.707862 39.190234 L 48.392753 39.190234 L 48.392753 7.862871 L 0.707862 7.862871 Z M 0.707862 39.190234 " transform="matrix(4.872727,0,0,4.878049,0,0)"/>
<path style=" stroke:none;fill-rule:nonzero;fill:rgb(3.137255%,48.235294%,73.333333%);fill-opacity:1;" d="M 262.527344 152.042969 L 235.804688 191.175781 L 235.804688 38.351562 L 262.527344 5.914062 L 262.527344 152.046875 "/>
<path style="fill:none;stroke-width:0.5;stroke-linecap:butt;stroke-linejoin:miter;stroke:rgb(100%,100%,100%);stroke-opacity:1;stroke-miterlimit:4;" d="M 53.87688 31.168008 L 48.392753 39.190234 L 48.392753 7.862871 L 53.87688 1.213184 Z M 53.87688 31.168008 " transform="matrix(4.872727,0,0,4.878049,0,0)"/>
<path style=" stroke:none;fill-rule:nonzero;fill:rgb(3.137255%,48.235294%,73.333333%);fill-opacity:1;" d="M 43.539062 5.914062 L 262.527344 5.914062 L 235.804688 38.351562 L 3.449219 38.351562 L 43.539062 5.914062 "/>
<path style="fill:none;stroke-width:0.5;stroke-linecap:butt;stroke-linejoin:miter;stroke:rgb(100%,100%,100%);stroke-opacity:1;stroke-miterlimit:4;" d="M 8.935255 1.213184 L 53.87688 1.213184 L 48.392753 7.862871 L 0.707862 7.862871 Z M 8.935255 1.213184 " transform="matrix(4.872727,0,0,4.878049,0,0)"/>
<path style=" stroke:none;fill-rule:nonzero;fill:rgb(100%,100%,100%);fill-opacity:1;" d="M 193.363281 112.933594 L 220.417969 112.914062 L 220.417969 119.097656 L 193.363281 119.121094 L 193.363281 128.789062 L 170.804688 116.027344 L 193.363281 103.261719 L 193.363281 112.933594 "/>
<path style=" stroke:none;fill-rule:nonzero;fill:rgb(100%,100%,100%);fill-opacity:1;" d="M 209.515625 118.410156 L 182.488281 118.433594 L 182.488281 112.238281 L 209.515625 112.21875 L 209.542969 102.570312 L 232.078125 115.332031 L 209.542969 128.101562 L 209.515625 118.410156 M 162.167969 115.644531 L 95.046875 84.898438 L 95.046875 146.371094 L 162.167969 115.644531 "/>
<path style="fill:none;stroke-width:0.45;stroke-linecap:butt;stroke-linejoin:miter;stroke:rgb(100%,100%,100%);stroke-opacity:1;stroke-miterlimit:4;" d="M 33.28074 23.70793 L 19.505889 17.40418 L 19.505889 30.006875 Z M 33.28074 23.70793 " transform="matrix(4.872727,0,0,4.878049,0,0)"/>
<path style=" stroke:none;fill-rule:nonzero;fill:rgb(100%,100%,100%);fill-opacity:1;" d="M 62.074219 116.835938 L 62.074219 125.507812 L 82.246094 114.074219 L 62.074219 102.640625 L 62.074219 111.3125 "/>
<path style=" stroke:none;fill-rule:nonzero;fill:rgb(100%,100%,100%);fill-opacity:1;" d="M 30.117188 116.789062 L 64.957031 116.808594 L 64.957031 111.269531 L 30.117188 111.242188 L 30.09375 102.59375 L 9.921875 114.027344 L 30.09375 125.464844 L 30.117188 116.796875 M 66.074219 87.78125 L 61.125 94.878906 L 84.199219 97.09375 L 74.234375 76.132812 L 69.238281 83.234375 "/>
<path style=" stroke:none;fill-rule:nonzero;fill:rgb(100%,100%,100%);fill-opacity:1;" d="M 39.953125 69.390625 L 68.476562 89.394531 L 71.644531 84.875 L 43.113281 64.839844 L 48.066406 57.742188 L 24.984375 55.53125 L 34.945312 76.457031 L 39.957031 69.394531 M 66.074219 141.179688 L 61.125 134.082031 L 84.199219 131.867188 L 74.234375 152.804688 L 69.238281 145.730469 "/>
<path style=" stroke:none;fill-rule:nonzero;fill:rgb(100%,100%,100%);fill-opacity:1;" d="M 39.953125 159.566406 L 68.476562 139.535156 L 71.644531 144.085938 L 43.113281 164.117188 L 48.066406 171.214844 L 24.984375 173.433594 L 34.945312 152.46875 L 39.957031 159.566406 "/>
</g>
</svg>
