<?xml version="1.0" encoding="UTF-8"?>
<svg xmlns="http://www.w3.org/2000/svg" xmlns:xlink="http://www.w3.org/1999/xlink" width="190pt" height="200pt" viewBox="0 0 190 200" version="1.1">
<defs>
<clipPath id="clip1">
  <path d="M 166 159 L 185 159 L 185 193.5 L 166 193.5 Z M 166 159 "/>
</clipPath>
<clipPath id="clip2">
  <path d="M 151 144 L 190 144 L 190 193.5 L 151 193.5 Z M 151 144 "/>
</clipPath>
<clipPath id="clip3">
  <path d="M 2 184 L 167 184 L 167 193.5 L 2 193.5 Z M 2 184 "/>
</clipPath>
<clipPath id="clip4">
  <path d="M 1 183 L 168 183 L 168 193.5 L 1 193.5 Z M 1 183 "/>
</clipPath>
<clipPath id="clip5">
  <path d="M 0 144 L 190 144 L 190 193.5 L 0 193.5 Z M 0 144 "/>
</clipPath>
</defs>
<g id="surface1">
<path style=" stroke:none;fill-rule:nonzero;fill:rgb(1.176471%,41.176471%,59.607843%);fill-opacity:1;" d="M 27.144531 156.125 L 29.582031 127.003906 L 171.996094 127.003906 L 169.558594 156.125 L 27.144531 156.125 "/>
<path style="fill:none;stroke-width:4;stroke-linecap:butt;stroke-linejoin:miter;stroke:rgb(100%,100%,100%);stroke-opacity:1;stroke-miterlimit:4;" d="M 41.760817 67.5 L 45.510817 112.301683 L 264.609375 112.301683 L 260.859375 67.5 Z M 41.760817 67.5 " transform="matrix(0.65,0,0,-0.65,0,200)"/>
<g clip-path="url(#clip1)" clip-rule="nonzero">
<path style=" stroke:none;fill-rule:nonzero;fill:rgb(1.176471%,41.176471%,59.607843%);fill-opacity:1;" d="M 166.28125 193.421875 L 166.28125 184.921875 L 184.867188 159.09375 L 184.867188 174.835938 L 166.28125 193.421875 "/>
</g>
<g clip-path="url(#clip2)" clip-rule="nonzero">
<path style="fill:none;stroke-width:4;stroke-linecap:butt;stroke-linejoin:miter;stroke:rgb(100%,100%,100%);stroke-opacity:1;stroke-miterlimit:4;" d="M 255.817308 10.120192 L 255.817308 23.197115 L 284.411058 62.932692 L 284.411058 38.713942 Z M 255.817308 10.120192 " transform="matrix(0.65,0,0,-0.65,0,200)"/>
</g>
<g clip-path="url(#clip3)" clip-rule="nonzero">
<path style=" stroke:none;fill-rule:nonzero;fill:rgb(1.176471%,41.176471%,59.607843%);fill-opacity:1;" d="M 2.566406 193.429688 L 166.289062 193.429688 L 166.289062 184.921875 L 2.566406 184.921875 Z M 2.566406 193.429688 "/>
</g>
<g clip-path="url(#clip4)" clip-rule="nonzero">
<path style="fill:none;stroke-width:4;stroke-linecap:butt;stroke-linejoin:miter;stroke:rgb(100%,100%,100%);stroke-opacity:1;stroke-miterlimit:4;" d="M 3.948317 10.108173 L 255.829327 10.108173 L 255.829327 23.197115 L 3.948317 23.197115 Z M 3.948317 10.108173 " transform="matrix(0.65,0,0,-0.65,0,200)"/>
</g>
<path style="fill-rule:nonzero;fill:rgb(1.176471%,41.176471%,59.607843%);fill-opacity:1;stroke-width:4;stroke-linecap:butt;stroke-linejoin:miter;stroke:rgb(100%,100%,100%);stroke-opacity:1;stroke-miterlimit:4;" d="M 43.197115 113.239183 L 260.817308 113.239183 L 260.817308 277.926683 L 43.197115 277.926683 Z M 43.197115 113.239183 " transform="matrix(0.65,0,0,-0.65,0,200)"/>
<path style=" stroke:none;fill-rule:nonzero;fill:rgb(1.176471%,41.176471%,59.607843%);fill-opacity:1;" d="M 169.53125 126.394531 L 193.757812 102.167969 L 193.757812 -4.855469 L 169.53125 19.34375 L 169.53125 126.394531 "/>
<path style="fill:none;stroke-width:4;stroke-linecap:butt;stroke-linejoin:miter;stroke:rgb(100%,100%,100%);stroke-opacity:1;stroke-miterlimit:4;" d="M 260.817308 113.239183 L 298.088942 150.510817 L 298.088942 315.16226 L 260.817308 277.932692 Z M 260.817308 113.239183 " transform="matrix(0.65,0,0,-0.65,0,200)"/>
<path style=" stroke:none;fill-rule:nonzero;fill:rgb(1.176471%,41.176471%,59.607843%);fill-opacity:1;" d="M 166.28125 184.921875 L 2.566406 184.921875 L 21.507812 159.09375 L 184.867188 159.09375 L 166.28125 184.921875 "/>
<g clip-path="url(#clip5)" clip-rule="nonzero">
<path style="fill:none;stroke-width:4;stroke-linecap:butt;stroke-linejoin:miter;stroke:rgb(100%,100%,100%);stroke-opacity:1;stroke-miterlimit:4;" d="M 255.817308 23.197115 L 3.948317 23.197115 L 33.088942 62.932692 L 284.411058 62.932692 Z M 255.817308 23.197115 " transform="matrix(0.65,0,0,-0.65,0,200)"/>
</g>
<path style=" stroke:none;fill-rule:nonzero;fill:rgb(1.176471%,41.176471%,59.607843%);fill-opacity:1;" d="M 170.394531 159.246094 L 170.394531 125.757812 L 194.441406 101.835938 L 194.441406 135.175781 L 170.394531 159.246094 "/>
<path style="fill:none;stroke-width:4;stroke-linecap:butt;stroke-linejoin:miter;stroke:rgb(100%,100%,100%);stroke-opacity:1;stroke-miterlimit:4;" d="M 262.145433 62.698317 L 262.145433 114.21875 L 299.140625 151.021635 L 299.140625 99.729567 Z M 262.145433 62.698317 " transform="matrix(0.65,0,0,-0.65,0,200)"/>
<path style=" stroke:none;fill-rule:nonzero;fill:rgb(100%,100%,100%);fill-opacity:1;" d="M 51.136719 31.683594 L 146.019531 31.683594 C 152.191406 31.683594 157.195312 36.6875 157.195312 42.855469 L 157.195312 102.804688 C 157.195312 108.976562 152.191406 113.980469 146.019531 113.980469 L 51.136719 113.980469 C 44.96875 113.980469 39.960938 108.976562 39.960938 102.804688 L 39.960938 42.855469 C 39.960938 36.6875 44.96875 31.683594 51.136719 31.683594 "/>
<path style=" stroke:none;fill-rule:nonzero;fill:rgb(1.176471%,41.176471%,59.607843%);fill-opacity:1;" d="M 193.757812 -4.855469 L 55.679688 -4.855469 L 28.078125 19.34375 L 169.53125 19.34375 L 193.757812 -4.855469 "/>
<path style="fill:none;stroke-width:4;stroke-linecap:butt;stroke-linejoin:miter;stroke:rgb(100%,100%,100%);stroke-opacity:1;stroke-miterlimit:4;" d="M 298.088942 315.16226 L 85.661058 315.16226 L 43.197115 277.932692 L 260.817308 277.932692 Z M 298.088942 315.16226 " transform="matrix(0.65,0,0,-0.65,0,200)"/>
<path style=" stroke:none;fill-rule:nonzero;fill:rgb(1.176471%,41.176471%,59.607843%);fill-opacity:1;" d="M 82.039062 50.953125 C 64.695312 47.480469 55.53125 56.363281 56.980469 64.058594 L 57.101562 64.460938 C 43.597656 66.773438 47.125 82.71875 53.625 82.71875 L 54.261719 82.695312 C 52.734375 93.691406 68.984375 100.191406 77.210938 93.992188 L 77.800781 93.386719 C 80.359375 103.84375 115.296875 104.65625 122.355469 96.835938 L 122.992188 97.015625 C 138.273438 98.238281 145.261719 87.675781 141.90625 80.082031 L 142.746094 79.855469 C 147.953125 78.484375 148.558594 66.417969 139.601562 64.644531 L 139.773438 64.183594 C 143.664062 56.335938 134.492188 48.953125 121.769531 50.351562 L 120.886719 49.890625 C 111.792969 41.640625 85.59375 42.988281 82.570312 51.136719 L 82.039062 50.953125 "/>
<path style="fill:none;stroke-width:4;stroke-linecap:butt;stroke-linejoin:miter;stroke:rgb(100%,100%,100%);stroke-opacity:1;stroke-miterlimit:4;" d="M 126.213942 229.302885 C 99.53125 234.645433 85.432692 220.979567 87.66226 209.140625 L 87.848558 208.521635 C 67.073317 204.963942 72.5 180.432692 82.5 180.432692 L 83.479567 180.46875 C 81.129808 163.551683 106.129808 153.551683 118.786058 163.088942 L 119.69351 164.020433 C 123.629808 147.932692 177.379808 146.682692 188.239183 158.713942 L 189.21875 158.4375 C 212.728365 156.55649 223.479567 172.80649 218.317308 184.489183 L 219.609375 184.83774 C 227.620192 186.947115 228.551683 205.510817 214.771635 208.239183 L 215.036058 208.948317 C 221.021635 221.021635 206.911058 232.379808 187.33774 230.228365 L 185.979567 230.9375 C 171.989183 243.629808 131.682692 241.55649 127.03125 229.020433 Z M 126.213942 229.302885 " transform="matrix(0.65,0,0,-0.65,0,200)"/>
</g>
</svg>
