<?xml version="1.0" encoding="UTF-8"?>
<svg xmlns="http://www.w3.org/2000/svg" xmlns:xlink="http://www.w3.org/1999/xlink" width="337pt" height="200pt" viewBox="0 0 337 200" version="1.1">
<defs>
<clipPath id="clip1">
  <path d="M 0 0 L 337 0 L 337 196.558594 L 0 196.558594 Z M 0 0 "/>
</clipPath>
</defs>
<g id="surface1">
<path style=" stroke:none;fill-rule:nonzero;fill:rgb(1.176471%,41.176471%,59.607843%);fill-opacity:1;" d="M 217.507812 140.035156 L 209.628906 151.289062 L 141.292969 151.289062 L 152.589844 140.035156 L 217.507812 140.035156 "/>
<path style="fill:none;stroke-width:4;stroke-linecap:butt;stroke-linejoin:miter;stroke:rgb(100%,100%,100%);stroke-opacity:1;stroke-miterlimit:4;" d="M 511.374222 142.609826 L 492.85043 116.20643 L 332.188445 116.20643 L 358.748092 142.609826 Z M 511.374222 142.609826 " transform="matrix(0.42534,0,0,-0.42623,0,200.819672)"/>
<path style="fill-rule:nonzero;fill:rgb(1.176471%,41.176471%,59.607843%);fill-opacity:1;stroke-width:4;stroke-linecap:butt;stroke-linejoin:miter;stroke:rgb(100%,100%,100%);stroke-opacity:1;stroke-miterlimit:4;" d="M 332.188445 87.502704 L 485.586018 87.502704 L 485.586018 116.20643 L 332.188445 116.20643 Z M 332.188445 87.502704 " transform="matrix(0.42534,0,0,-0.42623,0,200.819672)"/>
<path style=" stroke:none;fill-rule:nonzero;fill:rgb(1.176471%,41.176471%,59.607843%);fill-opacity:1;" d="M 204.597656 179.359375 L 204.597656 175.445312 L 213.117188 163.609375 L 213.117188 170.835938 L 204.597656 179.359375 "/>
<path style="fill:none;stroke-width:4;stroke-linecap:butt;stroke-linejoin:miter;stroke:rgb(100%,100%,100%);stroke-opacity:1;stroke-miterlimit:4;" d="M 481.021652 50.349159 L 481.021652 59.532151 L 501.051594 87.301082 L 501.051594 70.346454 Z M 481.021652 50.349159 " transform="matrix(0.42534,0,0,-0.42623,0,200.819672)"/>
<path style="fill-rule:nonzero;fill:rgb(1.176471%,41.176471%,59.607843%);fill-opacity:1;stroke-width:4;stroke-linecap:butt;stroke-linejoin:miter;stroke:rgb(100%,100%,100%);stroke-opacity:1;stroke-miterlimit:4;" d="M 304.728783 50.349159 L 481.021652 50.349159 L 481.021652 59.532151 L 304.728783 59.532151 Z M 304.728783 50.349159 " transform="matrix(0.42534,0,0,-0.42623,0,200.819672)"/>
<path style="fill-rule:nonzero;fill:rgb(1.176471%,41.176471%,59.607843%);fill-opacity:1;stroke-width:4;stroke-linecap:butt;stroke-linejoin:miter;stroke:rgb(100%,100%,100%);stroke-opacity:1;stroke-miterlimit:4;" d="M 332.188445 122.539213 L 484.529877 122.539213 L 484.529877 237.81235 L 332.188445 237.81235 Z M 332.188445 122.539213 " transform="matrix(0.42534,0,0,-0.42623,0,200.819672)"/>
<path style=" stroke:none;fill-rule:nonzero;fill:rgb(1.176471%,41.176471%,59.607843%);fill-opacity:1;" d="M 206.089844 148.59375 L 217.1875 137.46875 L 217.1875 88.355469 L 206.089844 99.457031 L 206.089844 148.59375 "/>
<path style="fill:none;stroke-width:4;stroke-linecap:butt;stroke-linejoin:miter;stroke:rgb(100%,100%,100%);stroke-opacity:1;stroke-miterlimit:4;" d="M 484.529877 122.530048 L 510.621148 148.63101 L 510.621148 263.858323 L 484.529877 237.81235 Z M 484.529877 122.530048 " transform="matrix(0.42534,0,0,-0.42623,0,200.819672)"/>
<path style=" stroke:none;fill-rule:nonzero;fill:rgb(1.176471%,41.176471%,59.607843%);fill-opacity:1;" d="M 204.597656 175.445312 L 129.613281 175.445312 L 138.285156 163.609375 L 213.117188 163.609375 L 204.597656 175.445312 "/>
<path style="fill:none;stroke-width:4;stroke-linecap:butt;stroke-linejoin:miter;stroke:rgb(100%,100%,100%);stroke-opacity:1;stroke-miterlimit:4;" d="M 481.021652 59.532151 L 304.728783 59.532151 L 325.116893 87.301082 L 501.051594 87.301082 Z M 481.021652 59.532151 " transform="matrix(0.42534,0,0,-0.42623,0,200.819672)"/>
<path style=" stroke:none;fill-rule:nonzero;fill:rgb(1.176471%,41.176471%,59.607843%);fill-opacity:1;" d="M 206.472656 163.558594 L 206.472656 151.289062 L 217.507812 140.316406 L 217.507812 152.519531 L 206.472656 163.558594 "/>
<path style="fill:none;stroke-width:4;stroke-linecap:butt;stroke-linejoin:miter;stroke:rgb(100%,100%,100%);stroke-opacity:1;stroke-miterlimit:4;" d="M 485.429893 87.420222 L 485.429893 116.20643 L 511.374222 141.94997 L 511.374222 113.319561 Z M 485.429893 87.420222 " transform="matrix(0.42534,0,0,-0.42623,0,200.819672)"/>
<path style=" stroke:none;fill-rule:nonzero;fill:rgb(1.176471%,41.176471%,59.607843%);fill-opacity:1;" d="M 151.859375 105.117188 L 195.308594 105.117188 C 198.148438 105.117188 200.441406 107.414062 200.441406 110.246094 L 200.441406 137.765625 C 200.441406 140.601562 198.148438 142.898438 195.308594 142.898438 L 151.859375 142.898438 C 149.035156 142.898438 146.742188 140.601562 146.742188 137.765625 L 146.742188 110.246094 C 146.742188 107.414062 149.035156 105.117188 151.859375 105.117188 "/>
<path style="fill:none;stroke-width:4;stroke-linecap:butt;stroke-linejoin:miter;stroke:rgb(100%,100%,100%);stroke-opacity:1;stroke-miterlimit:4;" d="M 357.030715 224.532752 L 459.182496 224.532752 C 465.859143 224.532752 471.250053 219.14393 471.250053 212.499549 L 471.250053 147.934495 C 471.250053 141.28095 465.859143 135.892127 459.182496 135.892127 L 357.030715 135.892127 C 350.390803 135.892127 344.999893 141.28095 344.999893 147.934495 L 344.999893 212.499549 C 344.999893 219.14393 350.390803 224.532752 357.030715 224.532752 Z M 357.030715 224.532752 " transform="matrix(0.42534,0,0,-0.42623,0,200.819672)"/>
<path style=" stroke:none;fill-rule:nonzero;fill:rgb(1.176471%,41.176471%,59.607843%);fill-opacity:1;" d="M 217.1875 88.355469 L 153.953125 88.355469 L 141.292969 99.457031 L 206.089844 99.457031 L 217.1875 88.355469 "/>
<path style="fill:none;stroke-width:4;stroke-linecap:butt;stroke-linejoin:miter;stroke:rgb(100%,100%,100%);stroke-opacity:1;stroke-miterlimit:4;" d="M 510.621148 263.858323 L 361.95325 263.858323 L 332.188445 237.81235 L 484.529877 237.81235 Z M 510.621148 263.858323 " transform="matrix(0.42534,0,0,-0.42623,0,200.819672)"/>
<path style=" stroke:none;fill-rule:nonzero;fill:rgb(100%,100%,100%);fill-opacity:1;" d="M 168.140625 113.960938 C 160.199219 112.378906 156 116.457031 156.660156 119.972656 L 156.710938 120.171875 C 150.53125 121.222656 152.15625 128.542969 155.117188 128.542969 L 155.414062 128.53125 C 154.71875 133.589844 162.160156 136.570312 165.933594 133.722656 L 166.195312 133.441406 C 167.378906 138.253906 183.375 138.621094 186.601562 135.023438 L 186.898438 135.105469 C 193.910156 135.667969 197.101562 130.828125 195.558594 127.347656 L 195.9375 127.230469 C 198.332031 126.59375 198.613281 121.070312 194.507812 120.253906 L 194.59375 120.035156 C 196.371094 116.441406 192.167969 113.046875 186.335938 113.695312 L 185.9375 113.476562 C 181.765625 109.699219 169.769531 110.3125 168.375 114.058594 L 168.140625 113.960938 "/>
<path style=" stroke:none;fill-rule:nonzero;fill:rgb(1.176471%,41.176471%,59.607843%);fill-opacity:1;" d="M 315.335938 84.625 L 307.457031 95.878906 L 239.121094 95.878906 L 250.417969 84.625 L 315.335938 84.625 "/>
<path style="fill:none;stroke-width:4;stroke-linecap:butt;stroke-linejoin:miter;stroke:rgb(100%,100%,100%);stroke-opacity:1;stroke-miterlimit:4;" d="M 741.374151 272.610577 L 722.850359 246.207181 L 562.188374 246.207181 L 588.748021 272.610577 Z M 741.374151 272.610577 " transform="matrix(0.42534,0,0,-0.42623,0,200.819672)"/>
<path style="fill-rule:nonzero;fill:rgb(1.176471%,41.176471%,59.607843%);fill-opacity:1;stroke-width:4;stroke-linecap:butt;stroke-linejoin:miter;stroke:rgb(100%,100%,100%);stroke-opacity:1;stroke-miterlimit:4;" d="M 562.188374 217.503456 L 715.585946 217.503456 L 715.585946 246.207181 L 562.188374 246.207181 Z M 562.188374 217.503456 " transform="matrix(0.42534,0,0,-0.42623,0,200.819672)"/>
<path style=" stroke:none;fill-rule:nonzero;fill:rgb(1.176471%,41.176471%,59.607843%);fill-opacity:1;" d="M 302.425781 123.949219 L 302.425781 120.035156 L 310.945312 108.199219 L 310.945312 115.421875 L 302.425781 123.949219 "/>
<path style="fill:none;stroke-width:4;stroke-linecap:butt;stroke-linejoin:miter;stroke:rgb(100%,100%,100%);stroke-opacity:1;stroke-miterlimit:4;" d="M 711.021581 180.34991 L 711.021581 189.532903 L 731.051522 217.301833 L 731.051522 200.35637 Z M 711.021581 180.34991 " transform="matrix(0.42534,0,0,-0.42623,0,200.819672)"/>
<path style="fill-rule:nonzero;fill:rgb(1.176471%,41.176471%,59.607843%);fill-opacity:1;stroke-width:4;stroke-linecap:butt;stroke-linejoin:miter;stroke:rgb(100%,100%,100%);stroke-opacity:1;stroke-miterlimit:4;" d="M 534.728711 180.34991 L 711.021581 180.34991 L 711.021581 189.532903 L 534.728711 189.532903 Z M 534.728711 180.34991 " transform="matrix(0.42534,0,0,-0.42623,0,200.819672)"/>
<path style="fill-rule:nonzero;fill:rgb(1.176471%,41.176471%,59.607843%);fill-opacity:1;stroke-width:4;stroke-linecap:butt;stroke-linejoin:miter;stroke:rgb(100%,100%,100%);stroke-opacity:1;stroke-miterlimit:4;" d="M 562.188374 252.539964 L 714.529806 252.539964 L 714.529806 367.813101 L 562.188374 367.813101 Z M 562.188374 252.539964 " transform="matrix(0.42534,0,0,-0.42623,0,200.819672)"/>
<path style=" stroke:none;fill-rule:nonzero;fill:rgb(1.176471%,41.176471%,59.607843%);fill-opacity:1;" d="M 303.917969 93.183594 L 315.015625 82.058594 L 315.015625 32.945312 L 303.917969 44.046875 L 303.917969 93.183594 "/>
<path style="fill:none;stroke-width:4;stroke-linecap:butt;stroke-linejoin:miter;stroke:rgb(100%,100%,100%);stroke-opacity:1;stroke-miterlimit:4;" d="M 714.529806 252.530799 L 740.621077 278.631761 L 740.621077 393.859075 L 714.529806 367.813101 Z M 714.529806 252.530799 " transform="matrix(0.42534,0,0,-0.42623,0,200.819672)"/>
<path style=" stroke:none;fill-rule:nonzero;fill:rgb(1.176471%,41.176471%,59.607843%);fill-opacity:1;" d="M 302.425781 120.035156 L 227.441406 120.035156 L 236.113281 108.199219 L 310.945312 108.199219 L 302.425781 120.035156 "/>
<path style="fill:none;stroke-width:4;stroke-linecap:butt;stroke-linejoin:miter;stroke:rgb(100%,100%,100%);stroke-opacity:1;stroke-miterlimit:4;" d="M 711.021581 189.532903 L 534.728711 189.532903 L 555.116822 217.301833 L 731.051522 217.301833 Z M 711.021581 189.532903 " transform="matrix(0.42534,0,0,-0.42623,0,200.819672)"/>
<path style=" stroke:none;fill-rule:nonzero;fill:rgb(1.176471%,41.176471%,59.607843%);fill-opacity:1;" d="M 304.300781 108.148438 L 304.300781 95.878906 L 315.335938 84.90625 L 315.335938 97.109375 L 304.300781 108.148438 "/>
<path style="fill:none;stroke-width:4;stroke-linecap:butt;stroke-linejoin:miter;stroke:rgb(100%,100%,100%);stroke-opacity:1;stroke-miterlimit:4;" d="M 715.429821 217.420974 L 715.429821 246.207181 L 741.374151 271.950721 L 741.374151 243.320312 Z M 715.429821 217.420974 " transform="matrix(0.42534,0,0,-0.42623,0,200.819672)"/>
<path style=" stroke:none;fill-rule:nonzero;fill:rgb(1.176471%,41.176471%,59.607843%);fill-opacity:1;" d="M 249.6875 49.707031 L 293.136719 49.707031 C 295.976562 49.707031 298.269531 52.003906 298.269531 54.835938 L 298.269531 82.359375 C 298.269531 85.191406 295.976562 87.488281 293.136719 87.488281 L 249.6875 87.488281 C 246.863281 87.488281 244.570312 85.191406 244.570312 82.359375 L 244.570312 54.835938 C 244.570312 52.003906 246.863281 49.707031 249.6875 49.707031 "/>
<path style="fill:none;stroke-width:4;stroke-linecap:butt;stroke-linejoin:miter;stroke:rgb(100%,100%,100%);stroke-opacity:1;stroke-miterlimit:4;" d="M 587.030644 354.533504 L 689.182425 354.533504 C 695.859072 354.533504 701.249982 349.144681 701.249982 342.5003 L 701.249982 277.926082 C 701.249982 271.281701 695.859072 265.892879 689.182425 265.892879 L 587.030644 265.892879 C 580.390732 265.892879 574.999822 271.281701 574.999822 277.926082 L 574.999822 342.5003 C 574.999822 349.144681 580.390732 354.533504 587.030644 354.533504 Z M 587.030644 354.533504 " transform="matrix(0.42534,0,0,-0.42623,0,200.819672)"/>
<path style=" stroke:none;fill-rule:nonzero;fill:rgb(1.176471%,41.176471%,59.607843%);fill-opacity:1;" d="M 315.015625 32.945312 L 251.78125 32.945312 L 239.121094 44.046875 L 303.917969 44.046875 L 315.015625 32.945312 "/>
<path style="fill:none;stroke-width:4;stroke-linecap:butt;stroke-linejoin:miter;stroke:rgb(100%,100%,100%);stroke-opacity:1;stroke-miterlimit:4;" d="M 740.621077 393.859075 L 591.953178 393.859075 L 562.188374 367.813101 L 714.529806 367.813101 Z M 740.621077 393.859075 " transform="matrix(0.42534,0,0,-0.42623,0,200.819672)"/>
<path style=" stroke:none;fill-rule:nonzero;fill:rgb(100%,100%,100%);fill-opacity:1;" d="M 265.96875 58.550781 C 258.027344 56.96875 253.828125 61.046875 254.488281 64.5625 L 254.539062 64.761719 C 248.359375 65.8125 249.984375 73.132812 252.945312 73.132812 L 253.242188 73.121094 C 252.546875 78.179688 259.988281 81.160156 263.761719 78.3125 L 264.023438 78.03125 C 265.207031 82.84375 281.203125 83.210938 284.429688 79.613281 L 284.726562 79.695312 C 291.738281 80.261719 294.929688 75.417969 293.386719 71.9375 L 293.765625 71.820312 C 296.160156 71.1875 296.441406 65.660156 292.335938 64.84375 L 292.421875 64.625 C 294.199219 61.03125 289.996094 57.636719 284.164062 58.285156 L 283.765625 58.066406 C 279.59375 54.289062 267.597656 54.902344 266.203125 58.652344 L 265.96875 58.550781 "/>
<path style=" stroke:none;fill-rule:nonzero;fill:rgb(1.176471%,41.176471%,59.607843%);fill-opacity:1;" d="M 126.058594 80.363281 L 118.179688 91.613281 L 49.847656 91.613281 L 61.144531 80.363281 L 126.058594 80.363281 "/>
<path style="fill:none;stroke-width:4;stroke-linecap:butt;stroke-linejoin:miter;stroke:rgb(100%,100%,100%);stroke-opacity:1;stroke-miterlimit:4;" d="M 296.371494 282.609225 L 277.847702 256.214994 L 117.194901 256.214994 L 143.754547 282.609225 Z M 296.371494 282.609225 " transform="matrix(0.42534,0,0,-0.42623,0,200.819672)"/>
<path style="fill-rule:nonzero;fill:rgb(1.176471%,41.176471%,59.607843%);fill-opacity:1;stroke-width:4;stroke-linecap:butt;stroke-linejoin:miter;stroke:rgb(100%,100%,100%);stroke-opacity:1;stroke-miterlimit:4;" d="M 117.194901 227.502103 L 270.592473 227.502103 L 270.592473 256.205829 L 117.194901 256.205829 Z M 117.194901 227.502103 " transform="matrix(0.42534,0,0,-0.42623,0,200.819672)"/>
<path style=" stroke:none;fill-rule:nonzero;fill:rgb(1.176471%,41.176471%,59.607843%);fill-opacity:1;" d="M 113.148438 119.6875 L 113.148438 115.773438 L 121.667969 103.9375 L 121.667969 111.160156 L 113.148438 119.6875 "/>
<path style="fill:none;stroke-width:4;stroke-linecap:butt;stroke-linejoin:miter;stroke:rgb(100%,100%,100%);stroke-opacity:1;stroke-miterlimit:4;" d="M 266.018924 190.348558 L 266.018924 199.53155 L 286.048865 227.300481 L 286.048865 210.355018 Z M 266.018924 190.348558 " transform="matrix(0.42534,0,0,-0.42623,0,200.819672)"/>
<path style="fill-rule:nonzero;fill:rgb(1.176471%,41.176471%,59.607843%);fill-opacity:1;stroke-width:4;stroke-linecap:butt;stroke-linejoin:miter;stroke:rgb(100%,100%,100%);stroke-opacity:1;stroke-miterlimit:4;" d="M 89.726054 190.348558 L 266.018924 190.348558 L 266.018924 199.53155 L 89.726054 199.53155 Z M 89.726054 190.348558 " transform="matrix(0.42534,0,0,-0.42623,0,200.819672)"/>
<path style="fill-rule:nonzero;fill:rgb(1.176471%,41.176471%,59.607843%);fill-opacity:1;stroke-width:4;stroke-linecap:butt;stroke-linejoin:miter;stroke:rgb(100%,100%,100%);stroke-opacity:1;stroke-miterlimit:4;" d="M 117.194901 262.538612 L 269.527148 262.538612 L 269.527148 377.811749 L 117.194901 377.811749 Z M 117.194901 262.538612 " transform="matrix(0.42534,0,0,-0.42623,0,200.819672)"/>
<path style=" stroke:none;fill-rule:nonzero;fill:rgb(1.176471%,41.176471%,59.607843%);fill-opacity:1;" d="M 114.640625 88.921875 L 125.738281 77.796875 L 125.738281 28.683594 L 114.640625 39.785156 L 114.640625 88.921875 "/>
<path style="fill:none;stroke-width:4;stroke-linecap:butt;stroke-linejoin:miter;stroke:rgb(100%,100%,100%);stroke-opacity:1;stroke-miterlimit:4;" d="M 269.527148 262.529447 L 295.61842 288.630409 L 295.61842 403.857722 L 269.527148 377.811749 Z M 269.527148 262.529447 " transform="matrix(0.42534,0,0,-0.42623,0,200.819672)"/>
<path style=" stroke:none;fill-rule:nonzero;fill:rgb(1.176471%,41.176471%,59.607843%);fill-opacity:1;" d="M 113.148438 115.773438 L 38.164062 115.773438 L 46.839844 103.9375 L 121.667969 103.9375 L 113.148438 115.773438 "/>
<path style="fill:none;stroke-width:4;stroke-linecap:butt;stroke-linejoin:miter;stroke:rgb(100%,100%,100%);stroke-opacity:1;stroke-miterlimit:4;" d="M 266.018924 199.53155 L 89.726054 199.53155 L 110.123349 227.300481 L 286.048865 227.300481 Z M 266.018924 199.53155 " transform="matrix(0.42534,0,0,-0.42623,0,200.819672)"/>
<path style=" stroke:none;fill-rule:nonzero;fill:rgb(1.176471%,41.176471%,59.607843%);fill-opacity:1;" d="M 115.023438 103.886719 L 115.023438 91.613281 L 126.058594 80.644531 L 126.058594 92.847656 L 115.023438 103.886719 "/>
<path style="fill:none;stroke-width:4;stroke-linecap:butt;stroke-linejoin:miter;stroke:rgb(100%,100%,100%);stroke-opacity:1;stroke-miterlimit:4;" d="M 270.427164 227.419621 L 270.427164 256.214994 L 296.371494 281.949369 L 296.371494 253.31896 Z M 270.427164 227.419621 " transform="matrix(0.42534,0,0,-0.42623,0,200.819672)"/>
<path style=" stroke:none;fill-rule:nonzero;fill:rgb(1.176471%,41.176471%,59.607843%);fill-opacity:1;" d="M 60.410156 45.445312 L 103.859375 45.445312 C 106.699219 45.445312 108.992188 47.742188 108.992188 50.574219 L 108.992188 78.09375 C 108.992188 80.929688 106.699219 83.226562 103.859375 83.226562 L 60.410156 83.226562 C 57.585938 83.226562 55.292969 80.929688 55.292969 78.09375 L 55.292969 50.574219 C 55.292969 47.742188 57.585938 45.445312 60.410156 45.445312 "/>
<path style="fill:none;stroke-width:4;stroke-linecap:butt;stroke-linejoin:miter;stroke:rgb(100%,100%,100%);stroke-opacity:1;stroke-miterlimit:4;" d="M 142.027987 364.532151 L 244.179768 364.532151 C 250.856415 364.532151 256.247325 359.143329 256.247325 352.498948 L 256.247325 287.933894 C 256.247325 281.280349 250.856415 275.891526 244.179768 275.891526 L 142.027987 275.891526 C 135.388075 275.891526 129.997165 281.280349 129.997165 287.933894 L 129.997165 352.498948 C 129.997165 359.143329 135.388075 364.532151 142.027987 364.532151 Z M 142.027987 364.532151 " transform="matrix(0.42534,0,0,-0.42623,0,200.819672)"/>
<path style=" stroke:none;fill-rule:nonzero;fill:rgb(1.176471%,41.176471%,59.607843%);fill-opacity:1;" d="M 125.738281 28.683594 L 62.503906 28.683594 L 49.847656 39.785156 L 114.640625 39.785156 L 125.738281 28.683594 "/>
<path style="fill:none;stroke-width:4;stroke-linecap:butt;stroke-linejoin:miter;stroke:rgb(100%,100%,100%);stroke-opacity:1;stroke-miterlimit:4;" d="M 295.61842 403.857722 L 146.950521 403.857722 L 117.194901 377.811749 L 269.527148 377.811749 Z M 295.61842 403.857722 " transform="matrix(0.42534,0,0,-0.42623,0,200.819672)"/>
<path style=" stroke:none;fill-rule:nonzero;fill:rgb(100%,100%,100%);fill-opacity:1;" d="M 74.566406 54.289062 C 66.625 52.703125 62.421875 56.785156 63.085938 60.300781 L 63.136719 60.5 C 56.957031 61.550781 58.582031 68.871094 61.542969 68.871094 L 61.839844 68.859375 C 61.144531 73.917969 68.585938 76.898438 72.359375 74.050781 L 72.621094 73.769531 C 73.804688 78.582031 89.800781 78.949219 93.027344 75.351562 L 93.324219 75.429688 C 100.335938 75.996094 103.527344 71.15625 101.984375 67.675781 L 102.363281 67.558594 C 104.757812 66.921875 105.039062 61.398438 100.933594 60.582031 L 101.019531 60.363281 C 102.796875 56.769531 98.59375 53.375 92.761719 54.023438 L 92.363281 53.804688 C 88.191406 50.027344 76.195312 50.640625 74.800781 54.386719 L 74.566406 54.289062 "/>
<g clip-path="url(#clip1)" clip-rule="nonzero">
<path style="fill:none;stroke-width:4;stroke-linecap:butt;stroke-linejoin:miter;stroke:rgb(1.176471%,41.176471%,59.607843%);stroke-opacity:1;stroke-miterlimit:4;" d="M 285.782534 431.984075 C 141.761655 460.733624 65.737881 386.985577 77.768703 323.236178 L 78.751373 319.76277 C -33.484257 300.663612 -4.059254 168.234225 49.767194 168.234225 L 55.07545 168.390024 C 41.483376 106.207782 172.656072 42.852464 245.777755 74.488882 L 250.470694 79.639423 C 276.516046 23.670823 369.144192 14.332031 460.780483 11.985877 C 540.156357 9.960487 586.479614 16.247446 620.514901 51.054838 L 625.777238 49.48768 C 752.808024 39.28741 810.702911 127.066556 782.930998 190.073618 L 789.772954 191.989032 C 833.093097 203.426532 838.089103 303.43134 763.74597 318.241436 L 765.197016 322.09976 C 797.459823 387.178035 721.371762 448.507963 615.785227 436.987981 L 608.43816 440.81881 C 532.855209 509.251352 315.308559 498.079627 290.117303 430.426082 Z M 343.117207 129.605168 L 248.119632 192.960487 M 496.450493 144.598558 L 556.448478 184.602314 M 284.799864 339.604267 L 568.12113 339.604267 " transform="matrix(0.42534,0,0,-0.42623,0,200.819672)"/>
</g>
</g>
</svg>
