<?xml version="1.0" encoding="UTF-8"?>
<svg xmlns="http://www.w3.org/2000/svg" xmlns:xlink="http://www.w3.org/1999/xlink" width="106pt" height="200pt" viewBox="0 0 106 200" version="1.1">
<defs>
<clipPath id="clip1">
  <path d="M 84 0 L 106 0 L 106 192.234375 L 84 192.234375 Z M 84 0 "/>
</clipPath>
</defs>
<g id="surface1">
<path style=" stroke:none;fill-rule:nonzero;fill:rgb(1.176471%,41.176471%,59.607843%);fill-opacity:1;" d="M 11.070312 -3.625 L 106.71875 -3.625 L 98.292969 6.058594 L 2.640625 6.058594 L 11.070312 -3.625 "/>
<path style="fill:none;stroke-width:4;stroke-linecap:butt;stroke-linejoin:miter;stroke:rgb(100%,100%,100%);stroke-opacity:1;stroke-miterlimit:4;" d="M 18.4773 332.918269 L 178.122732 332.918269 L 164.059382 316.903095 L 4.407429 316.903095 Z M 18.4773 332.918269 " transform="matrix(0.59913,0,0,-0.604651,0,197.674419)"/>
<path style="fill-rule:nonzero;fill:rgb(1.176471%,41.176471%,59.607843%);fill-opacity:1;stroke-width:4;stroke-linecap:butt;stroke-linejoin:miter;stroke:rgb(100%,100%,100%);stroke-opacity:1;stroke-miterlimit:4;" d="M 4.687783 15.334585 L 163.752948 15.334585 L 163.752948 316.547776 L 4.687783 316.547776 Z M 4.687783 15.334585 " transform="matrix(0.59913,0,0,-0.604651,0,197.674419)"/>
<path style=" stroke:none;fill-rule:nonzero;fill:rgb(1.176471%,41.176471%,59.607843%);fill-opacity:1;" d="M 77.210938 177.324219 C 86.777344 177.324219 88.1875 167.304688 88.1875 167.304688 L 88.1875 53.320312 C 88.1875 41.15625 76.855469 41.511719 76.855469 41.511719 L 23.355469 41.511719 C 16.636719 41.511719 13.8125 50.816406 13.8125 50.816406 L 13.8125 165.863281 C 13.8125 174.464844 22.652344 177.324219 22.652344 177.324219 L 77.210938 177.324219 "/>
<path style="fill:none;stroke-width:4;stroke-linecap:butt;stroke-linejoin:miter;stroke:rgb(100%,100%,100%);stroke-opacity:1;stroke-miterlimit:4;" d="M 128.871666 33.6561 C 144.838818 33.6561 147.192489 50.226863 147.192489 50.226863 L 147.192489 238.739483 C 147.192489 258.856971 128.278359 258.269081 128.278359 258.269081 L 38.982277 258.269081 C 27.768108 258.269081 23.054245 242.880559 23.054245 242.880559 L 23.054245 52.610727 C 23.054245 38.385066 37.808701 33.6561 37.808701 33.6561 Z M 128.871666 33.6561 " transform="matrix(0.59913,0,0,-0.604651,0,197.674419)"/>
<path style=" stroke:none;fill-rule:nonzero;fill:rgb(1.176471%,41.176471%,59.607843%);fill-opacity:1;" d="M 106.675781 -3.625 L 106.675781 178.503906 L 98.109375 188.402344 L 98.109375 6.273438 L 106.675781 -3.625 "/>
<g clip-path="url(#clip1)" clip-rule="nonzero">
<path style="fill:none;stroke-width:4;stroke-linecap:butt;stroke-linejoin:miter;stroke:rgb(100%,100%,100%);stroke-opacity:1;stroke-miterlimit:4;" d="M 178.051014 332.918269 L 178.051014 31.705078 L 163.752948 15.334585 L 163.752948 316.547776 Z M 178.051014 332.918269 " transform="matrix(0.59913,0,0,-0.604651,0,197.674419)"/>
</g>
<path style=" stroke:none;fill-rule:nonzero;fill:rgb(1.176471%,41.176471%,59.607843%);fill-opacity:1;" d="M 78.472656 19.140625 C 76.953125 19.140625 75.734375 21.40625 75.734375 24.195312 C 75.734375 26.960938 76.953125 29.226562 78.472656 29.226562 C 79.996094 29.226562 81.210938 26.960938 81.210938 24.195312 C 81.210938 21.40625 79.996094 19.140625 78.472656 19.140625 "/>
<path style="fill:none;stroke-width:4;stroke-linecap:butt;stroke-linejoin:miter;stroke:rgb(100%,100%,100%);stroke-opacity:1;stroke-miterlimit:4;" d="M 130.977583 295.267428 C 128.441355 295.267428 126.407157 291.520433 126.407157 286.907752 C 126.407157 282.333834 128.441355 278.586839 130.977583 278.586839 C 133.520331 278.586839 135.548009 282.333834 135.548009 286.907752 C 135.548009 291.520433 133.520331 295.267428 130.977583 295.267428 Z M 130.977583 295.267428 " transform="matrix(0.59913,0,0,-0.604651,0,197.674419)"/>
<path style=" stroke:none;fill-rule:nonzero;fill:rgb(1.176471%,41.176471%,59.607843%);fill-opacity:1;" d="M 58.511719 19.140625 C 56.988281 19.140625 55.75 21.40625 55.75 24.195312 C 55.75 26.960938 56.988281 29.226562 58.511719 29.226562 C 60.03125 29.226562 61.25 26.960938 61.25 24.195312 C 61.25 21.40625 60.03125 19.140625 58.511719 19.140625 "/>
<path style="fill:none;stroke-width:4;stroke-linecap:butt;stroke-linejoin:miter;stroke:rgb(100%,100%,100%);stroke-opacity:1;stroke-miterlimit:4;" d="M 97.661069 295.267428 C 95.118321 295.267428 93.051524 291.520433 93.051524 286.907752 C 93.051524 282.333834 95.118321 278.586839 97.661069 278.586839 C 100.197297 278.586839 102.231495 282.333834 102.231495 286.907752 C 102.231495 291.520433 100.197297 295.267428 97.661069 295.267428 Z M 97.661069 295.267428 " transform="matrix(0.59913,0,0,-0.604651,0,197.674419)"/>
<path style=" stroke:none;fill-rule:nonzero;fill:rgb(1.176471%,41.176471%,59.607843%);fill-opacity:1;" d="M 38.546875 19.140625 C 37.027344 19.140625 35.785156 21.40625 35.785156 24.195312 C 35.785156 26.960938 37.027344 29.226562 38.546875 29.226562 C 40.046875 29.226562 41.285156 26.960938 41.285156 24.195312 C 41.285156 21.40625 40.046875 19.140625 38.546875 19.140625 "/>
<path style="fill:none;stroke-width:4;stroke-linecap:butt;stroke-linejoin:miter;stroke:rgb(100%,100%,100%);stroke-opacity:1;stroke-miterlimit:4;" d="M 64.338035 295.267428 C 61.801807 295.267428 59.72849 291.520433 59.72849 286.907752 C 59.72849 282.333834 61.801807 278.586839 64.338035 278.586839 C 66.841664 278.586839 68.908461 282.333834 68.908461 286.907752 C 68.908461 291.520433 66.841664 295.267428 64.338035 295.267428 Z M 64.338035 295.267428 " transform="matrix(0.59913,0,0,-0.604651,0,197.674419)"/>
<path style=" stroke:none;fill-rule:nonzero;fill:rgb(1.176471%,41.176471%,59.607843%);fill-opacity:1;" d="M 18.5625 19.140625 C 17.039062 19.140625 15.824219 21.40625 15.824219 24.195312 C 15.824219 26.960938 17.039062 29.226562 18.5625 29.226562 C 20.082031 29.226562 21.324219 26.960938 21.324219 24.195312 C 21.324219 21.40625 20.082031 19.140625 18.5625 19.140625 "/>
<path style="fill:none;stroke-width:4;stroke-linecap:butt;stroke-linejoin:miter;stroke:rgb(100%,100%,100%);stroke-opacity:1;stroke-miterlimit:4;" d="M 30.982402 295.267428 C 28.439654 295.267428 26.411976 291.520433 26.411976 286.907752 C 26.411976 282.333834 28.439654 278.586839 30.982402 278.586839 C 33.51863 278.586839 35.591947 282.333834 35.591947 286.907752 C 35.591947 291.520433 33.51863 295.267428 30.982402 295.267428 Z M 30.982402 295.267428 " transform="matrix(0.59913,0,0,-0.604651,0,197.674419)"/>
</g>
</svg>
