<?xml version="1.0" encoding="UTF-8"?>
<svg xmlns="http://www.w3.org/2000/svg" xmlns:xlink="http://www.w3.org/1999/xlink" width="169pt" height="200pt" viewBox="0 0 169 200" version="1.1">
<g id="surface1">
<path style=" stroke:none;fill-rule:nonzero;fill:rgb(3.137255%,48.235294%,73.333333%);fill-opacity:1;" d="M 2.554688 77.949219 L 35.070312 53.847656 L 163.667969 43.964844 L 130.179688 77.949219 L 2.554688 77.949219 "/>
<path style="fill:none;stroke-width:0.5;stroke-linecap:butt;stroke-linejoin:miter;stroke:rgb(100%,100%,100%);stroke-opacity:1;stroke-miterlimit:4;" d="M 0.755825 22.99502 L 10.375832 15.885059 L 48.422476 12.969629 L 38.5147 22.99502 Z M 0.755825 22.99502 " transform="matrix(3.38,0,0,3.389831,0,0)"/>
<path style=" stroke:none;fill-rule:nonzero;fill:rgb(3.137255%,48.235294%,73.333333%);fill-opacity:1;" d="M 130.179688 192.851562 L 163.667969 158.953125 L 163.667969 44.039062 L 130.179688 77.949219 L 130.179688 192.851562 "/>
<path style="fill:none;stroke-width:0.5;stroke-linecap:butt;stroke-linejoin:miter;stroke:rgb(100%,100%,100%);stroke-opacity:1;stroke-miterlimit:4;" d="M 38.5147 56.891211 L 48.422476 46.891172 L 48.422476 12.990371 L 38.5147 22.99502 Z M 38.5147 56.891211 " transform="matrix(3.38,0,0,3.389831,0,0)"/>
<path style="fill-rule:nonzero;fill:rgb(3.137255%,48.235294%,73.333333%);fill-opacity:1;stroke-width:0.5;stroke-linecap:butt;stroke-linejoin:miter;stroke:rgb(100%,100%,100%);stroke-opacity:1;stroke-miterlimit:4;" d="M 0.810142 56.906191 L 38.5147 56.906191 L 38.5147 22.996172 L 0.810142 22.996172 Z M 0.810142 56.906191 " transform="matrix(3.38,0,0,3.389831,0,0)"/>
<path style=" stroke:none;fill-rule:nonzero;fill:rgb(3.137255%,48.235294%,73.333333%);fill-opacity:1;" d="M 2.554688 36.570312 L 44.921875 2.589844 L 163.667969 2.589844 L 130.179688 36.570312 L 2.554688 36.570312 "/>
<path style="fill:none;stroke-width:0.5;stroke-linecap:butt;stroke-linejoin:miter;stroke:rgb(100%,100%,100%);stroke-opacity:1;stroke-miterlimit:4;" d="M 0.755825 10.788242 L 13.290496 0.764004 L 48.422476 0.764004 L 38.5147 10.788242 Z M 0.755825 10.788242 " transform="matrix(3.38,0,0,3.389831,0,0)"/>
<path style=" stroke:none;fill-rule:nonzero;fill:rgb(3.137255%,48.235294%,73.333333%);fill-opacity:1;" d="M 130.179688 78.03125 L 163.667969 44.132812 L 163.667969 2.652344 L 130.179688 36.570312 L 130.179688 78.027344 "/>
<path style="fill:none;stroke-width:0.5;stroke-linecap:butt;stroke-linejoin:miter;stroke:rgb(100%,100%,100%);stroke-opacity:1;stroke-miterlimit:4;" d="M 38.5147 23.019219 L 48.422476 13.01918 L 48.422476 0.782441 L 38.5147 10.788242 Z M 38.5147 23.019219 " transform="matrix(3.38,0,0,3.389831,0,0)"/>
<path style="fill-rule:nonzero;fill:rgb(3.137255%,48.235294%,73.333333%);fill-opacity:1;stroke-width:0.5;stroke-linecap:butt;stroke-linejoin:miter;stroke:rgb(100%,100%,100%);stroke-opacity:1;stroke-miterlimit:4;" d="M 0.810142 23.028438 L 38.5147 23.028438 L 38.5147 10.788242 L 0.810142 10.788242 Z M 0.810142 23.028438 " transform="matrix(3.38,0,0,3.389831,0,0)"/>
<path style="fill:none;stroke-width:0.5625;stroke-linecap:round;stroke-linejoin:miter;stroke:rgb(100%,100%,100%);stroke-opacity:1;stroke-miterlimit:1;" d="M 35.517983 17.003984 C 35.517983 17.003984 33.071376 23.292324 30.12782 16.984395 C 27.192354 10.679922 24.741124 16.970566 24.741124 16.970566 C 24.741124 16.970566 22.294517 23.263516 19.354429 16.960195 C 16.421274 10.655723 13.985068 16.998223 13.985068 16.998223 C 13.985068 16.998223 11.541929 23.292324 8.604151 16.984395 C 5.664062 10.679922 3.227857 16.963652 3.227857 16.963652 " transform="matrix(3.38,0,0,3.389831,0,0)"/>
<path style="fill:none;stroke-width:1.125;stroke-linecap:round;stroke-linejoin:miter;stroke:rgb(100%,100%,100%);stroke-opacity:1;stroke-miterlimit:1;" d="M 3.227857 17.003984 C 3.227857 17.003984 5.674464 23.292324 8.614553 16.984395 C 11.553486 10.679922 14.00356 16.970566 14.00356 16.970566 C 14.00356 16.970566 16.444388 23.263516 19.384477 16.960195 C 22.324565 10.655723 24.760771 16.998223 24.760771 16.998223 C 24.760771 16.998223 27.202755 23.292324 30.140533 16.984395 C 33.075999 10.679922 35.517983 16.963652 35.517983 16.963652 " transform="matrix(3.38,0,0,3.389831,0,0)"/>
<path style="fill:none;stroke-width:0.5625;stroke-linecap:round;stroke-linejoin:miter;stroke:rgb(13.72549%,12.156863%,12.54902%);stroke-opacity:1;stroke-miterlimit:1;" d="M 36.084273 17.003984 C 36.084273 17.003984 33.637666 23.292324 30.694111 16.984395 C 27.758645 10.679922 25.308571 16.970566 25.308571 16.970566 C 25.308571 16.970566 22.860808 23.263516 19.926498 16.960195 C 16.987565 10.655723 14.551359 16.998223 14.551359 16.998223 C 14.551359 16.998223 12.110531 23.292324 9.170442 16.984395 C 6.230353 10.679922 3.794148 16.970566 3.794148 16.970566 " transform="matrix(3.38,0,0,3.389831,0,0)"/>
<path style="fill:none;stroke-width:1.125;stroke-linecap:round;stroke-linejoin:miter;stroke:rgb(13.72549%,12.156863%,12.54902%);stroke-opacity:1;stroke-miterlimit:1;" d="M 3.794148 17.003984 C 3.794148 17.003984 6.239599 23.292324 9.179688 16.984395 C 12.118621 10.679922 14.56985 16.970566 14.56985 16.970566 C 14.56985 16.970566 17.010679 23.263516 19.950767 16.960195 C 22.890856 10.655723 25.328217 16.998223 25.328217 16.998223 C 25.328217 16.998223 27.764423 23.292324 30.707979 16.984395 C 33.643445 10.679922 36.084273 16.970566 36.084273 16.970566 " transform="matrix(3.38,0,0,3.389831,0,0)"/>
<path style="fill:none;stroke-width:0.5625;stroke-linecap:round;stroke-linejoin:miter;stroke:rgb(100%,100%,100%);stroke-opacity:1;stroke-miterlimit:1;" d="M 35.517983 17.003984 C 35.517983 17.003984 33.071376 23.292324 30.12782 16.984395 C 27.192354 10.679922 24.741124 16.970566 24.741124 16.970566 C 24.741124 16.970566 22.294517 23.263516 19.354429 16.960195 C 16.421274 10.655723 13.985068 16.998223 13.985068 16.998223 C 13.985068 16.998223 11.541929 23.292324 8.604151 16.984395 C 5.664062 10.679922 3.227857 16.963652 3.227857 16.963652 " transform="matrix(3.38,0,0,3.389831,0,0)"/>
<path style="fill:none;stroke-width:1.125;stroke-linecap:round;stroke-linejoin:miter;stroke:rgb(100%,100%,100%);stroke-opacity:1;stroke-miterlimit:1;" d="M 3.227857 17.003984 C 3.227857 17.003984 5.674464 23.292324 8.614553 16.984395 C 11.553486 10.679922 14.00356 16.970566 14.00356 16.970566 C 14.00356 16.970566 16.444388 23.263516 19.384477 16.960195 C 22.324565 10.655723 24.760771 16.998223 24.760771 16.998223 C 24.760771 16.998223 27.202755 23.292324 30.140533 16.984395 C 33.075999 10.679922 35.517983 16.963652 35.517983 16.963652 " transform="matrix(3.38,0,0,3.389831,0,0)"/>
<path style="fill:none;stroke-width:0.5625;stroke-linecap:round;stroke-linejoin:miter;stroke:rgb(13.72549%,12.156863%,12.54902%);stroke-opacity:1;stroke-miterlimit:1;" d="M 36.084273 17.003984 C 36.084273 17.003984 33.637666 23.292324 30.694111 16.984395 C 27.758645 10.679922 25.308571 16.970566 25.308571 16.970566 C 25.308571 16.970566 22.860808 23.263516 19.926498 16.960195 C 16.987565 10.655723 14.551359 16.998223 14.551359 16.998223 C 14.551359 16.998223 12.110531 23.292324 9.170442 16.984395 C 6.230353 10.679922 3.794148 16.970566 3.794148 16.970566 " transform="matrix(3.38,0,0,3.389831,0,0)"/>
<path style="fill:none;stroke-width:1.125;stroke-linecap:round;stroke-linejoin:miter;stroke:rgb(13.72549%,12.156863%,12.54902%);stroke-opacity:1;stroke-miterlimit:1;" d="M 3.794148 17.003984 C 3.794148 17.003984 6.239599 23.292324 9.179688 16.984395 C 12.118621 10.679922 14.56985 16.970566 14.56985 16.970566 C 14.56985 16.970566 17.010679 23.263516 19.950767 16.960195 C 22.890856 10.655723 25.328217 16.998223 25.328217 16.998223 C 25.328217 16.998223 27.764423 23.292324 30.707979 16.984395 C 33.643445 10.679922 36.084273 16.970566 36.084273 16.970566 " transform="matrix(3.38,0,0,3.389831,0,0)"/>
<path style="fill:none;stroke-width:0.5625;stroke-linecap:round;stroke-linejoin:miter;stroke:rgb(100%,100%,100%);stroke-opacity:1;stroke-miterlimit:1;" d="M 35.517983 17.003984 C 35.517983 17.003984 33.071376 23.292324 30.12782 16.984395 C 27.192354 10.679922 24.741124 16.970566 24.741124 16.970566 C 24.741124 16.970566 22.294517 23.263516 19.354429 16.960195 C 16.421274 10.655723 13.985068 16.998223 13.985068 16.998223 C 13.985068 16.998223 11.541929 23.292324 8.604151 16.984395 C 5.664062 10.679922 3.227857 16.963652 3.227857 16.963652 " transform="matrix(3.38,0,0,3.389831,0,0)"/>
<path style="fill:none;stroke-width:1.125;stroke-linecap:round;stroke-linejoin:miter;stroke:rgb(100%,100%,100%);stroke-opacity:1;stroke-miterlimit:1;" d="M 3.227857 17.003984 C 3.227857 17.003984 5.674464 23.292324 8.614553 16.984395 C 11.553486 10.679922 14.00356 16.970566 14.00356 16.970566 C 14.00356 16.970566 16.444388 23.263516 19.384477 16.960195 C 22.324565 10.655723 24.760771 16.998223 24.760771 16.998223 C 24.760771 16.998223 27.202755 23.292324 30.140533 16.984395 C 33.075999 10.679922 35.517983 16.963652 35.517983 16.963652 " transform="matrix(3.38,0,0,3.389831,0,0)"/>
<path style=" stroke:none;fill-rule:nonzero;fill:rgb(100%,100%,100%);fill-opacity:1;" d="M 70.089844 118.933594 L 70.089844 94.480469 L 74.230469 94.480469 L 68.128906 85.25 L 62.023438 94.484375 L 66.148438 94.484375 L 66.148438 118.933594 L 70.089844 118.933594 M 57.648438 122.472656 L 40.402344 105.175781 L 43.320312 102.246094 L 32.496094 100.042969 L 34.691406 110.902344 L 37.609375 107.972656 L 54.855469 125.269531 L 57.648438 122.472656 M 51.34375 133.796875 L 26.953125 133.796875 L 26.953125 129.660156 L 17.742188 135.78125 L 26.953125 141.890625 L 26.953125 137.757812 L 51.34375 137.757812 L 51.34375 133.796875 M 54.855469 146.273438 L 37.609375 163.574219 L 34.691406 160.644531 L 32.496094 171.5 L 43.320312 169.292969 L 40.402344 166.371094 L 57.648438 149.070312 L 54.855469 146.273438 M 66.148438 152.617188 L 66.148438 177.0625 L 62.023438 177.0625 L 68.128906 186.296875 L 74.230469 177.0625 L 70.089844 177.0625 L 70.089844 152.609375 L 66.148438 152.609375 M 78.59375 149.070312 L 95.839844 166.371094 L 92.917969 169.292969 L 103.746094 171.5 L 101.546875 160.644531 L 98.628906 163.574219 L 81.382812 146.273438 L 78.589844 149.070312 M 84.914062 137.75 L 109.289062 137.75 L 109.289062 141.886719 L 118.5 135.78125 L 109.289062 129.65625 L 109.289062 133.796875 L 84.914062 133.796875 L 84.914062 137.75 M 81.382812 125.269531 L 98.628906 107.972656 L 101.546875 110.902344 L 103.746094 100.046875 L 92.917969 102.246094 L 95.839844 105.175781 L 78.59375 122.472656 L 81.382812 125.269531 "/>
<path style=" stroke:none;fill-rule:nonzero;fill:rgb(100%,100%,100%);fill-opacity:1;" d="M 83.097656 156.488281 C 94.601562 148.394531 97.410156 132.488281 89.335938 120.949219 C 81.285156 109.40625 65.425781 106.597656 53.921875 114.679688 C 42.40625 122.757812 39.601562 138.667969 47.65625 150.21875 C 55.730469 161.75 71.589844 164.5625 83.09375 156.488281 "/>
<path style=" stroke:none;fill-rule:nonzero;fill:rgb(13.72549%,12.156863%,12.54902%);fill-opacity:1;" d="M 50.121094 23.03125 L 63.589844 21.902344 L 61.046875 25.730469 L 57.480469 25.050781 L 42.742188 30.679688 L 39.195312 29.78125 L 53.425781 24.371094 L 50.121094 23.03125 M 107.554688 23.242188 L 95.855469 21.441406 L 97.125 25.730469 L 100.179688 25.277344 L 110.855469 30.011719 L 114.402344 29.105469 L 103.992188 24.601562 L 107.554688 23.242188 M 87.222656 11.082031 L 81.382812 10.628906 L 100.425781 6.34375 L 108.5625 12.207031 L 102.472656 11.757812 L 101.183594 11.757812 L 91.035156 18.296875 L 77.054688 18.296875 L 87.980469 11.078125 L 87.222656 11.078125 M 75.273438 26.640625 L 71.214844 26.640625 L 81.894531 20.777344 L 82.636719 26.640625 L 78.328125 26.640625 L 78.839844 26.640625 L 73.496094 31.796875 L 69.679688 31.796875 L 75.027344 26.636719 L 75.273438 26.636719 "/>
<path style=" stroke:none;fill-rule:nonzero;fill:rgb(100%,100%,100%);fill-opacity:1;" d="M 49.613281 22.578125 L 63.082031 21.441406 L 60.535156 25.277344 L 56.96875 24.601562 L 42.25 30.226562 L 38.683594 29.335938 L 52.910156 23.925781 L 49.613281 22.578125 M 107.042969 22.796875 L 95.355469 20.988281 L 96.613281 25.277344 L 99.667969 24.835938 L 110.347656 29.570312 L 113.894531 28.652344 L 103.480469 24.15625 L 107.042969 22.800781 M 86.710938 10.628906 L 80.871094 10.1875 L 99.914062 5.898438 L 108.046875 11.757812 L 101.960938 11.308594 L 100.691406 11.308594 L 90.527344 17.851562 L 76.542969 17.851562 L 87.472656 10.628906 L 86.710938 10.628906 M 74.761719 26.171875 L 70.703125 26.171875 L 81.382812 20.328125 L 82.136719 26.171875 L 77.816406 26.171875 L 78.324219 26.171875 L 72.980469 31.355469 L 69.171875 31.355469 L 74.519531 26.171875 L 74.765625 26.171875 "/>
</g>
</svg>
