<?xml version="1.0" encoding="UTF-8"?>
<svg xmlns="http://www.w3.org/2000/svg" xmlns:xlink="http://www.w3.org/1999/xlink" width="186pt" height="200pt" viewBox="0 0 186 200" version="1.1">
<g id="surface1">
<path style=" stroke:none;fill-rule:nonzero;fill:rgb(1.176471%,41.176471%,59.607843%);fill-opacity:1;" d="M 181.527344 109.394531 L 164.796875 131.722656 L 26.085938 131.722656 L 48.796875 108.980469 L 181.527344 109.394531 "/>
<path style="fill:none;stroke-width:0.5;stroke-linecap:butt;stroke-linejoin:miter;stroke:rgb(100%,100%,100%);stroke-opacity:1;stroke-miterlimit:4;" d="M 39.038138 23.518984 L 35.440188 28.318691 L 5.609879 28.318691 L 10.493952 23.431641 Z M 39.038138 23.518984 " transform="matrix(4.65,0,0,4.651163,0,0)"/>
<path style=" stroke:none;fill-rule:nonzero;fill:rgb(1.176471%,41.176471%,59.607843%);fill-opacity:1;" d="M 25.75 156.8125 L 158.84375 156.8125 L 158.84375 131.984375 L 25.75 131.984375 Z M 25.75 156.8125 "/>
<path style="fill:none;stroke-width:0.5;stroke-linecap:butt;stroke-linejoin:miter;stroke:rgb(100%,100%,100%);stroke-opacity:1;stroke-miterlimit:4;" d="M 5.537634 33.714687 L 34.159946 33.714687 L 34.159946 28.37832 L 5.537634 28.37832 Z M 5.537634 33.714687 " transform="matrix(4.65,0,0,4.651163,0,0)"/>
<path style=" stroke:none;fill-rule:nonzero;fill:rgb(1.176471%,41.176471%,59.607843%);fill-opacity:1;" d="M 25.316406 126.398438 L 157.957031 126.398438 L 157.957031 26.363281 L 25.316406 26.363281 Z M 25.316406 126.398438 "/>
<path style="fill:none;stroke-width:0.5;stroke-linecap:butt;stroke-linejoin:miter;stroke:rgb(100%,100%,100%);stroke-opacity:1;stroke-miterlimit:4;" d="M 5.444388 27.177344 L 33.969254 27.177344 L 33.969254 5.668105 L 5.444388 5.668105 Z M 5.444388 27.177344 " transform="matrix(4.65,0,0,4.651163,0,0)"/>
<path style=" stroke:none;fill-rule:nonzero;fill:rgb(1.176471%,41.176471%,59.607843%);fill-opacity:1;" d="M 157.960938 126.398438 L 180.59375 103.761719 L 180.59375 3.746094 L 157.960938 26.363281 L 157.960938 126.398438 "/>
<path style="fill:none;stroke-width:0.5;stroke-linecap:butt;stroke-linejoin:miter;stroke:rgb(100%,100%,100%);stroke-opacity:1;stroke-miterlimit:4;" d="M 33.970094 27.177344 L 38.837366 22.30877 L 38.837366 0.80373 L 33.970094 5.668105 Z M 33.970094 27.177344 " transform="matrix(4.65,0,0,4.651163,0,0)"/>
<path style=" stroke:none;fill-rule:nonzero;fill:rgb(1.176471%,41.176471%,59.607843%);fill-opacity:1;" d="M 158.730469 156.882812 L 158.730469 132.039062 L 181.238281 109.554688 L 181.238281 134.394531 L 158.730469 156.882812 "/>
<path style="fill:none;stroke-width:0.5;stroke-linecap:butt;stroke-linejoin:miter;stroke:rgb(100%,100%,100%);stroke-opacity:1;stroke-miterlimit:4;" d="M 34.135585 33.729805 L 34.135585 28.388398 L 38.975974 23.554258 L 38.975974 28.895664 L 34.135585 33.728965 Z M 34.135585 33.729805 " transform="matrix(4.65,0,0,4.651163,0,0)"/>
<path style=" stroke:none;fill-rule:nonzero;fill:rgb(1.176471%,41.176471%,59.607843%);fill-opacity:1;" d="M 47.339844 37.902344 L 135.964844 37.902344 C 141.734375 37.902344 146.410156 42.578125 146.410156 48.347656 L 146.410156 104.347656 C 146.410156 110.117188 141.734375 114.796875 135.964844 114.796875 L 47.335938 114.796875 C 41.566406 114.796875 36.890625 110.121094 36.894531 104.347656 L 36.894531 48.347656 C 36.890625 42.578125 41.566406 37.898438 47.335938 37.902344 "/>
<path style="fill:none;stroke-width:0.5;stroke-linecap:butt;stroke-linejoin:miter;stroke:rgb(100%,100%,100%);stroke-opacity:1;stroke-miterlimit:4;" d="M 10.180612 8.148164 L 29.239751 8.148164 C 30.480511 8.148164 31.485215 9.153457 31.486055 10.393906 L 31.486055 22.435586 C 31.485215 23.676035 30.480511 24.681328 29.239751 24.682168 L 10.179772 24.682168 C 8.939852 24.682168 7.934308 23.676035 7.934308 22.435586 L 7.934308 10.393906 C 7.934308 9.153457 8.939852 8.148164 10.179772 8.148164 Z M 10.180612 8.148164 " transform="matrix(4.65,0,0,4.651163,0,0)"/>
<path style=" stroke:none;fill-rule:nonzero;fill:rgb(1.176471%,41.176471%,59.607843%);fill-opacity:1;" d="M 180.59375 3.746094 L 51.585938 3.746094 L 25.316406 26.359375 L 157.960938 26.359375 L 180.59375 3.746094 "/>
<path style="fill:none;stroke-width:0.5;stroke-linecap:butt;stroke-linejoin:miter;stroke:rgb(100%,100%,100%);stroke-opacity:1;stroke-miterlimit:4;" d="M 38.837366 0.80373 L 11.09375 0.80373 L 5.444388 5.668105 L 33.970094 5.668105 Z M 38.837366 0.80373 " transform="matrix(4.65,0,0,4.651163,0,0)"/>
<path style=" stroke:none;fill-rule:nonzero;fill:rgb(1.176471%,41.176471%,59.607843%);fill-opacity:1;" d="M 154.890625 189.066406 L 154.890625 181 L 172.265625 156.972656 L 172.265625 171.691406 L 154.890625 189.066406 "/>
<path style="fill:none;stroke-width:0.5;stroke-linecap:butt;stroke-linejoin:miter;stroke:rgb(100%,100%,100%);stroke-opacity:1;stroke-miterlimit:4;" d="M 33.309812 40.647598 L 33.309812 38.91584 L 37.046371 33.749961 L 37.046371 36.912813 Z M 33.309812 40.647598 " transform="matrix(4.65,0,0,4.651163,0,0)"/>
<path style=" stroke:none;fill-rule:nonzero;fill:rgb(1.176471%,41.176471%,59.607843%);fill-opacity:1;" d="M 154.890625 181.117188 L 2.273438 181.117188 L 19.640625 156.972656 L 172.265625 156.972656 L 154.890625 181.113281 "/>
<path style="fill:none;stroke-width:0.5;stroke-linecap:butt;stroke-linejoin:miter;stroke:rgb(100%,100%,100%);stroke-opacity:1;stroke-miterlimit:4;" d="M 33.309812 38.940195 L 0.488911 38.940195 L 4.22379 33.749961 L 37.046371 33.749961 Z M 33.309812 38.940195 " transform="matrix(4.65,0,0,4.651163,0,0)"/>
<path style=" stroke:none;fill-rule:nonzero;fill:rgb(1.176471%,41.176471%,59.607843%);fill-opacity:1;" d="M 2.179688 189.066406 L 154.890625 189.066406 L 154.890625 181.113281 L 2.179688 181.113281 Z M 2.179688 189.066406 "/>
<path style="fill:none;stroke-width:0.5;stroke-linecap:butt;stroke-linejoin:miter;stroke:rgb(100%,100%,100%);stroke-opacity:1;stroke-miterlimit:4;" d="M 0.46875 40.647598 L 33.309812 40.647598 L 33.309812 38.939355 L 0.46875 38.939355 Z M 0.46875 40.647598 " transform="matrix(4.65,0,0,4.651163,0,0)"/>
<path style=" stroke:none;fill-rule:nonzero;fill:rgb(1.176471%,41.176471%,59.607843%);fill-opacity:1;" d="M 77.949219 55.164062 C 62.441406 52.046875 54.265625 60 55.5625 66.851562 L 55.648438 67.246094 C 43.570312 69.285156 46.75 83.570312 52.539062 83.570312 L 53.109375 83.542969 C 51.742188 93.386719 66.277344 99.199219 73.65625 93.65625 L 74.152344 93.113281 C 76.445312 102.460938 107.6875 103.191406 114.003906 96.175781 L 114.570312 96.351562 C 128.257812 97.445312 134.484375 88 131.484375 81.210938 L 132.230469 81.003906 C 136.890625 79.777344 137.441406 68.984375 129.441406 67.398438 L 129.582031 66.996094 C 133.054688 59.976562 124.851562 53.367188 113.5 54.617188 L 112.710938 54.199219 C 104.554688 46.824219 81.148438 48.027344 78.421875 55.316406 L 77.949219 55.164062 "/>
<path style="fill:none;stroke-width:0.5;stroke-linecap:butt;stroke-linejoin:miter;stroke:rgb(100%,100%,100%);stroke-opacity:1;stroke-miterlimit:4;" d="M 16.763273 11.860273 C 13.428259 11.190078 11.670027 12.9 11.948925 14.374766 L 11.967406 14.45623 C 9.36996 14.897148 10.053763 17.967617 11.298723 17.967617 L 11.421371 17.963418 C 11.127352 20.077305 14.253192 21.326992 15.840054 20.136094 L 15.946741 20.017676 C 16.439852 22.030781 23.158602 22.186992 24.516969 20.677793 L 24.638777 20.717266 C 27.583165 20.951582 28.921371 18.92 28.27621 17.460352 L 28.43834 17.415 C 29.438844 17.152129 29.555612 14.83332 27.837702 14.492344 L 27.866263 14.401641 C 28.613911 12.894121 26.849798 11.473945 24.408602 11.741855 L 24.238911 11.653672 C 22.484879 10.068047 17.451277 10.326719 16.864919 11.893867 L 16.763273 11.858594 Z M 16.763273 11.860273 " transform="matrix(4.65,0,0,4.651163,0,0)"/>
</g>
</svg>
