<svg width="18" height="19" viewBox="0 0 18 19" fill="none" xmlns="http://www.w3.org/2000/svg">
    <path d="M9.70309 11.1915C9.89835 11.3868 10.2149 11.3868 10.4102 11.1915L13.5922 8.00953C13.7874 7.81427 13.7874 7.49769 13.5922 7.30243C13.3969 7.10716 13.0803 7.10716 12.8851 7.30243L10.0566 10.1309L7.22821 7.30243C7.03295 7.10716 6.71637 7.10716 6.52111 7.30243C6.32584 7.49769 6.32584 7.81427 6.52111 8.00953L9.70309 11.1915ZM16.8012 0.511699C15.4073 0.818643 13.5852 1.47668 12.1122 3.04661C10.6307 4.62562 9.55664 7.06876 9.55664 10.838H10.5566C10.5566 7.2692 11.5675 5.08867 12.8415 3.73085C14.124 2.36395 15.728 1.77198 17.0163 1.4883L16.8012 0.511699Z" fill="white"/>
    <path fill-rule="evenodd" clip-rule="evenodd" d="M4.71475 1.53564H2C0.89543 1.53564 0 2.43107 0 3.53564V16.3684C0 17.473 0.895431 18.3684 2 18.3684H15.916C17.0206 18.3684 17.916 17.473 17.916 16.3684V10.395H16.916V16.3684C16.916 16.9207 16.4683 17.3684 15.916 17.3684H2C1.44772 17.3684 1 16.9207 1 16.3684V3.53564C1 2.98336 1.44771 2.53564 2 2.53564H4.71475V1.53564Z" fill="white"/>
</svg>
