<svg width="14" height="19" viewBox="0 0 14 19" fill="none" xmlns="http://www.w3.org/2000/svg">
<path fill-rule="evenodd" clip-rule="evenodd" d="M3 18.2C1.9 18.2 1 17.29 1 16.1778V5.04444C1 4.49216 1.44772 4.04444 2 4.04444H12C12.5523 4.04444 13 4.49216 13 5.04445V16.1778C13 17.29 12.1 18.2 11 18.2H3ZM10.2065 0.714301C10.3943 0.904232 10.6503 1.01111 10.9175 1.01111H13C13.5523 1.01111 14 1.45883 14 2.01111V2.03333C14 2.58562 13.5523 3.03333 13 3.03333H1C0.447715 3.03333 0 2.58562 0 2.03333V2.01111C0 1.45883 0.447715 1.01111 1 1.01111H3.08255C3.34968 1.01111 3.60571 0.904232 3.79355 0.714301L4.20645 0.296811C4.3943 0.10688 4.65032 0 4.91745 0H9.08255C9.34968 0 9.60571 0.106879 9.79355 0.296811L10.2065 0.714301ZM3.5 5C2.94772 5 2.5 5.44771 2.5 6V16C2.5 16.5523 2.94772 17 3.5 17C4.05228 17 4.5 16.5523 4.5 16V6C4.5 5.44772 4.05228 5 3.5 5ZM6 6C6 5.44771 6.44772 5 7 5C7.55228 5 8 5.44772 8 6V16C8 16.5523 7.55228 17 7 17C6.44772 17 6 16.5523 6 16V6ZM10.5 5C9.94771 5 9.5 5.44771 9.5 6V16C9.5 16.5523 9.94771 17 10.5 17C11.0523 17 11.5 16.5523 11.5 16V6C11.5 5.44772 11.0523 5 10.5 5Z" fill="#E1E1E1"/>
</svg>
