<svg width="18" height="18" viewBox="0 0 18 18" fill="none" xmlns="http://www.w3.org/2000/svg">
<path fill-rule="evenodd" clip-rule="evenodd" d="M5.69307 7.11245C5.69307 9.93598 7.98199 12.2249 10.8055 12.2249C13.629 12.2249 15.918 9.93598 15.918 7.11245C15.918 4.28892 13.629 2 10.8055 2C7.98199 2 5.69307 4.28892 5.69307 7.11245ZM6.24035 12.5667C7.47566 13.6017 9.06782 14.2249 10.8055 14.2249C14.7336 14.2249 17.918 11.0405 17.918 7.11245C17.918 3.18435 14.7336 0 10.8055 0C6.87742 0 3.69307 3.18435 3.69307 7.11245C3.69307 8.58078 4.13801 9.94518 4.90041 11.0782L0.318756 15.6598C-0.0717678 16.0504 -0.0717678 16.6835 0.318756 17.0741C0.709282 17.4646 1.34245 17.4646 1.73297 17.0741L6.24035 12.5667Z" fill="white"/>
</svg>
