<svg width="113" height="113" viewBox="0 0 113 113" fill="none" xmlns="http://www.w3.org/2000/svg">
<path d="M104.074 1H8.92616C4.54866 1 1 4.54866 1 8.92616V104.074C1 108.451 4.54866 112 8.92616 112H104.074C108.451 112 112 108.451 112 104.074V8.92616C112 4.54866 108.451 1 104.074 1Z" stroke="#22DDE5" stroke-width="2" stroke-miterlimit="10"/>
<path d="M21.2585 24.635V93.8517H90.4753" stroke="#22DDE5" stroke-width="2" stroke-miterlimit="10" stroke-linecap="round"/>
<path d="M70.183 68.0896L74.7918 54.567L76.5138 59.1758L78.2442 54.567L81.4096 57.7324L84.575 43.6274" stroke="url(#paint0_linear)" stroke-width="2" stroke-miterlimit="10" stroke-linecap="round"/>
<path d="M26.4414 86.5164L29.3198 83.925L32.4852 85.073L36.5116 79.3162L49.7556 81.3336L52.0516 73.2724L54.93 74.7158L58.0954 68.959L64.4262 75.2898L68.461 64.9242L70.183 68.0896" stroke="#22DDE5" stroke-width="2" stroke-miterlimit="10" stroke-linecap="round"/>
<defs>
<linearGradient id="paint0_linear" x1="69.3388" y1="55.8585" x2="85.4191" y2="55.8585" gradientUnits="userSpaceOnUse">
<stop stop-color="white"/>
<stop offset="1" stop-color="#D9EBEB"/>
</linearGradient>
</defs>
</svg>
