<?xml version="1.0" encoding="UTF-8" standalone="no"?>
<!-- Created with Inkscape (http://www.inkscape.org/) -->

<svg
   xmlns:dc="http://purl.org/dc/elements/1.1/"
   xmlns:cc="http://creativecommons.org/ns#"
   xmlns:rdf="http://www.w3.org/1999/02/22-rdf-syntax-ns#"
   xmlns:svg="http://www.w3.org/2000/svg"
   xmlns="http://www.w3.org/2000/svg"
   xmlns:sodipodi="http://sodipodi.sourceforge.net/DTD/sodipodi-0.dtd"
   xmlns:inkscape="http://www.inkscape.org/namespaces/inkscape"
   width="15.057305mm"
   height="13.500345mm"
   viewBox="0 0 53.352657 47.835869"
   id="svg2"
   version="1.1"
   inkscape:version="0.91 r13725"
   sodipodi:docname="sicor_logo.svg"
   inkscape:export-filename="/home/hollstei/dat/projekte/Sentinel2/py/sicor/docs/figs/sicor_logo_hr.png"
   inkscape:export-xdpi="1349.511"
   inkscape:export-ydpi="1349.511">
  <defs
     id="defs4" />
  <sodipodi:namedview
     id="base"
     pagecolor="#ffffff"
     bordercolor="#666666"
     borderopacity="1.0"
     inkscape:pageopacity="0.0"
     inkscape:pageshadow="2"
     inkscape:zoom="11.313709"
     inkscape:cx="-9.1831426"
     inkscape:cy="27.67146"
     inkscape:document-units="px"
     inkscape:current-layer="layer1"
     showgrid="false"
     showguides="true"
     inkscape:guide-bbox="true"
     inkscape:window-width="4096"
     inkscape:window-height="2089"
     inkscape:window-x="0"
     inkscape:window-y="200"
     inkscape:window-maximized="1"
     fit-margin-top="0"
     fit-margin-left="0"
     fit-margin-right="0"
     fit-margin-bottom="0" />
  <metadata
     id="metadata7">
    <rdf:RDF>
      <cc:Work
         rdf:about="">
        <dc:format>image/svg+xml</dc:format>
        <dc:type
           rdf:resource="http://purl.org/dc/dcmitype/StillImage" />
        <dc:title />
      </cc:Work>
    </rdf:RDF>
  </metadata>
  <g
     inkscape:label="Ebene 1"
     inkscape:groupmode="layer"
     id="layer1"
     transform="translate(-112.89754,-261.31182)">
    <text
       xml:space="preserve"
       style="font-style:normal;font-weight:normal;font-size:13.75px;line-height:125%;font-family:sans-serif;letter-spacing:0px;word-spacing:0px;fill:#000000;fill-opacity:1;stroke:none;stroke-width:1px;stroke-linecap:butt;stroke-linejoin:miter;stroke-opacity:1"
       x="114.05112"
       y="418.8894"
       id="text4136"
       sodipodi:linespacing="125%"
       transform="matrix(1,-1,0,1,0,0)"><tspan
         sodipodi:role="line"
         id="tspan4138"
         x="114.05112"
         y="418.8894"
         style="font-weight:bold">SI</tspan></text>
    <text
       xml:space="preserve"
       style="font-style:normal;font-weight:normal;font-size:13.75px;line-height:125%;font-family:sans-serif;letter-spacing:0px;word-spacing:0px;fill:#000000;fill-opacity:1;stroke:none;stroke-width:1px;stroke-linecap:butt;stroke-linejoin:miter;stroke-opacity:1"
       x="129.46428"
       y="290.57651"
       id="text4140"
       sodipodi:linespacing="125%"><tspan
         sodipodi:role="line"
         id="tspan4142"
         x="129.46428"
         y="290.57651"
         style="font-weight:bold">COR</tspan></text>
    <path
       style="fill:none;fill-rule:evenodd;stroke:#000000;stroke-width:1.89999998;stroke-linecap:round;stroke-linejoin:miter;stroke-miterlimit:5.30000019;stroke-dasharray:none;stroke-opacity:1"
       d="m 113.85714,308.1881 14.375,-14.375 37.05358,0"
       id="path4144"
       inkscape:connector-curvature="0"
       sodipodi:nodetypes="ccc" />
    <path
       style="fill:none;fill-rule:evenodd;stroke:#000000;stroke-width:1.89999998;stroke-linecap:round;stroke-linejoin:miter;stroke-miterlimit:5.30000019;stroke-dasharray:none;stroke-opacity:1"
       d="m 113.85809,262.39628 14.375,14.375 37.05358,0"
       id="path4144-3"
       inkscape:connector-curvature="0"
       sodipodi:nodetypes="ccc" />
    <path
       style="fill:none;fill-rule:evenodd;stroke:#000000;stroke-width:1.89999998;stroke-linecap:round;stroke-linejoin:miter;stroke-miterlimit:5.30000019;stroke-dasharray:none;stroke-opacity:1"
       d="m 119.23201,308.14765 10.625,-10.625 24.55358,0"
       id="path4144-35"
       inkscape:connector-curvature="0"
       sodipodi:nodetypes="ccc" />
    <path
       style="fill:none;fill-rule:evenodd;stroke:#000000;stroke-width:1.89999998;stroke-linecap:round;stroke-linejoin:miter;stroke-miterlimit:5.30000019;stroke-dasharray:none;stroke-opacity:1"
       d="m 119.21234,262.27142 10.625,10.625 24.55358,0"
       id="path4144-35-6"
       inkscape:connector-curvature="0"
       sodipodi:nodetypes="ccc" />
    <g
       transform="matrix(1,1,0,1,41.19362,1.8127271)"
       style="font-style:normal;font-weight:normal;font-size:13.75px;line-height:125%;font-family:sans-serif;letter-spacing:0px;word-spacing:0px;opacity:0.31499999;fill:#000000;fill-opacity:1;stroke:none;stroke-width:1px;stroke-linecap:butt;stroke-linejoin:miter;stroke-opacity:1"
       id="text4490">
      <path
         d="m 81.095169,192.94118 0,2.12158 q -0.825806,-0.36926 -1.611328,-0.55725 -0.785523,-0.18799 -1.483765,-0.18799 -0.926513,0 -1.369629,0.25513 -0.443115,0.25512 -0.443115,0.79223 0,0.40284 0.29541,0.63111 0.302124,0.22155 1.087647,0.38269 l 1.101074,0.22155 q 1.671753,0.3357 2.376709,1.02051 0.704956,0.68482 0.704956,1.94702 0,1.65833 -0.986938,2.47071 -0.980225,0.80566 -3.001099,0.80566 -0.953369,0 -1.913452,-0.18127 -0.960083,-0.18128 -1.920166,-0.53711 l 0,-2.18201 q 0.960083,0.51025 1.853027,0.7721 0.899658,0.25512 1.732178,0.25512 0.845947,0 1.295776,-0.28198 0.449829,-0.28198 0.449829,-0.80566 0,-0.46997 -0.308838,-0.7251 -0.302124,-0.25513 -1.21521,-0.45654 l -1.000366,-0.22156 q -1.503906,-0.32227 -2.202148,-1.02722 -0.691528,-0.70496 -0.691528,-1.90003 0,-1.49719 0.966796,-2.30285 0.966797,-0.80567 2.779541,-0.80567 0.825806,0 1.698609,0.12756 0.872803,0.12085 1.80603,0.36927 z"
         style="font-weight:bold"
         id="path4495"
         inkscape:connector-curvature="0" />
      <path
         d="m 84.029129,192.62563 2.584839,0 0,10.0238 -2.584839,0 0,-10.0238 z"
         style="font-weight:bold"
         id="path4497"
         inkscape:connector-curvature="0" />
    </g>
  </g>
</svg>
