<?xml version="1.0" encoding="UTF-8" standalone="no"?>
<svg
   xmlns:dc="http://purl.org/dc/elements/1.1/"
   xmlns:cc="http://creativecommons.org/ns#"
   xmlns:rdf="http://www.w3.org/1999/02/22-rdf-syntax-ns#"
   xmlns:svg="http://www.w3.org/2000/svg"
   xmlns="http://www.w3.org/2000/svg"
   xmlns:sodipodi="http://sodipodi.sourceforge.net/DTD/sodipodi-0.dtd"
   xmlns:inkscape="http://www.inkscape.org/namespaces/inkscape"
   width="38.101482mm"
   height="18.628109mm"
   viewBox="0 0 38.101482 18.628109"
   version="1.1"
   id="svg2197"
   inkscape:version="1.0.1 (3bc2e813f5, 2020-09-07)"
   sodipodi:docname="tuxbuild_icon.svg">
  <defs
     id="defs2191" />
  <sodipodi:namedview
     id="base"
     pagecolor="#ffffff"
     bordercolor="#666666"
     borderopacity="1.0"
     inkscape:pageopacity="0.0"
     inkscape:pageshadow="2"
     inkscape:zoom="0.35"
     inkscape:cx="-105.14018"
     inkscape:cy="-324.79726"
     inkscape:document-units="mm"
     inkscape:current-layer="layer1"
     inkscape:document-rotation="0"
     showgrid="false"
     fit-margin-top="0"
     fit-margin-left="0"
     fit-margin-right="0"
     fit-margin-bottom="0"
     inkscape:window-width="1452"
     inkscape:window-height="1199"
     inkscape:window-x="103"
     inkscape:window-y="127"
     inkscape:window-maximized="0" />
  <metadata
     id="metadata2194">
    <rdf:RDF>
      <cc:Work
         rdf:about="">
        <dc:format>image/svg+xml</dc:format>
        <dc:type
           rdf:resource="http://purl.org/dc/dcmitype/StillImage" />
        <dc:title></dc:title>
      </cc:Work>
    </rdf:RDF>
  </metadata>
  <g
     inkscape:label="Layer 1"
     inkscape:groupmode="layer"
     id="layer1"
     transform="translate(-133.65167,-234.10261)">
    <path
       class="cls-1"
       d="m 137.3851,246.87123 a 9.1387083,9.1387083 0 0 1 -1.05833,0.92605 l -0.23019,0.14287 c -0.24871,0.15875 -0.48683,0.32544 -0.70908,0.48948 -1.2118,0.90752 -1.9394,1.83621 -1.6854,2.23044 a 0.23283333,0.23283333 0 0 0 0.0582,0.0662 c 0.21167,-0.0794 0.43656,-0.17727 0.67733,-0.2884 a 13.311187,13.311187 0 0 0 1.20121,-0.6641 11.234208,11.234208 0 0 0 1.08215,-0.79375 c -0.52917,0.54504 -0.83344,1.02923 -0.74613,1.32291 a 0.22489583,0.22489583 0 0 0 0.0344,0.082 0.31485417,0.31485417 0 0 0 0.0582,0.0609 0.56885417,0.56885417 0 0 0 0.42333,0.11642 2.4156458,2.4156458 0 0 0 0.66939,-0.10054 c 0.0529,0 0.10319,-0.0291 0.1614,-0.045 a 0.81227083,0.81227083 0 0 1 0.21696,0 0.41010417,0.41010417 0 0 1 0.26458,0.16404 0.03439583,0.03439583 0 0 1 0,0.0317 0.45508333,0.45508333 0 0 1 0,0.36513 1.8520833,1.8520833 0 0 1 -0.0979,0.21695 3.3522708,3.3522708 0 0 0 -0.46567,0.65088 0.67204167,0.67204167 0 0 0 -0.0952,0.58208 c 0,0 0,0.0212 0,0.0265 a 0.14022917,0.14022917 0 0 0 0.0609,0.0635 0.682625,0.682625 0 0 0 0.4789,0.12171 3.063875,3.063875 0 0 0 0.65617,-0.12171 18.608146,18.608146 0 0 1 2.77812,-1.50019 2.4500417,2.4500417 0 0 1 0.26458,-0.11112 v 0 c 0.26459,-0.10848 0.5133,-0.21167 0.762,-0.30692 v 0 c 0.0635,-0.0212 0.12436,-0.0476 0.18257,-0.0688 0.0582,-0.0212 0.12964,-0.0476 0.1905,-0.0741 0.11641,-0.0397 0.2196,-0.0741 0.32808,-0.10583 0.10848,-0.0318 0.14817,-0.0529 0.22754,-0.0741 a 11.90625,11.90625 0 0 1 1.49754,-0.38365 h 0.14023 a 33.435396,33.435396 0 0 0 8.05392,-0.39953 c 1.61396,-0.30162 3.41842,-1.05833 4.9821,-1.85208 v 0 c 0,0 1.89971,0.26458 2.81517,1.11125 a 8.35025,8.35025 0 0 1 1.89177,2.76225 c 0.26458,0.70644 0.39688,1.3679 0.81756,1.18533 0.42069,-0.18256 0.82286,-1.32291 0.74613,-2.30981 -0.0767,-0.98689 -0.68263,-2.9501 -1.40759,-3.92641 a 2.809875,2.809875 0 0 0 -1.26206,-0.93134 2.9950833,2.9950833 0 0 0 0.32015,-0.24341 c 0.34131,-0.34925 1.30704,-1.47903 2.34156,-2.60615 1.03452,-1.12713 1.6801,-2.67229 2.19869,-3.28348 0.51858,-0.61119 2.38125,-2.03465 2.9501,-2.50031 a 4.7625,4.7625 0 0 1 1.05834,-0.69321 7.3236667,7.3236667 0 0 0 1.30439,-0.67469 c 0.26458,-0.21166 0.26458,-0.81491 0.18521,-1.11389 -0.0688,-0.23284 -0.2831,-0.26459 -0.56092,-0.30957 -0.27781,-0.045 -0.94985,0.21696 -1.39435,0.37571 a 3.6856458,3.6856458 0 0 1 -1.61131,0.082 5.7970208,5.7970208 0 0 0 -1.36525,-0.2196 c -0.50271,0 -1.91823,0.59002 -2.79136,1.03717 -0.87312,0.44714 -1.87325,1.37847 -2.59291,1.85208 -0.71967,0.4736 -2.38125,1.11389 -3.42107,1.14035 a 3.46075,3.46075 0 0 1 -1.37583,-0.28575 c -0.18785,-0.0794 -0.37835,-0.16139 -0.5715,-0.23812 a 0.46302083,0.46302083 0 0 0 -0.0847,-0.0317 25.299458,25.299458 0 0 0 -3.37873,-1.05569 c -4.7625,-1.1721 -9.14664,-0.889 -11.14954,0.52917 a 0.35454167,0.35454167 0 0 0 -0.0741,0.0476 c 0,0 0,0 0,0 a 0.36247917,0.36247917 0 0 0 -0.10584,0.23813 0.3571875,0.3571875 0 0 0 0.33602,0.37571 0.32279167,0.32279167 0 0 0 0.0714,0 26.312812,26.312812 0 0 1 3.86556,-0.045 c 0.635,0.0397 1.25942,0.10318 1.85209,0.18256 v 0 a 10.773833,10.773833 0 0 1 1.30439,0.20637 v 0 c 0.1958,0.0423 0.39159,0.0767 0.57944,0.11907 a 0.079375,0.079375 0 0 1 0.037,0 h 0.0185 a 3.5480625,3.5480625 0 0 1 1.12713,0.46302 1.2514792,1.2514792 0 0 1 0.10583,0.09 0.54504167,0.54504167 0 0 1 0.20902,0.39687 c 0,0.29369 -0.37306,0.55033 -0.96308,0.74083 l 0.0635,-0.0264 c -0.39159,0.11377 -0.79375,0.23018 -1.18269,0.36247 -0.38894,0.1323 -0.79375,0.26459 -1.16681,0.42069 -1.16152,0.41275 -2.53736,0.95779 -3.93965,1.5875 -0.0265,0.0132 -2.49237,1.21973 -2.86544,1.4605 a 7.5300417,7.5300417 0 0 0 -1.78064,1.54252"
       id="path2155"
       style="fill:#f9b233;stroke-width:0.264583" />
  </g>
</svg>
