<?xml version="1.0" encoding="UTF-8" standalone="no"?>
<svg
   xmlns:dc="http://purl.org/dc/elements/1.1/"
   xmlns:cc="http://creativecommons.org/ns#"
   xmlns:rdf="http://www.w3.org/1999/02/22-rdf-syntax-ns#"
   xmlns:svg="http://www.w3.org/2000/svg"
   xmlns="http://www.w3.org/2000/svg"
   xmlns:sodipodi="http://sodipodi.sourceforge.net/DTD/sodipodi-0.dtd"
   xmlns:inkscape="http://www.inkscape.org/namespaces/inkscape"
   viewBox="0 0 88.28 88.22"
   version="1.1"
   id="svg65"
   sodipodi:docname="tuxsuite_icon.svg"
   inkscape:version="1.0.1 (3bc2e813f5, 2020-09-07)">
  <metadata
     id="metadata69">
    <rdf:RDF>
      <cc:Work
         rdf:about="">
        <dc:format>image/svg+xml</dc:format>
        <dc:type
           rdf:resource="http://purl.org/dc/dcmitype/StillImage" />
        <dc:title></dc:title>
      </cc:Work>
    </rdf:RDF>
  </metadata>
  <sodipodi:namedview
     pagecolor="#ffffff"
     bordercolor="#666666"
     borderopacity="1"
     objecttolerance="10"
     gridtolerance="10"
     guidetolerance="10"
     inkscape:pageopacity="0"
     inkscape:pageshadow="2"
     inkscape:window-width="2318"
     inkscape:window-height="1497"
     id="namedview67"
     showgrid="false"
     inkscape:zoom="3.97287"
     inkscape:cx="-72.363143"
     inkscape:cy="-0.19912929"
     inkscape:window-x="0"
     inkscape:window-y="0"
     inkscape:window-maximized="0"
     inkscape:current-layer="svg65" />
  <defs
     id="defs58">
    <style
       id="style56">.cls-1{fill:#007d88;}.cls-2{fill:#fff;}</style>
    <style
       id="style117">.cls-1{fill:#9c3;}</style>
  </defs>
  <g
     id="Layer_2"
     data-name="Layer 2">
    <circle
       class="cls-1"
       cx="44.169998"
       cy="44.110001"
       id="circle60"
       r="44.110001"
       style="fill:#99cc33;fill-opacity:1" />
    <path
       class="cls-2"
       d="M8.26,51.72a21,21,0,0,1-2.34,2.05l-.52.31c-.54.35-1.07.72-1.56,1.08-2.68,2-4.29,4.06-3.73,4.94a.29.29,0,0,0,.13.14c.47-.17,1-.39,1.49-.63a25.87,25.87,0,0,0,2.66-1.48A22.73,22.73,0,0,0,6.78,56.4c-1.19,1.2-1.84,2.27-1.64,2.91a.44.44,0,0,0,.07.19,1.59,1.59,0,0,0,.13.13,1.23,1.23,0,0,0,.94.26,6,6,0,0,0,1.48-.22l.35-.11a1.82,1.82,0,0,1,.48,0A.94.94,0,0,1,9.2,60a.09.09,0,0,1,0,.07,1,1,0,0,1,0,.8,2.89,2.89,0,0,1-.22.48,7.6,7.6,0,0,0-1.07,1.41A1.5,1.5,0,0,0,7.73,64a.11.11,0,0,0,0,.06.35.35,0,0,0,.13.14A1.53,1.53,0,0,0,9,64.48a6.35,6.35,0,0,0,1.45-.27,40.17,40.17,0,0,1,6.15-3.32,4.42,4.42,0,0,1,.6-.24h0c.57-.25,1.14-.47,1.69-.68h0l.4-.16.43-.16.72-.24c.16,0,.33-.11.5-.15a24.15,24.15,0,0,1,3.31-.85h.32a73.07,73.07,0,0,0,17.8-.88,43.66,43.66,0,0,0,11-4.08h0s4.2.59,6.22,2.46A18.25,18.25,0,0,1,63.77,62c.59,1.56.88,3,1.81,2.62s1.82-2.9,1.65-5.11a21.06,21.06,0,0,0-3.11-8.69,6.2,6.2,0,0,0-2.79-2.05c.36-.26.61-.45.71-.54.75-.77,2.89-3.27,5.17-5.77s3.72-5.91,4.87-7.26a73.24,73.24,0,0,1,6.53-5.53,10.6,10.6,0,0,1,2.32-1.53,16.14,16.14,0,0,0,2.88-1.49,2.76,2.76,0,0,0,.41-2.47c-.14-.51-.62-.58-1.23-.68a10.78,10.78,0,0,0-3.09.83,8.11,8.11,0,0,1-3.56.18,13.12,13.12,0,0,0-3-.49c-1.11,0-4.24,1.31-6.17,2.3S63,29.39,61.41,30.46A18.15,18.15,0,0,1,53.85,33a7.79,7.79,0,0,1-3.05-.63l-1.26-.53-.19-.07a56.31,56.31,0,0,0-7.53-2.4c-10.54-2.59-20.23-2-24.66,1.16a.46.46,0,0,0-.16.11l0,0a.76.76,0,0,0-.23.52.78.78,0,0,0,.74.83.85.85,0,0,0,.16,0,57.59,57.59,0,0,1,8.55-.1c1.4.09,2.78.23,4.11.4h0a23.58,23.58,0,0,1,2.88.46h0c.43.09.86.16,1.28.26h.08l0,0a8.06,8.06,0,0,1,2.48,1l.24.2a1.22,1.22,0,0,1,.46.88c0,.65-.83,1.21-2.13,1.64l.14-.06c-.87.25-1.74.51-2.62.8s-1.74.6-2.58.93c-2.57.92-5.61,2.12-8.71,3.49-.06,0-5.52,2.7-6.34,3.23a16.63,16.63,0,0,0-3.93,3.42"
       id="path62" />
  </g>
</svg>
