<?xml version="1.0" encoding="UTF-8" standalone="no"?>
<svg
   xmlns:dc="http://purl.org/dc/elements/1.1/"
   xmlns:cc="http://creativecommons.org/ns#"
   xmlns:rdf="http://www.w3.org/1999/02/22-rdf-syntax-ns#"
   xmlns:svg="http://www.w3.org/2000/svg"
   xmlns="http://www.w3.org/2000/svg"
   xmlns:sodipodi="http://sodipodi.sourceforge.net/DTD/sodipodi-0.dtd"
   xmlns:inkscape="http://www.inkscape.org/namespaces/inkscape"
   width="38.141262mm"
   height="18.628115mm"
   viewBox="0 0 38.141262 18.628115"
   version="1.1"
   id="svg2809"
   inkscape:version="1.0.1 (3bc2e813f5, 2020-09-07)"
   sodipodi:docname="tuxsuite_icon.svg">
  <defs
     id="defs2803" />
  <sodipodi:namedview
     id="base"
     pagecolor="#ffffff"
     bordercolor="#666666"
     borderopacity="1.0"
     inkscape:pageopacity="0.0"
     inkscape:pageshadow="2"
     inkscape:zoom="0.35"
     inkscape:cx="-187.92207"
     inkscape:cy="-93.368318"
     inkscape:document-units="mm"
     inkscape:current-layer="layer1"
     inkscape:document-rotation="0"
     showgrid="false"
     fit-margin-top="0"
     fit-margin-left="0"
     fit-margin-right="0"
     fit-margin-bottom="0"
     inkscape:window-width="1452"
     inkscape:window-height="1199"
     inkscape:window-x="103"
     inkscape:window-y="127"
     inkscape:window-maximized="0" />
  <metadata
     id="metadata2806">
    <rdf:RDF>
      <cc:Work
         rdf:about="">
        <dc:format>image/svg+xml</dc:format>
        <dc:type
           rdf:resource="http://purl.org/dc/dcmitype/StillImage" />
        <dc:title></dc:title>
      </cc:Work>
    </rdf:RDF>
  </metadata>
  <g
     inkscape:label="Layer 1"
     inkscape:groupmode="layer"
     id="layer1"
     transform="translate(-155.55438,-172.87037)">
    <path
       class="cls-1"
       d="m 159.28794,185.62586 a 9.3636042,9.3636042 0 0 1 -1.05833,0.92604 l -0.23284,0.14287 c -0.24606,0.15875 -0.48418,0.32544 -0.70908,0.48948 -1.21179,0.90752 -1.93675,1.83621 -1.68275,2.23044 a 0.1905,0.1905 0 0 0 0.0556,0.0661 c 0.21432,-0.0794 0.43657,-0.17727 0.67734,-0.28839 a 12.964583,12.964583 0 0 0 1.20121,-0.66411 10.914062,10.914062 0 0 0 1.08214,-0.79375 c -0.52917,0.54504 -0.83344,1.02923 -0.74348,1.32292 a 0.22489583,0.22489583 0 0 0 0.0344,0.082 0.26458333,0.26458333 0 0 0 0.0582,0.0608 0.5635625,0.5635625 0 0 0 0.42333,0.11642 2.428875,2.428875 0 0 0 0.66939,-0.10055 c 0.0503,0 0.10319,-0.0291 0.15875,-0.045 a 0.83079167,0.83079167 0 0 1 0.21961,0 0.41010417,0.41010417 0 0 1 0.26458,0.16405 0.0555625,0.0555625 0 0 1 0,0.0318 0.45508333,0.45508333 0 0 1 0,0.36512 1.539875,1.539875 0 0 1 -0.10054,0.21696 3.3258125,3.3258125 0 0 0 -0.45508,0.65087 0.68527083,0.68527083 0 0 0 -0.0979,0.58209 c 0,0 0,0.0212 0,0.0265 a 0.16404167,0.16404167 0 0 0 0.0635,0.0635 0.67997917,0.67997917 0 0 0 0.4789,0.1217 3.0929792,3.0929792 0 0 0 0.65616,-0.1217 18.4785,18.4785 0 0 1 2.77813,-1.50019 2.6458333,2.6458333 0 0 1 0.26458,-0.11113 v 0 c 0.26459,-0.10848 0.52917,-0.21166 0.76465,-0.30691 v 0 l 0.18256,-0.0688 c 0.0609,-0.0265 0.12965,-0.0476 0.1905,-0.0741 0.11377,-0.0397 0.21696,-0.0741 0.32544,-0.10584 0.10848,-0.0318 0.15081,-0.0529 0.22754,-0.0741 a 11.832167,11.832167 0 0 1 1.50019,-0.38364 h 0.14023 a 33.414229,33.414229 0 0 0 8.05127,-0.39952 c 1.6166,-0.30163 3.42106,-1.05834 4.98475,-1.85209 v 0 c 0,0 1.89971,0.26459 2.81516,1.11125 a 8.35025,8.35025 0 0 1 1.92088,2.77548 c 0.26458,0.70644 0.39687,1.3679 0.81756,1.18534 0.42069,-0.18257 0.82021,-1.32292 0.74613,-2.30982 -0.0741,-0.98689 -0.68527,-2.9501 -1.41023,-3.92641 a 2.7913542,2.7913542 0 0 0 -1.25942,-0.93134 3.3152292,3.3152292 0 0 0 0.32015,-0.24341 c 0.33866,-0.34925 1.30704,-1.47902 2.33891,-2.60615 1.03188,-1.12712 1.68011,-2.67229 2.19869,-3.28348 0.51858,-0.61119 2.38125,-2.03464 2.95275,-2.50031 a 4.778375,4.778375 0 0 1 1.05833,-0.69322 7.2310625,7.2310625 0 0 0 1.3044,-0.67468 c 0.26458,-0.21167 0.26458,-0.81492 0.18521,-1.1139 -0.0662,-0.23283 -0.28311,-0.26458 -0.55827,-0.30956 -0.27517,-0.045 -0.94986,0.21696 -1.397,0.37571 a 3.683,3.683 0 0 1 -1.61132,0.082 5.7493958,5.7493958 0 0 0 -1.37318,-0.21961 c -0.50007,0 -1.91559,0.59002 -2.78871,1.03717 -0.87313,0.44714 -1.8759,1.37848 -2.59292,1.85208 -0.71702,0.47361 -2.38125,1.1139 -3.42106,1.14036 a 3.4395833,3.4395833 0 0 1 -1.37583,-0.28575 c -0.18786,-0.0794 -0.381,-0.1614 -0.57415,-0.23813 a 0.37835417,0.37835417 0 0 0 -0.082,-0.0317 25.421167,25.421167 0 0 0 -3.40519,-1.06892 c -4.7625,-1.1721 -9.14664,-0.889 -11.14954,0.52917 a 0.35454167,0.35454167 0 0 0 -0.0741,0.0476 c 0,0 0,0 0,0 a 0.34925,0.34925 0 0 0 -0.10584,0.23812 0.35454167,0.35454167 0 0 0 0.33603,0.37571 0.32808333,0.32808333 0 0 0 0.0714,0 26.281062,26.281062 0 0 1 3.86292,-0.045 c 0.63765,0.0397 1.26206,0.10319 1.85208,0.18256 v 0 a 10.773833,10.773833 0 0 1 1.3044,0.20638 v 0 c 0.19315,0.0423 0.38894,0.0767 0.57944,0.11906 a 0.0635,0.0635 0 0 1 0.0344,0 h 0.0212 a 3.5745208,3.5745208 0 0 1 1.12977,0.46302 c 0.037,0.0344 0.0714,0.0556 0.10583,0.09 a 0.54504167,0.54504167 0 0 1 0.20902,0.39687 c 0,0.29369 -0.37306,0.55034 -0.96308,0.74084 l 0.0608,-0.0265 c -0.39158,0.11377 -0.79375,0.23019 -1.18269,0.36248 -0.38894,0.13229 -0.79375,0.26458 -1.16416,0.42069 -1.16153,0.41275 -2.53736,0.95779 -3.93965,1.5875 -0.0265,0.0132 -2.49502,1.21973 -2.86808,1.4605 a 7.5697292,7.5697292 0 0 0 -1.778,1.54252"
       id="path2767"
       style="fill:#99cc33;stroke-width:0.264583" />
  </g>
</svg>
