<?xml version="1.0" encoding="UTF-8" standalone="no"?>
<svg
   xmlns:dc="http://purl.org/dc/elements/1.1/"
   xmlns:cc="http://creativecommons.org/ns#"
   xmlns:rdf="http://www.w3.org/1999/02/22-rdf-syntax-ns#"
   xmlns:svg="http://www.w3.org/2000/svg"
   xmlns="http://www.w3.org/2000/svg"
   xmlns:sodipodi="http://sodipodi.sourceforge.net/DTD/sodipodi-0.dtd"
   xmlns:inkscape="http://www.inkscape.org/namespaces/inkscape"
   width="38.122765mm"
   height="18.617525mm"
   viewBox="0 0 38.122765 18.617525"
   version="1.1"
   id="svg2980"
   inkscape:version="1.0.1 (3bc2e813f5, 2020-09-07)"
   sodipodi:docname="tuxtest_icon.svg">
  <defs
     id="defs2974" />
  <sodipodi:namedview
     id="base"
     pagecolor="#ffffff"
     bordercolor="#666666"
     borderopacity="1.0"
     inkscape:pageopacity="0.0"
     inkscape:pageshadow="2"
     inkscape:zoom="0.35"
     inkscape:cx="-102.24279"
     inkscape:cy="-141.96012"
     inkscape:document-units="mm"
     inkscape:current-layer="layer1"
     inkscape:document-rotation="0"
     showgrid="false"
     fit-margin-top="0"
     fit-margin-left="0"
     fit-margin-right="0"
     fit-margin-bottom="0"
     inkscape:window-width="1452"
     inkscape:window-height="1199"
     inkscape:window-x="103"
     inkscape:window-y="127"
     inkscape:window-maximized="0" />
  <metadata
     id="metadata2977">
    <rdf:RDF>
      <cc:Work
         rdf:about="">
        <dc:format>image/svg+xml</dc:format>
        <dc:type
           rdf:resource="http://purl.org/dc/dcmitype/StillImage" />
        <dc:title></dc:title>
      </cc:Work>
    </rdf:RDF>
  </metadata>
  <g
     inkscape:label="Layer 1"
     inkscape:groupmode="layer"
     id="layer1"
     transform="translate(-132.88507,-185.72695)">
    <path
       class="cls-1"
       d="m 136.61863,198.48498 a 9.6017292,9.6017292 0 0 1 -1.05833,0.92604 l -0.23284,0.14288 c -0.2487,0.15875 -0.48683,0.32544 -0.70908,0.48948 -1.21179,0.90752 -1.93675,1.83621 -1.68275,2.23043 a 0.1905,0.1905 0 0 0 0.0556,0.0661 c 0.21167,-0.0794 0.43657,-0.17727 0.67734,-0.28839 a 12.964583,12.964583 0 0 0 1.2012,-0.66411 10.914062,10.914062 0 0 0 1.08215,-0.79375 c -0.52917,0.54505 -0.83344,1.02923 -0.74612,1.32292 a 0.2301875,0.2301875 0 0 0 0.037,0.082 0.238125,0.238125 0 0 0 0.0556,0.0609 0.56885417,0.56885417 0 0 0 0.42333,0.11642 2.4473958,2.4473958 0 0 0 0.67205,-0.10054 c 0.0503,0 0.10318,-0.0291 0.15875,-0.045 a 0.79375,0.79375 0 0 1 0.21695,0 0.41539583,0.41539583 0 0 1 0.26459,0.16404 0.0555625,0.0555625 0 0 1 0,0.0318 0.47889583,0.47889583 0 0 1 0,0.36512 c -0.0265,0.0688 -0.0609,0.13759 -0.10054,0.21696 a 3.2173333,3.2173333 0 0 0 -0.46038,0.65088 0.68527083,0.68527083 0 0 0 -0.0979,0.58208 0.04233333,0.04233333 0 0 0 0.0132,0.0265 0.14022917,0.14022917 0 0 0 0.0609,0.0635 0.6905625,0.6905625 0 0 0 0.48154,0.12171 3.0453542,3.0453542 0 0 0 0.65352,-0.12171 18.520833,18.520833 0 0 1 2.78077,-1.50019 2.4077083,2.4077083 0 0 1 0.26458,-0.11112 v 0 c 0.26459,-0.10848 0.5133,-0.21167 0.76465,-0.30692 v 0 c 0.0635,-0.0212 0.127,-0.0476 0.18256,-0.0688 l 0.19315,-0.0741 c 0.11377,-0.0397 0.21696,-0.0741 0.32544,-0.10583 0.10847,-0.0317 0.15081,-0.0529 0.22754,-0.0741 a 11.90625,11.90625 0 0 1 1.49754,-0.38365 h 0.14287 a 33.416875,33.416875 0 0 0 8.05127,-0.39952 c 1.61396,-0.30162 3.41842,-1.05833 4.98475,-1.85208 v 0 c 0,0 1.89971,0.26458 2.81517,1.11125 a 8.3105625,8.3105625 0 0 1 1.89177,2.76225 c 0.26458,0.70643 0.39688,1.36789 0.82021,1.18533 0.42333,-0.18256 0.82021,-1.32292 0.74348,-2.30981 -0.0767,-0.9869 -0.68263,-2.95011 -1.40759,-3.92642 a 2.8045833,2.8045833 0 0 0 -1.25941,-0.93133 2.8654375,2.8654375 0 0 0 0.3175,-0.24342 c 0.34131,-0.34925 1.30704,-1.47902 2.34156,-2.60614 1.03452,-1.12713 1.6801,-2.6723 2.19869,-3.28348 0.51858,-0.61119 2.38125,-2.03465 2.95275,-2.50032 a 4.778375,4.778375 0 0 1 1.05833,-0.6932 7.2310625,7.2310625 0 0 0 1.3044,-0.67469 c 0.26458,-0.21167 0.26458,-0.81492 0.18521,-1.1139 -0.0635,-0.2196 -0.26988,-0.254 -0.55563,-0.29898 -0.28575,-0.045 -0.9525,0.21696 -1.397,0.37571 a 3.683,3.683 0 0 1 -1.61131,0.082 5.7732083,5.7732083 0 0 0 -1.36525,-0.2196 c -0.50006,0 -1.91559,0.59002 -2.79136,1.03716 -0.87577,0.44715 -1.87325,1.37848 -2.59291,1.85209 -0.71967,0.4736 -2.38125,1.11389 -3.41842,1.14035 a 3.4395833,3.4395833 0 0 1 -1.37583,-0.28575 c -0.18786,-0.0794 -0.381,-0.16139 -0.57415,-0.23812 a 0.40216667,0.40216667 0 0 0 -0.0847,-0.0318 25.381479,25.381479 0 0 0 -3.40254,-1.06627 c -4.76779,-1.18005 -9.14664,-0.89695 -11.15218,0.52915 a 0.35454167,0.35454167 0 0 0 -0.0741,0.0476 c 0,0 0,0 0,0 a 0.35983333,0.35983333 0 0 0 0.22755,0.61119 0.3175,0.3175 0 0 0 0.0714,0 26.318104,26.318104 0 0 1 3.86557,-0.045 c 0.635,0.0397 1.25941,0.10319 1.85208,0.18256 v 0 a 10.773833,10.773833 0 0 1 1.3044,0.20638 v 0 c 0.19579,0.0423 0.39158,0.0767 0.58208,0.11906 a 0.0714375,0.0714375 0 0 1 0.0344,0 h 0.0185 a 3.5480625,3.5480625 0 0 1 1.12977,0.46567 c 0.0397,0.0344 0.0741,0.0556 0.10848,0.0899 a 0.52916667,0.52916667 0 0 1 0.20637,0.39688 c 0,0.29369 -0.37306,0.55033 -0.96308,0.74083 l 0.0635,-0.0265 c -0.39158,0.11377 -0.79375,0.23019 -1.18269,0.36248 -0.38894,0.13229 -0.79375,0.26459 -1.16681,0.42069 -1.16152,0.41275 -2.53735,0.95779 -3.93965,1.5875 -0.0238,0.0132 -2.49237,1.21973 -2.86543,1.4605 a 7.5168125,7.5168125 0 0 0 -1.76478,1.53723"
       id="path2942"
       style="fill:#007d88;stroke-width:0.264583" />
  </g>
</svg>
