<?xml version="1.0" encoding="utf-8" standalone="no"?>
<!DOCTYPE svg PUBLIC "-//W3C//DTD SVG 1.1//EN"
  "http://www.w3.org/Graphics/SVG/1.1/DTD/svg11.dtd">
<!-- Created with matplotlib (https://matplotlib.org/) -->
<svg height="248.518125pt" version="1.1" viewBox="0 0 946.965625 248.518125" width="946.965625pt" xmlns="http://www.w3.org/2000/svg" xmlns:xlink="http://www.w3.org/1999/xlink">
 <metadata>
  <rdf:RDF xmlns:cc="http://creativecommons.org/ns#" xmlns:dc="http://purl.org/dc/elements/1.1/" xmlns:rdf="http://www.w3.org/1999/02/22-rdf-syntax-ns#">
   <cc:Work>
    <dc:type rdf:resource="http://purl.org/dc/dcmitype/StillImage"/>
    <dc:date>2021-02-18T10:26:43.816443</dc:date>
    <dc:format>image/svg+xml</dc:format>
    <dc:creator>
     <cc:Agent>
      <dc:title>Matplotlib v3.3.2, https://matplotlib.org/</dc:title>
     </cc:Agent>
    </dc:creator>
   </cc:Work>
  </rdf:RDF>
 </metadata>
 <defs>
  <style type="text/css">*{stroke-linecap:butt;stroke-linejoin:round;}</style>
 </defs>
 <g id="figure_1">
  <g id="patch_1">
   <path d="M 0 248.518125 
L 946.965625 248.518125 
L 946.965625 0 
L 0 0 
z
" style="fill:none;"/>
  </g>
  <g id="axes_1">
   <g id="patch_2">
    <path d="M 46.965625 224.64 
L 939.765625 224.64 
L 939.765625 7.2 
L 46.965625 7.2 
z
" style="fill:#ffffff;"/>
   </g>
   <g id="matplotlib.axis_1">
    <g id="xtick_1">
     <g id="line2d_1">
      <defs>
       <path d="M 0 0 
L 0 3.5 
" id="mc20e71ff47" style="stroke:#000000;stroke-width:0.8;"/>
      </defs>
      <g>
       <use style="stroke:#000000;stroke-width:0.8;" x="87.547443" xlink:href="#mc20e71ff47" y="224.64"/>
      </g>
     </g>
     <g id="text_1">
      <!-- 1949-01 -->
      <g transform="translate(66.656037 239.238437)scale(0.1 -0.1)">
       <defs>
        <path d="M 12.40625 8.296875 
L 28.515625 8.296875 
L 28.515625 63.921875 
L 10.984375 60.40625 
L 10.984375 69.390625 
L 28.421875 72.90625 
L 38.28125 72.90625 
L 38.28125 8.296875 
L 54.390625 8.296875 
L 54.390625 0 
L 12.40625 0 
z
" id="DejaVuSans-49"/>
        <path d="M 10.984375 1.515625 
L 10.984375 10.5 
Q 14.703125 8.734375 18.5 7.8125 
Q 22.3125 6.890625 25.984375 6.890625 
Q 35.75 6.890625 40.890625 13.453125 
Q 46.046875 20.015625 46.78125 33.40625 
Q 43.953125 29.203125 39.59375 26.953125 
Q 35.25 24.703125 29.984375 24.703125 
Q 19.046875 24.703125 12.671875 31.3125 
Q 6.296875 37.9375 6.296875 49.421875 
Q 6.296875 60.640625 12.9375 67.421875 
Q 19.578125 74.21875 30.609375 74.21875 
Q 43.265625 74.21875 49.921875 64.515625 
Q 56.59375 54.828125 56.59375 36.375 
Q 56.59375 19.140625 48.40625 8.859375 
Q 40.234375 -1.421875 26.421875 -1.421875 
Q 22.703125 -1.421875 18.890625 -0.6875 
Q 15.09375 0.046875 10.984375 1.515625 
z
M 30.609375 32.421875 
Q 37.25 32.421875 41.125 36.953125 
Q 45.015625 41.5 45.015625 49.421875 
Q 45.015625 57.28125 41.125 61.84375 
Q 37.25 66.40625 30.609375 66.40625 
Q 23.96875 66.40625 20.09375 61.84375 
Q 16.21875 57.28125 16.21875 49.421875 
Q 16.21875 41.5 20.09375 36.953125 
Q 23.96875 32.421875 30.609375 32.421875 
z
" id="DejaVuSans-57"/>
        <path d="M 37.796875 64.3125 
L 12.890625 25.390625 
L 37.796875 25.390625 
z
M 35.203125 72.90625 
L 47.609375 72.90625 
L 47.609375 25.390625 
L 58.015625 25.390625 
L 58.015625 17.1875 
L 47.609375 17.1875 
L 47.609375 0 
L 37.796875 0 
L 37.796875 17.1875 
L 4.890625 17.1875 
L 4.890625 26.703125 
z
" id="DejaVuSans-52"/>
        <path d="M 4.890625 31.390625 
L 31.203125 31.390625 
L 31.203125 23.390625 
L 4.890625 23.390625 
z
" id="DejaVuSans-45"/>
        <path d="M 31.78125 66.40625 
Q 24.171875 66.40625 20.328125 58.90625 
Q 16.5 51.421875 16.5 36.375 
Q 16.5 21.390625 20.328125 13.890625 
Q 24.171875 6.390625 31.78125 6.390625 
Q 39.453125 6.390625 43.28125 13.890625 
Q 47.125 21.390625 47.125 36.375 
Q 47.125 51.421875 43.28125 58.90625 
Q 39.453125 66.40625 31.78125 66.40625 
z
M 31.78125 74.21875 
Q 44.046875 74.21875 50.515625 64.515625 
Q 56.984375 54.828125 56.984375 36.375 
Q 56.984375 17.96875 50.515625 8.265625 
Q 44.046875 -1.421875 31.78125 -1.421875 
Q 19.53125 -1.421875 13.0625 8.265625 
Q 6.59375 17.96875 6.59375 36.375 
Q 6.59375 54.828125 13.0625 64.515625 
Q 19.53125 74.21875 31.78125 74.21875 
z
" id="DejaVuSans-48"/>
       </defs>
       <use xlink:href="#DejaVuSans-49"/>
       <use x="63.623047" xlink:href="#DejaVuSans-57"/>
       <use x="127.246094" xlink:href="#DejaVuSans-52"/>
       <use x="190.869141" xlink:href="#DejaVuSans-57"/>
       <use x="254.492188" xlink:href="#DejaVuSans-45"/>
       <use x="290.576172" xlink:href="#DejaVuSans-48"/>
       <use x="354.199219" xlink:href="#DejaVuSans-49"/>
      </g>
     </g>
    </g>
    <g id="xtick_2">
     <g id="line2d_2">
      <g>
       <use style="stroke:#000000;stroke-width:0.8;" x="201.063019" xlink:href="#mc20e71ff47" y="224.64"/>
      </g>
     </g>
     <g id="text_2">
      <!-- 1950-09 -->
      <g transform="translate(180.171612 239.238437)scale(0.1 -0.1)">
       <defs>
        <path d="M 10.796875 72.90625 
L 49.515625 72.90625 
L 49.515625 64.59375 
L 19.828125 64.59375 
L 19.828125 46.734375 
Q 21.96875 47.46875 24.109375 47.828125 
Q 26.265625 48.1875 28.421875 48.1875 
Q 40.625 48.1875 47.75 41.5 
Q 54.890625 34.8125 54.890625 23.390625 
Q 54.890625 11.625 47.5625 5.09375 
Q 40.234375 -1.421875 26.90625 -1.421875 
Q 22.3125 -1.421875 17.546875 -0.640625 
Q 12.796875 0.140625 7.71875 1.703125 
L 7.71875 11.625 
Q 12.109375 9.234375 16.796875 8.0625 
Q 21.484375 6.890625 26.703125 6.890625 
Q 35.15625 6.890625 40.078125 11.328125 
Q 45.015625 15.765625 45.015625 23.390625 
Q 45.015625 31 40.078125 35.4375 
Q 35.15625 39.890625 26.703125 39.890625 
Q 22.75 39.890625 18.8125 39.015625 
Q 14.890625 38.140625 10.796875 36.28125 
z
" id="DejaVuSans-53"/>
       </defs>
       <use xlink:href="#DejaVuSans-49"/>
       <use x="63.623047" xlink:href="#DejaVuSans-57"/>
       <use x="127.246094" xlink:href="#DejaVuSans-53"/>
       <use x="190.869141" xlink:href="#DejaVuSans-48"/>
       <use x="254.492188" xlink:href="#DejaVuSans-45"/>
       <use x="290.576172" xlink:href="#DejaVuSans-48"/>
       <use x="354.199219" xlink:href="#DejaVuSans-57"/>
      </g>
     </g>
    </g>
    <g id="xtick_3">
     <g id="line2d_3">
      <g>
       <use style="stroke:#000000;stroke-width:0.8;" x="314.578594" xlink:href="#mc20e71ff47" y="224.64"/>
      </g>
     </g>
     <g id="text_3">
      <!-- 1952-05 -->
      <g transform="translate(293.687188 239.238437)scale(0.1 -0.1)">
       <defs>
        <path d="M 19.1875 8.296875 
L 53.609375 8.296875 
L 53.609375 0 
L 7.328125 0 
L 7.328125 8.296875 
Q 12.9375 14.109375 22.625 23.890625 
Q 32.328125 33.6875 34.8125 36.53125 
Q 39.546875 41.84375 41.421875 45.53125 
Q 43.3125 49.21875 43.3125 52.78125 
Q 43.3125 58.59375 39.234375 62.25 
Q 35.15625 65.921875 28.609375 65.921875 
Q 23.96875 65.921875 18.8125 64.3125 
Q 13.671875 62.703125 7.8125 59.421875 
L 7.8125 69.390625 
Q 13.765625 71.78125 18.9375 73 
Q 24.125 74.21875 28.421875 74.21875 
Q 39.75 74.21875 46.484375 68.546875 
Q 53.21875 62.890625 53.21875 53.421875 
Q 53.21875 48.921875 51.53125 44.890625 
Q 49.859375 40.875 45.40625 35.40625 
Q 44.1875 33.984375 37.640625 27.21875 
Q 31.109375 20.453125 19.1875 8.296875 
z
" id="DejaVuSans-50"/>
       </defs>
       <use xlink:href="#DejaVuSans-49"/>
       <use x="63.623047" xlink:href="#DejaVuSans-57"/>
       <use x="127.246094" xlink:href="#DejaVuSans-53"/>
       <use x="190.869141" xlink:href="#DejaVuSans-50"/>
       <use x="254.492188" xlink:href="#DejaVuSans-45"/>
       <use x="290.576172" xlink:href="#DejaVuSans-48"/>
       <use x="354.199219" xlink:href="#DejaVuSans-53"/>
      </g>
     </g>
    </g>
    <g id="xtick_4">
     <g id="line2d_4">
      <g>
       <use style="stroke:#000000;stroke-width:0.8;" x="428.094169" xlink:href="#mc20e71ff47" y="224.64"/>
      </g>
     </g>
     <g id="text_4">
      <!-- 1954-01 -->
      <g transform="translate(407.202763 239.238437)scale(0.1 -0.1)">
       <use xlink:href="#DejaVuSans-49"/>
       <use x="63.623047" xlink:href="#DejaVuSans-57"/>
       <use x="127.246094" xlink:href="#DejaVuSans-53"/>
       <use x="190.869141" xlink:href="#DejaVuSans-52"/>
       <use x="254.492188" xlink:href="#DejaVuSans-45"/>
       <use x="290.576172" xlink:href="#DejaVuSans-48"/>
       <use x="354.199219" xlink:href="#DejaVuSans-49"/>
      </g>
     </g>
    </g>
    <g id="xtick_5">
     <g id="line2d_5">
      <g>
       <use style="stroke:#000000;stroke-width:0.8;" x="541.609745" xlink:href="#mc20e71ff47" y="224.64"/>
      </g>
     </g>
     <g id="text_5">
      <!-- 1955-09 -->
      <g transform="translate(520.718338 239.238437)scale(0.1 -0.1)">
       <use xlink:href="#DejaVuSans-49"/>
       <use x="63.623047" xlink:href="#DejaVuSans-57"/>
       <use x="127.246094" xlink:href="#DejaVuSans-53"/>
       <use x="190.869141" xlink:href="#DejaVuSans-53"/>
       <use x="254.492188" xlink:href="#DejaVuSans-45"/>
       <use x="290.576172" xlink:href="#DejaVuSans-48"/>
       <use x="354.199219" xlink:href="#DejaVuSans-57"/>
      </g>
     </g>
    </g>
    <g id="xtick_6">
     <g id="line2d_6">
      <g>
       <use style="stroke:#000000;stroke-width:0.8;" x="655.12532" xlink:href="#mc20e71ff47" y="224.64"/>
      </g>
     </g>
     <g id="text_6">
      <!-- 1957-05 -->
      <g transform="translate(634.233914 239.238437)scale(0.1 -0.1)">
       <defs>
        <path d="M 8.203125 72.90625 
L 55.078125 72.90625 
L 55.078125 68.703125 
L 28.609375 0 
L 18.3125 0 
L 43.21875 64.59375 
L 8.203125 64.59375 
z
" id="DejaVuSans-55"/>
       </defs>
       <use xlink:href="#DejaVuSans-49"/>
       <use x="63.623047" xlink:href="#DejaVuSans-57"/>
       <use x="127.246094" xlink:href="#DejaVuSans-53"/>
       <use x="190.869141" xlink:href="#DejaVuSans-55"/>
       <use x="254.492188" xlink:href="#DejaVuSans-45"/>
       <use x="290.576172" xlink:href="#DejaVuSans-48"/>
       <use x="354.199219" xlink:href="#DejaVuSans-53"/>
      </g>
     </g>
    </g>
    <g id="xtick_7">
     <g id="line2d_7">
      <g>
       <use style="stroke:#000000;stroke-width:0.8;" x="768.640895" xlink:href="#mc20e71ff47" y="224.64"/>
      </g>
     </g>
     <g id="text_7">
      <!-- 1959-01 -->
      <g transform="translate(747.749489 239.238437)scale(0.1 -0.1)">
       <use xlink:href="#DejaVuSans-49"/>
       <use x="63.623047" xlink:href="#DejaVuSans-57"/>
       <use x="127.246094" xlink:href="#DejaVuSans-53"/>
       <use x="190.869141" xlink:href="#DejaVuSans-57"/>
       <use x="254.492188" xlink:href="#DejaVuSans-45"/>
       <use x="290.576172" xlink:href="#DejaVuSans-48"/>
       <use x="354.199219" xlink:href="#DejaVuSans-49"/>
      </g>
     </g>
    </g>
    <g id="xtick_8">
     <g id="line2d_8">
      <g>
       <use style="stroke:#000000;stroke-width:0.8;" x="882.156471" xlink:href="#mc20e71ff47" y="224.64"/>
      </g>
     </g>
     <g id="text_8">
      <!-- 1960-09 -->
      <g transform="translate(861.265064 239.238437)scale(0.1 -0.1)">
       <defs>
        <path d="M 33.015625 40.375 
Q 26.375 40.375 22.484375 35.828125 
Q 18.609375 31.296875 18.609375 23.390625 
Q 18.609375 15.53125 22.484375 10.953125 
Q 26.375 6.390625 33.015625 6.390625 
Q 39.65625 6.390625 43.53125 10.953125 
Q 47.40625 15.53125 47.40625 23.390625 
Q 47.40625 31.296875 43.53125 35.828125 
Q 39.65625 40.375 33.015625 40.375 
z
M 52.59375 71.296875 
L 52.59375 62.3125 
Q 48.875 64.0625 45.09375 64.984375 
Q 41.3125 65.921875 37.59375 65.921875 
Q 27.828125 65.921875 22.671875 59.328125 
Q 17.53125 52.734375 16.796875 39.40625 
Q 19.671875 43.65625 24.015625 45.921875 
Q 28.375 48.1875 33.59375 48.1875 
Q 44.578125 48.1875 50.953125 41.515625 
Q 57.328125 34.859375 57.328125 23.390625 
Q 57.328125 12.15625 50.6875 5.359375 
Q 44.046875 -1.421875 33.015625 -1.421875 
Q 20.359375 -1.421875 13.671875 8.265625 
Q 6.984375 17.96875 6.984375 36.375 
Q 6.984375 53.65625 15.1875 63.9375 
Q 23.390625 74.21875 37.203125 74.21875 
Q 40.921875 74.21875 44.703125 73.484375 
Q 48.484375 72.75 52.59375 71.296875 
z
" id="DejaVuSans-54"/>
       </defs>
       <use xlink:href="#DejaVuSans-49"/>
       <use x="63.623047" xlink:href="#DejaVuSans-57"/>
       <use x="127.246094" xlink:href="#DejaVuSans-54"/>
       <use x="190.869141" xlink:href="#DejaVuSans-48"/>
       <use x="254.492188" xlink:href="#DejaVuSans-45"/>
       <use x="290.576172" xlink:href="#DejaVuSans-48"/>
       <use x="354.199219" xlink:href="#DejaVuSans-57"/>
      </g>
     </g>
    </g>
   </g>
   <g id="matplotlib.axis_2">
    <g id="ytick_1">
     <g id="line2d_9">
      <defs>
       <path d="M 0 0 
L -3.5 0 
" id="m87d6794399" style="stroke:#000000;stroke-width:0.8;"/>
      </defs>
      <g>
       <use style="stroke:#000000;stroke-width:0.8;" x="46.965625" xlink:href="#m87d6794399" y="216.282794"/>
      </g>
     </g>
     <g id="text_9">
      <!-- 100 -->
      <g transform="translate(20.878125 220.082013)scale(0.1 -0.1)">
       <use xlink:href="#DejaVuSans-49"/>
       <use x="63.623047" xlink:href="#DejaVuSans-48"/>
       <use x="127.246094" xlink:href="#DejaVuSans-48"/>
      </g>
     </g>
    </g>
    <g id="ytick_2">
     <g id="line2d_10">
      <g>
       <use style="stroke:#000000;stroke-width:0.8;" x="46.965625" xlink:href="#m87d6794399" y="178.122036"/>
      </g>
     </g>
     <g id="text_10">
      <!-- 200 -->
      <g transform="translate(20.878125 181.921255)scale(0.1 -0.1)">
       <use xlink:href="#DejaVuSans-50"/>
       <use x="63.623047" xlink:href="#DejaVuSans-48"/>
       <use x="127.246094" xlink:href="#DejaVuSans-48"/>
      </g>
     </g>
    </g>
    <g id="ytick_3">
     <g id="line2d_11">
      <g>
       <use style="stroke:#000000;stroke-width:0.8;" x="46.965625" xlink:href="#m87d6794399" y="139.961278"/>
      </g>
     </g>
     <g id="text_11">
      <!-- 300 -->
      <g transform="translate(20.878125 143.760496)scale(0.1 -0.1)">
       <defs>
        <path d="M 40.578125 39.3125 
Q 47.65625 37.796875 51.625 33 
Q 55.609375 28.21875 55.609375 21.1875 
Q 55.609375 10.40625 48.1875 4.484375 
Q 40.765625 -1.421875 27.09375 -1.421875 
Q 22.515625 -1.421875 17.65625 -0.515625 
Q 12.796875 0.390625 7.625 2.203125 
L 7.625 11.71875 
Q 11.71875 9.328125 16.59375 8.109375 
Q 21.484375 6.890625 26.8125 6.890625 
Q 36.078125 6.890625 40.9375 10.546875 
Q 45.796875 14.203125 45.796875 21.1875 
Q 45.796875 27.640625 41.28125 31.265625 
Q 36.765625 34.90625 28.71875 34.90625 
L 20.21875 34.90625 
L 20.21875 43.015625 
L 29.109375 43.015625 
Q 36.375 43.015625 40.234375 45.921875 
Q 44.09375 48.828125 44.09375 54.296875 
Q 44.09375 59.90625 40.109375 62.90625 
Q 36.140625 65.921875 28.71875 65.921875 
Q 24.65625 65.921875 20.015625 65.03125 
Q 15.375 64.15625 9.8125 62.3125 
L 9.8125 71.09375 
Q 15.4375 72.65625 20.34375 73.4375 
Q 25.25 74.21875 29.59375 74.21875 
Q 40.828125 74.21875 47.359375 69.109375 
Q 53.90625 64.015625 53.90625 55.328125 
Q 53.90625 49.265625 50.4375 45.09375 
Q 46.96875 40.921875 40.578125 39.3125 
z
" id="DejaVuSans-51"/>
       </defs>
       <use xlink:href="#DejaVuSans-51"/>
       <use x="63.623047" xlink:href="#DejaVuSans-48"/>
       <use x="127.246094" xlink:href="#DejaVuSans-48"/>
      </g>
     </g>
    </g>
    <g id="ytick_4">
     <g id="line2d_12">
      <g>
       <use style="stroke:#000000;stroke-width:0.8;" x="46.965625" xlink:href="#m87d6794399" y="101.800519"/>
      </g>
     </g>
     <g id="text_12">
      <!-- 400 -->
      <g transform="translate(20.878125 105.599738)scale(0.1 -0.1)">
       <use xlink:href="#DejaVuSans-52"/>
       <use x="63.623047" xlink:href="#DejaVuSans-48"/>
       <use x="127.246094" xlink:href="#DejaVuSans-48"/>
      </g>
     </g>
    </g>
    <g id="ytick_5">
     <g id="line2d_13">
      <g>
       <use style="stroke:#000000;stroke-width:0.8;" x="46.965625" xlink:href="#m87d6794399" y="63.639761"/>
      </g>
     </g>
     <g id="text_13">
      <!-- 500 -->
      <g transform="translate(20.878125 67.43898)scale(0.1 -0.1)">
       <use xlink:href="#DejaVuSans-53"/>
       <use x="63.623047" xlink:href="#DejaVuSans-48"/>
       <use x="127.246094" xlink:href="#DejaVuSans-48"/>
      </g>
     </g>
    </g>
    <g id="ytick_6">
     <g id="line2d_14">
      <g>
       <use style="stroke:#000000;stroke-width:0.8;" x="46.965625" xlink:href="#m87d6794399" y="25.479003"/>
      </g>
     </g>
     <g id="text_14">
      <!-- 600 -->
      <g transform="translate(20.878125 29.278222)scale(0.1 -0.1)">
       <use xlink:href="#DejaVuSans-54"/>
       <use x="63.623047" xlink:href="#DejaVuSans-48"/>
       <use x="127.246094" xlink:href="#DejaVuSans-48"/>
      </g>
     </g>
    </g>
    <g id="text_15">
     <!-- Number of airline passengers -->
     <g transform="translate(14.798438 189.728594)rotate(-90)scale(0.1 -0.1)">
      <defs>
       <path d="M 9.8125 72.90625 
L 23.09375 72.90625 
L 55.421875 11.921875 
L 55.421875 72.90625 
L 64.984375 72.90625 
L 64.984375 0 
L 51.703125 0 
L 19.390625 60.984375 
L 19.390625 0 
L 9.8125 0 
z
" id="DejaVuSans-78"/>
       <path d="M 8.5 21.578125 
L 8.5 54.6875 
L 17.484375 54.6875 
L 17.484375 21.921875 
Q 17.484375 14.15625 20.5 10.265625 
Q 23.53125 6.390625 29.59375 6.390625 
Q 36.859375 6.390625 41.078125 11.03125 
Q 45.3125 15.671875 45.3125 23.6875 
L 45.3125 54.6875 
L 54.296875 54.6875 
L 54.296875 0 
L 45.3125 0 
L 45.3125 8.40625 
Q 42.046875 3.421875 37.71875 1 
Q 33.40625 -1.421875 27.6875 -1.421875 
Q 18.265625 -1.421875 13.375 4.4375 
Q 8.5 10.296875 8.5 21.578125 
z
M 31.109375 56 
z
" id="DejaVuSans-117"/>
       <path d="M 52 44.1875 
Q 55.375 50.25 60.0625 53.125 
Q 64.75 56 71.09375 56 
Q 79.640625 56 84.28125 50.015625 
Q 88.921875 44.046875 88.921875 33.015625 
L 88.921875 0 
L 79.890625 0 
L 79.890625 32.71875 
Q 79.890625 40.578125 77.09375 44.375 
Q 74.3125 48.1875 68.609375 48.1875 
Q 61.625 48.1875 57.5625 43.546875 
Q 53.515625 38.921875 53.515625 30.90625 
L 53.515625 0 
L 44.484375 0 
L 44.484375 32.71875 
Q 44.484375 40.625 41.703125 44.40625 
Q 38.921875 48.1875 33.109375 48.1875 
Q 26.21875 48.1875 22.15625 43.53125 
Q 18.109375 38.875 18.109375 30.90625 
L 18.109375 0 
L 9.078125 0 
L 9.078125 54.6875 
L 18.109375 54.6875 
L 18.109375 46.1875 
Q 21.1875 51.21875 25.484375 53.609375 
Q 29.78125 56 35.6875 56 
Q 41.65625 56 45.828125 52.96875 
Q 50 49.953125 52 44.1875 
z
" id="DejaVuSans-109"/>
       <path d="M 48.6875 27.296875 
Q 48.6875 37.203125 44.609375 42.84375 
Q 40.53125 48.484375 33.40625 48.484375 
Q 26.265625 48.484375 22.1875 42.84375 
Q 18.109375 37.203125 18.109375 27.296875 
Q 18.109375 17.390625 22.1875 11.75 
Q 26.265625 6.109375 33.40625 6.109375 
Q 40.53125 6.109375 44.609375 11.75 
Q 48.6875 17.390625 48.6875 27.296875 
z
M 18.109375 46.390625 
Q 20.953125 51.265625 25.265625 53.625 
Q 29.59375 56 35.59375 56 
Q 45.5625 56 51.78125 48.09375 
Q 58.015625 40.1875 58.015625 27.296875 
Q 58.015625 14.40625 51.78125 6.484375 
Q 45.5625 -1.421875 35.59375 -1.421875 
Q 29.59375 -1.421875 25.265625 0.953125 
Q 20.953125 3.328125 18.109375 8.203125 
L 18.109375 0 
L 9.078125 0 
L 9.078125 75.984375 
L 18.109375 75.984375 
z
" id="DejaVuSans-98"/>
       <path d="M 56.203125 29.59375 
L 56.203125 25.203125 
L 14.890625 25.203125 
Q 15.484375 15.921875 20.484375 11.0625 
Q 25.484375 6.203125 34.421875 6.203125 
Q 39.59375 6.203125 44.453125 7.46875 
Q 49.3125 8.734375 54.109375 11.28125 
L 54.109375 2.78125 
Q 49.265625 0.734375 44.1875 -0.34375 
Q 39.109375 -1.421875 33.890625 -1.421875 
Q 20.796875 -1.421875 13.15625 6.1875 
Q 5.515625 13.8125 5.515625 26.8125 
Q 5.515625 40.234375 12.765625 48.109375 
Q 20.015625 56 32.328125 56 
Q 43.359375 56 49.78125 48.890625 
Q 56.203125 41.796875 56.203125 29.59375 
z
M 47.21875 32.234375 
Q 47.125 39.59375 43.09375 43.984375 
Q 39.0625 48.390625 32.421875 48.390625 
Q 24.90625 48.390625 20.390625 44.140625 
Q 15.875 39.890625 15.1875 32.171875 
z
" id="DejaVuSans-101"/>
       <path d="M 41.109375 46.296875 
Q 39.59375 47.171875 37.8125 47.578125 
Q 36.03125 48 33.890625 48 
Q 26.265625 48 22.1875 43.046875 
Q 18.109375 38.09375 18.109375 28.8125 
L 18.109375 0 
L 9.078125 0 
L 9.078125 54.6875 
L 18.109375 54.6875 
L 18.109375 46.1875 
Q 20.953125 51.171875 25.484375 53.578125 
Q 30.03125 56 36.53125 56 
Q 37.453125 56 38.578125 55.875 
Q 39.703125 55.765625 41.0625 55.515625 
z
" id="DejaVuSans-114"/>
       <path id="DejaVuSans-32"/>
       <path d="M 30.609375 48.390625 
Q 23.390625 48.390625 19.1875 42.75 
Q 14.984375 37.109375 14.984375 27.296875 
Q 14.984375 17.484375 19.15625 11.84375 
Q 23.34375 6.203125 30.609375 6.203125 
Q 37.796875 6.203125 41.984375 11.859375 
Q 46.1875 17.53125 46.1875 27.296875 
Q 46.1875 37.015625 41.984375 42.703125 
Q 37.796875 48.390625 30.609375 48.390625 
z
M 30.609375 56 
Q 42.328125 56 49.015625 48.375 
Q 55.71875 40.765625 55.71875 27.296875 
Q 55.71875 13.875 49.015625 6.21875 
Q 42.328125 -1.421875 30.609375 -1.421875 
Q 18.84375 -1.421875 12.171875 6.21875 
Q 5.515625 13.875 5.515625 27.296875 
Q 5.515625 40.765625 12.171875 48.375 
Q 18.84375 56 30.609375 56 
z
" id="DejaVuSans-111"/>
       <path d="M 37.109375 75.984375 
L 37.109375 68.5 
L 28.515625 68.5 
Q 23.6875 68.5 21.796875 66.546875 
Q 19.921875 64.59375 19.921875 59.515625 
L 19.921875 54.6875 
L 34.71875 54.6875 
L 34.71875 47.703125 
L 19.921875 47.703125 
L 19.921875 0 
L 10.890625 0 
L 10.890625 47.703125 
L 2.296875 47.703125 
L 2.296875 54.6875 
L 10.890625 54.6875 
L 10.890625 58.5 
Q 10.890625 67.625 15.140625 71.796875 
Q 19.390625 75.984375 28.609375 75.984375 
z
" id="DejaVuSans-102"/>
       <path d="M 34.28125 27.484375 
Q 23.390625 27.484375 19.1875 25 
Q 14.984375 22.515625 14.984375 16.5 
Q 14.984375 11.71875 18.140625 8.90625 
Q 21.296875 6.109375 26.703125 6.109375 
Q 34.1875 6.109375 38.703125 11.40625 
Q 43.21875 16.703125 43.21875 25.484375 
L 43.21875 27.484375 
z
M 52.203125 31.203125 
L 52.203125 0 
L 43.21875 0 
L 43.21875 8.296875 
Q 40.140625 3.328125 35.546875 0.953125 
Q 30.953125 -1.421875 24.3125 -1.421875 
Q 15.921875 -1.421875 10.953125 3.296875 
Q 6 8.015625 6 15.921875 
Q 6 25.140625 12.171875 29.828125 
Q 18.359375 34.515625 30.609375 34.515625 
L 43.21875 34.515625 
L 43.21875 35.40625 
Q 43.21875 41.609375 39.140625 45 
Q 35.0625 48.390625 27.6875 48.390625 
Q 23 48.390625 18.546875 47.265625 
Q 14.109375 46.140625 10.015625 43.890625 
L 10.015625 52.203125 
Q 14.9375 54.109375 19.578125 55.046875 
Q 24.21875 56 28.609375 56 
Q 40.484375 56 46.34375 49.84375 
Q 52.203125 43.703125 52.203125 31.203125 
z
" id="DejaVuSans-97"/>
       <path d="M 9.421875 54.6875 
L 18.40625 54.6875 
L 18.40625 0 
L 9.421875 0 
z
M 9.421875 75.984375 
L 18.40625 75.984375 
L 18.40625 64.59375 
L 9.421875 64.59375 
z
" id="DejaVuSans-105"/>
       <path d="M 9.421875 75.984375 
L 18.40625 75.984375 
L 18.40625 0 
L 9.421875 0 
z
" id="DejaVuSans-108"/>
       <path d="M 54.890625 33.015625 
L 54.890625 0 
L 45.90625 0 
L 45.90625 32.71875 
Q 45.90625 40.484375 42.875 44.328125 
Q 39.84375 48.1875 33.796875 48.1875 
Q 26.515625 48.1875 22.3125 43.546875 
Q 18.109375 38.921875 18.109375 30.90625 
L 18.109375 0 
L 9.078125 0 
L 9.078125 54.6875 
L 18.109375 54.6875 
L 18.109375 46.1875 
Q 21.34375 51.125 25.703125 53.5625 
Q 30.078125 56 35.796875 56 
Q 45.21875 56 50.046875 50.171875 
Q 54.890625 44.34375 54.890625 33.015625 
z
" id="DejaVuSans-110"/>
       <path d="M 18.109375 8.203125 
L 18.109375 -20.796875 
L 9.078125 -20.796875 
L 9.078125 54.6875 
L 18.109375 54.6875 
L 18.109375 46.390625 
Q 20.953125 51.265625 25.265625 53.625 
Q 29.59375 56 35.59375 56 
Q 45.5625 56 51.78125 48.09375 
Q 58.015625 40.1875 58.015625 27.296875 
Q 58.015625 14.40625 51.78125 6.484375 
Q 45.5625 -1.421875 35.59375 -1.421875 
Q 29.59375 -1.421875 25.265625 0.953125 
Q 20.953125 3.328125 18.109375 8.203125 
z
M 48.6875 27.296875 
Q 48.6875 37.203125 44.609375 42.84375 
Q 40.53125 48.484375 33.40625 48.484375 
Q 26.265625 48.484375 22.1875 42.84375 
Q 18.109375 37.203125 18.109375 27.296875 
Q 18.109375 17.390625 22.1875 11.75 
Q 26.265625 6.109375 33.40625 6.109375 
Q 40.53125 6.109375 44.609375 11.75 
Q 48.6875 17.390625 48.6875 27.296875 
z
" id="DejaVuSans-112"/>
       <path d="M 44.28125 53.078125 
L 44.28125 44.578125 
Q 40.484375 46.53125 36.375 47.5 
Q 32.28125 48.484375 27.875 48.484375 
Q 21.1875 48.484375 17.84375 46.4375 
Q 14.5 44.390625 14.5 40.28125 
Q 14.5 37.15625 16.890625 35.375 
Q 19.28125 33.59375 26.515625 31.984375 
L 29.59375 31.296875 
Q 39.15625 29.25 43.1875 25.515625 
Q 47.21875 21.78125 47.21875 15.09375 
Q 47.21875 7.46875 41.1875 3.015625 
Q 35.15625 -1.421875 24.609375 -1.421875 
Q 20.21875 -1.421875 15.453125 -0.5625 
Q 10.6875 0.296875 5.421875 2 
L 5.421875 11.28125 
Q 10.40625 8.6875 15.234375 7.390625 
Q 20.0625 6.109375 24.8125 6.109375 
Q 31.15625 6.109375 34.5625 8.28125 
Q 37.984375 10.453125 37.984375 14.40625 
Q 37.984375 18.0625 35.515625 20.015625 
Q 33.0625 21.96875 24.703125 23.78125 
L 21.578125 24.515625 
Q 13.234375 26.265625 9.515625 29.90625 
Q 5.8125 33.546875 5.8125 39.890625 
Q 5.8125 47.609375 11.28125 51.796875 
Q 16.75 56 26.8125 56 
Q 31.78125 56 36.171875 55.265625 
Q 40.578125 54.546875 44.28125 53.078125 
z
" id="DejaVuSans-115"/>
       <path d="M 45.40625 27.984375 
Q 45.40625 37.75 41.375 43.109375 
Q 37.359375 48.484375 30.078125 48.484375 
Q 22.859375 48.484375 18.828125 43.109375 
Q 14.796875 37.75 14.796875 27.984375 
Q 14.796875 18.265625 18.828125 12.890625 
Q 22.859375 7.515625 30.078125 7.515625 
Q 37.359375 7.515625 41.375 12.890625 
Q 45.40625 18.265625 45.40625 27.984375 
z
M 54.390625 6.78125 
Q 54.390625 -7.171875 48.1875 -13.984375 
Q 42 -20.796875 29.203125 -20.796875 
Q 24.46875 -20.796875 20.265625 -20.09375 
Q 16.0625 -19.390625 12.109375 -17.921875 
L 12.109375 -9.1875 
Q 16.0625 -11.328125 19.921875 -12.34375 
Q 23.78125 -13.375 27.78125 -13.375 
Q 36.625 -13.375 41.015625 -8.765625 
Q 45.40625 -4.15625 45.40625 5.171875 
L 45.40625 9.625 
Q 42.625 4.78125 38.28125 2.390625 
Q 33.9375 0 27.875 0 
Q 17.828125 0 11.671875 7.65625 
Q 5.515625 15.328125 5.515625 27.984375 
Q 5.515625 40.671875 11.671875 48.328125 
Q 17.828125 56 27.875 56 
Q 33.9375 56 38.28125 53.609375 
Q 42.625 51.21875 45.40625 46.390625 
L 45.40625 54.6875 
L 54.390625 54.6875 
z
" id="DejaVuSans-103"/>
      </defs>
      <use xlink:href="#DejaVuSans-78"/>
      <use x="74.804688" xlink:href="#DejaVuSans-117"/>
      <use x="138.183594" xlink:href="#DejaVuSans-109"/>
      <use x="235.595703" xlink:href="#DejaVuSans-98"/>
      <use x="299.072266" xlink:href="#DejaVuSans-101"/>
      <use x="360.595703" xlink:href="#DejaVuSans-114"/>
      <use x="401.708984" xlink:href="#DejaVuSans-32"/>
      <use x="433.496094" xlink:href="#DejaVuSans-111"/>
      <use x="494.677734" xlink:href="#DejaVuSans-102"/>
      <use x="529.882812" xlink:href="#DejaVuSans-32"/>
      <use x="561.669922" xlink:href="#DejaVuSans-97"/>
      <use x="622.949219" xlink:href="#DejaVuSans-105"/>
      <use x="650.732422" xlink:href="#DejaVuSans-114"/>
      <use x="691.845703" xlink:href="#DejaVuSans-108"/>
      <use x="719.628906" xlink:href="#DejaVuSans-105"/>
      <use x="747.412109" xlink:href="#DejaVuSans-110"/>
      <use x="810.791016" xlink:href="#DejaVuSans-101"/>
      <use x="872.314453" xlink:href="#DejaVuSans-32"/>
      <use x="904.101562" xlink:href="#DejaVuSans-112"/>
      <use x="967.578125" xlink:href="#DejaVuSans-97"/>
      <use x="1028.857422" xlink:href="#DejaVuSans-115"/>
      <use x="1080.957031" xlink:href="#DejaVuSans-115"/>
      <use x="1133.056641" xlink:href="#DejaVuSans-101"/>
      <use x="1194.580078" xlink:href="#DejaVuSans-110"/>
      <use x="1257.958984" xlink:href="#DejaVuSans-103"/>
      <use x="1321.435547" xlink:href="#DejaVuSans-101"/>
      <use x="1382.958984" xlink:href="#DejaVuSans-114"/>
      <use x="1424.072266" xlink:href="#DejaVuSans-115"/>
     </g>
    </g>
   </g>
   <g id="line2d_15">
    <path clip-path="url(#p7df0c082fb)" d="M 87.547443 211.703503 
L 93.223222 209.413857 
L 98.899001 204.071351 
L 104.574779 205.216174 
L 110.250558 208.269035 
L 115.926337 202.926529 
L 121.602116 197.96563 
L 127.277895 197.96563 
L 132.953673 202.544921 
L 138.629452 209.03225 
L 144.305231 214.756364 
L 149.98101 209.413857 
L 155.656788 210.55868 
L 161.332567 206.360997 
L 167.008346 200.636883 
L 172.684125 202.926529 
L 178.359903 206.742604 
L 184.035682 197.584022 
L 189.711461 189.570263 
L 195.38724 189.570263 
L 201.063019 194.149554 
L 206.738797 203.689744 
L 212.414576 210.940288 
L 218.090355 201.018491 
L 229.441912 197.202415 
L 235.117691 186.517403 
L 240.79347 192.241516 
L 246.469249 188.807048 
L 252.145027 186.517403 
L 257.820806 178.503643 
L 263.496585 178.503643 
L 269.172364 184.227757 
L 274.848142 192.623124 
L 280.523921 198.728845 
L 286.1997 191.096694 
L 291.875479 189.188656 
L 297.551258 185.754187 
L 303.227036 180.793289 
L 308.902815 185.37258 
L 314.578594 184.609365 
L 320.254373 171.253099 
L 331.60593 162.094517 
L 337.281709 174.687568 
L 342.957488 181.556504 
L 348.633266 188.807048 
L 354.309045 180.411681 
L 359.984824 179.648466 
L 365.660603 179.648466 
L 371.336382 164.384163 
L 377.01216 164.76577 
L 382.687939 167.055416 
L 388.363718 161.71291 
L 394.039497 153.699151 
L 399.715275 150.64629 
L 405.391054 164.002555 
L 411.066833 173.924352 
L 416.742612 185.754187 
L 422.41839 177.740428 
L 428.094169 176.595605 
L 433.769948 182.701327 
L 439.445727 164.76577 
L 445.121505 167.818631 
L 450.797284 165.147378 
L 456.473063 153.699151 
L 462.148842 139.198062 
L 467.824621 142.632531 
L 473.500399 155.607188 
L 479.176178 167.055416 
L 484.851957 176.977213 
L 490.527736 167.055416 
L 496.203514 162.094517 
L 501.879293 165.528986 
L 507.555072 152.554328 
L 513.230851 151.791113 
L 518.906629 151.409505 
L 524.582408 134.237164 
L 530.258187 115.538392 
L 535.933966 122.025721 
L 541.609745 135.381987 
L 547.285523 149.883075 
L 552.961302 164.002555 
L 558.637081 148.356644 
L 564.31286 146.066999 
L 569.988638 148.738252 
L 575.664417 133.473949 
L 581.340196 135.000379 
L 587.015975 133.092341 
L 592.691753 111.722317 
L 598.367532 96.839621 
L 604.043311 99.892482 
L 615.394868 137.671632 
L 621.070647 151.027898 
L 626.746426 137.671632 
L 632.422205 134.237164 
L 638.097984 139.57967 
L 643.773762 118.591253 
L 649.449541 121.644114 
L 655.12532 118.972861 
L 660.801099 93.405153 
L 666.476877 76.996027 
L 672.152656 76.232812 
L 677.828435 100.274089 
L 683.504214 122.025721 
L 689.179992 138.05324 
L 694.855771 126.223405 
L 700.53155 124.696974 
L 706.207329 133.092341 
L 711.883108 116.301608 
L 717.558886 121.644114 
L 723.234665 115.92 
L 728.910444 88.444254 
L 734.586223 67.07423 
L 740.262001 61.731723 
L 745.93778 100.274089 
L 751.613559 117.44643 
L 757.289338 136.145202 
L 762.965116 125.841797 
L 768.640895 117.064823 
L 774.316674 123.933759 
L 779.992453 99.510874 
L 785.668231 103.32695 
L 791.34401 94.168368 
L 797.019789 74.324774 
L 802.695568 45.322597 
L 808.371347 41.124914 
L 814.047125 77.759242 
L 819.722904 99.129266 
L 825.398683 116.301608 
L 831.074462 99.892482 
L 836.75024 95.313191 
L 842.426019 105.234988 
L 848.101798 94.549975 
L 853.777577 78.522457 
L 859.453355 74.324774 
L 865.129134 50.283496 
L 870.804913 17.083636 
L 876.480692 23.189358 
L 882.156471 60.586901 
L 887.832249 78.522457 
L 893.508028 105.616595 
L 899.183807 89.589077 
L 899.183807 89.589077 
" style="fill:none;stroke:#0173b2;stroke-linecap:square;stroke-width:1.5;"/>
    <defs>
     <path d="M 0 3 
C 0.795609 3 1.55874 2.683901 2.12132 2.12132 
C 2.683901 1.55874 3 0.795609 3 0 
C 3 -0.795609 2.683901 -1.55874 2.12132 -2.12132 
C 1.55874 -2.683901 0.795609 -3 0 -3 
C -0.795609 -3 -1.55874 -2.683901 -2.12132 -2.12132 
C -2.683901 -1.55874 -3 -0.795609 -3 0 
C -3 0.795609 -2.683901 1.55874 -2.12132 2.12132 
C -1.55874 2.683901 -0.795609 3 0 3 
z
" id="mfbe15c42c1" style="stroke:#ffffff;stroke-width:0.75;"/>
    </defs>
    <g clip-path="url(#p7df0c082fb)">
     <use style="fill:#0173b2;stroke:#ffffff;stroke-width:0.75;" x="87.547443" xlink:href="#mfbe15c42c1" y="211.703503"/>
     <use style="fill:#0173b2;stroke:#ffffff;stroke-width:0.75;" x="93.223222" xlink:href="#mfbe15c42c1" y="209.413857"/>
     <use style="fill:#0173b2;stroke:#ffffff;stroke-width:0.75;" x="98.899001" xlink:href="#mfbe15c42c1" y="204.071351"/>
     <use style="fill:#0173b2;stroke:#ffffff;stroke-width:0.75;" x="104.574779" xlink:href="#mfbe15c42c1" y="205.216174"/>
     <use style="fill:#0173b2;stroke:#ffffff;stroke-width:0.75;" x="110.250558" xlink:href="#mfbe15c42c1" y="208.269035"/>
     <use style="fill:#0173b2;stroke:#ffffff;stroke-width:0.75;" x="115.926337" xlink:href="#mfbe15c42c1" y="202.926529"/>
     <use style="fill:#0173b2;stroke:#ffffff;stroke-width:0.75;" x="121.602116" xlink:href="#mfbe15c42c1" y="197.96563"/>
     <use style="fill:#0173b2;stroke:#ffffff;stroke-width:0.75;" x="127.277895" xlink:href="#mfbe15c42c1" y="197.96563"/>
     <use style="fill:#0173b2;stroke:#ffffff;stroke-width:0.75;" x="132.953673" xlink:href="#mfbe15c42c1" y="202.544921"/>
     <use style="fill:#0173b2;stroke:#ffffff;stroke-width:0.75;" x="138.629452" xlink:href="#mfbe15c42c1" y="209.03225"/>
     <use style="fill:#0173b2;stroke:#ffffff;stroke-width:0.75;" x="144.305231" xlink:href="#mfbe15c42c1" y="214.756364"/>
     <use style="fill:#0173b2;stroke:#ffffff;stroke-width:0.75;" x="149.98101" xlink:href="#mfbe15c42c1" y="209.413857"/>
     <use style="fill:#0173b2;stroke:#ffffff;stroke-width:0.75;" x="155.656788" xlink:href="#mfbe15c42c1" y="210.55868"/>
     <use style="fill:#0173b2;stroke:#ffffff;stroke-width:0.75;" x="161.332567" xlink:href="#mfbe15c42c1" y="206.360997"/>
     <use style="fill:#0173b2;stroke:#ffffff;stroke-width:0.75;" x="167.008346" xlink:href="#mfbe15c42c1" y="200.636883"/>
     <use style="fill:#0173b2;stroke:#ffffff;stroke-width:0.75;" x="172.684125" xlink:href="#mfbe15c42c1" y="202.926529"/>
     <use style="fill:#0173b2;stroke:#ffffff;stroke-width:0.75;" x="178.359903" xlink:href="#mfbe15c42c1" y="206.742604"/>
     <use style="fill:#0173b2;stroke:#ffffff;stroke-width:0.75;" x="184.035682" xlink:href="#mfbe15c42c1" y="197.584022"/>
     <use style="fill:#0173b2;stroke:#ffffff;stroke-width:0.75;" x="189.711461" xlink:href="#mfbe15c42c1" y="189.570263"/>
     <use style="fill:#0173b2;stroke:#ffffff;stroke-width:0.75;" x="195.38724" xlink:href="#mfbe15c42c1" y="189.570263"/>
     <use style="fill:#0173b2;stroke:#ffffff;stroke-width:0.75;" x="201.063019" xlink:href="#mfbe15c42c1" y="194.149554"/>
     <use style="fill:#0173b2;stroke:#ffffff;stroke-width:0.75;" x="206.738797" xlink:href="#mfbe15c42c1" y="203.689744"/>
     <use style="fill:#0173b2;stroke:#ffffff;stroke-width:0.75;" x="212.414576" xlink:href="#mfbe15c42c1" y="210.940288"/>
     <use style="fill:#0173b2;stroke:#ffffff;stroke-width:0.75;" x="218.090355" xlink:href="#mfbe15c42c1" y="201.018491"/>
     <use style="fill:#0173b2;stroke:#ffffff;stroke-width:0.75;" x="223.766134" xlink:href="#mfbe15c42c1" y="199.110453"/>
     <use style="fill:#0173b2;stroke:#ffffff;stroke-width:0.75;" x="229.441912" xlink:href="#mfbe15c42c1" y="197.202415"/>
     <use style="fill:#0173b2;stroke:#ffffff;stroke-width:0.75;" x="235.117691" xlink:href="#mfbe15c42c1" y="186.517403"/>
     <use style="fill:#0173b2;stroke:#ffffff;stroke-width:0.75;" x="240.79347" xlink:href="#mfbe15c42c1" y="192.241516"/>
     <use style="fill:#0173b2;stroke:#ffffff;stroke-width:0.75;" x="246.469249" xlink:href="#mfbe15c42c1" y="188.807048"/>
     <use style="fill:#0173b2;stroke:#ffffff;stroke-width:0.75;" x="252.145027" xlink:href="#mfbe15c42c1" y="186.517403"/>
     <use style="fill:#0173b2;stroke:#ffffff;stroke-width:0.75;" x="257.820806" xlink:href="#mfbe15c42c1" y="178.503643"/>
     <use style="fill:#0173b2;stroke:#ffffff;stroke-width:0.75;" x="263.496585" xlink:href="#mfbe15c42c1" y="178.503643"/>
     <use style="fill:#0173b2;stroke:#ffffff;stroke-width:0.75;" x="269.172364" xlink:href="#mfbe15c42c1" y="184.227757"/>
     <use style="fill:#0173b2;stroke:#ffffff;stroke-width:0.75;" x="274.848142" xlink:href="#mfbe15c42c1" y="192.623124"/>
     <use style="fill:#0173b2;stroke:#ffffff;stroke-width:0.75;" x="280.523921" xlink:href="#mfbe15c42c1" y="198.728845"/>
     <use style="fill:#0173b2;stroke:#ffffff;stroke-width:0.75;" x="286.1997" xlink:href="#mfbe15c42c1" y="191.096694"/>
     <use style="fill:#0173b2;stroke:#ffffff;stroke-width:0.75;" x="291.875479" xlink:href="#mfbe15c42c1" y="189.188656"/>
     <use style="fill:#0173b2;stroke:#ffffff;stroke-width:0.75;" x="297.551258" xlink:href="#mfbe15c42c1" y="185.754187"/>
     <use style="fill:#0173b2;stroke:#ffffff;stroke-width:0.75;" x="303.227036" xlink:href="#mfbe15c42c1" y="180.793289"/>
     <use style="fill:#0173b2;stroke:#ffffff;stroke-width:0.75;" x="308.902815" xlink:href="#mfbe15c42c1" y="185.37258"/>
     <use style="fill:#0173b2;stroke:#ffffff;stroke-width:0.75;" x="314.578594" xlink:href="#mfbe15c42c1" y="184.609365"/>
     <use style="fill:#0173b2;stroke:#ffffff;stroke-width:0.75;" x="320.254373" xlink:href="#mfbe15c42c1" y="171.253099"/>
     <use style="fill:#0173b2;stroke:#ffffff;stroke-width:0.75;" x="325.930151" xlink:href="#mfbe15c42c1" y="166.673808"/>
     <use style="fill:#0173b2;stroke:#ffffff;stroke-width:0.75;" x="331.60593" xlink:href="#mfbe15c42c1" y="162.094517"/>
     <use style="fill:#0173b2;stroke:#ffffff;stroke-width:0.75;" x="337.281709" xlink:href="#mfbe15c42c1" y="174.687568"/>
     <use style="fill:#0173b2;stroke:#ffffff;stroke-width:0.75;" x="342.957488" xlink:href="#mfbe15c42c1" y="181.556504"/>
     <use style="fill:#0173b2;stroke:#ffffff;stroke-width:0.75;" x="348.633266" xlink:href="#mfbe15c42c1" y="188.807048"/>
     <use style="fill:#0173b2;stroke:#ffffff;stroke-width:0.75;" x="354.309045" xlink:href="#mfbe15c42c1" y="180.411681"/>
     <use style="fill:#0173b2;stroke:#ffffff;stroke-width:0.75;" x="359.984824" xlink:href="#mfbe15c42c1" y="179.648466"/>
     <use style="fill:#0173b2;stroke:#ffffff;stroke-width:0.75;" x="365.660603" xlink:href="#mfbe15c42c1" y="179.648466"/>
     <use style="fill:#0173b2;stroke:#ffffff;stroke-width:0.75;" x="371.336382" xlink:href="#mfbe15c42c1" y="164.384163"/>
     <use style="fill:#0173b2;stroke:#ffffff;stroke-width:0.75;" x="377.01216" xlink:href="#mfbe15c42c1" y="164.76577"/>
     <use style="fill:#0173b2;stroke:#ffffff;stroke-width:0.75;" x="382.687939" xlink:href="#mfbe15c42c1" y="167.055416"/>
     <use style="fill:#0173b2;stroke:#ffffff;stroke-width:0.75;" x="388.363718" xlink:href="#mfbe15c42c1" y="161.71291"/>
     <use style="fill:#0173b2;stroke:#ffffff;stroke-width:0.75;" x="394.039497" xlink:href="#mfbe15c42c1" y="153.699151"/>
     <use style="fill:#0173b2;stroke:#ffffff;stroke-width:0.75;" x="399.715275" xlink:href="#mfbe15c42c1" y="150.64629"/>
     <use style="fill:#0173b2;stroke:#ffffff;stroke-width:0.75;" x="405.391054" xlink:href="#mfbe15c42c1" y="164.002555"/>
     <use style="fill:#0173b2;stroke:#ffffff;stroke-width:0.75;" x="411.066833" xlink:href="#mfbe15c42c1" y="173.924352"/>
     <use style="fill:#0173b2;stroke:#ffffff;stroke-width:0.75;" x="416.742612" xlink:href="#mfbe15c42c1" y="185.754187"/>
     <use style="fill:#0173b2;stroke:#ffffff;stroke-width:0.75;" x="422.41839" xlink:href="#mfbe15c42c1" y="177.740428"/>
     <use style="fill:#0173b2;stroke:#ffffff;stroke-width:0.75;" x="428.094169" xlink:href="#mfbe15c42c1" y="176.595605"/>
     <use style="fill:#0173b2;stroke:#ffffff;stroke-width:0.75;" x="433.769948" xlink:href="#mfbe15c42c1" y="182.701327"/>
     <use style="fill:#0173b2;stroke:#ffffff;stroke-width:0.75;" x="439.445727" xlink:href="#mfbe15c42c1" y="164.76577"/>
     <use style="fill:#0173b2;stroke:#ffffff;stroke-width:0.75;" x="445.121505" xlink:href="#mfbe15c42c1" y="167.818631"/>
     <use style="fill:#0173b2;stroke:#ffffff;stroke-width:0.75;" x="450.797284" xlink:href="#mfbe15c42c1" y="165.147378"/>
     <use style="fill:#0173b2;stroke:#ffffff;stroke-width:0.75;" x="456.473063" xlink:href="#mfbe15c42c1" y="153.699151"/>
     <use style="fill:#0173b2;stroke:#ffffff;stroke-width:0.75;" x="462.148842" xlink:href="#mfbe15c42c1" y="139.198062"/>
     <use style="fill:#0173b2;stroke:#ffffff;stroke-width:0.75;" x="467.824621" xlink:href="#mfbe15c42c1" y="142.632531"/>
     <use style="fill:#0173b2;stroke:#ffffff;stroke-width:0.75;" x="473.500399" xlink:href="#mfbe15c42c1" y="155.607188"/>
     <use style="fill:#0173b2;stroke:#ffffff;stroke-width:0.75;" x="479.176178" xlink:href="#mfbe15c42c1" y="167.055416"/>
     <use style="fill:#0173b2;stroke:#ffffff;stroke-width:0.75;" x="484.851957" xlink:href="#mfbe15c42c1" y="176.977213"/>
     <use style="fill:#0173b2;stroke:#ffffff;stroke-width:0.75;" x="490.527736" xlink:href="#mfbe15c42c1" y="167.055416"/>
     <use style="fill:#0173b2;stroke:#ffffff;stroke-width:0.75;" x="496.203514" xlink:href="#mfbe15c42c1" y="162.094517"/>
     <use style="fill:#0173b2;stroke:#ffffff;stroke-width:0.75;" x="501.879293" xlink:href="#mfbe15c42c1" y="165.528986"/>
     <use style="fill:#0173b2;stroke:#ffffff;stroke-width:0.75;" x="507.555072" xlink:href="#mfbe15c42c1" y="152.554328"/>
     <use style="fill:#0173b2;stroke:#ffffff;stroke-width:0.75;" x="513.230851" xlink:href="#mfbe15c42c1" y="151.791113"/>
     <use style="fill:#0173b2;stroke:#ffffff;stroke-width:0.75;" x="518.906629" xlink:href="#mfbe15c42c1" y="151.409505"/>
     <use style="fill:#0173b2;stroke:#ffffff;stroke-width:0.75;" x="524.582408" xlink:href="#mfbe15c42c1" y="134.237164"/>
     <use style="fill:#0173b2;stroke:#ffffff;stroke-width:0.75;" x="530.258187" xlink:href="#mfbe15c42c1" y="115.538392"/>
     <use style="fill:#0173b2;stroke:#ffffff;stroke-width:0.75;" x="535.933966" xlink:href="#mfbe15c42c1" y="122.025721"/>
     <use style="fill:#0173b2;stroke:#ffffff;stroke-width:0.75;" x="541.609745" xlink:href="#mfbe15c42c1" y="135.381987"/>
     <use style="fill:#0173b2;stroke:#ffffff;stroke-width:0.75;" x="547.285523" xlink:href="#mfbe15c42c1" y="149.883075"/>
     <use style="fill:#0173b2;stroke:#ffffff;stroke-width:0.75;" x="552.961302" xlink:href="#mfbe15c42c1" y="164.002555"/>
     <use style="fill:#0173b2;stroke:#ffffff;stroke-width:0.75;" x="558.637081" xlink:href="#mfbe15c42c1" y="148.356644"/>
     <use style="fill:#0173b2;stroke:#ffffff;stroke-width:0.75;" x="564.31286" xlink:href="#mfbe15c42c1" y="146.066999"/>
     <use style="fill:#0173b2;stroke:#ffffff;stroke-width:0.75;" x="569.988638" xlink:href="#mfbe15c42c1" y="148.738252"/>
     <use style="fill:#0173b2;stroke:#ffffff;stroke-width:0.75;" x="575.664417" xlink:href="#mfbe15c42c1" y="133.473949"/>
     <use style="fill:#0173b2;stroke:#ffffff;stroke-width:0.75;" x="581.340196" xlink:href="#mfbe15c42c1" y="135.000379"/>
     <use style="fill:#0173b2;stroke:#ffffff;stroke-width:0.75;" x="587.015975" xlink:href="#mfbe15c42c1" y="133.092341"/>
     <use style="fill:#0173b2;stroke:#ffffff;stroke-width:0.75;" x="592.691753" xlink:href="#mfbe15c42c1" y="111.722317"/>
     <use style="fill:#0173b2;stroke:#ffffff;stroke-width:0.75;" x="598.367532" xlink:href="#mfbe15c42c1" y="96.839621"/>
     <use style="fill:#0173b2;stroke:#ffffff;stroke-width:0.75;" x="604.043311" xlink:href="#mfbe15c42c1" y="99.892482"/>
     <use style="fill:#0173b2;stroke:#ffffff;stroke-width:0.75;" x="609.71909" xlink:href="#mfbe15c42c1" y="118.972861"/>
     <use style="fill:#0173b2;stroke:#ffffff;stroke-width:0.75;" x="615.394868" xlink:href="#mfbe15c42c1" y="137.671632"/>
     <use style="fill:#0173b2;stroke:#ffffff;stroke-width:0.75;" x="621.070647" xlink:href="#mfbe15c42c1" y="151.027898"/>
     <use style="fill:#0173b2;stroke:#ffffff;stroke-width:0.75;" x="626.746426" xlink:href="#mfbe15c42c1" y="137.671632"/>
     <use style="fill:#0173b2;stroke:#ffffff;stroke-width:0.75;" x="632.422205" xlink:href="#mfbe15c42c1" y="134.237164"/>
     <use style="fill:#0173b2;stroke:#ffffff;stroke-width:0.75;" x="638.097984" xlink:href="#mfbe15c42c1" y="139.57967"/>
     <use style="fill:#0173b2;stroke:#ffffff;stroke-width:0.75;" x="643.773762" xlink:href="#mfbe15c42c1" y="118.591253"/>
     <use style="fill:#0173b2;stroke:#ffffff;stroke-width:0.75;" x="649.449541" xlink:href="#mfbe15c42c1" y="121.644114"/>
     <use style="fill:#0173b2;stroke:#ffffff;stroke-width:0.75;" x="655.12532" xlink:href="#mfbe15c42c1" y="118.972861"/>
     <use style="fill:#0173b2;stroke:#ffffff;stroke-width:0.75;" x="660.801099" xlink:href="#mfbe15c42c1" y="93.405153"/>
     <use style="fill:#0173b2;stroke:#ffffff;stroke-width:0.75;" x="666.476877" xlink:href="#mfbe15c42c1" y="76.996027"/>
     <use style="fill:#0173b2;stroke:#ffffff;stroke-width:0.75;" x="672.152656" xlink:href="#mfbe15c42c1" y="76.232812"/>
     <use style="fill:#0173b2;stroke:#ffffff;stroke-width:0.75;" x="677.828435" xlink:href="#mfbe15c42c1" y="100.274089"/>
     <use style="fill:#0173b2;stroke:#ffffff;stroke-width:0.75;" x="683.504214" xlink:href="#mfbe15c42c1" y="122.025721"/>
     <use style="fill:#0173b2;stroke:#ffffff;stroke-width:0.75;" x="689.179992" xlink:href="#mfbe15c42c1" y="138.05324"/>
     <use style="fill:#0173b2;stroke:#ffffff;stroke-width:0.75;" x="694.855771" xlink:href="#mfbe15c42c1" y="126.223405"/>
     <use style="fill:#0173b2;stroke:#ffffff;stroke-width:0.75;" x="700.53155" xlink:href="#mfbe15c42c1" y="124.696974"/>
     <use style="fill:#0173b2;stroke:#ffffff;stroke-width:0.75;" x="706.207329" xlink:href="#mfbe15c42c1" y="133.092341"/>
     <use style="fill:#0173b2;stroke:#ffffff;stroke-width:0.75;" x="711.883108" xlink:href="#mfbe15c42c1" y="116.301608"/>
     <use style="fill:#0173b2;stroke:#ffffff;stroke-width:0.75;" x="717.558886" xlink:href="#mfbe15c42c1" y="121.644114"/>
     <use style="fill:#0173b2;stroke:#ffffff;stroke-width:0.75;" x="723.234665" xlink:href="#mfbe15c42c1" y="115.92"/>
     <use style="fill:#0173b2;stroke:#ffffff;stroke-width:0.75;" x="728.910444" xlink:href="#mfbe15c42c1" y="88.444254"/>
     <use style="fill:#0173b2;stroke:#ffffff;stroke-width:0.75;" x="734.586223" xlink:href="#mfbe15c42c1" y="67.07423"/>
     <use style="fill:#0173b2;stroke:#ffffff;stroke-width:0.75;" x="740.262001" xlink:href="#mfbe15c42c1" y="61.731723"/>
     <use style="fill:#0173b2;stroke:#ffffff;stroke-width:0.75;" x="745.93778" xlink:href="#mfbe15c42c1" y="100.274089"/>
     <use style="fill:#0173b2;stroke:#ffffff;stroke-width:0.75;" x="751.613559" xlink:href="#mfbe15c42c1" y="117.44643"/>
     <use style="fill:#0173b2;stroke:#ffffff;stroke-width:0.75;" x="757.289338" xlink:href="#mfbe15c42c1" y="136.145202"/>
     <use style="fill:#0173b2;stroke:#ffffff;stroke-width:0.75;" x="762.965116" xlink:href="#mfbe15c42c1" y="125.841797"/>
     <use style="fill:#0173b2;stroke:#ffffff;stroke-width:0.75;" x="768.640895" xlink:href="#mfbe15c42c1" y="117.064823"/>
     <use style="fill:#0173b2;stroke:#ffffff;stroke-width:0.75;" x="774.316674" xlink:href="#mfbe15c42c1" y="123.933759"/>
     <use style="fill:#0173b2;stroke:#ffffff;stroke-width:0.75;" x="779.992453" xlink:href="#mfbe15c42c1" y="99.510874"/>
     <use style="fill:#0173b2;stroke:#ffffff;stroke-width:0.75;" x="785.668231" xlink:href="#mfbe15c42c1" y="103.32695"/>
     <use style="fill:#0173b2;stroke:#ffffff;stroke-width:0.75;" x="791.34401" xlink:href="#mfbe15c42c1" y="94.168368"/>
     <use style="fill:#0173b2;stroke:#ffffff;stroke-width:0.75;" x="797.019789" xlink:href="#mfbe15c42c1" y="74.324774"/>
     <use style="fill:#0173b2;stroke:#ffffff;stroke-width:0.75;" x="802.695568" xlink:href="#mfbe15c42c1" y="45.322597"/>
     <use style="fill:#0173b2;stroke:#ffffff;stroke-width:0.75;" x="808.371347" xlink:href="#mfbe15c42c1" y="41.124914"/>
     <use style="fill:#0173b2;stroke:#ffffff;stroke-width:0.75;" x="814.047125" xlink:href="#mfbe15c42c1" y="77.759242"/>
     <use style="fill:#0173b2;stroke:#ffffff;stroke-width:0.75;" x="819.722904" xlink:href="#mfbe15c42c1" y="99.129266"/>
     <use style="fill:#0173b2;stroke:#ffffff;stroke-width:0.75;" x="825.398683" xlink:href="#mfbe15c42c1" y="116.301608"/>
     <use style="fill:#0173b2;stroke:#ffffff;stroke-width:0.75;" x="831.074462" xlink:href="#mfbe15c42c1" y="99.892482"/>
     <use style="fill:#0173b2;stroke:#ffffff;stroke-width:0.75;" x="836.75024" xlink:href="#mfbe15c42c1" y="95.313191"/>
     <use style="fill:#0173b2;stroke:#ffffff;stroke-width:0.75;" x="842.426019" xlink:href="#mfbe15c42c1" y="105.234988"/>
     <use style="fill:#0173b2;stroke:#ffffff;stroke-width:0.75;" x="848.101798" xlink:href="#mfbe15c42c1" y="94.549975"/>
     <use style="fill:#0173b2;stroke:#ffffff;stroke-width:0.75;" x="853.777577" xlink:href="#mfbe15c42c1" y="78.522457"/>
     <use style="fill:#0173b2;stroke:#ffffff;stroke-width:0.75;" x="859.453355" xlink:href="#mfbe15c42c1" y="74.324774"/>
     <use style="fill:#0173b2;stroke:#ffffff;stroke-width:0.75;" x="865.129134" xlink:href="#mfbe15c42c1" y="50.283496"/>
     <use style="fill:#0173b2;stroke:#ffffff;stroke-width:0.75;" x="870.804913" xlink:href="#mfbe15c42c1" y="17.083636"/>
     <use style="fill:#0173b2;stroke:#ffffff;stroke-width:0.75;" x="876.480692" xlink:href="#mfbe15c42c1" y="23.189358"/>
     <use style="fill:#0173b2;stroke:#ffffff;stroke-width:0.75;" x="882.156471" xlink:href="#mfbe15c42c1" y="60.586901"/>
     <use style="fill:#0173b2;stroke:#ffffff;stroke-width:0.75;" x="887.832249" xlink:href="#mfbe15c42c1" y="78.522457"/>
     <use style="fill:#0173b2;stroke:#ffffff;stroke-width:0.75;" x="893.508028" xlink:href="#mfbe15c42c1" y="105.616595"/>
     <use style="fill:#0173b2;stroke:#ffffff;stroke-width:0.75;" x="899.183807" xlink:href="#mfbe15c42c1" y="89.589077"/>
    </g>
   </g>
   <g id="line2d_16">
    <path clip-path="url(#p7df0c082fb)" d="M 496.203514 165.854659 
L 501.879293 169.348079 
L 507.555072 152.401191 
L 513.230851 154.310552 
L 518.906629 153.60702 
L 524.582408 144.603865 
L 530.258187 132.711534 
L 535.933966 133.507009 
L 541.609745 146.628165 
L 547.285523 157.452958 
L 552.961302 168.143831 
L 558.637081 158.9923 
" style="fill:none;stroke:#de8f05;stroke-linecap:square;stroke-width:1.5;"/>
   </g>
   <g id="line2d_17">
    <path clip-path="url(#p7df0c082fb)" d="M 564.31286 146.61317 
L 569.988638 151.769488 
L 575.664417 138.961516 
L 581.340196 140.097004 
L 587.015975 140.051424 
L 592.691753 125.503407 
L 598.367532 109.089617 
L 604.043311 114.357224 
L 609.71909 127.767699 
L 615.394868 141.307293 
L 621.070647 154.329349 
L 626.746426 140.655544 
" style="fill:none;stroke:#029e73;stroke-linecap:square;stroke-width:1.5;"/>
   </g>
   <g id="line2d_18">
    <path clip-path="url(#p7df0c082fb)" d="M 632.422205 134.552316 
L 638.097984 137.447116 
L 643.773762 122.692133 
L 649.449541 123.700521 
L 655.12532 122.138963 
L 660.801099 101.723453 
L 666.476877 85.973105 
L 672.152656 89.806833 
L 677.828435 107.585775 
L 683.504214 125.33016 
L 689.179992 138.85995 
L 694.855771 124.983111 
" style="fill:none;stroke:#d55e00;stroke-linecap:square;stroke-width:1.5;"/>
   </g>
   <g id="line2d_19">
    <path clip-path="url(#p7df0c082fb)" d="M 700.53155 122.420887 
L 706.207329 127.852136 
L 711.883108 106.842322 
L 717.558886 109.900342 
L 723.234665 107.227845 
L 728.910444 81.660437 
L 734.586223 65.251238 
L 740.262001 64.488041 
L 745.93778 88.529314 
L 751.613559 110.280947 
L 757.289338 126.308465 
L 762.965116 114.47863 
" style="fill:none;stroke:#cc78bc;stroke-linecap:square;stroke-width:1.5;"/>
   </g>
   <g id="line2d_20">
    <path clip-path="url(#p7df0c082fb)" d="M 768.640895 122.506795 
L 774.316674 129.91197 
L 779.992453 112.169198 
L 785.668231 116.712411 
L 791.34401 110.298528 
L 797.019789 82.230987 
L 802.695568 60.352602 
L 808.371347 54.573521 
L 814.047125 92.74094 
L 819.722904 109.591266 
L 825.398683 128.013481 
L 831.074462 117.472562 
" style="fill:none;stroke:#ca9161;stroke-linecap:square;stroke-width:1.5;"/>
   </g>
   <g id="line2d_21">
    <path clip-path="url(#p7df0c082fb)" d="M 836.75024 94.180895 
L 842.426019 101.857818 
L 848.101798 79.669424 
L 853.777577 84.828844 
L 859.453355 77.076478 
L 865.129134 58.249386 
L 870.804913 30.133024 
L 876.480692 26.619696 
L 882.156471 63.818633 
L 887.832249 85.635745 
L 893.508028 103.170408 
L 899.183807 87.050778 
" style="fill:none;stroke:#fbafe4;stroke-linecap:square;stroke-width:1.5;"/>
   </g>
   <g id="patch_3">
    <path d="M 46.965625 224.64 
L 46.965625 7.2 
" style="fill:none;stroke:#000000;stroke-linecap:square;stroke-linejoin:miter;stroke-width:0.8;"/>
   </g>
   <g id="patch_4">
    <path d="M 939.765625 224.64 
L 939.765625 7.2 
" style="fill:none;stroke:#000000;stroke-linecap:square;stroke-linejoin:miter;stroke-width:0.8;"/>
   </g>
   <g id="patch_5">
    <path d="M 46.965625 224.64 
L 939.765625 224.64 
" style="fill:none;stroke:#000000;stroke-linecap:square;stroke-linejoin:miter;stroke-width:0.8;"/>
   </g>
   <g id="patch_6">
    <path d="M 46.965625 7.2 
L 939.765625 7.2 
" style="fill:none;stroke:#000000;stroke-linecap:square;stroke-linejoin:miter;stroke-width:0.8;"/>
   </g>
   <g id="legend_1">
    <g id="patch_7">
     <path d="M 53.965625 119.89375 
L 183.623438 119.89375 
Q 185.623438 119.89375 185.623438 117.89375 
L 185.623438 14.2 
Q 185.623438 12.2 183.623438 12.2 
L 53.965625 12.2 
Q 51.965625 12.2 51.965625 14.2 
L 51.965625 117.89375 
Q 51.965625 119.89375 53.965625 119.89375 
z
" style="fill:#ffffff;opacity:0.8;stroke:#cccccc;stroke-linejoin:miter;"/>
    </g>
    <g id="line2d_22">
     <path d="M 55.965625 20.298437 
L 75.965625 20.298437 
" style="fill:none;stroke:#0173b2;stroke-linecap:square;stroke-width:1.5;"/>
    </g>
    <g id="line2d_23">
     <g>
      <use style="fill:#0173b2;stroke:#ffffff;stroke-width:0.75;" x="65.965625" xlink:href="#mfbe15c42c1" y="20.298437"/>
     </g>
    </g>
    <g id="text_16">
     <!-- y_true -->
     <g transform="translate(83.965625 23.798437)scale(0.1 -0.1)">
      <defs>
       <path d="M 32.171875 -5.078125 
Q 28.375 -14.84375 24.75 -17.8125 
Q 21.140625 -20.796875 15.09375 -20.796875 
L 7.90625 -20.796875 
L 7.90625 -13.28125 
L 13.1875 -13.28125 
Q 16.890625 -13.28125 18.9375 -11.515625 
Q 21 -9.765625 23.484375 -3.21875 
L 25.09375 0.875 
L 2.984375 54.6875 
L 12.5 54.6875 
L 29.59375 11.921875 
L 46.6875 54.6875 
L 56.203125 54.6875 
z
" id="DejaVuSans-121"/>
       <path d="M 50.984375 -16.609375 
L 50.984375 -23.578125 
L -0.984375 -23.578125 
L -0.984375 -16.609375 
z
" id="DejaVuSans-95"/>
       <path d="M 18.3125 70.21875 
L 18.3125 54.6875 
L 36.8125 54.6875 
L 36.8125 47.703125 
L 18.3125 47.703125 
L 18.3125 18.015625 
Q 18.3125 11.328125 20.140625 9.421875 
Q 21.96875 7.515625 27.59375 7.515625 
L 36.8125 7.515625 
L 36.8125 0 
L 27.59375 0 
Q 17.1875 0 13.234375 3.875 
Q 9.28125 7.765625 9.28125 18.015625 
L 9.28125 47.703125 
L 2.6875 47.703125 
L 2.6875 54.6875 
L 9.28125 54.6875 
L 9.28125 70.21875 
z
" id="DejaVuSans-116"/>
      </defs>
      <use xlink:href="#DejaVuSans-121"/>
      <use x="59.179688" xlink:href="#DejaVuSans-95"/>
      <use x="109.179688" xlink:href="#DejaVuSans-116"/>
      <use x="148.388672" xlink:href="#DejaVuSans-114"/>
      <use x="189.501953" xlink:href="#DejaVuSans-117"/>
      <use x="252.880859" xlink:href="#DejaVuSans-101"/>
     </g>
    </g>
    <g id="line2d_24">
     <path d="M 55.965625 35.254687 
L 75.965625 35.254687 
" style="fill:none;stroke:#de8f05;stroke-linecap:square;stroke-width:1.5;"/>
    </g>
    <g id="line2d_25"/>
    <g id="text_17">
     <!-- y_pred (Backtest 0) -->
     <g transform="translate(83.965625 38.754687)scale(0.1 -0.1)">
      <defs>
       <path d="M 45.40625 46.390625 
L 45.40625 75.984375 
L 54.390625 75.984375 
L 54.390625 0 
L 45.40625 0 
L 45.40625 8.203125 
Q 42.578125 3.328125 38.25 0.953125 
Q 33.9375 -1.421875 27.875 -1.421875 
Q 17.96875 -1.421875 11.734375 6.484375 
Q 5.515625 14.40625 5.515625 27.296875 
Q 5.515625 40.1875 11.734375 48.09375 
Q 17.96875 56 27.875 56 
Q 33.9375 56 38.25 53.625 
Q 42.578125 51.265625 45.40625 46.390625 
z
M 14.796875 27.296875 
Q 14.796875 17.390625 18.875 11.75 
Q 22.953125 6.109375 30.078125 6.109375 
Q 37.203125 6.109375 41.296875 11.75 
Q 45.40625 17.390625 45.40625 27.296875 
Q 45.40625 37.203125 41.296875 42.84375 
Q 37.203125 48.484375 30.078125 48.484375 
Q 22.953125 48.484375 18.875 42.84375 
Q 14.796875 37.203125 14.796875 27.296875 
z
" id="DejaVuSans-100"/>
       <path d="M 31 75.875 
Q 24.46875 64.65625 21.28125 53.65625 
Q 18.109375 42.671875 18.109375 31.390625 
Q 18.109375 20.125 21.3125 9.0625 
Q 24.515625 -2 31 -13.1875 
L 23.1875 -13.1875 
Q 15.875 -1.703125 12.234375 9.375 
Q 8.59375 20.453125 8.59375 31.390625 
Q 8.59375 42.28125 12.203125 53.3125 
Q 15.828125 64.359375 23.1875 75.875 
z
" id="DejaVuSans-40"/>
       <path d="M 19.671875 34.8125 
L 19.671875 8.109375 
L 35.5 8.109375 
Q 43.453125 8.109375 47.28125 11.40625 
Q 51.125 14.703125 51.125 21.484375 
Q 51.125 28.328125 47.28125 31.5625 
Q 43.453125 34.8125 35.5 34.8125 
z
M 19.671875 64.796875 
L 19.671875 42.828125 
L 34.28125 42.828125 
Q 41.5 42.828125 45.03125 45.53125 
Q 48.578125 48.25 48.578125 53.8125 
Q 48.578125 59.328125 45.03125 62.0625 
Q 41.5 64.796875 34.28125 64.796875 
z
M 9.8125 72.90625 
L 35.015625 72.90625 
Q 46.296875 72.90625 52.390625 68.21875 
Q 58.5 63.53125 58.5 54.890625 
Q 58.5 48.1875 55.375 44.234375 
Q 52.25 40.28125 46.1875 39.3125 
Q 53.46875 37.75 57.5 32.78125 
Q 61.53125 27.828125 61.53125 20.40625 
Q 61.53125 10.640625 54.890625 5.3125 
Q 48.25 0 35.984375 0 
L 9.8125 0 
z
" id="DejaVuSans-66"/>
       <path d="M 48.78125 52.59375 
L 48.78125 44.1875 
Q 44.96875 46.296875 41.140625 47.34375 
Q 37.3125 48.390625 33.40625 48.390625 
Q 24.65625 48.390625 19.8125 42.84375 
Q 14.984375 37.3125 14.984375 27.296875 
Q 14.984375 17.28125 19.8125 11.734375 
Q 24.65625 6.203125 33.40625 6.203125 
Q 37.3125 6.203125 41.140625 7.25 
Q 44.96875 8.296875 48.78125 10.40625 
L 48.78125 2.09375 
Q 45.015625 0.34375 40.984375 -0.53125 
Q 36.96875 -1.421875 32.421875 -1.421875 
Q 20.0625 -1.421875 12.78125 6.34375 
Q 5.515625 14.109375 5.515625 27.296875 
Q 5.515625 40.671875 12.859375 48.328125 
Q 20.21875 56 33.015625 56 
Q 37.15625 56 41.109375 55.140625 
Q 45.0625 54.296875 48.78125 52.59375 
z
" id="DejaVuSans-99"/>
       <path d="M 9.078125 75.984375 
L 18.109375 75.984375 
L 18.109375 31.109375 
L 44.921875 54.6875 
L 56.390625 54.6875 
L 27.390625 29.109375 
L 57.625 0 
L 45.90625 0 
L 18.109375 26.703125 
L 18.109375 0 
L 9.078125 0 
z
" id="DejaVuSans-107"/>
       <path d="M 8.015625 75.875 
L 15.828125 75.875 
Q 23.140625 64.359375 26.78125 53.3125 
Q 30.421875 42.28125 30.421875 31.390625 
Q 30.421875 20.453125 26.78125 9.375 
Q 23.140625 -1.703125 15.828125 -13.1875 
L 8.015625 -13.1875 
Q 14.5 -2 17.703125 9.0625 
Q 20.90625 20.125 20.90625 31.390625 
Q 20.90625 42.671875 17.703125 53.65625 
Q 14.5 64.65625 8.015625 75.875 
z
" id="DejaVuSans-41"/>
      </defs>
      <use xlink:href="#DejaVuSans-121"/>
      <use x="59.179688" xlink:href="#DejaVuSans-95"/>
      <use x="109.179688" xlink:href="#DejaVuSans-112"/>
      <use x="172.65625" xlink:href="#DejaVuSans-114"/>
      <use x="211.519531" xlink:href="#DejaVuSans-101"/>
      <use x="273.042969" xlink:href="#DejaVuSans-100"/>
      <use x="336.519531" xlink:href="#DejaVuSans-32"/>
      <use x="368.306641" xlink:href="#DejaVuSans-40"/>
      <use x="407.320312" xlink:href="#DejaVuSans-66"/>
      <use x="475.923828" xlink:href="#DejaVuSans-97"/>
      <use x="537.203125" xlink:href="#DejaVuSans-99"/>
      <use x="592.183594" xlink:href="#DejaVuSans-107"/>
      <use x="650.09375" xlink:href="#DejaVuSans-116"/>
      <use x="689.302734" xlink:href="#DejaVuSans-101"/>
      <use x="750.826172" xlink:href="#DejaVuSans-115"/>
      <use x="802.925781" xlink:href="#DejaVuSans-116"/>
      <use x="842.134766" xlink:href="#DejaVuSans-32"/>
      <use x="873.921875" xlink:href="#DejaVuSans-48"/>
      <use x="937.544922" xlink:href="#DejaVuSans-41"/>
     </g>
    </g>
    <g id="line2d_26">
     <path d="M 55.965625 50.210937 
L 75.965625 50.210937 
" style="fill:none;stroke:#029e73;stroke-linecap:square;stroke-width:1.5;"/>
    </g>
    <g id="line2d_27"/>
    <g id="text_18">
     <!-- y_pred (Backtest 1) -->
     <g transform="translate(83.965625 53.710937)scale(0.1 -0.1)">
      <use xlink:href="#DejaVuSans-121"/>
      <use x="59.179688" xlink:href="#DejaVuSans-95"/>
      <use x="109.179688" xlink:href="#DejaVuSans-112"/>
      <use x="172.65625" xlink:href="#DejaVuSans-114"/>
      <use x="211.519531" xlink:href="#DejaVuSans-101"/>
      <use x="273.042969" xlink:href="#DejaVuSans-100"/>
      <use x="336.519531" xlink:href="#DejaVuSans-32"/>
      <use x="368.306641" xlink:href="#DejaVuSans-40"/>
      <use x="407.320312" xlink:href="#DejaVuSans-66"/>
      <use x="475.923828" xlink:href="#DejaVuSans-97"/>
      <use x="537.203125" xlink:href="#DejaVuSans-99"/>
      <use x="592.183594" xlink:href="#DejaVuSans-107"/>
      <use x="650.09375" xlink:href="#DejaVuSans-116"/>
      <use x="689.302734" xlink:href="#DejaVuSans-101"/>
      <use x="750.826172" xlink:href="#DejaVuSans-115"/>
      <use x="802.925781" xlink:href="#DejaVuSans-116"/>
      <use x="842.134766" xlink:href="#DejaVuSans-32"/>
      <use x="873.921875" xlink:href="#DejaVuSans-49"/>
      <use x="937.544922" xlink:href="#DejaVuSans-41"/>
     </g>
    </g>
    <g id="line2d_28">
     <path d="M 55.965625 65.167187 
L 75.965625 65.167187 
" style="fill:none;stroke:#d55e00;stroke-linecap:square;stroke-width:1.5;"/>
    </g>
    <g id="line2d_29"/>
    <g id="text_19">
     <!-- y_pred (Backtest 2) -->
     <g transform="translate(83.965625 68.667187)scale(0.1 -0.1)">
      <use xlink:href="#DejaVuSans-121"/>
      <use x="59.179688" xlink:href="#DejaVuSans-95"/>
      <use x="109.179688" xlink:href="#DejaVuSans-112"/>
      <use x="172.65625" xlink:href="#DejaVuSans-114"/>
      <use x="211.519531" xlink:href="#DejaVuSans-101"/>
      <use x="273.042969" xlink:href="#DejaVuSans-100"/>
      <use x="336.519531" xlink:href="#DejaVuSans-32"/>
      <use x="368.306641" xlink:href="#DejaVuSans-40"/>
      <use x="407.320312" xlink:href="#DejaVuSans-66"/>
      <use x="475.923828" xlink:href="#DejaVuSans-97"/>
      <use x="537.203125" xlink:href="#DejaVuSans-99"/>
      <use x="592.183594" xlink:href="#DejaVuSans-107"/>
      <use x="650.09375" xlink:href="#DejaVuSans-116"/>
      <use x="689.302734" xlink:href="#DejaVuSans-101"/>
      <use x="750.826172" xlink:href="#DejaVuSans-115"/>
      <use x="802.925781" xlink:href="#DejaVuSans-116"/>
      <use x="842.134766" xlink:href="#DejaVuSans-32"/>
      <use x="873.921875" xlink:href="#DejaVuSans-50"/>
      <use x="937.544922" xlink:href="#DejaVuSans-41"/>
     </g>
    </g>
    <g id="line2d_30">
     <path d="M 55.965625 80.123437 
L 75.965625 80.123437 
" style="fill:none;stroke:#cc78bc;stroke-linecap:square;stroke-width:1.5;"/>
    </g>
    <g id="line2d_31"/>
    <g id="text_20">
     <!-- y_pred (Backtest 3) -->
     <g transform="translate(83.965625 83.623437)scale(0.1 -0.1)">
      <use xlink:href="#DejaVuSans-121"/>
      <use x="59.179688" xlink:href="#DejaVuSans-95"/>
      <use x="109.179688" xlink:href="#DejaVuSans-112"/>
      <use x="172.65625" xlink:href="#DejaVuSans-114"/>
      <use x="211.519531" xlink:href="#DejaVuSans-101"/>
      <use x="273.042969" xlink:href="#DejaVuSans-100"/>
      <use x="336.519531" xlink:href="#DejaVuSans-32"/>
      <use x="368.306641" xlink:href="#DejaVuSans-40"/>
      <use x="407.320312" xlink:href="#DejaVuSans-66"/>
      <use x="475.923828" xlink:href="#DejaVuSans-97"/>
      <use x="537.203125" xlink:href="#DejaVuSans-99"/>
      <use x="592.183594" xlink:href="#DejaVuSans-107"/>
      <use x="650.09375" xlink:href="#DejaVuSans-116"/>
      <use x="689.302734" xlink:href="#DejaVuSans-101"/>
      <use x="750.826172" xlink:href="#DejaVuSans-115"/>
      <use x="802.925781" xlink:href="#DejaVuSans-116"/>
      <use x="842.134766" xlink:href="#DejaVuSans-32"/>
      <use x="873.921875" xlink:href="#DejaVuSans-51"/>
      <use x="937.544922" xlink:href="#DejaVuSans-41"/>
     </g>
    </g>
    <g id="line2d_32">
     <path d="M 55.965625 95.079687 
L 75.965625 95.079687 
" style="fill:none;stroke:#ca9161;stroke-linecap:square;stroke-width:1.5;"/>
    </g>
    <g id="line2d_33"/>
    <g id="text_21">
     <!-- y_pred (Backtest 4) -->
     <g transform="translate(83.965625 98.579687)scale(0.1 -0.1)">
      <use xlink:href="#DejaVuSans-121"/>
      <use x="59.179688" xlink:href="#DejaVuSans-95"/>
      <use x="109.179688" xlink:href="#DejaVuSans-112"/>
      <use x="172.65625" xlink:href="#DejaVuSans-114"/>
      <use x="211.519531" xlink:href="#DejaVuSans-101"/>
      <use x="273.042969" xlink:href="#DejaVuSans-100"/>
      <use x="336.519531" xlink:href="#DejaVuSans-32"/>
      <use x="368.306641" xlink:href="#DejaVuSans-40"/>
      <use x="407.320312" xlink:href="#DejaVuSans-66"/>
      <use x="475.923828" xlink:href="#DejaVuSans-97"/>
      <use x="537.203125" xlink:href="#DejaVuSans-99"/>
      <use x="592.183594" xlink:href="#DejaVuSans-107"/>
      <use x="650.09375" xlink:href="#DejaVuSans-116"/>
      <use x="689.302734" xlink:href="#DejaVuSans-101"/>
      <use x="750.826172" xlink:href="#DejaVuSans-115"/>
      <use x="802.925781" xlink:href="#DejaVuSans-116"/>
      <use x="842.134766" xlink:href="#DejaVuSans-32"/>
      <use x="873.921875" xlink:href="#DejaVuSans-52"/>
      <use x="937.544922" xlink:href="#DejaVuSans-41"/>
     </g>
    </g>
    <g id="line2d_34">
     <path d="M 55.965625 110.035937 
L 75.965625 110.035937 
" style="fill:none;stroke:#fbafe4;stroke-linecap:square;stroke-width:1.5;"/>
    </g>
    <g id="line2d_35"/>
    <g id="text_22">
     <!-- y_pred (Backtest 5) -->
     <g transform="translate(83.965625 113.535937)scale(0.1 -0.1)">
      <use xlink:href="#DejaVuSans-121"/>
      <use x="59.179688" xlink:href="#DejaVuSans-95"/>
      <use x="109.179688" xlink:href="#DejaVuSans-112"/>
      <use x="172.65625" xlink:href="#DejaVuSans-114"/>
      <use x="211.519531" xlink:href="#DejaVuSans-101"/>
      <use x="273.042969" xlink:href="#DejaVuSans-100"/>
      <use x="336.519531" xlink:href="#DejaVuSans-32"/>
      <use x="368.306641" xlink:href="#DejaVuSans-40"/>
      <use x="407.320312" xlink:href="#DejaVuSans-66"/>
      <use x="475.923828" xlink:href="#DejaVuSans-97"/>
      <use x="537.203125" xlink:href="#DejaVuSans-99"/>
      <use x="592.183594" xlink:href="#DejaVuSans-107"/>
      <use x="650.09375" xlink:href="#DejaVuSans-116"/>
      <use x="689.302734" xlink:href="#DejaVuSans-101"/>
      <use x="750.826172" xlink:href="#DejaVuSans-115"/>
      <use x="802.925781" xlink:href="#DejaVuSans-116"/>
      <use x="842.134766" xlink:href="#DejaVuSans-32"/>
      <use x="873.921875" xlink:href="#DejaVuSans-53"/>
      <use x="937.544922" xlink:href="#DejaVuSans-41"/>
     </g>
    </g>
   </g>
  </g>
 </g>
 <defs>
  <clipPath id="p7df0c082fb">
   <rect height="217.44" width="892.8" x="46.965625" y="7.2"/>
  </clipPath>
 </defs>
</svg>
