<?xml version="1.0" standalone="no"?>
<!DOCTYPE svg PUBLIC "-//W3C//DTD SVG 20010904//EN"
 "http://www.w3.org/TR/2001/REC-SVG-20010904/DTD/svg10.dtd">
<svg version="1.0" xmlns="http://www.w3.org/2000/svg"
 width="512.000000pt" height="512.000000pt" viewBox="0 0 512.000000 512.000000"
 preserveAspectRatio="xMidYMid meet">
<metadata>
Created by potrace 1.11, written by Peter Selinger 2001-2013
</metadata>
<g transform="translate(0.000000,512.000000) scale(0.100000,-0.100000)"
fill="#000000" stroke="none">
<path d="M2259 5106 c-2 -2 -29 -7 -59 -10 -30 -4 -100 -16 -155 -27 -664
-134 -1252 -535 -1629 -1109 -110 -166 -258 -464 -239 -480 4 -3 42 -19 83
-35 41 -15 136 -52 210 -81 609 -236 842 -326 868 -331 13 -3 22 -1 22 7 0 22
79 172 131 248 143 212 352 380 588 473 91 37 186 64 264 75 21 3 46 7 55 8
23 4 22 58 -2 271 -5 45 -13 116 -21 190 -3 28 -12 113 -20 190 -15 136 -19
176 -30 288 -3 28 -8 63 -10 77 -2 14 -7 58 -10 97 -4 40 -8 81 -10 90 -2 10
-4 28 -4 41 -1 19 -19 30 -32 18z"/>
<path d="M2829 5086 c0 -11 -2 -29 -4 -39 -2 -9 -6 -50 -10 -90 -4 -39 -8 -79
-10 -87 -1 -8 -6 -49 -10 -90 -3 -41 -8 -88 -10 -105 -2 -16 -7 -57 -10 -90
-4 -33 -8 -71 -10 -85 -2 -14 -7 -59 -10 -100 -4 -41 -8 -82 -10 -90 -2 -8 -6
-51 -10 -95 -4 -44 -8 -91 -11 -105 -8 -51 -18 -166 -18 -215 -1 -48 0 -49 29
-52 60 -5 182 -36 275 -70 504 -187 842 -669 844 -1203 0 -162 -18 -273 -70
-425 -94 -278 -288 -526 -531 -678 -61 -39 -196 -107 -210 -107 -7 0 -13 -5
-13 -12 0 -6 37 -106 81 -222 45 -116 139 -362 210 -546 71 -184 134 -343 139
-352 6 -10 10 -24 10 -32 0 -28 18 -26 98 8 225 96 469 248 652 405 460 395
762 925 864 1517 26 146 31 227 31 459 -1 275 -24 439 -97 695 -96 335 -280
676 -511 945 -144 167 -389 383 -546 480 -8 6 -34 22 -56 36 -240 155 -605
293 -910 343 -162 27 -165 27 -166 2z"/>
<path d="M25 2928 c-31 -183 -31 -557 0 -735 4 -24 10 -31 24 -28 28 5 92 15
131 20 19 3 46 7 60 10 14 3 43 8 65 11 22 2 94 14 160 24 66 11 138 22 160
25 22 3 49 7 60 10 11 2 43 7 70 10 28 4 68 11 90 15 22 5 67 12 100 15 33 4
62 9 65 10 3 2 33 7 65 10 33 4 63 9 67 11 3 2 28 7 55 10 84 9 84 9 76 67 -8
65 -8 225 1 294 7 58 8 56 -75 68 -25 3 -57 8 -70 10 -13 2 -37 6 -53 9 -16 3
-50 8 -75 12 -25 4 -55 8 -66 10 -11 3 -50 9 -87 14 -75 11 -250 39 -288 45
-14 3 -45 7 -70 10 -25 3 -52 8 -60 10 -8 2 -35 7 -60 10 -73 10 -293 45 -317
50 -19 4 -23 0 -28 -27z"/>
<path d="M1300 2078 c-51 -23 -91 -39 -390 -153 -168 -64 -357 -137 -420 -161
-63 -25 -158 -61 -210 -81 -52 -20 -99 -39 -103 -43 -9 -8 64 -178 129 -299
53 -98 153 -251 217 -334 l44 -57 119 96 c136 109 146 117 309 248 66 53 129
104 140 114 11 10 109 89 218 176 108 87 197 160 197 163 0 2 -17 27 -39 56
-46 61 -109 173 -137 239 -20 50 -30 55 -74 36z"/>
<path d="M1430 1163 c-171 -214 -321 -399 -333 -413 -12 -14 -50 -60 -84 -104
l-62 -78 27 -22 c71 -57 213 -154 307 -208 40 -24 260 -132 309 -152 36 -15
40 -15 52 1 7 10 14 22 14 28 0 8 131 356 151 400 5 11 44 112 87 225 44 113
83 214 87 225 4 11 9 25 11 30 1 6 23 62 48 125 49 122 53 140 34 140 -30 0
-219 106 -289 161 -20 16 -39 29 -42 29 -2 0 -145 -174 -317 -387z"/>
<path d="M2357 1273 c-3 -4 -8 -35 -11 -68 -4 -33 -9 -67 -11 -75 -2 -8 -7
-33 -10 -55 -32 -211 -54 -354 -60 -385 -2 -10 -7 -40 -11 -67 -3 -26 -8 -57
-10 -68 -2 -11 -7 -40 -10 -65 -3 -25 -8 -53 -10 -64 -2 -10 -15 -94 -29 -186
-14 -92 -27 -176 -30 -188 -4 -24 7 -28 120 -39 174 -17 648 -4 670 19 2 2 -3
37 -10 78 -7 41 -16 95 -19 120 -3 25 -8 56 -10 70 -3 14 -10 59 -16 100 -6
41 -14 86 -16 100 -2 14 -11 70 -19 125 -9 55 -18 111 -20 125 -2 14 -7 45
-10 69 -3 23 -7 46 -9 50 -2 3 -7 35 -11 71 -4 36 -8 67 -10 70 -2 3 -6 28 -9
55 -4 28 -11 73 -16 100 -5 28 -11 64 -13 80 -3 25 -8 30 -28 28 -62 -6 -308
-6 -341 1 -20 3 -39 3 -41 -1z"/>
</g>
</svg>
