<?xml version="1.0" encoding="UTF-8"?>
<svg width="400px" height="113px" viewBox="0 0 400 113" version="1.1" xmlns="http://www.w3.org/2000/svg" xmlns:xlink="http://www.w3.org/1999/xlink">
    <!-- Generator: Sketch 62 (91390) - https://sketch.com -->
    <title>Logo/Pewter Copy</title>
    <desc>Created with Sketch.</desc>
    <g id="Logo/Pewter-Copy" stroke="none" stroke-width="1" fill="none" fill-rule="evenodd">
        <g id="Logo" transform="translate(0.000000, 1.000000)" fill="#DEE2EA">
            <path d="M34.7495,0.0001 L1.7215,0.0001 L-0.0005,0.0001 L-0.0005,1.7431 L-0.0005,1.7441 C0.0035,2.0451 0.0875,2.3531 0.2675,2.6391 L5.1905,10.4301 L33.9005,10.4301 C53.0605,10.4301 65.7935,21.6671 65.7935,42.6461 C65.7935,63.7451 53.1835,75.1451 33.9005,75.1451 L18.3785,75.1451 L18.3785,17.2201 L6.3745,17.2201 L6.3745,85.5731 L34.7495,85.5731 C60.9435,85.5731 78.1635,69.8091 78.1635,42.6461 C78.1635,15.6451 60.9435,0.0001 34.7495,0.0001" id="Fill-1"></path>
            <path d="M97.8881,47.7394 C99.5861,37.6744 106.8621,32.0964 115.8361,32.0964 C123.7191,32.0964 130.2661,37.1884 130.6301,47.7394 L97.8881,47.7394 Z M116.0781,22.7574 C98.6161,22.7574 85.3991,35.3694 85.3991,54.8944 C85.3991,73.0824 98.6161,87.0294 117.8961,87.0294 C132.5691,87.0294 141.6651,78.2974 141.6651,78.2974 L136.8141,69.6884 C136.8141,69.6884 129.1761,76.8414 118.6251,76.8414 C107.7111,76.8414 98.1321,70.0514 97.5251,56.5904 L142.2711,56.5904 C142.2711,56.5904 142.6351,53.0754 142.6351,51.4984 C142.6351,35.6114 133.4191,22.7574 116.0781,22.7574 L116.0781,22.7574 Z" id="Fill-4"></path>
            <path d="M283.9492,64.4733 C282.8582,67.6253 281.8882,71.7493 281.8882,71.7493 L281.6442,71.7493 C281.6442,71.7493 280.5532,67.5043 279.3422,64.3523 L263.9402,24.2543 L250.7232,24.2543 L276.4312,84.8453 L273.3982,91.8793 C271.0952,97.4573 267.0932,100.8533 262.3632,100.8533 C258.6042,100.8533 255.2092,98.3063 255.2092,98.3063 L251.0872,107.2803 C251.0872,107.2803 255.2552,110.3833 261.2412,110.9273 C261.8082,110.9783 262.3722,111.0393 262.9702,111.0393 C263.4892,111.0393 263.9892,110.9633 264.5002,110.9273 C272.4582,110.3663 279.3262,105.4983 282.8582,96.6083 L311.5972,24.2543 L298.8642,24.2543 L283.9492,64.4733 Z" id="Fill-6"></path>
            <path d="M225.9033,22.7574 C215.9593,22.7574 207.4703,29.3054 204.0753,36.7044 L203.8333,36.7044 C201.7723,27.4864 195.7083,22.7574 185.4013,22.7574 C175.8223,22.7574 167.2113,29.6704 164.3013,36.8254 L164.0593,36.8254 C164.0593,36.8254 164.3013,34.7644 164.3013,32.3384 L164.3013,24.2544 L152.9033,24.2544 L152.9033,85.5734 L164.6643,85.5734 L164.6643,57.5604 C164.6643,54.7714 164.7873,51.9824 165.3923,49.5584 C167.6973,40.8264 174.0033,33.4294 182.9753,33.4294 C192.4353,33.4294 193.6473,40.8264 193.6473,48.8304 L193.6473,85.5734 L205.4103,85.5734 L205.4103,57.5604 C205.4103,54.4084 205.6523,51.6194 206.2583,49.0724 C208.4413,40.7054 214.8683,33.4294 223.4783,33.4294 C232.6953,33.4294 234.3923,40.2214 234.3923,48.8304 L234.3923,85.5734 L246.1563,85.5734 L246.1563,46.2834 C246.1563,30.6404 239.7263,22.7574 225.9033,22.7574" id="Fill-9"></path>
            <path d="M326.4716,40.4635 C326.4716,35.1275 331.4456,32.9455 336.5366,32.9455 C346.2386,32.9455 351.6956,38.4025 351.6956,38.4025 L356.4246,29.5495 C356.4246,29.5495 350.1186,22.7575 336.6596,22.7575 C324.4106,22.7575 314.4666,29.0635 314.4666,40.2215 C314.4666,60.2285 345.9966,57.9255 345.9966,69.2025 C345.9966,74.1755 340.9036,76.8415 335.8106,76.8415 C325.1386,76.8415 318.2256,69.6885 318.2256,69.6885 L312.5466,78.0265 L312.5276,78.0555 L312.5466,78.0745 C312.6516,78.1875 320.8686,87.0285 335.8106,87.0285 C349.2696,87.0285 358.0016,79.3885 358.0016,69.2025 C358.0016,49.0725 326.4716,51.4985 326.4716,40.4635" id="Fill-11"></path>
            <path d="M397.2109,75.629 C392.7239,75.629 384.1129,74.052 384.1129,61.805 L384.1129,34.52 L398.9089,34.52 L398.9089,25.103 L384.1129,25.103 L384.1129,7.399 L372.7149,7.399 L372.7149,25.103 L364.3479,25.103 L364.3479,34.52 L372.3499,34.52 L372.3499,63.138 C372.3499,83.633 387.9949,86.057 395.8759,86.057 C398.3019,86.057 399.9999,85.815 399.9999,85.815 L399.9999,75.387 C399.9999,75.387 398.9089,75.629 397.2109,75.629" id="Fill-13"></path>
        </g>
    </g>
</svg>