<svg width="16" height="22" viewBox="0 0 16 22" fill="none" xmlns="http://www.w3.org/2000/svg">
<path fill-rule="evenodd" clip-rule="evenodd" d="M3.5 1C2.11929 1 1 2.11929 1 3.5C1 4.88071 2.11929 6 3.5 6C4.88071 6 6 4.88071 6 3.5C6 2.11929 4.88071 1 3.5 1ZM0 3.5C0 1.567 1.567 0 3.5 0C5.433 0 7 1.567 7 3.5C7 5.26324 5.69615 6.72194 4 6.96456V13.1558C4.44057 12.7597 5.07346 12.5 6 12.5C6.60003 12.5 7.1518 12.5079 7.65568 12.5157L7.78893 12.5178C8.24128 12.5248 8.6516 12.5312 9.02667 12.5312C9.8595 12.5312 10.4691 12.4986 10.9196 12.3891C11.3522 12.284 11.5854 12.1212 11.732 11.8892C11.8552 11.6942 11.9463 11.4055 11.9827 10.962C10.295 10.712 9 9.25722 9 7.5C9 5.567 10.567 4 12.5 4C14.433 4 16 5.567 16 7.5C16 9.26838 14.6885 10.7304 12.9852 10.9666C12.946 11.5433 12.8254 12.031 12.5774 12.4233C12.2501 12.9413 11.7521 13.216 11.1556 13.3609C10.5769 13.5014 9.85949 13.5312 9.02667 13.5312C8.64339 13.5312 8.22516 13.5247 7.77493 13.5177L7.7747 13.5177L7.64017 13.5156C7.13685 13.5078 6.5917 13.5 6 13.5C5.13167 13.5 4.74193 13.7792 4.51543 14.0623C4.38963 14.2196 4.29595 14.4017 4.20957 14.6032C4.18525 14.66 4.15772 14.7285 4.12848 14.8013L4.12847 14.8014L4.12846 14.8014L4.12844 14.8014C4.09723 14.8792 4.06407 14.9617 4.03078 15.04C5.7119 15.2957 7 16.7474 7 18.5C7 20.433 5.433 22 3.5 22C1.567 22 0 20.433 0 18.5C0 16.7368 1.30385 15.2781 3 15.0354V6.96456C1.30385 6.72194 0 5.26324 0 3.5ZM10 7.5C10 6.11929 11.1193 5 12.5 5C13.8807 5 15 6.11929 15 7.5C15 8.88071 13.8807 10 12.5 10C11.1193 10 10 8.88071 10 7.5ZM3.5 16C2.11929 16 1 17.1193 1 18.5C1 19.8807 2.11929 21 3.5 21C4.88071 21 6 19.8807 6 18.5C6 17.1193 4.88071 16 3.5 16Z" fill="#E1E1E1"/>
</svg>
