<svg xmlns="http://www.w3.org/2000/svg" width="9" height="9" viewBox="0 0 9 9" fill="none">
<path fill-rule="evenodd" clip-rule="evenodd" d="M0.853857 1.14066C0.658692 0.945301 0.342266 0.945301 0.147101 1.14066C-0.0480645 1.33602 -0.0480645 1.65276 0.147101 1.84812L3.29258 4.99671L0.146495 8.14071C-0.0488317 8.33591 -0.0488317 8.65239 0.146495 8.84758C0.341822 9.04278 0.658509 9.04278 0.853836 8.84758L3.99933 5.70417L7.14428 8.85224C7.33944 9.0476 7.65587 9.0476 7.85103 8.85224C8.0462 8.65688 8.0462 8.34014 7.85103 8.14478L4.70667 4.9973L7.8568 1.84926C8.05213 1.65406 8.05213 1.33758 7.8568 1.14239C7.66147 0.947188 7.34478 0.947189 7.14946 1.14239L3.99992 4.28984L0.853857 1.14066Z" fill="#B6C7FB"/>
</svg>