<svg xmlns="http://www.w3.org/2000/svg" width="14" height="16" viewBox="0 0 14 16" fill="none">
<path fill-rule="evenodd" clip-rule="evenodd" d="M3.33597 6.2066C3.34577 5.25619 3.45166 3.95665 3.8925 2.88794C4.12279 2.32966 4.43407 1.86037 4.84625 1.53189C5.25076 1.20953 5.78028 1 6.49731 1C7.21433 1 7.74386 1.20953 8.14836 1.53189C8.56054 1.86037 8.87183 2.32966 9.10211 2.88794C9.54296 3.95665 9.64884 5.25619 9.65864 6.2066H3.33597ZM2.33591 6.2066C2.34538 5.21272 2.45302 3.75519 2.96806 2.50661C3.24131 1.84417 3.63956 1.21483 4.22302 0.749853C4.81416 0.278756 5.56638 0 6.49731 0C7.42823 0 8.18045 0.278756 8.77159 0.749853C9.35505 1.21483 9.7533 1.84417 10.0266 2.50661C10.5416 3.75519 10.6492 5.21272 10.6587 6.2066H12.0569C12.6092 6.2066 13.0569 6.65431 13.0569 7.2066V14.9993C13.0569 15.5515 12.6092 15.9993 12.0569 15.9993H1C0.447715 15.9993 0 15.5515 0 14.9993V7.20659C0 6.65431 0.447715 6.2066 1 6.2066H2.33591Z" fill="#B6C7FB"/>
</svg>