<svg width="75" height="59" viewBox="0 0 75 59" fill="none" xmlns="http://www.w3.org/2000/svg">
<path fill-rule="evenodd" clip-rule="evenodd" d="M75.0002 21.0319H0.349609V20.0319H75.0002V21.0319Z" fill="#22DDE5"/>
<path d="M74.7312 0.268741V10.239H0.268817V0.268741H74.7312ZM75 0H0V10.5078H75V0Z" fill="#22DDE5"/>
<path fill-rule="evenodd" clip-rule="evenodd" d="M75.0002 31.2171H0.349609V30.2171H75.0002V31.2171Z" fill="#22DDE5"/>
<path fill-rule="evenodd" clip-rule="evenodd" d="M75.0002 41.3755H0.349609V40.3755H75.0002V41.3755Z" fill="#22DDE5"/>
<path fill-rule="evenodd" clip-rule="evenodd" d="M75.0001 51.5608H64.7313V50.5608H75.0001V51.5608Z" fill="#22DDE5"/>
<path fill-rule="evenodd" clip-rule="evenodd" d="M60.6722 51.5608H0.349609V50.5608H60.6722V51.5608Z" fill="#22DDE5"/>
<path fill-rule="evenodd" clip-rule="evenodd" d="M59.6047 45.7856L68.9454 54.1723L63.256 53.3052L60.9629 58.3632L59.6047 45.7856ZM60.8792 48.2738L61.564 54.6155L62.6579 52.2025L65.7857 52.6792L60.8792 48.2738Z" fill="#22DDE5"/>
</svg>
