<svg width="220" height="44" viewBox="0 0 220 44" fill="none" xmlns="http://www.w3.org/2000/svg">
<path d="M216 15H178C175.8 15 174 16.8 174 19V29C174 31.2 175.8 33 178 33H216C218.2 33 220 31.2 220 29V19C220 16.8 218.2 15 216 15ZM184.7 17.8C184.7 17.4 185.1 17 185.5 17C185.9 17 186.3 17.4 186.3 17.8V21.9C186.3 22.3 185.9 22.7 185.5 22.7C185.1 22.7 184.7 22.3 184.7 21.9V17.8ZM185.5 30C182.4 30 179.8 27.5 179.8 24.3C179.8 21.6 181.7 19.3 184.3 18.7V20.4C182.6 21 181.4 22.5 181.4 24.3C181.4 26.5 183.2 28.4 185.5 28.4C187.8 28.4 189.6 26.6 189.6 24.3C189.6 22.5 188.4 20.9 186.8 20.4V18.8C189.4 19.4 191.3 21.6 191.3 24.4C191.2 27.5 188.6 30 185.5 30ZM201.4 27H200.1L198.7 24.3H197.3V27H196V19.9H198.5C199.3 19.9 200 20.1 200.4 20.5C200.8 20.9 201.1 21.4 201.1 22.1C201.1 22.6 201 23 200.8 23.3C200.6 23.6 200.3 23.9 199.8 24L201.4 27ZM205.4 27V26.5C205.1 26.9 204.6 27.1 203.9 27.1C203.3 27.1 202.9 26.9 202.6 26.6C202.3 26.3 202.2 25.8 202.2 25.1V21.7H203.4V25.1C203.4 25.8 203.7 26.1 204.2 26.1C204.8 26.1 205.2 25.9 205.4 25.5V21.7H206.6V27H205.4ZM212.1 27H210.9V23.6C210.9 23.3 210.8 23 210.7 22.9C210.6 22.7 210.3 22.7 210 22.7C209.5 22.7 209.2 22.9 208.9 23.3V27H207.7V21.7H208.8V22.3C209.2 21.8 209.7 21.6 210.3 21.6C211.4 21.6 212 22.2 212 23.5V27H212.1Z" fill="#22DDE5"/>
<path d="M199.5 21.2C199.3 21 199 20.9 198.5 20.9H197.2V23.3H198.5C198.9 23.3 199.2 23.2 199.5 23C199.7 22.8 199.9 22.5 199.9 22.1C199.9 21.7 199.8 21.4 199.5 21.2Z" fill="#22DDE5"/>
<path fill-rule="evenodd" clip-rule="evenodd" d="M61.7421 1.93262C60.4055 1.93262 59.3185 3.02118 59.3185 4.36829V39.631C59.3185 40.9781 60.4055 42.0666 61.7421 42.0666H96.861C98.1977 42.0666 99.2847 40.9781 99.2847 39.631V4.36829C99.2847 3.02118 98.1977 1.93262 96.861 1.93262H61.7421ZM58.3185 4.36829C58.3185 2.47275 59.8494 0.932617 61.7421 0.932617H96.861C98.7538 0.932617 100.285 2.47275 100.285 4.36829V39.631C100.285 41.5265 98.7538 43.0666 96.861 43.0666H61.7421C59.8494 43.0666 58.3185 41.5265 58.3185 39.631V4.36829Z" fill="#22DDE5"/>
<path d="M42.9666 20.0512H42.5871V25.3596H42.9666C43.6416 25.3209 44.2762 25.0244 44.7404 24.5309C45.2047 24.0373 45.4633 23.3842 45.4633 22.7054C45.4633 22.0266 45.2047 21.3734 44.7404 20.8799C44.2762 20.3864 43.6416 20.0899 42.9666 20.0512Z" fill="#22DDE5"/>
<path d="M58.0681 20.0511C57.7083 20.0305 57.348 20.0838 57.0094 20.2079C56.6708 20.332 56.3611 20.5241 56.099 20.7726C55.837 21.0211 55.6283 21.3207 55.4856 21.653C55.3429 21.9854 55.2693 22.3435 55.2693 22.7054C55.2693 23.0673 55.3429 23.4254 55.4856 23.7577C55.6283 24.09 55.837 24.3896 56.099 24.6381C56.3611 24.8866 56.6708 25.0788 57.0094 25.2029C57.348 25.3269 57.7083 25.3802 58.0681 25.3596H58.7839V20.0511H58.0681Z" fill="#22DDE5"/>
<path fill-rule="evenodd" clip-rule="evenodd" d="M56.0148 23.1924L42.3968 23.1751L42.3981 22.1751L56.0161 22.1924L56.0148 23.1924Z" fill="#22DDE5"/>
<path d="M57.4051 22.6058L57.3264 22.5539V22.6491L57.4051 22.6058Z" fill="#22DDE5"/>
<path fill-rule="evenodd" clip-rule="evenodd" d="M56.3264 20.6957L59.3386 22.6837L56.3264 24.3404V20.6957Z" fill="#22DDE5"/>
<path fill-rule="evenodd" clip-rule="evenodd" d="M119.526 1.93262C118.189 1.93262 117.102 3.02118 117.102 4.36829V39.631C117.102 40.9781 118.189 42.0666 119.526 42.0666H154.645C155.982 42.0666 157.069 40.9781 157.069 39.631V4.36829C157.069 3.02118 155.982 1.93262 154.645 1.93262H119.526ZM116.102 4.36829C116.102 2.47275 117.633 0.932617 119.526 0.932617H154.645C156.538 0.932617 158.069 2.47275 158.069 4.36829V39.631C158.069 41.5265 156.538 43.0666 154.645 43.0666H119.526C117.633 43.0666 116.102 41.5265 116.102 39.631V4.36829Z" fill="#22DDE5"/>
<path fill-rule="evenodd" clip-rule="evenodd" d="M4.35485 1.93262C3.0182 1.93262 1.93115 3.02118 1.93115 4.36829V39.631C1.93115 40.9781 3.0182 42.0666 4.35485 42.0666H39.4737C40.8104 42.0666 41.8974 40.9781 41.8974 39.631V4.36829C41.8974 3.02118 40.8104 1.93262 39.4737 1.93262H4.35485ZM0.931152 4.36829C0.931152 2.47275 2.46207 0.932617 4.35485 0.932617H39.4737C41.3665 0.932617 42.8974 2.47275 42.8974 4.36829V39.631C42.8974 41.5265 41.3665 43.0666 39.4737 43.0666H4.35485C2.46207 43.0666 0.931152 41.5265 0.931152 39.631V4.36829Z" fill="#22DDE5"/>
<path d="M100.181 24.814C101.372 24.814 102.338 23.8448 102.338 22.6491C102.338 21.4534 101.372 20.4841 100.181 20.4841C98.9906 20.4841 98.0253 21.4534 98.0253 22.6491C98.0253 23.8448 98.9906 24.814 100.181 24.814Z" fill="#22DDE5"/>
<path fill-rule="evenodd" clip-rule="evenodd" d="M100.181 20.9841C99.2687 20.9841 98.5253 21.7276 98.5253 22.6491C98.5253 23.5705 99.2687 24.314 100.181 24.314C101.094 24.314 101.838 23.5705 101.838 22.6491C101.838 21.7276 101.094 20.9841 100.181 20.9841ZM97.5253 22.6491C97.5253 21.1792 98.7126 19.9841 100.181 19.9841C101.65 19.9841 102.838 21.1792 102.838 22.6491C102.838 24.119 101.65 25.314 100.181 25.314C98.7126 25.314 97.5253 24.119 97.5253 22.6491Z" fill="#22DDE5"/>
<path fill-rule="evenodd" clip-rule="evenodd" d="M112.255 23.1318L102.337 23.1231L102.338 22.1231L112.256 22.1318L112.255 23.1318Z" fill="#22DDE5"/>
<path d="M111.764 24.3204L114.671 22.6404L111.764 20.9518V24.3204Z" fill="#22DDE5"/>
</svg>
