<svg width="82" height="60" viewBox="0 0 82 60" fill="none" xmlns="http://www.w3.org/2000/svg">
<path fill-rule="evenodd" clip-rule="evenodd" d="M20.3051 23.2214L27.3898 29.6042L23.0955 28.9429L21.3359 32.818L20.3051 23.2214ZM21.5787 25.7148L21.9392 29.0708L22.4984 27.8391L24.2332 28.1063L21.5787 25.7148Z" fill="#22DDE5"/>
<path fill-rule="evenodd" clip-rule="evenodd" d="M2.78551 1.5C2.08823 1.5 1.5 2.08809 1.5 2.78738V24.3752C1.5 25.0976 2.08823 25.6857 2.8087 25.6857H21.1276V26.6857H2.8087C1.53496 26.6857 0.5 25.649 0.5 24.3752V2.78738C0.5 1.53679 1.53496 0.5 2.78551 0.5H24.3508C25.6245 0.5 26.6595 1.53679 26.6595 2.81059V24.3984C26.6595 25.6722 25.6245 26.709 24.3508 26.709H22.8435V25.709H24.3508C25.0713 25.709 25.6595 25.1209 25.6595 24.3984V2.81059C25.6595 2.08809 25.0713 1.5 24.3508 1.5H2.78551Z" fill="#22DDE5"/>
<path fill-rule="evenodd" clip-rule="evenodd" d="M10.0433 9.39241C8.78948 9.39241 7.76067 10.4215 7.76067 11.6779V56.2463C7.76067 57.5026 8.78948 58.5318 10.0433 58.5318H78.2174C79.4712 58.5318 80.5 57.5026 80.5 56.2463V11.6779C80.5 10.4215 79.4712 9.39241 78.2174 9.39241H10.0433ZM6.76067 11.6779C6.76067 9.87025 8.23621 8.39241 10.0433 8.39241H78.2174C80.0245 8.39241 81.5 9.87025 81.5 11.6779V56.2463C81.5 58.0539 80.0245 59.5318 78.2174 59.5318H10.0433C8.23621 59.5318 6.76067 58.0539 6.76067 56.2463V11.6779Z" fill="#22DDE5"/>
<path fill-rule="evenodd" clip-rule="evenodd" d="M57.6161 30.2837V35.203H62.5292V30.2837H57.6161ZM56.6161 30.2016C56.6161 29.6938 57.025 29.2837 57.5335 29.2837H62.6118C63.1203 29.2837 63.5292 29.6938 63.5292 30.2016V35.2851C63.5292 35.7929 63.1203 36.203 62.6118 36.203H57.5335C57.025 36.203 56.6161 35.7929 56.6161 35.2851V30.2016Z" fill="#22DDE5"/>
<path fill-rule="evenodd" clip-rule="evenodd" d="M49.0361 30.2837V35.203H53.9492V30.2837H49.0361ZM48.0361 30.2016C48.0361 29.6938 48.445 29.2837 48.9535 29.2837H54.0318C54.5403 29.2837 54.9492 29.6938 54.9492 30.2016V35.2851C54.9492 35.7929 54.5403 36.203 54.0318 36.203H48.9535C48.445 36.203 48.0361 35.7929 48.0361 35.2851V30.2016Z" fill="#22DDE5"/>
<path fill-rule="evenodd" clip-rule="evenodd" d="M40.4566 30.2837V35.203H45.3697V30.2837H40.4566ZM39.4566 30.2016C39.4566 29.6938 39.8655 29.2837 40.374 29.2837H45.4523C45.9608 29.2837 46.3697 29.6938 46.3697 30.2016V35.2851C46.3697 35.7929 45.9608 36.203 45.4523 36.203H40.374C39.8655 36.203 39.4566 35.7929 39.4566 35.2851V30.2016Z" fill="#22DDE5"/>
</svg>
