<svg width="113" height="113" viewBox="0 0 113 113" fill="none" xmlns="http://www.w3.org/2000/svg">
<g clip-path="url(#clip0)">
<path d="M85.9138 42.3221H27.12C21.5103 42.3221 16.9627 46.8697 16.9627 52.4794V81.0892C16.9627 86.6989 21.5103 91.2465 27.12 91.2465H85.9138C91.5236 91.2465 96.0711 86.6989 96.0711 81.0892V52.4794C96.0711 46.8697 91.5236 42.3221 85.9138 42.3221Z" stroke="#22DDE5" stroke-width="2" stroke-miterlimit="10"/>
<path d="M39.1818 75.4519C44.0015 75.4519 47.9086 71.5448 47.9086 66.7251C47.9086 61.9054 44.0015 57.9983 39.1818 57.9983C34.3621 57.9983 30.455 61.9054 30.455 66.7251C30.455 71.5448 34.3621 75.4519 39.1818 75.4519Z" stroke="#22DDE5" stroke-width="2" stroke-miterlimit="10"/>
<path d="M74.0891 75.4519C78.9087 75.4519 82.8159 71.5448 82.8159 66.7251C82.8159 61.9054 78.9087 57.9983 74.0891 57.9983C69.2694 57.9983 65.3622 61.9054 65.3622 66.7251C65.3622 71.5448 69.2694 75.4519 74.0891 75.4519Z" stroke="#22DDE5" stroke-width="2" stroke-miterlimit="10"/>
<path d="M61.7141 83.7215H51.8192C50.7827 83.7193 49.7893 83.3066 49.0564 82.5737C48.3236 81.8408 47.9108 80.8474 47.9086 79.811C47.9108 78.7737 48.3233 77.7795 49.0559 77.0452C49.7886 76.311 50.7819 75.8964 51.8192 75.892H61.7141C62.7513 75.8964 63.7447 76.311 64.4773 77.0452C65.21 77.7795 65.6224 78.7737 65.6246 79.811C65.6224 80.8474 65.2097 81.8408 64.4768 82.5737C63.7439 83.3066 62.7505 83.7193 61.7141 83.7215V83.7215Z" stroke="#22DDE5" stroke-miterlimit="10"/>
<path d="M54.5024 83.9332V76.1036" stroke="#22DDE5" stroke-miterlimit="10"/>
<path d="M59.4456 83.5184V75.6888" stroke="#22DDE5" stroke-miterlimit="10"/>
<path d="M56.974 30.6582V42.3222" stroke="#22DDE5" stroke-width="2" stroke-miterlimit="10"/>
<path d="M104.205 0.846436H8.79453C4.40492 0.846436 0.846436 4.40492 0.846436 8.79453V104.205C0.846436 108.595 4.40492 112.154 8.79453 112.154H104.205C108.595 112.154 112.154 108.595 112.154 104.205V8.79453C112.154 4.40492 108.595 0.846436 104.205 0.846436Z" stroke="#22DDE5" stroke-width="2" stroke-miterlimit="10"/>
<path d="M56.974 30.6581C59.246 30.6581 61.0877 28.8163 61.0877 26.5444C61.0877 24.2724 59.246 22.4307 56.974 22.4307C54.7021 22.4307 52.8603 24.2724 52.8603 26.5444C52.8603 28.8163 54.7021 30.6581 56.974 30.6581Z" stroke="url(#paint0_linear)" stroke-width="2" stroke-miterlimit="10"/>
</g>
<defs>
<linearGradient id="paint0_linear" x1="52.0139" y1="26.5444" x2="61.9342" y2="26.5444" gradientUnits="userSpaceOnUse">
<stop stop-color="white"/>
<stop offset="1" stop-color="#D9EBEB"/>
</linearGradient>
<clipPath id="clip0">
<rect width="113" height="113" fill="white"/>
</clipPath>
</defs>
</svg>
