<svg width="20" height="20" viewBox="0 0 20 20" fill="none" xmlns="http://www.w3.org/2000/svg">
<path fill-rule="evenodd" clip-rule="evenodd" d="M6.29393 7C6.29393 3.68629 8.98022 1 12.2939 1C15.6076 1 18.2939 3.68629 18.2939 7C18.2939 10.3137 15.6076 13 12.2939 13C8.98022 13 6.29393 10.3137 6.29393 7ZM12.2939 0C8.42793 0 5.29393 3.13401 5.29393 7C5.29393 8.93232 6.07688 10.6818 7.34285 11.9484L0.158776 19.1325C-0.0364863 19.3278 -0.0364865 19.6443 0.158776 19.8396C0.354038 20.0349 0.67062 20.0349 0.865882 19.8396L8.10024 12.6053C9.26908 13.4811 10.7209 14 12.2939 14C16.1599 14 19.2939 10.866 19.2939 7C19.2939 3.13401 16.1599 0 12.2939 0Z" fill="#E1E1E1"/>
</svg>
