<?xml version="1.0" encoding="UTF-8"?>
<svg xmlns="http://www.w3.org/2000/svg" xmlns:xlink="http://www.w3.org/1999/xlink" width="336pt" height="200pt" viewBox="0 0 336 200" version="1.1">
<defs>
<clipPath id="clip1">
  <path d="M 97 154 L 336 154 L 336 191.210938 L 97 191.210938 Z M 97 154 "/>
</clipPath>
<clipPath id="clip2">
  <path d="M 97 0 L 157 0 L 157 191.210938 L 97 191.210938 Z M 97 0 "/>
</clipPath>
<clipPath id="clip3">
  <path d="M 97 29 L 293 29 L 293 191.210938 L 97 191.210938 Z M 97 29 "/>
</clipPath>
<clipPath id="clip4">
  <path d="M 286 0 L 336 0 L 336 191.210938 L 286 191.210938 Z M 286 0 "/>
</clipPath>
</defs>
<g id="surface1">
<g clip-path="url(#clip1)" clip-rule="nonzero">
<path style="fill:none;stroke-width:8;stroke-linecap:round;stroke-linejoin:round;stroke:rgb(0.784314%,42.352941%,60.784314%);stroke-opacity:1;stroke-miterlimit:4;" d="M 424.261676 12.013822 L 147.498855 12.013822 L 224.879808 58.651743 L 504.103709 59.045673 Z M 424.261676 12.013822 " transform="matrix(0.6825,0,0,-0.684211,0,197.368421)"/>
</g>
<g clip-path="url(#clip2)" clip-rule="nonzero">
<path style="fill:none;stroke-width:8;stroke-linecap:round;stroke-linejoin:round;stroke:rgb(0.784314%,42.352941%,60.784314%);stroke-opacity:1;stroke-miterlimit:4;" d="M 224.879808 58.651743 L 147.498855 12.013822 L 147.458791 241.315505 L 224.879808 286.189303 Z M 224.879808 58.651743 " transform="matrix(0.6825,0,0,-0.684211,0,197.368421)"/>
</g>
<path style=" stroke:none;fill-rule:nonzero;fill:rgb(0%,0%,0%);fill-opacity:1;" d="M 311.65625 77.183594 C 311.65625 96.78125 270.917969 112.652344 220.664062 112.652344 C 170.414062 112.652344 129.675781 96.78125 129.675781 77.183594 L 129.675781 129.144531 C 129.675781 148.734375 170.414062 164.613281 220.664062 164.613281 C 270.917969 164.613281 311.65625 148.734375 311.65625 129.144531 L 311.65625 77.183594 "/>
<path style="fill:none;stroke-width:4.2;stroke-linecap:butt;stroke-linejoin:miter;stroke:rgb(100%,100%,100%);stroke-opacity:1;stroke-miterlimit:4;" d="M 456.639194 175.654748 C 456.639194 147.012019 396.949405 123.815805 323.317308 123.815805 C 249.690934 123.815805 190.001145 147.012019 190.001145 175.654748 L 190.001145 99.711839 C 190.001145 71.080529 249.690934 47.872897 323.317308 47.872897 C 396.949405 47.872897 456.639194 71.080529 456.639194 99.711839 Z M 456.639194 175.654748 " transform="matrix(0.6825,0,0,-0.684211,0,197.368421)"/>
<path style=" stroke:none;fill-rule:nonzero;fill:rgb(0.784314%,42.352941%,60.784314%);fill-opacity:1;" d="M 311.65625 77.183594 C 311.65625 96.78125 270.917969 112.652344 220.664062 112.652344 C 170.414062 112.652344 129.675781 96.78125 129.675781 77.183594 L 129.675781 129.144531 C 129.675781 148.734375 170.414062 164.613281 220.664062 164.613281 C 270.917969 164.613281 311.65625 148.734375 311.65625 129.144531 L 311.65625 77.183594 "/>
<path style="fill:none;stroke-width:4;stroke-linecap:butt;stroke-linejoin:miter;stroke:rgb(100%,100%,100%);stroke-opacity:1;stroke-miterlimit:4;" d="M 456.639194 175.654748 C 456.639194 147.012019 396.949405 123.815805 323.317308 123.815805 C 249.690934 123.815805 190.001145 147.012019 190.001145 175.654748 L 190.001145 99.711839 C 190.001145 71.080529 249.690934 47.872897 323.317308 47.872897 C 396.949405 47.872897 456.639194 71.080529 456.639194 99.711839 Z M 456.639194 175.654748 " transform="matrix(0.6825,0,0,-0.684211,0,197.368421)"/>
<path style=" stroke:none;fill-rule:nonzero;fill:rgb(0.784314%,42.352941%,60.784314%);fill-opacity:1;" d="M 220.664062 112.652344 C 270.917969 112.652344 311.65625 96.78125 311.65625 77.183594 C 311.65625 57.597656 270.917969 41.722656 220.664062 41.722656 C 170.414062 41.722656 129.675781 57.597656 129.675781 77.183594 C 129.675781 96.78125 170.414062 112.652344 220.664062 112.652344 "/>
<path style="fill:none;stroke-width:4;stroke-linecap:butt;stroke-linejoin:miter;stroke:rgb(100%,100%,100%);stroke-opacity:1;stroke-miterlimit:4;" d="M 323.317308 123.815805 C 396.949405 123.815805 456.639194 147.012019 456.639194 175.654748 C 456.639194 204.280349 396.949405 227.482272 323.317308 227.482272 C 249.690934 227.482272 190.001145 204.280349 190.001145 175.654748 C 190.001145 147.012019 249.690934 123.815805 323.317308 123.815805 Z M 323.317308 123.815805 " transform="matrix(0.6825,0,0,-0.684211,0,197.368421)"/>
<path style=" stroke:none;fill-rule:nonzero;fill:rgb(100%,100%,100%);fill-opacity:1;" d="M 200.75 62.964844 L 208.375 74.433594 L 179.558594 81.121094 L 185.84375 75.851562 L 141.324219 68.238281 L 152.5 59.839844 L 195.449219 67.140625 L 200.75 62.964844 M 241.277344 90.769531 L 236.074219 78.953125 L 262.066406 73.738281 L 257.5625 77.800781 L 300.886719 85.203125 L 290.488281 93.546875 L 247.433594 85.445312 L 241.277344 90.769531 M 227.089844 56.714844 L 256.179688 48.75 L 256.523438 61.253906 L 249.25 59.839844 L 235.039062 71.660156 L 221.492188 69.679688 L 236.160156 58.128906 L 227.089844 56.714844 M 214.613281 101.535156 L 186.886719 106.75 L 185.84375 93.894531 L 193.816406 95.632812 L 209.070312 82.558594 L 222.554688 84.855469 L 206.300781 99.101562 L 214.613281 101.535156 "/>
<g clip-path="url(#clip3)" clip-rule="nonzero">
<path style="fill:none;stroke-width:8;stroke-linecap:round;stroke-linejoin:round;stroke:rgb(0.784314%,42.352941%,60.784314%);stroke-opacity:1;stroke-miterlimit:4;" d="M 424.261676 12.013822 L 147.498855 12.013822 L 147.458791 241.315505 L 424.221612 241.315505 Z M 424.261676 12.013822 " transform="matrix(0.6825,0,0,-0.684211,0,197.368421)"/>
</g>
<g clip-path="url(#clip4)" clip-rule="nonzero">
<path style="fill:none;stroke-width:8;stroke-linecap:round;stroke-linejoin:round;stroke:rgb(0.784314%,42.352941%,60.784314%);stroke-opacity:1;stroke-miterlimit:4;" d="M 504.103709 59.045673 L 424.261676 12.013822 L 424.221612 241.315505 L 504.017857 286.942909 Z M 504.103709 59.045673 " transform="matrix(0.6825,0,0,-0.684211,0,197.368421)"/>
</g>
<path style="fill:none;stroke-width:8;stroke-linecap:round;stroke-linejoin:round;stroke:rgb(0.784314%,42.352941%,60.784314%);stroke-opacity:1;stroke-miterlimit:4;" d="M 424.221612 241.315505 L 147.458791 241.315505 L 224.879808 286.189303 L 504.017857 286.942909 Z M 3.977793 140.760517 L 133.980082 140.760517 M 45.66163 102.686298 L 132.337454 102.686298 M 133.980082 193.815505 L 62.299679 193.815505 M 28.977793 159.794772 L 132.337454 159.794772 " transform="matrix(0.6825,0,0,-0.684211,0,197.368421)"/>
</g>
</svg>
