<?xml version="1.0" encoding="UTF-8"?>
<svg xmlns="http://www.w3.org/2000/svg" xmlns:xlink="http://www.w3.org/1999/xlink" width="268pt" height="200pt" viewBox="0 0 268 200" version="1.1">
<g id="surface1">
<path style=" stroke:none;fill-rule:nonzero;fill:rgb(3.137255%,48.235294%,73.333333%);fill-opacity:1;" d="M 3.449219 191.171875 L 235.804688 191.171875 L 235.804688 38.351562 L 3.449219 38.351562 Z M 3.449219 191.171875 "/>
<path style="fill:none;stroke-width:0.5;stroke-linecap:butt;stroke-linejoin:miter;stroke:rgb(100%,100%,100%);stroke-opacity:1;stroke-miterlimit:4;" d="M 0.707862 39.190234 L 48.392753 39.190234 L 48.392753 7.862871 L 0.707862 7.862871 Z M 0.707862 39.190234 " transform="matrix(4.872727,0,0,4.878049,0,0)"/>
<path style=" stroke:none;fill-rule:nonzero;fill:rgb(3.137255%,48.235294%,73.333333%);fill-opacity:1;" d="M 262.527344 152.042969 L 235.804688 191.175781 L 235.804688 38.351562 L 262.527344 5.914062 L 262.527344 152.046875 "/>
<path style="fill:none;stroke-width:0.5;stroke-linecap:butt;stroke-linejoin:miter;stroke:rgb(100%,100%,100%);stroke-opacity:1;stroke-miterlimit:4;" d="M 53.87688 31.168008 L 48.392753 39.190234 L 48.392753 7.862871 L 53.87688 1.213184 Z M 53.87688 31.168008 " transform="matrix(4.872727,0,0,4.878049,0,0)"/>
<path style=" stroke:none;fill-rule:nonzero;fill:rgb(3.137255%,48.235294%,73.333333%);fill-opacity:1;" d="M 43.539062 5.914062 L 262.527344 5.914062 L 235.804688 38.351562 L 3.449219 38.351562 L 43.539062 5.914062 "/>
<path style="fill:none;stroke-width:0.5;stroke-linecap:butt;stroke-linejoin:miter;stroke:rgb(100%,100%,100%);stroke-opacity:1;stroke-miterlimit:4;" d="M 8.935255 1.213184 L 53.87688 1.213184 L 48.392753 7.862871 L 0.707862 7.862871 Z M 8.935255 1.213184 " transform="matrix(4.872727,0,0,4.878049,0,0)"/>
<path style=" stroke:none;fill-rule:nonzero;fill:rgb(100%,100%,100%);fill-opacity:1;" d="M 37.402344 78.511719 L 16.746094 78.5625 L 16.746094 72.367188 L 37.40625 72.347656 L 37.40625 62.679688 L 59.933594 75.4375 L 37.402344 88.210938 L 37.402344 78.511719 M 37.402344 117.144531 L 16.746094 117.171875 L 16.746094 110.976562 L 37.40625 110.957031 L 37.40625 101.289062 L 59.933594 114.046875 L 37.402344 126.816406 L 37.402344 117.144531 M 37.402344 155.757812 L 16.746094 155.78125 L 16.746094 149.585938 L 37.40625 149.566406 L 37.40625 139.902344 L 59.933594 152.683594 L 37.402344 165.453125 L 37.402344 155.757812 M 211.28125 117.53125 L 184.226562 117.570312 L 184.226562 111.386719 L 211.28125 111.359375 L 211.300781 101.6875 L 233.835938 114.457031 L 211.300781 127.222656 L 211.28125 117.53125 M 78.683594 116.835938 C 78.675781 141.527344 98.675781 161.550781 123.34375 161.542969 L 123.34375 116.835938 L 78.683594 116.835938 M 123.34375 72.101562 C 148.019531 72.101562 168 92.140625 168 116.835938 L 123.339844 116.835938 L 123.339844 72.101562 "/>
</g>
</svg>
