<?xml version="1.0" encoding="UTF-8"?>
<svg xmlns="http://www.w3.org/2000/svg" xmlns:xlink="http://www.w3.org/1999/xlink" width="116pt" height="200pt" viewBox="0 0 116 200" version="1.1">
<defs>
<clipPath id="clip1">
  <path d="M 80 0 L 115.792969 0 L 115.792969 192.5 L 80 192.5 Z M 80 0 "/>
</clipPath>
<clipPath id="clip2">
  <path d="M 1 18 L 94 18 L 94 192.5 L 1 192.5 Z M 1 18 "/>
</clipPath>
<clipPath id="clip3">
  <path d="M 0 0 L 115.792969 0 L 115.792969 33 L 0 33 Z M 0 0 "/>
</clipPath>
</defs>
<g id="surface1">
<path style=" stroke:none;fill-rule:nonzero;fill:rgb(0.784314%,43.921569%,62.352941%);fill-opacity:1;" d="M 113.3125 170.804688 L 92.714844 191.011719 L 92.714844 19.984375 L 113.3125 -0.21875 L 113.3125 170.804688 "/>
<g clip-path="url(#clip1)" clip-rule="nonzero">
<path style="fill:none;stroke-width:4;stroke-linecap:butt;stroke-linejoin:miter;stroke:rgb(100%,100%,100%);stroke-opacity:1;stroke-miterlimit:4;" d="M 210.394562 50.052885 L 172.149577 12.747596 L 172.149577 328.490385 L 210.394562 365.788462 Z M 210.394562 50.052885 " transform="matrix(0.538571,0,0,-0.541667,0,197.916667)"/>
</g>
<path style=" stroke:none;fill-rule:nonzero;fill:rgb(0.784314%,43.921569%,62.352941%);fill-opacity:1;" d="M 2.652344 191.011719 L 92.714844 191.011719 L 92.714844 19.984375 L 2.652344 19.984375 Z M 2.652344 191.011719 "/>
<g clip-path="url(#clip2)" clip-rule="nonzero">
<path style="fill:none;stroke-width:4;stroke-linecap:butt;stroke-linejoin:miter;stroke:rgb(100%,100%,100%);stroke-opacity:1;stroke-miterlimit:4;" d="M 4.924776 12.747596 L 172.149577 12.747596 L 172.149577 328.490385 L 4.924776 328.490385 Z M 4.924776 12.747596 " transform="matrix(0.538571,0,0,-0.541667,0,197.916667)"/>
</g>
<path style=" stroke:none;fill-rule:nonzero;fill:rgb(0.784314%,43.921569%,62.352941%);fill-opacity:1;" d="M 23.246094 -0.21875 L 113.3125 -0.21875 L 92.714844 19.984375 L 2.652344 19.984375 L 23.246094 -0.21875 "/>
<g clip-path="url(#clip3)" clip-rule="nonzero">
<path style="fill:none;stroke-width:4;stroke-linecap:butt;stroke-linejoin:miter;stroke:rgb(100%,100%,100%);stroke-opacity:1;stroke-miterlimit:4;" d="M 43.162508 365.788462 L 210.394562 365.788462 L 172.149577 328.490385 L 4.924776 328.490385 Z M 43.162508 365.788462 " transform="matrix(0.538571,0,0,-0.541667,0,197.916667)"/>
</g>
<path style=" stroke:none;fill-rule:nonzero;fill:rgb(100%,100%,100%);fill-opacity:1;" d="M 27.074219 61.796875 L 65.996094 61.796875 L 65.996094 38.773438 L 27.074219 38.773438 Z M 19.648438 87.628906 C 22.765625 87.628906 25.304688 85.09375 25.304688 81.941406 C 25.304688 78.789062 22.765625 76.25 19.648438 76.25 C 16.511719 76.25 13.972656 78.789062 13.972656 81.941406 C 13.972656 85.09375 16.511719 87.628906 19.648438 87.628906 M 19.648438 108.347656 C 22.765625 108.347656 25.304688 105.804688 25.304688 102.65625 C 25.304688 99.503906 22.765625 96.960938 19.648438 96.960938 C 16.511719 96.960938 13.972656 99.503906 13.972656 102.65625 C 13.972656 105.804688 16.511719 108.347656 19.648438 108.347656 M 19.648438 129.082031 C 22.765625 129.082031 25.304688 126.519531 25.304688 123.367188 C 25.304688 120.234375 22.765625 117.671875 19.648438 117.671875 C 16.511719 117.671875 13.972656 120.234375 13.972656 123.367188 C 13.972656 126.519531 16.511719 129.082031 19.648438 129.082031 M 19.648438 149.796875 C 22.765625 149.796875 25.304688 147.234375 25.304688 144.082031 C 25.304688 140.949219 22.765625 138.386719 19.648438 138.386719 C 16.511719 138.386719 13.972656 140.949219 13.972656 144.078125 C 13.972656 147.230469 16.511719 149.796875 19.648438 149.796875 M 19.648438 170.507812 C 22.765625 170.507812 25.304688 167.953125 25.304688 164.816406 C 25.304688 161.664062 22.765625 159.105469 19.648438 159.105469 C 16.511719 159.105469 13.972656 161.664062 13.972656 164.816406 C 13.972656 167.953125 16.511719 170.507812 19.648438 170.507812 "/>
<path style="fill:none;stroke-width:4;stroke-linecap:butt;stroke-linejoin:miter;stroke:rgb(100%,100%,100%);stroke-opacity:1;stroke-miterlimit:4;" d="M 50.270433 217.317308 L 118.281664 217.317308 M 50.270433 179.067308 L 118.281664 179.067308 M 50.270433 140.788462 L 118.281664 140.788462 M 50.270433 102.552885 L 118.281664 102.552885 M 50.270433 64.310096 L 118.281664 64.310096 " transform="matrix(0.538571,0,0,-0.541667,0,197.916667)"/>
<path style=" stroke:none;fill-rule:nonzero;fill:rgb(100%,100%,100%);fill-opacity:1;" d="M 72.285156 87.628906 C 75.421875 87.628906 77.949219 85.09375 77.949219 81.941406 C 77.949219 80.429688 77.355469 78.980469 76.292969 77.914062 C 75.230469 76.84375 73.789062 76.246094 72.285156 76.25 C 70.785156 76.246094 69.34375 76.84375 68.28125 77.914062 C 67.21875 78.980469 66.625 80.429688 66.628906 81.941406 C 66.628906 85.09375 69.152344 87.628906 72.285156 87.628906 M 72.285156 108.347656 C 75.421875 108.347656 77.949219 105.804688 77.949219 102.65625 C 77.949219 101.144531 77.355469 99.695312 76.292969 98.625 C 75.230469 97.558594 73.789062 96.957031 72.285156 96.960938 C 70.785156 96.957031 69.34375 97.558594 68.28125 98.625 C 67.21875 99.695312 66.625 101.144531 66.628906 102.65625 C 66.625 104.164062 67.21875 105.613281 68.28125 106.683594 C 69.34375 107.75 70.785156 108.351562 72.285156 108.347656 M 72.285156 129.082031 C 75.421875 129.082031 77.949219 126.519531 77.949219 123.367188 C 77.949219 120.234375 75.421875 117.671875 72.285156 117.671875 C 69.152344 117.671875 66.628906 120.234375 66.628906 123.367188 C 66.628906 126.519531 69.152344 129.082031 72.285156 129.082031 M 72.285156 149.796875 C 75.421875 149.796875 77.949219 147.234375 77.949219 144.082031 C 77.949219 140.949219 75.421875 138.386719 72.285156 138.386719 C 69.152344 138.386719 66.628906 140.949219 66.628906 144.078125 C 66.628906 147.230469 69.152344 149.796875 72.285156 149.796875 M 72.285156 170.507812 C 75.421875 170.507812 77.949219 167.953125 77.949219 164.816406 C 77.949219 161.664062 75.421875 159.105469 72.285156 159.105469 C 69.152344 159.105469 66.628906 161.664062 66.628906 164.816406 C 66.628906 167.953125 69.152344 170.507812 72.285156 170.507812 "/>
</g>
</svg>
