<?xml version="1.0" encoding="UTF-8"?>
<svg xmlns="http://www.w3.org/2000/svg" xmlns:xlink="http://www.w3.org/1999/xlink" width="200pt" height="200pt" viewBox="0 0 200 200" version="1.1">
<g id="surface1">
<path style=" stroke:none;fill-rule:nonzero;fill:rgb(3.137255%,48.235294%,73.333333%);fill-opacity:1;" d="M 201 39.914062 C 201 61.375 156.246094 78.78125 101.054688 78.78125 C 45.839844 78.78125 1.082031 61.375 1.082031 39.914062 L 1.082031 163.304688 C 1.082031 184.785156 45.835938 202.175781 101.054688 202.175781 C 156.253906 202.175781 201 184.785156 201 163.304688 L 201 39.914062 "/>
<path style="fill:none;stroke-width:0.5;stroke-linecap:butt;stroke-linejoin:miter;stroke:rgb(100%,100%,100%);stroke-opacity:1;stroke-miterlimit:4;" d="M 46.23 9.180234 C 46.23 14.11625 35.936602 18.119688 23.242578 18.119688 C 10.543164 18.119688 0.248867 14.11625 0.248867 9.180234 L 0.248867 37.560078 C 0.248867 42.500586 10.542266 46.50043 23.242578 46.50043 C 35.938398 46.50043 46.23 42.500586 46.23 37.560078 Z M 46.23 9.180234 " transform="matrix(4.347826,0,0,4.347826,0,0)"/>
<path style=" stroke:none;fill-rule:nonzero;fill:rgb(3.137255%,48.235294%,73.333333%);fill-opacity:1;" d="M 101.054688 78.78125 C 156.253906 78.78125 201 61.375 201 39.914062 C 201 18.433594 156.253906 1.023438 101.054688 1.023438 C 45.839844 1.023438 1.082031 18.429688 1.082031 39.914062 C 1.082031 61.375 45.835938 78.78125 101.054688 78.78125 "/>
<path style="fill:none;stroke-width:0.5;stroke-linecap:butt;stroke-linejoin:miter;stroke:rgb(100%,100%,100%);stroke-opacity:1;stroke-miterlimit:4;" d="M 23.242578 18.119688 C 35.938398 18.119688 46.23 14.11625 46.23 9.180234 C 46.23 4.239727 35.938398 0.235391 23.242578 0.235391 C 10.543164 0.235391 0.248867 4.238828 0.248867 9.180234 C 0.248867 14.11625 10.542266 18.119688 23.242578 18.119688 Z M 23.242578 18.119688 " transform="matrix(4.347826,0,0,4.347826,0,0)"/>
<path style=" stroke:none;fill-rule:nonzero;fill:rgb(100%,100%,100%);fill-opacity:1;" d="M 90.1875 99.253906 L 90.1875 173.535156 L 177.03125 137.609375 L 90.1875 99.253906 M 80.820312 98.546875 L 80.820312 114.085938 L 52.648438 114.109375 L 52.648438 98.589844 L 80.820312 98.546875 "/>
<path style="fill:none;stroke-width:0.5;stroke-linecap:butt;stroke-linejoin:miter;stroke:rgb(13.72549%,12.156863%,12.54902%);stroke-opacity:1;stroke-miterlimit:4;" d="M 18.588672 22.665781 L 18.588672 26.239766 L 12.109141 26.245156 L 12.109141 22.675664 Z M 18.588672 22.665781 " transform="matrix(4.347826,0,0,4.347826,0,0)"/>
<path style=" stroke:none;fill-rule:nonzero;fill:rgb(100%,100%,100%);fill-opacity:1;" d="M 80.820312 118.800781 L 80.820312 134.320312 L 52.648438 134.34375 L 52.648438 118.820312 L 80.820312 118.800781 "/>
<path style="fill:none;stroke-width:0.5;stroke-linecap:butt;stroke-linejoin:miter;stroke:rgb(13.72549%,12.156863%,12.54902%);stroke-opacity:1;stroke-miterlimit:4;" d="M 18.588672 27.32418 L 18.588672 30.893672 L 12.109141 30.899063 L 12.109141 27.328672 Z M 18.588672 27.32418 " transform="matrix(4.347826,0,0,4.347826,0,0)"/>
<path style=" stroke:none;fill-rule:nonzero;fill:rgb(100%,100%,100%);fill-opacity:1;" d="M 80.820312 139.457031 L 80.820312 154.976562 L 52.648438 155 L 52.648438 139.476562 L 80.820312 139.457031 "/>
<path style="fill:none;stroke-width:0.5;stroke-linecap:butt;stroke-linejoin:miter;stroke:rgb(13.72549%,12.156863%,12.54902%);stroke-opacity:1;stroke-miterlimit:4;" d="M 18.588672 32.075117 L 18.588672 35.644609 L 12.109141 35.65 L 12.109141 32.079609 Z M 18.588672 32.075117 " transform="matrix(4.347826,0,0,4.347826,0,0)"/>
<path style=" stroke:none;fill-rule:nonzero;fill:rgb(100%,100%,100%);fill-opacity:1;" d="M 80.820312 160.089844 L 80.820312 175.628906 L 52.648438 175.652344 L 52.648438 160.128906 L 80.820312 160.085938 "/>
<path style="fill:none;stroke-width:0.5;stroke-linecap:butt;stroke-linejoin:miter;stroke:rgb(13.72549%,12.156863%,12.54902%);stroke-opacity:1;stroke-miterlimit:4;" d="M 18.588672 36.820664 L 18.588672 40.394648 L 12.109141 40.400039 L 12.109141 36.829648 L 18.588672 36.819766 Z M 18.588672 36.820664 " transform="matrix(4.347826,0,0,4.347826,0,0)"/>
<path style=" stroke:none;fill-rule:nonzero;fill:rgb(100%,100%,100%);fill-opacity:1;" d="M 79.628906 23.351562 L 87.890625 35.753906 L 56.6875 42.945312 L 63.5 37.277344 L 15.28125 29.042969 L 27.363281 19.957031 L 73.925781 27.851562 L 79.628906 23.351562 M 123.554688 53.390625 L 117.929688 40.636719 L 146.082031 34.988281 L 141.195312 39.378906 L 188.113281 47.390625 L 176.84375 56.390625 L 130.222656 47.644531 L 123.554688 53.394531 M 108.164062 16.605469 L 139.6875 7.960938 L 140.070312 21.484375 L 132.195312 19.976562 L 116.804688 32.734375 L 102.113281 30.613281 L 117.996094 18.109375 L 108.164062 16.605469 M 94.644531 65.027344 L 64.625 70.652344 L 63.5 56.765625 L 72.136719 58.636719 L 88.65625 44.515625 L 103.28125 47 L 85.640625 62.390625 L 94.640625 65.027344 "/>
</g>
</svg>
