<?xml version="1.0" encoding="UTF-8"?>
<svg xmlns="http://www.w3.org/2000/svg" xmlns:xlink="http://www.w3.org/1999/xlink" width="228pt" height="200pt" viewBox="0 0 228 200" version="1.1">
<g id="surface1">
<path style="fill-rule:nonzero;fill:rgb(3.137255%,48.235294%,73.333333%);fill-opacity:1;stroke-width:0.5;stroke-linecap:butt;stroke-linejoin:miter;stroke:rgb(100%,100%,100%);stroke-opacity:1;stroke-miterlimit:4;" d="M 0.590735 34.887891 L 35.161047 34.887891 L 35.161047 4.668262 L 0.590735 4.668262 Z M 0.590735 34.887891 " transform="matrix(5.7,0,0,5.714286,0,0)"/>
<path style=" stroke:none;fill-rule:nonzero;fill:rgb(3.137255%,48.235294%,73.333333%);fill-opacity:1;" d="M 26.078125 3.347656 L 3.367188 26.675781 L 200.417969 26.675781 L 223.125 3.347656 L 26.078125 3.347656 "/>
<path style="fill:none;stroke-width:0.5;stroke-linecap:butt;stroke-linejoin:miter;stroke:rgb(100%,100%,100%);stroke-opacity:1;stroke-miterlimit:4;" d="M 4.57511 0.58584 L 0.590735 4.668262 L 35.161047 4.668262 L 39.144737 0.58584 Z M 4.57511 0.58584 " transform="matrix(5.7,0,0,5.714286,0,0)"/>
<path style=" stroke:none;fill-rule:nonzero;fill:rgb(3.137255%,48.235294%,73.333333%);fill-opacity:1;" d="M 223.125 176.003906 L 223.125 3.347656 L 200.417969 26.675781 L 200.417969 199.359375 L 223.125 176.003906 "/>
<path style="fill:none;stroke-width:0.5;stroke-linecap:butt;stroke-linejoin:miter;stroke:rgb(100%,100%,100%);stroke-opacity:1;stroke-miterlimit:4;" d="M 39.144737 30.800684 L 39.144737 0.58584 L 35.161047 4.668262 L 35.161047 34.887891 Z M 39.144737 30.800684 " transform="matrix(5.7,0,0,5.714286,0,0)"/>
<path style="fill-rule:nonzero;fill:rgb(3.137255%,48.235294%,73.333333%);fill-opacity:1;stroke-width:0.5;stroke-linecap:butt;stroke-linejoin:miter;stroke:rgb(100%,100%,100%);stroke-opacity:1;stroke-miterlimit:4;" d="M 3.832922 32.485059 L 32.367736 32.485059 L 32.367736 7.449805 L 3.832922 7.449805 Z M 3.832922 32.485059 " transform="matrix(5.7,0,0,5.714286,0,0)"/>
<path style=" stroke:none;fill-rule:nonzero;fill:rgb(3.137255%,48.235294%,73.333333%);fill-opacity:1;" d="M 175.085938 94.898438 C 175.085938 110.269531 143.136719 122.742188 103.707031 122.742188 C 64.289062 122.742188 32.3125 110.269531 32.3125 94.898438 L 32.3125 135.65625 C 32.3125 151.035156 64.289062 163.507812 103.707031 163.507812 C 143.136719 163.507812 175.085938 151.035156 175.085938 135.65625 L 175.085938 94.898438 "/>
<path style="fill:none;stroke-width:0.5;stroke-linecap:butt;stroke-linejoin:miter;stroke:rgb(100%,100%,100%);stroke-opacity:1;stroke-miterlimit:4;" d="M 30.716831 16.607227 C 30.716831 19.297168 25.111705 21.479883 18.194216 21.479883 C 11.278783 21.479883 5.66886 19.297168 5.66886 16.607227 L 5.66886 23.739844 C 5.66886 26.431152 11.278783 28.613867 18.194216 28.613867 C 25.111705 28.613867 30.716831 26.431152 30.716831 23.739844 Z M 30.716831 16.607227 " transform="matrix(5.7,0,0,5.714286,0,0)"/>
<path style=" stroke:none;fill-rule:nonzero;fill:rgb(3.137255%,48.235294%,73.333333%);fill-opacity:1;" d="M 103.707031 122.742188 C 143.136719 122.742188 175.085938 110.269531 175.085938 94.898438 C 175.085938 79.519531 143.136719 67.078125 103.707031 67.078125 C 64.289062 67.078125 32.3125 79.519531 32.3125 94.890625 C 32.3125 110.269531 64.289062 122.742188 103.707031 122.742188 "/>
<path style="fill:none;stroke-width:0.5;stroke-linecap:butt;stroke-linejoin:miter;stroke:rgb(100%,100%,100%);stroke-opacity:1;stroke-miterlimit:4;" d="M 18.194216 21.479883 C 25.111705 21.479883 30.716831 19.297168 30.716831 16.607227 C 30.716831 13.915918 25.111705 11.738672 18.194216 11.738672 C 11.278783 11.738672 5.66886 13.915918 5.66886 16.605859 C 5.66886 19.297168 11.278783 21.479883 18.194216 21.479883 Z M 18.194216 21.479883 " transform="matrix(5.7,0,0,5.714286,0,0)"/>
<path style=" stroke:none;fill-rule:nonzero;fill:rgb(100%,100%,100%);fill-opacity:1;" d="M 87.390625 84.015625 L 93.296875 92.886719 L 71 98.050781 L 75.867188 93.972656 L 41.4375 88.085938 L 50.070312 81.582031 L 83.300781 87.222656 L 87.398438 84.015625 M 118.757812 105.519531 L 114.746094 96.378906 L 134.851562 92.359375 L 131.375 95.480469 L 164.878906 101.230469 L 156.839844 107.667969 L 123.519531 101.394531 L 118.757812 105.519531 M 107.765625 79.183594 L 130.277344 72.996094 L 130.558594 82.667969 L 124.9375 81.582031 L 113.941406 90.738281 L 103.453125 89.195312 L 114.804688 80.269531 L 107.765625 79.183594 M 98.132812 113.839844 L 76.683594 117.886719 L 75.867188 107.921875 L 82.050781 109.261719 L 93.851562 99.164062 L 104.289062 100.949219 L 91.679688 111.976562 L 98.132812 113.839844 "/>
</g>
</svg>
