<?xml version="1.0" encoding="UTF-8"?>
<svg xmlns="http://www.w3.org/2000/svg" xmlns:xlink="http://www.w3.org/1999/xlink" width="268pt" height="200pt" viewBox="0 0 268 200" version="1.1">
<g id="surface1">
<path style=" stroke:none;fill-rule:nonzero;fill:rgb(3.137255%,48.235294%,73.333333%);fill-opacity:1;" d="M 3.449219 191.171875 L 235.804688 191.171875 L 235.804688 38.351562 L 3.449219 38.351562 Z M 3.449219 191.171875 "/>
<path style="fill:none;stroke-width:0.5;stroke-linecap:butt;stroke-linejoin:miter;stroke:rgb(100%,100%,100%);stroke-opacity:1;stroke-miterlimit:4;" d="M 0.707862 39.190234 L 48.392753 39.190234 L 48.392753 7.862871 L 0.707862 7.862871 Z M 0.707862 39.190234 " transform="matrix(4.872727,0,0,4.878049,0,0)"/>
<path style=" stroke:none;fill-rule:nonzero;fill:rgb(3.137255%,48.235294%,73.333333%);fill-opacity:1;" d="M 262.527344 152.042969 L 235.804688 191.175781 L 235.804688 38.351562 L 262.527344 5.914062 L 262.527344 152.046875 "/>
<path style="fill:none;stroke-width:0.5;stroke-linecap:butt;stroke-linejoin:miter;stroke:rgb(100%,100%,100%);stroke-opacity:1;stroke-miterlimit:4;" d="M 53.87688 31.168008 L 48.392753 39.190234 L 48.392753 7.862871 L 53.87688 1.213184 Z M 53.87688 31.168008 " transform="matrix(4.872727,0,0,4.878049,0,0)"/>
<path style=" stroke:none;fill-rule:nonzero;fill:rgb(3.137255%,48.235294%,73.333333%);fill-opacity:1;" d="M 43.539062 5.914062 L 262.527344 5.914062 L 235.804688 38.351562 L 3.449219 38.351562 L 43.539062 5.914062 "/>
<path style="fill:none;stroke-width:0.5;stroke-linecap:butt;stroke-linejoin:miter;stroke:rgb(100%,100%,100%);stroke-opacity:1;stroke-miterlimit:4;" d="M 8.935255 1.213184 L 53.87688 1.213184 L 48.392753 7.862871 L 0.707862 7.862871 Z M 8.935255 1.213184 " transform="matrix(4.872727,0,0,4.878049,0,0)"/>
<path style=" stroke:none;fill-rule:nonzero;fill:rgb(100%,100%,100%);fill-opacity:1;" d="M 37.402344 78.511719 L 16.746094 78.5625 L 16.746094 72.371094 L 37.40625 72.347656 L 37.40625 62.679688 L 59.933594 75.4375 L 37.402344 88.203125 L 37.402344 78.511719 M 37.402344 117.144531 L 16.746094 117.171875 L 16.746094 110.984375 L 37.40625 110.957031 L 37.40625 101.289062 L 59.933594 114.046875 L 37.402344 126.816406 L 37.402344 117.144531 M 37.402344 155.757812 L 16.746094 155.78125 L 16.746094 149.589844 L 37.40625 149.566406 L 37.40625 139.902344 L 59.933594 152.683594 L 37.402344 165.453125 L 37.402344 155.757812 M 195.097656 112.074219 L 222.152344 112.023438 L 222.152344 118.21875 L 195.097656 118.242188 L 195.097656 127.917969 L 172.542969 115.144531 L 195.097656 102.375 L 195.097656 112.074219 "/>
<path style=" stroke:none;fill-rule:nonzero;fill:rgb(100%,100%,100%);fill-opacity:1;" d="M 211.28125 117.53125 L 184.226562 117.582031 L 184.226562 111.386719 L 211.28125 111.359375 L 211.300781 101.6875 L 233.835938 114.457031 L 211.300781 127.222656 L 211.28125 117.53125 "/>
<path style=" stroke:none;fill-rule:nonzero;fill:rgb(3.137255%,48.235294%,73.333333%);fill-opacity:1;" d="M 81.652344 128.84375 L 166.902344 128.84375 L 166.902344 80.371094 C 166.617188 76.800781 160.3125 77.058594 160.3125 77.058594 L 117.480469 77.058594 L 117.480469 68.25 L 88.886719 68.25 L 88.886719 74.875 L 81.675781 74.875 L 81.648438 128.84375 "/>
<path style="fill:none;stroke-width:0.5;stroke-linecap:butt;stroke-linejoin:miter;stroke:rgb(100%,100%,100%);stroke-opacity:1;stroke-miterlimit:4;" d="M 16.757011 26.412969 L 34.252347 26.412969 L 34.252347 16.476875 C 34.193826 15.74416 32.899953 15.797813 32.899953 15.797813 L 24.109798 15.797813 L 24.109798 13.99125 L 18.241677 13.99125 L 18.241677 15.347773 L 16.761821 15.347773 L 16.756209 26.412969 Z M 16.757011 26.412969 " transform="matrix(4.872727,0,0,4.878049,0,0)"/>
<path style=" stroke:none;fill-rule:nonzero;fill:rgb(3.137255%,48.235294%,73.333333%);fill-opacity:1;" d="M 74.753906 136.464844 L 160.003906 136.464844 L 160.003906 88 C 159.722656 84.425781 153.4375 84.710938 153.4375 84.710938 L 110.585938 84.710938 L 110.585938 75.902344 L 81.988281 75.902344 L 81.988281 82.496094 L 74.777344 82.496094 L 74.753906 136.46875 "/>
<path style="fill:none;stroke-width:0.5;stroke-linecap:butt;stroke-linejoin:miter;stroke:rgb(100%,100%,100%);stroke-opacity:1;stroke-miterlimit:4;" d="M 15.341287 27.976094 L 32.836623 27.976094 L 32.836623 18.04 C 32.778903 17.307285 31.489039 17.364141 31.489039 17.364141 L 22.694875 17.364141 L 22.694875 15.558379 L 16.825953 15.558379 L 16.825953 16.910898 L 15.346097 16.910898 Z M 15.341287 27.976094 " transform="matrix(4.872727,0,0,4.878049,0,0)"/>
<path style=" stroke:none;fill-rule:nonzero;fill:rgb(3.137255%,48.235294%,73.333333%);fill-opacity:1;" d="M 66.550781 144.515625 L 151.824219 144.515625 L 151.824219 96.066406 C 151.554688 92.46875 145.28125 92.757812 145.28125 92.757812 L 102.382812 92.757812 L 102.382812 83.953125 L 73.777344 83.953125 L 73.777344 90.570312 L 66.574219 90.570312 L 66.550781 144.523438 "/>
<path style="fill:none;stroke-width:0.5;stroke-linecap:butt;stroke-linejoin:miter;stroke:rgb(100%,100%,100%);stroke-opacity:1;stroke-miterlimit:4;" d="M 13.65781 29.624902 L 31.157955 29.624902 L 31.157955 19.695215 C 31.102641 18.956895 29.815182 19.015352 29.815182 19.015352 L 21.011398 19.015352 L 21.011398 17.207988 L 15.140873 17.207988 L 15.140873 18.565313 L 13.66262 18.565313 Z M 13.65781 29.624902 " transform="matrix(4.872727,0,0,4.878049,0,0)"/>
</g>
</svg>
