<?xml version="1.0" encoding="UTF-8"?>
<svg xmlns="http://www.w3.org/2000/svg" xmlns:xlink="http://www.w3.org/1999/xlink" width="176pt" height="200pt" viewBox="0 0 176 200" version="1.1">
<g id="surface1">
<path style=" stroke:none;fill-rule:nonzero;fill:rgb(0%,0%,0%);fill-opacity:1;" d="M 3.371094 189.652344 L 140.375 189.652344 L 140.375 134.371094 L 3.371094 134.371094 Z M 3.371094 189.652344 "/>
<path style="fill:none;stroke-width:0.5;stroke-linecap:butt;stroke-linejoin:miter;stroke:rgb(100%,100%,100%);stroke-opacity:1;stroke-miterlimit:4;" d="M 0.72785 28.889785 L 0.72785 40.774414 L 30.308239 40.774414 L 30.308239 28.890625 " transform="matrix(4.631579,0,0,4.651163,0,0)"/>
<path style=" stroke:none;fill-rule:nonzero;fill:rgb(3.137255%,48.235294%,73.333333%);fill-opacity:1;" d="M 3.371094 24.113281 L 27.296875 5.332031 L 164.90625 5.332031 L 140.375 24.113281 L 3.371094 24.113281 "/>
<path style="fill:none;stroke-width:0.5;stroke-linecap:butt;stroke-linejoin:miter;stroke:rgb(100%,100%,100%);stroke-opacity:1;stroke-miterlimit:4;" d="M 0.72785 5.184355 L 5.893643 1.146387 L 35.604759 1.146387 L 30.308239 5.184355 Z M 0.72785 5.184355 " transform="matrix(4.631579,0,0,4.651163,0,0)"/>
<path style=" stroke:none;fill-rule:nonzero;fill:rgb(0%,0%,0%);fill-opacity:1;" d="M 140.375 190.691406 L 164.90625 170.777344 L 164.90625 114.726562 L 140.375 133.488281 L 140.375 190.699219 "/>
<path style="fill:none;stroke-width:0.5;stroke-linecap:round;stroke-linejoin:round;stroke:rgb(100%,100%,100%);stroke-opacity:1;stroke-miterlimit:4;" d="M 30.308239 40.998652 L 35.604759 36.717129 L 35.604759 24.667051 L 30.308239 28.699141 L 30.308239 41.000332 Z M 30.308239 32.742988 L 0.72785 32.742988 M 30.308239 36.839746 L 0.72785 36.839746 M 35.21005 33.27377 L 30.546919 36.902734 M 9.487349 37.043828 L 9.487349 40.766016 M 20.928001 37.043828 L 20.928001 40.766016 M 15.43497 32.922715 L 15.43497 36.644062 M 3.999379 32.922715 L 3.999379 36.644062 M 26.874778 32.922715 L 26.874778 36.644062 " transform="matrix(4.631579,0,0,4.651163,0,0)"/>
<path style=" stroke:none;fill-rule:nonzero;fill:rgb(3.137255%,48.235294%,73.333333%);fill-opacity:1;" d="M 141.027344 23.089844 L 141.027344 152.335938 L 2.667969 152.335938 L 2.667969 22.835938 L 141.027344 23.089844 "/>
<path style="fill:none;stroke-width:0.5;stroke-linecap:butt;stroke-linejoin:miter;stroke:rgb(100%,100%,100%);stroke-opacity:1;stroke-miterlimit:4;" d="M 30.449086 4.964316 L 30.449086 32.751387 L 0.576039 32.751387 L 0.576039 4.911406 Z M 30.449086 4.964316 " transform="matrix(4.631579,0,0,4.651163,0,0)"/>
<path style=" stroke:none;fill-rule:nonzero;fill:rgb(3.137255%,48.235294%,73.333333%);fill-opacity:1;" d="M 164.050781 132.550781 L 164.050781 5.785156 L 140.570312 23.5625 L 140.570312 151.515625 L 164.046875 132.550781 "/>
<path style="fill:none;stroke-width:0.5;stroke-linecap:butt;stroke-linejoin:miter;stroke:rgb(100%,100%,100%);stroke-opacity:1;stroke-miterlimit:4;" d="M 35.420055 28.499258 L 35.420055 1.242969 L 30.350408 5.066777 L 30.350408 32.576699 L 35.419212 28.499258 Z M 35.420055 28.499258 " transform="matrix(4.631579,0,0,4.651163,0,0)"/>
<path style="fill:none;stroke-width:0.5;stroke-linecap:round;stroke-linejoin:round;stroke:rgb(100%,100%,100%);stroke-opacity:1;stroke-miterlimit:4;" d="M 34.30087 29.632207 L 34.30087 34.027109 M 32.582875 35.329707 L 32.582875 39.726289 " transform="matrix(4.631579,0,0,4.651163,0,0)"/>
<path style=" stroke:none;fill-rule:nonzero;fill:rgb(100%,100%,100%);fill-opacity:1;" d="M 29.265625 72.191406 L 82.671875 72.191406 L 82.671875 68.578125 L 94.59375 75.828125 L 82.671875 83.296875 L 82.671875 79.664062 L 29.273438 79.664062 L 29.273438 72.195312 M 111.449219 91.375 L 66.53125 91.375 L 66.53125 87.75 L 54.617188 95.015625 L 66.53125 102.488281 L 66.53125 98.855469 L 111.445312 98.855469 L 111.445312 91.375 M 128.683594 137.371094 C 126.253906 137.648438 124.058594 135.902344 123.773438 133.464844 C 123.636719 132.292969 123.96875 131.113281 124.699219 130.1875 C 125.429688 129.261719 126.496094 128.667969 127.664062 128.535156 C 130.011719 128.402344 132.054688 130.128906 132.324219 132.472656 C 132.59375 134.816406 130.996094 136.964844 128.683594 137.371094 "/>
<path style="fill:none;stroke-width:0.25;stroke-linecap:butt;stroke-linejoin:miter;stroke:rgb(0%,0%,0%);stroke-opacity:1;stroke-miterlimit:4;" d="M 27.783958 29.533945 C 27.274547 29.567539 26.828391 29.196328 26.770197 28.689062 C 26.711159 28.182637 27.060325 27.718203 27.563832 27.635059 C 28.088423 27.57543 28.561568 27.95084 28.623136 28.474902 C 28.683017 28.999805 28.306863 29.473477 27.783114 29.534785 Z M 27.783958 29.533945 " transform="matrix(4.631579,0,0,4.651163,0,0)"/>
<path style=" stroke:none;fill-rule:nonzero;fill:rgb(100%,100%,100%);fill-opacity:1;" d="M 131.394531 127.808594 L 123.773438 137.234375 L 96.589844 115.046875 L 104.234375 105.601562 L 131.394531 127.804688 "/>
<path style="fill:none;stroke-width:0.25;stroke-linecap:butt;stroke-linejoin:miter;stroke:rgb(0%,0%,0%);stroke-opacity:1;stroke-miterlimit:4;" d="M 28.369274 27.478848 L 26.72381 29.505391 L 20.854625 24.735078 L 22.505149 22.702656 Z M 28.369274 27.478848 " transform="matrix(4.631579,0,0,4.651163,0,0)"/>
<path style=" stroke:none;fill-rule:nonzero;fill:rgb(100%,100%,100%);fill-opacity:1;" d="M 33.109375 79.234375 C 30.527344 101.777344 46.699219 122.21875 69.175781 124.808594 C 91.640625 127.398438 111.992188 111.140625 114.566406 88.585938 C 117.125 66.03125 100.953125 45.59375 78.5 43.003906 C 56.042969 40.417969 35.664062 56.679688 33.109375 79.238281 Z M 38.808594 79.886719 C 41.023438 60.472656 58.523438 46.507812 77.839844 48.726562 C 97.152344 50.957031 111.089844 68.558594 108.871094 87.953125 C 106.652344 107.34375 89.144531 121.316406 69.816406 119.089844 C 50.527344 116.859375 36.589844 99.285156 38.808594 79.886719 "/>
<path style="fill:none;stroke-width:0.25;stroke-linecap:butt;stroke-linejoin:miter;stroke:rgb(0%,0%,0%);stroke-opacity:1;stroke-miterlimit:4;" d="M 7.148615 17.033711 C 6.591131 21.882969 10.082786 26.277871 14.93568 26.833848 C 19.786044 27.390664 24.180131 23.894395 24.735929 19.046816 C 25.288352 14.196719 21.796697 9.802656 16.948864 9.24668 C 12.100186 8.689023 7.700195 12.185293 7.148615 17.033711 Z M 8.379128 17.174805 C 8.857333 13.000781 12.635742 9.99834 16.80633 10.476211 C 20.976074 10.955762 23.985307 14.739258 23.506259 18.909082 C 23.027211 23.078906 19.247958 26.081348 15.073997 25.604316 C 10.909313 25.124766 7.90008 21.344629 8.379128 17.174805 Z M 8.379128 17.174805 " transform="matrix(4.631579,0,0,4.651163,0,0)"/>
<path style=" stroke:none;fill-rule:nonzero;fill:rgb(100%,100%,100%);fill-opacity:1;" d="M 28.066406 81.046875 C 25.484375 103.601562 41.679688 124.042969 64.109375 126.628906 C 86.59375 129.214844 106.953125 112.953125 109.523438 90.398438 C 112.078125 67.847656 95.90625 47.414062 73.457031 44.828125 C 51 42.234375 30.621094 58.492188 28.066406 81.046875 Z M 33.765625 81.703125 C 35.984375 62.285156 53.480469 48.320312 72.792969 50.550781 C 92.109375 52.773438 106.015625 70.347656 103.824219 89.746094 C 101.613281 109.140625 84.082031 123.128906 64.773438 120.902344 C 45.476562 118.679688 31.546875 101.097656 33.765625 81.703125 "/>
<path style="fill:none;stroke-width:0.25;stroke-linecap:butt;stroke-linejoin:miter;stroke:rgb(0%,0%,0%);stroke-opacity:1;stroke-miterlimit:4;" d="M 6.059792 17.425078 C 5.502308 22.275176 8.999023 26.668398 13.841797 27.225215 C 18.696378 27.782031 23.092152 24.284922 23.647106 19.435664 C 24.198686 14.588086 20.707031 10.193184 15.860041 9.636367 C 11.011364 9.08123 6.611373 12.57582 6.059792 17.425918 Z M 7.290305 17.567012 C 7.769354 13.392148 11.546919 10.388867 15.716664 10.868418 C 19.887251 11.344609 22.889737 15.124746 22.416593 19.29541 C 21.939231 23.465234 18.154075 26.472715 13.985174 25.994844 C 9.818803 25.515293 6.811257 21.736836 7.290305 17.567012 Z M 7.290305 17.567012 " transform="matrix(4.631579,0,0,4.651163,0,0)"/>
<path style="fill:none;stroke-width:0.625;stroke-linecap:butt;stroke-linejoin:miter;stroke:rgb(100%,100%,100%);stroke-opacity:1;stroke-miterlimit:4;" d="M 24.0629 20.623203 L 28.964711 20.623203 M 2.261142 16.302207 L 7.162953 16.302207 " transform="matrix(4.631579,0,0,4.651163,0,0)"/>
</g>
</svg>
