<?xml version="1.0" encoding="UTF-8"?>
<svg xmlns="http://www.w3.org/2000/svg" xmlns:xlink="http://www.w3.org/1999/xlink" width="148pt" height="200pt" viewBox="0 0 148 200" version="1.1">
<g id="surface1">
<path style=" stroke:none;fill-rule:nonzero;fill:rgb(3.137255%,48.235294%,73.333333%);fill-opacity:1;" d="M 141.65625 169.71875 L 141.65625 4.207031 L 117.917969 26.777344 L 117.917969 192.285156 L 141.65625 169.71875 "/>
<path style="fill:none;stroke-width:0.5;stroke-linecap:butt;stroke-linejoin:miter;stroke:rgb(100%,100%,100%);stroke-opacity:1;stroke-miterlimit:4;" d="M 38.285473 45.824063 L 38.285473 1.135898 L 31.869721 7.229883 L 31.869721 51.916992 Z M 38.285473 45.824063 " transform="matrix(3.7,0,0,3.703704,0,0)"/>
<path style=" stroke:none;fill-rule:nonzero;fill:rgb(3.137255%,48.235294%,73.333333%);fill-opacity:1;" d="M 141.65625 4.207031 L 117.917969 26.777344 L 2.769531 26.777344 L 32.589844 4.207031 L 141.65625 4.207031 "/>
<path style="fill:none;stroke-width:0.5;stroke-linecap:butt;stroke-linejoin:miter;stroke:rgb(100%,100%,100%);stroke-opacity:1;stroke-miterlimit:4;" d="M 38.285473 1.135898 L 31.869721 7.229883 L 0.748522 7.229883 L 8.808066 1.135898 Z M 38.285473 1.135898 " transform="matrix(3.7,0,0,3.703704,0,0)"/>
<path style="fill-rule:nonzero;fill:rgb(3.137255%,48.235294%,73.333333%);fill-opacity:1;stroke-width:0.5;stroke-linecap:butt;stroke-linejoin:miter;stroke:rgb(100%,100%,100%);stroke-opacity:1;stroke-miterlimit:4;" d="M 0.748522 38.010938 L 31.869721 38.010938 L 31.869721 7.229883 L 0.748522 7.229883 Z M 0.748522 38.010938 " transform="matrix(3.7,0,0,3.703704,0,0)"/>
<path style="fill-rule:nonzero;fill:rgb(3.137255%,48.235294%,73.333333%);fill-opacity:1;stroke-width:0.5;stroke-linecap:butt;stroke-linejoin:miter;stroke:rgb(100%,100%,100%);stroke-opacity:1;stroke-miterlimit:4;" d="M 0.748522 51.916992 L 31.869721 51.916992 L 31.869721 38.32418 L 0.748522 38.32418 Z M 0.748522 51.916992 " transform="matrix(3.7,0,0,3.703704,0,0)"/>
<path style=" stroke:none;fill-rule:nonzero;fill:rgb(100%,100%,100%);fill-opacity:1;" d="M 50.0625 70.269531 L 32.554688 52.726562 L 35.519531 49.746094 L 24.515625 47.523438 L 26.734375 58.535156 L 29.722656 55.550781 L 47.246094 73.09375 L 50.058594 70.269531 M 43.664062 81.753906 L 18.882812 81.753906 L 18.882812 77.539062 L 9.519531 83.746094 L 18.882812 89.964844 L 18.882812 85.75 L 43.660156 85.75 L 43.660156 81.753906 M 47.242188 94.394531 L 29.722656 111.9375 L 26.734375 108.972656 L 24.515625 119.988281 L 35.519531 117.742188 L 32.554688 114.777344 L 50.058594 97.238281 L 47.246094 94.394531 M 58.714844 100.816406 L 58.714844 125.625 L 54.507812 125.625 L 60.703125 134.976562 L 66.917969 125.625 L 62.714844 125.625 L 62.714844 100.816406 L 58.71875 100.816406 M 58.714844 67.394531 L 58.714844 42.582031 L 54.507812 42.582031 L 60.703125 33.234375 L 66.917969 42.582031 L 62.714844 42.582031 L 62.714844 67.394531 L 58.71875 67.394531 M 71.347656 97.238281 L 88.867188 114.777344 L 85.90625 117.742188 L 96.90625 119.988281 L 94.667969 108.96875 L 91.707031 111.933594 L 74.179688 94.394531 L 71.347656 97.238281 M 77.753906 85.75 L 102.546875 85.75 L 102.546875 89.964844 L 111.882812 83.746094 L 102.546875 77.539062 L 102.546875 81.753906 L 77.753906 81.753906 L 77.753906 85.75 M 74.179688 73.09375 L 91.703125 55.550781 L 94.667969 58.535156 L 96.90625 47.519531 L 85.902344 49.746094 L 88.871094 52.726562 L 71.347656 70.269531 L 74.179688 73.09375 "/>
<path style=" stroke:none;fill-rule:nonzero;fill:rgb(100%,100%,100%);fill-opacity:1;" d="M 75.917969 104.742188 C 87.601562 96.542969 90.457031 80.414062 82.253906 68.71875 C 74.066406 57.015625 57.953125 54.175781 46.261719 62.371094 C 34.574219 70.566406 31.734375 86.695312 39.925781 98.398438 C 48.113281 110.097656 64.226562 112.9375 75.917969 104.742188 M 76.132812 168.996094 L 100.917969 168.996094 L 100.917969 173.207031 L 110.277344 167.003906 L 100.917969 160.78125 L 100.917969 164.996094 L 76.132812 164.996094 L 76.132812 168.996094 M 75.574219 162.105469 L 98.84375 153.621094 L 100.289062 157.585938 L 106.953125 148.542969 L 96.042969 145.914062 L 97.488281 149.859375 L 74.199219 158.339844 L 75.570312 162.105469 M 75.574219 171.726562 L 98.84375 180.207031 L 100.289062 176.261719 L 106.953125 185.285156 L 96.042969 187.929688 L 97.488281 183.964844 L 74.199219 175.484375 L 75.570312 171.726562 M 37.722656 168.996094 L 61.605469 168.996094 L 61.605469 173.207031 L 70.964844 167.003906 L 61.605469 160.78125 L 61.605469 164.996094 L 37.722656 164.996094 L 37.722656 168.996094 "/>
<path style=" stroke:none;fill-rule:nonzero;fill:rgb(0%,0%,0%);fill-opacity:1;" d="M 27.097656 148.523438 C 22.398438 148.523438 18.589844 152.335938 18.589844 157.039062 L 18.605469 164.597656 C 18.664062 165.195312 18.0625 165.828125 17.164062 165.921875 C 16.261719 166.007812 15.285156 165.574219 15.230469 164.964844 L 15.230469 157.457031 C 15.230469 151.007812 20.449219 145.78125 26.890625 145.78125 C 33.332031 145.78125 38.554688 151.007812 38.554688 157.457031 L 38.554688 165.648438 C 38.5 166.246094 37.851562 166.664062 36.945312 166.625 C 36.117188 166.589844 35.355469 165.523438 35.425781 164.90625 L 35.445312 157.035156 C 35.445312 152.332031 31.796875 148.519531 27.097656 148.519531 "/>
<path style="fill:none;stroke-width:0.5;stroke-linecap:butt;stroke-linejoin:miter;stroke:rgb(100%,100%,100%);stroke-opacity:1;stroke-miterlimit:4;" d="M 7.323691 40.102383 C 6.053632 40.102383 5.024282 41.131758 5.024282 42.401602 L 5.028505 44.442422 C 5.044341 44.60168 4.881757 44.773594 4.638936 44.798906 C 4.395059 44.823164 4.131123 44.705039 4.116343 44.540508 L 4.116343 42.513398 C 4.116343 40.772109 5.526816 39.360938 7.267736 39.360938 C 9.008657 39.360938 10.420186 40.772109 10.420186 42.513398 L 10.420186 44.725078 C 10.405405 44.886445 10.230152 44.999297 9.98522 44.98875 C 9.761402 44.979258 9.555532 44.691328 9.574535 44.524688 L 9.579814 42.399492 C 9.579814 41.129648 8.59375 40.100273 7.323691 40.100273 Z M 7.323691 40.102383 " transform="matrix(3.7,0,0,3.703704,0,0)"/>
<path style=" stroke:none;fill-rule:nonzero;fill:rgb(0%,0%,0%);fill-opacity:1;" d="M 41.445312 185.976562 C 42.300781 185.976562 42.996094 185.28125 42.996094 184.421875 L 42.996094 165.371094 C 42.996094 164.511719 42.300781 163.816406 41.445312 163.816406 L 11.925781 163.816406 C 11.511719 163.8125 11.113281 163.976562 10.824219 164.265625 C 10.53125 164.558594 10.367188 164.957031 10.371094 165.371094 L 10.371094 184.417969 C 10.371094 185.28125 11.058594 185.972656 11.925781 185.972656 L 41.441406 185.972656 "/>
<path style="fill:none;stroke-width:0.5;stroke-linecap:butt;stroke-linejoin:miter;stroke:rgb(100%,100%,100%);stroke-opacity:1;stroke-miterlimit:4;" d="M 11.201436 50.213672 C 11.432644 50.213672 11.620566 50.025938 11.620566 49.793906 L 11.620566 44.650195 C 11.620566 44.418164 11.432644 44.23043 11.201436 44.23043 L 3.223184 44.23043 C 3.111275 44.229375 3.00359 44.273672 2.925465 44.351719 C 2.846284 44.43082 2.801943 44.538398 2.802998 44.650195 L 2.802998 49.792852 C 2.802998 50.026992 2.988809 50.212617 3.223184 50.212617 L 11.20038 50.212617 Z M 11.201436 50.213672 " transform="matrix(3.7,0,0,3.703704,0,0)"/>
</g>
</svg>
