<?xml version="1.0" encoding="UTF-8"?>
<svg xmlns="http://www.w3.org/2000/svg" xmlns:xlink="http://www.w3.org/1999/xlink" width="238pt" height="200pt" viewBox="0 0 238 200" version="1.1">
<defs>
<clipPath id="clip1">
  <path d="M 105 0 L 238 0 L 238 194.167969 L 105 194.167969 Z M 105 0 "/>
</clipPath>
<clipPath id="clip2">
  <path d="M 89 0 L 238 0 L 238 194.167969 L 89 194.167969 Z M 89 0 "/>
</clipPath>
<clipPath id="clip3">
  <path d="M 0 0 L 235 0 L 235 194.167969 L 0 194.167969 Z M 0 0 "/>
</clipPath>
<clipPath id="clip4">
  <path d="M 21 27 L 185 27 L 185 194.167969 L 21 194.167969 Z M 21 27 "/>
</clipPath>
</defs>
<g id="surface1">
<g clip-path="url(#clip1)" clip-rule="nonzero">
<path style=" stroke:none;fill-rule:nonzero;fill:rgb(3.137255%,49.803922%,74.901961%);fill-opacity:1;" d="M 218.445312 194.847656 L 245.542969 174.929688 L 132.300781 -6.082031 L 105.628906 9.945312 "/>
</g>
<g clip-path="url(#clip2)" clip-rule="nonzero">
<path style="fill:none;stroke-width:4;stroke-linecap:butt;stroke-linejoin:miter;stroke:rgb(100%,100%,100%);stroke-opacity:1;stroke-miterlimit:4;" d="M 303.592386 9.057091 L 341.252348 36.635817 L 183.869864 287.267428 L 146.801647 265.075721 " transform="matrix(0.719535,0,0,-0.722222,0,201.388889)"/>
</g>
<path style=" stroke:none;fill-rule:nonzero;fill:rgb(3.137255%,49.803922%,74.901961%);fill-opacity:1;" d="M 2.476562 193.800781 L 218.363281 193.945312 L 105.117188 11.359375 L 2.476562 193.800781 "/>
<g clip-path="url(#clip3)" clip-rule="nonzero">
<path style="fill:none;stroke-width:4;stroke-linecap:butt;stroke-linejoin:miter;stroke:rgb(100%,100%,100%);stroke-opacity:1;stroke-miterlimit:4;" d="M 3.441894 10.506611 L 303.478381 10.30649 L 146.090467 263.117788 Z M 3.441894 10.506611 " transform="matrix(0.719535,0,0,-0.722222,0,201.388889)"/>
</g>
<path style=" stroke:none;fill-rule:nonzero;fill:rgb(100%,100%,100%);fill-opacity:1;" d="M 105.230469 137.769531 C 113.859375 137.769531 120.859375 130.75 120.859375 122.089844 C 120.859375 113.425781 113.859375 106.40625 105.230469 106.40625 C 96.605469 106.40625 89.605469 113.425781 89.605469 122.089844 C 89.605469 130.75 96.605469 137.769531 105.230469 137.769531 M 105.230469 80.449219 C 113.859375 80.449219 120.859375 73.417969 120.859375 64.761719 C 120.859375 56.101562 113.859375 49.074219 105.230469 49.074219 C 96.605469 49.074219 89.605469 56.101562 89.605469 64.761719 C 89.605469 73.417969 96.605469 80.449219 105.230469 80.449219 M 147.363281 180.0625 C 155.996094 180.0625 162.988281 173.035156 162.988281 164.378906 C 162.988281 155.71875 155.996094 148.691406 147.363281 148.691406 C 138.734375 148.691406 131.738281 155.71875 131.738281 164.378906 C 131.738281 173.035156 138.734375 180.0625 147.363281 180.0625 M 63.550781 179.609375 C 72.175781 179.609375 79.175781 172.589844 79.175781 163.902344 C 79.175781 155.234375 72.175781 148.214844 63.550781 148.214844 C 54.921875 148.214844 47.921875 155.234375 47.921875 163.902344 C 47.921875 172.589844 54.921875 179.609375 63.550781 179.609375 "/>
<g clip-path="url(#clip4)" clip-rule="nonzero">
<path style="fill:none;stroke-width:10;stroke-linecap:butt;stroke-linejoin:miter;stroke:rgb(100%,100%,100%);stroke-opacity:1;stroke-miterlimit:4;" d="M 146.128469 184.686899 L 146.128469 111.085937 L 86.910527 51.904447 M 146.128469 107.889423 L 200.509302 53.516226 " transform="matrix(0.719535,0,0,-0.722222,0,201.388889)"/>
</g>
</g>
</svg>
