<?xml version="1.0" encoding="UTF-8"?>
<svg xmlns="http://www.w3.org/2000/svg" xmlns:xlink="http://www.w3.org/1999/xlink" width="268pt" height="200pt" viewBox="0 0 268 200" version="1.1">
<g id="surface1">
<path style=" stroke:none;fill-rule:nonzero;fill:rgb(3.137255%,49.803922%,74.901961%);fill-opacity:1;" d="M 3.449219 191.171875 L 235.804688 191.171875 L 235.804688 38.351562 L 3.449219 38.351562 Z M 3.449219 191.171875 "/>
<path style="fill:none;stroke-width:0.5;stroke-linecap:butt;stroke-linejoin:miter;stroke:rgb(100%,100%,100%);stroke-opacity:1;stroke-miterlimit:4;" d="M 0.707862 39.190234 L 48.392753 39.190234 L 48.392753 7.862871 L 0.707862 7.862871 Z M 0.707862 39.190234 " transform="matrix(4.872727,0,0,4.878049,0,0)"/>
<path style=" stroke:none;fill-rule:nonzero;fill:rgb(3.137255%,49.803922%,74.901961%);fill-opacity:1;" d="M 262.527344 152.042969 L 235.804688 191.175781 L 235.804688 38.351562 L 262.527344 5.914062 L 262.527344 152.046875 "/>
<path style="fill:none;stroke-width:0.5;stroke-linecap:butt;stroke-linejoin:miter;stroke:rgb(100%,100%,100%);stroke-opacity:1;stroke-miterlimit:4;" d="M 53.87688 31.168008 L 48.392753 39.190234 L 48.392753 7.862871 L 53.87688 1.213184 Z M 53.87688 31.168008 " transform="matrix(4.872727,0,0,4.878049,0,0)"/>
<path style=" stroke:none;fill-rule:nonzero;fill:rgb(3.137255%,49.803922%,74.901961%);fill-opacity:1;" d="M 43.539062 5.914062 L 262.527344 5.914062 L 235.804688 38.351562 L 3.449219 38.351562 L 43.539062 5.914062 "/>
<path style="fill:none;stroke-width:0.5;stroke-linecap:butt;stroke-linejoin:miter;stroke:rgb(100%,100%,100%);stroke-opacity:1;stroke-miterlimit:4;" d="M 8.935255 1.213184 L 53.87688 1.213184 L 48.392753 7.862871 L 0.707862 7.862871 Z M 8.935255 1.213184 " transform="matrix(4.872727,0,0,4.878049,0,0)"/>
<path style=" stroke:none;fill-rule:nonzero;fill:rgb(100%,100%,100%);fill-opacity:1;" d="M 74.949219 121.195312 L 36.042969 121.242188 L 36.042969 115.046875 L 74.949219 115.027344 L 74.972656 105.359375 L 97.503906 118.121094 L 74.972656 130.886719 L 74.949219 121.195312 M 155.914062 121.195312 L 116.988281 121.242188 L 116.988281 115.046875 L 155.914062 115.027344 L 155.914062 105.359375 L 178.445312 118.121094 L 155.914062 130.886719 L 155.914062 121.195312 M 149.179688 89.996094 L 116.558594 111.238281 L 113.203125 106.046875 L 145.820312 84.800781 L 140.570312 76.703125 L 166.429688 75.105469 L 154.460938 98.117188 L 149.179688 89.996094 M 149.179688 145.847656 L 116.558594 124.605469 L 113.203125 129.816406 L 145.820312 151.042969 L 140.570312 159.164062 L 166.429688 160.738281 L 154.460938 137.75 L 149.179688 145.847656 "/>
<path style="fill:none;stroke-width:0.5;stroke-linecap:butt;stroke-linejoin:miter;stroke:rgb(100%,100%,100%);stroke-opacity:1;stroke-miterlimit:4;" d="M 17.743849 13.892754 C 10.048755 12.355254 5.985964 16.295098 6.631297 19.704023 L 6.680999 19.889004 C 0.683812 20.909199 2.255859 27.984902 5.131399 27.984902 L 5.415185 27.975293 C 4.692091 31.300137 11.699365 34.685039 15.605031 32.995391 L 15.859958 32.722324 C 17.251632 35.709238 22.202659 36.212129 27.095164 36.333848 C 31.336725 36.441953 33.813841 36.109629 35.630393 34.248613 L 35.913377 34.332695 C 42.700195 34.878828 45.79619 30.187051 44.310722 26.818164 L 44.67788 26.714863 C 46.993062 26.104668 47.256005 20.762656 43.286206 19.972285 L 43.363966 19.76168 C 45.086725 16.286289 41.019925 13.008691 35.37707 13.623691 L 34.98506 13.418691 C 30.94712 9.762324 19.320706 10.358105 17.973924 13.976035 Z M 17.743849 13.892754 " transform="matrix(4.872727,0,0,4.878049,0,0)"/>
</g>
</svg>
