<?xml version="1.0" encoding="UTF-8"?>
<svg xmlns="http://www.w3.org/2000/svg" xmlns:xlink="http://www.w3.org/1999/xlink" width="187pt" height="200pt" viewBox="0 0 187 200" version="1.1">
<g id="surface1">
<path style=" stroke:none;fill-rule:nonzero;fill:rgb(3.137255%,49.803922%,74.901961%);fill-opacity:1;" d="M 180.480469 47.882812 L 180.480469 130.101562 L 165.832031 155.179688 L 165.832031 72.960938 L 180.480469 47.882812 "/>
<path style="fill:none;stroke-width:0.5;stroke-linecap:butt;stroke-linejoin:miter;stroke:rgb(100%,100%,100%);stroke-opacity:1;stroke-miterlimit:4;" d="M 27.98895 7.421836 L 27.98895 20.165742 L 25.717267 24.052852 L 25.717267 11.308945 Z M 27.98895 7.421836 " transform="matrix(6.448276,0,0,6.451613,0,0)"/>
<path style="fill-rule:nonzero;fill:rgb(3.137255%,49.803922%,74.901961%);fill-opacity:1;stroke-width:0.5;stroke-linecap:butt;stroke-linejoin:miter;stroke:rgb(100%,100%,100%);stroke-opacity:1;stroke-miterlimit:4;" d="M 6.06509 3.925859 L 0.448885 3.925859 L 2.715115 0.248242 L 8.330109 0.248242 L 22.372744 7.421836 L 27.98895 7.421836 L 25.717267 11.308945 L 20.102879 11.308945 " transform="matrix(6.448276,0,0,6.451613,0,0)"/>
<path style=" stroke:none;fill-rule:nonzero;fill:rgb(3.137255%,49.803922%,74.901961%);fill-opacity:1;" d="M 39.199219 25.417969 L 129.726562 72.960938 L 129.628906 72.960938 L 165.832031 72.960938 L 165.832031 155.179688 L 129.628906 155.179688 L 129.726562 155.179688 L 39.191406 201.160156 L 39.109375 201.011719 L 2.894531 201.011719 L 2.894531 25.226562 L 39.109375 25.226562 L 39.199219 25.414062 "/>
<path style="fill:none;stroke-width:0.5;stroke-linecap:butt;stroke-linejoin:miter;stroke:rgb(100%,100%,100%);stroke-opacity:1;stroke-miterlimit:4;" d="M 6.079023 3.939785 L 20.118023 11.308945 L 20.102879 11.308945 L 25.717267 11.308945 L 25.717267 24.052852 L 20.102879 24.052852 L 20.118023 24.052852 L 6.077812 31.179824 L 6.06509 31.156816 L 0.448885 31.156816 L 0.448885 3.910117 L 6.06509 3.910117 L 6.079023 3.93918 Z M 6.079023 3.939785 " transform="matrix(6.448276,0,0,6.451613,0,0)"/>
<path style=" stroke:none;fill-rule:nonzero;fill:rgb(100%,100%,100%);fill-opacity:1;" d="M 121.1875 111.304688 L 121.1875 100.675781 L 153.082031 113.664062 L 121.1875 126.824219 L 121.1875 116.179688 L 50.21875 116.179688 L 50.21875 111.304688 L 121.1875 111.304688 M 48.046875 72.328125 L 48.046875 68.136719 L 97.699219 68.136719 L 128.996094 85.34375 L 134.097656 76.019531 L 155.824219 102.730469 L 121.535156 98.921875 L 126.632812 89.585938 L 97.859375 72.769531 L 48.046875 72.328125 M 97.859375 155.585938 L 126.636719 138.769531 L 121.535156 129.445312 L 155.824219 125.59375 L 134.097656 152.347656 L 128.996094 143.011719 L 97.699219 160.1875 L 48.046875 160.1875 L 48.046875 156.03125 L 97.859375 155.585938 "/>
</g>
</svg>
