<?xml version="1.0" encoding="UTF-8"?>
<svg xmlns="http://www.w3.org/2000/svg" xmlns:xlink="http://www.w3.org/1999/xlink" width="157pt" height="200pt" viewBox="0 0 157 200" version="1.1">
<g id="surface1">
<path style=" stroke:none;fill-rule:nonzero;fill:rgb(3.137255%,49.803922%,74.901961%);fill-opacity:1;" d="M 3.652344 185.75 L 44.136719 185.75 L 44.136719 30.625 L 3.652344 30.625 Z M 3.652344 185.75 "/>
<path style="fill:none;stroke-width:0.5;stroke-linecap:butt;stroke-linejoin:miter;stroke:rgb(100%,100%,100%);stroke-opacity:1;stroke-miterlimit:4;" d="M 7.309912 5.051836 L 0.604847 5.051836 L 0.604847 30.648105 L 7.309912 30.648105 " transform="matrix(6.038462,0,0,6.060606,0,0)"/>
<path style=" stroke:none;fill-rule:nonzero;fill:rgb(3.137255%,49.803922%,74.901961%);fill-opacity:1;" d="M 44.140625 185.738281 L 72.769531 156.976562 L 72.769531 1.886719 L 32.28125 1.886719 L 3.652344 30.625 L 44.140625 30.625 L 44.140625 185.738281 "/>
<path style="fill:none;stroke-width:0.5;stroke-linecap:butt;stroke-linejoin:miter;stroke:rgb(100%,100%,100%);stroke-opacity:1;stroke-miterlimit:4;" d="M 7.309912 30.648105 L 12.051005 25.901777 L 12.051005 0.31002 L 5.345939 0.31002 L 0.604847 5.049902 L 7.309912 5.049902 Z M 7.309912 30.648105 " transform="matrix(6.038462,0,0,6.060606,0,0)"/>
<path style=" stroke:none;fill-rule:nonzero;fill:rgb(3.137255%,49.803922%,74.901961%);fill-opacity:1;" d="M 44.140625 30.625 L 72.769531 1.878906 "/>
<path style="fill:none;stroke-width:0.5;stroke-linecap:butt;stroke-linejoin:miter;stroke:rgb(100%,100%,100%);stroke-opacity:1;stroke-miterlimit:4;" d="M 7.309912 5.051836 L 12.051005 0.31002 " transform="matrix(6.038462,0,0,6.060606,0,0)"/>
<path style=" stroke:none;fill-rule:nonzero;fill:rgb(3.137255%,49.803922%,74.901961%);fill-opacity:1;" d="M 44.226562 185.75 L 84.703125 185.75 L 84.703125 30.625 L 44.226562 30.625 Z M 44.226562 185.75 "/>
<path style="fill:none;stroke-width:0.5;stroke-linecap:butt;stroke-linejoin:miter;stroke:rgb(100%,100%,100%);stroke-opacity:1;stroke-miterlimit:4;" d="M 14.02921 5.051836 L 7.324144 5.051836 L 7.324144 30.648105 L 14.02921 30.648105 " transform="matrix(6.038462,0,0,6.060606,0,0)"/>
<path style=" stroke:none;fill-rule:nonzero;fill:rgb(3.137255%,49.803922%,74.901961%);fill-opacity:1;" d="M 84.714844 185.738281 L 113.34375 156.976562 L 113.34375 1.886719 L 72.855469 1.886719 L 44.226562 30.625 L 84.714844 30.625 L 84.714844 185.738281 "/>
<path style="fill:none;stroke-width:0.5;stroke-linecap:butt;stroke-linejoin:miter;stroke:rgb(100%,100%,100%);stroke-opacity:1;stroke-miterlimit:4;" d="M 14.02921 30.648105 L 18.770303 25.901777 L 18.770303 0.31002 L 12.065237 0.31002 L 7.324144 5.049902 L 14.02921 5.049902 Z M 14.02921 30.648105 " transform="matrix(6.038462,0,0,6.060606,0,0)"/>
<path style=" stroke:none;fill-rule:nonzero;fill:rgb(3.137255%,49.803922%,74.901961%);fill-opacity:1;" d="M 84.714844 30.625 L 113.34375 1.878906 "/>
<path style="fill:none;stroke-width:0.5;stroke-linecap:butt;stroke-linejoin:miter;stroke:rgb(100%,100%,100%);stroke-opacity:1;stroke-miterlimit:4;" d="M 14.02921 5.051836 L 18.770303 0.31002 " transform="matrix(6.038462,0,0,6.060606,0,0)"/>
<path style=" stroke:none;fill-rule:nonzero;fill:rgb(3.137255%,49.803922%,74.901961%);fill-opacity:1;" d="M 84.796875 185.75 L 125.273438 185.75 L 125.273438 30.625 L 84.796875 30.625 Z M 84.796875 185.75 "/>
<path style="fill:none;stroke-width:0.5;stroke-linecap:butt;stroke-linejoin:miter;stroke:rgb(100%,100%,100%);stroke-opacity:1;stroke-miterlimit:4;" d="M 20.747213 5.051836 L 14.042148 5.051836 L 14.042148 30.648105 L 20.747213 30.648105 " transform="matrix(6.038462,0,0,6.060606,0,0)"/>
<path style=" stroke:none;fill-rule:nonzero;fill:rgb(3.137255%,49.803922%,74.901961%);fill-opacity:1;" d="M 125.28125 185.738281 L 153.914062 156.976562 L 153.914062 1.886719 L 113.425781 1.886719 L 84.792969 30.625 L 125.28125 30.625 L 125.28125 185.738281 "/>
<path style="fill:none;stroke-width:0.5;stroke-linecap:butt;stroke-linejoin:miter;stroke:rgb(100%,100%,100%);stroke-opacity:1;stroke-miterlimit:4;" d="M 20.747213 30.648105 L 25.488953 25.901777 L 25.488953 0.31002 L 18.783887 0.31002 L 14.042148 5.049902 L 20.747213 5.049902 Z M 20.747213 30.648105 " transform="matrix(6.038462,0,0,6.060606,0,0)"/>
<path style=" stroke:none;fill-rule:nonzero;fill:rgb(3.137255%,49.803922%,74.901961%);fill-opacity:1;" d="M 125.28125 30.625 L 153.921875 1.878906 "/>
<path style="fill:none;stroke-width:0.5;stroke-linecap:butt;stroke-linejoin:miter;stroke:rgb(100%,100%,100%);stroke-opacity:1;stroke-miterlimit:4;" d="M 20.747213 5.051836 L 25.490247 0.31002 " transform="matrix(6.038462,0,0,6.060606,0,0)"/>
<path style="fill-rule:nonzero;fill:rgb(3.137255%,49.803922%,74.901961%);fill-opacity:1;stroke-width:0.5;stroke-linecap:butt;stroke-linejoin:miter;stroke:rgb(100%,100%,100%);stroke-opacity:1;stroke-miterlimit:4;" d="M 14.921925 9.539707 L 19.765874 9.539707 L 19.765874 5.945801 L 14.921925 5.945801 Z M 14.921925 9.539707 " transform="matrix(6.038462,0,0,6.060606,0,0)"/>
<path style=" stroke:none;fill-rule:nonzero;fill:rgb(3.137255%,49.803922%,74.901961%);fill-opacity:1;" d="M 90.105469 82.910156 L 119.355469 82.910156 L 119.355469 61.128906 L 90.105469 61.128906 Z M 90.105469 82.910156 "/>
<path style="fill:none;stroke-width:0.5;stroke-linecap:butt;stroke-linejoin:miter;stroke:rgb(100%,100%,100%);stroke-opacity:1;stroke-miterlimit:4;" d="M 14.921925 13.680176 L 19.765874 13.680176 L 19.765874 10.086914 L 14.921925 10.086914 L 14.921925 13.68082 Z M 14.921925 13.680176 " transform="matrix(6.038462,0,0,6.060606,0,0)"/>
<path style=" stroke:none;fill-rule:nonzero;fill:rgb(3.137255%,49.803922%,74.901961%);fill-opacity:1;" d="M 90.105469 169.5625 L 119.355469 169.5625 L 119.355469 147.78125 L 90.105469 147.78125 Z M 90.105469 169.5625 "/>
<path style="fill:none;stroke-width:0.5;stroke-linecap:butt;stroke-linejoin:miter;stroke:rgb(100%,100%,100%);stroke-opacity:1;stroke-miterlimit:4;" d="M 14.921925 27.977168 L 19.765874 27.977168 L 19.765874 24.383262 L 14.921925 24.383262 Z M 14.921925 27.977168 " transform="matrix(6.038462,0,0,6.060606,0,0)"/>
</g>
</svg>
