<?xml version="1.0" encoding="UTF-8"?>
<svg xmlns="http://www.w3.org/2000/svg" xmlns:xlink="http://www.w3.org/1999/xlink" width="113pt" height="200pt" viewBox="0 0 113 200" version="1.1">
<g id="surface1">
<path style="fill-rule:nonzero;fill:rgb(0.784314%,43.921569%,62.352941%);fill-opacity:1;stroke-width:0.5;stroke-linecap:butt;stroke-linejoin:miter;stroke:rgb(100%,100%,100%);stroke-opacity:1;stroke-miterlimit:4;" d="M 2.402447 44.13125 L 21.119607 44.13125 L 21.119607 4.213672 L 2.402447 4.213672 Z M 2.402447 44.13125 " transform="matrix(4.346154,0,0,4.347826,0,0)"/>
<path style=" stroke:none;fill-rule:nonzero;fill:rgb(0.784314%,43.921569%,62.352941%);fill-opacity:1;" d="M 10.441406 18.320312 L 25.972656 2.863281 L 104.410156 2.863281 L 91.785156 18.320312 L 10.441406 18.320312 "/>
<path style="fill:none;stroke-width:0.5;stroke-linecap:butt;stroke-linejoin:miter;stroke:rgb(100%,100%,100%);stroke-opacity:1;stroke-miterlimit:4;" d="M 2.402447 4.213672 L 5.976009 0.658555 L 24.023576 0.658555 L 21.118709 4.213672 Z M 2.402447 4.213672 " transform="matrix(4.346154,0,0,4.347826,0,0)"/>
<path style=" stroke:none;fill-rule:nonzero;fill:rgb(0.784314%,43.921569%,62.352941%);fill-opacity:1;" d="M 91.785156 191.875 L 104.410156 167.820312 L 104.410156 2.863281 L 91.785156 18.320312 L 91.785156 191.871094 "/>
<path style="fill:none;stroke-width:0.5;stroke-linecap:butt;stroke-linejoin:miter;stroke:rgb(100%,100%,100%);stroke-opacity:1;stroke-miterlimit:4;" d="M 21.118709 44.13125 L 24.023576 38.598672 L 24.023576 0.658555 L 21.118709 4.213672 Z M 21.118709 44.13125 " transform="matrix(4.346154,0,0,4.347826,0,0)"/>
<path style=" stroke:none;fill-rule:nonzero;fill:rgb(0.784314%,43.921569%,62.352941%);fill-opacity:1;" d="M 98.253906 199.621094 L 91.789062 191.871094 L 10.441406 191.871094 L 2.628906 199.621094 L 98.253906 199.621094 "/>
<path style="fill:none;stroke-width:0.5;stroke-linecap:butt;stroke-linejoin:miter;stroke:rgb(100%,100%,100%);stroke-opacity:1;stroke-miterlimit:4;" d="M 22.607093 45.912852 L 21.119607 44.130352 L 2.402447 44.130352 L 0.604881 45.912852 Z M 22.607093 45.912852 " transform="matrix(4.346154,0,0,4.347826,0,0)"/>
<path style=" stroke:none;fill-rule:nonzero;fill:rgb(0.784314%,43.921569%,62.352941%);fill-opacity:1;" d="M 98.253906 199.621094 L 110.839844 172.699219 L 104.40625 167.820312 L 91.785156 191.875 L 98.253906 199.621094 "/>
<path style="fill:none;stroke-width:0.5;stroke-linecap:butt;stroke-linejoin:miter;stroke:rgb(100%,100%,100%);stroke-opacity:1;stroke-miterlimit:4;" d="M 22.607093 45.912852 L 25.502973 39.72082 L 24.022677 38.598672 L 21.118709 44.13125 Z M 21.118709 44.13125 L 2.402447 44.13125 " transform="matrix(4.346154,0,0,4.347826,0,0)"/>
<path style=" stroke:none;fill-rule:nonzero;fill:rgb(0%,0%,0%);fill-opacity:1;" d="M 104.410156 167.820312 L 91.785156 191.875 "/>
<path style="fill:none;stroke-width:0.5;stroke-linecap:butt;stroke-linejoin:miter;stroke:rgb(100%,100%,100%);stroke-opacity:1;stroke-miterlimit:4;" d="M 24.023576 38.598672 L 21.118709 44.13125 M 2.413233 6.05457 L 21.045008 6.05457 M 2.392561 6.27918 L 21.029729 6.27918 " transform="matrix(4.346154,0,0,4.347826,0,0)"/>
<path style="fill-rule:nonzero;fill:rgb(0%,0%,0%);fill-opacity:1;stroke-width:0.5;stroke-linecap:butt;stroke-linejoin:miter;stroke:rgb(100%,100%,100%);stroke-opacity:1;stroke-miterlimit:4;" d="M 17.241358 11.059766 L 3.658048 11.059766 L 3.658048 12.310391 L 6.168349 12.310391 " transform="matrix(4.346154,0,0,4.347826,0,0)"/>
<path style="fill-rule:nonzero;fill:rgb(0%,0%,0%);fill-opacity:1;stroke-width:0.5;stroke-linecap:butt;stroke-linejoin:miter;stroke:rgb(100%,100%,100%);stroke-opacity:1;stroke-miterlimit:4;" d="M 17.241358 13.378633 L 3.658048 13.378633 L 3.658048 14.629258 L 6.168349 14.629258 " transform="matrix(4.346154,0,0,4.347826,0,0)"/>
<path style="fill-rule:nonzero;fill:rgb(0%,0%,0%);fill-opacity:1;stroke-width:0.5;stroke-linecap:butt;stroke-linejoin:miter;stroke:rgb(100%,100%,100%);stroke-opacity:1;stroke-miterlimit:4;" d="M 17.241358 15.693906 L 3.658048 15.693906 L 3.658048 16.943633 L 6.168349 16.943633 " transform="matrix(4.346154,0,0,4.347826,0,0)"/>
<path style="fill-rule:nonzero;fill:rgb(0%,0%,0%);fill-opacity:1;stroke-width:0.5;stroke-linecap:butt;stroke-linejoin:miter;stroke:rgb(100%,100%,100%);stroke-opacity:1;stroke-miterlimit:4;" d="M 17.241358 18.012773 L 3.658048 18.012773 L 3.658048 19.263398 L 6.168349 19.263398 " transform="matrix(4.346154,0,0,4.347826,0,0)"/>
<path style="fill-rule:nonzero;fill:rgb(0%,0%,0%);fill-opacity:1;stroke-width:0.5;stroke-linecap:butt;stroke-linejoin:miter;stroke:rgb(100%,100%,100%);stroke-opacity:1;stroke-miterlimit:4;" d="M 17.241358 20.331641 L 3.658048 20.331641 L 3.658048 21.582266 L 6.168349 21.582266 " transform="matrix(4.346154,0,0,4.347826,0,0)"/>
<path style="fill-rule:nonzero;fill:rgb(0%,0%,0%);fill-opacity:1;stroke-width:0.5;stroke-linecap:butt;stroke-linejoin:miter;stroke:rgb(100%,100%,100%);stroke-opacity:1;stroke-miterlimit:4;" d="M 17.241358 22.651406 L 3.658048 22.651406 L 3.658048 23.901133 L 6.168349 23.901133 " transform="matrix(4.346154,0,0,4.347826,0,0)"/>
<path style="fill-rule:nonzero;fill:rgb(0%,0%,0%);fill-opacity:1;stroke-width:0.5;stroke-linecap:butt;stroke-linejoin:miter;stroke:rgb(100%,100%,100%);stroke-opacity:1;stroke-miterlimit:4;" d="M 17.241358 24.965781 L 3.658048 24.965781 L 3.658048 26.216406 L 6.168349 26.216406 " transform="matrix(4.346154,0,0,4.347826,0,0)"/>
<path style="fill-rule:nonzero;fill:rgb(0%,0%,0%);fill-opacity:1;stroke-width:0.5;stroke-linecap:butt;stroke-linejoin:miter;stroke:rgb(100%,100%,100%);stroke-opacity:1;stroke-miterlimit:4;" d="M 17.241358 27.284648 L 3.658048 27.284648 L 3.658048 28.535273 L 6.168349 28.535273 " transform="matrix(4.346154,0,0,4.347826,0,0)"/>
<path style="fill-rule:nonzero;fill:rgb(0%,0%,0%);fill-opacity:1;stroke-width:0.5;stroke-linecap:butt;stroke-linejoin:miter;stroke:rgb(100%,100%,100%);stroke-opacity:1;stroke-miterlimit:4;" d="M 17.241358 29.605313 L 3.658048 29.605313 L 3.658048 30.855039 L 6.168349 30.855039 " transform="matrix(4.346154,0,0,4.347826,0,0)"/>
<path style="fill-rule:nonzero;fill:rgb(0%,0%,0%);fill-opacity:1;stroke-width:0.5;stroke-linecap:butt;stroke-linejoin:miter;stroke:rgb(100%,100%,100%);stroke-opacity:1;stroke-miterlimit:4;" d="M 17.241358 31.92418 L 3.658048 31.92418 L 3.658048 33.173906 L 6.168349 33.173906 " transform="matrix(4.346154,0,0,4.347826,0,0)"/>
<path style="fill-rule:nonzero;fill:rgb(0%,0%,0%);fill-opacity:1;stroke-width:0.5;stroke-linecap:butt;stroke-linejoin:miter;stroke:rgb(100%,100%,100%);stroke-opacity:1;stroke-miterlimit:4;" d="M 17.241358 34.238555 L 3.658048 34.238555 L 3.658048 35.48918 L 6.168349 35.48918 " transform="matrix(4.346154,0,0,4.347826,0,0)"/>
<path style="fill-rule:nonzero;fill:rgb(0%,0%,0%);fill-opacity:1;stroke-width:0.5;stroke-linecap:butt;stroke-linejoin:miter;stroke:rgb(100%,100%,100%);stroke-opacity:1;stroke-miterlimit:4;" d="M 17.241358 36.55832 L 3.658048 36.55832 L 3.658048 37.808047 L 6.168349 37.808047 " transform="matrix(4.346154,0,0,4.347826,0,0)"/>
<path style="fill-rule:nonzero;fill:rgb(0%,0%,0%);fill-opacity:1;stroke-width:0.5;stroke-linecap:butt;stroke-linejoin:miter;stroke:rgb(100%,100%,100%);stroke-opacity:1;stroke-miterlimit:4;" d="M 17.241358 38.877188 L 3.658048 38.877188 L 3.658048 40.126914 L 6.168349 40.126914 " transform="matrix(4.346154,0,0,4.347826,0,0)"/>
<path style="fill-rule:nonzero;fill:rgb(0%,0%,0%);fill-opacity:1;stroke-width:0.5;stroke-linecap:butt;stroke-linejoin:miter;stroke:rgb(100%,100%,100%);stroke-opacity:1;stroke-miterlimit:4;" d="M 17.241358 41.190664 L 3.658048 41.190664 L 3.658048 42.441289 L 6.168349 42.441289 " transform="matrix(4.346154,0,0,4.347826,0,0)"/>
</g>
</svg>
