<?xml version="1.0" encoding="UTF-8"?>
<svg xmlns="http://www.w3.org/2000/svg" xmlns:xlink="http://www.w3.org/1999/xlink" width="179pt" height="200pt" viewBox="0 0 179 200" version="1.1">
<defs>
<clipPath id="clip1">
  <path d="M 0 29 L 105 29 L 105 192.5 L 0 192.5 Z M 0 29 "/>
</clipPath>
<clipPath id="clip2">
  <path d="M 80 29 L 179 29 L 179 192.5 L 80 192.5 Z M 80 29 "/>
</clipPath>
<clipPath id="clip3">
  <path d="M 80 29 L 179 29 L 179 192.5 L 80 192.5 Z M 80 29 "/>
</clipPath>
</defs>
<g id="surface1">
<path style=" stroke:none;fill-rule:nonzero;fill:rgb(3.137255%,49.803922%,74.901961%);fill-opacity:1;" d="M 92.632812 190.699219 L 2.328125 143.257812 L 2.328125 42.226562 L 92.632812 89.664062 L 92.632812 190.699219 "/>
<g clip-path="url(#clip1)" clip-rule="nonzero">
<path style="fill:none;stroke-width:4;stroke-linecap:butt;stroke-linejoin:miter;stroke:rgb(100%,100%,100%);stroke-opacity:1;stroke-miterlimit:4;" d="M 171.173654 13.324519 L 4.302079 100.908654 L 4.302079 287.427885 L 171.173654 199.850962 Z M 171.173654 13.324519 " transform="matrix(0.541163,0,0,-0.541667,0,197.916667)"/>
</g>
<path style=" stroke:none;fill-rule:nonzero;fill:rgb(3.137255%,49.803922%,74.901961%);fill-opacity:1;" d="M 92.632812 190.699219 L 182.941406 143.257812 L 182.941406 42.226562 L 92.632812 89.664062 L 92.632812 190.699219 "/>
<g clip-path="url(#clip2)" clip-rule="nonzero">
<path style="fill:none;stroke-width:4;stroke-linecap:butt;stroke-linejoin:miter;stroke:rgb(100%,100%,100%);stroke-opacity:1;stroke-miterlimit:4;" d="M 171.173654 13.324519 L 338.052448 100.908654 L 338.052448 287.427885 L 171.173654 199.850962 Z M 171.173654 13.324519 " transform="matrix(0.541163,0,0,-0.541667,0,197.916667)"/>
</g>
<path style=" stroke:none;fill-rule:nonzero;fill:rgb(3.137255%,49.803922%,74.901961%);fill-opacity:1;" d="M 92.632812 89.664062 L 182.941406 42.226562 L 92.632812 -5.214844 L 2.328125 42.226562 L 92.632812 89.664062 "/>
<path style="fill:none;stroke-width:4;stroke-linecap:butt;stroke-linejoin:miter;stroke:rgb(100%,100%,100%);stroke-opacity:1;stroke-miterlimit:4;" d="M 171.173654 199.850962 L 338.052448 287.427885 L 171.173654 375.012019 L 4.302079 287.427885 Z M 171.173654 199.850962 " transform="matrix(0.541163,0,0,-0.541667,0,197.916667)"/>
<path style=" stroke:none;fill-rule:nonzero;fill:rgb(3.137255%,49.803922%,74.901961%);fill-opacity:1;" d="M 182.941406 142.878906 L 92.632812 190.695312 L 92.632812 90.042969 L 182.941406 42.226562 L 182.941406 142.878906 "/>
<g clip-path="url(#clip3)" clip-rule="nonzero">
<path style="fill:none;stroke-width:4;stroke-linecap:butt;stroke-linejoin:miter;stroke:rgb(100%,100%,100%);stroke-opacity:1;stroke-miterlimit:4;" d="M 338.052448 101.608173 L 171.173654 13.331731 L 171.173654 199.151442 L 338.052448 287.427885 Z M 338.052448 101.608173 " transform="matrix(0.541163,0,0,-0.541667,0,197.916667)"/>
</g>
<path style=" stroke:none;fill-rule:nonzero;fill:rgb(100%,100%,100%);fill-opacity:1;" d="M 92.632812 47.765625 L 111.613281 57.945312 L 100.222656 57.945312 L 100.222656 76.925781 L 85.042969 76.925781 L 85.042969 57.945312 L 73.648438 57.945312 L 92.632812 47.765625 M 161.566406 42.246094 L 142.605469 52.425781 L 142.605469 46.332031 L 107.179688 46.332031 L 107.179688 38.183594 L 142.605469 38.183594 L 142.605469 32.089844 L 161.566406 42.246094 M 92.632812 37.421875 L 73.648438 27.242188 L 85.042969 27.242188 L 85.042969 8.269531 L 100.222656 8.269531 L 100.222656 27.242188 L 111.613281 27.242188 L 92.632812 37.421875 M 23.675781 42.246094 L 42.660156 32.089844 L 42.660156 38.183594 L 78.089844 38.183594 L 78.089844 46.332031 L 42.660156 46.332031 L 42.660156 52.425781 L 23.675781 42.246094 M 174.503906 113.910156 L 174.503906 56.507812 L 105.0625 93.304688 L 105.0625 150.703125 L 174.503906 113.910156 "/>
<path style="fill:none;stroke-width:4;stroke-linecap:round;stroke-linejoin:round;stroke:rgb(3.137255%,49.803922%,74.901961%);stroke-opacity:1;stroke-miterlimit:4;" d="M 322.461021 155.088942 L 322.461021 261.0625 L 194.142136 193.129808 L 194.142136 87.163462 Z M 322.461021 155.088942 " transform="matrix(0.541163,0,0,-0.541667,0,197.916667)"/>
<path style=" stroke:none;fill-rule:nonzero;fill:rgb(100%,100%,100%);fill-opacity:1;" d="M 115.144531 93.9375 L 163.933594 68.101562 C 167.105469 66.433594 169.683594 67.890625 169.683594 71.359375 L 169.683594 105.148438 C 169.683594 108.621094 167.105469 112.808594 163.933594 114.484375 L 115.144531 140.335938 C 111.972656 142.011719 109.417969 140.546875 109.417969 137.082031 L 109.417969 103.289062 C 109.417969 99.820312 111.972656 95.628906 115.144531 93.9375 "/>
<path style="fill:none;stroke-width:4;stroke-linecap:round;stroke-linejoin:round;stroke:rgb(3.137255%,49.803922%,74.901961%);stroke-opacity:1;stroke-miterlimit:4;" d="M 212.772447 191.961538 L 302.928429 239.658654 C 308.78965 242.737981 313.553697 240.048077 313.553697 233.644231 L 313.553697 171.264423 C 313.553697 164.853365 308.78965 157.122596 302.928429 154.028846 L 212.772447 106.302885 C 206.911226 103.209135 202.190488 105.913462 202.190488 112.310096 L 202.190488 174.697115 C 202.190488 181.100962 206.911226 188.838942 212.772447 191.961538 Z M 212.772447 191.961538 " transform="matrix(0.541163,0,0,-0.541667,0,197.916667)"/>
<path style=" stroke:none;fill-rule:nonzero;fill:rgb(100%,100%,100%);fill-opacity:1;" d="M 159.199219 129.125 L 120.386719 149.691406 L 120.386719 142.578125 L 159.199219 122.019531 L 159.199219 129.125 "/>
<path style="fill:none;stroke-width:4;stroke-linecap:round;stroke-linejoin:round;stroke:rgb(3.137255%,49.803922%,74.901961%);stroke-opacity:1;stroke-miterlimit:4;" d="M 294.179906 127 L 222.459343 89.03125 L 222.459343 102.163462 L 294.179906 140.117788 Z M 294.179906 127 " transform="matrix(0.541163,0,0,-0.541667,0,197.916667)"/>
<path style=" stroke:none;fill-rule:nonzero;fill:rgb(100%,100%,100%);fill-opacity:1;" d="M 174.503906 137.78125 L 105.0625 174.597656 L 105.0625 157.898438 L 174.503906 121.105469 L 174.503906 137.78125 "/>
<path style="fill:none;stroke-width:4;stroke-linecap:round;stroke-linejoin:round;stroke:rgb(3.137255%,49.803922%,74.901961%);stroke-opacity:1;stroke-miterlimit:4;" d="M 322.461021 111.019231 L 194.142136 43.050481 L 194.142136 73.879808 L 322.461021 141.805288 Z M 322.461021 111.019231 " transform="matrix(0.541163,0,0,-0.541667,0,197.916667)"/>
<path style=" stroke:none;fill-rule:nonzero;fill:rgb(100%,100%,100%);fill-opacity:1;" d="M 176.699219 140.066406 L 102.886719 179.164062 L 102.886719 172.058594 L 176.699219 132.953125 L 176.699219 140.066406 "/>
<path style="fill:none;stroke-width:4;stroke-linecap:round;stroke-linejoin:round;stroke:rgb(3.137255%,49.803922%,74.901961%);stroke-opacity:1;stroke-miterlimit:4;" d="M 326.51768 106.800481 L 190.121569 34.620192 L 190.121569 47.737981 L 326.51768 119.932692 Z M 326.51768 106.800481 " transform="matrix(0.541163,0,0,-0.541667,0,197.916667)"/>
<path style=" stroke:none;fill-rule:nonzero;fill:rgb(3.137255%,49.803922%,74.901961%);fill-opacity:1;" d="M 141.589844 107.921875 L 133.429688 121.042969 L 133.429688 91.695312 L 153.003906 102.464844 L 141.589844 107.921875 "/>
<path style=" stroke:none;fill-rule:nonzero;fill:rgb(45.490196%,44.705882%,44.705882%);fill-opacity:1;" d="M 140.847656 108.667969 L 146.433594 119.769531 L 147.933594 118.292969 L 142.351562 107.179688 L 140.847656 108.667969 "/>
<path style=" stroke:none;fill-rule:nonzero;fill:rgb(100%,100%,100%);fill-opacity:1;" d="M 86.289062 159.59375 L 86.289062 137.183594 L 72.804688 140.933594 L 86.289062 159.59375 "/>
<path style="fill:none;stroke-width:0.76;stroke-linecap:butt;stroke-linejoin:miter;stroke:rgb(100%,100%,100%);stroke-opacity:1;stroke-miterlimit:4;" d="M 159.451211 70.75 L 159.451211 112.122596 L 134.533802 105.199519 Z M 159.451211 70.75 " transform="matrix(0.541163,0,0,-0.541667,0,197.916667)"/>
<path style=" stroke:none;fill-rule:nonzero;fill:rgb(100%,100%,100%);fill-opacity:1;" d="M 9.363281 119.414062 L 9.363281 97.003906 L 22.851562 114.78125 L 9.363281 119.414062 "/>
<path style="fill:none;stroke-width:0.76;stroke-linecap:butt;stroke-linejoin:miter;stroke:rgb(100%,100%,100%);stroke-opacity:1;stroke-miterlimit:4;" d="M 17.302153 144.927885 L 17.302153 186.300481 L 42.226781 153.480769 Z M 17.302153 144.927885 " transform="matrix(0.541163,0,0,-0.541667,0,197.916667)"/>
<path style=" stroke:none;fill-rule:nonzero;fill:rgb(100%,100%,100%);fill-opacity:1;" d="M 18.410156 79.65625 L 18.410156 102.0625 L 4.925781 84.269531 L 18.410156 79.65625 "/>
<path style="fill:none;stroke-width:0.76;stroke-linecap:butt;stroke-linejoin:miter;stroke:rgb(100%,100%,100%);stroke-opacity:1;stroke-miterlimit:4;" d="M 34.019627 218.326923 L 34.019627 176.961538 L 9.102217 209.810096 Z M 34.019627 218.326923 " transform="matrix(0.541163,0,0,-0.541667,0,197.916667)"/>
<path style=" stroke:none;fill-rule:nonzero;fill:rgb(100%,100%,100%);fill-opacity:1;" d="M 76.207031 109.890625 L 76.207031 132.296875 L 89.691406 128.554688 L 76.207031 109.890625 "/>
<path style="fill:none;stroke-width:0.76;stroke-linecap:butt;stroke-linejoin:miter;stroke:rgb(100%,100%,100%);stroke-opacity:1;stroke-miterlimit:4;" d="M 140.8209 162.509615 L 140.8209 121.144231 L 165.73831 128.052885 Z M 140.8209 162.509615 " transform="matrix(0.541163,0,0,-0.541667,0,197.916667)"/>
<path style=" stroke:none;fill-rule:nonzero;fill:rgb(100%,100%,100%);fill-opacity:1;" d="M 79.144531 122.3125 L 71.007812 118.101562 M 70.117188 121.277344 L 78.257812 125.507812 L 80.03125 121.84375 L 70.394531 116.851562 L 70.117188 121.277344 M 81.976562 145.542969 L 92.164062 150.835938 "/>
<path style="fill:none;stroke-width:7.6;stroke-linecap:butt;stroke-linejoin:miter;stroke:rgb(100%,100%,100%);stroke-opacity:1;stroke-miterlimit:4;" d="M 151.48226 96.689904 L 170.307464 86.918269 " transform="matrix(0.541163,0,0,-0.541667,0,197.916667)"/>
<path style="fill-rule:nonzero;fill:rgb(100%,100%,100%);fill-opacity:1;stroke-width:7.6;stroke-linecap:butt;stroke-linejoin:miter;stroke:rgb(100%,100%,100%);stroke-opacity:1;stroke-miterlimit:4;" d="M 23.979037 163.288462 L 3.912293 173.716346 " transform="matrix(0.541163,0,0,-0.541667,0,197.916667)"/>
<path style=" stroke:none;fill-rule:nonzero;fill:rgb(100%,100%,100%);fill-opacity:1;" d="M 13.441406 88.644531 L 23.632812 93.957031 M 12.554688 90.464844 L 24.394531 96.515625 L 24.519531 92.140625 L 14.332031 86.828125 L 12.554688 90.464844 M 63.734375 114.140625 L 63.671875 159.316406 L 31.75 142.542969 L 31.6875 97.28125 L 63.734375 114.140625 "/>
<path style=" stroke:none;fill-rule:nonzero;fill:rgb(100%,100%,100%);fill-opacity:1;" d="M 58.132812 124.195312 L 37.4375 113.210938 L 37.4375 104.984375 L 58.132812 115.941406 L 58.132812 124.195312 "/>
<path style="fill:none;stroke-width:4;stroke-linecap:butt;stroke-linejoin:miter;stroke:rgb(3.137255%,49.803922%,74.901961%);stroke-opacity:1;stroke-miterlimit:4;" d="M 107.422043 136.100962 L 69.179738 156.379808 L 69.179738 171.567308 L 107.422043 151.338942 Z M 107.422043 136.100962 " transform="matrix(0.541163,0,0,-0.541667,0,197.916667)"/>
<path style=" stroke:none;fill-rule:nonzero;fill:rgb(100%,100%,100%);fill-opacity:1;" d="M 58.132812 152.105469 L 37.4375 141.144531 L 37.4375 120.554688 L 58.132812 131.511719 L 58.132812 152.105469 "/>
<path style="fill:none;stroke-width:4;stroke-linecap:butt;stroke-linejoin:miter;stroke:rgb(3.137255%,49.803922%,74.901961%);stroke-opacity:1;stroke-miterlimit:4;" d="M 107.422043 84.574519 L 69.179738 104.810096 L 69.179738 142.822115 L 107.422043 122.59375 Z M 107.422043 84.574519 " transform="matrix(0.541163,0,0,-0.541667,0,197.916667)"/>
<path style=" stroke:none;fill-rule:nonzero;fill:rgb(100%,100%,100%);fill-opacity:1;" d="M 54.960938 96.347656 C 54.960938 96.347656 56.039062 96.644531 56.757812 99.632812 L 56.945312 104.664062 L 70.75 113.296875 L 72.257812 110.335938 L 68.234375 101.238281 C 55.914062 92.285156 52.996094 90.785156 52.996094 90.785156 L 49.191406 88.667969 C 49.191406 88.667969 38.578125 84.269531 32.914062 82.703125 L 26.339844 85.472656 L 25.492188 89.789062 L 39.933594 95.230469 L 40.101562 91.230469 C 40.523438 88.859375 43.125 90.488281 43.125 90.488281 L 54.960938 96.347656 M 58.132812 127.792969 L 37.4375 116.828125 "/>
<path style="fill:none;stroke-width:4;stroke-linecap:butt;stroke-linejoin:miter;stroke:rgb(3.137255%,49.803922%,74.901961%);stroke-opacity:1;stroke-miterlimit:4;" d="M 107.422043 129.459135 L 69.179738 149.701923 " transform="matrix(0.541163,0,0,-0.541667,0,197.916667)"/>
</g>
</svg>
