<?xml version="1.0" encoding="UTF-8"?>
<svg xmlns="http://www.w3.org/2000/svg" xmlns:xlink="http://www.w3.org/1999/xlink" width="186pt" height="200pt" viewBox="0 0 186 200" version="1.1">
<g id="surface1">
<path style="fill:none;stroke-width:0.5175;stroke-linecap:butt;stroke-linejoin:miter;stroke:rgb(100%,100%,100%);stroke-opacity:1;stroke-miterlimit:4;" d="M 0.727592 20.476328 L 30.063739 20.476328 " transform="matrix(4.536585,0,0,4.545455,0,0)"/>
<path style="fill-rule:nonzero;fill:rgb(3.137255%,48.235294%,73.333333%);fill-opacity:1;stroke-width:0.5;stroke-linecap:butt;stroke-linejoin:miter;stroke:rgb(100%,100%,100%);stroke-opacity:1;stroke-miterlimit:4;" d="M 0.727592 42.030312 L 30.063739 42.030312 L 30.063739 32.425078 L 0.727592 32.425078 Z M 0.727592 42.030312 " transform="matrix(4.536585,0,0,4.545455,0,0)"/>
<path style=" stroke:none;fill-rule:nonzero;fill:rgb(0%,0%,0%);fill-opacity:1;" d="M 179.222656 107.882812 L 136.386719 147.339844 L 3.148438 147.339844 L 50.746094 107.882812 L 179.222656 107.882812 "/>
<path style="fill:none;stroke-width:0.45;stroke-linecap:butt;stroke-linejoin:miter;stroke:rgb(100%,100%,100%);stroke-opacity:1;stroke-miterlimit:4;" d="M 39.506069 23.733359 L 30.063739 32.414766 L 0.69401 32.414766 L 11.185967 23.733359 Z M 39.506069 23.733359 " transform="matrix(4.536585,0,0,4.545455,0,0)"/>
<path style=" stroke:none;fill-rule:nonzero;fill:rgb(3.137255%,48.235294%,73.333333%);fill-opacity:1;" d="M 179.402344 148.78125 L 179.402344 107.964844 L 136.386719 147.472656 L 136.386719 190.511719 L 179.402344 148.785156 "/>
<path style="fill:none;stroke-width:0.5;stroke-linecap:butt;stroke-linejoin:miter;stroke:rgb(100%,100%,100%);stroke-opacity:1;stroke-miterlimit:4;" d="M 39.545678 32.731875 L 39.545678 23.753125 L 30.063739 32.444844 L 30.063739 41.911719 Z M 39.545678 32.731875 " transform="matrix(4.536585,0,0,4.545455,0,0)"/>
<path style=" stroke:none;fill-rule:nonzero;fill:rgb(3.137255%,48.235294%,73.333333%);fill-opacity:1;" d="M 3.300781 138.511719 L 136.386719 138.511719 L 136.386719 94.878906 L 3.300781 94.878906 Z M 3.300781 138.511719 "/>
<path style="fill:none;stroke-width:0.5;stroke-linecap:butt;stroke-linejoin:miter;stroke:rgb(100%,100%,100%);stroke-opacity:1;stroke-miterlimit:4;" d="M 0.727592 30.471719 L 30.063739 30.471719 L 30.063739 20.871641 L 0.727592 20.871641 Z M 0.727592 30.471719 " transform="matrix(4.536585,0,0,4.545455,0,0)"/>
<path style=" stroke:none;fill-rule:nonzero;fill:rgb(0%,0%,0%);fill-opacity:1;" d="M 179.222656 53.882812 L 136.386719 93.363281 L 3.148438 93.363281 L 50.746094 53.878906 L 179.222656 53.878906 "/>
<path style="fill:none;stroke-width:0.45;stroke-linecap:butt;stroke-linejoin:miter;stroke:rgb(100%,100%,100%);stroke-opacity:1;stroke-miterlimit:4;" d="M 39.506069 11.854219 L 30.063739 20.539922 L 0.69401 20.539922 L 11.185967 11.854219 Z M 39.506069 11.854219 " transform="matrix(4.536585,0,0,4.545455,0,0)"/>
<path style=" stroke:none;fill-rule:nonzero;fill:rgb(3.137255%,48.235294%,73.333333%);fill-opacity:1;" d="M 179.402344 100.664062 L 179.402344 57.273438 L 136.386719 96.800781 L 136.386719 139.816406 L 179.402344 100.664062 "/>
<path style="fill:none;stroke-width:0.5;stroke-linecap:butt;stroke-linejoin:miter;stroke:rgb(100%,100%,100%);stroke-opacity:1;stroke-miterlimit:4;" d="M 39.545678 22.146094 L 39.545678 12.601016 L 30.063739 21.297031 L 30.063739 30.759609 Z M 39.545678 22.146094 " transform="matrix(4.536585,0,0,4.545455,0,0)"/>
<path style=" stroke:none;fill-rule:nonzero;fill:rgb(3.137255%,48.235294%,73.333333%);fill-opacity:1;" d="M 3.300781 86.019531 L 136.386719 86.019531 L 136.386719 42.382812 L 3.300781 42.382812 Z M 3.300781 86.019531 "/>
<path style="fill:none;stroke-width:0.5;stroke-linecap:butt;stroke-linejoin:miter;stroke:rgb(100%,100%,100%);stroke-opacity:1;stroke-miterlimit:4;" d="M 0.727592 18.925156 L 30.063739 18.925156 L 30.063739 9.325078 L 0.727592 9.325078 Z M 0.727592 18.925156 " transform="matrix(4.536585,0,0,4.545455,0,0)"/>
<path style=" stroke:none;fill-rule:nonzero;fill:rgb(3.137255%,48.235294%,73.333333%);fill-opacity:1;" d="M 179.222656 2.851562 L 136.386719 42.335938 L 3.148438 42.335938 L 50.746094 2.851562 L 179.222656 2.851562 "/>
<path style="fill:none;stroke-width:0.5;stroke-linecap:butt;stroke-linejoin:miter;stroke:rgb(100%,100%,100%);stroke-opacity:1;stroke-miterlimit:4;" d="M 39.506069 0.628203 L 30.063739 9.313906 L 0.69401 9.313906 L 11.185967 0.628203 Z M 39.506069 0.628203 " transform="matrix(4.536585,0,0,4.545455,0,0)"/>
<path style=" stroke:none;fill-rule:nonzero;fill:rgb(3.137255%,48.235294%,73.333333%);fill-opacity:1;" d="M 179.402344 45.605469 L 179.402344 2.945312 L 136.386719 42.472656 L 136.386719 85.480469 L 179.402344 45.605469 "/>
<path style="fill:none;stroke-width:0.5;stroke-linecap:butt;stroke-linejoin:miter;stroke:rgb(100%,100%,100%);stroke-opacity:1;stroke-miterlimit:4;" d="M 39.545678 10.032344 L 39.545678 0.647109 L 30.063739 9.343125 L 30.063739 18.805703 Z M 39.545678 10.032344 " transform="matrix(4.536585,0,0,4.545455,0,0)"/>
<path style=" stroke:none;fill-rule:nonzero;fill:rgb(0%,0%,0%);fill-opacity:1;" d="M 112.289062 25.535156 L 117.886719 21.296875 L 133.238281 26.269531 L 102.445312 32.925781 L 107.628906 27.84375 L 77.089844 27.84375 L 81.738281 25.535156 L 112.285156 25.535156 M 97.242188 14.085938 L 94.695312 16.789062 L 69.421875 16.789062 L 64.351562 19.835938 L 49.0625 14.816406 L 79.785156 8.203125 L 71.96875 14.089844 L 97.242188 14.089844 M 75.429688 31.503906 L 71.835938 34.214844 L 46.5625 34.214844 L 42.53125 37.257812 L 27.246094 32.238281 L 57.972656 25.628906 L 50.152344 31.503906 L 75.425781 31.503906 M 136.46875 9.6875 L 142.105469 5.472656 L 157.433594 10.417969 L 126.660156 17.078125 L 132.355469 12.394531 L 101.828125 12.394531 L 105.953125 9.6875 L 136.46875 9.6875 "/>
<path style=" stroke:none;fill-rule:nonzero;fill:rgb(100%,100%,100%);fill-opacity:1;" d="M 112.289062 27 L 117.886719 22.757812 L 133.238281 27.730469 L 102.445312 34.390625 L 107.628906 29.304688 L 77.089844 29.304688 L 81.738281 27 L 112.285156 27 M 97.242188 15.550781 L 94.695312 18.253906 L 69.421875 18.253906 L 64.351562 21.296875 L 49.0625 16.28125 L 79.785156 9.691406 L 71.96875 15.554688 L 97.242188 15.554688 M 75.429688 32.972656 L 71.835938 35.683594 L 46.5625 35.683594 L 42.53125 38.722656 L 27.246094 33.703125 L 57.976562 27.089844 L 50.15625 32.972656 L 75.433594 32.972656 M 136.46875 11.15625 L 142.105469 6.9375 L 157.433594 11.890625 L 126.660156 18.566406 L 132.355469 13.863281 L 101.828125 13.863281 L 105.953125 11.15625 L 136.46875 11.15625 M 74.40625 90.992188 L 74.40625 61.472656 L 79.414062 61.472656 L 72.035156 50.328125 L 64.660156 61.472656 L 69.640625 61.472656 L 69.640625 90.992188 L 74.40625 90.992188 M 59.367188 101.128906 L 38.542969 80.246094 L 42.0625 76.714844 L 28.996094 74.050781 L 31.628906 87.171875 L 35.175781 83.617188 L 56 104.503906 L 59.367188 101.128906 M 51.746094 114.78125 L 22.289062 114.78125 L 22.289062 109.789062 L 11.160156 117.175781 L 22.285156 124.566406 L 22.285156 119.546875 L 51.738281 119.546875 L 51.738281 114.773438 M 56 129.851562 L 35.175781 150.742188 L 31.632812 147.1875 L 28.992188 160.300781 L 42.0625 157.636719 L 38.542969 154.085938 L 59.367188 133.226562 L 56 129.851562 M 69.640625 137.492188 L 69.640625 167.003906 L 64.65625 167.003906 L 72.035156 178.144531 L 79.414062 167.007812 L 74.398438 167.007812 L 74.398438 137.492188 L 69.636719 137.492188 M 84.6875 133.226562 L 105.503906 154.085938 L 101.984375 157.636719 L 115.050781 160.300781 L 112.417969 147.1875 L 108.867188 150.742188 L 88.046875 129.851562 L 84.6875 133.226562 M 92.300781 119.550781 L 121.765625 119.550781 L 121.765625 124.566406 L 132.890625 117.175781 L 121.765625 109.789062 L 121.765625 114.777344 L 92.300781 114.777344 L 92.300781 119.550781 M 88.050781 104.503906 L 108.875 83.621094 L 112.410156 87.167969 L 115.050781 74.050781 L 101.984375 76.71875 L 105.503906 80.246094 L 84.6875 101.132812 L 88.046875 104.503906 "/>
<path style=" stroke:none;fill-rule:nonzero;fill:rgb(100%,100%,100%);fill-opacity:1;" d="M 84.863281 135.15625 C 94.59375 128.320312 96.953125 114.875 90.128906 105.125 C 83.308594 95.375 69.890625 93.011719 60.160156 99.84375 C 50.445312 106.679688 48.089844 120.105469 54.898438 129.851562 C 61.710938 139.605469 75.125 141.980469 84.863281 135.15625 "/>
<path style="fill:none;stroke-width:0.315;stroke-linecap:butt;stroke-linejoin:miter;stroke:rgb(0%,0%,0%);stroke-opacity:1;stroke-miterlimit:4;" d="M 18.706422 29.735234 C 20.101331 28.765 20.871115 27.123594 20.723874 25.430625 C 20.577495 23.737656 19.536479 22.252656 17.996052 21.537656 C 16.454763 20.821797 14.649131 20.985078 13.26111 21.964766 C 11.189411 23.494453 10.715831 26.397422 12.193401 28.505469 C 13.671833 30.614375 16.561534 31.159219 18.706422 29.734375 Z M 18.706422 29.735234 " transform="matrix(4.536585,0,0,4.545455,0,0)"/>
<path style="fill:none;stroke-width:1.125;stroke-linecap:butt;stroke-linejoin:miter;stroke:rgb(100%,100%,100%);stroke-opacity:1;stroke-miterlimit:4;" d="M 38.114604 21.78 C 37.647051 27.867812 35.839697 32.698359 34.086589 32.566016 C 32.334341 32.430234 31.28902 27.381406 31.762601 21.286719 C 32.231015 15.198047 34.033203 10.368359 35.790617 10.505859 C 37.543725 10.641641 38.583879 15.686172 38.114604 21.78 Z M 38.114604 21.78 " transform="matrix(4.536585,0,0,4.545455,0,0)"/>
</g>
</svg>
