<?xml version="1.0" encoding="UTF-8"?>
<svg xmlns="http://www.w3.org/2000/svg" xmlns:xlink="http://www.w3.org/1999/xlink" width="121pt" height="200pt" viewBox="0 0 121 200" version="1.1">
<g id="surface1">
<path style="fill-rule:nonzero;fill:rgb(3.137255%,49.803922%,74.901961%);fill-opacity:1;stroke-width:0.5;stroke-linecap:butt;stroke-linejoin:miter;stroke:rgb(100%,100%,100%);stroke-opacity:1;stroke-miterlimit:4;" d="M 0.702964 39.296738 L 20.908122 39.296738 L 20.908122 17.457031 L 0.702964 17.457031 Z M 0.702964 39.296738 " transform="matrix(4.84,0,0,4.878049,0,0)"/>
<path style=" stroke:none;fill-rule:nonzero;fill:rgb(3.137255%,49.803922%,74.901961%);fill-opacity:1;" d="M 3.402344 84.957031 L 101.195312 84.957031 L 101.195312 20.554688 L 3.402344 20.554688 Z M 3.402344 84.957031 "/>
<path style="fill:none;stroke-width:0.5;stroke-linecap:butt;stroke-linejoin:miter;stroke:rgb(100%,100%,100%);stroke-opacity:1;stroke-miterlimit:4;" d="M 0.702964 17.416191 L 20.908122 17.416191 L 20.908122 4.21291 L 0.702964 4.21291 Z M 0.702964 17.416191 " transform="matrix(4.84,0,0,4.878049,0,0)"/>
<path style=" stroke:none;fill-rule:nonzero;fill:rgb(3.137255%,49.803922%,74.901961%);fill-opacity:1;" d="M 3.402344 19.820312 L 22.09375 4.527344 L 116.363281 4.527344 L 101.203125 19.820312 L 3.402344 19.820312 "/>
<path style="fill:none;stroke-width:0.5;stroke-linecap:butt;stroke-linejoin:miter;stroke:rgb(100%,100%,100%);stroke-opacity:1;stroke-miterlimit:4;" d="M 0.702964 4.062363 L 4.564824 0.927305 L 24.042 0.927305 L 20.909737 4.062363 Z M 0.702964 4.062363 " transform="matrix(4.84,0,0,4.878049,0,0)"/>
<path style=" stroke:none;fill-rule:nonzero;fill:rgb(3.137255%,49.803922%,74.901961%);fill-opacity:1;" d="M 101.199219 191.6875 L 116.367188 172.859375 L 116.367188 68.515625 L 101.199219 84.261719 L 101.199219 191.683594 "/>
<path style="fill:none;stroke-width:0.5;stroke-linecap:butt;stroke-linejoin:miter;stroke:rgb(100%,100%,100%);stroke-opacity:1;stroke-miterlimit:4;" d="M 20.908929 39.296738 L 24.042807 35.435371 L 24.042807 14.047305 L 20.908929 17.276055 Z M 20.908929 39.296738 " transform="matrix(4.84,0,0,4.878049,0,0)"/>
<path style=" stroke:none;fill-rule:nonzero;fill:rgb(3.137255%,49.803922%,74.901961%);fill-opacity:1;" d="M 101.199219 84.820312 L 116.367188 68.171875 L 116.367188 5.550781 L 101.199219 20.84375 L 101.199219 84.820312 "/>
<path style="fill:none;stroke-width:0.5;stroke-linecap:butt;stroke-linejoin:miter;stroke:rgb(100%,100%,100%);stroke-opacity:1;stroke-miterlimit:4;" d="M 20.908929 17.387363 L 24.042807 13.975234 L 24.042807 1.137109 L 20.908929 4.272168 Z M 0.711841 36.56207 L 20.829836 36.56207 M 0.711841 17.348926 L 20.829836 17.348926 " transform="matrix(4.84,0,0,4.878049,0,0)"/>
<path style=" stroke:none;fill-rule:nonzero;fill:rgb(100%,100%,100%);fill-opacity:1;" d="M 44.875 142.003906 L 44.875 156.105469 L 39.421875 156.105469 L 50.359375 170.203125 L 61.613281 156.105469 L 56.148438 156.105469 L 56.148438 142.007812 L 44.875 142.007812 M 44.875 130.808594 L 44.875 116.710938 L 39.421875 116.710938 L 50.359375 102.613281 L 61.613281 116.710938 L 56.148438 116.710938 L 56.148438 130.808594 L 44.875 130.808594 M 16.378906 131.457031 L 30.367188 131.457031 L 30.367188 125.945312 L 44.359375 136.980469 L 30.371094 148.316406 L 30.371094 142.816406 L 16.378906 142.816406 L 16.378906 131.464844 M 84.277344 131.457031 L 70.277344 131.457031 L 70.277344 125.945312 L 56.289062 136.980469 L 70.277344 148.316406 L 70.277344 142.816406 L 84.273438 142.816406 L 84.273438 131.464844 "/>
<path style="fill:none;stroke-width:0.5;stroke-linecap:butt;stroke-linejoin:miter;stroke:rgb(100%,100%,100%);stroke-opacity:1;stroke-miterlimit:4;" d="M 20.908929 8.496289 L 0.702964 8.496289 M 22.783768 2.450391 L 2.577802 2.450391 M 20.908929 13.047129 L 0.702964 13.047129 " transform="matrix(4.84,0,0,4.878049,0,0)"/>
<path style=" stroke:none;fill-rule:nonzero;fill:rgb(3.137255%,49.803922%,74.901961%);fill-opacity:1;" d="M 115.871094 28.679688 L 102.800781 41.757812 "/>
<path style="fill:none;stroke-width:0.5;stroke-linecap:butt;stroke-linejoin:miter;stroke:rgb(100%,100%,100%);stroke-opacity:1;stroke-miterlimit:4;" d="M 23.940309 5.877734 L 21.239831 8.560352 " transform="matrix(4.84,0,0,4.878049,0,0)"/>
<path style=" stroke:none;fill-rule:nonzero;fill:rgb(3.137255%,49.803922%,74.901961%);fill-opacity:1;" d="M 115.871094 50.902344 L 102.800781 63.976562 "/>
<path style="fill:none;stroke-width:0.5;stroke-linecap:butt;stroke-linejoin:miter;stroke:rgb(100%,100%,100%);stroke-opacity:1;stroke-miterlimit:4;" d="M 23.940309 10.43498 L 21.239831 13.115195 M 22.628002 2.579316 L 22.628002 15.245273 M 6.689857 4.320215 L 6.689857 8.452246 M 14.502357 4.320215 L 14.502357 8.452246 M 6.689857 13.271348 L 6.689857 17.407383 M 14.502357 13.271348 L 14.502357 17.407383 M 10.751872 8.695684 L 10.751872 12.826914 M 2.940179 8.695684 L 2.940179 12.826914 M 18.565179 8.695684 L 18.565179 12.826914 " transform="matrix(4.84,0,0,4.878049,0,0)"/>
<path style=" stroke:none;fill-rule:nonzero;fill:rgb(3.137255%,49.803922%,74.901961%);fill-opacity:1;" d="M 51.261719 4.3125 L 32.378906 20.699219 "/>
<path style="fill:none;stroke-width:0.5;stroke-linecap:butt;stroke-linejoin:miter;stroke:rgb(100%,100%,100%);stroke-opacity:1;stroke-miterlimit:4;" d="M 10.591264 0.883262 L 6.689857 4.24334 " transform="matrix(4.84,0,0,4.878049,0,0)"/>
<path style=" stroke:none;fill-rule:nonzero;fill:rgb(3.137255%,49.803922%,74.901961%);fill-opacity:1;" d="M 89.074219 4.3125 L 70.191406 20.699219 "/>
<path style="fill:none;stroke-width:0.5;stroke-linecap:butt;stroke-linejoin:miter;stroke:rgb(100%,100%,100%);stroke-opacity:1;stroke-miterlimit:4;" d="M 18.403764 0.883262 L 14.502357 4.24334 M 24.042807 13.975234 L 20.809659 17.54832 L 0.698928 17.54832 " transform="matrix(4.84,0,0,4.878049,0,0)"/>
<path style=" stroke:none;fill-rule:nonzero;fill:rgb(3.137255%,49.803922%,74.901961%);fill-opacity:1;" d="M 116.367188 161.683594 L 100.71875 179.09375 "/>
<path style="fill:none;stroke-width:0.5;stroke-linecap:butt;stroke-linejoin:miter;stroke:rgb(100%,100%,100%);stroke-opacity:1;stroke-miterlimit:4;" d="M 24.042807 33.145137 L 20.809659 36.712617 " transform="matrix(4.84,0,0,4.878049,0,0)"/>
</g>
</svg>
