<?xml version="1.0" encoding="UTF-8"?>
<svg xmlns="http://www.w3.org/2000/svg" xmlns:xlink="http://www.w3.org/1999/xlink" width="309pt" height="200pt" viewBox="0 0 309 200" version="1.1">
<g id="surface1">
<path style="fill-rule:nonzero;fill:rgb(3.137255%,49.803922%,74.901961%);fill-opacity:1;stroke-width:0.5;stroke-linecap:butt;stroke-linejoin:miter;stroke:rgb(100%,100%,100%);stroke-opacity:1;stroke-miterlimit:4;" d="M 0.67415 30.728145 L 38.637743 30.728145 L 38.637743 9.24793 L 0.67415 9.24793 Z M 0.67415 30.728145 " transform="matrix(6.4375,0,0,6.451613,0,0)"/>
<path style=" stroke:none;fill-rule:nonzero;fill:rgb(3.137255%,49.803922%,74.901961%);fill-opacity:1;" d="M 249.613281 198.246094 L 249.613281 59.664062 L 300.050781 3.78125 L 300.050781 142.355469 L 249.609375 198.246094 "/>
<path style="fill:none;stroke-width:0.5;stroke-linecap:butt;stroke-linejoin:miter;stroke:rgb(100%,100%,100%);stroke-opacity:1;stroke-miterlimit:4;" d="M 38.774879 30.728145 L 38.774879 9.24793 L 46.60983 0.586094 L 46.60983 22.065098 L 38.774272 30.728145 Z M 38.774879 30.728145 " transform="matrix(6.4375,0,0,6.451613,0,0)"/>
<path style=" stroke:none;fill-rule:nonzero;fill:rgb(3.137255%,49.803922%,74.901961%);fill-opacity:1;" d="M 248.695312 59.65625 L 4.210938 59.65625 L 64.660156 5.324219 L 299.683594 5.101562 L 248.699219 59.65625 "/>
<path style="fill:none;stroke-width:0.5;stroke-linecap:butt;stroke-linejoin:miter;stroke:rgb(100%,100%,100%);stroke-opacity:1;stroke-miterlimit:4;" d="M 38.632282 9.246719 L 0.654126 9.246719 L 10.044296 0.825254 L 46.552791 0.790742 L 38.632888 9.246719 Z M 38.632282 9.246719 " transform="matrix(6.4375,0,0,6.451613,0,0)"/>
<path style=" stroke:none;fill-rule:nonzero;fill:rgb(100%,100%,100%);fill-opacity:1;" d="M 55.695312 110.859375 L 11.941406 110.890625 L 11.941406 102.695312 L 55.695312 102.664062 L 55.695312 89.902344 L 80.996094 106.753906 L 55.695312 123.675781 L 55.695312 110.859375 M 213.023438 160.1875 L 169.269531 160.21875 L 169.269531 152.027344 L 213.023438 152 L 213.023438 139.214844 L 238.324219 156.089844 L 213.023438 172.972656 L 213.023438 160.1875 M 86.289062 135.019531 L 123.21875 135.019531 L 123.21875 74.535156 L 86.289062 74.535156 Z M 86.289062 135.019531 "/>
<path style="fill:none;stroke-width:0.5;stroke-linecap:butt;stroke-linejoin:miter;stroke:rgb(13.72549%,12.156863%,12.54902%);stroke-opacity:1;stroke-miterlimit:4;" d="M 13.404126 20.928027 L 19.140777 20.928027 L 19.140777 11.552949 L 13.404126 11.552949 Z M 13.404126 20.928027 " transform="matrix(6.4375,0,0,6.451613,0,0)"/>
<path style="fill-rule:nonzero;fill:rgb(100%,100%,100%);fill-opacity:1;stroke-width:0.5;stroke-linecap:butt;stroke-linejoin:miter;stroke:rgb(13.72549%,12.156863%,12.54902%);stroke-opacity:1;stroke-miterlimit:4;" d="M 16.669903 24.775176 L 22.407767 24.775176 L 22.407767 15.400098 L 16.669903 15.400098 Z M 16.669903 24.775176 " transform="matrix(6.4375,0,0,6.451613,0,0)"/>
<path style="fill-rule:nonzero;fill:rgb(100%,100%,100%);fill-opacity:1;stroke-width:0.5;stroke-linecap:butt;stroke-linejoin:miter;stroke:rgb(13.72549%,12.156863%,12.54902%);stroke-opacity:1;stroke-miterlimit:4;" d="M 19.936286 28.619297 L 25.67415 28.619297 L 25.67415 19.244219 L 19.936286 19.244219 Z M 19.936286 28.619297 " transform="matrix(6.4375,0,0,6.451613,0,0)"/>
</g>
</svg>
