<?xml version="1.0" encoding="UTF-8"?>
<svg xmlns="http://www.w3.org/2000/svg" xmlns:xlink="http://www.w3.org/1999/xlink" width="195pt" height="200pt" viewBox="0 0 195 200" version="1.1">
<defs>
<clipPath id="clip1">
  <path d="M 162 0 L 195 0 L 195 193.5 L 162 193.5 Z M 162 0 "/>
</clipPath>
<clipPath id="clip2">
  <path d="M 0 0 L 195 0 L 195 193.5 L 0 193.5 Z M 0 0 "/>
</clipPath>
</defs>
<g id="surface1">
<path style="fill-rule:nonzero;fill:rgb(3.137255%,49.803922%,74.901961%);fill-opacity:1;stroke-width:4;stroke-linecap:butt;stroke-linejoin:miter;stroke:rgb(100%,100%,100%);stroke-opacity:1;stroke-miterlimit:4;" d="M 6.207933 14.783654 L 273.28125 14.783654 L 273.28125 281.622596 L 6.207933 281.622596 Z M 6.207933 14.783654 " transform="matrix(0.65,0,0,-0.65,0,200)"/>
<path style=" stroke:none;fill-rule:nonzero;fill:rgb(3.137255%,49.803922%,74.901961%);fill-opacity:1;" d="M 199.542969 168.65625 L 199.542969 -4.761719 L 177.632812 16.945312 L 177.632812 190.390625 L 199.542969 168.65625 "/>
<g clip-path="url(#clip1)" clip-rule="nonzero">
<path style="fill:none;stroke-width:4;stroke-linecap:butt;stroke-linejoin:miter;stroke:rgb(100%,100%,100%);stroke-opacity:1;stroke-miterlimit:4;" d="M 306.989183 48.221154 L 306.989183 315.018029 L 273.28125 281.622596 L 273.28125 14.783654 Z M 306.989183 48.221154 " transform="matrix(0.65,0,0,-0.65,0,200)"/>
</g>
<path style=" stroke:none;fill-rule:nonzero;fill:rgb(3.137255%,49.803922%,74.901961%);fill-opacity:1;" d="M 34.203125 -6.003906 L 4.039062 15.703125 L 177.632812 15.703125 L 199.542969 -6.003906 L 34.203125 -6.003906 "/>
<path style="fill:none;stroke-width:4;stroke-linecap:butt;stroke-linejoin:miter;stroke:rgb(100%,100%,100%);stroke-opacity:1;stroke-miterlimit:4;" d="M 52.620192 316.929087 L 6.213942 283.533654 L 273.28125 283.533654 L 306.989183 316.929087 Z M 273.28125 281.622596 L 6.213942 281.622596 " transform="matrix(0.65,0,0,-0.65,0,200)"/>
<path style=" stroke:none;fill-rule:nonzero;fill:rgb(3.137255%,49.803922%,74.901961%);fill-opacity:1;" d="M 177.632812 16.945312 L 199.542969 -4.761719 "/>
<g clip-path="url(#clip2)" clip-rule="nonzero">
<path style="fill:none;stroke-width:4;stroke-linecap:butt;stroke-linejoin:miter;stroke:rgb(100%,100%,100%);stroke-opacity:1;stroke-miterlimit:4;" d="M 273.28125 281.622596 L 306.989183 315.018029 M 273.28125 281.622596 L 273.28125 14.783654 M 273.28125 281.622596 L 6.213942 281.622596 " transform="matrix(0.65,0,0,-0.65,0,200)"/>
</g>
<path style="fill-rule:nonzero;fill:rgb(3.137255%,49.803922%,74.901961%);fill-opacity:1;stroke-width:4;stroke-linecap:butt;stroke-linejoin:miter;stroke:rgb(100%,100%,100%);stroke-opacity:1;stroke-miterlimit:4;" d="M 273.28125 281.622596 L 306.989183 315.018029 " transform="matrix(0.65,0,0,-0.65,0,200)"/>
<path style=" stroke:none;fill-rule:nonzero;fill:rgb(100%,100%,100%);fill-opacity:1;" d="M 94.582031 78.441406 L 94.582031 40.917969 L 100.949219 40.917969 L 91.558594 26.75 L 82.167969 40.917969 L 88.539062 40.917969 L 88.539062 78.441406 L 94.582031 78.441406 M 75.433594 83.851562 L 48.898438 57.316406 L 53.425781 52.824219 L 36.761719 49.445312 L 40.117188 66.105469 L 44.609375 61.609375 L 71.167969 88.140625 L 75.433594 83.851562 M 65.734375 101.246094 L 28.210938 101.246094 L 28.210938 94.875 L 14.042969 104.265625 L 28.207031 113.660156 L 28.207031 107.292969 L 65.734375 107.292969 L 65.734375 101.246094 M 71.167969 120.386719 L 44.609375 146.921875 L 40.117188 142.402344 L 36.761719 159.0625 L 53.425781 155.710938 L 48.898438 151.191406 L 75.433594 124.660156 L 71.167969 120.386719 M 88.539062 130.09375 L 88.539062 167.617188 L 82.167969 167.617188 L 91.558594 181.785156 L 100.949219 167.617188 L 94.582031 167.617188 L 94.582031 130.09375 L 88.539062 130.09375 M 107.679688 124.660156 L 134.210938 151.191406 L 129.71875 155.710938 L 146.378906 159.0625 L 143 142.402344 L 138.484375 146.921875 L 111.949219 120.386719 L 107.679688 124.660156 M 117.382812 107.292969 L 154.90625 107.292969 L 154.90625 113.660156 L 169.078125 104.265625 L 154.90625 94.875 L 154.90625 101.246094 L 117.382812 101.246094 L 117.382812 107.292969 M 111.949219 88.140625 L 138.484375 61.609375 L 143 66.105469 L 146.378906 49.445312 L 129.71875 52.824219 L 134.210938 57.316406 L 107.679688 83.851562 L 111.949219 88.140625 "/>
<path style=" stroke:none;fill-rule:nonzero;fill:rgb(100%,100%,100%);fill-opacity:1;" d="M 114.585938 136.035156 C 132.289062 123.636719 136.605469 99.21875 124.183594 81.515625 C 111.820312 63.816406 87.390625 59.5 69.699219 71.917969 C 52 84.3125 47.683594 108.714844 60.074219 126.40625 C 72.488281 144.132812 96.886719 148.421875 114.585938 136.035156 "/>
<path style="fill:none;stroke-width:4;stroke-linecap:butt;stroke-linejoin:miter;stroke:rgb(3.137255%,49.803922%,74.901961%);stroke-opacity:1;stroke-miterlimit:4;" d="M 176.286058 98.407452 C 203.521635 117.481971 210.16226 155.048077 191.051683 182.283654 C 172.03125 209.513221 134.447115 216.153846 107.229567 197.049279 C 80 177.980769 73.359375 140.438702 92.421875 113.221154 C 111.520433 85.949519 149.05649 79.350962 176.286058 98.407452 Z M 176.286058 98.407452 " transform="matrix(0.65,0,0,-0.65,0,200)"/>
</g>
</svg>
