<?xml version="1.0" encoding="UTF-8"?>
<svg xmlns="http://www.w3.org/2000/svg" xmlns:xlink="http://www.w3.org/1999/xlink" width="275pt" height="200pt" viewBox="0 0 275 200" version="1.1">
<g id="surface1">
<path style=" stroke:none;fill-rule:nonzero;fill:rgb(0.784314%,43.921569%,62.352941%);fill-opacity:1;" d="M 58.324219 12.921875 L 4.34375 12.921875 L 4.34375 166.121094 L 55.199219 165.671875 "/>
<path style="fill:none;stroke-width:0.5;stroke-linecap:butt;stroke-linejoin:miter;stroke:rgb(100%,100%,100%);stroke-opacity:1;stroke-miterlimit:4;" d="M 11.664844 2.584375 L 0.86875 2.584375 L 0.86875 33.222656 L 11.039844 33.135156 " transform="matrix(5,0,0,5,0,0)"/>
<path style=" stroke:none;fill-rule:nonzero;fill:rgb(0.784314%,43.921569%,62.352941%);fill-opacity:1;" d="M 55.199219 12.921875 L 55.199219 166.121094 L 59.351562 163.015625 L 59.351562 11.894531 L 55.199219 12.921875 "/>
<path style="fill:none;stroke-width:0.5;stroke-linecap:butt;stroke-linejoin:miter;stroke:rgb(100%,100%,100%);stroke-opacity:1;stroke-miterlimit:4;" d="M 11.039844 2.584375 L 11.039844 33.222656 L 11.870313 32.603125 L 11.870313 2.378906 Z M 11.039844 2.584375 " transform="matrix(5,0,0,5,0,0)"/>
<path style=" stroke:none;fill-rule:nonzero;fill:rgb(0.784314%,43.921569%,62.352941%);fill-opacity:1;" d="M 70.316406 12.648438 L 70.316406 164.5 L 93.726562 144.191406 L 93.726562 3.496094 L 70.316406 12.644531 "/>
<path style="fill:none;stroke-width:0.5;stroke-linecap:butt;stroke-linejoin:miter;stroke:rgb(100%,100%,100%);stroke-opacity:1;stroke-miterlimit:4;" d="M 14.063281 2.529688 L 14.063281 32.900781 L 18.745313 28.839063 L 18.745313 0.699219 Z M 10.064063 4.46875 L 1.470313 4.46875 M 9.234375 7.59375 L 2.203125 7.59375 " transform="matrix(5,0,0,5,0,0)"/>
<path style=" stroke:none;fill-rule:nonzero;fill:rgb(0.784314%,43.921569%,62.352941%);fill-opacity:1;" d="M 59.03125 164.046875 L 69.800781 164.046875 L 69.800781 12.183594 L 59.03125 12.183594 L 59.03125 164.050781 Z M 59.03125 164.046875 "/>
<path style="fill:none;stroke-width:0.5;stroke-linecap:butt;stroke-linejoin:miter;stroke:rgb(100%,100%,100%);stroke-opacity:1;stroke-miterlimit:4;" d="M 13.960156 2.438281 L 11.80625 2.438281 L 11.80625 32.807813 L 13.960156 32.807813 M 0.350781 5.977344 L 11.084375 5.977344 M 0.350781 9 L 11.084375 9 " transform="matrix(5,0,0,5,0,0)"/>
<path style=" stroke:none;fill-rule:nonzero;fill:rgb(0.784314%,43.921569%,62.352941%);fill-opacity:1;" d="M 64.796875 147.511719 C 65.804688 147.511719 66.625 146.691406 66.625 145.679688 C 66.625 144.667969 65.804688 143.851562 64.796875 143.851562 C 63.796875 143.851562 62.988281 144.679688 62.988281 145.679688 C 62.988281 146.679688 63.789062 147.511719 64.796875 147.511719 "/>
<path style="fill:none;stroke-width:0.5;stroke-linecap:butt;stroke-linejoin:miter;stroke:rgb(100%,100%,100%);stroke-opacity:1;stroke-miterlimit:4;" d="M 12.959375 29.502344 C 13.160938 29.502344 13.325 29.338281 13.325 29.135938 C 13.325 28.933594 13.160938 28.770313 12.959375 28.770313 C 12.759375 28.770313 12.597656 28.936719 12.597656 29.135938 C 12.597656 29.335938 12.757812 29.502344 12.959375 29.502344 Z M 12.959375 29.502344 " transform="matrix(5,0,0,5,0,0)"/>
<path style=" stroke:none;fill-rule:nonzero;fill:rgb(0.784314%,43.921569%,62.352941%);fill-opacity:1;" d="M 64.796875 159.964844 C 65.53125 159.96875 66.195312 159.527344 66.480469 158.847656 C 66.761719 158.171875 66.609375 157.386719 66.089844 156.867188 C 65.566406 156.347656 64.785156 156.191406 64.105469 156.476562 C 63.425781 156.757812 62.984375 157.425781 62.988281 158.160156 C 62.988281 159.15625 63.789062 159.960938 64.796875 159.960938 "/>
<path style="fill:none;stroke-width:0.5;stroke-linecap:butt;stroke-linejoin:miter;stroke:rgb(100%,100%,100%);stroke-opacity:1;stroke-miterlimit:4;" d="M 12.959375 31.992969 C 13.10625 31.99375 13.239063 31.905469 13.296094 31.769531 C 13.352344 31.634375 13.321875 31.477344 13.217969 31.373438 C 13.113281 31.269531 12.957031 31.238281 12.821094 31.295313 C 12.685156 31.351562 12.596875 31.485156 12.597656 31.632031 C 12.597656 31.832031 12.757812 31.992188 12.959375 31.992188 Z M 12.959375 31.992969 " transform="matrix(5,0,0,5,0,0)"/>
<path style=" stroke:none;fill-rule:nonzero;fill:rgb(0.784314%,43.921569%,62.352941%);fill-opacity:1;" d="M 71.679688 12.28125 L 95.480469 2.980469 L 40.40625 2.980469 L 0.320312 13.378906 L 54.300781 13.378906 L 57.691406 12.726562 L 71.679688 12.28125 "/>
<path style="fill:none;stroke-width:0.5;stroke-linecap:butt;stroke-linejoin:miter;stroke:rgb(100%,100%,100%);stroke-opacity:1;stroke-miterlimit:4;" d="M 14.335938 2.45625 L 19.096094 0.596094 L 8.08125 0.596094 L 0.0640625 2.675781 L 10.860156 2.675781 L 11.538281 2.545313 Z M 46.078906 25.864844 L 17.470313 25.864844 " transform="matrix(5,0,0,5,0,0)"/>
<path style=" stroke:none;fill-rule:nonzero;fill:rgb(0.784314%,43.921569%,62.352941%);fill-opacity:1;" d="M 87.355469 128.785156 L 230.203125 128.785156 L 230.203125 21.074219 L 87.351562 21.074219 L 87.351562 128.785156 Z M 87.355469 128.785156 "/>
<path style="fill:none;stroke-width:0.5;stroke-linecap:butt;stroke-linejoin:miter;stroke:rgb(100%,100%,100%);stroke-opacity:1;stroke-miterlimit:4;" d="M 46.039844 25.757031 L 46.039844 4.214062 L 17.471094 4.214062 L 17.471094 25.757031 " transform="matrix(5,0,0,5,0,0)"/>
<path style=" stroke:none;fill-rule:nonzero;fill:rgb(0.784314%,43.921569%,62.352941%);fill-opacity:1;" d="M 230.199219 129.175781 L 246.773438 99.710938 L 246.773438 5.300781 L 142.183594 5.300781 L 87.355469 21.074219 L 230.199219 21.074219 L 230.199219 129.175781 "/>
<path style="fill:none;stroke-width:0.5;stroke-linecap:butt;stroke-linejoin:miter;stroke:rgb(100%,100%,100%);stroke-opacity:1;stroke-miterlimit:4;" d="M 46.039844 25.835156 L 49.354688 19.942188 L 49.354688 1.060156 L 28.436719 1.060156 L 17.471094 4.214062 L 46.039844 4.214062 Z M 46.039844 25.835156 " transform="matrix(5,0,0,5,0,0)"/>
<path style="fill-rule:nonzero;fill:rgb(0.784314%,43.921569%,62.352941%);fill-opacity:1;stroke-width:0.5;stroke-linecap:butt;stroke-linejoin:miter;stroke:rgb(100%,100%,100%);stroke-opacity:1;stroke-miterlimit:4;" d="M 19.965625 23.263281 L 43.545313 23.263281 L 43.545313 6.710156 L 19.965625 6.710156 Z M 19.965625 23.263281 " transform="matrix(5,0,0,5,0,0)"/>
<path style=" stroke:none;fill-rule:nonzero;fill:rgb(0.784314%,43.921569%,62.352941%);fill-opacity:1;" d="M 230.199219 21.074219 L 246.773438 5.300781 "/>
<path style="fill:none;stroke-width:0.5;stroke-linecap:butt;stroke-linejoin:miter;stroke:rgb(100%,100%,100%);stroke-opacity:1;stroke-miterlimit:4;" d="M 46.039844 4.214062 L 49.354688 1.060156 " transform="matrix(5,0,0,5,0,0)"/>
<path style=" stroke:none;fill-rule:nonzero;fill:rgb(0.784314%,43.921569%,62.352941%);fill-opacity:1;" d="M 220.996094 190.453125 L 220.996094 174.609375 L 56.59375 174.609375 L 83.886719 155.910156 L 239.699219 155.910156 L 239.699219 169.410156 L 220.996094 190.460938 "/>
<path style="fill:none;stroke-width:0.5;stroke-linecap:butt;stroke-linejoin:miter;stroke:rgb(100%,100%,100%);stroke-opacity:1;stroke-miterlimit:4;" d="M 44.199219 38.090625 L 44.199219 34.921875 L 11.31875 34.921875 L 16.777344 31.182031 L 47.939844 31.182031 L 47.939844 33.882031 L 44.199219 38.092188 Z M 44.199219 38.090625 " transform="matrix(5,0,0,5,0,0)"/>
<path style="fill-rule:nonzero;fill:rgb(0.784314%,43.921569%,62.352941%);fill-opacity:1;stroke-width:0.5;stroke-linecap:butt;stroke-linejoin:miter;stroke:rgb(100%,100%,100%);stroke-opacity:1;stroke-miterlimit:4;" d="M 11.31875 38.090625 L 44.2 38.090625 L 44.2 34.921875 L 11.320312 34.921875 L 11.320312 38.092188 Z M 11.31875 38.090625 " transform="matrix(5,0,0,5,0,0)"/>
<path style="fill-rule:nonzero;fill:rgb(0.784314%,43.921569%,62.352941%);fill-opacity:1;stroke-width:0.5;stroke-linecap:butt;stroke-linejoin:miter;stroke:rgb(100%,100%,100%);stroke-opacity:1;stroke-miterlimit:4;" d="M 44.199219 34.921875 L 47.939844 31.182031 " transform="matrix(5,0,0,5,0,0)"/>
<path style="fill-rule:nonzero;fill:rgb(0.784314%,43.921569%,62.352941%);fill-opacity:1;stroke-width:0.5;stroke-linecap:butt;stroke-linejoin:miter;stroke:rgb(100%,100%,100%);stroke-opacity:1;stroke-miterlimit:4;" d="M 46.260156 36.567188 L 45.752344 38.086719 L 51.260156 38.086719 L 51.00625 36.567188 " transform="matrix(5,0,0,5,0,0)"/>
<path style=" stroke:none;fill-rule:nonzero;fill:rgb(0.784314%,43.921569%,62.352941%);fill-opacity:1;" d="M 255.03125 182.835938 L 254.394531 172.703125 L 242.378906 172.703125 L 230.980469 182.835938 L 255.03125 182.835938 "/>
<path style="fill:none;stroke-width:0.5;stroke-linecap:butt;stroke-linejoin:miter;stroke:rgb(100%,100%,100%);stroke-opacity:1;stroke-miterlimit:4;" d="M 51.00625 36.567188 L 50.878906 34.542188 L 48.475781 34.542188 L 46.196094 36.567188 Z M 51.00625 36.567188 " transform="matrix(5,0,0,5,0,0)"/>
<path style="fill-rule:nonzero;fill:rgb(0.784314%,43.921569%,62.352941%);fill-opacity:1;stroke-width:0.5;stroke-linecap:butt;stroke-linejoin:miter;stroke:rgb(100%,100%,100%);stroke-opacity:1;stroke-miterlimit:4;" d="M 41.514063 28.35 L 42.685156 31.085156 L 45.965625 27.490625 L 45.575781 26.163281 " transform="matrix(5,0,0,5,0,0)"/>
<path style=" stroke:none;fill-rule:nonzero;fill:rgb(0.784314%,43.921569%,62.352941%);fill-opacity:1;" d="M 207.570312 141.75 L 230.21875 129.25 L 87.261719 129.25 L 118.898438 141.75 L 207.574219 141.75 "/>
<path style="fill:none;stroke-width:0.5;stroke-linecap:butt;stroke-linejoin:miter;stroke:rgb(100%,100%,100%);stroke-opacity:1;stroke-miterlimit:4;" d="M 41.514063 28.35 L 46.04375 25.85 L 17.452344 25.85 L 23.779688 28.35 L 41.514844 28.35 Z M 41.514063 28.35 " transform="matrix(5,0,0,5,0,0)"/>
<path style=" stroke:none;fill-rule:nonzero;fill:rgb(0.784314%,43.921569%,62.352941%);fill-opacity:1;" d="M 213.820312 155.816406 L 207.570312 141.75 L 118.894531 141.75 L 110.695312 155.816406 L 213.820312 155.816406 "/>
<path style="fill:none;stroke-width:0.5;stroke-linecap:butt;stroke-linejoin:miter;stroke:rgb(100%,100%,100%);stroke-opacity:1;stroke-miterlimit:4;" d="M 42.764063 31.163281 L 41.514063 28.35 L 23.778906 28.35 L 22.139063 31.163281 Z M 42.764063 31.163281 " transform="matrix(5,0,0,5,0,0)"/>
<path style="fill:none;stroke-width:0.5;stroke-linecap:butt;stroke-linejoin:miter;stroke:rgb(0.784314%,43.921569%,62.352941%);stroke-opacity:1;stroke-miterlimit:4;" d="M 49.810156 34.746094 C 50.317188 34.135938 47.539062 33.311719 50.66875 32.79375 C 52.665625 32.465625 58.715625 28.910938 44.525781 28.725781 " transform="matrix(5,0,0,5,0,0)"/>
</g>
</svg>
