<?xml version="1.0" encoding="UTF-8"?>
<svg xmlns="http://www.w3.org/2000/svg" xmlns:xlink="http://www.w3.org/1999/xlink" width="123pt" height="200pt" viewBox="0 0 123 200" version="1.1">
<defs>
<clipPath id="clip1">
  <path d="M 20 143 L 65 143 L 65 196.398438 L 20 196.398438 Z M 20 143 "/>
</clipPath>
<clipPath id="clip2">
  <path d="M 15 138 L 70 138 L 70 196.398438 L 15 196.398438 Z M 15 138 "/>
</clipPath>
</defs>
<g id="surface1">
<path style="fill-rule:nonzero;fill:rgb(0.784314%,43.921569%,62.352941%);fill-opacity:1;stroke-width:4;stroke-linecap:butt;stroke-linejoin:miter;stroke:rgb(100%,100%,100%);stroke-opacity:1;stroke-miterlimit:4;" d="M 287.621169 335.566406 C 302.229909 342.597656 287.298702 372.441406 242.729831 348.183594 " transform="matrix(0.39975,0,0,-0.4,0,200)"/>
<path style=" stroke:none;fill-rule:nonzero;fill:rgb(0.784314%,43.921569%,62.352941%);fill-opacity:1;" d="M 46.890625 63.773438 L 100.609375 63.773438 L 100.609375 23.242188 L 46.890625 23.242188 Z M 46.890625 63.773438 "/>
<path style="fill:none;stroke-width:4;stroke-linecap:butt;stroke-linejoin:miter;stroke:rgb(100%,100%,100%);stroke-opacity:1;stroke-miterlimit:4;" d="M 251.680738 340.566406 L 251.680738 441.894531 L 117.299875 441.894531 L 117.299875 340.566406 " transform="matrix(0.39975,0,0,-0.4,0,200)"/>
<path style=" stroke:none;fill-rule:nonzero;fill:rgb(0.784314%,43.921569%,62.352941%);fill-opacity:1;" d="M 100.609375 23.242188 L 100.609375 63.929688 L 106.839844 52.835938 L 106.839844 17.304688 L 100.609375 23.242188 "/>
<path style="fill:none;stroke-width:4;stroke-linecap:butt;stroke-linejoin:miter;stroke:rgb(100%,100%,100%);stroke-opacity:1;stroke-miterlimit:4;" d="M 251.680738 441.894531 L 251.680738 340.175781 L 267.266651 367.910156 L 267.266651 456.738281 Z M 251.680738 441.894531 " transform="matrix(0.39975,0,0,-0.4,0,200)"/>
<path style=" stroke:none;fill-rule:nonzero;fill:rgb(0.784314%,43.921569%,62.352941%);fill-opacity:1;" d="M 106.839844 17.304688 L 67.523438 17.304688 L 46.890625 23.242188 L 100.609375 23.242188 L 106.839844 17.304688 "/>
<path style="fill:none;stroke-width:4;stroke-linecap:butt;stroke-linejoin:miter;stroke:rgb(100%,100%,100%);stroke-opacity:1;stroke-miterlimit:4;" d="M 267.266651 456.738281 L 168.914165 456.738281 L 117.299875 441.894531 L 251.680738 441.894531 Z M 267.266651 456.738281 " transform="matrix(0.39975,0,0,-0.4,0,200)"/>
<path style="fill-rule:nonzero;fill:rgb(0.784314%,43.921569%,62.352941%);fill-opacity:1;stroke-width:4;stroke-linecap:butt;stroke-linejoin:miter;stroke:rgb(100%,100%,100%);stroke-opacity:1;stroke-miterlimit:4;" d="M 129.016182 352.294922 L 239.964431 352.294922 L 239.964431 430.146484 L 129.016182 430.146484 Z M 129.016182 352.294922 " transform="matrix(0.39975,0,0,-0.4,0,200)"/>
<path style="fill-rule:nonzero;fill:rgb(0.784314%,43.921569%,62.352941%);fill-opacity:1;stroke-width:4;stroke-linecap:butt;stroke-linejoin:miter;stroke:rgb(100%,100%,100%);stroke-opacity:1;stroke-miterlimit:4;" d="M 230.388133 328.378906 L 235.89939 315.488281 L 251.328956 332.402344 L 249.49187 338.652344 " transform="matrix(0.39975,0,0,-0.4,0,200)"/>
<path style=" stroke:none;fill-rule:nonzero;fill:rgb(0.784314%,43.921569%,62.352941%);fill-opacity:1;" d="M 92.097656 68.648438 L 100.625 63.941406 L 46.863281 63.941406 L 58.757812 68.648438 L 92.097656 68.648438 "/>
<path style="fill:none;stroke-width:4;stroke-linecap:butt;stroke-linejoin:miter;stroke:rgb(100%,100%,100%);stroke-opacity:1;stroke-miterlimit:4;" d="M 230.388133 328.378906 L 251.719825 340.146484 L 117.231473 340.146484 L 146.986398 328.378906 Z M 230.388133 328.378906 " transform="matrix(0.39975,0,0,-0.4,0,200)"/>
<path style=" stroke:none;fill-rule:nonzero;fill:rgb(0.784314%,43.921569%,62.352941%);fill-opacity:1;" d="M 94.457031 73.941406 L 92.097656 68.648438 L 58.757812 68.648438 L 55.671875 73.941406 L 94.457031 73.941406 "/>
<path style="fill:none;stroke-width:4;stroke-linecap:butt;stroke-linejoin:miter;stroke:rgb(100%,100%,100%);stroke-opacity:1;stroke-miterlimit:4;" d="M 236.29026 315.146484 L 230.388133 328.378906 L 146.986398 328.378906 L 139.266729 315.146484 Z M 236.29026 315.146484 " transform="matrix(0.39975,0,0,-0.4,0,200)"/>
<path style="fill-rule:nonzero;fill:rgb(0.784314%,43.921569%,62.352941%);fill-opacity:1;stroke-width:4;stroke-linecap:butt;stroke-linejoin:miter;stroke:rgb(100%,100%,100%);stroke-opacity:1;stroke-miterlimit:4;" d="M 60.350219 275.605469 L 59.177611 275.605469 L 59.529393 121.503906 C 59.177611 121.269531 47.031348 121.972656 46.835913 121.269531 C 46.757739 107.753906 46.953174 103.964844 47.265869 92.011719 C 46.601391 91.933594 32.852564 91.933594 32.852564 91.777344 C 32.969825 136.738281 32.305347 230.683594 31.836304 281.152344 " transform="matrix(0.39975,0,0,-0.4,0,200)"/>
<path style="fill-rule:nonzero;fill:rgb(0.784314%,43.921569%,62.352941%);fill-opacity:1;stroke-width:4;stroke-linecap:butt;stroke-linejoin:miter;stroke:rgb(100%,100%,100%);stroke-opacity:1;stroke-miterlimit:4;" d="M 312.148218 286.816406 C 312.343652 306.347656 320.200125 307.753906 321.12844 310.605469 C 321.12844 313.691406 321.597483 318.144531 321.167527 320.761719 C 313.672608 320.996094 312.343652 320.527344 302.190822 320.761719 L 86.636179 322.675781 C 86.636179 321.933594 52.229909 313.027344 51.604518 312.753906 C 41.129221 313.339844 37.269387 309.355469 27.233818 308.886719 C 25.983036 306.113281 27.380394 307.167969 27.702861 303.769531 C 29.686523 302.089844 32.618043 301.308594 34.650563 299.003906 C 35.862258 291.894531 35.901345 289.003906 35.862258 282.949219 C 35.862258 279.082031 35.823171 275.253906 35.823171 271.386719 " transform="matrix(0.39975,0,0,-0.4,0,200)"/>
<path style="fill-rule:nonzero;fill:rgb(0.784314%,43.921569%,62.352941%);fill-opacity:1;stroke-width:4;stroke-linecap:butt;stroke-linejoin:miter;stroke:rgb(100%,100%,100%);stroke-opacity:1;stroke-miterlimit:4;" d="M 311.288305 279.746094 L 310.07661 279.746094 L 310.46748 125.605469 C 310.07661 125.371094 297.969434 126.074219 297.725141 125.371094 C 297.656739 111.894531 297.89126 108.105469 298.194184 96.152344 C 297.500391 96.074219 283.79065 96.074219 283.79065 95.917969 C 283.868824 140.878906 283.233662 234.824219 282.725532 285.292969 " transform="matrix(0.39975,0,0,-0.4,0,200)"/>
<path style=" stroke:none;fill-rule:nonzero;fill:rgb(0.784314%,43.921569%,62.352941%);fill-opacity:1;" d="M 122.453125 93.929688 L 122.453125 81.882812 L 14.164062 80.335938 L 14.164062 91.445312 L 122.453125 93.929688 "/>
<path style="fill:none;stroke-width:4;stroke-linecap:butt;stroke-linejoin:miter;stroke:rgb(100%,100%,100%);stroke-opacity:1;stroke-miterlimit:4;" d="M 306.324265 265.175781 L 306.324265 295.292969 L 35.432301 299.160156 L 35.432301 271.386719 Z M 306.324265 265.175781 " transform="matrix(0.39975,0,0,-0.4,0,200)"/>
<path style=" stroke:none;fill-rule:nonzero;fill:rgb(0.784314%,43.921569%,62.352941%);fill-opacity:1;" d="M 127.542969 88.554688 L 127.542969 76.414062 L 122.453125 81.789062 L 122.453125 93.835938 L 127.542969 88.554688 "/>
<path style="fill:none;stroke-width:4;stroke-linecap:butt;stroke-linejoin:miter;stroke:rgb(100%,100%,100%);stroke-opacity:1;stroke-miterlimit:4;" d="M 319.056832 278.613281 L 319.056832 308.964844 L 306.324265 295.527344 L 306.324265 265.410156 Z M 319.056832 278.613281 " transform="matrix(0.39975,0,0,-0.4,0,200)"/>
<path style=" stroke:none;fill-rule:nonzero;fill:rgb(0.784314%,43.921569%,62.352941%);fill-opacity:1;" d="M 127.777344 71.695312 L 121.832031 77.867188 L 10.773438 76.320312 L 35.148438 70.460938 L 127.777344 71.695312 "/>
<path style="fill:none;stroke-width:4;stroke-linecap:butt;stroke-linejoin:miter;stroke:rgb(100%,100%,100%);stroke-opacity:1;stroke-miterlimit:4;" d="M 319.643136 320.761719 L 304.77056 305.332031 L 26.950438 309.199219 L 87.926048 323.847656 Z M 319.643136 320.761719 " transform="matrix(0.39975,0,0,-0.4,0,200)"/>
<path style=" stroke:none;fill-rule:nonzero;fill:rgb(0.784314%,43.921569%,62.352941%);fill-opacity:1;" d="M 113.507812 74.257812 L 113.519531 72.085938 L 116.804688 65.539062 L 116.785156 70.039062 L 113.507812 74.257812 "/>
<path style="fill:none;stroke-width:4;stroke-linecap:butt;stroke-linejoin:miter;stroke:rgb(100%,100%,100%);stroke-opacity:1;stroke-miterlimit:4;" d="M 283.946998 314.355469 L 283.976313 319.785156 L 292.19434 336.152344 L 292.145482 324.902344 Z M 283.946998 314.355469 " transform="matrix(0.39975,0,0,-0.4,0,200)"/>
<path style=" stroke:none;fill-rule:nonzero;fill:rgb(0.784314%,43.921569%,62.352941%);fill-opacity:1;" d="M 113.570312 72.085938 L 116.847656 65.539062 L 109.351562 65.539062 L 106.074219 72.085938 L 113.570312 72.085938 "/>
<path style="fill:none;stroke-width:4;stroke-linecap:butt;stroke-linejoin:miter;stroke:rgb(100%,100%,100%);stroke-opacity:1;stroke-miterlimit:4;" d="M 284.103346 319.785156 L 292.301829 336.152344 L 273.549875 336.152344 L 265.351391 319.785156 Z M 284.103346 319.785156 " transform="matrix(0.39975,0,0,-0.4,0,200)"/>
<path style="fill-rule:nonzero;fill:rgb(0.784314%,43.921569%,62.352941%);fill-opacity:1;stroke-width:4;stroke-linecap:butt;stroke-linejoin:miter;stroke:rgb(100%,100%,100%);stroke-opacity:1;stroke-miterlimit:4;" d="M 265.351391 314.511719 L 284.103346 314.511719 L 284.103346 319.785156 L 265.351391 319.785156 Z M 265.351391 314.511719 " transform="matrix(0.39975,0,0,-0.4,0,200)"/>
<path style=" stroke:none;fill-rule:nonzero;fill:rgb(0.784314%,43.921569%,62.352941%);fill-opacity:1;" d="M 96.425781 75.445312 L 96.425781 72.851562 L 102.027344 65.085938 L 102.027344 69.835938 L 96.425781 75.445312 "/>
<path style="fill:none;stroke-width:4;stroke-linecap:butt;stroke-linejoin:miter;stroke:rgb(100%,100%,100%);stroke-opacity:1;stroke-miterlimit:4;" d="M 241.215213 311.386719 L 241.215213 317.871094 L 255.227877 337.285156 L 255.227877 325.410156 Z M 241.215213 311.386719 " transform="matrix(0.39975,0,0,-0.4,0,200)"/>
<path style=" stroke:none;fill-rule:nonzero;fill:rgb(0.784314%,43.921569%,62.352941%);fill-opacity:1;" d="M 96.425781 72.882812 L 47.191406 72.882812 L 52.796875 65.085938 L 102.027344 65.085938 L 96.425781 72.882812 "/>
<path style="fill:none;stroke-width:4;stroke-linecap:butt;stroke-linejoin:miter;stroke:rgb(100%,100%,100%);stroke-opacity:1;stroke-miterlimit:4;" d="M 241.215213 317.792969 L 118.052298 317.792969 L 132.074734 337.285156 L 255.227877 337.285156 Z M 241.215213 317.792969 " transform="matrix(0.39975,0,0,-0.4,0,200)"/>
<path style="fill-rule:nonzero;fill:rgb(0.784314%,43.921569%,62.352941%);fill-opacity:1;stroke-width:4;stroke-linecap:butt;stroke-linejoin:miter;stroke:rgb(100%,100%,100%);stroke-opacity:1;stroke-miterlimit:4;" d="M 117.964353 311.386719 L 241.215213 311.386719 L 241.215213 317.792969 L 117.964353 317.792969 Z M 117.964353 311.386719 " transform="matrix(0.39975,0,0,-0.4,0,200)"/>
<path style=" stroke:none;fill-rule:nonzero;fill:rgb(0.784314%,43.921569%,62.352941%);fill-opacity:1;" d="M 82.339844 161.054688 C 81.511719 166.632812 80.417969 167.914062 86.835938 168.882812 L 86.835938 169.195312 C 86.835938 169.195312 87.539062 167.664062 87.835938 170.445312 C 87.835938 170.445312 89.066406 174.773438 71.796875 170.148438 C 71.796875 170.148438 70.816406 166.960938 68.660156 168.804688 L 68.957031 169.113281 C 69.546875 166.804688 71.363281 166.085938 70.390625 162.507812 L 70.457031 162.851562 L 82.339844 161.054688 "/>
<path style="fill:none;stroke-width:4;stroke-linecap:butt;stroke-linejoin:miter;stroke:rgb(100%,100%,100%);stroke-opacity:1;stroke-miterlimit:4;" d="M 205.978346 97.363281 C 203.906739 83.417969 201.170654 80.214844 217.22561 77.792969 L 217.22561 77.011719 C 217.22561 77.011719 218.984522 80.839844 219.727173 73.886719 C 219.727173 73.886719 222.805269 63.066406 179.60444 74.628906 C 179.60444 74.628906 177.151735 82.597656 171.757739 77.988281 L 172.500391 77.216797 C 173.975922 82.988281 178.519778 84.785156 176.086617 93.730469 L 176.252736 92.871094 Z M 205.978346 97.363281 " transform="matrix(0.39975,0,0,-0.4,0,200)"/>
<path style=" stroke:none;fill-rule:nonzero;fill:rgb(0.784314%,43.921569%,62.352941%);fill-opacity:1;" d="M 92.351562 74.742188 C 93.425781 73.507812 92.582031 74.023438 93.738281 72.789062 C 95.441406 70.929688 97.082031 69.273438 98.53125 67.257812 C 99.40625 66.054688 100.171875 64.867188 101.109375 63.726562 C 102.027344 62.585938 104.105469 62.539062 105.371094 63.148438 C 106.449219 63.695312 106.980469 63.976562 108.105469 64.273438 C 108.777344 64.460938 109.324219 65.960938 108.539062 66.070312 C 109.179688 66.335938 109.757812 66.726562 110.011719 67.367188 C 110.054688 67.507812 109.882812 67.835938 109.914062 67.941406 C 110.289062 69.070312 112.429688 70.179688 111.242188 71.039062 C 110.617188 71.492188 109.523438 70.757812 108.652344 71.039062 C 107.902344 71.257812 107.496094 71.976562 106.933594 72.554688 C 106.355469 73.132812 105.65625 73.273438 104.949219 73.492188 C 103.960938 73.796875 102.976562 74.125 102 74.476562 C 101.230469 74.757812 100.671875 75.320312 99.953125 75.695312 C 98.03125 76.664062 98.453125 76.695312 96.660156 77.851562 C 95.21875 77.132812 93.394531 75.960938 92.351562 74.742188 "/>
<path style="fill:none;stroke-width:4;stroke-linecap:butt;stroke-linejoin:miter;stroke:rgb(100%,100%,100%);stroke-opacity:1;stroke-miterlimit:4;" d="M 231.023296 313.144531 C 233.710522 316.230469 231.599828 314.941406 234.492261 318.027344 C 238.752736 322.675781 242.856864 326.816406 246.482176 331.855469 C 248.671044 334.863281 250.586304 337.832031 252.93152 340.683594 C 255.227877 343.535156 260.426438 343.652344 263.59248 342.128906 C 266.289478 340.761719 267.618433 340.058594 270.432692 339.316406 C 272.11343 338.847656 273.481473 335.097656 271.517355 334.824219 C 273.119919 334.160156 274.566135 333.183594 275.201298 331.582031 C 275.308787 331.230469 274.878831 330.410156 274.957004 330.146484 C 275.895091 327.324219 281.25 324.550781 278.279393 322.402344 C 276.715916 321.269531 273.979831 323.105469 271.800735 322.402344 C 269.924562 321.855469 268.908302 320.058594 267.501173 318.613281 C 266.054956 317.167969 264.305816 316.816406 262.537133 316.269531 C 260.064884 315.507812 257.602408 314.6875 255.159475 313.808594 C 253.234443 313.105469 251.837086 311.699219 250.039087 310.761719 C 245.231395 308.339844 246.286742 308.261719 241.801517 305.371094 C 238.195747 307.167969 233.632348 310.097656 231.023296 313.144531 Z M 231.023296 313.144531 " transform="matrix(0.39975,0,0,-0.4,0,200)"/>
<path style=" stroke:none;fill-rule:nonzero;fill:rgb(0.784314%,43.921569%,62.352941%);fill-opacity:1;" d="M 86.835938 169.195312 C 90.117188 169.695312 93.660156 168.164062 92.679688 170.554688 C 92.300781 174.242188 92.648438 174.523438 90.632812 176.992188 C 89.914062 177.726562 89.976562 176.976562 88.878906 177.742188 C 83.667969 178.648438 75.5625 173.382812 74.859375 177.382812 C 75.078125 177.179688 72.28125 180.710938 72.21875 181.320312 C 71.875 181.523438 71.128906 181.179688 70.800781 181.320312 C 67.222656 175.929688 66.941406 172.210938 67.722656 169.113281 C 69.890625 167.273438 71.796875 170.148438 71.796875 170.148438 C 90.300781 174.460938 87.835938 170.445312 87.835938 170.445312 C 87.539062 167.664062 86.835938 169.195312 86.835938 169.195312 "/>
<path style="fill:none;stroke-width:4;stroke-linecap:butt;stroke-linejoin:miter;stroke:rgb(100%,100%,100%);stroke-opacity:1;stroke-miterlimit:4;" d="M 217.22561 77.011719 C 225.433865 75.761719 234.296826 79.589844 231.844121 73.613281 C 230.896263 64.394531 231.765947 63.691406 226.723734 57.519531 C 224.925735 55.683594 225.082083 57.558594 222.336226 55.644531 C 209.300735 53.378906 189.02439 66.542969 187.265478 56.542969 C 187.812695 57.050781 180.816135 48.222656 180.659787 46.699219 C 179.799875 46.191406 177.933474 47.050781 177.112649 46.699219 C 168.161742 60.175781 167.458177 69.472656 169.412523 77.216797 C 174.835835 81.816406 179.60444 74.628906 179.60444 74.628906 C 225.893136 63.847656 219.727173 73.886719 219.727173 73.886719 C 218.984522 80.839844 217.22561 77.011719 217.22561 77.011719 Z M 217.22561 77.011719 " transform="matrix(0.39975,0,0,-0.4,0,200)"/>
<path style="fill-rule:nonzero;fill:rgb(0.784314%,43.921569%,62.352941%);fill-opacity:1;stroke-width:4;stroke-linecap:butt;stroke-linejoin:miter;stroke:rgb(100%,100%,100%);stroke-opacity:1;stroke-miterlimit:4;" d="M 58.522905 268.613281 C 52.073562 239.550781 51.018215 211.035156 60.350219 183.535156 C 62.070044 181.503906 64.483662 180.644531 67.542214 179.277344 C 84.486398 180.488281 83.792605 180.332031 103.590134 179.824219 L 127.188868 177.753906 C 128.869606 177.246094 130.941213 177.753906 132.465604 176.582031 C 141.602173 162.480469 194.056832 184.394531 195.62031 169.277344 C 196.519309 173.730469 174.874922 164.355469 173.712086 153.496094 C 177.933474 136.191406 173.62414 102.402344 172.773999 86.113281 C 176.448171 83.378906 167.575438 82.792969 176.252736 78.222656 C 188.594434 75.146484 205.978346 82.714844 205.978346 82.714844 C 210.698093 85.605469 212.271341 80.966797 217.186523 83.652344 C 218.359131 129.667969 215.623046 159.472656 221.90627 203.105469 C 222.580519 212.089844 219.922608 211.503906 219.375391 217.128906 C 219.062695 220.839844 214.80222 221.894531 212.574265 225.449219 C 203.398609 227.597656 191.44778 228.222656 184.920263 228.925781 L 160.471388 234.316406 C 163.051126 240.214844 161.253127 273.066406 162.376876 279.472656 C 165.660178 282.246094 166.481004 303.847656 168.953252 307.167969 L 170.702392 324.941406 C 171.132348 321.035156 169.568871 315.449219 176.985616 311.542969 C 181.167917 310.878906 179.448093 309.511719 183.591307 308.613281 C 184.099437 308.144531 184.56848 307.646484 185.07661 307.167969 C 186.327392 306.777344 187.578174 306.347656 188.711695 305.683594 C 192.893996 302.246094 198.522514 303.261719 202.655957 299.824219 C 208.978268 298.808594 214.098655 294.746094 220.469825 296.621094 C 222.727095 297.285156 225.003909 297.597656 227.339353 297.324219 C 233.593261 301.933594 239.182692 298.574219 243.550657 304.863281 C 244.840525 306.425781 250.547217 306.425781 252.227955 307.324219 C 254.221388 310.146484 253.791432 307.285156 254.729518 310.917969 C 257.543777 312.285156 258.872733 311.191406 262.273296 311.191406 C 262.771654 311.816406 267.110303 321.855469 267.37414 322.949219 C 267.37414 322.949219 260.739134 338.535156 247.811132 336.386719 L 231.990697 338.066406 C 222.072389 337.753906 211.636179 338.466797 203.242261 348.222656 L 200.818871 353.183594 L 202.069653 361.308594 C 204.844825 367.011719 198.874296 380.214844 197.232645 387.246094 C 188.438086 393.691406 193.626876 389.042969 184.695513 396.074219 L 65.118824 407.441406 C 63.907129 406.777344 61.757348 406.660156 60.936523 406.777344 C 51.409084 406.503906 43.787133 408.261719 35.266182 402.558594 C 33.243433 397.714844 29.266338 389.941406 29.735381 384.199219 C 31.914478 376.152344 17.188477 377.011719 21.292605 368.652344 C 23.315353 366.035156 22.299093 363.105469 23.315353 360.605469 C 21.292605 349.160156 23.794168 359.589844 21.292605 349.746094 L 20.471779 349.667969 C 7.270169 314.863281 2.110694 278.378906 2.110694 278.378906 C 3.04878 277.324219 4.104128 276.386719 4.729518 275.292969 C 12.458959 266.035156 54.340604 253.613281 54.340604 253.613281 L 54.487179 254.082031 " transform="matrix(0.39975,0,0,-0.4,0,200)"/>
<path style=" stroke:none;fill-rule:nonzero;fill:rgb(0.784314%,43.921569%,62.352941%);fill-opacity:1;" d="M 42.710938 164.367188 C 40.738281 166.367188 39.597656 167.976562 39.082031 169.539062 C 41.238281 166.460938 43.738281 169.867188 43.738281 169.867188 C 49.90625 172.335938 52.6875 173.570312 52.6875 173.570312 C 60.871094 172.898438 58.085938 168.289062 58.085938 168.289062 C 53.964844 166.523438 52.796875 165.367188 53.046875 164.613281 "/>
<path style="fill-rule:nonzero;fill:rgb(0.784314%,43.921569%,62.352941%);fill-opacity:1;stroke-width:4;stroke-linecap:butt;stroke-linejoin:miter;stroke:rgb(100%,100%,100%);stroke-opacity:1;stroke-miterlimit:4;" d="M 99.300344 143.222656 L 93.085522 99.003906 L 89.342949 85.996094 L 124.570044 80.566406 L 125.742652 80.761719 C 126.368043 82.646484 134.341776 79.628906 138.123437 79.941406 C 143.234053 82.871094 138.87586 80.839844 144.142824 83.613281 C 143.585835 84.394531 142.725922 100.058594 142.931129 143.925781 " transform="matrix(0.39975,0,0,-0.4,0,200)"/>
<path style=" stroke:none;fill-rule:nonzero;fill:rgb(0.784314%,43.921569%,62.352941%);fill-opacity:1;" d="M 45.941406 183.289062 L 47.953125 169.554688 M 42.179688 131.367188 C 43.144531 131.195312 43.800781 130.273438 43.628906 129.304688 L 39.804688 107.570312 C 39.632812 106.601562 38.710938 105.960938 37.757812 106.132812 L 32.429688 107.070312 C 31.464844 107.242188 30.824219 108.164062 30.996094 109.113281 L 34.804688 130.851562 C 34.976562 131.820312 35.898438 132.476562 36.867188 132.304688 L 42.179688 131.367188 "/>
<path style="fill:none;stroke-width:4;stroke-linecap:butt;stroke-linejoin:miter;stroke:rgb(100%,100%,100%);stroke-opacity:1;stroke-miterlimit:4;" d="M 105.515166 171.582031 C 107.928784 172.011719 109.570435 174.316406 109.140478 176.738281 L 99.573952 231.074219 C 99.143996 233.496094 96.837867 235.097656 94.453565 234.667969 L 81.124922 232.324219 C 78.711304 231.894531 77.10874 229.589844 77.538696 227.216797 L 87.066135 172.871094 C 87.496091 170.449219 89.80222 168.808594 92.22561 169.238281 Z M 105.515166 171.582031 " transform="matrix(0.39975,0,0,-0.4,0,200)"/>
<path style="fill-rule:nonzero;fill:rgb(0.784314%,43.921569%,62.352941%);fill-opacity:1;stroke-width:4;stroke-linecap:butt;stroke-linejoin:miter;stroke:rgb(100%,100%,100%);stroke-opacity:1;stroke-miterlimit:4;" d="M 106.453252 90.175781 C 97.502345 88.144531 86.909787 89.716797 86.128049 84.160156 C 85.395169 78.574219 89.450438 77.441406 93.476391 77.216797 " transform="matrix(0.39975,0,0,-0.4,0,200)"/>
<path style=" stroke:none;fill-rule:nonzero;fill:rgb(0.784314%,43.921569%,62.352941%);fill-opacity:1;" d="M 81.433594 131.210938 C 82.417969 130.210938 82.539062 129.882812 82.539062 128.898438 L 82.539062 117.113281 C 82.539062 116.132812 81.742188 115.335938 80.761719 115.335938 L 67.769531 127.882812 C 67.296875 127.882812 66.84375 128.070312 66.511719 128.402344 C 66.175781 128.738281 65.988281 129.191406 65.988281 129.664062 L 65.988281 142.773438 C 65.988281 143.246094 66.175781 143.699219 66.511719 144.035156 C 66.84375 144.367188 67.296875 144.554688 67.769531 144.554688 L 81.433594 131.210938 "/>
<path style="fill:none;stroke-width:4;stroke-linecap:butt;stroke-linejoin:miter;stroke:rgb(100%,100%,100%);stroke-opacity:1;stroke-miterlimit:4;" d="M 203.711304 171.972656 C 206.17378 174.472656 206.476704 175.292969 206.476704 177.753906 L 206.476704 207.216797 C 206.476704 209.667969 204.483271 211.660156 202.030566 211.660156 L 169.529784 180.292969 C 168.347405 180.292969 167.213884 179.824219 166.383286 178.994141 C 165.542917 178.154297 165.073874 177.021484 165.073874 175.839844 L 165.073874 143.066406 C 165.073874 141.884766 165.542917 140.751953 166.383286 139.912109 C 167.213884 139.082031 168.347405 138.613281 169.529784 138.613281 Z M 203.711304 171.972656 " transform="matrix(0.39975,0,0,-0.4,0,200)"/>
<path style=" stroke:none;fill-rule:nonzero;fill:rgb(0.784314%,43.921569%,62.352941%);fill-opacity:1;" d="M 16.972656 82.585938 C 16.695312 79.941406 19.9375 72.789062 20.066406 70.613281 C 19.472656 73.007812 18.988281 84.101562 19.613281 85.726562 L 16.972656 82.585938 "/>
<path style="fill:none;stroke-width:4;stroke-linecap:butt;stroke-linejoin:miter;stroke:rgb(100%,100%,100%);stroke-opacity:1;stroke-miterlimit:4;" d="M 42.458177 293.535156 C 41.764384 300.146484 49.874922 318.027344 50.197389 323.466797 C 48.712086 317.480469 47.500391 289.746094 49.063868 285.683594 Z M 42.458177 293.535156 " transform="matrix(0.39975,0,0,-0.4,0,200)"/>
<path style="fill-rule:nonzero;fill:rgb(0.784314%,43.921569%,62.352941%);fill-opacity:1;stroke-width:4;stroke-linecap:butt;stroke-linejoin:miter;stroke:rgb(100%,100%,100%);stroke-opacity:1;stroke-miterlimit:4;" d="M 36.761257 233.066406 L 36.126094 234.941406 C 38.324734 254.628906 27.771263 282.597656 49.532911 295.878906 C 142.110303 296.308594 69.799484 293.691406 162.337789 293.925781 L 167.809959 289.785156 C 179.340604 291.425781 176.448171 231.894531 176.448171 231.894531 L 168.161742 226.621094 " transform="matrix(0.39975,0,0,-0.4,0,200)"/>
<path style=" stroke:none;fill-rule:nonzero;fill:rgb(0.784314%,43.921569%,62.352941%);fill-opacity:1;" d="M 10.902344 108.941406 C 11.773438 101.070312 7.105469 86.664062 15.785156 81.335938 C 52.761719 81.179688 26.230469 81.601562 63.207031 81.507812 L 63.992188 81.914062 C 68.597656 81.257812 67.144531 109.257812 67.144531 109.257812 L 10.902344 108.941406 "/>
<path style="fill:none;stroke-width:4;stroke-linecap:butt;stroke-linejoin:miter;stroke:rgb(100%,100%,100%);stroke-opacity:1;stroke-miterlimit:4;" d="M 27.272905 227.646484 C 29.452001 247.324219 17.774781 283.339844 39.48757 296.660156 C 131.986789 297.050781 65.617183 295.996094 158.116401 296.230469 L 160.080519 295.214844 C 171.601391 296.855469 167.966307 226.855469 167.966307 226.855469 Z M 27.272905 227.646484 " transform="matrix(0.39975,0,0,-0.4,0,200)"/>
<path style="fill-rule:nonzero;fill:rgb(0.784314%,43.921569%,62.352941%);fill-opacity:1;stroke-width:4;stroke-linecap:butt;stroke-linejoin:miter;stroke:rgb(100%,100%,100%);stroke-opacity:1;stroke-miterlimit:4;" d="M 165.073874 457.246094 C 165.073874 457.246094 165.425657 455.683594 165.8947 454.863281 C 165.777439 450.644531 168.239916 447.011719 168.484209 442.871094 C 167.067308 440.800781 165.347483 438.925781 164.223734 436.621094 C 160.940432 434.902344 157.070826 435.292969 153.670263 433.925781 C 150.386961 431.308594 148.442386 427.363281 144.768215 425.146484 C 140.507739 424.199219 136.051829 424.589844 132.035647 422.646484 C 129.651345 420.371094 126.602564 418.808594 124.804565 415.917969 C 120.778612 413.144531 115.941604 413.613281 111.40752 414.199219 C 109.375 415.527344 107.029784 416.269531 105.075438 417.714844 C 100.306832 422.792969 95.391651 427.714844 90.232176 432.324219 C 86.049875 432.402344 81.877345 432.011719 77.734131 432.753906 C 74.958959 434.082031 73.200047 436.972656 70.121951 437.871094 C 68.402126 441.933594 66.252345 445.878906 66.174171 450.332031 C 65.734443 450.878906 64.063477 451.816406 65.079737 452.832031 C 80.274781 458.066406 72.271732 468.964844 74.646263 478.613281 C 81.838258 483.417969 74.802611 487.050781 77.655957 492.675781 C 83.323562 514.238281 108.905957 510.175781 126.328956 513.730469 C 131.410256 512.832031 137.068089 513.613281 138.475219 508.066406 C 138.240697 507.216797 144.142824 506.425781 143.155879 505.488281 C 146.722561 500.878906 147.660647 503.769531 151.598655 498.847656 C 155.23374 493.652344 154.022045 491.777344 154.999218 489.824219 C 159.875313 483.769531 164.917527 480.527344 165.621091 472.089844 C 165.943558 467.714844 163.236789 463.886719 162.191213 463.535156 C 164.380081 458.339844 167.233427 462.988281 165.073874 457.246094 " transform="matrix(0.39975,0,0,-0.4,0,200)"/>
<path style=" stroke:none;fill-rule:nonzero;fill:rgb(0.784314%,43.921569%,62.352941%);fill-opacity:1;" d="M 67.988281 36.398438 C 67.867188 36.835938 67.613281 37.195312 67.300781 37.507812 C 65.523438 37.367188 66.113281 41.726562 64.550781 41.101562 C 63.632812 41.585938 62.742188 40.664062 61.882812 40.523438 C 61.210938 40.867188 60.445312 40.941406 59.757812 41.210938 C 58.839844 42.164062 57.605469 42.554688 56.355469 42.960938 C 51.746094 41.789062 47.640625 44.460938 43.195312 45.289062 C 42.128906 45.257812 39.238281 45.929688 38.910156 44.742188 C 36.730469 43.398438 36.371094 40.710938 34.335938 39.179688 C 31.417969 38.914062 28.496094 38.648438 25.578125 38.382812 C 25.078125 38.195312 24.765625 37.648438 24.171875 37.664062 C 24.15625 36.601562 23.90625 36.351562 23.609375 35.523438 C 23.484375 35.226562 22.707031 34.601562 23.234375 34.367188 C 23.738281 34.164062 23.863281 33.710938 22.707031 32.867188 C 21.90625 30.023438 23.515625 21.195312 25.59375 19.085938 C 25.1875 19.492188 26.277344 18.820312 26.46875 19.023438 C 26.484375 20.820312 27.074219 22.507812 27.761719 24.148438 C 28.996094 24.492188 29.703125 25.664062 30.808594 26.195312 C 32.464844 26.492188 34.132812 26.320312 35.804688 26.351562 C 37.867188 28.210938 39.835938 30.179688 41.738281 32.195312 C 42.523438 32.789062 43.457031 33.085938 44.265625 33.613281 C 46.078125 33.851562 48.019531 34.039062 49.625 32.914062 C 50.34375 31.773438 51.558594 31.148438 52.515625 30.242188 C 54.121094 29.460938 55.902344 29.613281 57.605469 29.226562 C 59.070312 28.351562 59.855469 26.773438 61.167969 25.726562 C 62.523438 25.164062 64.066406 25.335938 65.378906 24.648438 C 65.835938 23.726562 66.523438 22.976562 67.082031 22.148438 C 66.988281 20.492188 66.007812 19.023438 66.050781 17.335938 C 65.867188 17.023438 65.550781 16.851562 65.101562 16.523438 L 65.722656 16.398438 C 72.535156 22.335938 65.007812 28.992188 68.425781 34.976562 L 67.988281 36.398438 "/>
<path style="fill:none;stroke-width:4;stroke-linecap:butt;stroke-linejoin:miter;stroke:rgb(100%,100%,100%);stroke-opacity:1;stroke-miterlimit:4;" d="M 170.077001 409.003906 C 169.774078 407.910156 169.138915 407.011719 168.357176 406.230469 C 163.911038 406.582031 165.38657 395.683594 161.477877 397.246094 C 159.18152 396.035156 156.953565 398.339844 154.803784 398.691406 C 153.123046 397.832031 151.207786 397.646484 149.487961 396.972656 C 147.191604 394.589844 144.103737 393.613281 140.976782 392.597656 C 129.446138 395.527344 119.176048 388.847656 108.055816 386.777344 C 105.388133 386.855469 98.157051 385.175781 97.336226 388.144531 C 91.883599 391.503906 90.9846 398.222656 85.893527 402.050781 C 78.594043 402.714844 71.284787 403.378906 63.985303 404.042969 C 62.734522 404.511719 61.952783 405.878906 60.46748 405.839844 C 60.428393 408.496094 59.803002 409.121094 59.06035 411.191406 C 58.747655 411.933594 56.80308 413.496094 58.122264 414.082031 C 59.382817 414.589844 59.695513 415.722656 56.80308 417.832031 C 54.799875 424.941406 58.825829 447.011719 64.02439 452.285156 C 63.00813 451.269531 65.734443 452.949219 66.213258 452.441406 C 66.252345 447.949219 67.727877 443.730469 69.447702 439.628906 C 72.535569 438.769531 74.304253 435.839844 77.069653 434.511719 C 81.212867 433.769531 85.385397 434.199219 89.567699 434.121094 C 94.727173 429.472656 99.652126 424.550781 104.41096 419.511719 C 106.375078 418.027344 108.710522 417.285156 110.733271 415.966797 C 115.267355 415.371094 120.123906 414.902344 124.140088 417.714844 C 125.938086 420.566406 128.977095 422.128906 131.371169 424.394531 C 135.387351 426.347656 139.843261 425.966797 144.103737 426.933594 C 147.768136 429.121094 149.732255 433.066406 153.015557 435.683594 C 156.406348 437.089844 160.266182 436.660156 163.549484 438.378906 C 164.692777 440.683594 166.412602 442.558594 167.809959 444.628906 C 167.575438 448.769531 165.122733 452.441406 165.230222 456.660156 C 164.770951 457.441406 163.97944 457.871094 162.855691 458.691406 L 164.409396 459.003906 C 181.451298 444.160156 162.621169 427.519531 171.171435 412.558594 Z M 170.077001 409.003906 " transform="matrix(0.39975,0,0,-0.4,0,200)"/>
<path style=" stroke:none;fill-rule:nonzero;fill:rgb(0.784314%,43.921569%,62.352941%);fill-opacity:1;" d="M 58.167969 176.601562 C 57.167969 176.960938 54.386719 177.382812 53.074219 177.585938 C 48.363281 176.023438 53.433594 176.867188 46.421875 175.851562 C 44.5625 177.445312 45.144531 180.507812 44.488281 182.941406 C 44.128906 183.148438 43.457031 182.804688 43.097656 182.929688 C 39.960938 176.257812 37.945312 173.023438 39.082031 169.539062 C 41.238281 166.460938 43.738281 169.867188 43.738281 169.867188 C 49.90625 172.335938 52.6875 173.570312 52.6875 173.570312 C 60.871094 171.929688 58.085938 168.289062 58.085938 168.289062 C 62.101562 168.914062 61.945312 168.632812 61.945312 168.632812 C 64.101562 169.867188 58.167969 176.601562 58.167969 176.601562 "/>
<g clip-path="url(#clip1)" clip-rule="nonzero">
<path style=" stroke:none;fill-rule:nonzero;fill:rgb(0.784314%,43.921569%,62.352941%);fill-opacity:1;" d="M 39.554688 143.132812 C 39.738281 159.304688 39.867188 146.273438 39.679688 162.273438 C 39.925781 162.757812 39.253906 163.570312 38.632812 163.929688 C 35.058594 164.742188 30.730469 163.039062 30.511719 166.335938 C 30.21875 168.570312 31.839844 169.023438 33.449219 169.113281 C 29.496094 172.335938 25.734375 176.351562 21.90625 179.304688 C 19.128906 182.585938 20.675781 185.476562 20.421875 189.242188 C 21.488281 190.539062 22.59375 189.867188 24.140625 189.429688 C 23.765625 186.585938 24.5 184.613281 24.4375 182.148438 C 29.308594 177.820312 34.199219 173.570312 39.132812 169.242188 C 39.492188 169.113281 39.679688 169.429688 39.988281 169.554688 C 38.566406 176.835938 35.542969 187.523438 36.726562 194.007812 C 36.898438 194.429688 36.664062 195.242188 37.460938 195.601562 C 38.632812 195.785156 40.488281 196.710938 41.160156 195.367188 C 41.628906 191.054688 40.132812 187.660156 42.332031 182.757812 C 42.082031 182.882812 42.210938 182.648438 42.332031 182.757812 C 43.019531 184.929688 42.707031 186.160156 42.644531 188.695312 C 44.003906 188.882812 45.847656 189.613281 46.65625 187.941406 C 47.207031 183.382812 45.722656 178.316406 45.300781 172.398438 C 45.488281 171.773438 44.988281 171.226562 45.785156 170.601562 C 50.417969 173.628906 54.792969 178.628906 59.371094 182.023438 C 61.210938 183.882812 60.542969 190.242188 60.542969 190.242188 C 63.320312 190.847656 63.929688 190.539062 63.929688 190.539062 L 64.394531 190.539062 C 64.394531 190.539062 65.628906 183.757812 62.851562 179.273438 L 50.515625 169.054688 C 50.671875 168.898438 53.074219 168.957031 53.621094 168.820312 C 55.417969 168.070312 55.792969 166.335938 54.792969 164.800781 C 53.015625 164.492188 51.746094 164.300781 49.34375 164.242188 C 48.050781 164.335938 48.019531 163.457031 48.019531 160.660156 C 48.207031 145.660156 47.640625 159.054688 48.140625 143.867188 "/>
</g>
<g clip-path="url(#clip2)" clip-rule="nonzero">
<path style="fill:none;stroke-width:2;stroke-linecap:butt;stroke-linejoin:miter;stroke:rgb(100%,100%,100%);stroke-opacity:1;stroke-miterlimit:4;" d="M 98.948562 142.167969 C 99.407833 101.738281 99.7303 134.316406 99.261257 94.316406 C 99.876876 93.105469 98.196138 91.074219 96.642433 90.175781 C 87.701298 88.144531 76.874218 92.402344 76.327001 84.160156 C 75.594121 78.574219 79.64939 77.441406 83.675344 77.216797 C 73.786351 69.160156 64.376173 59.121094 54.799875 51.738281 C 47.852173 43.535156 51.721779 36.308594 51.086617 26.894531 C 53.7543 23.652344 56.5197 25.332031 60.389306 26.425781 C 59.45122 33.535156 61.288305 38.466797 61.131957 44.628906 C 73.317308 55.449219 85.551517 66.074219 97.893215 76.894531 C 98.792214 77.216797 99.261257 76.425781 100.033224 76.113281 C 96.476313 57.910156 88.912992 31.191406 91.873827 14.980469 C 92.303784 13.925781 91.71748 11.894531 93.710913 10.996094 C 96.642433 10.537109 101.284006 8.222656 102.964744 11.582031 C 104.137351 22.363281 100.394778 30.849609 105.896263 43.105469 C 105.270872 42.792969 105.59334 43.378906 105.896263 43.105469 C 107.616088 37.675781 106.83435 34.599609 106.678002 28.261719 C 110.078565 27.792969 114.690822 25.966797 116.713571 30.146484 C 118.091385 41.542969 114.378127 54.208984 113.32278 69.003906 C 113.791823 70.566406 112.541041 71.933594 114.534475 73.496094 C 126.123749 65.927734 137.068089 53.427734 148.52056 44.941406 C 153.123046 40.292969 151.452079 24.394531 151.452079 24.394531 C 158.399781 22.880859 159.924171 23.652344 159.924171 23.652344 L 161.087008 23.652344 C 161.087008 23.652344 164.174875 40.605469 157.227173 51.816406 L 126.368043 77.363281 C 126.758912 77.753906 132.768527 77.607422 134.13657 77.949219 C 138.631567 79.824219 139.569653 84.160156 137.068089 87.998047 C 132.621951 88.769531 129.446138 89.248047 123.436523 89.394531 C 120.202079 89.160156 120.123906 91.357422 120.123906 98.349609 C 120.592949 135.849609 119.176048 102.363281 120.426829 140.332031 " transform="matrix(0.39975,0,0,-0.4,0,200)"/>
</g>
<path style=" stroke:none;fill-rule:nonzero;fill:rgb(0.784314%,43.921569%,62.352941%);fill-opacity:1;" d="M 53.359375 164.460938 C 54.34375 164.460938 55.136719 165.257812 55.136719 166.242188 L 55.136719 167.164062 C 55.136719 168.132812 54.34375 168.929688 53.359375 168.929688 L 52.984375 168.929688 C 52.984375 168.929688 42.882812 171.398438 32.542969 168.929688 C 31.558594 168.929688 30.761719 168.132812 30.761719 167.164062 L 30.761719 166.242188 C 30.761719 165.257812 31.558594 164.460938 32.542969 164.460938 C 41.800781 167.554688 53.359375 164.460938 53.359375 164.460938 "/>
<path style="fill:none;stroke-width:4;stroke-linecap:butt;stroke-linejoin:miter;stroke:rgb(100%,100%,100%);stroke-opacity:1;stroke-miterlimit:4;" d="M 133.481864 88.847656 C 135.94434 88.847656 137.928002 86.855469 137.928002 84.394531 L 137.928002 82.089844 C 137.928002 79.667969 135.94434 77.675781 133.481864 77.675781 L 132.543777 77.675781 C 132.543777 77.675781 107.274078 71.503906 81.408302 77.675781 C 78.945826 77.675781 76.952392 79.667969 76.952392 82.089844 L 76.952392 84.394531 C 76.952392 86.855469 78.945826 88.847656 81.408302 88.847656 C 104.567308 81.113281 133.481864 88.847656 133.481864 88.847656 Z M 133.481864 88.847656 " transform="matrix(0.39975,0,0,-0.4,0,200)"/>
<path style=" stroke:none;fill-rule:nonzero;fill:rgb(0.784314%,43.921569%,62.352941%);fill-opacity:1;" d="M 34.992188 101.070312 C 37.289062 101.070312 39.132812 99.113281 39.132812 96.695312 C 39.132812 94.289062 37.289062 92.335938 34.992188 92.335938 C 32.699219 92.335938 30.839844 94.289062 30.839844 96.695312 C 30.839844 99.113281 32.699219 101.070312 34.992188 101.070312 "/>
<path style="fill:none;stroke-width:4;stroke-linecap:butt;stroke-linejoin:miter;stroke:rgb(100%,100%,100%);stroke-opacity:1;stroke-miterlimit:4;" d="M 87.535178 247.324219 C 93.280957 247.324219 97.893215 252.216797 97.893215 258.261719 C 97.893215 264.277344 93.280957 269.160156 87.535178 269.160156 C 81.799171 269.160156 77.147827 264.277344 77.147827 258.261719 C 77.147827 252.216797 81.799171 247.324219 87.535178 247.324219 Z M 87.535178 247.324219 " transform="matrix(0.39975,0,0,-0.4,0,200)"/>
<path style=" stroke:none;fill-rule:nonzero;fill:rgb(0.784314%,43.921569%,62.352941%);fill-opacity:1;" d="M 33.449219 101.382812 C 35.742188 101.382812 37.601562 99.414062 37.601562 97.007812 C 37.601562 94.601562 35.742188 92.648438 33.449219 92.648438 C 31.167969 92.648438 29.308594 94.601562 29.308594 97.007812 C 29.308594 99.414062 31.167969 101.382812 33.449219 101.382812 "/>
<path style="fill:none;stroke-width:4;stroke-linecap:butt;stroke-linejoin:miter;stroke:rgb(100%,100%,100%);stroke-opacity:1;stroke-miterlimit:4;" d="M 83.675344 246.542969 C 89.411351 246.542969 94.062695 251.464844 94.062695 257.480469 C 94.062695 263.496094 89.411351 268.378906 83.675344 268.378906 C 77.968652 268.378906 73.317308 263.496094 73.317308 257.480469 C 73.317308 251.464844 77.968652 246.542969 83.675344 246.542969 Z M 83.675344 246.542969 " transform="matrix(0.39975,0,0,-0.4,0,200)"/>
<path style="fill-rule:nonzero;fill:rgb(0.784314%,43.921569%,62.352941%);fill-opacity:1;stroke-width:4;stroke-linecap:butt;stroke-linejoin:miter;stroke:rgb(100%,100%,100%);stroke-opacity:1;stroke-miterlimit:4;" d="M 86.372342 179.160156 L 109.140478 178.769531 " transform="matrix(0.39975,0,0,-0.4,0,200)"/>
<path style=" stroke:none;fill-rule:nonzero;fill:rgb(0.784314%,43.921569%,62.352941%);fill-opacity:1;" d="M 66.988281 144.554688 C 67.972656 144.554688 68.769531 143.757812 67.300781 142.289062 L 67.300781 129.164062 C 68.769531 128.679688 67.972656 127.882812 66.988281 127.882812 L 26.203125 127.882812 L 23.96875 126.648438 C 22.984375 126.648438 11.695312 127.601562 11.695312 128.570312 L 11.695312 142.773438 C 11.695312 143.246094 11.882812 143.699219 12.21875 144.035156 C 12.550781 144.367188 13.003906 144.554688 13.476562 144.554688 L 66.988281 144.554688 "/>
<path style="fill:none;stroke-width:4;stroke-linecap:butt;stroke-linejoin:miter;stroke:rgb(100%,100%,100%);stroke-opacity:1;stroke-miterlimit:4;" d="M 167.575438 138.613281 C 170.037914 138.613281 172.031348 140.605469 168.357176 144.277344 L 168.357176 177.089844 C 172.031348 178.300781 170.037914 180.292969 167.575438 180.292969 L 65.54878 180.292969 L 59.95935 183.378906 C 57.496873 183.378906 29.256567 180.996094 29.256567 178.574219 L 29.256567 143.066406 C 29.256567 141.884766 29.72561 140.751953 30.565979 139.912109 C 31.396576 139.082031 32.530097 138.613281 33.712477 138.613281 Z M 167.575438 138.613281 " transform="matrix(0.39975,0,0,-0.4,0,200)"/>
<path style=" stroke:none;fill-rule:nonzero;fill:rgb(0.784314%,43.921569%,62.352941%);fill-opacity:1;" d="M 15.179688 143.726562 C 14.285156 143.726562 13.570312 143.007812 13.570312 142.132812 L 13.570312 130.335938 C 13.570312 129.445312 14.285156 128.726562 15.179688 128.726562 L 63.335938 128.726562 C 64.222656 128.726562 64.941406 129.445312 64.945312 130.335938 L 64.945312 142.132812 C 64.945312 143.007812 64.222656 143.726562 63.335938 143.726562 L 15.179688 143.726562 "/>
<path style="fill:none;stroke-width:4;stroke-linecap:butt;stroke-linejoin:miter;stroke:rgb(100%,100%,100%);stroke-opacity:1;stroke-miterlimit:4;" d="M 37.972952 140.683594 C 35.735225 140.683594 33.946998 142.480469 33.946998 144.667969 L 33.946998 174.160156 C 33.946998 176.386719 35.735225 178.183594 37.972952 178.183594 L 158.438868 178.183594 C 160.657051 178.183594 162.45505 176.386719 162.464822 174.160156 L 162.464822 144.667969 C 162.464822 142.480469 160.657051 140.683594 158.438868 140.683594 Z M 37.972952 140.683594 " transform="matrix(0.39975,0,0,-0.4,0,200)"/>
<path style=" stroke:none;fill-rule:nonzero;fill:rgb(0.784314%,43.921569%,62.352941%);fill-opacity:1;" d="M 80.433594 130.664062 C 81.574219 129.632812 81.339844 127.941406 81.339844 129.113281 L 81.339844 118.632812 C 81.339844 117.742188 80.621094 117.023438 79.902344 117.492188 L 68.863281 128.132812 C 67.941406 128.914062 67.378906 129.882812 67.378906 130.773438 L 67.378906 140.613281 C 67.378906 141.492188 68.097656 142.210938 68.988281 142.210938 L 80.433594 130.664062 "/>
<path style="fill:none;stroke-width:4;stroke-linecap:butt;stroke-linejoin:miter;stroke:rgb(100%,100%,100%);stroke-opacity:1;stroke-miterlimit:4;" d="M 201.20974 173.339844 C 204.063086 175.917969 203.476782 180.146484 203.476782 177.216797 L 203.476782 203.417969 C 203.476782 205.644531 201.678784 207.441406 199.880785 206.269531 L 172.265869 179.667969 C 169.95974 177.714844 168.552611 175.292969 168.552611 173.066406 L 168.552611 148.466797 C 168.552611 146.269531 170.35061 144.472656 172.578565 144.472656 Z M 201.20974 173.339844 " transform="matrix(0.39975,0,0,-0.4,0,200)"/>
<path style=" stroke:none;fill-rule:nonzero;fill:rgb(0.784314%,43.921569%,62.352941%);fill-opacity:1;" d="M 13.582031 107.613281 C 14.382812 100.539062 10.164062 87.554688 17.988281 82.773438 C 51.261719 82.613281 27.390625 82.992188 60.667969 82.914062 L 61.371094 83.289062 C 65.523438 82.695312 64.207031 107.898438 64.207031 107.898438 L 13.582031 107.613281 "/>
<path style="fill:none;stroke-width:4;stroke-linecap:butt;stroke-linejoin:miter;stroke:rgb(100%,100%,100%);stroke-opacity:1;stroke-miterlimit:4;" d="M 33.976313 230.966797 C 35.979518 248.652344 25.426048 281.113281 44.998827 293.066406 C 128.234443 293.466797 68.519387 292.519531 151.764775 292.714844 L 153.523687 291.777344 C 163.911038 293.261719 160.617964 230.253906 160.617964 230.253906 Z M 33.976313 230.966797 " transform="matrix(0.39975,0,0,-0.4,0,200)"/>
<path style=" stroke:none;fill-rule:nonzero;fill:rgb(0.784314%,43.921569%,62.352941%);fill-opacity:1;" d="M 24.640625 125.273438 L 28.5625 127.710938 L 13.382812 127.710938 L 22.191406 122.320312 L 24.640625 125.273438 "/>
<path style="fill:none;stroke-width:4;stroke-linecap:butt;stroke-linejoin:miter;stroke:rgb(100%,100%,100%);stroke-opacity:1;stroke-miterlimit:4;" d="M 61.640088 186.816406 L 71.450907 180.722656 L 33.477955 180.722656 L 55.513211 194.199219 Z M 61.640088 186.816406 " transform="matrix(0.39975,0,0,-0.4,0,200)"/>
</g>
</svg>
