<?xml version="1.0" encoding="UTF-8"?>
<svg xmlns="http://www.w3.org/2000/svg" xmlns:xlink="http://www.w3.org/1999/xlink" width="220pt" height="200pt" viewBox="0 0 220 200" version="1.1">
<g id="surface1">
<path style="fill:none;stroke-width:1;stroke-linecap:round;stroke-linejoin:round;stroke:rgb(6.27451%,53.72549%,76.078431%);stroke-opacity:1;stroke-miterlimit:4;" d="M 0.506836 27.887695 L 16.756836 27.887695 M 5.716797 32.555664 L 16.546875 32.555664 M 16.756836 21.256836 L 7.796875 21.256836 M 3.631836 25.509766 L 16.546875 25.509766 M 42.376953 48.068359 L 18.071289 48.068359 L 28.710938 41.642578 L 53.355469 41.592773 L 42.37793 48.068359 Z M 28.710938 41.642578 L 18.071289 48.068359 L 18.066406 7.383789 L 28.710938 1.212891 Z M 28.710938 41.642578 " transform="matrix(4,0,0,4,0,0)"/>
<path style="fill:none;stroke-width:1;stroke-linecap:round;stroke-linejoin:round;stroke:rgb(6.27451%,53.72549%,76.078431%);stroke-opacity:1;stroke-miterlimit:4;" d="M 42.373047 7.383789 L 18.066406 7.383789 L 28.710938 1.212891 L 53.339844 1.128906 L 42.37207 7.383789 Z M 42.376953 48.249023 L 18.071289 48.249023 L 18.066406 7.383789 L 42.373047 7.383789 L 42.37793 48.249023 Z M 42.376953 48.249023 " transform="matrix(4,0,0,4,0,0)"/>
<path style="fill:none;stroke-width:1.1;stroke-linecap:round;stroke-linejoin:round;stroke:rgb(13.72549%,12.156863%,12.54902%);stroke-opacity:1;stroke-miterlimit:4;" d="M 53.355469 41.592773 L 42.37793 48.068359 L 42.373047 7.383789 L 53.339844 1.129883 L 53.355469 41.59375 Z M 53.355469 41.592773 " transform="matrix(4,0,0,4,0,0)"/>
<path style="fill:none;stroke-width:1;stroke-linecap:round;stroke-linejoin:round;stroke:rgb(6.27451%,53.72549%,76.078431%);stroke-opacity:1;stroke-miterlimit:4;" d="M 53.355469 41.592773 L 42.37793 48.068359 L 42.373047 7.383789 L 53.339844 1.129883 L 53.355469 41.59375 Z M 53.355469 41.592773 " transform="matrix(4,0,0,4,0,0)"/>
<path style="fill:none;stroke-width:1;stroke-linecap:round;stroke-linejoin:round;stroke:rgb(6.27451%,53.72549%,76.078431%);stroke-opacity:1;stroke-miterlimit:4;" d="M 53.355469 41.592773 L 42.37793 48.068359 L 42.373047 7.383789 L 53.339844 1.129883 L 53.355469 41.59375 Z M 53.355469 41.592773 " transform="matrix(4,0,0,4,0,0)"/>
<path style="fill:none;stroke-width:0.2875;stroke-linecap:butt;stroke-linejoin:round;stroke:rgb(100%,100%,100%);stroke-opacity:1;stroke-miterlimit:4;" d="M 40.009766 9.538086 C 40.009766 9.538086 39.521484 9.397461 39.100586 9.279297 C 38.730469 9.176758 38.211914 9.043945 38.211914 9.043945 " transform="matrix(4,0,0,4,0,0)"/>
<path style=" stroke:none;fill-rule:nonzero;fill:rgb(6.27451%,53.72549%,76.078431%);fill-opacity:1;" d="M 159.410156 100.144531 C 160.761719 95.261719 166.382812 70.925781 166.621094 67.523438 C 166.855469 64.152344 165.605469 59.890625 163.8125 59.027344 C 163.902344 57.820312 163.925781 57.136719 163.925781 57.136719 C 163.480469 56.964844 163.039062 56.789062 162.601562 56.609375 L 162.734375 56.664062 C 162.734375 56.664062 164.023438 51.222656 164.765625 47.449219 L 166.621094 38.015625 C 166.601562 37.039062 166.328125 36.160156 165.429688 35.902344 L 161.210938 34.734375 C 160.292969 34.480469 159.667969 35.042969 159.101562 35.945312 C 159.101562 35.945312 157.460938 39.304688 155.136719 46.179688 C 153.902344 49.8125 152.441406 52.910156 152.441406 52.910156 L 152.5 52.953125 C 143.589844 50.027344 134.449219 47.855469 125.175781 46.457031 C 125.175781 46.457031 124.84375 47.039062 124.296875 48.132812 C 122.324219 47.933594 119.058594 50.945312 117.519531 53.988281 C 116.015625 57.019531 108.339844 80.8125 106.992188 85.667969 C 105.644531 90.554688 103.042969 102.957031 101.894531 109.109375 C 100.738281 115.300781 99.722656 126.039062 95.761719 140.410156 C 93.421875 148.890625 89.632812 161.507812 87.65625 166.765625 C 87.132812 168.132812 82.992188 175.144531 89.007812 177.503906 C 94.921875 179.847656 103.726562 182.367188 108.164062 183.601562 C 112.617188 184.832031 121.464844 187.175781 127.757812 188.210938 C 134.140625 189.242188 134.179688 181.121094 134.4375 179.675781 C 135.429688 174.152344 138.652344 161.375 140.996094 152.898438 C 144.960938 138.539062 149.59375 128.777344 151.761719 122.878906 C 153.945312 117 158.0625 105.003906 159.414062 100.144531 "/>
<path style=" stroke:none;fill-rule:nonzero;fill:rgb(6.27451%,53.72549%,76.078431%);fill-opacity:1;" d="M 152.867188 100.789062 C 154.21875 95.929688 159.84375 71.570312 160.078125 68.171875 C 160.332031 64.789062 159.058594 60.53125 157.265625 59.691406 C 157.363281 58.464844 157.382812 57.800781 157.382812 57.800781 C 156.9375 57.605469 156.503906 57.449219 156.054688 57.277344 L 156.1875 57.3125 C 156.1875 57.3125 157.480469 51.878906 158.238281 48.113281 L 160.078125 38.679688 C 160.058594 37.683594 159.804688 36.804688 158.882812 36.550781 L 154.6875 35.398438 C 153.746094 35.144531 153.144531 35.710938 152.558594 36.589844 C 152.558594 36.589844 150.941406 39.972656 148.597656 46.824219 C 147.363281 50.457031 145.898438 53.578125 145.898438 53.578125 L 145.957031 53.601562 C 143.429688 52.773438 140.882812 52.007812 138.320312 51.296875 C 131.84375 49.515625 125.273438 48.113281 118.636719 47.097656 C 118.636719 47.097656 118.320312 47.703125 117.777344 48.777344 C 115.777344 48.601562 112.519531 51.609375 110.992188 54.636719 C 109.472656 57.664062 101.792969 81.457031 100.449219 86.335938 C 99.101562 91.21875 96.527344 103.601562 95.367188 109.777344 C 94.21875 115.945312 93.183594 126.703125 89.21875 141.078125 C 86.875 149.539062 83.085938 162.15625 81.117188 167.410156 C 80.585938 168.796875 76.445312 175.789062 82.460938 178.171875 C 88.398438 180.515625 97.1875 183.035156 101.640625 184.265625 C 106.097656 185.496094 114.921875 187.839844 121.210938 188.855469 C 127.601562 189.910156 127.636719 181.765625 127.890625 180.320312 C 128.882812 174.8125 132.109375 162.019531 134.453125 153.558594 C 138.421875 139.183594 143.042969 129.421875 145.210938 123.539062 C 147.398438 117.644531 151.523438 105.667969 152.867188 100.789062 "/>
<path style="fill:none;stroke-width:0.4375;stroke-linecap:butt;stroke-linejoin:miter;stroke:rgb(100%,100%,100%);stroke-opacity:1;stroke-miterlimit:4;" d="M 38.216797 25.197266 C 38.554688 23.982422 39.960938 17.892578 40.019531 17.042969 C 40.083008 16.198242 39.764648 15.133789 39.316406 14.923828 C 39.34082 14.616211 39.345703 14.451172 39.345703 14.451172 C 39.234375 14.401367 39.125977 14.361328 39.013672 14.318359 L 39.046875 14.328125 C 39.046875 14.328125 39.370117 12.970703 39.55957 12.02832 L 40.019531 9.668945 C 40.014648 9.419922 39.951172 9.201172 39.720703 9.138672 L 38.671875 8.848633 C 38.436523 8.786133 38.286133 8.928711 38.139648 9.147461 C 38.139648 9.147461 37.735352 9.992188 37.149414 11.706055 C 36.84082 12.614258 36.474609 13.396484 36.474609 13.396484 L 36.489258 13.400391 C 34.260742 12.670898 31.976562 12.126953 29.65918 11.774414 C 29.65918 11.774414 29.580078 11.924805 29.444336 12.194336 C 28.944336 12.150391 28.129883 12.902344 27.748047 13.65918 C 27.368164 14.415039 25.448242 20.363281 25.112305 21.583984 C 24.775391 22.803711 24.131836 25.900391 23.841797 27.443359 C 23.554688 28.987305 23.295898 31.676758 22.304688 35.269531 C 21.71875 37.383789 20.771484 40.540039 20.279297 41.852539 C 20.146484 42.199219 19.111328 43.947266 20.615234 44.542969 C 22.099609 45.128906 24.296875 45.758789 25.410156 46.067383 C 26.524414 46.374023 28.730469 46.958984 30.302734 47.213867 C 31.900391 47.477539 31.90918 45.442383 31.972656 45.081055 C 32.220703 43.703125 33.027344 40.503906 33.613281 38.390625 C 34.605469 34.796875 35.760742 32.356445 36.302734 30.885742 C 36.849609 29.411133 37.880859 26.417969 38.216797 25.196289 Z M 38.216797 25.197266 " transform="matrix(4,0,0,4,0,0)"/>
<path style="fill:none;stroke-width:0.2875;stroke-linecap:butt;stroke-linejoin:round;stroke:rgb(100%,100%,100%);stroke-opacity:1;stroke-miterlimit:4;" d="M 30.512695 47.213867 C 32.110352 47.477539 32.119141 45.442383 32.182617 45.081055 C 32.430664 43.703125 33.237305 40.503906 33.823242 38.390625 C 34.81543 34.796875 35.970703 32.356445 36.512695 30.885742 C 37.05957 29.411133 38.09082 26.417969 38.427734 25.196289 C 38.764648 23.982422 40.170898 17.892578 40.230469 17.042969 C 40.292969 16.198242 39.974609 15.133789 39.526367 14.923828 C 39.550781 14.616211 39.555664 14.451172 39.555664 14.451172 C 39.444336 14.401367 39.331055 14.361328 39.223633 14.318359 L 39.256836 14.328125 C 39.256836 14.328125 39.580078 12.970703 39.764648 12.02832 L 40.230469 9.668945 C 40.224609 9.419922 40.161133 9.201172 39.925781 9.138672 L 38.876953 8.848633 " transform="matrix(4,0,0,4,0,0)"/>
<path style=" stroke:none;fill-rule:nonzero;fill:rgb(13.72549%,12.156863%,12.54902%);fill-opacity:1;" d="M 104.261719 177.859375 C 104.179688 178.074219 103.789062 178.167969 103.339844 178.054688 C 102.910156 177.9375 102.617188 177.644531 102.675781 177.429688 C 102.734375 177.175781 103.144531 177.097656 103.574219 177.214844 C 104.023438 177.332031 104.316406 177.625 104.261719 177.855469 Z M 102.675781 177.429688 L 101.1875 182.78125 M 102.929688 177.859375 L 101.542969 182.878906 M 104.261719 177.859375 L 102.777344 183.230469 M 103.8125 178.113281 L 102.421875 183.132812 M 113.300781 100.144531 L 112.265625 103.875 M 113.710938 100.261719 L 112.65625 104.027344 M 134.765625 106.078125 L 133.730469 109.789062 M 134.355469 105.964844 L 133.300781 109.734375 "/>
<path style="fill:none;stroke-width:0.2875;stroke-linecap:butt;stroke-linejoin:round;stroke:rgb(100%,100%,100%);stroke-opacity:1;stroke-miterlimit:4;" d="M 26.06543 44.463867 C 26.044922 44.517578 25.947266 44.542969 25.834961 44.513672 C 25.727539 44.484375 25.654297 44.411133 25.668945 44.357422 C 25.683594 44.293945 25.786133 44.274414 25.893555 44.302734 C 26.005859 44.333008 26.079102 44.405273 26.06543 44.463867 Z M 25.668945 44.357422 L 25.296875 45.695312 M 25.732422 44.464844 L 25.385742 45.71875 M 26.06543 44.463867 L 25.694336 45.807617 M 25.953125 44.52832 L 25.605469 45.783203 M 28.325195 25.036133 L 28.066406 25.967773 M 28.427734 25.06543 L 28.164062 26.007812 M 33.691406 26.519531 L 33.432617 27.448242 M 33.588867 26.491211 L 33.325195 27.432617 " transform="matrix(4,0,0,4,0,0)"/>
<path style=" stroke:none;fill-rule:nonzero;fill:rgb(6.27451%,53.72549%,76.078431%);fill-opacity:1;" d="M 156.1875 57.3125 C 156.1875 57.3125 157.5 51.878906 158.238281 48.113281 L 160.078125 38.679688 C 160.058594 37.683594 159.804688 36.804688 158.882812 36.550781 L 154.6875 35.398438 C 153.753906 35.144531 153.144531 35.710938 152.558594 36.589844 C 152.558594 36.589844 150.941406 39.972656 148.597656 46.824219 C 147.363281 50.457031 145.898438 53.578125 145.898438 53.578125 M 156.679688 55.339844 C 153.292969 54.03125 149.867188 52.824219 146.402344 51.722656 M 119.480469 47.238281 C 119.480469 47.238281 110.84375 64.851562 105.902344 82.722656 C 100.042969 103.992188 99.183594 111.085938 100.0625 120.949219 C 100.261719 122.996094 102.269531 125.480469 104.53125 126.105469 C 105.433594 126.359375 106.46875 126.636719 106.898438 126.769531 C 107.328125 126.886719 108.988281 127.292969 110.371094 128.367188 C 111.765625 129.445312 112.113281 129.71875 112.933594 130.167969 C 113.757812 130.621094 113.851562 130.90625 116.171875 131.554688 C 118.496094 132.195312 118.753906 132.003906 119.691406 132.042969 C 120.628906 132.085938 121.058594 132.003906 122.800781 131.789062 C 124.554688 131.574219 126.171875 132.085938 126.625 132.199219 C 127.054688 132.316406 128.089844 132.609375 128.988281 132.863281 C 131.253906 133.488281 134.265625 132.371094 135.453125 130.714844 C 141.292969 122.707031 144.183594 116.164062 150.0625 94.894531 C 154.984375 77.042969 156.605469 57.496094 156.605469 57.496094 M 114.398438 56.0625 C 121.332031 57.0625 128.832031 58.664062 135.765625 60.574219 C 142.71875 62.507812 149.964844 64.976562 156.449219 67.667969 "/>
<path style=" stroke:none;fill-rule:nonzero;fill:rgb(6.27451%,53.72549%,76.078431%);fill-opacity:1;" d="M 130.644531 118.1875 C 128.960938 123.578125 123.3125 126.660156 117.871094 125.160156 C 112.429688 123.660156 109.15625 118.117188 110.472656 112.628906 C 112.015625 107.0625 117.769531 103.792969 123.339844 105.320312 C 128.902344 106.863281 132.171875 112.617188 130.644531 118.1875 "/>
<path style="fill:none;stroke-width:0.4375;stroke-linecap:butt;stroke-linejoin:miter;stroke:rgb(100%,100%,100%);stroke-opacity:1;stroke-miterlimit:4;" d="M 32.661133 29.547852 C 32.276367 30.94043 30.836914 31.756836 29.444336 31.374023 C 28.051758 30.988281 27.235352 29.547852 27.618164 28.155273 C 28.004883 26.764648 29.443359 25.949219 30.834961 26.331055 C 32.225586 26.716797 33.042969 28.155273 32.661133 29.547852 Z M 32.661133 29.547852 " transform="matrix(4,0,0,4,0,0)"/>
<path style="fill-rule:nonzero;fill:rgb(13.72549%,12.156863%,12.54902%);fill-opacity:1;stroke-width:0.2875;stroke-linecap:butt;stroke-linejoin:round;stroke:rgb(100%,100%,100%);stroke-opacity:1;stroke-miterlimit:4;" d="M 33.525391 15.894531 L 34.384766 12.769531 " transform="matrix(4,0,0,4,0,0)"/>
<path style=" stroke:none;fill-rule:nonzero;fill:rgb(13.72549%,12.156863%,12.54902%);fill-opacity:1;" d="M 135.234375 63.894531 L 138.6875 51.394531 "/>
<path style="fill:none;stroke-width:0.2875;stroke-linecap:butt;stroke-linejoin:round;stroke:rgb(100%,100%,100%);stroke-opacity:1;stroke-miterlimit:4;" d="M 33.808594 15.972656 L 34.671875 12.847656 " transform="matrix(4,0,0,4,0,0)"/>
<path style=" stroke:none;fill-rule:nonzero;fill:rgb(13.72549%,12.156863%,12.54902%);fill-opacity:1;" d="M 145.683594 102.585938 C 145.5625 103.023438 145.273438 103.394531 144.875 103.621094 C 144.480469 103.84375 144.011719 103.898438 143.570312 103.777344 L 107.363281 93.796875 C 106.449219 93.542969 105.90625 92.601562 106.152344 91.683594 L 112.480469 68.777344 C 112.601562 68.335938 112.890625 67.964844 113.285156 67.742188 C 113.683594 67.519531 114.152344 67.464844 114.589844 67.589844 L 150.800781 77.558594 C 151.71875 77.835938 152.265625 78.773438 152.007812 79.691406 L 145.6875 102.585938 "/>
<path style="fill:none;stroke-width:0.2875;stroke-linecap:butt;stroke-linejoin:round;stroke:rgb(100%,100%,100%);stroke-opacity:1;stroke-miterlimit:4;" d="M 36.420898 25.647461 C 36.390625 25.756836 36.317383 25.849609 36.21875 25.905273 C 36.119141 25.960938 36.001953 25.974609 35.892578 25.944336 L 26.84082 23.449219 C 26.612305 23.385742 26.477539 23.151367 26.538086 22.921875 L 28.120117 17.194336 C 28.149414 17.083984 28.222656 16.991211 28.321289 16.935547 C 28.420898 16.879883 28.538086 16.866211 28.647461 16.897461 L 37.700195 19.391602 C 37.929688 19.459961 38.066406 19.694336 38.001953 19.923828 L 36.421875 25.647461 Z M 36.420898 25.647461 " transform="matrix(4,0,0,4,0,0)"/>
<path style=" stroke:none;fill-rule:nonzero;fill:rgb(100%,100%,100%);fill-opacity:1;" d="M 105.039062 134.695312 C 104.453125 136.820312 102.261719 138.066406 100.136719 137.488281 C 98.140625 136.800781 97.023438 134.683594 97.582031 132.648438 C 98.136719 130.617188 100.179688 129.363281 102.242188 129.789062 C 104.371094 130.375 105.621094 132.570312 105.039062 134.695312 M 97.796875 159.152344 C 97.199219 161.277344 94.996094 162.523438 92.867188 161.941406 C 91.847656 161.660156 90.984375 160.988281 90.464844 160.066406 C 89.945312 159.144531 89.8125 158.058594 90.101562 157.039062 C 90.378906 156.019531 91.050781 155.148438 91.96875 154.625 C 92.890625 154.101562 93.980469 153.964844 95 154.242188 C 97.125 154.828125 98.378906 157.023438 97.796875 159.152344 M 131.425781 142.3125 C 130.832031 144.429688 128.640625 145.667969 126.523438 145.085938 C 125.503906 144.808594 124.632812 144.132812 124.113281 143.214844 C 123.589844 142.292969 123.460938 141.203125 123.746094 140.183594 C 124.335938 138.0625 126.53125 136.820312 128.652344 137.40625 C 130.773438 137.996094 132.015625 140.191406 131.429688 142.3125 M 124.179688 166.765625 C 123.898438 167.78125 123.222656 168.648438 122.304688 169.167969 C 121.382812 169.691406 120.292969 169.824219 119.277344 169.539062 C 118.253906 169.261719 117.386719 168.585938 116.863281 167.667969 C 116.339844 166.746094 116.203125 165.65625 116.484375 164.636719 C 116.765625 163.617188 117.4375 162.753906 118.359375 162.230469 C 119.277344 161.710938 120.367188 161.578125 121.382812 161.863281 C 122.40625 162.140625 123.277344 162.8125 123.800781 163.734375 C 124.324219 164.652344 124.460938 165.742188 124.179688 166.765625 M 117.539062 141.410156 C 117.257812 142.429688 116.582031 143.292969 115.664062 143.816406 C 114.742188 144.335938 113.652344 144.46875 112.636719 144.183594 C 110.511719 143.597656 109.265625 141.398438 109.855469 139.273438 C 110.445312 137.152344 112.644531 135.90625 114.765625 136.5 C 116.890625 137.089844 118.132812 139.289062 117.539062 141.410156 M 101.507812 146.960938 C 100.917969 149.089844 98.710938 150.339844 96.578125 149.757812 C 94.464844 149.15625 93.230469 146.964844 93.8125 144.847656 C 94.445312 142.785156 96.601562 141.597656 98.683594 142.167969 C 100.765625 142.738281 102.019531 144.863281 101.507812 146.960938 M 127.890625 154.578125 C 127.300781 156.699219 125.101562 157.941406 122.980469 157.351562 C 120.859375 156.765625 119.613281 154.570312 120.199219 152.445312 C 120.78125 150.324219 122.976562 149.074219 125.101562 149.65625 C 127.222656 150.257812 128.476562 152.449219 127.890625 154.578125 M 113.984375 153.679688 C 113.703125 154.699219 113.03125 155.566406 112.109375 156.089844 C 111.1875 156.609375 110.097656 156.742188 109.078125 156.457031 C 106.964844 155.863281 105.726562 153.667969 106.3125 151.550781 C 106.589844 150.53125 107.265625 149.664062 108.183594 149.144531 C 109.105469 148.621094 110.195312 148.492188 111.210938 148.777344 C 112.234375 149.054688 113.101562 149.726562 113.621094 150.648438 C 114.144531 151.570312 114.273438 152.660156 113.984375 153.679688 M 110.277344 165.863281 C 109.6875 167.996094 107.5 169.222656 105.367188 168.660156 C 103.253906 168.054688 102.019531 165.863281 102.601562 163.738281 C 102.878906 162.71875 103.554688 161.855469 104.472656 161.332031 C 105.394531 160.8125 106.480469 160.679688 107.5 160.964844 C 109.632812 161.550781 110.859375 163.738281 110.277344 165.863281 "/>
</g>
</svg>
