<?xml version="1.0" encoding="UTF-8"?>
<svg xmlns="http://www.w3.org/2000/svg" xmlns:xlink="http://www.w3.org/1999/xlink" width="136pt" height="200pt" viewBox="0 0 136 200" version="1.1">
<g id="surface1">
<path style=" stroke:none;fill-rule:nonzero;fill:rgb(0.784314%,43.921569%,62.352941%);fill-opacity:1;" d="M 3.164062 196.828125 L 103.773438 196.828125 L 103.773438 35.472656 L 3.164062 35.472656 L 3.164062 196.832031 Z M 3.164062 196.828125 "/>
<path style="fill:none;stroke-width:0.5;stroke-linecap:butt;stroke-linejoin:miter;stroke:rgb(100%,100%,100%);stroke-opacity:1;stroke-miterlimit:4;" d="M 19.83904 6.739062 L 0.604894 6.739062 L 0.604894 37.397344 L 19.83904 37.397344 " transform="matrix(5.230769,0,0,5.263158,0,0)"/>
<path style=" stroke:none;fill-rule:nonzero;fill:rgb(0.784314%,43.921569%,62.352941%);fill-opacity:1;" d="M 135.90625 3.136719 L 35.292969 3.136719 L 3.164062 35.472656 L 103.773438 35.472656 L 135.90625 3.136719 "/>
<path style="fill:none;stroke-width:0.5;stroke-linecap:butt;stroke-linejoin:miter;stroke:rgb(100%,100%,100%);stroke-opacity:1;stroke-miterlimit:4;" d="M 25.982077 0.595977 L 6.747185 0.595977 L 0.604894 6.739805 L 19.83904 6.739805 Z M 25.982077 0.595977 " transform="matrix(5.230769,0,0,5.263158,0,0)"/>
<path style=" stroke:none;fill-rule:nonzero;fill:rgb(0.784314%,43.921569%,62.352941%);fill-opacity:1;" d="M 103.773438 35.46875 L 103.773438 196.828125 L 135.90625 164.5 L 135.90625 3.136719 L 103.769531 35.472656 "/>
<path style="fill:none;stroke-width:0.5;stroke-linecap:butt;stroke-linejoin:miter;stroke:rgb(100%,100%,100%);stroke-opacity:1;stroke-miterlimit:4;" d="M 19.83904 6.739062 L 19.83904 37.397344 L 25.982077 31.255 L 25.982077 0.595977 L 19.838293 6.739805 Z M 19.83904 6.739062 " transform="matrix(5.230769,0,0,5.263158,0,0)"/>
<path style=" stroke:none;fill-rule:nonzero;fill:rgb(0.784314%,43.921569%,62.352941%);fill-opacity:1;" d="M 103.773438 35.46875 L 135.90625 3.136719 "/>
<path style="fill:none;stroke-width:0.5;stroke-linecap:butt;stroke-linejoin:miter;stroke:rgb(100%,100%,100%);stroke-opacity:1;stroke-miterlimit:4;" d="M 19.83904 6.739062 L 25.982077 0.595977 M 0.913316 18.69125 L 19.662799 18.69125 M 0.913316 32.754219 L 19.662799 32.754219 M 5.287971 11.489062 L 10.755917 11.489062 M 3.099897 13.372734 L 12.787914 13.372734 L 12.787914 9.456953 L 3.099897 9.456953 Z M 3.099897 13.372734 " transform="matrix(5.230769,0,0,5.263158,0,0)"/>
<path style=" stroke:none;fill-rule:nonzero;fill:rgb(100%,100%,100%);fill-opacity:1;" d="M 36.726562 168.480469 L 34.605469 93.640625 L 88.78125 72.800781 L 89.855469 157.789062 L 86.664062 157.789062 L 82.960938 109.683594 L 39.382812 125.207031 L 39.382812 167.96875 L 36.726562 168.480469 "/>
<path style=" stroke:none;fill-rule:nonzero;fill:rgb(100%,100%,100%);fill-opacity:1;" d="M 89.566406 159.589844 C 89.878906 164.730469 83.59375 169.300781 75.546875 169.800781 C 67.476562 170.285156 60.707031 166.484375 60.398438 161.316406 C 60.097656 156.167969 66.378906 151.601562 74.421875 151.109375 C 82.5 150.625 89.261719 154.425781 89.570312 159.589844 M 39.335938 170.792969 C 39.640625 175.964844 33.355469 180.53125 25.3125 181.027344 C 17.242188 181.484375 10.472656 177.710938 10.167969 172.546875 C 9.855469 167.398438 16.140625 162.832031 24.214844 162.34375 C 32.257812 161.851562 39.027344 165.632812 39.335938 170.792969 "/>
<path style=" stroke:none;fill-rule:nonzero;fill:rgb(49.803922%,49.803922%,49.803922%);fill-opacity:1;" d="M 82.242188 102 L 40.785156 116.414062 L 40.785156 108.398438 L 82.242188 93.953125 L 82.242188 102 "/>
</g>
</svg>
