<?xml version="1.0" encoding="UTF-8"?>
<svg xmlns="http://www.w3.org/2000/svg" xmlns:xlink="http://www.w3.org/1999/xlink" width="148pt" height="200pt" viewBox="0 0 148 200" version="1.1">
<g id="surface1">
<path style=" stroke:none;fill-rule:nonzero;fill:rgb(3.137255%,48.235294%,73.333333%);fill-opacity:1;" d="M 2.996094 192.21875 L 127.058594 192.21875 L 127.058594 68.136719 L 2.996094 68.136719 L 2.996094 192.222656 Z M 2.996094 192.21875 "/>
<path style="fill:none;stroke-width:0.5;stroke-linecap:butt;stroke-linejoin:miter;stroke:rgb(100%,100%,100%);stroke-opacity:1;stroke-miterlimit:4;" d="M 0.809755 51.898008 L 34.34016 51.898008 L 34.34016 18.396914 L 0.809755 18.396914 Z M 0.809755 51.898008 " transform="matrix(3.7,0,0,3.703704,0,0)"/>
<path style=" stroke:none;fill-rule:nonzero;fill:rgb(3.137255%,48.235294%,73.333333%);fill-opacity:1;" d="M 142.742188 176.679688 L 142.742188 52.605469 L 127.0625 68.136719 L 127.0625 192.222656 L 142.742188 176.683594 "/>
<path style="fill:none;stroke-width:0.5;stroke-linecap:butt;stroke-linejoin:miter;stroke:rgb(100%,100%,100%);stroke-opacity:1;stroke-miterlimit:4;" d="M 38.57897 47.70457 L 38.57897 14.203477 L 34.341216 18.396914 L 34.341216 51.898008 Z M 38.57897 47.70457 " transform="matrix(3.7,0,0,3.703704,0,0)"/>
<path style=" stroke:none;fill-rule:nonzero;fill:rgb(3.137255%,48.235294%,73.333333%);fill-opacity:1;" d="M 25.675781 2.308594 L 2.996094 17.851562 L 127.0625 17.851562 L 142.746094 2.308594 L 25.675781 2.308594 "/>
<path style="fill:none;stroke-width:0.5;stroke-linecap:butt;stroke-linejoin:miter;stroke:rgb(100%,100%,100%);stroke-opacity:1;stroke-miterlimit:4;" d="M 6.9394 0.62332 L 0.809755 4.818867 L 34.341216 4.818867 L 38.580025 0.624375 L 6.9394 0.624375 Z M 6.9394 0.62332 " transform="matrix(3.7,0,0,3.703704,0,0)"/>
<path style=" stroke:none;fill-rule:nonzero;fill:rgb(3.137255%,48.235294%,73.333333%);fill-opacity:1;" d="M 2.996094 68.140625 L 127.058594 68.140625 L 127.058594 17.84375 L 2.996094 17.84375 Z M 2.996094 68.140625 "/>
<path style="fill:none;stroke-width:0.5;stroke-linecap:butt;stroke-linejoin:miter;stroke:rgb(100%,100%,100%);stroke-opacity:1;stroke-miterlimit:4;" d="M 0.809755 18.396914 L 34.34016 18.396914 L 34.34016 4.817813 L 0.809755 4.817813 Z M 0.809755 18.396914 " transform="matrix(3.7,0,0,3.703704,0,0)"/>
<path style=" stroke:none;fill-rule:nonzero;fill:rgb(3.137255%,48.235294%,73.333333%);fill-opacity:1;" d="M 142.742188 52.605469 L 142.742188 2.308594 L 127.058594 17.851562 L 127.058594 68.140625 L 142.738281 52.605469 "/>
<path style="fill:none;stroke-width:0.5;stroke-linecap:butt;stroke-linejoin:miter;stroke:rgb(100%,100%,100%);stroke-opacity:1;stroke-miterlimit:4;" d="M 38.57897 14.203477 L 38.57897 0.624375 L 34.34016 4.817813 L 34.34016 18.396914 L 38.577914 14.203477 Z M 34.341216 18.396914 L 0.810811 18.396914 " transform="matrix(3.7,0,0,3.703704,0,0)"/>
<path style=" stroke:none;fill-rule:nonzero;fill:rgb(3.137255%,48.235294%,73.333333%);fill-opacity:1;" d="M 127.0625 68.140625 L 142.742188 52.605469 "/>
<path style="fill:none;stroke-width:0.5;stroke-linecap:butt;stroke-linejoin:miter;stroke:rgb(100%,100%,100%);stroke-opacity:1;stroke-miterlimit:4;" d="M 34.341216 18.396914 L 38.57897 14.203477 " transform="matrix(3.7,0,0,3.703704,0,0)"/>
<path style=" stroke:none;fill-rule:nonzero;fill:rgb(100%,100%,100%);fill-opacity:1;" d="M 23.230469 35.03125 L 43.25 35.03125 L 43.25 24.59375 L 23.230469 24.59375 Z M 88.996094 35.03125 L 108.996094 35.03125 L 108.996094 24.59375 L 88.996094 24.59375 Z M 23.230469 61.085938 L 43.25 61.085938 L 43.25 50.667969 L 23.230469 50.667969 Z M 88.996094 61.085938 L 108.996094 61.085938 L 108.996094 50.667969 L 88.996094 50.667969 Z M 88.996094 61.085938 "/>
<path style="fill:none;stroke-width:0.5;stroke-linecap:butt;stroke-linejoin:miter;stroke:rgb(100%,100%,100%);stroke-opacity:1;stroke-miterlimit:4;" d="M 9.951436 8.05043 L 26.5625 8.05043 M 9.951436 15.087305 L 26.5625 15.087305 " transform="matrix(3.7,0,0,3.703704,0,0)"/>
<path style=" stroke:none;fill-rule:nonzero;fill:rgb(0%,0%,0%);fill-opacity:1;" d="M 33.246094 55.875 L 98.28125 29.820312 "/>
<path style="fill:none;stroke-width:0.5;stroke-linecap:butt;stroke-linejoin:miter;stroke:rgb(100%,100%,100%);stroke-opacity:1;stroke-miterlimit:4;" d="M 8.985431 15.087305 L 26.5625 8.05043 " transform="matrix(3.7,0,0,3.703704,0,0)"/>
<path style=" stroke:none;fill-rule:nonzero;fill:rgb(0%,0%,0%);fill-opacity:1;" d="M 33.246094 29.820312 L 98.28125 55.875 "/>
<path style="fill:none;stroke-width:0.5;stroke-linecap:butt;stroke-linejoin:miter;stroke:rgb(100%,100%,100%);stroke-opacity:1;stroke-miterlimit:4;" d="M 8.985431 8.05043 L 26.5625 15.087305 " transform="matrix(3.7,0,0,3.703704,0,0)"/>
<path style=" stroke:none;fill-rule:nonzero;fill:rgb(100%,100%,100%);fill-opacity:1;" d="M 71.382812 102.140625 L 79.960938 102.140625 L 79.960938 103.605469 L 83.195312 101.449219 L 79.960938 99.296875 L 79.960938 100.761719 L 71.378906 100.761719 L 71.378906 102.140625 M 70.132812 97.757812 L 76.207031 91.683594 L 77.230469 92.71875 L 78.011719 88.894531 L 74.199219 89.675781 L 75.226562 90.710938 L 69.160156 96.785156 L 70.132812 97.757812 M 66.160156 95.535156 L 66.160156 86.945312 L 67.621094 86.945312 L 65.472656 83.707031 L 63.320312 86.945312 L 64.765625 86.945312 L 64.765625 95.535156 L 66.160156 95.535156 M 61.785156 96.78125 L 55.71875 90.707031 L 56.746094 89.675781 L 52.9375 88.894531 L 53.714844 92.71875 L 54.742188 91.679688 L 60.808594 97.757812 L 61.785156 96.78125 M 59.566406 100.761719 L 50.980469 100.761719 L 50.980469 99.296875 L 47.75 101.449219 L 50.980469 103.605469 L 50.980469 102.140625 L 59.566406 102.140625 L 59.566406 100.761719 M 69.15625 106.113281 L 75.230469 112.195312 L 74.195312 113.222656 L 78.011719 114 L 77.234375 110.183594 L 76.207031 111.21875 L 70.136719 105.140625 L 69.15625 106.113281 "/>
<path style=" stroke:none;fill-rule:nonzero;fill:rgb(100%,100%,100%);fill-opacity:1;" d="M 58.28125 106.714844 C 61.121094 110.679688 66.621094 111.613281 70.605469 108.8125 C 74.59375 106.011719 75.582031 100.515625 72.824219 96.496094 C 70.011719 92.480469 64.476562 91.507812 60.464844 94.320312 C 58.53125 95.675781 57.214844 97.742188 56.804688 100.066406 C 56.398438 102.390625 56.929688 104.78125 58.28125 106.714844 "/>
<path style=" stroke:none;fill-rule:nonzero;fill:rgb(100%,100%,100%);fill-opacity:1;" d="M 60.808594 105.933594 L 54.742188 112.007812 L 53.710938 110.980469 L 52.933594 114.796875 L 56.746094 114.019531 L 55.71875 112.984375 L 61.785156 106.910156 L 60.808594 105.933594 "/>
<path style="fill:none;stroke-width:1;stroke-linecap:butt;stroke-linejoin:miter;stroke:rgb(100%,100%,100%);stroke-opacity:1;stroke-miterlimit:4;" d="M 17.665752 28.763438 L 17.665752 44.033203 " transform="matrix(3.7,0,0,3.703704,0,0)"/>
<path style=" stroke:none;fill-rule:nonzero;fill:rgb(100%,100%,100%);fill-opacity:1;" d="M 61.566406 166.808594 L 55.574219 166.808594 L 55.574219 165.796875 L 53.292969 167.296875 L 55.574219 168.796875 L 55.574219 167.78125 L 61.566406 167.78125 L 61.566406 166.808594 M 62.4375 169.882812 L 58.195312 174.128906 L 57.472656 173.40625 L 56.941406 176.066406 L 59.601562 175.539062 L 58.878906 174.820312 L 63.121094 170.570312 L 62.4375 169.882812 M 65.222656 171.4375 L 65.222656 177.4375 L 64.210938 177.4375 L 65.707031 179.71875 L 67.226562 177.441406 L 66.191406 177.441406 L 66.191406 171.4375 L 65.222656 171.4375 M 68.289062 170.570312 L 72.539062 174.820312 L 71.8125 175.539062 L 74.484375 176.066406 L 73.945312 173.40625 L 73.222656 174.128906 L 68.980469 169.882812 L 68.292969 170.570312 M 69.847656 167.78125 L 75.859375 167.78125 L 75.859375 168.796875 L 78.117188 167.296875 L 75.859375 165.796875 L 75.859375 166.808594 L 69.847656 166.808594 L 69.847656 167.78125 M 63.121094 164.023438 L 58.878906 159.773438 L 59.601562 159.050781 L 56.941406 158.503906 L 57.472656 161.183594 L 58.191406 160.460938 L 62.4375 164.707031 L 63.121094 164.023438 "/>
<path style=" stroke:none;fill-rule:nonzero;fill:rgb(100%,100%,100%);fill-opacity:1;" d="M 70.746094 163.605469 C 68.777344 160.792969 64.898438 160.109375 62.085938 162.082031 C 59.273438 164.054688 58.589844 167.9375 60.5625 170.75 C 61.503906 172.105469 62.945312 173.027344 64.570312 173.316406 C 66.191406 173.605469 67.863281 173.234375 69.210938 172.289062 C 72.03125 170.316406 72.71875 166.429688 70.746094 163.605469 "/>
<path style=" stroke:none;fill-rule:nonzero;fill:rgb(100%,100%,100%);fill-opacity:1;" d="M 68.980469 164.148438 L 73.222656 159.894531 L 73.945312 160.621094 L 74.484375 157.964844 L 71.8125 158.488281 L 72.539062 159.210938 L 68.289062 163.480469 L 68.980469 164.148438 "/>
</g>
</svg>
