<?xml version="1.0" encoding="UTF-8"?>
<svg xmlns="http://www.w3.org/2000/svg" xmlns:xlink="http://www.w3.org/1999/xlink" width="145pt" height="200pt" viewBox="0 0 145 200" version="1.1">
<g id="surface1">
<path style=" stroke:none;fill-rule:nonzero;fill:rgb(8.235294%,50.980392%,72.941176%);fill-opacity:1;" d="M 2.8125 191.671875 L 114.535156 191.671875 L 114.535156 77.207031 L 2.816406 77.207031 L 2.816406 191.667969 Z M 2.8125 191.671875 "/>
<path style="fill:none;stroke-width:0.5;stroke-linecap:butt;stroke-linejoin:miter;stroke:rgb(100%,100%,100%);stroke-opacity:1;stroke-miterlimit:4;" d="M 0.678879 46.000312 L 27.646417 46.000312 L 27.646417 18.529687 L 0.679822 18.529687 L 0.679822 46.000312 Z M 0.678879 46.000312 " transform="matrix(4.142857,0,0,4.166667,0,0)"/>
<path style=" stroke:none;fill-rule:nonzero;fill:rgb(8.235294%,50.980392%,72.941176%);fill-opacity:1;" d="M 114.535156 77.207031 L 137.636719 54.378906 "/>
<path style="fill:none;stroke-width:0.5;stroke-linecap:butt;stroke-linejoin:miter;stroke:rgb(100%,100%,100%);stroke-opacity:1;stroke-miterlimit:4;" d="M 27.646417 18.529687 L 33.222656 13.051875 M 16.982355 18.529687 L 16.982355 46.000312 " transform="matrix(4.142857,0,0,4.166667,0,0)"/>
<path style=" stroke:none;fill-rule:nonzero;fill:rgb(8.235294%,50.980392%,72.941176%);fill-opacity:1;" d="M 2.8125 143.066406 L 114.535156 143.066406 L 114.535156 28.609375 L 2.816406 28.609375 L 2.816406 143.066406 Z M 2.8125 143.066406 "/>
<path style="fill:none;stroke-width:0.5;stroke-linecap:butt;stroke-linejoin:miter;stroke:rgb(100%,100%,100%);stroke-opacity:1;stroke-miterlimit:4;" d="M 0.678879 34.335 L 27.646417 34.335 L 27.646417 6.865312 L 0.679822 6.865312 L 0.679822 34.335 Z M 0.678879 34.335 " transform="matrix(4.142857,0,0,4.166667,0,0)"/>
<path style=" stroke:none;fill-rule:nonzero;fill:rgb(8.235294%,50.980392%,72.941176%);fill-opacity:1;" d="M 137.636719 5.773438 L 137.636719 166.441406 L 114.539062 189.878906 L 114.539062 28.605469 L 137.636719 5.773438 "/>
<path style="fill:none;stroke-width:0.5;stroke-linecap:butt;stroke-linejoin:miter;stroke:rgb(100%,100%,100%);stroke-opacity:1;stroke-miterlimit:4;" d="M 33.222656 1.386562 L 33.222656 39.945 L 27.64736 45.57 L 27.64736 6.864375 Z M 33.222656 1.386562 " transform="matrix(4.142857,0,0,4.166667,0,0)"/>
<path style=" stroke:none;fill-rule:nonzero;fill:rgb(8.235294%,50.980392%,72.941176%);fill-opacity:1;" d="M 114.535156 28.605469 L 2.9375 28.605469 L 31.152344 5.773438 L 137.636719 5.773438 L 114.539062 28.609375 "/>
<path style="fill:none;stroke-width:0.5;stroke-linecap:butt;stroke-linejoin:miter;stroke:rgb(100%,100%,100%);stroke-opacity:1;stroke-miterlimit:4;" d="M 27.646417 6.864375 L 0.709052 6.864375 L 7.519531 1.386562 L 33.222656 1.386562 L 27.64736 6.864375 Z M 27.646417 6.864375 " transform="matrix(4.142857,0,0,4.166667,0,0)"/>
<path style=" stroke:none;fill-rule:nonzero;fill:rgb(8.235294%,50.980392%,72.941176%);fill-opacity:1;" d="M 114.535156 28.605469 L 137.636719 5.773438 "/>
<path style="fill:none;stroke-width:0.5;stroke-linecap:butt;stroke-linejoin:miter;stroke:rgb(100%,100%,100%);stroke-opacity:1;stroke-miterlimit:4;" d="M 27.646417 6.864375 L 33.222656 1.386562 M 4.42403 13.959375 L 26.200027 13.959375 M 3.399111 20.61375 L 25.322198 20.61375 M 2.430765 26.938125 L 24.214305 26.938125 " transform="matrix(4.142857,0,0,4.166667,0,0)"/>
<path style=" stroke:none;fill-rule:nonzero;fill:rgb(8.235294%,50.980392%,72.941176%);fill-opacity:1;" d="M 22.433594 127.746094 L 41.046875 41.5 "/>
<path style="fill:none;stroke-width:0.5;stroke-linecap:butt;stroke-linejoin:miter;stroke:rgb(100%,100%,100%);stroke-opacity:1;stroke-miterlimit:4;" d="M 5.415005 30.66 L 9.907866 9.96 " transform="matrix(4.142857,0,0,4.166667,0,0)"/>
<path style=" stroke:none;fill-rule:nonzero;fill:rgb(8.235294%,50.980392%,72.941176%);fill-opacity:1;" d="M 80.328125 127.746094 L 98.9375 41.5 "/>
<path style="fill:none;stroke-width:0.5;stroke-linecap:butt;stroke-linejoin:miter;stroke:rgb(100%,100%,100%);stroke-opacity:1;stroke-miterlimit:4;" d="M 19.389547 30.66 L 23.881466 9.96 " transform="matrix(4.142857,0,0,4.166667,0,0)"/>
<path style=" stroke:none;fill-rule:nonzero;fill:rgb(8.235294%,50.980392%,72.941176%);fill-opacity:1;" d="M 51.378906 127.070312 L 69.992188 40.832031 "/>
<path style="fill:none;stroke-width:0.5;stroke-linecap:butt;stroke-linejoin:miter;stroke:rgb(100%,100%,100%);stroke-opacity:1;stroke-miterlimit:4;" d="M 12.401805 30.497812 L 16.894666 9.79875 " transform="matrix(4.142857,0,0,4.166667,0,0)"/>
<path style=" stroke:none;fill-rule:nonzero;fill:rgb(100%,100%,100%);fill-opacity:1;" d="M 44.398438 57.921875 C 44.398438 60.523438 41.246094 62.640625 37.34375 62.640625 C 33.4375 62.640625 30.285156 60.523438 30.285156 57.921875 C 30.285156 55.296875 33.4375 53.179688 37.34375 53.179688 C 41.246094 53.179688 44.398438 55.300781 44.398438 57.921875 M 73.65625 56.742188 C 73.65625 59.347656 70.496094 61.457031 66.59375 61.457031 C 62.6875 61.457031 59.53125 59.347656 59.53125 56.742188 C 59.53125 54.117188 62.6875 52 66.59375 52 C 70.496094 52 73.65625 54.113281 73.65625 56.742188 M 102.988281 58.8125 C 102.988281 61.4375 99.828125 63.558594 95.921875 63.558594 C 92.019531 63.558594 88.863281 61.4375 88.863281 58.8125 C 88.863281 56.207031 92.019531 54.074219 95.921875 54.074219 C 99.828125 54.074219 102.988281 56.207031 102.988281 58.8125 M 37.746094 86.039062 C 37.746094 88.640625 34.597656 90.773438 30.691406 90.773438 C 26.785156 90.773438 23.625 88.640625 23.625 86.039062 C 23.625 83.414062 26.785156 81.296875 30.691406 81.296875 C 34.59375 81.296875 37.746094 83.414062 37.746094 86.039062 M 67 86.933594 C 67 89.558594 63.839844 91.671875 59.933594 91.671875 C 56.054688 91.671875 52.878906 89.558594 52.878906 86.933594 C 52.878906 84.328125 56.054688 82.191406 59.933594 82.191406 C 63.839844 82.191406 67 84.328125 67 86.933594 M 96.332031 85.546875 C 96.332031 88.171875 93.152344 90.269531 89.265625 90.269531 C 85.363281 90.269531 82.191406 88.171875 82.191406 85.546875 C 82.191406 82.921875 85.363281 80.808594 89.265625 80.808594 C 93.152344 80.808594 96.332031 82.921875 96.332031 85.546875 M 31.921875 112.730469 C 31.921875 115.355469 28.746094 117.464844 24.859375 117.464844 C 20.957031 117.464844 17.78125 115.355469 17.78125 112.730469 C 17.78125 110.125 20.957031 108.007812 24.867188 108.007812 C 28.746094 108.007812 31.921875 110.125 31.921875 112.730469 M 61.167969 112.953125 C 61.167969 115.558594 58.015625 117.671875 54.109375 117.671875 C 50.207031 117.671875 47.050781 115.558594 47.050781 112.953125 C 47.050781 110.328125 50.207031 108.210938 54.109375 108.210938 C 58.015625 108.210938 61.167969 110.328125 61.167969 112.953125 M 90.484375 112.953125 C 90.484375 115.558594 87.328125 117.671875 83.421875 117.671875 C 79.519531 117.671875 76.367188 115.558594 76.367188 112.953125 C 76.367188 110.328125 79.515625 108.210938 83.421875 108.210938 C 87.328125 108.210938 90.484375 110.328125 90.484375 112.953125 "/>
<path style=" stroke:none;fill-rule:nonzero;fill:rgb(8.235294%,50.980392%,72.941176%);fill-opacity:1;" d="M 107.113281 155.785156 C 107.113281 158.566406 101.003906 160.847656 93.480469 160.847656 C 85.972656 160.847656 79.863281 158.566406 79.863281 155.785156 L 79.863281 180.804688 C 79.863281 183.609375 85.972656 185.886719 93.480469 185.886719 C 101.003906 185.886719 107.113281 183.609375 107.113281 180.804688 L 107.113281 155.785156 "/>
<path style="fill:none;stroke-width:0.5;stroke-linecap:butt;stroke-linejoin:miter;stroke:rgb(100%,100%,100%);stroke-opacity:1;stroke-miterlimit:4;" d="M 25.85493 37.386562 C 25.85493 38.055 24.380253 38.603437 22.564251 38.603437 C 20.75202 38.603437 19.277344 38.055 19.277344 37.386562 L 19.277344 43.393125 C 19.277344 44.06625 20.75202 44.61375 22.564251 44.61375 C 24.380253 44.61375 25.85493 44.06625 25.85493 43.394062 Z M 25.85493 37.386562 " transform="matrix(4.142857,0,0,4.166667,0,0)"/>
<path style=" stroke:none;fill-rule:nonzero;fill:rgb(8.235294%,50.980392%,72.941176%);fill-opacity:1;" d="M 93.480469 160.847656 C 101.003906 160.847656 107.113281 158.566406 107.113281 155.785156 C 107.113281 152.976562 101.003906 150.691406 93.480469 150.691406 C 85.972656 150.691406 79.863281 152.976562 79.863281 155.785156 C 79.863281 158.566406 85.972656 160.847656 93.480469 160.847656 "/>
<path style="fill:none;stroke-width:0.5;stroke-linecap:butt;stroke-linejoin:miter;stroke:rgb(100%,100%,100%);stroke-opacity:1;stroke-miterlimit:4;" d="M 22.564251 38.603437 C 24.380253 38.603437 25.85493 38.055 25.85493 37.386562 C 25.85493 36.713437 24.380253 36.166875 22.564251 36.166875 C 20.75202 36.166875 19.277344 36.713437 19.277344 37.386562 C 19.277344 38.055 20.75202 38.603437 22.564251 38.603437 Z M 22.564251 38.603437 " transform="matrix(4.142857,0,0,4.166667,0,0)"/>
<path style=" stroke:none;fill-rule:nonzero;fill:rgb(100%,100%,100%);fill-opacity:1;" d="M 17.699219 180.726562 L 44.667969 180.726562 L 44.542969 186.378906 L 56.902344 178.398438 L 44.542969 169.898438 L 44.667969 175.816406 L 17.699219 175.816406 M 55.164062 157.082031 L 28.195312 157.082031 L 28.320312 151.402344 L 15.980469 159.402344 L 28.324219 167.882812 L 28.199219 161.964844 L 55.164062 161.964844 "/>
</g>
</svg>
