<?xml version="1.0" encoding="UTF-8"?>
<svg xmlns="http://www.w3.org/2000/svg" xmlns:xlink="http://www.w3.org/1999/xlink" width="282pt" height="200pt" viewBox="0 0 282 200" version="1.1">
<g id="surface1">
<path style=" stroke:none;fill-rule:nonzero;fill:rgb(17.254902%,41.568627%,63.529412%);fill-opacity:1;" d="M 271.601562 60.082031 C 271.601562 89.117188 211.128906 112.671875 136.550781 112.671875 C 61.941406 112.671875 1.460938 89.117188 1.460938 60.082031 L 1.460938 137.113281 C 1.460938 166.148438 61.933594 189.707031 136.550781 189.707031 C 211.136719 189.707031 271.601562 166.148438 271.601562 137.113281 L 271.601562 60.082031 "/>
<path style="fill:none;stroke-width:0.5;stroke-linecap:butt;stroke-linejoin:miter;stroke:rgb(100%,100%,100%);stroke-opacity:1;stroke-miterlimit:4;" d="M 46.230053 10.213945 C 46.230053 15.149922 35.936835 19.154219 23.242686 19.154219 C 10.543218 19.154219 0.24867 15.149922 0.24867 10.213945 L 0.24867 23.309258 C 0.24867 28.245234 10.541888 32.248867 23.242686 32.248867 C 35.936835 32.248867 46.230053 28.245234 46.230053 23.309258 Z M 46.230053 10.213945 " transform="matrix(5.875,0,0,5.882353,0,0)"/>
<path style=" stroke:none;fill-rule:nonzero;fill:rgb(17.254902%,41.568627%,63.529412%);fill-opacity:1;" d="M 136.550781 112.671875 C 211.136719 112.671875 271.601562 89.117188 271.601562 60.082031 C 271.601562 31.035156 211.136719 7.488281 136.550781 7.488281 C 61.941406 7.488281 1.460938 31.035156 1.460938 60.078125 C 1.460938 89.117188 61.933594 112.664062 136.550781 112.664062 "/>
<path style="fill:none;stroke-width:0.5;stroke-linecap:butt;stroke-linejoin:miter;stroke:rgb(100%,100%,100%);stroke-opacity:1;stroke-miterlimit:4;" d="M 23.242686 19.154219 C 35.938165 19.154219 46.230053 15.149922 46.230053 10.213945 C 46.230053 5.275977 35.938165 1.273008 23.242686 1.273008 C 10.543218 1.273008 0.24867 5.275977 0.24867 10.213281 C 0.24867 15.149922 10.541888 19.152891 23.242686 19.152891 Z M 23.242686 19.154219 " transform="matrix(5.875,0,0,5.882353,0,0)"/>
<path style=" stroke:none;fill-rule:nonzero;fill:rgb(100%,100%,100%);fill-opacity:1;" d="M 105.714844 39.511719 L 116.84375 56.257812 L 74.671875 66.023438 L 83.878906 58.351562 L 18.742188 47.1875 L 35.054688 34.917969 L 97.972656 45.578125 L 105.71875 39.519531 M 165.035156 80.125 L 157.433594 62.863281 L 195.46875 55.253906 L 188.875 61.171875 L 252.273438 72.03125 L 237.0625 84.207031 L 174.035156 72.347656 L 165.035156 80.125 M 144.238281 30.382812 L 186.832031 18.695312 L 187.359375 36.988281 L 176.683594 34.945312 L 155.910156 52.207031 L 136.054688 49.304688 L 157.515625 32.421875 L 144.238281 30.382812 M 125.988281 95.898438 L 85.398438 103.507812 L 83.878906 84.71875 L 95.558594 87.246094 L 117.875 68.148438 L 137.640625 71.507812 L 113.796875 92.328125 L 125.988281 95.898438 M 85.050781 126.742188 L 85.050781 133.292969 L 69.855469 124.648438 L 85.050781 116.03125 L 85.050781 122.582031 L 84.933594 122.265625 L 111.21875 122.265625 L 111.21875 115.742188 L 126.425781 124.359375 L 111.21875 132.976562 L 111.191406 126.457031 L 84.941406 126.457031 L 85.058594 126.742188 M 85.050781 174.222656 L 85.050781 180.769531 L 69.855469 172.125 L 85.050781 163.507812 L 85.050781 170.058594 L 84.933594 169.742188 L 111.21875 169.742188 L 111.21875 163.222656 L 126.425781 171.835938 L 111.21875 180.457031 L 111.191406 173.929688 L 84.941406 173.929688 L 85.058594 174.222656 M 85.050781 151.011719 L 85.050781 157.558594 L 69.855469 148.917969 L 85.050781 140.300781 L 85.050781 146.847656 L 84.933594 146.53125 L 103.246094 146.53125 L 103.246094 140.019531 L 118.476562 148.636719 L 103.246094 157.242188 L 103.246094 150.730469 L 84.933594 150.730469 L 85.050781 151.011719 M 203.128906 167.53125 C 200.550781 167.53125 198.511719 160.089844 198.570312 150.957031 C 198.65625 141.824219 200.808594 134.410156 203.410156 134.441406 L 184.023438 134.265625 C 181.4375 134.265625 179.292969 141.648438 179.230469 150.789062 C 179.152344 159.945312 181.183594 167.351562 183.765625 167.382812 L 203.128906 167.53125 "/>
<path style=" stroke:none;fill-rule:nonzero;fill:rgb(17.254902%,41.568627%,63.529412%);fill-opacity:1;" d="M 198.570312 150.957031 C 198.511719 159.488281 200.550781 166.429688 203.128906 166.464844 C 205.714844 166.464844 207.863281 159.570312 207.945312 151.046875 C 208.003906 142.488281 205.972656 135.558594 203.386719 135.53125 C 200.808594 135.5 198.65625 142.398438 198.570312 150.957031 "/>
<path style="fill:none;stroke-width:0.5;stroke-linecap:butt;stroke-linejoin:miter;stroke:rgb(100%,100%,100%);stroke-opacity:1;stroke-miterlimit:4;" d="M 33.799202 25.662695 C 33.789229 27.113008 34.136303 28.293047 34.575133 28.299023 C 35.015293 28.299023 35.380984 27.126953 35.394947 25.677969 C 35.40492 24.223008 35.059176 23.044961 34.619016 23.040312 C 34.180186 23.035 33.81383 24.207734 33.799202 25.662695 Z M 33.799202 25.662695 " transform="matrix(5.875,0,0,5.882353,0,0)"/>
<path style=" stroke:none;fill-rule:nonzero;fill:rgb(100%,100%,100%);fill-opacity:1;" d="M 188.269531 149.753906 C 188.097656 167.851562 173.328125 182.394531 155.253906 182.265625 C 146.566406 182.199219 138.261719 178.675781 132.171875 172.476562 C 126.082031 166.273438 122.703125 157.902344 122.78125 149.207031 C 122.921875 131.09375 137.710938 116.53125 155.800781 116.6875 C 173.875 116.859375 188.402344 131.648438 188.269531 149.746094 "/>
<path style=" stroke:none;fill-rule:nonzero;fill:rgb(17.254902%,41.568627%,63.529412%);fill-opacity:1;" d="M 171.492188 150.207031 C 171.417969 158.894531 164.328125 165.878906 155.652344 165.804688 C 146.976562 165.734375 140 158.632812 140.070312 149.945312 C 140.101562 145.773438 141.789062 141.785156 144.757812 138.859375 C 147.730469 135.933594 151.742188 134.3125 155.910156 134.351562 C 160.078125 134.382812 164.0625 136.070312 166.984375 139.042969 C 169.90625 142.019531 171.527344 146.035156 171.492188 150.207031 "/>
</g>
</svg>
