<?xml version="1.0" encoding="UTF-8"?>
<svg xmlns="http://www.w3.org/2000/svg" xmlns:xlink="http://www.w3.org/1999/xlink" width="205pt" height="200pt" viewBox="0 0 205 200" version="1.1">
<defs>
<clipPath id="clip1">
  <path d="M 152 0 L 205 0 L 205 192.570312 L 152 192.570312 Z M 152 0 "/>
</clipPath>
</defs>
<g id="surface1">
<path style="fill-rule:nonzero;fill:rgb(0.784314%,42.352941%,60.784314%);fill-opacity:1;stroke-width:4;stroke-linecap:butt;stroke-linejoin:miter;stroke:rgb(100%,100%,100%);stroke-opacity:1;stroke-miterlimit:4;" d="M 7.149977 14.21875 L 228.477369 14.21875 L 228.477369 223.750751 L 7.149977 223.750751 Z M 7.149977 14.21875 " transform="matrix(0.740278,0,0,-0.742857,0,200)"/>
<path style=" stroke:none;fill-rule:nonzero;fill:rgb(0.784314%,42.352941%,60.784314%);fill-opacity:1;" d="M 169.136719 33.785156 L 211.675781 -1.351562 L 62.835938 -1.351562 L 5.292969 33.785156 L 169.136719 33.785156 "/>
<path style="fill:none;stroke-width:4;stroke-linecap:butt;stroke-linejoin:miter;stroke:rgb(100%,100%,100%);stroke-opacity:1;stroke-miterlimit:4;" d="M 228.477369 223.750751 L 285.941018 271.05018 L 84.881567 271.05018 L 7.149977 223.750751 Z M 228.477369 223.750751 " transform="matrix(0.740278,0,0,-0.742857,0,200)"/>
<path style=" stroke:none;fill-rule:nonzero;fill:rgb(0.784314%,42.352941%,60.784314%);fill-opacity:1;" d="M 211.675781 154.269531 L 211.675781 -1.351562 L 169.136719 33.785156 L 169.136719 189.4375 L 211.675781 154.269531 "/>
<g clip-path="url(#clip1)" clip-rule="nonzero">
<path style="fill:none;stroke-width:4;stroke-linecap:butt;stroke-linejoin:miter;stroke:rgb(100%,100%,100%);stroke-opacity:1;stroke-miterlimit:4;" d="M 285.941018 61.560246 L 285.941018 271.05018 L 228.477369 223.750751 L 228.477369 14.21875 Z M 285.941018 61.560246 " transform="matrix(0.740278,0,0,-0.742857,0,200)"/>
</g>
<path style=" stroke:none;fill-rule:nonzero;fill:rgb(100%,100%,100%);fill-opacity:1;" d="M 22.296875 181.65625 C 26.199219 181.65625 29.351562 178.496094 29.351562 174.550781 C 29.351562 170.667969 26.199219 167.5 22.296875 167.5 C 18.386719 167.5 15.214844 170.667969 15.214844 174.546875 C 15.210938 176.433594 15.957031 178.246094 17.285156 179.578125 C 18.613281 180.910156 20.417969 181.660156 22.296875 181.65625 "/>
<path style="fill:none;stroke-width:2;stroke-linecap:butt;stroke-linejoin:miter;stroke:rgb(0%,0%,0%);stroke-opacity:1;stroke-miterlimit:4;" d="M 30.119606 24.69351 C 35.391065 24.69351 39.64939 28.947566 39.64939 34.258564 C 39.64939 39.485427 35.391065 43.75 30.119606 43.75 C 24.837594 43.75 20.552885 39.485427 20.552885 34.263822 C 20.547608 31.724008 21.555464 29.284105 23.349554 27.490986 C 25.143644 25.697867 27.581496 24.688251 30.119606 24.69351 Z M 30.119606 24.69351 " transform="matrix(0.740278,0,0,-0.742857,0,200)"/>
<path style=" stroke:none;fill-rule:nonzero;fill:rgb(100%,100%,100%);fill-opacity:1;" d="M 16.21875 167.007812 L 30.046875 180.558594 L 69.054688 140.480469 L 55.261719 126.933594 L 16.21875 167.007812 "/>
<path style="fill:none;stroke-width:2;stroke-linecap:butt;stroke-linejoin:miter;stroke:rgb(0%,0%,0%);stroke-opacity:1;stroke-miterlimit:4;" d="M 21.909006 44.41256 L 40.588649 26.171124 L 93.282129 80.122446 L 74.649977 98.358624 Z M 21.909006 44.41256 " transform="matrix(0.740278,0,0,-0.742857,0,200)"/>
<path style=" stroke:none;fill-rule:nonzero;fill:rgb(100%,100%,100%);fill-opacity:1;" d="M 49.738281 97.417969 C 49.738281 126.734375 73.480469 150.554688 102.683594 150.554688 C 131.859375 150.554688 155.628906 126.734375 155.628906 97.417969 C 155.628906 68.113281 131.859375 44.289062 102.683594 44.289062 C 73.480469 44.289062 49.738281 68.113281 49.738281 97.417969 M 57.144531 97.417969 C 57.144531 72.207031 77.558594 51.71875 102.683594 51.71875 C 127.789062 51.71875 148.226562 72.207031 148.226562 97.417969 C 148.226562 122.609375 127.789062 143.128906 102.683594 143.128906 C 77.558594 143.128906 57.144531 122.609375 57.144531 97.417969 "/>
<path style="fill:none;stroke-width:2;stroke-linecap:butt;stroke-linejoin:miter;stroke:rgb(0%,0%,0%);stroke-opacity:1;stroke-miterlimit:4;" d="M 67.188673 138.091196 C 67.188673 98.626803 99.260671 66.560998 138.709545 66.560998 C 178.121482 66.560998 210.230417 98.626803 210.230417 138.091196 C 210.230417 177.539814 178.121482 209.610877 138.709545 209.610877 C 99.260671 209.610877 67.188673 177.539814 67.188673 138.091196 M 77.193363 138.091196 C 77.193363 172.028996 104.769583 199.609375 138.709545 199.609375 C 172.623124 199.609375 200.231004 172.028996 200.231004 138.091196 C 200.231004 104.179688 172.623124 76.557242 138.709545 76.557242 C 104.769583 76.557242 77.193363 104.179688 77.193363 138.091196 Z M 77.193363 138.091196 " transform="matrix(0.740278,0,0,-0.742857,0,200)"/>
<path style=" stroke:none;fill-rule:nonzero;fill:rgb(100%,100%,100%);fill-opacity:1;" d="M 43.519531 100.472656 C 43.519531 129.777344 67.289062 153.628906 96.464844 153.628906 C 125.675781 153.628906 149.417969 129.777344 149.417969 100.472656 C 149.417969 71.191406 125.675781 47.367188 96.464844 47.367188 C 67.289062 47.367188 43.519531 71.191406 43.519531 100.472656 M 50.921875 100.472656 C 50.921875 75.28125 71.371094 54.792969 96.464844 54.792969 C 121.566406 54.792969 142.015625 75.28125 142.015625 100.472656 C 142.015625 125.683594 121.566406 146.199219 96.464844 146.199219 C 71.371094 146.199219 50.921875 125.683594 50.921875 100.472656 "/>
<path style="fill:none;stroke-width:2;stroke-linecap:butt;stroke-linejoin:miter;stroke:rgb(0%,0%,0%);stroke-opacity:1;stroke-miterlimit:4;" d="M 58.78811 133.979117 C 58.78811 94.530499 90.897045 62.422626 130.308982 62.422626 C 169.76841 62.422626 201.840408 94.530499 201.840408 133.979117 C 201.840408 173.396184 169.76841 205.467248 130.308982 205.467248 C 90.897045 205.467248 58.78811 173.396184 58.78811 133.979117 M 68.787523 133.979117 C 68.787523 167.890625 96.411234 195.471004 130.308982 195.471004 C 164.217284 195.471004 191.840994 167.890625 191.840994 133.979117 C 191.840994 100.041316 164.217284 72.424129 130.308982 72.424129 C 96.411234 72.424129 68.787523 100.041316 68.787523 133.979117 Z M 68.787523 133.979117 " transform="matrix(0.740278,0,0,-0.742857,0,200)"/>
<path style="fill:none;stroke-width:13.113;stroke-linecap:butt;stroke-linejoin:miter;stroke:rgb(100%,100%,100%);stroke-opacity:1;stroke-miterlimit:4;" d="M 106.252345 108.949069 L 159.768996 108.949069 L 159.768996 162.500751 L 106.252345 162.500751 Z M 106.252345 108.949069 " transform="matrix(0.740278,0,0,-0.742857,0,200)"/>
</g>
</svg>
