<?xml version="1.0" encoding="UTF-8"?>
<svg xmlns="http://www.w3.org/2000/svg" xmlns:xlink="http://www.w3.org/1999/xlink" width="393pt" height="200pt" viewBox="0 0 393 200" version="1.1">
<g id="surface1">
<path style=" stroke:none;fill-rule:nonzero;fill:rgb(3.137255%,48.235294%,73.333333%);fill-opacity:1;" d="M 4.5625 97.84375 L 120.734375 3.75 L 389.011719 3.75 L 292.84375 97.84375 L 4.5625 97.84375 "/>
<path style="fill:none;stroke-width:0.5;stroke-linecap:butt;stroke-linejoin:miter;stroke:rgb(100%,100%,100%);stroke-opacity:1;stroke-miterlimit:4;" d="M 0.708174 15.165781 L 18.739941 0.58125 L 60.380954 0.58125 L 45.454119 15.165781 Z M 0.708174 15.165781 " transform="matrix(6.442623,0,0,6.451613,0,0)"/>
<path style=" stroke:none;fill-rule:nonzero;fill:rgb(13.72549%,12.156863%,12.54902%);fill-opacity:1;" d="M 268.082031 53.457031 L 275.234375 46.308594 L 297.589844 56.484375 L 258.394531 67.769531 L 267.296875 56.039062 L 195.886719 56.039062 L 198.472656 53.457031 L 268.082031 53.457031 M 225.207031 29.484375 L 222.65625 32.039062 L 149.828125 32.039062 L 138.820312 40.605469 L 120.070312 31.414062 L 163.042969 18.804688 L 152.414062 29.484375 L 225.207031 29.484375 M 185.039062 70.03125 L 182.488281 72.613281 L 109.3125 72.613281 L 98.3125 80.839844 L 78.871094 71.640625 L 122.878906 59.378906 L 112.9375 70.03125 L 185.03125 70.03125 M 309.328125 19.601562 L 316.46875 12.4375 L 338.796875 22.246094 L 299.640625 33.515625 L 308.164062 22.148438 L 236.40625 22.148438 L 238.988281 19.601562 L 309.328125 19.601562 "/>
<path style=" stroke:none;fill-rule:nonzero;fill:rgb(100%,100%,100%);fill-opacity:1;" d="M 268.433594 55.921875 L 275.609375 48.761719 L 295.109375 57.175781 L 255.941406 68.453125 L 265.886719 58.496094 L 194.121094 58.496094 L 196.710938 55.917969 L 268.433594 55.917969 M 222.753906 31.941406 L 220.175781 34.503906 L 148.449219 34.503906 L 141.285156 41.675781 L 121.828125 33.167969 L 160.9375 22 L 150.996094 31.933594 L 222.753906 31.933594 "/>
<path style=" stroke:none;fill-rule:nonzero;fill:rgb(3.137255%,48.235294%,73.333333%);fill-opacity:1;" d="M 292.84375 189.644531 L 389.003906 92.625 L 389.003906 3.917969 L 292.84375 97.839844 L 292.84375 189.640625 "/>
<path style="fill:none;stroke-width:0.5;stroke-linecap:butt;stroke-linejoin:miter;stroke:rgb(100%,100%,100%);stroke-opacity:1;stroke-miterlimit:4;" d="M 45.454119 29.394902 L 60.379741 14.35627 L 60.379741 0.606074 L 45.452906 15.165781 L 45.452906 29.394902 Z M 45.454119 29.394902 " transform="matrix(6.442623,0,0,6.451613,0,0)"/>
<path style=" stroke:none;fill-rule:nonzero;fill:rgb(100%,100%,100%);fill-opacity:1;" d="M 182.234375 72.515625 L 179.660156 75.070312 L 107.925781 75.070312 L 100.761719 82.257812 L 81.320312 73.753906 L 120.425781 62.566406 L 110.484375 72.523438 L 182.234375 72.523438 M 309.328125 22.058594 L 316.460938 14.902344 L 336.003906 23.316406 L 296.796875 34.585938 L 306.738281 24.640625 L 234.996094 24.640625 L 237.570312 22.058594 L 309.328125 22.058594 "/>
<path style="fill:none;stroke-width:0.35;stroke-linecap:round;stroke-linejoin:round;stroke:rgb(13.72549%,12.156863%,12.54902%);stroke-opacity:1;stroke-miterlimit:4;" d="M 47.290037 3.882266 L 45.922193 5.25002 M 40.894034 9.189805 L 39.526191 10.556953 M 30.71706 8.477168 L 30.064061 9.023301 M 37.119126 3.173867 L 36.518875 3.721211 " transform="matrix(6.442623,0,0,6.451613,0,0)"/>
<path style=" stroke:none;fill-rule:nonzero;fill:rgb(3.137255%,48.235294%,73.333333%);fill-opacity:1;" d="M 292.84375 190.871094 L 292.84375 97.84375 L 4.933594 97.84375 L 4.933594 191.433594 L 292.84375 190.871094 "/>
<path style="fill:none;stroke-width:0.5;stroke-linecap:butt;stroke-linejoin:miter;stroke:rgb(100%,100%,100%);stroke-opacity:1;stroke-miterlimit:4;" d="M 45.454119 29.58502 L 45.454119 15.165781 L 0.765774 15.165781 L 0.765774 29.674023 Z M 45.454119 29.58502 " transform="matrix(6.442623,0,0,6.451613,0,0)"/>
<path style=" stroke:none;fill-rule:nonzero;fill:rgb(100%,100%,100%);fill-opacity:1;" d="M 111.394531 145.324219 L 57.566406 145.324219 L 57.566406 140.367188 L 37.277344 147.65625 L 57.570312 154.929688 L 57.570312 149.988281 L 111.394531 149.988281 L 111.394531 145.324219 M 141.808594 160.785156 L 141.808594 179.882812 L 127.910156 179.882812 L 148.394531 187.089844 L 168.898438 179.878906 L 154.996094 179.878906 L 154.996094 160.785156 L 141.800781 160.785156 M 141.808594 135.050781 L 141.808594 115.953125 L 127.910156 115.953125 L 148.394531 108.75 L 168.898438 115.960938 L 154.996094 115.960938 L 154.996094 135.050781 L 141.800781 135.050781 M 185.414062 149.988281 L 239.242188 149.988281 L 239.242188 154.929688 L 259.558594 147.652344 L 239.242188 140.367188 L 239.242188 145.324219 L 185.414062 145.324219 L 185.414062 149.988281 "/>
<path style="fill:none;stroke-width:0.5;stroke-linecap:butt;stroke-linejoin:miter;stroke:rgb(100%,100%,100%);stroke-opacity:1;stroke-miterlimit:4;" d="M 36.475221 27.643281 C 34.9079 28.228164 27.700044 26.610957 20.38972 24.038926 C 13.070909 21.460234 8.416846 18.896074 9.984773 18.311191 C 11.5527 17.725098 18.755099 19.33625 26.06906 21.914941 C 33.384234 24.486973 38.041935 27.051133 36.475221 27.643281 Z M 36.475221 27.643281 " transform="matrix(6.442623,0,0,6.451613,0,0)"/>
<path style="fill:none;stroke-width:0.5;stroke-linecap:butt;stroke-linejoin:miter;stroke:rgb(100%,100%,100%);stroke-opacity:1;stroke-miterlimit:4;" d="M 36.059896 18.268203 C 37.715132 18.824023 33.159292 21.377891 25.893229 23.969902 C 18.622923 26.563125 11.390814 28.213027 9.736184 27.655996 C 8.080948 27.100176 12.630725 24.545703 19.902244 21.954297 C 27.167094 19.359863 34.399809 17.709961 36.059896 18.268203 Z M 36.059896 18.268203 " transform="matrix(6.442623,0,0,6.451613,0,0)"/>
<path style=" stroke:none;fill-rule:nonzero;fill:rgb(74.901961%,74.509804%,74.509804%);fill-opacity:1;" d="M 170.472656 158.742188 C 188.246094 154.328125 192.558594 145.640625 180.128906 139.34375 C 167.667969 133.03125 143.195312 131.492188 125.417969 135.902344 C 107.648438 140.316406 103.308594 149.007812 115.765625 155.34375 C 128.222656 161.640625 152.695312 163.1875 170.472656 158.742188 "/>
</g>
</svg>
