<?xml version="1.0" encoding="UTF-8"?>
<svg xmlns="http://www.w3.org/2000/svg" xmlns:xlink="http://www.w3.org/1999/xlink" width="137pt" height="200pt" viewBox="0 0 137 200" version="1.1">
<g id="surface1">
<path style=" stroke:none;fill-rule:nonzero;fill:rgb(0.784314%,43.921569%,62.352941%);fill-opacity:1;" d="M 133.496094 72.140625 C 137.910156 65.820312 125.917969 62.660156 125.917969 62.660156 "/>
<path style="fill:none;stroke-width:0.5;stroke-linecap:butt;stroke-linejoin:miter;stroke:rgb(100%,100%,100%);stroke-opacity:1;stroke-miterlimit:4;" d="M 59.439867 32.102578 C 61.405252 29.291777 56.065665 27.885508 56.065665 27.885508 " transform="matrix(2.245902,0,0,2.247191,0,0)"/>
<path style=" stroke:none;fill-rule:nonzero;fill:rgb(0.784314%,43.921569%,62.352941%);fill-opacity:1;" d="M 126.125 16.851562 L 120.015625 21.910156 L 72.847656 21.910156 L 78.957031 16.847656 L 126.125 16.847656 "/>
<path style="fill:none;stroke-width:0.5;stroke-linecap:butt;stroke-linejoin:miter;stroke:rgb(100%,100%,100%);stroke-opacity:1;stroke-miterlimit:4;" d="M 56.157847 7.498945 L 53.437614 9.75002 L 32.435818 9.75002 L 35.15605 7.497207 L 56.157847 7.497207 Z M 56.157847 7.498945 " transform="matrix(2.245902,0,0,2.247191,0,0)"/>
<path style="fill-rule:nonzero;fill:rgb(0.784314%,43.921569%,62.352941%);fill-opacity:1;stroke-width:0.5;stroke-linecap:butt;stroke-linejoin:miter;stroke:rgb(100%,100%,100%);stroke-opacity:1;stroke-miterlimit:4;" d="M 32.251454 26.571367 L 53.437614 26.571367 L 53.437614 9.788262 L 32.251454 9.788262 Z M 32.251454 26.571367 " transform="matrix(2.245902,0,0,2.247191,0,0)"/>
<path style=" stroke:none;fill-rule:nonzero;fill:rgb(0.784314%,43.921569%,62.352941%);fill-opacity:1;" d="M 126.125 55.265625 L 126.125 16.9375 L 119.808594 21.996094 L 119.808594 60.324219 L 126.125 55.265625 "/>
<path style="fill:none;stroke-width:0.5;stroke-linecap:butt;stroke-linejoin:miter;stroke:rgb(100%,100%,100%);stroke-opacity:1;stroke-miterlimit:4;" d="M 56.157847 24.593203 L 56.157847 7.537187 L 53.345432 9.788262 L 53.345432 26.844277 Z M 56.157847 24.593203 " transform="matrix(2.245902,0,0,2.247191,0,0)"/>
<path style=" stroke:none;fill-rule:nonzero;fill:rgb(0.784314%,43.921569%,62.352941%);fill-opacity:1;" d="M 56.433594 13.152344 C 56.851562 17.367188 54.105469 20.304688 58.953125 26.417969 C 59.65625 27.308594 57.902344 29.054688 57.265625 30.0625 C 56.640625 31.058594 56.433594 32.53125 56.847656 33.792969 C 56.433594 33.792969 56.003906 34.84375 56.003906 35.691406 C 55.589844 37.796875 56.433594 39.265625 55.160156 39.695312 C 53.050781 40.539062 50.117188 40.539062 48.839844 41.804688 C 46.894531 43.3125 45.429688 45.359375 44.628906 47.691406 L 42.957031 47.691406 C 39.160156 43.910156 34.53125 35.898438 29.0625 34.21875 C 26.957031 28.734375 30.738281 24.101562 33.273438 19.472656 C 36.210938 14.414062 41.695312 11.046875 47.582031 10.617188 "/>
<path style="fill:none;stroke-width:0.5;stroke-linecap:butt;stroke-linejoin:miter;stroke:rgb(100%,100%,100%);stroke-opacity:1;stroke-miterlimit:4;" d="M 25.127367 5.852793 C 25.313469 7.728398 24.090756 9.035586 26.249202 11.755996 C 26.562272 12.152324 25.781336 12.929336 25.497833 13.377812 C 25.219548 13.822812 25.127367 14.476406 25.31173 15.036133 C 25.127367 15.036133 24.936046 15.507207 24.936046 15.882676 C 24.751682 16.819609 25.127367 17.473203 24.560362 17.664414 C 23.621151 18.041621 22.314952 18.041621 21.746208 18.601348 C 20.880047 19.274062 20.227817 20.184922 19.871265 21.224414 L 19.126853 21.224414 C 17.436274 19.54002 15.375228 15.974805 12.940237 15.227344 C 12.002766 12.786797 13.686388 10.725195 14.81518 8.665332 C 16.123118 6.414258 18.565066 4.915859 21.18616 4.726387 " transform="matrix(2.245902,0,0,2.247191,0,0)"/>
<path style=" stroke:none;fill-rule:nonzero;fill:rgb(0.784314%,43.921569%,62.352941%);fill-opacity:1;" d="M 28.007812 33.828125 C 28.667969 34.496094 30.320312 33.378906 31.582031 33.792969 C 33.6875 34.636719 36.640625 35.050781 37.898438 33.792969 C 39.589844 32.53125 40.421875 30.007812 41.695312 27.898438 C 41.695312 27.472656 42.109375 26.628906 42.957031 26.210938 C 45.0625 26.210938 48.011719 27.054688 48.839844 25.792969 C 51.378906 23.257812 48.011719 18.199219 51.792969 16.09375 C 54.742188 14.832031 59.800781 13.988281 58.953125 9.773438 C 50.949219 5.558594 42.109375 1.347656 33.273438 3.453125 C 30.738281 4.300781 28.628906 7.25 26.527344 9.355469 C 26.109375 10.203125 25.265625 11.046875 25.265625 11.878906 C 24.851562 17.363281 24.421875 22.414062 25.683594 27.898438 C 26.109375 29.578125 26.734375 32.574219 28.007812 33.828125 "/>
<path style="fill:none;stroke-width:0.5;stroke-linecap:butt;stroke-linejoin:miter;stroke:rgb(100%,100%,100%);stroke-opacity:1;stroke-miterlimit:4;" d="M 12.470632 15.051777 C 12.76457 15.350762 13.500285 14.851875 14.062072 15.037871 C 14.999544 15.41334 16.314439 15.597598 16.874487 15.037871 C 17.627595 14.476406 17.998061 13.353477 18.565066 12.416543 C 18.565066 12.225332 18.74943 11.849863 19.126853 11.663867 C 20.064325 11.663867 21.377481 12.039336 21.746208 11.477871 C 22.876739 10.349727 21.377481 8.098652 23.061103 7.161719 C 24.374259 6.600254 26.626625 6.224785 26.249202 4.34918 C 22.685419 2.473574 18.74943 0.599707 14.81518 1.536641 C 13.686388 1.913848 12.747177 3.22625 11.811445 4.163184 C 11.625342 4.540391 11.249658 4.915859 11.249658 5.286113 C 11.065294 7.728398 10.873974 9.974258 11.435761 12.416543 C 11.625342 13.162266 11.903627 14.495527 12.470632 15.051777 Z M 12.470632 15.051777 " transform="matrix(2.245902,0,0,2.247191,0,0)"/>
<path style=" stroke:none;fill-rule:nonzero;fill:rgb(0.784314%,43.921569%,62.352941%);fill-opacity:1;" d="M 71.792969 134.5 L 71.792969 144.605469 C 69.480469 146.710938 69.691406 150.089844 69.691406 153.03125 C 73.058594 154.929688 77.058594 154.082031 80.648438 154.304688 C 80.648438 153.667969 80.648438 152.824219 80.855469 152.824219 C 84.222656 152.40625 87.378906 152.195312 90.746094 151.769531 C 91.589844 149.457031 92.003906 146.710938 92.003906 144.1875 C 89.070312 142.71875 84.636719 142.925781 83.167969 139.554688 C 81.910156 136.175781 81.910156 132.601562 82.117188 129.234375 "/>
<path style="fill:none;stroke-width:0.5;stroke-linecap:butt;stroke-linejoin:miter;stroke:rgb(100%,100%,100%);stroke-opacity:1;stroke-miterlimit:4;" d="M 31.966212 59.8525 L 31.966212 64.349434 C 30.936559 65.286367 31.03048 66.791719 31.03048 68.098906 C 32.529739 68.943711 34.310761 68.566504 35.909158 68.665586 C 35.909158 68.382246 35.909158 68.006777 36.00134 68.006777 C 37.500599 67.820781 38.905936 67.728652 40.405195 67.537441 C 40.780879 66.508379 40.965243 65.286367 40.965243 64.163437 C 39.659044 63.509844 37.684962 63.601973 37.030993 62.103574 C 36.470945 60.598223 36.470945 59.007695 36.563127 57.509297 " transform="matrix(2.245902,0,0,2.247191,0,0)"/>
<path style=" stroke:none;fill-rule:nonzero;fill:rgb(0.784314%,43.921569%,62.352941%);fill-opacity:1;" d="M 60.007812 130.078125 C 67.792969 130.90625 74.539062 126.695312 81.699219 123.753906 C 83.585938 122.914062 86.324219 123.535156 88.640625 123.535156 C 89.277344 131.546875 88.015625 139.558594 88.433594 147.558594 C 92.4375 147.558594 96.214844 147.984375 100.21875 147.347656 C 102.324219 147.140625 104.433594 146.085938 106.328125 145.035156 C 106.328125 133.863281 106.964844 122.699219 105.691406 111.324219 C 105.484375 110.0625 104.640625 108.789062 103.808594 107.527344 C 103.289062 106.816406 102.550781 106.300781 101.703125 106.058594 C 92.226562 103.953125 90.742188 105.003906 81.480469 103.742188 C 80.648438 103.742188 83.582031 99.101562 82.960938 98.257812 C 81.292969 96.050781 59.371094 97.199219 56.640625 97.421875 "/>
<path style="fill:none;stroke-width:0.5;stroke-linecap:butt;stroke-linejoin:miter;stroke:rgb(100%,100%,100%);stroke-opacity:1;stroke-miterlimit:4;" d="M 26.718807 57.884766 C 30.18519 58.25502 33.188926 56.379414 36.377024 55.072227 C 37.217096 54.696758 38.436331 54.973145 39.467724 54.973145 C 39.751226 58.538359 39.189439 62.103574 39.375542 65.663574 C 41.158303 65.663574 42.840186 65.853047 44.622947 65.569707 C 45.560419 65.477578 46.499629 65.008242 47.34318 64.540645 C 47.34318 59.56916 47.626682 54.602891 47.059677 49.539277 C 46.967495 48.977812 46.591811 48.411133 46.221345 47.849668 C 45.990021 47.533301 45.659557 47.303848 45.283873 47.196074 C 41.064382 46.259141 40.403456 46.726738 36.279625 46.165273 C 35.909158 46.165273 37.215357 44.100195 36.938812 43.724727 C 36.196139 42.742598 26.435305 43.253652 25.219548 43.354473 " transform="matrix(2.245902,0,0,2.247191,0,0)"/>
<path style=" stroke:none;fill-rule:nonzero;fill:rgb(0.784314%,43.921569%,62.352941%);fill-opacity:1;" d="M 99.167969 147.140625 C 99.167969 148.609375 98.753906 150.089844 99.375 151.351562 C 99.597656 151.976562 100.855469 151.976562 101.703125 152.617188 C 102.324219 153.25 102.964844 154.082031 103.808594 154.515625 C 105.070312 155.136719 106.535156 155.355469 108.019531 155.566406 C 110.125 155.773438 112.230469 155.140625 114.113281 155.984375 C 114.335938 156.191406 114.957031 156.191406 115.390625 156.621094 C 116.648438 158.089844 117.066406 159.988281 116.222656 161.25 C 114.546875 163.785156 112.230469 165.671875 109.28125 166.308594 C 105.277344 166.945312 101.273438 166.308594 97.269531 167.15625 C 96.855469 167.15625 97.0625 167.15625 96.855469 167.363281 C 96.648438 167.996094 97.0625 169.6875 96.855469 169.6875 C 92.851562 169.894531 88.226562 170.742188 85.480469 166.945312 C 84.636719 165.671875 84.429688 163.785156 85.066406 162.09375 C 85.910156 160.40625 86.324219 158.726562 86.742188 156.828125 C 87.378906 155.355469 87.171875 155.355469 87.796875 153.875 C 88.640625 151.769531 88.222656 149.453125 88.222656 147.140625 "/>
<path style="fill:none;stroke-width:0.5;stroke-linecap:butt;stroke-linejoin:miter;stroke:rgb(100%,100%,100%);stroke-opacity:1;stroke-miterlimit:4;" d="M 44.155081 65.477578 C 44.155081 66.131172 43.970717 66.791719 44.247263 67.351445 C 44.346402 67.62957 44.90645 67.62957 45.283873 67.914648 C 45.560419 68.19625 45.84566 68.566504 46.221345 68.759453 C 46.783132 69.03584 47.435362 69.134922 48.096288 69.227051 C 49.033759 69.31918 49.971231 69.037578 50.809563 69.413047 C 50.908702 69.505176 51.185247 69.505176 51.378307 69.696387 C 51.938355 70.34998 52.124458 71.194785 51.748774 71.75625 C 51.002623 72.884395 49.971231 73.723984 48.658075 74.007324 C 46.875314 74.290664 45.092552 74.007324 43.309791 74.384531 C 43.125428 74.384531 43.217609 74.384531 43.125428 74.47666 C 43.033246 74.76 43.217609 75.510937 43.125428 75.510937 C 41.342667 75.603066 39.28336 75.980273 38.060647 74.290664 C 37.684962 73.723984 37.592781 72.884395 37.876283 72.131719 C 38.251967 71.380781 38.436331 70.63332 38.622434 69.788516 C 38.905936 69.134922 38.813755 69.134922 39.092039 68.474375 C 39.467724 67.537441 39.281621 66.506641 39.281621 65.477578 " transform="matrix(2.245902,0,0,2.247191,0,0)"/>
<path style=" stroke:none;fill-rule:nonzero;fill:rgb(0.784314%,43.921569%,62.352941%);fill-opacity:1;" d="M 49.480469 149.453125 L 49.480469 159.988281 L 69.898438 151.5625 C 73.277344 150.921875 74.109375 155.136719 74.109375 155.136719 L 74.109375 158.089844 L 72.433594 158.089844 L 72.433594 160.832031 C 70.742188 163.785156 68.015625 160.832031 68.015625 160.832031 L 68.015625 157.464844 L 51.792969 164.835938 L 70.949219 180.429688 C 73.488281 185.0625 71.171875 189.277344 71.171875 189.277344 C 73.277344 193.277344 69.484375 196.023438 69.484375 196.023438 C 64.425781 198.546875 64.632812 192.4375 64.632812 192.4375 C 64.011719 188.855469 67.582031 188.855469 67.582031 188.855469 L 68.636719 186.75 L 46.320312 166.515625 L 17.257812 183.160156 L 16.21875 185.695312 C 18.53125 190.753906 14.320312 192.4375 14.320312 192.4375 C 8.421875 193.488281 10.734375 188.222656 10.734375 188.222656 C 10.527344 185.269531 12.839844 185.269531 12.839844 185.269531 L 14.53125 183.382812 C 14.53125 183.382812 16 184.007812 14.320312 182.535156 C 12.632812 181.054688 13.894531 177.0625 13.894531 177.0625 L 41.265625 163.5625 L 32.21875 154.722656 L 29.269531 156.621094 C 29.269531 161.457031 25.902344 159.988281 25.902344 159.988281 C 22.316406 159.988281 24.417969 156.191406 24.417969 156.191406 C 25.683594 155.136719 27.375 154.515625 27.375 154.515625 L 29.476562 149.871094 L 36.429688 153.460938 L 44.425781 160.199219 L 44.425781 150.921875 M 61.695312 138.710938 L 85.480469 127.972656 C 87.171875 125.863281 84.429688 122.699219 84.429688 122.699219 L 62.113281 131.128906 "/>
<path style="fill:none;stroke-width:0.5;stroke-linecap:butt;stroke-linejoin:miter;stroke:rgb(100%,100%,100%);stroke-opacity:1;stroke-miterlimit:4;" d="M 27.470176 61.726367 L 38.060647 56.947832 C 38.813755 56.00916 37.592781 54.602891 37.592781 54.602891 L 27.656279 58.352363 " transform="matrix(2.245902,0,0,2.247191,0,0)"/>
<path style="fill-rule:nonzero;fill:rgb(0.784314%,43.921569%,62.352941%);fill-opacity:1;stroke-width:0.5;stroke-linecap:butt;stroke-linejoin:miter;stroke:rgb(100%,100%,100%);stroke-opacity:1;stroke-miterlimit:4;" d="M 34.034215 24.695762 L 51.656592 24.695762 L 51.656592 12.039336 L 34.034215 12.039336 Z M 34.034215 24.695762 " transform="matrix(2.245902,0,0,2.247191,0,0)"/>
<path style=" stroke:none;fill-rule:nonzero;fill:rgb(0.784314%,43.921569%,62.352941%);fill-opacity:1;" d="M 72.824219 68.589844 L 120.617188 68.589844 L 120.617188 61.628906 L 72.824219 61.628906 Z M 72.824219 68.589844 "/>
<path style="fill:none;stroke-width:0.5;stroke-linecap:butt;stroke-linejoin:miter;stroke:rgb(100%,100%,100%);stroke-opacity:1;stroke-miterlimit:4;" d="M 32.425382 30.520742 L 53.705463 30.520742 L 53.705463 27.424863 L 32.425382 27.424863 Z M 32.425382 30.520742 " transform="matrix(2.245902,0,0,2.247191,0,0)"/>
<path style="fill-rule:nonzero;fill:rgb(0.784314%,43.921569%,62.352941%);fill-opacity:1;stroke-width:0.5;stroke-linecap:butt;stroke-linejoin:miter;stroke:rgb(100%,100%,100%);stroke-opacity:1;stroke-miterlimit:4;" d="M 27.564097 35.754707 L 51.185247 35.754707 L 51.185247 34.725645 L 27.564097 34.725645 Z M 27.564097 35.754707 " transform="matrix(2.245902,0,0,2.247191,0,0)"/>
<path style="fill-rule:nonzero;fill:rgb(0.784314%,43.921569%,62.352941%);fill-opacity:1;stroke-width:0.5;stroke-linecap:butt;stroke-linejoin:miter;stroke:rgb(100%,100%,100%);stroke-opacity:1;stroke-miterlimit:4;" d="M 55.780423 35.288848 L 59.248546 35.288848 L 59.248546 34.539648 L 55.780423 34.539648 Z M 55.780423 35.288848 " transform="matrix(2.245902,0,0,2.247191,0,0)"/>
<path style=" stroke:none;fill-rule:nonzero;fill:rgb(0.784314%,43.921569%,62.352941%);fill-opacity:1;" d="M 133.066406 77.1875 L 136.445312 71.714844 L 128.644531 71.714844 L 125.277344 77.1875 L 133.066406 77.1875 "/>
<path style="fill:none;stroke-width:0.5;stroke-linecap:butt;stroke-linejoin:miter;stroke:rgb(100%,100%,100%);stroke-opacity:1;stroke-miterlimit:4;" d="M 59.248546 34.348437 L 60.753022 31.913105 L 57.279682 31.913105 L 55.780423 34.348437 Z M 59.248546 34.348437 " transform="matrix(2.245902,0,0,2.247191,0,0)"/>
<path style=" stroke:none;fill-rule:nonzero;fill:rgb(0.784314%,43.921569%,62.352941%);fill-opacity:1;" d="M 136.652344 76.5625 L 136.652344 71.714844 L 132.855469 77.617188 L 132.855469 79.292969 L 136.652344 76.5625 "/>
<path style="fill:none;stroke-width:0.5;stroke-linecap:butt;stroke-linejoin:miter;stroke:rgb(100%,100%,100%);stroke-opacity:1;stroke-miterlimit:4;" d="M 60.845204 34.070312 L 60.845204 31.913105 L 59.154625 34.539648 L 59.154625 35.285371 Z M 60.845204 34.070312 " transform="matrix(2.245902,0,0,2.247191,0,0)"/>
<path style=" stroke:none;fill-rule:nonzero;fill:rgb(0.784314%,43.921569%,62.352941%);fill-opacity:1;" d="M 122.535156 72.976562 L 122.535156 68.980469 L 114.753906 78.035156 L 114.753906 80.347656 L 122.535156 72.976562 "/>
<path style="fill:none;stroke-width:0.5;stroke-linecap:butt;stroke-linejoin:miter;stroke:rgb(100%,100%,100%);stroke-opacity:1;stroke-miterlimit:4;" d="M 54.559449 32.47457 L 54.559449 30.696309 L 51.094805 34.725645 L 51.094805 35.754707 Z M 54.559449 32.47457 " transform="matrix(2.245902,0,0,2.247191,0,0)"/>
<path style=" stroke:none;fill-rule:nonzero;fill:rgb(0.784314%,43.921569%,62.352941%);fill-opacity:1;" d="M 126.96875 64.765625 L 126.96875 55.914062 L 120.617188 61.386719 L 120.617188 70.660156 L 126.96875 64.765625 "/>
<path style="fill:none;stroke-width:0.5;stroke-linecap:butt;stroke-linejoin:miter;stroke:rgb(100%,100%,100%);stroke-opacity:1;stroke-miterlimit:4;" d="M 56.533531 28.822441 L 56.533531 24.881758 L 53.705463 27.31709 L 53.705463 31.44377 Z M 56.533531 28.822441 " transform="matrix(2.245902,0,0,2.247191,0,0)"/>
<path style="fill-rule:nonzero;fill:rgb(0.784314%,43.921569%,62.352941%);fill-opacity:1;stroke-width:0.5;stroke-linecap:butt;stroke-linejoin:miter;stroke:rgb(100%,100%,100%);stroke-opacity:1;stroke-miterlimit:4;" d="M 32.905423 27.416172 L 53.529796 27.416172 L 53.529796 26.663496 L 32.905423 26.663496 Z M 32.905423 27.416172 " transform="matrix(2.245902,0,0,2.247191,0,0)"/>
<path style=" stroke:none;fill-rule:nonzero;fill:rgb(0.784314%,43.921569%,62.352941%);fill-opacity:1;" d="M 126.332031 56.757812 L 126.332031 55.683594 L 119.808594 60.535156 L 119.808594 61.605469 L 126.332031 56.757812 "/>
<path style="fill:none;stroke-width:0.5;stroke-linecap:butt;stroke-linejoin:miter;stroke:rgb(100%,100%,100%);stroke-opacity:1;stroke-miterlimit:4;" d="M 56.250029 25.257227 L 56.250029 24.779199 L 53.345432 26.938145 L 53.345432 27.416172 Z M 56.250029 25.257227 " transform="matrix(2.245902,0,0,2.247191,0,0)"/>
<path style=" stroke:none;fill-rule:nonzero;fill:rgb(0.784314%,43.921569%,62.352941%);fill-opacity:1;" d="M 122.121094 68.761719 L 114.957031 78.242188 L 62.113281 78.242188 L 70.535156 68.761719 L 122.121094 68.761719 "/>
<path style="fill:none;stroke-width:0.5;stroke-linecap:butt;stroke-linejoin:miter;stroke:rgb(100%,100%,100%);stroke-opacity:1;stroke-miterlimit:4;" d="M 54.375086 30.598965 L 51.185247 34.817773 L 27.656279 34.817773 L 31.406164 30.598965 Z M 46.122206 28.91457 L 51.938355 28.91457 " transform="matrix(2.245902,0,0,2.247191,0,0)"/>
<path style="fill-rule:nonzero;fill:rgb(0.784314%,43.921569%,62.352941%);fill-opacity:1;stroke-width:0.5;stroke-linecap:butt;stroke-linejoin:miter;stroke:rgb(100%,100%,100%);stroke-opacity:1;stroke-miterlimit:4;" d="M 24.622976 9.602266 L 23.998574 10.725195 L 25.000399 10.600039 " transform="matrix(2.245902,0,0,2.247191,0,0)"/>
<path style=" stroke:none;fill-rule:nonzero;fill:rgb(0.784314%,43.921569%,62.352941%);fill-opacity:1;" d="M 80.121094 71.910156 L 82.925781 71.933594 "/>
<path style="fill:none;stroke-width:0.5;stroke-linecap:butt;stroke-linejoin:miter;stroke:rgb(100%,100%,100%);stroke-opacity:1;stroke-miterlimit:4;" d="M 35.674356 32.001758 L 36.923158 32.010449 " transform="matrix(2.245902,0,0,2.247191,0,0)"/>
<path style="fill-rule:nonzero;fill:rgb(0.784314%,43.921569%,62.352941%);fill-opacity:1;stroke-width:0.5;stroke-linecap:butt;stroke-linejoin:miter;stroke:rgb(100%,100%,100%);stroke-opacity:1;stroke-miterlimit:4;" d="M 37.42581 32.010449 L 38.676352 32.019141 " transform="matrix(2.245902,0,0,2.247191,0,0)"/>
<path style="fill-rule:nonzero;fill:rgb(0.784314%,43.921569%,62.352941%);fill-opacity:1;stroke-width:0.5;stroke-linecap:butt;stroke-linejoin:miter;stroke:rgb(100%,100%,100%);stroke-opacity:1;stroke-miterlimit:4;" d="M 32.051437 31.980898 L 33.30024 31.986113 " transform="matrix(2.245902,0,0,2.247191,0,0)"/>
<path style=" stroke:none;fill-rule:nonzero;fill:rgb(0.784314%,43.921569%,62.352941%);fill-opacity:1;" d="M 75.910156 71.890625 L 78.714844 71.910156 "/>
<path style="fill:none;stroke-width:0.5;stroke-linecap:butt;stroke-linejoin:miter;stroke:rgb(100%,100%,100%);stroke-opacity:1;stroke-miterlimit:4;" d="M 33.799413 31.991328 L 35.048215 32.001758 " transform="matrix(2.245902,0,0,2.247191,0,0)"/>
<path style="fill-rule:nonzero;fill:rgb(0.784314%,43.921569%,62.352941%);fill-opacity:1;stroke-width:0.5;stroke-linecap:butt;stroke-linejoin:miter;stroke:rgb(100%,100%,100%);stroke-opacity:1;stroke-miterlimit:4;" d="M 39.175525 32.024355 L 40.424327 32.02957 " transform="matrix(2.245902,0,0,2.247191,0,0)"/>
<path style="fill-rule:nonzero;fill:rgb(0.784314%,43.921569%,62.352941%);fill-opacity:1;stroke-width:0.5;stroke-linecap:butt;stroke-linejoin:miter;stroke:rgb(100%,100%,100%);stroke-opacity:1;stroke-miterlimit:4;" d="M 40.921761 32.034785 L 42.172303 32.045215 " transform="matrix(2.245902,0,0,2.247191,0,0)"/>
<path style="fill-rule:nonzero;fill:rgb(0.784314%,43.921569%,62.352941%);fill-opacity:1;stroke-width:0.5;stroke-linecap:butt;stroke-linejoin:miter;stroke:rgb(100%,100%,100%);stroke-opacity:1;stroke-miterlimit:4;" d="M 42.676694 32.05043 L 43.925496 32.053906 " transform="matrix(2.245902,0,0,2.247191,0,0)"/>
<path style="fill-rule:nonzero;fill:rgb(0.784314%,43.921569%,62.352941%);fill-opacity:1;stroke-width:0.5;stroke-linecap:butt;stroke-linejoin:miter;stroke:rgb(100%,100%,100%);stroke-opacity:1;stroke-miterlimit:4;" d="M 44.424669 32.059121 L 45.673472 32.069551 " transform="matrix(2.245902,0,0,2.247191,0,0)"/>
<path style="fill-rule:nonzero;fill:rgb(0.784314%,43.921569%,62.352941%);fill-opacity:1;stroke-width:0.5;stroke-linecap:butt;stroke-linejoin:miter;stroke:rgb(100%,100%,100%);stroke-opacity:1;stroke-miterlimit:4;" d="M 46.176123 32.069551 L 47.426665 32.078242 " transform="matrix(2.245902,0,0,2.247191,0,0)"/>
<path style="fill-rule:nonzero;fill:rgb(0.784314%,43.921569%,62.352941%);fill-opacity:1;stroke-width:0.5;stroke-linecap:butt;stroke-linejoin:miter;stroke:rgb(100%,100%,100%);stroke-opacity:1;stroke-miterlimit:4;" d="M 47.925838 32.078242 L 49.174641 32.088672 " transform="matrix(2.245902,0,0,2.247191,0,0)"/>
<path style="fill-rule:nonzero;fill:rgb(0.784314%,43.921569%,62.352941%);fill-opacity:1;stroke-width:0.5;stroke-linecap:butt;stroke-linejoin:miter;stroke:rgb(100%,100%,100%);stroke-opacity:1;stroke-miterlimit:4;" d="M 49.672075 32.093887 L 50.922616 32.099102 " transform="matrix(2.245902,0,0,2.247191,0,0)"/>
<path style="fill-rule:nonzero;fill:rgb(0.784314%,43.921569%,62.352941%);fill-opacity:1;stroke-width:0.5;stroke-linecap:butt;stroke-linejoin:miter;stroke:rgb(100%,100%,100%);stroke-opacity:1;stroke-miterlimit:4;" d="M 35.048215 33.00127 L 36.298757 33.011699 " transform="matrix(2.245902,0,0,2.247191,0,0)"/>
<path style=" stroke:none;fill-rule:nonzero;fill:rgb(0.784314%,43.921569%,62.352941%);fill-opacity:1;" d="M 82.652344 74.191406 L 85.457031 74.207031 "/>
<path style="fill:none;stroke-width:0.5;stroke-linecap:butt;stroke-linejoin:miter;stroke:rgb(100%,100%,100%);stroke-opacity:1;stroke-miterlimit:4;" d="M 36.801409 33.015176 L 38.050211 33.020391 " transform="matrix(2.245902,0,0,2.247191,0,0)"/>
<path style="fill-rule:nonzero;fill:rgb(0.784314%,43.921569%,62.352941%);fill-opacity:1;stroke-width:0.5;stroke-linecap:butt;stroke-linejoin:miter;stroke:rgb(100%,100%,100%);stroke-opacity:1;stroke-miterlimit:4;" d="M 31.425297 32.976934 L 32.675838 32.987363 " transform="matrix(2.245902,0,0,2.247191,0,0)"/>
<path style="fill-rule:nonzero;fill:rgb(0.784314%,43.921569%,62.352941%);fill-opacity:1;stroke-width:0.5;stroke-linecap:butt;stroke-linejoin:miter;stroke:rgb(100%,100%,100%);stroke-opacity:1;stroke-miterlimit:4;" d="M 33.173272 32.99084 L 34.423814 32.996055 " transform="matrix(2.245902,0,0,2.247191,0,0)"/>
<path style="fill-rule:nonzero;fill:rgb(0.784314%,43.921569%,62.352941%);fill-opacity:1;stroke-width:0.5;stroke-linecap:butt;stroke-linejoin:miter;stroke:rgb(100%,100%,100%);stroke-opacity:1;stroke-miterlimit:4;" d="M 38.549384 33.025605 L 39.799926 33.03082 " transform="matrix(2.245902,0,0,2.247191,0,0)"/>
<path style="fill-rule:nonzero;fill:rgb(0.784314%,43.921569%,62.352941%);fill-opacity:1;stroke-width:0.5;stroke-linecap:butt;stroke-linejoin:miter;stroke:rgb(100%,100%,100%);stroke-opacity:1;stroke-miterlimit:4;" d="M 40.29736 33.036035 L 41.546162 33.044727 " transform="matrix(2.245902,0,0,2.247191,0,0)"/>
<path style="fill-rule:nonzero;fill:rgb(0.784314%,43.921569%,62.352941%);fill-opacity:1;stroke-width:0.5;stroke-linecap:butt;stroke-linejoin:miter;stroke:rgb(100%,100%,100%);stroke-opacity:1;stroke-miterlimit:4;" d="M 42.050553 33.044727 L 43.301095 33.055156 " transform="matrix(2.245902,0,0,2.247191,0,0)"/>
<path style="fill-rule:nonzero;fill:rgb(0.784314%,43.921569%,62.352941%);fill-opacity:1;stroke-width:0.5;stroke-linecap:butt;stroke-linejoin:miter;stroke:rgb(100%,100%,100%);stroke-opacity:1;stroke-miterlimit:4;" d="M 43.798529 33.060371 L 45.04907 33.070801 " transform="matrix(2.245902,0,0,2.247191,0,0)"/>
<path style="fill-rule:nonzero;fill:rgb(0.784314%,43.921569%,62.352941%);fill-opacity:1;stroke-width:0.5;stroke-linecap:butt;stroke-linejoin:miter;stroke:rgb(100%,100%,100%);stroke-opacity:1;stroke-miterlimit:4;" d="M 45.551722 33.070801 L 46.800525 33.079492 " transform="matrix(2.245902,0,0,2.247191,0,0)"/>
<path style="fill-rule:nonzero;fill:rgb(0.784314%,43.921569%,62.352941%);fill-opacity:1;stroke-width:0.5;stroke-linecap:butt;stroke-linejoin:miter;stroke:rgb(100%,100%,100%);stroke-opacity:1;stroke-miterlimit:4;" d="M 47.299698 33.084707 L 48.55024 33.089922 " transform="matrix(2.245902,0,0,2.247191,0,0)"/>
<path style=" stroke:none;fill-rule:nonzero;fill:rgb(0.784314%,43.921569%,62.352941%);fill-opacity:1;" d="M 110.15625 74.367188 L 112.960938 74.378906 "/>
<path style="fill:none;stroke-width:0.5;stroke-linecap:butt;stroke-linejoin:miter;stroke:rgb(100%,100%,100%);stroke-opacity:1;stroke-miterlimit:4;" d="M 49.047673 33.095137 L 50.296476 33.098613 " transform="matrix(2.245902,0,0,2.247191,0,0)"/>
<path style="fill-rule:nonzero;fill:rgb(0.784314%,43.921569%,62.352941%);fill-opacity:1;stroke-width:0.5;stroke-linecap:butt;stroke-linejoin:miter;stroke:rgb(100%,100%,100%);stroke-opacity:1;stroke-miterlimit:4;" d="M 34.423814 34.00252 L 35.674356 34.011211 " transform="matrix(2.245902,0,0,2.247191,0,0)"/>
<path style=" stroke:none;fill-rule:nonzero;fill:rgb(0.784314%,43.921569%,62.352941%);fill-opacity:1;" d="M 81.246094 76.433594 L 84.054688 76.457031 "/>
<path style="fill:none;stroke-width:0.5;stroke-linecap:butt;stroke-linejoin:miter;stroke:rgb(100%,100%,100%);stroke-opacity:1;stroke-miterlimit:4;" d="M 36.175268 34.011211 L 37.42581 34.021641 " transform="matrix(2.245902,0,0,2.247191,0,0)"/>
<path style=" stroke:none;fill-rule:nonzero;fill:rgb(0.784314%,43.921569%,62.352941%);fill-opacity:1;" d="M 69.175781 76.351562 L 71.984375 76.375 "/>
<path style="fill:none;stroke-width:0.5;stroke-linecap:butt;stroke-linejoin:miter;stroke:rgb(100%,100%,100%);stroke-opacity:1;stroke-miterlimit:4;" d="M 30.800895 33.978184 L 32.051437 33.988613 " transform="matrix(2.245902,0,0,2.247191,0,0)"/>
<path style=" stroke:none;fill-rule:nonzero;fill:rgb(0.784314%,43.921569%,62.352941%);fill-opacity:1;" d="M 73.101562 76.390625 L 75.910156 76.398438 "/>
<path style="fill:none;stroke-width:0.5;stroke-linecap:butt;stroke-linejoin:miter;stroke:rgb(100%,100%,100%);stroke-opacity:1;stroke-miterlimit:4;" d="M 32.548871 33.99209 L 33.799413 33.997305 " transform="matrix(2.245902,0,0,2.247191,0,0)"/>
<path style=" stroke:none;fill-rule:nonzero;fill:rgb(0.784314%,43.921569%,62.352941%);fill-opacity:1;" d="M 85.175781 76.464844 L 87.984375 76.472656 "/>
<path style="fill:none;stroke-width:0.5;stroke-linecap:butt;stroke-linejoin:miter;stroke:rgb(100%,100%,100%);stroke-opacity:1;stroke-miterlimit:4;" d="M 37.924983 34.026855 L 39.175525 34.03207 " transform="matrix(2.245902,0,0,2.247191,0,0)"/>
<path style="fill-rule:nonzero;fill:rgb(0.784314%,43.921569%,62.352941%);fill-opacity:1;stroke-width:0.5;stroke-linecap:butt;stroke-linejoin:miter;stroke:rgb(100%,100%,100%);stroke-opacity:1;stroke-miterlimit:4;" d="M 39.671219 34.035547 L 40.921761 34.040762 " transform="matrix(2.245902,0,0,2.247191,0,0)"/>
<path style="fill-rule:nonzero;fill:rgb(0.784314%,43.921569%,62.352941%);fill-opacity:1;stroke-width:0.5;stroke-linecap:butt;stroke-linejoin:miter;stroke:rgb(100%,100%,100%);stroke-opacity:1;stroke-miterlimit:4;" d="M 41.426152 34.045977 L 42.676694 34.056406 " transform="matrix(2.245902,0,0,2.247191,0,0)"/>
<path style="fill-rule:nonzero;fill:rgb(0.784314%,43.921569%,62.352941%);fill-opacity:1;stroke-width:0.5;stroke-linecap:butt;stroke-linejoin:miter;stroke:rgb(100%,100%,100%);stroke-opacity:1;stroke-miterlimit:4;" d="M 43.174128 34.056406 L 44.424669 34.066836 " transform="matrix(2.245902,0,0,2.247191,0,0)"/>
<path style="fill-rule:nonzero;fill:rgb(0.784314%,43.921569%,62.352941%);fill-opacity:1;stroke-width:0.5;stroke-linecap:butt;stroke-linejoin:miter;stroke:rgb(100%,100%,100%);stroke-opacity:1;stroke-miterlimit:4;" d="M 44.925582 34.070312 L 46.176123 34.080742 " transform="matrix(2.245902,0,0,2.247191,0,0)"/>
<path style="fill-rule:nonzero;fill:rgb(0.784314%,43.921569%,62.352941%);fill-opacity:1;stroke-width:0.5;stroke-linecap:butt;stroke-linejoin:miter;stroke:rgb(100%,100%,100%);stroke-opacity:1;stroke-miterlimit:4;" d="M 46.675297 34.080742 L 47.925838 34.089434 " transform="matrix(2.245902,0,0,2.247191,0,0)"/>
<path style="fill-rule:nonzero;fill:rgb(0.784314%,43.921569%,62.352941%);fill-opacity:1;stroke-width:0.5;stroke-linecap:butt;stroke-linejoin:miter;stroke:rgb(100%,100%,100%);stroke-opacity:1;stroke-miterlimit:4;" d="M 48.421533 34.094648 L 49.672075 34.099863 " transform="matrix(2.245902,0,0,2.247191,0,0)"/>
<path style=" stroke:none;fill-rule:nonzero;fill:rgb(0.784314%,43.921569%,62.352941%);fill-opacity:1;" d="M 62.960938 67.082031 C 65.0625 67.082031 67.378906 67.5 69.480469 66.875 C 70.535156 66.445312 71.382812 64.976562 72.433594 64.546875 C 73.902344 64.132812 75.59375 63.921875 77.058594 64.765625 C 77.269531 64.976562 77.492188 65.394531 77.90625 65.601562 C 79.804688 65.820312 81.703125 66.03125 83.167969 67.292969 C 84.222656 68.347656 83.375 70.035156 83.582031 71.296875 C 83.167969 71.296875 82.53125 72.140625 82.53125 71.714844 C 81.90625 70.660156 81.703125 69.398438 80.855469 68.761719 C 79.59375 68.347656 78.113281 68.136719 76.851562 68.761719 C 76.644531 68.761719 76.851562 69.8125 77.488281 69.8125 C 78.75 69.8125 80.21875 70.660156 79.375 71.503906 C 76.644531 74.246094 72.433594 73.40625 68.636719 72.976562 C 67.378906 72.976562 66.117188 71.917969 64.636719 71.917969 "/>
<path style="fill:none;stroke-width:0.5;stroke-linecap:butt;stroke-linejoin:miter;stroke:rgb(100%,100%,100%);stroke-opacity:1;stroke-miterlimit:4;" d="M 28.033702 29.851504 C 28.969434 29.851504 30.000827 30.0375 30.936559 29.759375 C 31.406164 29.568164 31.783588 28.91457 32.251454 28.723359 C 32.905423 28.539102 33.658531 28.445234 34.310761 28.822441 C 34.404682 28.91457 34.503821 29.100566 34.688184 29.192695 C 35.533474 29.291777 36.378764 29.383906 37.030993 29.945371 C 37.500599 30.414707 37.123175 31.165645 37.215357 31.728848 C 37.030993 31.728848 36.747491 32.104316 36.747491 31.913105 C 36.469206 31.44377 36.378764 30.882305 36.00134 30.598965 C 35.439553 30.414707 34.780366 30.32084 34.218579 30.598965 C 34.126397 30.598965 34.218579 31.066562 34.502081 31.066562 C 35.063869 31.066562 35.717838 31.44377 35.342153 31.819238 C 34.126397 33.04125 32.251454 32.665781 30.560875 32.47457 C 30.000827 32.47457 29.43904 32.003496 28.779853 32.003496 " transform="matrix(2.245902,0,0,2.247191,0,0)"/>
<path style=" stroke:none;fill-rule:nonzero;fill:rgb(0.784314%,43.921569%,62.352941%);fill-opacity:1;" d="M 94.332031 88.152344 C 95.386719 88.359375 96.007812 87.515625 97.0625 87.304688 C 97.90625 86.886719 98.960938 87.304688 99.804688 87.097656 C 101.480469 86.460938 102.753906 85.199219 104.433594 84.558594 C 104.859375 81.832031 104.859375 78.878906 105.484375 76.132812 C 105.691406 76.355469 108.992188 75.367188 109.203125 75.367188 C 108.992188 74.730469 109.632812 73.675781 108.992188 73.46875 C 106.679688 72.621094 101.273438 73.40625 98.753906 74.027344 C 98.546875 74.027344 98.546875 73.820312 98.546875 73.609375 C 97.0625 73.609375 95.59375 73.40625 94.332031 74.246094 C 92.644531 75.300781 93.488281 77.40625 93.28125 79.292969 C 92.851562 80.347656 91.800781 80.988281 90.953125 81.402344 C 90.332031 81.832031 89.277344 82.039062 88.640625 82.675781 "/>
<path style="fill:none;stroke-width:0.5;stroke-linecap:butt;stroke-linejoin:miter;stroke:rgb(100%,100%,100%);stroke-opacity:1;stroke-miterlimit:4;" d="M 42.001853 39.227793 C 42.471459 39.319922 42.748004 38.944453 43.217609 38.850586 C 43.593294 38.666328 44.062899 38.850586 44.438583 38.758457 C 45.184734 38.475117 45.751739 37.913652 46.499629 37.628574 C 46.689211 36.415254 46.689211 35.101113 46.967495 33.879102 C 47.059677 33.978184 48.529368 33.538398 48.623289 33.538398 C 48.529368 33.255059 48.81461 32.785723 48.529368 32.693594 C 47.499715 32.316387 45.092552 32.665781 43.970717 32.942168 C 43.878536 32.942168 43.878536 32.850039 43.878536 32.756172 C 43.217609 32.756172 42.563641 32.665781 42.001853 33.04125 C 41.250485 33.510586 41.626169 34.44752 41.533987 35.285371 C 41.342667 35.754707 40.8748 36.039785 40.497377 36.224043 C 40.220831 36.415254 39.751226 36.507383 39.467724 36.790723 " transform="matrix(2.245902,0,0,2.247191,0,0)"/>
<path style=" stroke:none;fill-rule:nonzero;fill:rgb(0.784314%,43.921569%,62.352941%);fill-opacity:1;" d="M 52.847656 66.238281 C 55.796875 66.238281 61.058594 65.820312 62.75 67.085938 C 64.011719 68.34375 65.269531 72.558594 64.011719 74.246094 C 63.582031 75.082031 60.214844 75.300781 58.539062 75.300781 "/>
<path style="fill:none;stroke-width:0.5;stroke-linecap:butt;stroke-linejoin:miter;stroke:rgb(100%,100%,100%);stroke-opacity:1;stroke-miterlimit:4;" d="M 23.530708 29.476035 C 24.843864 29.476035 27.186673 29.291777 27.939781 29.853242 C 28.501568 30.412969 29.061616 32.288574 28.501568 33.04125 C 28.310247 33.411504 26.810989 33.510586 26.064838 33.510586 " transform="matrix(2.245902,0,0,2.247191,0,0)"/>
<path style=" stroke:none;fill-rule:nonzero;fill:rgb(0.784314%,43.921569%,62.352941%);fill-opacity:1;" d="M 26.957031 34.636719 C 28.628906 34.636719 31.167969 34.21875 31.996094 35.054688 C 36.640625 38.429688 40.417969 42.644531 43.800781 47.277344 C 45.90625 51.070312 49.273438 53.179688 50.117188 56.964844 C 50.949219 60.335938 51.792969 63.710938 53.050781 66.652344 C 56.433594 72.558594 59.800781 77.617188 63.582031 83.507812 C 64.425781 84.355469 66.53125 83.9375 68.222656 84.78125 C 68.636719 85.199219 69.066406 86.460938 69.480469 86.460938 C 72.003906 86.460938 74.539062 86.886719 76.644531 86.046875 C 80.425781 83.9375 84.636719 83.507812 88.433594 82.246094 C 90.121094 86.046875 95.59375 87.304688 95.59375 91.519531 C 90.953125 94.472656 86.324219 96.578125 81.699219 99.101562 C 78.75 100.363281 75.800781 102.898438 72.433594 102.898438 C 70.328125 102.898438 60.644531 99.101562 60.214844 99.945312 C 58.539062 105.003906 67.378906 114.273438 66.117188 120.171875 C 64.425781 126.488281 63.582031 131.964844 62.320312 138.28125 C 61.90625 139.976562 61.0625 141.664062 60.644531 143.769531 C 60.191406 145.027344 59.472656 146.175781 58.539062 147.140625 C 56.851562 148.402344 55.160156 150.511719 53.484375 150.921875 C 51.378906 151.769531 49.0625 151.144531 46.960938 151.976562 C 45.683594 152.40625 44.21875 152.617188 42.957031 153.03125 C 40.851562 154.304688 37.898438 153.460938 37.484375 152.195312 C 35.378906 146.292969 37.054688 139.554688 34.949219 133.65625 C 30.738281 121.859375 27.199219 111.578125 19.367188 98.257812 C 17.699219 95.425781 11.722656 96.511719 9.683594 93.210938 C 3.039062 82.421875 8.421875 64.976562 12.21875 50.230469 C 13.058594 46.429688 16.636719 41.167969 20.417969 39.902344 C 21.691406 39.058594 22.109375 38.214844 23.367188 37.796875 C 25.058594 36.535156 25.265625 34.636719 26.957031 34.636719 "/>
<path style="fill:none;stroke-width:0.5;stroke-linecap:butt;stroke-linejoin:miter;stroke:rgb(100%,100%,100%);stroke-opacity:1;stroke-miterlimit:4;" d="M 12.002766 15.41334 C 12.747177 15.41334 13.877709 15.227344 14.246436 15.599336 C 16.314439 17.102949 17.996322 18.978555 19.502538 21.038418 C 20.440009 22.729766 21.939268 23.666699 22.314952 25.349355 C 22.685419 26.849492 23.061103 28.353105 23.621151 29.660293 C 25.127367 32.288574 26.626625 34.539648 28.310247 37.160977 C 28.685932 37.538184 29.623403 37.352187 30.376511 37.727656 C 30.560875 37.913652 30.752195 38.475117 30.936559 38.475117 C 32.060133 38.475117 33.188926 38.666328 34.126397 38.290859 C 35.810019 37.352187 37.684962 37.160977 39.375542 36.599512 C 40.12691 38.290859 42.563641 38.850586 42.563641 40.726191 C 40.497377 42.040332 38.436331 42.977266 36.377024 44.100195 C 35.063869 44.66166 33.750713 45.789805 32.251454 45.789805 C 31.313983 45.789805 27.00231 44.100195 26.810989 44.475664 C 26.064838 46.726738 30.000827 50.853418 29.43904 53.476484 C 28.685932 56.287285 28.310247 58.724355 27.74846 61.535156 C 27.564097 62.28957 27.188412 63.040508 27.00231 63.977441 C 26.800553 64.538906 26.480526 65.049961 26.064838 65.477578 C 25.313469 66.037305 24.560362 66.975977 23.814211 67.160234 C 22.876739 67.537441 21.845347 67.259316 20.909615 67.62957 C 20.34087 67.820781 19.688641 67.914648 19.126853 68.098906 C 18.189382 68.665586 16.874487 68.290117 16.690123 67.728652 C 15.752652 65.100371 16.498802 62.103574 15.561331 59.475293 C 13.686388 54.227422 12.110601 49.652266 8.623346 43.724727 C 7.880674 42.464473 5.219577 42.947715 4.311673 41.478867 C 1.353159 36.679473 3.749886 28.91457 5.440465 22.352559 C 5.81441 20.662949 7.40759 18.319746 9.091212 17.756543 C 9.658217 17.381074 9.84432 17.005605 10.404368 16.819609 C 11.157476 16.258145 11.249658 15.41334 12.002766 15.41334 Z M 12.002766 15.41334 " transform="matrix(2.245902,0,0,2.247191,0,0)"/>
<path style=" stroke:none;fill-rule:nonzero;fill:rgb(0.784314%,43.921569%,62.352941%);fill-opacity:1;" d="M 19.585938 145.65625 L 39.160156 153.03125 L 38.953125 136.175781 C 24.421875 98.683594 22.109375 98.890625 22.109375 98.890625 C 17.257812 96.152344 16 95.941406 16 95.941406 C 9.058594 96.367188 5.265625 88.152344 5.265625 88.152344 C 2.949219 86.25 0.636719 88.996094 0.636719 88.996094 L 19.585938 145.652344 "/>
<path style="fill:none;stroke-width:0.5;stroke-linecap:butt;stroke-linejoin:miter;stroke:rgb(100%,100%,100%);stroke-opacity:1;stroke-miterlimit:4;" d="M 8.720746 64.817031 L 17.436274 68.098906 L 17.344092 60.598223 C 10.873974 43.914199 9.84432 44.006328 9.84432 44.006328 C 7.684135 42.787793 7.124088 42.693926 7.124088 42.693926 C 4.033388 42.883398 2.344548 39.227793 2.344548 39.227793 C 1.313156 38.38125 0.283503 39.603262 0.283503 39.603262 L 8.720746 64.815293 Z M 8.720746 64.817031 " transform="matrix(2.245902,0,0,2.247191,0,0)"/>
</g>
</svg>
