<?xml version="1.0" encoding="UTF-8"?>
<svg xmlns="http://www.w3.org/2000/svg" xmlns:xlink="http://www.w3.org/1999/xlink" width="203pt" height="200pt" viewBox="0 0 203 200" version="1.1">
<g id="surface1">
<path style=" stroke:none;fill-rule:nonzero;fill:rgb(0.784314%,43.921569%,62.352941%);fill-opacity:1;" d="M 30.09375 169.914062 L 175.316406 169.914062 L 175.316406 142.59375 L 30.09375 142.59375 Z M 30.09375 169.914062 "/>
<path style="fill:none;stroke-width:0.5;stroke-linecap:butt;stroke-linejoin:miter;stroke:rgb(100%,100%,100%);stroke-opacity:1;stroke-miterlimit:4;" d="M 8.153479 45.876797 L 47.499519 45.876797 L 47.499519 38.500312 L 8.153479 38.500312 Z M 35.449219 42.680039 L 45.37119 42.680039 M 35.449219 42.323555 L 45.37119 42.323555 " transform="matrix(3.690909,0,0,3.703704,0,0)"/>
<path style=" stroke:none;fill-rule:nonzero;fill:rgb(0.784314%,43.921569%,62.352941%);fill-opacity:1;" d="M 199.683594 144.003906 L 199.683594 119.5 L 175.300781 142.703125 L 175.300781 169.921875 L 199.683594 144.003906 "/>
<path style="fill:none;stroke-width:0.5;stroke-linecap:butt;stroke-linejoin:miter;stroke:rgb(100%,100%,100%);stroke-opacity:1;stroke-miterlimit:4;" d="M 54.101466 38.881055 L 54.101466 32.265 L 47.495286 38.529844 L 47.495286 45.878906 Z M 54.101466 38.881055 " transform="matrix(3.690909,0,0,3.703704,0,0)"/>
<path style=" stroke:none;fill-rule:nonzero;fill:rgb(0.784314%,43.921569%,62.352941%);fill-opacity:1;" d="M 149.507812 192.21875 L 149.507812 186.070312 L 162.722656 167.75 L 162.722656 178.964844 L 149.507812 192.21875 "/>
<path style="fill:none;stroke-width:0.5;stroke-linecap:butt;stroke-linejoin:miter;stroke:rgb(100%,100%,100%);stroke-opacity:1;stroke-miterlimit:4;" d="M 40.507043 51.899063 L 40.507043 50.238984 L 44.087419 45.2925 L 44.087419 48.320508 Z M 40.507043 51.899063 " transform="matrix(3.690909,0,0,3.703704,0,0)"/>
<path style="fill-rule:nonzero;fill:rgb(0.784314%,43.921569%,62.352941%);fill-opacity:1;stroke-width:0.5;stroke-linecap:butt;stroke-linejoin:miter;stroke:rgb(100%,100%,100%);stroke-opacity:1;stroke-miterlimit:4;" d="M 8.993804 51.900117 L 40.507043 51.900117 L 40.507043 50.264297 L 8.993804 50.264297 Z M 8.993804 51.900117 " transform="matrix(3.690909,0,0,3.703704,0,0)"/>
<path style=" stroke:none;fill-rule:nonzero;fill:rgb(0.784314%,43.921569%,62.352941%);fill-opacity:1;" d="M 149.507812 186.164062 L 33.554688 186.164062 L 46.75 167.75 L 162.722656 167.75 L 149.507812 186.164062 "/>
<path style="fill:none;stroke-width:0.5;stroke-linecap:butt;stroke-linejoin:miter;stroke:rgb(100%,100%,100%);stroke-opacity:1;stroke-miterlimit:4;" d="M 40.507043 50.264297 L 9.091171 50.264297 L 12.666256 45.2925 L 44.087419 45.2925 Z M 40.507043 50.264297 " transform="matrix(3.690909,0,0,3.703704,0,0)"/>
<path style=" stroke:none;fill-rule:nonzero;fill:rgb(0.784314%,43.921569%,62.352941%);fill-opacity:1;" d="M 199.683594 119.554688 L 54.425781 119.554688 L 30.09375 142.59375 L 175.316406 142.59375 L 199.683594 119.554688 "/>
<path style="fill:none;stroke-width:0.5;stroke-linecap:butt;stroke-linejoin:miter;stroke:rgb(100%,100%,100%);stroke-opacity:1;stroke-miterlimit:4;" d="M 54.101466 32.279766 L 14.745901 32.279766 L 8.153479 38.500312 L 47.499519 38.500312 Z M 54.101466 32.279766 " transform="matrix(3.690909,0,0,3.703704,0,0)"/>
<path style=" stroke:none;fill-rule:nonzero;fill:rgb(0.784314%,43.921569%,62.352941%);fill-opacity:1;" d="M 172.328125 119.644531 L 75.113281 119.644531 L 58.820312 135.070312 L 156.03125 135.070312 L 172.328125 119.644531 "/>
<path style="fill:none;stroke-width:0.5;stroke-linecap:butt;stroke-linejoin:miter;stroke:rgb(100%,100%,100%);stroke-opacity:1;stroke-miterlimit:4;" d="M 46.689886 32.304023 L 20.350889 32.304023 L 15.936538 36.468984 L 42.274477 36.468984 Z M 46.689886 32.304023 " transform="matrix(3.690909,0,0,3.703704,0,0)"/>
<path style="fill-rule:nonzero;fill:rgb(0.784314%,43.921569%,62.352941%);fill-opacity:1;stroke-width:0.5;stroke-linecap:butt;stroke-linejoin:miter;stroke:rgb(100%,100%,100%);stroke-opacity:1;stroke-miterlimit:4;" d="M 15.190406 34.837383 L 42.318927 34.837383 L 42.318927 14.955469 L 15.190406 14.955469 Z M 15.190406 34.837383 " transform="matrix(3.690909,0,0,3.703704,0,0)"/>
<path style=" stroke:none;fill-rule:nonzero;fill:rgb(0.784314%,43.921569%,62.352941%);fill-opacity:1;" d="M 64.515625 71.558594 C 64.515625 64.164062 72.160156 63.058594 72.160156 63.058594 L 138.191406 63.058594 C 147.457031 63.058594 147.183594 71.824219 147.183594 71.824219 L 147.183594 113.152344 C 147.183594 118.363281 140.101562 120.550781 140.101562 120.550781 L 73.261719 120.550781 C 66.71875 120.550781 64.515625 113.714844 64.515625 113.714844 L 64.515625 71.554688 "/>
<path style="fill:none;stroke-width:0.5;stroke-linecap:butt;stroke-linejoin:miter;stroke:rgb(100%,100%,100%);stroke-opacity:1;stroke-miterlimit:4;" d="M 17.479603 19.32082 C 17.479603 17.324297 19.550781 17.02582 19.550781 17.02582 L 37.441021 17.02582 C 39.951412 17.02582 39.877328 19.392539 39.877328 19.392539 L 39.877328 30.551133 C 39.877328 31.958086 37.958551 32.548711 37.958551 32.548711 L 19.849234 32.548711 C 18.076509 32.548711 17.479603 30.703008 17.479603 30.703008 L 17.479603 19.319766 Z M 17.479603 19.32082 " transform="matrix(3.690909,0,0,3.703704,0,0)"/>
<path style=" stroke:none;fill-rule:nonzero;fill:rgb(0.784314%,43.921569%,62.352941%);fill-opacity:1;" d="M 172.972656 39.515625 L 72.84375 39.515625 L 56.066406 55.390625 L 156.195312 55.390625 L 172.972656 39.515625 "/>
<path style="fill:none;stroke-width:0.5;stroke-linecap:butt;stroke-linejoin:miter;stroke:rgb(100%,100%,100%);stroke-opacity:1;stroke-miterlimit:4;" d="M 46.864513 10.669219 L 19.735991 10.669219 L 15.190406 14.955469 L 42.318927 14.955469 Z M 46.864513 10.669219 " transform="matrix(3.690909,0,0,3.703704,0,0)"/>
<path style=" stroke:none;fill-rule:nonzero;fill:rgb(0.784314%,43.921569%,62.352941%);fill-opacity:1;" d="M 172.972656 113.390625 L 172.972656 39.496094 L 156.363281 55.261719 L 156.363281 129.160156 L 172.972656 113.390625 "/>
<path style="fill:none;stroke-width:0.5;stroke-linecap:butt;stroke-linejoin:miter;stroke:rgb(100%,100%,100%);stroke-opacity:1;stroke-miterlimit:4;" d="M 46.864513 30.615469 L 46.864513 10.663945 L 42.364436 14.920664 L 42.364436 34.873242 Z M 46.864513 30.615469 " transform="matrix(3.690909,0,0,3.703704,0,0)"/>
<path style=" stroke:none;fill-rule:nonzero;fill:rgb(0%,0%,0%);fill-opacity:1;" d="M 93.03125 4.101562 L 90.722656 5.472656 L 0.921875 5.472656 L 3.210938 4.050781 L 93.03125 4.101562 "/>
<path style=" stroke:none;fill-rule:nonzero;fill:rgb(0.784314%,43.921569%,62.352941%);fill-opacity:1;" d="M 93.046875 93.441406 L 93.03125 4.101562 L 90.722656 5.855469 L 90.722656 95.59375 L 93.046875 93.4375 "/>
<path style="fill:none;stroke-width:0.5;stroke-linecap:butt;stroke-linejoin:miter;stroke:rgb(100%,100%,100%);stroke-opacity:1;stroke-miterlimit:4;" d="M 25.209744 25.22918 L 25.205511 1.107422 L 24.58003 1.580977 L 24.58003 25.810313 Z M 25.209744 25.22918 " transform="matrix(3.690909,0,0,3.703704,0,0)"/>
<path style=" stroke:none;fill-rule:nonzero;fill:rgb(0.784314%,43.921569%,62.352941%);fill-opacity:1;" d="M 5.007812 95.59375 L 90.722656 95.59375 L 90.722656 5.476562 L 0.921875 5.476562 L 0.921875 91.480469 L 5.011719 95.589844 "/>
<path style="fill:none;stroke-width:0.5;stroke-linecap:butt;stroke-linejoin:miter;stroke:rgb(100%,100%,100%);stroke-opacity:1;stroke-miterlimit:4;" d="M 1.356796 25.810313 L 24.58003 25.810313 L 24.58003 1.478672 L 0.249769 1.478672 L 0.249769 24.700781 L 1.357855 25.810313 Z M 1.356796 25.810313 " transform="matrix(3.690909,0,0,3.703704,0,0)"/>
<path style=" stroke:none;fill-rule:nonzero;fill:rgb(0.784314%,43.921569%,62.352941%);fill-opacity:1;" d="M 83.914062 5.472656 L 83.914062 57.457031 C 83.914062 61.234375 80.863281 60.53125 80.863281 60.53125 L 10.4375 60.53125 C 10.4375 60.53125 7.734375 60.871094 7.734375 57.796875 L 7.734375 5.472656 "/>
<path style="fill:none;stroke-width:0.5;stroke-linecap:butt;stroke-linejoin:miter;stroke:rgb(100%,100%,100%);stroke-opacity:1;stroke-miterlimit:4;" d="M 22.735337 1.478672 L 22.735337 15.513398 C 22.735337 16.533281 21.908771 16.343438 21.908771 16.343438 L 2.827894 16.343438 C 2.827894 16.343438 2.09552 16.435195 2.09552 15.605156 L 2.09552 1.478672 M 0.625481 3.969844 L 1.729333 3.969844 L 1.729333 2.861367 L 0.625481 2.861367 L 0.625481 3.970898 Z M 23.109991 3.969844 L 24.219135 3.969844 L 24.219135 2.861367 L 23.108932 2.861367 L 23.108932 3.970898 Z M 23.109991 3.969844 " transform="matrix(3.690909,0,0,3.703704,0,0)"/>
<path style=" stroke:none;fill-rule:nonzero;fill:rgb(100%,100%,100%);fill-opacity:1;" d="M 69.386719 69.316406 L 69.386719 94.613281 L 15.980469 94.613281 L 15.980469 68.96875 C 15.980469 66.242188 19.046875 66.582031 19.046875 66.582031 L 66.65625 66.582031 C 69.722656 66.582031 69.382812 69.316406 69.382812 69.316406 "/>
<path style="fill:none;stroke-width:0.5;stroke-linecap:butt;stroke-linejoin:miter;stroke:rgb(0%,0%,0%);stroke-opacity:1;stroke-miterlimit:4;" d="M 18.799357 18.71543 L 18.799357 25.545586 L 4.329684 25.545586 L 4.329684 18.621562 C 4.329684 17.885391 5.160483 17.977148 5.160483 17.977148 L 18.059575 17.977148 C 18.890375 17.977148 18.798299 18.71543 18.798299 18.71543 Z M 18.799357 18.71543 " transform="matrix(3.690909,0,0,3.703704,0,0)"/>
<path style="fill:none;stroke-width:0.5;stroke-linecap:butt;stroke-linejoin:miter;stroke:rgb(100%,100%,100%);stroke-opacity:1;stroke-miterlimit:4;" d="M 22.735337 25.810313 L 22.735337 18.71543 C 22.735337 18.71543 22.828471 17.977148 21.996613 17.977148 L 5.180592 17.977148 C 5.180592 17.977148 4.350851 17.885391 4.350851 18.621562 L 4.350851 25.36207 " transform="matrix(3.690909,0,0,3.703704,0,0)"/>
<path style=" stroke:none;fill-rule:nonzero;fill:rgb(0%,0%,0%);fill-opacity:1;" d="M 26.257812 92.867188 L 36.796875 92.867188 L 36.796875 68.289062 L 26.257812 68.289062 Z M 26.257812 92.867188 "/>
<path style="fill:none;stroke-width:0.5;stroke-linecap:butt;stroke-linejoin:miter;stroke:rgb(100%,100%,100%);stroke-opacity:1;stroke-miterlimit:4;" d="M 24.58003 1.571484 L 25.224561 1.107422 " transform="matrix(3.690909,0,0,3.703704,0,0)"/>
</g>
</svg>
