<?xml version="1.0" encoding="UTF-8"?>
<svg xmlns="http://www.w3.org/2000/svg" xmlns:xlink="http://www.w3.org/1999/xlink" width="412pt" height="200pt" viewBox="0 0 412 200" version="1.1">
<g id="surface1">
<path style="fill-rule:nonzero;fill:rgb(0.784314%,43.921569%,62.352941%);fill-opacity:1;stroke-width:0.5;stroke-linecap:butt;stroke-linejoin:miter;stroke:rgb(100%,100%,100%);stroke-opacity:1;stroke-miterlimit:4;" d="M 0.50182 29.27502 L 51.875 29.27502 L 51.875 23.118008 L 0.50182 23.118008 Z M 0.50182 29.27502 " transform="matrix(6.4375,0,0,6.451613,0,0)"/>
<path style=" stroke:none;fill-rule:nonzero;fill:rgb(0.784314%,43.921569%,62.352941%);fill-opacity:1;" d="M 333.945312 149.148438 L 3.050781 149.148438 L 83.390625 32.269531 L 406.8125 32.269531 L 333.945312 149.148438 "/>
<path style="fill:none;stroke-width:0.5;stroke-linecap:butt;stroke-linejoin:miter;stroke:rgb(100%,100%,100%);stroke-opacity:1;stroke-miterlimit:4;" d="M 51.875 23.118008 L 0.473908 23.118008 L 12.953883 5.001777 L 63.194175 5.001777 L 51.875 23.116797 Z M 51.875 23.118008 " transform="matrix(6.4375,0,0,6.451613,0,0)"/>
<path style=" stroke:none;fill-rule:nonzero;fill:rgb(0.784314%,43.921569%,62.352941%);fill-opacity:1;" d="M 406.8125 32.277344 L 406.8125 106.992188 L 333.945312 189.304688 L 333.945312 149.148438 L 406.8125 32.277344 "/>
<path style="fill:none;stroke-width:0.5;stroke-linecap:butt;stroke-linejoin:miter;stroke:rgb(100%,100%,100%);stroke-opacity:1;stroke-miterlimit:4;" d="M 63.194175 5.001777 L 63.194175 16.583789 L 51.875 29.342832 L 51.875 23.118008 Z M 63.194175 5.001777 " transform="matrix(6.4375,0,0,6.451613,0,0)"/>
<path style=" stroke:none;fill-rule:nonzero;fill:rgb(0.784314%,43.921569%,62.352941%);fill-opacity:1;" d="M 25.679688 135.625 L 48.839844 101.640625 L 220.8125 101.640625 L 197.632812 135.625 L 25.679688 135.625 "/>
<path style="fill:none;stroke-width:0.5;stroke-linecap:butt;stroke-linejoin:miter;stroke:rgb(100%,100%,100%);stroke-opacity:1;stroke-miterlimit:4;" d="M 3.989078 21.023086 L 7.586772 15.754297 L 34.300971 15.754297 L 30.700243 21.023086 Z M 3.989078 21.023086 " transform="matrix(6.4375,0,0,6.451613,0,0)"/>
<path style=" stroke:none;fill-rule:nonzero;fill:rgb(0.784314%,43.921569%,62.352941%);fill-opacity:1;" d="M 48.839844 101.640625 L 72.011719 67.625 "/>
<path style="fill:none;stroke-width:0.5;stroke-linecap:butt;stroke-linejoin:miter;stroke:rgb(100%,100%,100%);stroke-opacity:1;stroke-miterlimit:4;" d="M 7.586772 15.754297 L 11.186286 10.480059 " transform="matrix(6.4375,0,0,6.451613,0,0)"/>
<path style=" stroke:none;fill-rule:nonzero;fill:rgb(0.784314%,43.921569%,62.352941%);fill-opacity:1;" d="M 220.8125 101.640625 L 243.980469 67.625 "/>
<path style="fill:none;stroke-width:0.5;stroke-linecap:butt;stroke-linejoin:miter;stroke:rgb(100%,100%,100%);stroke-opacity:1;stroke-miterlimit:4;" d="M 34.300971 15.754297 L 37.899879 10.480059 " transform="matrix(6.4375,0,0,6.451613,0,0)"/>
<path style="fill-rule:nonzero;fill:rgb(0.784314%,43.921569%,62.352941%);fill-opacity:1;stroke-width:0.5;stroke-linecap:butt;stroke-linejoin:miter;stroke:rgb(100%,100%,100%);stroke-opacity:1;stroke-miterlimit:4;" d="M 51.875 23.118008 L 63.194175 5.001777 " transform="matrix(6.4375,0,0,6.451613,0,0)"/>
<path style=" stroke:none;fill-rule:nonzero;fill:rgb(0.784314%,43.921569%,62.352941%);fill-opacity:1;" d="M 298.640625 53.527344 C 288.269531 65.476562 275.472656 79.398438 267.246094 92.949219 L 267.96875 101.703125 L 242.347656 141.328125 L 239.398438 115.566406 C 244.265625 96.03125 304.675781 19.386719 318.578125 10.316406 L 321.558594 36.078125 L 299.304688 61.753906 L 298.640625 53.527344 "/>
<path style="fill:none;stroke-width:0.5;stroke-linecap:butt;stroke-linejoin:miter;stroke:rgb(100%,100%,100%);stroke-opacity:1;stroke-miterlimit:4;" d="M 46.390777 8.297949 C 44.779733 10.148867 42.793083 12.306758 41.513956 14.407129 L 41.62682 15.763984 L 37.646845 21.90707 L 37.186893 17.912793 C 37.944175 14.884844 47.328883 3.004941 49.487257 1.599043 L 49.95085 5.592715 L 46.493932 9.573066 Z M 46.390777 8.297949 " transform="matrix(6.4375,0,0,6.451613,0,0)"/>
<path style=" stroke:none;fill-rule:nonzero;fill:rgb(0.784314%,43.921569%,62.352941%);fill-opacity:1;" d="M 209.15625 115.566406 L 206.199219 141.328125 L 242.351562 141.328125 L 239.390625 115.566406 L 209.15625 115.566406 "/>
<path style="fill:none;stroke-width:0.5;stroke-linecap:butt;stroke-linejoin:miter;stroke:rgb(100%,100%,100%);stroke-opacity:1;stroke-miterlimit:4;" d="M 32.490291 17.912793 L 32.030947 21.90707 L 37.646845 21.90707 L 37.186893 17.912793 Z M 32.490291 17.912793 " transform="matrix(6.4375,0,0,6.451613,0,0)"/>
<path style=" stroke:none;fill-rule:nonzero;fill:rgb(0.784314%,43.921569%,62.352941%);fill-opacity:1;" d="M 318.574219 10.316406 C 304.679688 19.386719 244.265625 96.03125 239.390625 115.566406 L 209.15625 115.566406 C 214.035156 96.03125 274.4375 19.386719 288.335938 10.316406 L 318.574219 10.316406 "/>
<path style="fill:none;stroke-width:0.5;stroke-linecap:butt;stroke-linejoin:miter;stroke:rgb(100%,100%,100%);stroke-opacity:1;stroke-miterlimit:4;" d="M 49.487257 1.600254 C 47.328883 3.004941 37.944175 14.884844 37.186893 17.912793 L 32.490291 17.912793 C 33.24818 14.884844 42.631068 3.004941 44.790049 1.599043 L 49.487257 1.599043 Z M 49.487257 1.600254 " transform="matrix(6.4375,0,0,6.451613,0,0)"/>
<path style=" stroke:none;fill-rule:nonzero;fill:rgb(0.784314%,43.921569%,62.352941%);fill-opacity:1;" d="M 266.363281 135.695312 L 302.074219 84.664062 L 355.789062 84.664062 L 323.882812 135.695312 L 266.363281 135.695312 "/>
<path style="fill:none;stroke-width:0.5;stroke-linecap:butt;stroke-linejoin:miter;stroke:rgb(100%,100%,100%);stroke-opacity:1;stroke-miterlimit:4;" d="M 41.37682 21.032773 L 46.92415 13.121719 L 55.268204 13.121719 L 50.311893 21.032168 L 41.37682 21.032168 Z M 41.37682 21.032773 " transform="matrix(6.4375,0,0,6.451613,0,0)"/>
<path style=" stroke:none;fill-rule:nonzero;fill:rgb(0.784314%,43.921569%,62.352941%);fill-opacity:1;" d="M 304.710938 135.695312 L 337.867188 84.664062 "/>
<path style="fill:none;stroke-width:0.5;stroke-linecap:butt;stroke-linejoin:miter;stroke:rgb(100%,100%,100%);stroke-opacity:1;stroke-miterlimit:4;" d="M 47.333738 21.032773 L 52.484223 13.121719 " transform="matrix(6.4375,0,0,6.451613,0,0)"/>
<path style=" stroke:none;fill-rule:nonzero;fill:rgb(0.784314%,43.921569%,62.352941%);fill-opacity:1;" d="M 285.535156 135.695312 L 319.996094 84.664062 "/>
<path style="fill:none;stroke-width:0.5;stroke-linecap:butt;stroke-linejoin:miter;stroke:rgb(100%,100%,100%);stroke-opacity:1;stroke-miterlimit:4;" d="M 44.354976 21.032773 L 49.708131 13.121719 M 51.552791 19.055918 L 42.762743 19.055918 M 52.791869 17.077852 L 44.149879 17.077852 M 54.029126 15.099785 L 45.538228 15.099785 " transform="matrix(6.4375,0,0,6.451613,0,0)"/>
</g>
</svg>
