<?xml version="1.0" encoding="UTF-8"?>
<svg xmlns="http://www.w3.org/2000/svg" xmlns:xlink="http://www.w3.org/1999/xlink" width="304pt" height="200pt" viewBox="0 0 304 200" version="1.1">
<g id="surface1">
<path style=" stroke:none;fill-rule:nonzero;fill:rgb(3.137255%,49.803922%,74.901961%);fill-opacity:1;" d="M 276.4375 123.015625 L 294.644531 27.371094 L 155.941406 27.371094 L 135.527344 123.015625 L 276.4375 123.015625 "/>
<path style="fill:none;stroke-width:0.5;stroke-linecap:butt;stroke-linejoin:miter;stroke:rgb(100%,100%,100%);stroke-opacity:1;stroke-miterlimit:4;" d="M 66.381373 29.52375 L 70.753457 6.569062 L 37.446456 6.569062 L 32.544395 29.52375 Z M 66.381373 29.52375 " transform="matrix(4.164384,0,0,4.166667,0,0)"/>
<path style=" stroke:none;fill-rule:nonzero;fill:rgb(3.137255%,49.803922%,74.901961%);fill-opacity:1;" d="M 294.636719 27.371094 L 300.050781 34.390625 L 283.152344 127.144531 L 276.4375 123.015625 L 294.636719 27.371094 "/>
<path style="fill:none;stroke-width:0.5;stroke-linecap:butt;stroke-linejoin:miter;stroke:rgb(100%,100%,100%);stroke-opacity:1;stroke-miterlimit:4;" d="M 70.75158 6.569062 L 72.051668 8.25375 L 67.993819 30.514687 L 66.381373 29.52375 Z M 70.75158 6.569062 " transform="matrix(4.164384,0,0,4.166667,0,0)"/>
<path style=" stroke:none;fill-rule:nonzero;fill:rgb(3.137255%,49.803922%,74.901961%);fill-opacity:1;" d="M 135.527344 123.015625 L 141.582031 127.144531 L 283.152344 127.144531 L 276.4375 123.015625 L 135.527344 123.015625 "/>
<path style="fill:none;stroke-width:0.5;stroke-linecap:butt;stroke-linejoin:miter;stroke:rgb(100%,100%,100%);stroke-opacity:1;stroke-miterlimit:4;" d="M 32.544395 29.52375 L 33.998317 30.514687 L 67.993819 30.514687 L 66.381373 29.52375 Z M 32.544395 29.52375 " transform="matrix(4.164384,0,0,4.166667,0,0)"/>
<path style=" stroke:none;fill-rule:nonzero;fill:rgb(3.137255%,49.803922%,74.901961%);fill-opacity:1;" d="M 277.722656 129.546875 L 277.722656 143.742188 L 274.058594 146.941406 C 274.058594 146.941406 265.4375 149.484375 267.347656 154.585938 L 228.9375 190.316406 L 228.9375 174.691406 L 277.722656 129.546875 "/>
<path style="fill:none;stroke-width:0.5;stroke-linecap:butt;stroke-linejoin:miter;stroke:rgb(100%,100%,100%);stroke-opacity:1;stroke-miterlimit:4;" d="M 66.68998 31.09125 L 66.68998 34.5 L 65.810123 35.265937 C 65.810123 35.265937 63.739926 35.877187 64.198615 37.103437 L 54.975123 45.676875 L 54.975123 41.926875 Z M 66.68998 31.09125 " transform="matrix(4.164384,0,0,4.166667,0,0)"/>
<path style="fill-rule:nonzero;fill:rgb(3.137255%,49.803922%,74.901961%);fill-opacity:1;stroke-width:0.5;stroke-linecap:butt;stroke-linejoin:miter;stroke:rgb(100%,100%,100%);stroke-opacity:1;stroke-miterlimit:4;" d="M 18.265946 45.675937 L 54.976061 45.675937 L 54.976061 41.925937 L 18.265946 41.925937 Z M 18.265946 45.675937 " transform="matrix(4.164384,0,0,4.166667,0,0)"/>
<path style=" stroke:none;fill-rule:nonzero;fill:rgb(3.137255%,49.803922%,74.901961%);fill-opacity:1;" d="M 137.113281 130.5 L 277.722656 129.546875 L 228.9375 174.691406 L 76.066406 174.691406 L 137.113281 130.5 "/>
<path style="fill:none;stroke-width:0.5;stroke-linecap:butt;stroke-linejoin:miter;stroke:rgb(100%,100%,100%);stroke-opacity:1;stroke-miterlimit:4;" d="M 32.925229 31.32 L 66.68998 31.09125 L 54.975123 41.925937 L 18.265946 41.925937 Z M 32.925229 31.32 " transform="matrix(4.164384,0,0,4.166667,0,0)"/>
<path style=" stroke:none;fill-rule:nonzero;fill:rgb(3.137255%,49.803922%,74.901961%);fill-opacity:1;" d="M 264.6875 113.699219 L 279.207031 38.808594 L 166.433594 38.808594 L 151.917969 113.699219 L 264.6875 113.699219 "/>
<path style="fill:none;stroke-width:0.5;stroke-linecap:butt;stroke-linejoin:miter;stroke:rgb(100%,100%,100%);stroke-opacity:1;stroke-miterlimit:4;" d="M 63.559827 27.287812 L 67.046425 9.314063 L 39.965962 9.314063 L 36.480302 27.287812 Z M 63.559827 27.287812 " transform="matrix(4.164384,0,0,4.166667,0,0)"/>
<path style="fill:none;stroke-width:0.125;stroke-linecap:butt;stroke-linejoin:round;stroke:rgb(100%,100%,100%);stroke-opacity:1;stroke-miterlimit:4;" d="M 33.720665 31.56 L 25.205374 38.434687 M 36.454975 31.56 L 27.939684 38.434687 M 39.190224 31.56 L 30.673995 38.434687 M 41.923597 31.56 L 33.409244 38.434687 M 44.658846 31.56 L 36.142617 38.434687 M 47.393156 31.56 L 38.876927 38.434687 M 50.127467 31.56 L 41.611238 38.434687 M 52.86084 31.56 L 44.345549 38.434687 M 55.596089 31.56 L 47.07986 38.434687 M 58.330399 31.56 L 49.815108 38.434687 M 61.06471 31.56 L 52.549419 38.434687 M 63.799021 31.56 L 55.28373 38.434687 M 26.158396 37.710938 L 56.470318 37.710938 M 28.193886 36.135 L 58.042429 36.135 M 30.30817 34.562812 L 60.077919 34.562812 M 32.191702 32.985 L 62.192203 32.985 " transform="matrix(4.164384,0,0,4.166667,0,0)"/>
<path style=" stroke:none;fill-rule:nonzero;fill:rgb(100%,100%,100%);fill-opacity:1;" d="M 223.589844 57.398438 C 232.828125 65.234375 243.742188 77.707031 244.230469 85.375 C 244.742188 93.066406 240.792969 95.019531 237.460938 97.421875 C 234.128906 99.824219 227.558594 100.144531 227.558594 100.144531 L 220.3125 91.394531 C 220.3125 91.394531 235.203125 89.769531 232.859375 81.265625 C 230.503906 72.757812 214.382812 49.585938 223.589844 57.398438 "/>
<path style=" stroke:none;fill-rule:nonzero;fill:rgb(100%,100%,100%);fill-opacity:1;" d="M 225.789062 80.515625 L 233.328125 108.671875 L 215.480469 98.355469 Z M 206.203125 100.167969 C 197 92.332031 186.078125 79.882812 185.566406 72.191406 C 185.082031 64.519531 189.019531 62.546875 192.355469 60.144531 C 195.671875 57.75 202.261719 57.421875 202.261719 57.421875 L 209.5 66.171875 C 209.5 66.171875 194.617188 67.796875 196.953125 76.300781 C 199.3125 84.828125 215.441406 107.980469 206.203125 100.167969 "/>
<path style=" stroke:none;fill-rule:nonzero;fill:rgb(100%,100%,100%);fill-opacity:1;" d="M 204.417969 77.460938 L 196.871094 49.300781 L 214.726562 59.601562 Z M 204.417969 77.460938 "/>
<path style=" stroke:none;fill-rule:nonzero;fill:rgb(3.137255%,49.803922%,74.901961%);fill-opacity:1;" d="M 220.421875 25.175781 C 224.480469 25.246094 228.261719 23.121094 230.308594 19.613281 C 232.355469 16.105469 232.347656 11.765625 230.289062 8.261719 C 228.234375 4.761719 224.445312 2.644531 220.386719 2.730469 C 214.277344 2.855469 209.390625 7.851562 209.402344 13.96875 C 209.410156 20.082031 214.308594 25.066406 220.421875 25.175781 "/>
<path style="fill:none;stroke-width:0.32;stroke-linecap:butt;stroke-linejoin:miter;stroke:rgb(100%,100%,100%);stroke-opacity:1;stroke-miterlimit:4;" d="M 52.930253 6.042187 C 53.904849 6.059062 54.812847 5.549062 55.304366 4.707187 C 55.795886 3.865312 55.79401 2.82375 55.299676 1.982812 C 54.806281 1.142813 53.896407 0.634687 52.921811 0.655312 C 51.454757 0.685312 50.281301 1.884375 50.284115 3.3525 C 50.285991 4.819687 51.462261 6.015937 52.930253 6.042187 Z M 52.930253 6.042187 " transform="matrix(4.164384,0,0,4.166667,0,0)"/>
<path style=" stroke:none;fill-rule:nonzero;fill:rgb(3.137255%,49.803922%,74.901961%);fill-opacity:1;" d="M 204.175781 30.976562 L 207.078125 13.617188 C 207.078125 21.042969 213.097656 27.066406 220.519531 27.066406 C 224.089844 27.070312 227.511719 25.65625 230.035156 23.132812 C 232.5625 20.609375 233.980469 17.1875 233.980469 13.617188 L 236.707031 30.996094 L 204.175781 30.976562 "/>
<path style=" stroke:none;fill-rule:nonzero;fill:rgb(100%,100%,100%);fill-opacity:1;" d="M 212.734375 16.871094 L 228.023438 16.871094 L 228.023438 11.765625 L 212.734375 11.765625 Z M 212.734375 16.871094 "/>
<path style=" stroke:none;fill-rule:nonzero;fill:rgb(13.72549%,12.156863%,12.54902%);fill-opacity:1;" d="M 16.285156 154.894531 C 17.574219 157.828125 16.238281 161.25 13.308594 162.535156 C 10.375 163.820312 6.957031 162.488281 5.671875 159.554688 C 4.386719 156.621094 5.722656 153.199219 8.652344 151.914062 C 11.585938 150.625 15.003906 151.960938 16.292969 154.894531 "/>
<path style="fill:none;stroke-width:2.5;stroke-linecap:butt;stroke-linejoin:miter;stroke:rgb(100%,100%,100%);stroke-opacity:1;stroke-miterlimit:4;" d="M 3.91058 37.174687 C 4.219187 37.87875 3.899324 38.7 3.194876 39.008437 C 2.491365 39.316875 1.670603 38.99625 1.361996 38.292187 C 1.057142 37.588125 1.377943 36.770625 2.079577 36.462187 C 2.782149 36.152812 3.602912 36.4725 3.91058 37.174687 Z M 3.91058 37.174687 " transform="matrix(4.164384,0,0,4.166667,0,0)"/>
<path style="fill:none;stroke-width:2.5;stroke-linecap:butt;stroke-linejoin:round;stroke:rgb(100%,100%,100%);stroke-opacity:1;stroke-miterlimit:4;" d="M 27.203343 29.489062 C 23.906224 32.536875 16.918958 35.998125 10.672723 37.575 C 6.557656 38.614687 3.695775 38.599688 2.635819 37.730625 " transform="matrix(4.164384,0,0,4.166667,0,0)"/>
<path style="fill:none;stroke-width:2.5;stroke-linecap:butt;stroke-linejoin:round;stroke:rgb(100%,100%,100%);stroke-opacity:1;stroke-miterlimit:4;" d="M 9.346371 29.59125 C 9.306037 27.165 9.96077 24.395625 11.356535 21.632812 C 14.818745 14.788125 21.552747 10.583437 26.396651 12.242812 C 31.234928 13.907813 32.353978 20.803125 28.890831 27.64875 C 28.568154 28.291875 28.21077 28.918125 27.822433 29.52375 " transform="matrix(4.164384,0,0,4.166667,0,0)"/>
<path style=" stroke:none;fill-rule:nonzero;fill:rgb(13.72549%,12.156863%,12.54902%);fill-opacity:1;" d="M 125.015625 119.003906 C 127.226562 124.0625 124.925781 129.957031 119.871094 132.171875 C 114.816406 134.386719 108.925781 132.082031 106.710938 127.023438 C 104.5 121.96875 106.800781 116.074219 111.855469 113.859375 C 116.910156 111.644531 122.800781 113.949219 125.015625 119.003906 "/>
<path style="fill:none;stroke-width:2.5;stroke-linecap:butt;stroke-linejoin:miter;stroke:rgb(100%,100%,100%);stroke-opacity:1;stroke-miterlimit:4;" d="M 30.020199 28.560937 C 30.275339 29.144063 30.289409 29.805 30.05772 30.3975 C 29.825093 30.99 29.367342 31.46625 28.783897 31.72125 C 27.570107 32.252812 26.153706 31.699687 25.621852 30.485625 C 25.089998 29.270625 25.644364 27.855 26.859092 27.323438 C 28.07382 26.792813 29.489284 27.346875 30.020199 28.561875 Z M 30.020199 28.560937 " transform="matrix(4.164384,0,0,4.166667,0,0)"/>
<path style=" stroke:none;fill-rule:nonzero;fill:rgb(13.72549%,12.156863%,12.54902%);fill-opacity:1;" d="M 44.105469 120.957031 C 45.394531 123.886719 44.066406 127.304688 41.136719 128.59375 C 38.210938 129.882812 34.792969 128.554688 33.507812 125.625 C 32.21875 122.695312 33.546875 119.277344 36.472656 117.988281 C 39.402344 116.699219 42.816406 118.03125 44.105469 120.957031 "/>
<path style="fill:none;stroke-width:2.5;stroke-linecap:butt;stroke-linejoin:miter;stroke:rgb(100%,100%,100%);stroke-opacity:1;stroke-miterlimit:4;" d="M 10.591116 29.029687 C 10.899722 29.731875 10.580798 30.55125 9.879163 30.860625 C 9.176591 31.169062 8.357705 30.850312 8.04816 30.149062 C 7.739553 29.446875 8.05754 28.6275 8.759175 28.318125 C 9.461747 28.00875 10.281571 28.3275 10.591116 29.029687 Z M 10.591116 29.029687 " transform="matrix(4.164384,0,0,4.166667,0,0)"/>
<path style=" stroke:none;fill-rule:nonzero;fill:rgb(13.72549%,12.156863%,12.54902%);fill-opacity:1;" d="M 16.285156 154.894531 C 17.574219 157.828125 16.238281 161.25 13.308594 162.535156 C 10.375 163.820312 6.957031 162.488281 5.671875 159.554688 C 4.386719 156.621094 5.722656 153.199219 8.652344 151.914062 C 11.585938 150.625 15.003906 151.960938 16.292969 154.894531 "/>
<path style="fill:none;stroke-width:0.5;stroke-linecap:butt;stroke-linejoin:round;stroke:rgb(0%,0%,0%);stroke-opacity:1;stroke-miterlimit:4;" d="M 27.203343 29.489062 C 23.906224 32.536875 16.918958 35.998125 10.672723 37.575 C 6.557656 38.614687 3.695775 38.599688 2.635819 37.730625 " transform="matrix(4.164384,0,0,4.166667,0,0)"/>
<path style="fill:none;stroke-width:1.25;stroke-linecap:butt;stroke-linejoin:round;stroke:rgb(0%,0%,0%);stroke-opacity:1;stroke-miterlimit:4;" d="M 9.346371 29.59125 C 9.306037 27.165 9.96077 24.395625 11.356535 21.632812 C 14.818745 14.788125 21.552747 10.583437 26.396651 12.242812 C 31.234928 13.907813 32.353978 20.803125 28.890831 27.64875 C 28.568154 28.291875 28.21077 28.918125 27.822433 29.52375 " transform="matrix(4.164384,0,0,4.166667,0,0)"/>
<path style=" stroke:none;fill-rule:nonzero;fill:rgb(13.72549%,12.156863%,12.54902%);fill-opacity:1;" d="M 125.015625 119.003906 C 127.226562 124.0625 124.925781 129.957031 119.871094 132.171875 C 114.816406 134.386719 108.925781 132.082031 106.710938 127.023438 C 104.5 121.96875 106.800781 116.074219 111.855469 113.859375 C 116.910156 111.644531 122.800781 113.949219 125.015625 119.003906 "/>
<path style="fill:none;stroke-width:0.5;stroke-linecap:butt;stroke-linejoin:miter;stroke:rgb(100%,100%,100%);stroke-opacity:1;stroke-miterlimit:4;" d="M 30.020199 28.560937 C 30.275339 29.144063 30.289409 29.805 30.05772 30.3975 C 29.825093 30.99 29.367342 31.46625 28.783897 31.72125 C 27.570107 32.252812 26.153706 31.699687 25.621852 30.485625 C 25.089998 29.270625 25.644364 27.855 26.859092 27.323438 C 28.07382 26.792813 29.489284 27.346875 30.020199 28.561875 Z M 30.020199 28.560937 " transform="matrix(4.164384,0,0,4.166667,0,0)"/>
<path style=" stroke:none;fill-rule:nonzero;fill:rgb(13.72549%,12.156863%,12.54902%);fill-opacity:1;" d="M 44.105469 120.957031 C 45.394531 123.886719 44.066406 127.304688 41.136719 128.59375 C 38.210938 129.882812 34.792969 128.554688 33.507812 125.625 C 32.21875 122.695312 33.546875 119.277344 36.472656 117.988281 C 39.402344 116.699219 42.816406 118.03125 44.105469 120.957031 "/>
</g>
</svg>
