<?xml version="1.0" encoding="UTF-8"?>
<svg xmlns="http://www.w3.org/2000/svg" xmlns:xlink="http://www.w3.org/1999/xlink" width="188pt" height="200pt" viewBox="0 0 188 200" version="1.1">
<g id="surface1">
<path style=" stroke:none;fill-rule:nonzero;fill:rgb(0.784314%,42.352941%,60.784314%);fill-opacity:1;" d="M 3.78125 191.160156 L 153.085938 191.160156 L 153.085938 38.539062 L 3.78125 38.539062 L 3.78125 191.167969 Z M 3.78125 191.160156 "/>
<path style="fill:none;stroke-width:0.5;stroke-linecap:butt;stroke-linejoin:miter;stroke:rgb(100%,100%,100%);stroke-opacity:1;stroke-miterlimit:4;" d="M 0.683843 34.408125 L 27.685755 34.408125 L 27.685755 6.937031 L 0.683843 6.937031 Z M 0.683843 34.408125 " transform="matrix(5.529412,0,0,5.555556,0,0)"/>
<path style="fill:none;stroke-width:1.625;stroke-linecap:butt;stroke-linejoin:miter;stroke:rgb(100%,100%,100%);stroke-opacity:1;stroke-miterlimit:4;" d="M 14.184799 15.813984 L 22.484874 15.813984 " transform="matrix(5.529412,0,0,5.555556,0,0)"/>
<path style=" stroke:none;fill-rule:nonzero;fill:rgb(100%,100%,100%);fill-opacity:1;" d="M 126.03125 74.023438 L 126.03125 100.714844 L 142.046875 87.882812 L 126.027344 74.023438 "/>
<path style="fill:none;stroke-width:0.25;stroke-linecap:butt;stroke-linejoin:miter;stroke:rgb(100%,100%,100%);stroke-opacity:1;stroke-miterlimit:4;" d="M 22.792886 13.324219 L 22.792886 18.127969 L 25.689328 15.818906 L 22.792179 13.324219 Z M 22.792886 13.324219 " transform="matrix(5.529412,0,0,5.555556,0,0)"/>
<path style="fill:none;stroke-width:1.625;stroke-linecap:butt;stroke-linejoin:miter;stroke:rgb(100%,100%,100%);stroke-opacity:1;stroke-miterlimit:4;" d="M 14.184799 25.370156 L 22.484874 25.370156 " transform="matrix(5.529412,0,0,5.555556,0,0)"/>
<path style=" stroke:none;fill-rule:nonzero;fill:rgb(100%,100%,100%);fill-opacity:1;" d="M 126.03125 126.890625 L 126.03125 153.609375 L 142.046875 140.777344 L 126.027344 126.890625 "/>
<path style="fill:none;stroke-width:0.25;stroke-linecap:butt;stroke-linejoin:miter;stroke:rgb(100%,100%,100%);stroke-opacity:1;stroke-miterlimit:4;" d="M 22.792886 22.840312 L 22.792886 27.649687 L 25.689328 25.339922 L 22.792179 22.840312 Z M 22.792886 22.840312 " transform="matrix(5.529412,0,0,5.555556,0,0)"/>
<path style="fill:none;stroke-width:1.625;stroke-linecap:butt;stroke-linejoin:miter;stroke:rgb(100%,100%,100%);stroke-opacity:1;stroke-miterlimit:4;" d="M 9.4092 20.628281 L 9.4092 12.327891 " transform="matrix(5.529412,0,0,5.555556,0,0)"/>
<path style=" stroke:none;fill-rule:nonzero;fill:rgb(100%,100%,100%);fill-opacity:1;" d="M 38.605469 66.964844 L 65.179688 66.964844 L 52.40625 50.882812 L 38.605469 66.964844 "/>
<path style="fill:none;stroke-width:0.25;stroke-linecap:butt;stroke-linejoin:miter;stroke:rgb(100%,100%,100%);stroke-opacity:1;stroke-miterlimit:4;" d="M 6.98184 12.053672 L 11.787816 12.053672 L 9.477726 9.158203 Z M 6.98184 12.053672 " transform="matrix(5.529412,0,0,5.555556,0,0)"/>
<path style="fill:none;stroke-width:1.625;stroke-linecap:butt;stroke-linejoin:miter;stroke:rgb(100%,100%,100%);stroke-opacity:1;stroke-miterlimit:4;" d="M 18.93991 20.628281 L 18.93991 12.327891 " transform="matrix(5.529412,0,0,5.555556,0,0)"/>
<path style=" stroke:none;fill-rule:nonzero;fill:rgb(100%,100%,100%);fill-opacity:1;" d="M 91.125 67.160156 L 117.714844 67.160156 L 104.949219 51.042969 L 91.125 67.15625 "/>
<path style="fill:none;stroke-width:0.25;stroke-linecap:butt;stroke-linejoin:miter;stroke:rgb(100%,100%,100%);stroke-opacity:1;stroke-miterlimit:4;" d="M 16.480053 12.088125 L 21.288855 12.088125 L 18.980178 9.187734 Z M 16.480053 12.088125 " transform="matrix(5.529412,0,0,5.555556,0,0)"/>
<path style="fill:none;stroke-width:1.625;stroke-linecap:butt;stroke-linejoin:miter;stroke:rgb(100%,100%,100%);stroke-opacity:1;stroke-miterlimit:4;" d="M 18.975233 20.569922 L 18.975233 28.870312 " transform="matrix(5.529412,0,0,5.555556,0,0)"/>
<path style=" stroke:none;fill-rule:nonzero;fill:rgb(100%,100%,100%);fill-opacity:1;" d="M 118.253906 161.882812 L 91.695312 161.882812 L 104.566406 177.972656 L 118.253906 161.882812 "/>
<path style="fill:none;stroke-width:0.25;stroke-linecap:butt;stroke-linejoin:miter;stroke:rgb(100%,100%,100%);stroke-opacity:1;stroke-miterlimit:4;" d="M 21.386345 29.140313 L 16.583195 29.140313 L 18.910946 32.033672 L 21.386345 29.138906 Z M 21.386345 29.140313 " transform="matrix(5.529412,0,0,5.555556,0,0)"/>
<path style="fill:none;stroke-width:1.625;stroke-linecap:butt;stroke-linejoin:miter;stroke:rgb(100%,100%,100%);stroke-opacity:1;stroke-miterlimit:4;" d="M 9.505984 20.569922 L 9.505984 28.870312 " transform="matrix(5.529412,0,0,5.555556,0,0)"/>
<path style=" stroke:none;fill-rule:nonzero;fill:rgb(100%,100%,100%);fill-opacity:1;" d="M 66.203125 161.882812 L 39.605469 161.882812 L 52.519531 177.972656 L 66.203125 161.882812 "/>
<path style="fill:none;stroke-width:0.25;stroke-linecap:butt;stroke-linejoin:miter;stroke:rgb(100%,100%,100%);stroke-opacity:1;stroke-miterlimit:4;" d="M 11.972906 29.140313 L 7.162691 29.140313 L 9.498213 32.033672 L 11.972906 29.138906 Z M 11.972906 29.140313 " transform="matrix(5.529412,0,0,5.555556,0,0)"/>
<path style="fill:none;stroke-width:1.625;stroke-linecap:butt;stroke-linejoin:miter;stroke:rgb(100%,100%,100%);stroke-opacity:1;stroke-miterlimit:4;" d="M 14.300657 25.370156 L 6.001288 25.370156 " transform="matrix(5.529412,0,0,5.555556,0,0)"/>
<path style=" stroke:none;fill-rule:nonzero;fill:rgb(100%,100%,100%);fill-opacity:1;" d="M 31.320312 154.964844 L 31.320312 128.273438 L 15.3125 141.105469 L 31.320312 154.964844 "/>
<path style="fill:none;stroke-width:0.25;stroke-linecap:butt;stroke-linejoin:miter;stroke:rgb(100%,100%,100%);stroke-opacity:1;stroke-miterlimit:4;" d="M 5.664312 27.895078 L 5.664312 23.089219 L 2.769282 25.399687 L 5.664312 27.895781 Z M 5.664312 27.895078 " transform="matrix(5.529412,0,0,5.555556,0,0)"/>
<path style="fill:none;stroke-width:1.625;stroke-linecap:butt;stroke-linejoin:miter;stroke:rgb(100%,100%,100%);stroke-opacity:1;stroke-miterlimit:4;" d="M 14.300657 15.837891 L 6.001288 15.837891 " transform="matrix(5.529412,0,0,5.555556,0,0)"/>
<path style=" stroke:none;fill-rule:nonzero;fill:rgb(100%,100%,100%);fill-opacity:1;" d="M 31.320312 102.011719 L 31.320312 75.320312 L 15.3125 88.15625 L 31.320312 102.011719 "/>
<path style="fill:none;stroke-width:0.25;stroke-linecap:butt;stroke-linejoin:miter;stroke:rgb(100%,100%,100%);stroke-opacity:1;stroke-miterlimit:4;" d="M 5.664312 18.362813 L 5.664312 13.557656 L 2.769282 15.868125 Z M 5.664312 18.362813 " transform="matrix(5.529412,0,0,5.555556,0,0)"/>
<path style=" stroke:none;fill-rule:nonzero;fill:rgb(0.784314%,42.352941%,60.784314%);fill-opacity:1;" d="M 152.539062 38.378906 L 3.9375 38.378906 L 41.632812 8.15625 L 183.644531 8.15625 L 183.644531 159.820312 L 152.898438 191.070312 L 152.898438 39.246094 L 152.539062 38.378906 "/>
<path style="fill:none;stroke-width:0.5;stroke-linecap:butt;stroke-linejoin:miter;stroke:rgb(100%,100%,100%);stroke-opacity:1;stroke-miterlimit:4;" d="M 27.586852 6.908203 L 0.712101 6.908203 L 7.529338 1.468125 L 33.212309 1.468125 L 33.212309 28.767656 L 27.651845 34.392656 L 27.651845 7.064297 Z M 27.586852 6.908203 " transform="matrix(5.529412,0,0,5.555556,0,0)"/>
<path style="fill-rule:nonzero;fill:rgb(0.784314%,42.352941%,60.784314%);fill-opacity:1;stroke-width:0.5;stroke-linecap:butt;stroke-linejoin:miter;stroke:rgb(100%,100%,100%);stroke-opacity:1;stroke-miterlimit:4;" d="M 27.636303 6.863906 L 33.261054 1.395 " transform="matrix(5.529412,0,0,5.555556,0,0)"/>
<path style=" stroke:none;fill-rule:nonzero;fill:rgb(0.784314%,42.352941%,60.784314%);fill-opacity:1;" d="M 78.460938 146.582031 C 95.976562 146.570312 110.164062 132.300781 110.15625 114.707031 C 110.160156 97.113281 95.972656 82.84375 78.460938 82.832031 C 60.9375 82.832031 46.734375 97.105469 46.738281 114.710938 C 46.738281 132.316406 60.941406 146.585938 78.460938 146.582031 "/>
<path style="fill:none;stroke-width:0.5;stroke-linecap:butt;stroke-linejoin:miter;stroke:rgb(100%,100%,100%);stroke-opacity:1;stroke-miterlimit:4;" d="M 14.189744 26.386172 C 17.356757 26.383359 19.922581 23.814844 19.921875 20.647969 C 19.921875 17.481797 17.356757 14.913984 14.189744 14.911172 C 11.021318 14.911172 8.452668 17.479688 8.452668 20.647969 C 8.452668 23.816953 11.021318 26.386172 14.189744 26.386172 Z M 14.189744 26.386172 " transform="matrix(5.529412,0,0,5.555556,0,0)"/>
</g>
</svg>
