<?xml version="1.0" encoding="UTF-8"?>
<svg xmlns="http://www.w3.org/2000/svg" xmlns:xlink="http://www.w3.org/1999/xlink" width="160pt" height="200pt" viewBox="0 0 160 200" version="1.1">
<g id="surface1">
<path style=" stroke:none;fill-rule:nonzero;fill:rgb(3.137255%,48.235294%,73.333333%);fill-opacity:1;" d="M 151.585938 3.320312 L 134.921875 22.277344 L 3.21875 22.277344 L 24.816406 3.320312 L 151.585938 3.320312 "/>
<path style="fill:none;stroke-width:0.5;stroke-linecap:butt;stroke-linejoin:miter;stroke:rgb(100%,100%,100%);stroke-opacity:1;stroke-miterlimit:4;" d="M 31.2646 0.679863 L 27.827637 4.567656 L 0.663867 4.567656 L 5.118384 0.679863 Z M 31.2646 0.679863 " transform="matrix(4.848485,0,0,4.878049,0,0)"/>
<path style=" stroke:none;fill-rule:nonzero;fill:rgb(3.137255%,48.235294%,73.333333%);fill-opacity:1;" d="M 134.921875 22.277344 L 134.921875 88.144531 L 151.5625 70.515625 L 151.5625 4.632812 L 134.921875 22.28125 "/>
<path style="fill:none;stroke-width:0.5;stroke-linecap:butt;stroke-linejoin:miter;stroke:rgb(100%,100%,100%);stroke-opacity:1;stroke-miterlimit:4;" d="M 27.827637 4.567656 L 27.827637 18.068027 L 31.259766 14.455703 L 31.259766 0.948926 Z M 27.827637 4.567656 " transform="matrix(4.848485,0,0,4.878049,0,0)"/>
<path style=" stroke:none;fill-rule:nonzero;fill:rgb(3.137255%,48.235294%,73.333333%);fill-opacity:1;" d="M 3.21875 192.0625 L 134.914062 192.0625 L 134.914062 87.085938 L 3.21875 87.085938 Z M 3.21875 192.0625 "/>
<path style="fill:none;stroke-width:0.5;stroke-linecap:butt;stroke-linejoin:miter;stroke:rgb(100%,100%,100%);stroke-opacity:1;stroke-miterlimit:4;" d="M 27.827637 39.372012 L 27.827637 17.852617 L 0.663867 17.852617 L 0.663867 39.372012 " transform="matrix(4.848485,0,0,4.878049,0,0)"/>
<path style=" stroke:none;fill-rule:nonzero;fill:rgb(3.137255%,48.235294%,73.333333%);fill-opacity:1;" d="M 3.21875 87.328125 L 134.914062 87.328125 L 134.914062 22.277344 L 3.21875 22.277344 Z M 3.21875 87.328125 "/>
<path style="fill:none;stroke-width:0.5;stroke-linecap:butt;stroke-linejoin:miter;stroke:rgb(100%,100%,100%);stroke-opacity:1;stroke-miterlimit:4;" d="M 0.663867 17.903066 L 27.826025 17.903066 L 27.826025 4.567656 L 0.663867 4.567656 Z M 0.663867 17.903066 " transform="matrix(4.848485,0,0,4.878049,0,0)"/>
<path style=" stroke:none;fill-rule:nonzero;fill:rgb(3.137255%,48.235294%,73.333333%);fill-opacity:1;" d="M 151.5625 174.433594 L 151.5625 69.847656 L 134.921875 87.46875 L 134.921875 192.0625 L 151.5625 174.433594 "/>
<path style="fill:none;stroke-width:0.5;stroke-linecap:butt;stroke-linejoin:miter;stroke:rgb(100%,100%,100%);stroke-opacity:1;stroke-miterlimit:4;" d="M 31.259766 35.759688 L 31.259766 14.317168 L 27.827637 17.931094 L 27.827637 39.371211 L 31.259766 35.758086 Z M 31.259766 35.759688 " transform="matrix(4.848485,0,0,4.878049,0,0)"/>
<path style=" stroke:none;fill-rule:nonzero;fill:rgb(100%,100%,100%);fill-opacity:1;" d="M 71.234375 151.828125 L 71.234375 174.742188 L 75.097656 174.742188 L 69.410156 183.390625 L 63.710938 174.742188 L 67.5625 174.742188 L 67.5625 151.828125 L 71.234375 151.828125 M 59.636719 148.515625 L 43.515625 164.738281 L 46.257812 167.476562 L 36.148438 169.527344 L 38.1875 159.351562 L 40.929688 162.117188 L 57.027344 145.898438 L 59.636719 148.515625 M 53.742188 137.921875 L 30.960938 137.921875 L 30.960938 141.800781 L 22.371094 136.0625 L 30.960938 130.320312 L 30.960938 134.222656 L 53.742188 134.222656 L 53.742188 137.921875 M 57.03125 126.230469 L 40.9375 110.035156 L 38.1875 112.765625 L 36.148438 102.601562 L 46.257812 104.667969 L 43.515625 107.40625 L 59.636719 123.601562 L 57.03125 126.222656 M 67.5625 128.320312 L 67.5625 84.097656 L 63.710938 84.097656 L 69.410156 75.449219 L 75.097656 84.097656 L 71.234375 84.097656 L 71.234375 128.328125 L 67.5625 128.328125 M 79.183594 123.605469 L 95.292969 107.410156 L 92.5625 104.671875 L 102.671875 102.601562 L 100.621094 112.769531 L 97.890625 110.027344 L 81.792969 126.222656 L 79.191406 123.605469 M 85.085938 134.222656 L 107.859375 134.222656 L 107.859375 130.320312 L 116.457031 136.0625 L 107.859375 141.800781 L 107.859375 137.921875 L 85.089844 137.921875 L 85.089844 134.222656 M 81.792969 145.898438 L 97.890625 162.117188 L 100.621094 159.351562 L 102.671875 169.523438 L 92.5625 167.472656 L 95.292969 164.742188 L 79.183594 148.515625 L 81.792969 145.898438 "/>
<path style=" stroke:none;fill-rule:nonzero;fill:rgb(100%,100%,100%);fill-opacity:1;" d="M 83.335938 116.863281 C 94.007812 124.375 96.601562 139.167969 89.132812 149.902344 C 85.550781 155.0625 80.078125 158.574219 73.917969 159.667969 C 67.757812 160.761719 61.417969 159.347656 56.296875 155.738281 C 45.625 148.226562 43.027344 133.433594 50.496094 122.699219 C 57.960938 111.964844 72.660156 109.351562 83.332031 116.863281 M 67.996094 43.261719 L 102.671875 43.261719 L 102.671875 39.804688 L 114.015625 46.742188 L 102.671875 53.839844 L 102.671875 50.375 L 67.996094 50.375 L 67.996094 43.253906 M 67.996094 64.960938 L 102.671875 64.960938 L 102.671875 61.507812 L 114.015625 68.433594 L 102.671875 75.535156 L 102.671875 72.082031 L 67.996094 72.082031 L 67.996094 64.960938 M 68.777344 32.902344 L 34.089844 32.902344 L 34.089844 29.429688 L 22.75 36.355469 L 34.09375 43.457031 L 34.09375 40 L 68.777344 40 L 68.777344 32.902344 M 68.777344 54.582031 L 34.089844 54.582031 L 34.089844 51.121094 L 22.75 58.054688 L 34.09375 65.15625 L 34.09375 61.703125 L 68.777344 61.703125 L 68.777344 54.582031 "/>
<path style="fill:none;stroke-width:0.5;stroke-linecap:round;stroke-linejoin:round;stroke:rgb(100%,100%,100%);stroke-opacity:1;stroke-miterlimit:4;" d="M 27.694702 39.327969 L 0.800024 39.327969 M 31.337109 0.743926 L 27.914648 4.48998 M 27.694702 17.922285 L 0.800024 17.922285 M 31.158252 14.490137 L 28.003271 17.790156 " transform="matrix(4.848485,0,0,4.878049,0,0)"/>
</g>
</svg>
