<?xml version="1.0" encoding="UTF-8"?>
<svg xmlns="http://www.w3.org/2000/svg" xmlns:xlink="http://www.w3.org/1999/xlink" width="76pt" height="200pt" viewBox="0 0 76 200" version="1.1">
<g id="surface1">
<path style=" stroke:none;fill-rule:nonzero;fill:rgb(1.176471%,41.176471%,59.607843%);fill-opacity:1;" d="M 0.890625 109.378906 L 16.214844 109.378906 L 0 192.308594 L 22.039062 192.308594 L 35.402344 131.710938 C 35.402344 131.710938 42.308594 179.085938 45.449219 191.863281 L 68.875 191.863281 C 67.511719 186.375 55.367188 116.210938 54.898438 108.929688 C 56.699219 108.929688 66.625 109.851562 69.769531 109.378906 C 69.769531 105.75 67.066406 87.066406 67.066406 82.507812 C 67.066406 77.953125 63.007812 57.441406 61.644531 52.886719 C 60.492188 48.929688 52.667969 42.871094 48.613281 41.492188 C 44.554688 40.144531 36.464844 40.589844 31.964844 40.589844 C 27.457031 40.589844 22.464844 41.742188 18.011719 42.871094 C 14.394531 43.773438 10.339844 49.703125 9.003906 53.339844 C 7.644531 56.996094 5.835938 68.382812 4.503906 73.847656 C 3.140625 79.308594 2.699219 99.816406 1.773438 103.019531 C 0.886719 106.199219 0.886719 109.378906 0.886719 109.378906 "/>
<path style=" stroke:none;fill-rule:nonzero;fill:rgb(100%,100%,100%);fill-opacity:1;" d="M 43.957031 40.742188 C 42.308594 40.589844 39.605469 40.742188 37.0625 40.589844 C 34.363281 40.484375 31.660156 40.535156 28.964844 40.742188 C 27.164062 40.890625 22.808594 41.945312 22.363281 41.945312 C 21.894531 41.945312 21.597656 41.644531 21.597656 41.644531 L 32.40625 80.535156 L 48.023438 41.640625 C 47.921875 40.539062 46.703125 41.234375 45.996094 40.816406 "/>
<path style="fill:none;stroke-width:0.236875;stroke-linecap:butt;stroke-linejoin:miter;stroke:rgb(100%,100%,100%);stroke-opacity:1;stroke-miterlimit:4;" d="M 8.67573 7.944727 C 8.35038 7.915781 7.816869 7.944727 7.314967 7.915781 C 6.810752 7.886074 6.069079 7.915781 5.716745 7.944727 C 5.361328 7.973672 4.501696 8.180098 4.413806 8.180098 C 4.321289 8.180098 4.262695 8.120684 4.262695 8.120684 L 6.39597 15.704355 L 9.47831 8.119922 C 9.458265 7.905117 9.217722 8.040703 9.078176 7.959199 " transform="matrix(5.066667,0,0,5.128205,0,0)"/>
<path style=" stroke:none;fill-rule:nonzero;fill:rgb(100%,100%,100%);fill-opacity:1;" d="M 34.730469 39.667969 C 45.011719 39.65625 53.339844 31.21875 53.335938 20.816406 C 53.34375 10.40625 45.015625 1.960938 34.730469 1.949219 C 29.789062 1.949219 25.046875 3.9375 21.554688 7.476562 C 18.0625 11.015625 16.101562 15.816406 16.105469 20.820312 C 16.105469 31.234375 24.445312 39.675781 34.730469 39.671875 "/>
<path style="fill:none;stroke-width:0.5;stroke-linecap:butt;stroke-linejoin:miter;stroke:rgb(1.176471%,41.176471%,59.607843%);stroke-opacity:1;stroke-miterlimit:4;" d="M 6.854698 7.735254 C 8.883892 7.732969 10.527601 6.087656 10.52683 4.059199 C 10.528372 2.029219 8.884663 0.382383 6.854698 0.380098 C 5.87942 0.380098 4.943462 0.767812 4.254215 1.45793 C 3.564967 2.148047 3.17794 3.084199 3.178711 4.059961 C 3.178711 6.090703 4.824733 7.736777 6.854698 7.736016 Z M 6.854698 7.735254 " transform="matrix(5.066667,0,0,5.128205,0,0)"/>
</g>
</svg>
