<?xml version="1.0" encoding="UTF-8"?>
<svg xmlns="http://www.w3.org/2000/svg" xmlns:xlink="http://www.w3.org/1999/xlink" width="273pt" height="200pt" viewBox="0 0 273 200" version="1.1">
<g id="surface1">
<path style=" stroke:none;fill-rule:nonzero;fill:rgb(7.058824%,52.54902%,74.509804%);fill-opacity:1;" d="M 3.453125 192.386719 L 235.914062 192.386719 L 235.914062 39.566406 L 3.453125 39.566406 L 3.453125 192.390625 Z M 3.453125 192.386719 "/>
<path style="fill:none;stroke-width:0.5;stroke-linecap:butt;stroke-linejoin:miter;stroke:rgb(100%,100%,100%);stroke-opacity:1;stroke-miterlimit:4;" d="M 0.708333 39.440078 L 48.392628 39.440078 L 48.392628 8.111113 L 0.708333 8.111113 Z M 0.708333 39.440078 " transform="matrix(4.875,0,0,4.878049,0,0)"/>
<path style=" stroke:none;fill-rule:nonzero;fill:rgb(7.058824%,52.54902%,74.509804%);fill-opacity:1;" d="M 269.652344 162 L 235.914062 192.390625 L 235.914062 39.5625 L 269.652344 7.097656 L 269.652344 162 "/>
<path style="fill:none;stroke-width:0.5;stroke-linecap:butt;stroke-linejoin:miter;stroke:rgb(100%,100%,100%);stroke-opacity:1;stroke-miterlimit:4;" d="M 55.313301 33.21 L 48.392628 39.440078 L 48.392628 8.111113 L 55.313301 1.45582 Z M 55.313301 33.21 " transform="matrix(4.875,0,0,4.878049,0,0)"/>
<path style=" stroke:none;fill-rule:nonzero;fill:rgb(7.058824%,52.54902%,74.509804%);fill-opacity:1;" d="M 43.558594 7.101562 L 269.644531 7.101562 L 235.921875 39.566406 L 3.453125 39.566406 L 43.558594 7.101562 "/>
<path style="fill:none;stroke-width:0.5;stroke-linecap:butt;stroke-linejoin:miter;stroke:rgb(100%,100%,100%);stroke-opacity:1;stroke-miterlimit:4;" d="M 8.935096 1.456621 L 55.311699 1.456621 L 48.394231 8.111914 L 0.708333 8.111914 Z M 8.935096 1.456621 " transform="matrix(4.875,0,0,4.878049,0,0)"/>
<path style=" stroke:none;fill-rule:nonzero;fill:rgb(100%,100%,100%);fill-opacity:1;" d="M 50.632812 123.027344 L 16.761719 123.054688 L 16.761719 116.859375 L 50.632812 116.835938 L 50.632812 107.191406 L 73.171875 119.957031 L 50.632812 132.726562 L 50.632812 123.027344 M 187.742188 79.726562 L 164.054688 79.75 L 164.054688 73.5625 L 187.746094 73.535156 L 187.761719 63.863281 L 210.308594 76.632812 L 187.761719 89.394531 L 187.742188 79.726562 M 206.023438 118.335938 L 164.054688 118.359375 L 164.054688 112.171875 L 206.027344 112.144531 L 206.042969 102.503906 L 228.589844 115.269531 L 206.042969 128.027344 L 206.023438 118.335938 M 187.742188 156.972656 L 164.054688 156.996094 L 164.054688 150.804688 L 187.746094 150.78125 L 187.761719 141.113281 L 210.308594 153.878906 L 187.761719 166.640625 L 187.742188 156.972656 "/>
<path style="fill-rule:nonzero;fill:rgb(0%,0%,0%);fill-opacity:1;stroke-width:1;stroke-linecap:butt;stroke-linejoin:miter;stroke:rgb(100%,100%,100%);stroke-opacity:1;stroke-miterlimit:4;" d="M 17.813301 35.714043 L 29.892628 35.714043 L 29.892628 12.174277 L 17.813301 12.174277 Z M 17.813301 35.714043 " transform="matrix(4.875,0,0,4.878049,0,0)"/>
<path style=" stroke:none;fill-rule:nonzero;fill:rgb(0%,0%,0%);fill-opacity:1;" d="M 146.058594 51.335938 L 146.058594 181.238281 L 86.171875 181.21875 L 86.171875 51.308594 L 146.058594 51.335938 "/>
<path style="fill:none;stroke-width:0.368125;stroke-linecap:butt;stroke-linejoin:miter;stroke:rgb(100%,100%,100%);stroke-opacity:1;stroke-miterlimit:4;" d="M 29.960737 10.523867 L 29.960737 37.153848 L 17.676282 37.149043 L 17.676282 10.519863 L 29.960737 10.524668 Z M 29.960737 10.523867 " transform="matrix(4.875,0,0,4.878049,0,0)"/>
<path style=" stroke:none;fill-rule:nonzero;fill:rgb(100%,100%,100%);fill-opacity:1;" d="M 128.109375 150.445312 L 128.109375 167.710938 L 102.117188 167.6875 L 102.117188 150.417969 L 128.109375 150.445312 "/>
<path style="fill:none;stroke-width:0.138875;stroke-linecap:butt;stroke-linejoin:miter;stroke:rgb(100%,100%,100%);stroke-opacity:1;stroke-miterlimit:4;" d="M 26.278846 30.84209 L 26.278846 34.382344 L 20.947115 34.376738 L 20.947115 30.837285 Z M 26.278846 30.84209 " transform="matrix(4.875,0,0,4.878049,0,0)"/>
<path style=" stroke:none;fill-rule:nonzero;fill:rgb(100%,100%,100%);fill-opacity:1;" d="M 141.460938 168.164062 L 141.460938 173.335938 L 137.085938 173.359375 L 137.085938 168.164062 L 141.460938 168.164062 "/>
<path style="fill:none;stroke-width:0.041625;stroke-linecap:butt;stroke-linejoin:miter;stroke:rgb(100%,100%,100%);stroke-opacity:1;stroke-miterlimit:4;" d="M 29.017628 34.475234 L 29.017628 35.533066 L 28.120192 35.537871 L 28.120192 34.475234 Z M 29.017628 34.475234 " transform="matrix(4.875,0,0,4.878049,0,0)"/>
<path style=" stroke:none;fill-rule:nonzero;fill:rgb(100%,100%,100%);fill-opacity:1;" d="M 137.085938 162.785156 L 141.46875 162.785156 L 141.46875 157.589844 L 137.085938 157.589844 Z M 137.085938 162.785156 "/>
<path style="fill:none;stroke-width:0.041625;stroke-linecap:butt;stroke-linejoin:miter;stroke:rgb(100%,100%,100%);stroke-opacity:1;stroke-miterlimit:4;" d="M 28.120192 33.370156 L 29.019231 33.370156 L 29.019231 32.305918 L 28.120192 32.305918 L 28.120192 33.370957 Z M 28.120192 33.370156 " transform="matrix(4.875,0,0,4.878049,0,0)"/>
<path style=" stroke:none;fill-rule:nonzero;fill:rgb(100%,100%,100%);fill-opacity:1;" d="M 137.085938 152.214844 L 141.46875 152.214844 L 141.46875 147.019531 L 137.085938 147.019531 Z M 137.085938 152.214844 "/>
<path style="fill:none;stroke-width:0.041625;stroke-linecap:butt;stroke-linejoin:miter;stroke:rgb(100%,100%,100%);stroke-opacity:1;stroke-miterlimit:4;" d="M 28.120192 31.203242 L 29.019231 31.203242 L 29.019231 30.138203 L 28.120192 30.138203 Z M 28.120192 31.203242 " transform="matrix(4.875,0,0,4.878049,0,0)"/>
<path style=" stroke:none;fill-rule:nonzero;fill:rgb(100%,100%,100%);fill-opacity:1;" d="M 137.085938 141.632812 L 141.46875 141.632812 L 141.46875 136.464844 L 137.085938 136.464844 Z M 137.085938 141.632812 "/>
<path style="fill:none;stroke-width:0.041625;stroke-linecap:butt;stroke-linejoin:miter;stroke:rgb(100%,100%,100%);stroke-opacity:1;stroke-miterlimit:4;" d="M 28.120192 29.036328 L 29.019231 29.036328 L 29.019231 27.976094 L 28.120192 27.976094 Z M 28.120192 29.036328 " transform="matrix(4.875,0,0,4.878049,0,0)"/>
<path style=" stroke:none;fill-rule:nonzero;fill:rgb(100%,100%,100%);fill-opacity:1;" d="M 137.085938 131.0625 L 141.46875 131.0625 L 141.46875 125.894531 L 137.085938 125.894531 Z M 137.085938 131.0625 "/>
<path style="fill:none;stroke-width:0.041625;stroke-linecap:butt;stroke-linejoin:miter;stroke:rgb(100%,100%,100%);stroke-opacity:1;stroke-miterlimit:4;" d="M 28.120192 26.867012 L 29.019231 26.867012 L 29.019231 25.806777 L 28.120192 25.806777 Z M 28.120192 26.867012 " transform="matrix(4.875,0,0,4.878049,0,0)"/>
<path style=" stroke:none;fill-rule:nonzero;fill:rgb(100%,100%,100%);fill-opacity:1;" d="M 141.460938 115.3125 L 141.460938 120.484375 L 137.085938 120.507812 L 137.085938 115.3125 L 141.460938 115.3125 "/>
<path style="fill:none;stroke-width:0.041625;stroke-linecap:butt;stroke-linejoin:miter;stroke:rgb(100%,100%,100%);stroke-opacity:1;stroke-miterlimit:4;" d="M 29.017628 23.639863 L 29.017628 24.697695 L 28.120192 24.703301 L 28.120192 23.639863 Z M 29.017628 23.639863 " transform="matrix(4.875,0,0,4.878049,0,0)"/>
<path style=" stroke:none;fill-rule:nonzero;fill:rgb(100%,100%,100%);fill-opacity:1;" d="M 137.085938 109.933594 L 141.46875 109.933594 L 141.46875 104.738281 L 137.085938 104.738281 Z M 137.085938 109.933594 "/>
<path style="fill:none;stroke-width:0.041625;stroke-linecap:butt;stroke-linejoin:miter;stroke:rgb(100%,100%,100%);stroke-opacity:1;stroke-miterlimit:4;" d="M 28.120192 22.536387 L 29.019231 22.536387 L 29.019231 21.469746 L 28.120192 21.469746 Z M 28.120192 22.536387 " transform="matrix(4.875,0,0,4.878049,0,0)"/>
<path style=" stroke:none;fill-rule:nonzero;fill:rgb(100%,100%,100%);fill-opacity:1;" d="M 137.085938 99.359375 L 141.46875 99.359375 L 141.46875 94.191406 L 137.085938 94.191406 Z M 137.085938 99.359375 "/>
<path style="fill:none;stroke-width:0.041625;stroke-linecap:butt;stroke-linejoin:miter;stroke:rgb(100%,100%,100%);stroke-opacity:1;stroke-miterlimit:4;" d="M 28.120192 20.367871 L 29.019231 20.367871 L 29.019231 19.307637 L 28.120192 19.307637 Z M 28.120192 20.367871 " transform="matrix(4.875,0,0,4.878049,0,0)"/>
<path style=" stroke:none;fill-rule:nonzero;fill:rgb(100%,100%,100%);fill-opacity:1;" d="M 141.460938 83.609375 L 141.460938 88.78125 L 137.085938 88.804688 L 137.085938 83.609375 L 141.460938 83.609375 "/>
<path style="fill:none;stroke-width:0.041625;stroke-linecap:butt;stroke-linejoin:miter;stroke:rgb(100%,100%,100%);stroke-opacity:1;stroke-miterlimit:4;" d="M 29.017628 17.139922 L 29.017628 18.200156 L 28.120192 18.204961 L 28.120192 17.139922 Z M 29.017628 17.139922 " transform="matrix(4.875,0,0,4.878049,0,0)"/>
<path style=" stroke:none;fill-rule:nonzero;fill:rgb(100%,100%,100%);fill-opacity:1;" d="M 141.460938 73.039062 L 141.460938 78.199219 L 137.085938 78.222656 L 137.085938 73.039062 L 141.460938 73.039062 "/>
<path style="fill:none;stroke-width:0.041625;stroke-linecap:butt;stroke-linejoin:miter;stroke:rgb(100%,100%,100%);stroke-opacity:1;stroke-miterlimit:4;" d="M 29.017628 14.972207 L 29.017628 16.031641 L 28.120192 16.037246 L 28.120192 14.972207 Z M 29.017628 14.972207 " transform="matrix(4.875,0,0,4.878049,0,0)"/>
<path style=" stroke:none;fill-rule:nonzero;fill:rgb(100%,100%,100%);fill-opacity:1;" d="M 141.460938 62.457031 L 141.460938 67.628906 L 137.085938 67.652344 L 137.085938 62.457031 L 141.460938 62.457031 "/>
<path style="fill:none;stroke-width:0.041625;stroke-linecap:butt;stroke-linejoin:miter;stroke:rgb(100%,100%,100%);stroke-opacity:1;stroke-miterlimit:4;" d="M 29.017628 12.803691 L 29.017628 13.863926 L 28.120192 13.86793 L 28.120192 12.803691 Z M 29.017628 12.803691 " transform="matrix(4.875,0,0,4.878049,0,0)"/>
<path style=" stroke:none;fill-rule:nonzero;fill:rgb(100%,100%,100%);fill-opacity:1;" d="M 90.457031 173.074219 L 94.839844 173.074219 L 94.839844 167.878906 L 90.457031 167.878906 Z M 90.457031 173.074219 "/>
<path style="fill:none;stroke-width:0.041625;stroke-linecap:butt;stroke-linejoin:miter;stroke:rgb(100%,100%,100%);stroke-opacity:1;stroke-miterlimit:4;" d="M 18.555288 35.480215 L 19.454327 35.480215 L 19.454327 34.415977 L 18.555288 34.415977 Z M 18.555288 35.480215 " transform="matrix(4.875,0,0,4.878049,0,0)"/>
<path style=" stroke:none;fill-rule:nonzero;fill:rgb(100%,100%,100%);fill-opacity:1;" d="M 90.457031 162.503906 L 94.839844 162.503906 L 94.839844 157.332031 L 90.457031 157.332031 Z M 90.457031 162.503906 "/>
<path style="fill:none;stroke-width:0.041625;stroke-linecap:butt;stroke-linejoin:miter;stroke:rgb(100%,100%,100%);stroke-opacity:1;stroke-miterlimit:4;" d="M 18.555288 33.311699 L 19.454327 33.311699 L 19.454327 32.252266 L 18.555288 32.252266 Z M 18.555288 33.311699 " transform="matrix(4.875,0,0,4.878049,0,0)"/>
<path style=" stroke:none;fill-rule:nonzero;fill:rgb(100%,100%,100%);fill-opacity:1;" d="M 94.832031 146.757812 L 94.832031 151.921875 L 90.457031 151.945312 L 90.457031 146.757812 L 94.832031 146.757812 "/>
<path style="fill:none;stroke-width:0.041625;stroke-linecap:butt;stroke-linejoin:miter;stroke:rgb(100%,100%,100%);stroke-opacity:1;stroke-miterlimit:4;" d="M 19.452724 30.08375 L 19.452724 31.143984 L 18.555288 31.148789 L 18.555288 30.08375 Z M 19.452724 30.08375 " transform="matrix(4.875,0,0,4.878049,0,0)"/>
<path style=" stroke:none;fill-rule:nonzero;fill:rgb(100%,100%,100%);fill-opacity:1;" d="M 94.832031 136.175781 L 94.832031 141.347656 L 90.457031 141.371094 L 90.457031 136.175781 L 94.832031 136.175781 "/>
<path style="fill:none;stroke-width:0.041625;stroke-linecap:butt;stroke-linejoin:miter;stroke:rgb(100%,100%,100%);stroke-opacity:1;stroke-miterlimit:4;" d="M 19.452724 27.916836 L 19.452724 28.97627 L 18.555288 28.980273 L 18.555288 27.916836 Z M 19.452724 27.916836 " transform="matrix(4.875,0,0,4.878049,0,0)"/>
<path style=" stroke:none;fill-rule:nonzero;fill:rgb(100%,100%,100%);fill-opacity:1;" d="M 94.832031 125.601562 L 94.832031 130.769531 L 90.457031 130.789062 L 90.457031 125.601562 L 94.832031 125.601562 "/>
<path style="fill:none;stroke-width:0.041625;stroke-linecap:butt;stroke-linejoin:miter;stroke:rgb(100%,100%,100%);stroke-opacity:1;stroke-miterlimit:4;" d="M 19.452724 25.74832 L 19.452724 26.807754 L 18.555288 26.813359 L 18.555288 25.74832 Z M 19.452724 25.74832 " transform="matrix(4.875,0,0,4.878049,0,0)"/>
<path style=" stroke:none;fill-rule:nonzero;fill:rgb(100%,100%,100%);fill-opacity:1;" d="M 90.457031 120.21875 L 94.839844 120.21875 L 94.839844 115.023438 L 90.457031 115.023438 Z M 90.457031 120.21875 "/>
<path style="fill:none;stroke-width:0.041625;stroke-linecap:butt;stroke-linejoin:miter;stroke:rgb(100%,100%,100%);stroke-opacity:1;stroke-miterlimit:4;" d="M 18.555288 24.644844 L 19.454327 24.644844 L 19.454327 23.580605 L 18.555288 23.580605 Z M 18.555288 24.644844 " transform="matrix(4.875,0,0,4.878049,0,0)"/>
<path style=" stroke:none;fill-rule:nonzero;fill:rgb(100%,100%,100%);fill-opacity:1;" d="M 90.457031 109.644531 L 94.839844 109.644531 L 94.839844 104.472656 L 90.457031 104.472656 Z M 90.457031 109.644531 "/>
<path style="fill:none;stroke-width:0.041625;stroke-linecap:butt;stroke-linejoin:miter;stroke:rgb(100%,100%,100%);stroke-opacity:1;stroke-miterlimit:4;" d="M 18.555288 22.47793 L 19.454327 22.47793 L 19.454327 21.417695 L 18.555288 21.417695 Z M 18.555288 22.47793 " transform="matrix(4.875,0,0,4.878049,0,0)"/>
<path style=" stroke:none;fill-rule:nonzero;fill:rgb(100%,100%,100%);fill-opacity:1;" d="M 94.832031 93.902344 L 94.832031 99.066406 L 90.457031 99.09375 L 90.457031 93.902344 L 94.832031 93.902344 "/>
<path style="fill:none;stroke-width:0.041625;stroke-linecap:butt;stroke-linejoin:miter;stroke:rgb(100%,100%,100%);stroke-opacity:1;stroke-miterlimit:4;" d="M 19.452724 19.24998 L 19.452724 20.310215 L 18.555288 20.31502 L 18.555288 19.24918 L 19.452724 19.24918 Z M 19.452724 19.24998 " transform="matrix(4.875,0,0,4.878049,0,0)"/>
<path style=" stroke:none;fill-rule:nonzero;fill:rgb(100%,100%,100%);fill-opacity:1;" d="M 94.832031 83.320312 L 94.832031 88.492188 L 90.457031 88.523438 L 90.457031 83.316406 L 94.832031 83.316406 "/>
<path style="fill:none;stroke-width:0.041625;stroke-linecap:butt;stroke-linejoin:miter;stroke:rgb(100%,100%,100%);stroke-opacity:1;stroke-miterlimit:4;" d="M 19.452724 17.082266 L 19.452724 18.140898 L 18.555288 18.145703 L 18.555288 17.082266 Z M 19.452724 17.082266 " transform="matrix(4.875,0,0,4.878049,0,0)"/>
<path style=" stroke:none;fill-rule:nonzero;fill:rgb(100%,100%,100%);fill-opacity:1;" d="M 90.457031 77.945312 L 94.839844 77.945312 L 94.839844 72.75 L 90.457031 72.75 Z M 90.457031 77.945312 "/>
<path style="fill:none;stroke-width:0.041625;stroke-linecap:butt;stroke-linejoin:miter;stroke:rgb(100%,100%,100%);stroke-opacity:1;stroke-miterlimit:4;" d="M 18.555288 15.977988 L 19.454327 15.977988 L 19.454327 14.912949 L 18.555288 14.912949 Z M 18.555288 15.977988 " transform="matrix(4.875,0,0,4.878049,0,0)"/>
<path style=" stroke:none;fill-rule:nonzero;fill:rgb(100%,100%,100%);fill-opacity:1;" d="M 90.457031 67.371094 L 94.839844 67.371094 L 94.839844 62.175781 L 90.457031 62.175781 Z M 90.457031 67.371094 "/>
<path style="fill:none;stroke-width:0.041625;stroke-linecap:butt;stroke-linejoin:miter;stroke:rgb(100%,100%,100%);stroke-opacity:1;stroke-miterlimit:4;" d="M 18.555288 13.810273 L 19.454327 13.810273 L 19.454327 12.746035 L 18.555288 12.746035 L 18.555288 13.811074 Z M 18.555288 13.810273 " transform="matrix(4.875,0,0,4.878049,0,0)"/>
<path style="fill-rule:nonzero;fill:rgb(100%,100%,100%);fill-opacity:1;stroke-width:0.138875;stroke-linecap:butt;stroke-linejoin:miter;stroke:rgb(100%,100%,100%);stroke-opacity:1;stroke-miterlimit:4;" d="M 20.947115 28.599902 L 26.279647 28.599902 L 26.279647 25.059648 L 20.947115 25.059648 Z M 20.947115 28.599902 " transform="matrix(4.875,0,0,4.878049,0,0)"/>
<path style=" stroke:none;fill-rule:nonzero;fill:rgb(100%,100%,100%);fill-opacity:1;" d="M 128.109375 94.066406 L 128.109375 111.335938 L 102.117188 111.3125 L 102.117188 94.042969 L 128.109375 94.066406 "/>
<path style="fill:none;stroke-width:0.138875;stroke-linecap:butt;stroke-linejoin:miter;stroke:rgb(100%,100%,100%);stroke-opacity:1;stroke-miterlimit:4;" d="M 26.278846 19.282813 L 26.278846 22.823066 L 20.947115 22.819063 L 20.947115 19.278809 Z M 26.278846 19.282813 " transform="matrix(4.875,0,0,4.878049,0,0)"/>
<path style=" stroke:none;fill-rule:nonzero;fill:rgb(100%,100%,100%);fill-opacity:1;" d="M 128.109375 65.886719 L 128.109375 83.132812 L 102.117188 83.132812 L 102.117188 65.863281 L 128.109375 65.886719 "/>
<path style="fill:none;stroke-width:0.138875;stroke-linecap:butt;stroke-linejoin:miter;stroke:rgb(100%,100%,100%);stroke-opacity:1;stroke-miterlimit:4;" d="M 26.278846 13.506777 L 26.278846 17.043027 L 20.947115 17.043027 L 20.947115 13.501973 Z M 26.278846 13.506777 " transform="matrix(4.875,0,0,4.878049,0,0)"/>
</g>
</svg>
