<?xml version="1.0" encoding="UTF-8"?>
<svg xmlns="http://www.w3.org/2000/svg" xmlns:xlink="http://www.w3.org/1999/xlink" width="169pt" height="200pt" viewBox="0 0 169 200" version="1.1">
<g id="surface1">
<path style=" stroke:none;fill-rule:nonzero;fill:rgb(1.176471%,41.176471%,59.607843%);fill-opacity:1;" d="M 83.90625 143.371094 C 129.574219 143.371094 166.59375 132.746094 166.59375 119.636719 C 166.59375 106.527344 129.574219 95.882812 83.90625 95.882812 C 38.242188 95.882812 1.238281 106.527344 1.238281 119.636719 C 1.238281 132.746094 38.242188 143.371094 83.90625 143.371094 "/>
<path style="fill:none;stroke-width:0.5;stroke-linecap:butt;stroke-linejoin:miter;stroke:rgb(100%,100%,100%);stroke-opacity:1;stroke-miterlimit:4;" d="M 24.824334 42.294473 C 38.335568 42.294473 49.288092 39.160098 49.288092 35.292832 C 49.288092 31.425566 38.335568 28.28543 24.824334 28.28543 C 11.314257 28.28543 0.366355 31.425566 0.366355 35.292832 C 0.366355 39.160098 11.314257 42.294473 24.824334 42.294473 Z M 24.824334 42.294473 " transform="matrix(3.38,0,0,3.389831,0,0)"/>
<path style=" stroke:none;fill-rule:nonzero;fill:rgb(1.176471%,41.176471%,59.607843%);fill-opacity:1;" d="M 82.699219 33.730469 C 114.402344 33.730469 140.117188 26.351562 140.117188 17.242188 C 140.117188 8.140625 114.40625 0.761719 82.699219 0.761719 C 50.976562 0.761719 25.28125 8.140625 25.28125 17.242188 C 25.28125 26.351562 50.976562 33.730469 82.699219 33.730469 "/>
<path style="fill:none;stroke-width:0.5;stroke-linecap:butt;stroke-linejoin:miter;stroke:rgb(100%,100%,100%);stroke-opacity:1;stroke-miterlimit:4;" d="M 24.467224 9.950488 C 33.846847 9.950488 41.454789 7.773711 41.454789 5.086445 C 41.454789 2.401484 33.848003 0.224707 24.467224 0.224707 C 15.081823 0.224707 7.47966 2.401484 7.47966 5.086445 C 7.47966 7.773711 15.081823 9.950488 24.467224 9.950488 Z M 24.467224 9.950488 " transform="matrix(3.38,0,0,3.389831,0,0)"/>
<path style="fill-rule:nonzero;fill:rgb(1.176471%,41.176471%,59.607843%);fill-opacity:1;stroke-width:0.5;stroke-linecap:butt;stroke-linejoin:miter;stroke:rgb(100%,100%,100%);stroke-opacity:1;stroke-miterlimit:4;" d="M 24.511141 31.425566 L 24.467224 36.875 C 15.082979 36.875 7.47966 34.69707 7.47966 32.010957 L 7.47966 5.086445 C 7.47966 7.773711 15.081823 9.950488 24.467224 9.950488 C 33.846847 9.950488 41.454789 7.773711 41.454789 5.086445 L 41.454789 32.010957 C 41.454789 33.730254 37.973835 35.321641 33.251664 36.185898 " transform="matrix(3.38,0,0,3.389831,0,0)"/>
<path style="fill:none;stroke-width:0.5;stroke-linecap:butt;stroke-linejoin:miter;stroke:rgb(100%,100%,100%);stroke-opacity:1;stroke-miterlimit:4;" d="M 45.448872 51.406055 L 45.448872 39.116309 L 38.930751 34.595664 L 38.930751 7.67 M 11.4853 53.691152 L 11.4853 41.401406 L 15.337232 36.108691 L 15.337232 9.185332 M 3.804549 51.327695 L 3.804549 39.042559 L 10.003698 34.443555 L 10.003698 7.523652 M 24.467224 9.950488 L 24.467224 36.875 M 33.134939 36.185898 L 33.134939 9.247559 " transform="matrix(3.38,0,0,3.389831,0,0)"/>
<path style=" stroke:none;fill-rule:nonzero;fill:rgb(1.176471%,41.176471%,59.607843%);fill-opacity:1;" d="M 166.59375 161.695312 C 165.535156 170.054688 150.25 177.78125 127.492188 182.003906 L 127.558594 139.832031 C 150.25 135.59375 165.535156 128.261719 166.59375 119.902344 L 166.59375 161.699219 "/>
<path style="fill:none;stroke-width:0.5;stroke-linecap:butt;stroke-linejoin:miter;stroke:rgb(100%,100%,100%);stroke-opacity:1;stroke-miterlimit:4;" d="M 49.288092 47.700117 C 48.974898 50.166133 44.452663 52.445469 37.719582 53.691152 L 37.739229 41.250449 C 44.452663 40.000156 48.974898 37.837207 49.288092 35.371191 L 49.288092 47.70127 Z M 49.288092 47.700117 " transform="matrix(3.38,0,0,3.389831,0,0)"/>
<path style=" stroke:none;fill-rule:nonzero;fill:rgb(1.176471%,41.176471%,59.607843%);fill-opacity:1;" d="M 0.710938 161.066406 C 0.183594 175.234375 39.359375 185.5625 85.027344 185.5625 L 85.027344 143.269531 C 38.570312 143.527344 0.183594 133.195312 0.710938 119.023438 L 0.710938 161.066406 "/>
<path style="fill:none;stroke-width:0.5;stroke-linecap:butt;stroke-linejoin:miter;stroke:rgb(100%,100%,100%);stroke-opacity:1;stroke-miterlimit:4;" d="M 0.210337 47.51459 C 0.0543177 51.694141 11.644786 54.740938 25.156019 54.740938 L 25.156019 42.264512 C 11.411335 42.340566 0.0543177 39.292617 0.210337 35.111914 Z M 0.210337 47.51459 " transform="matrix(3.38,0,0,3.389831,0,0)"/>
<path style=" stroke:none;fill-rule:nonzero;fill:rgb(1.176471%,41.176471%,59.607843%);fill-opacity:1;" d="M 82.847656 33.371094 L 82.585938 22.507812 C 86.167969 22.507812 89.75 22.214844 92.507812 21.933594 L 111.996094 31.347656 L 111.996094 122.664062 L 127.574219 139.566406 L 127.574219 182.238281 L 92.039062 166.097656 C 90.835938 166.097656 85.242188 166.859375 84.839844 166.859375 L 84.839844 143.339844 L 82.847656 124.933594 L 82.847656 33.371094 "/>
<path style="fill:none;stroke-width:0.5;stroke-linecap:butt;stroke-linejoin:miter;stroke:rgb(100%,100%,100%);stroke-opacity:1;stroke-miterlimit:4;" d="M 24.511141 9.844473 L 24.433709 6.639805 C 25.493482 6.639805 26.553254 6.553379 27.369175 6.47041 L 33.134939 9.247559 L 33.134939 36.185898 L 37.743852 41.17209 L 37.743852 53.760293 L 27.230492 48.998809 C 26.874538 48.998809 25.219582 49.223516 25.100545 49.223516 L 25.100545 42.285254 L 24.511141 36.85541 Z M 27.231648 6.493457 L 27.231648 48.998809 " transform="matrix(3.38,0,0,3.389831,0,0)"/>
<path style="fill-rule:nonzero;fill:rgb(0%,0%,0%);fill-opacity:1;stroke-width:0.5;stroke-linecap:butt;stroke-linejoin:miter;stroke:rgb(100%,100%,100%);stroke-opacity:1;stroke-miterlimit:4;" d="M 0.449565 34.888359 L 7.323641 32.387773 " transform="matrix(3.38,0,0,3.389831,0,0)"/>
<path style="fill-rule:nonzero;fill:rgb(0%,0%,0%);fill-opacity:1;stroke-width:0.5;stroke-linecap:butt;stroke-linejoin:bevel;stroke:rgb(100%,100%,100%);stroke-opacity:1;stroke-miterlimit:4;" d="M 49.041929 34.574922 L 41.541466 32.387773 " transform="matrix(3.38,0,0,3.389831,0,0)"/>
<path style=" stroke:none;fill-rule:nonzero;fill:rgb(1.176471%,41.176471%,59.607843%);fill-opacity:1;" d="M 96.84375 36.730469 L 106.351562 35.4375 L 126.15625 44.195312 C 118.757812 46.164062 101.332031 48.398438 97.898438 47.78125 L 96.84375 36.730469 "/>
<path style="fill:none;stroke-width:0.5;stroke-linecap:butt;stroke-linejoin:miter;stroke:rgb(100%,100%,100%);stroke-opacity:1;stroke-miterlimit:4;" d="M 28.651997 10.835488 L 31.464959 10.454063 L 37.324334 13.037617 C 35.135447 13.618398 29.979891 14.277539 28.964035 14.095469 Z M 28.651997 10.835488 " transform="matrix(3.38,0,0,3.389831,0,0)"/>
<path style=" stroke:none;fill-rule:nonzero;fill:rgb(1.176471%,41.176471%,59.607843%);fill-opacity:1;" d="M 96.582031 36.746094 L 97.898438 47.78125 L 97.898438 138.882812 L 100.015625 157.308594 L 100.015625 199.417969 L 96.582031 181.585938 L 96.582031 36.746094 "/>
<path style="fill:none;stroke-width:0.5;stroke-linecap:butt;stroke-linejoin:miter;stroke:rgb(100%,100%,100%);stroke-opacity:1;stroke-miterlimit:4;" d="M 28.574565 10.840098 L 28.964035 14.095469 L 28.964035 40.97043 L 29.590422 46.406035 L 29.590422 58.828301 L 28.574565 53.567852 Z M 28.574565 10.840098 " transform="matrix(3.38,0,0,3.389831,0,0)"/>
<path style=" stroke:none;fill-rule:nonzero;fill:rgb(1.176471%,41.176471%,59.607843%);fill-opacity:1;" d="M 97.902344 47.78125 C 103.179688 48.050781 121.929688 45.730469 126.15625 43.929688 L 126.15625 135.542969 C 118.5 137.015625 104.238281 139.085938 97.898438 138.621094 L 97.898438 47.78125 "/>
<path style="fill:none;stroke-width:0.5;stroke-linecap:butt;stroke-linejoin:miter;stroke:rgb(100%,100%,100%);stroke-opacity:1;stroke-miterlimit:4;" d="M 28.96519 14.095469 C 30.526535 14.17498 36.073872 13.490488 37.324334 12.959258 L 37.324334 39.985176 C 35.059172 40.419609 30.839728 41.030352 28.964035 40.893223 L 28.964035 14.095469 Z M 28.96519 14.095469 " transform="matrix(3.38,0,0,3.389831,0,0)"/>
<path style=" stroke:none;fill-rule:nonzero;fill:rgb(1.176471%,41.176471%,59.607843%);fill-opacity:1;" d="M 126.15625 135.542969 L 141.996094 151.664062 C 133.546875 153.964844 105.292969 157.042969 100.015625 157.042969 L 97.902344 138.621094 C 101.070312 138.988281 124.835938 136.15625 126.15625 135.542969 "/>
<path style="fill:none;stroke-width:0.5;stroke-linecap:butt;stroke-linejoin:miter;stroke:rgb(100%,100%,100%);stroke-opacity:1;stroke-miterlimit:4;" d="M 37.324334 39.985176 L 42.010679 44.740898 C 39.51091 45.419629 31.151766 46.327676 29.590422 46.327676 L 28.96519 40.893223 C 29.902459 41.001543 36.933709 40.166094 37.324334 39.985176 Z M 37.324334 39.985176 " transform="matrix(3.38,0,0,3.389831,0,0)"/>
<path style=" stroke:none;fill-rule:nonzero;fill:rgb(1.176471%,41.176471%,59.607843%);fill-opacity:1;" d="M 141.738281 151.417969 L 141.738281 193.789062 C 136.1875 195.410156 106.878906 199.335938 100.015625 199.152344 L 100.015625 157.308594 C 105.292969 157.308594 131.175781 154.097656 141.738281 151.417969 "/>
<path style="fill:none;stroke-width:0.5;stroke-linecap:butt;stroke-linejoin:miter;stroke:rgb(100%,100%,100%);stroke-opacity:1;stroke-miterlimit:4;" d="M 41.934403 44.668301 L 41.934403 57.167773 C 40.29216 57.645996 31.620978 58.804102 29.590422 58.749941 L 29.590422 46.406035 C 31.151766 46.406035 38.809403 45.458809 41.934403 44.668301 Z M 41.934403 44.668301 " transform="matrix(3.38,0,0,3.389831,0,0)"/>
</g>
</svg>
