<?xml version="1.0" encoding="UTF-8"?>
<svg xmlns="http://www.w3.org/2000/svg" xmlns:xlink="http://www.w3.org/1999/xlink" width="360pt" height="200pt" viewBox="0 0 360 200" version="1.1">
<g id="surface1">
<path style=" stroke:none;fill-rule:nonzero;fill:rgb(1.176471%,41.176471%,59.607843%);fill-opacity:1;" d="M 330.144531 3.839844 L 338.734375 14.972656 L 306.441406 198.109375 L 295.800781 191.53125 L 330.144531 3.839844 "/>
<path style="fill:none;stroke-width:3.99994;stroke-linecap:butt;stroke-linejoin:miter;stroke:rgb(100%,100%,100%);stroke-opacity:1;stroke-miterlimit:4;" d="M 396.173437 235.392187 L 406.48125 222.032812 L 367.729687 2.26875 L 354.960937 10.1625 Z M 396.173437 235.392187 " transform="matrix(0.833333,0,0,-0.833333,0,200)"/>
<path style=" stroke:none;fill-rule:nonzero;fill:rgb(0%,0%,0%);fill-opacity:1;" d="M 5.375 191.53125 L 15.007812 198.109375 L 306.441406 198.109375 L 295.800781 191.53125 L 5.375 191.53125 "/>
<path style="fill:none;stroke-width:3.99994;stroke-linecap:butt;stroke-linejoin:miter;stroke:rgb(100%,100%,100%);stroke-opacity:1;stroke-miterlimit:4;" d="M 6.45 10.1625 L 18.009375 2.26875 L 367.729687 2.26875 L 354.960937 10.1625 Z M 6.45 10.1625 " transform="matrix(0.833333,0,0,-0.833333,0,200)"/>
<path style=" stroke:none;fill-rule:nonzero;fill:rgb(1.176471%,41.176471%,59.607843%);fill-opacity:1;" d="M 295.800781 191.53125 L 330.144531 3.839844 L 43.257812 3.839844 L 5.375 191.53125 L 295.800781 191.53125 "/>
<path style="fill:none;stroke-width:3.99994;stroke-linecap:butt;stroke-linejoin:miter;stroke:rgb(100%,100%,100%);stroke-opacity:1;stroke-miterlimit:4;" d="M 354.960937 10.1625 L 396.173437 235.392187 L 51.909375 235.392187 L 6.45 10.1625 Z M 354.960937 10.1625 " transform="matrix(0.833333,0,0,-0.833333,0,200)"/>
<path style=" stroke:none;fill-rule:nonzero;fill:rgb(1.176471%,41.176471%,59.607843%);fill-opacity:1;" d="M 273.859375 157.71875 L 295.769531 40.882812 L 134.601562 40.882812 L 112.691406 157.71875 L 273.859375 157.71875 "/>
<path style="fill:none;stroke-width:3.99994;stroke-linecap:butt;stroke-linejoin:miter;stroke:rgb(100%,100%,100%);stroke-opacity:1;stroke-miterlimit:4;" d="M 328.63125 50.7375 L 354.923437 190.940625 L 161.521875 190.940625 L 135.229687 50.7375 Z M 328.63125 50.7375 " transform="matrix(0.833333,0,0,-0.833333,0,200)"/>
<path style="fill-rule:nonzero;fill:rgb(1.176471%,41.176471%,59.607843%);fill-opacity:1;stroke-width:3.99994;stroke-linecap:butt;stroke-linejoin:miter;stroke:rgb(100%,100%,100%);stroke-opacity:1;stroke-miterlimit:4;" d="M 131.910937 235.392187 L 86.446875 10.1625 " transform="matrix(0.833333,0,0,-0.833333,0,200)"/>
<path style=" stroke:none;fill-rule:nonzero;fill:rgb(1.176471%,41.176471%,59.607843%);fill-opacity:1;" d="M 32.125 152.148438 C 50.359375 156.675781 72.457031 130.730469 81.472656 94.242188 C 90.492188 57.75 83.039062 24.507812 64.777344 20.015625 L 32.125 152.148438 "/>
<path style="fill:none;stroke-width:3.99994;stroke-linecap:butt;stroke-linejoin:miter;stroke:rgb(100%,100%,100%);stroke-opacity:1;stroke-miterlimit:4;" d="M 38.55 57.421875 C 60.43125 51.989062 86.948437 83.123437 97.767187 126.909375 C 108.590625 170.7 99.646875 210.590625 77.732812 215.98125 Z M 38.55 57.421875 " transform="matrix(0.833333,0,0,-0.833333,0,200)"/>
<path style="fill-rule:nonzero;fill:rgb(1.176471%,41.176471%,59.607843%);fill-opacity:1;stroke-width:3.99994;stroke-linecap:butt;stroke-linejoin:miter;stroke:rgb(100%,100%,100%);stroke-opacity:1;stroke-miterlimit:4;" d="M 165.735937 211.48125 L 228.239062 211.48125 L 228.239062 218.98125 L 165.735937 218.98125 Z M 165.735937 211.48125 " transform="matrix(0.833333,0,0,-0.833333,0,200)"/>
<path style="fill-rule:nonzero;fill:rgb(1.176471%,41.176471%,59.607843%);fill-opacity:1;stroke-width:3.99994;stroke-linecap:butt;stroke-linejoin:miter;stroke:rgb(100%,100%,100%);stroke-opacity:1;stroke-miterlimit:4;" d="M 290.7375 211.48125 L 353.235937 211.48125 L 353.235937 218.98125 L 290.7375 218.98125 Z M 290.7375 211.48125 " transform="matrix(0.833333,0,0,-0.833333,0,200)"/>
<path style=" stroke:none;fill-rule:nonzero;fill:rgb(1.176471%,41.176471%,59.607843%);fill-opacity:1;" d="M 343.492188 160.96875 C 343.234375 163.25 341.148438 164.910156 338.867188 164.617188 C 336.589844 164.359375 334.957031 162.277344 335.226562 159.992188 L 352.992188 11.03125 C 353.289062 8.761719 355.339844 7.125 357.648438 7.390625 C 359.925781 7.683594 361.558594 9.734375 361.292969 12.039062 L 343.492188 160.96875 "/>
</g>
</svg>
