<?xml version="1.0" encoding="UTF-8"?>
<svg xmlns="http://www.w3.org/2000/svg" xmlns:xlink="http://www.w3.org/1999/xlink" width="130pt" height="200pt" viewBox="0 0 130 200" version="1.1">
<defs>
<clipPath id="clip1">
  <path d="M 0 0 L 130 0 L 130 194.800781 L 0 194.800781 Z M 0 0 "/>
</clipPath>
<clipPath id="clip2">
  <path d="M 0 0 L 130 0 L 130 194.800781 L 0 194.800781 Z M 0 0 "/>
</clipPath>
</defs>
<g id="surface1">
<path style=" stroke:none;fill-rule:nonzero;fill:rgb(0.784314%,42.352941%,60.784314%);fill-opacity:1;" d="M 3.144531 190.351562 L 103.160156 190.351562 L 103.160156 31.023438 L 3.144531 31.023438 Z M 3.144531 190.351562 "/>
<path style=" stroke:none;fill-rule:nonzero;fill:rgb(0.784314%,42.352941%,60.784314%);fill-opacity:1;" d="M 103.164062 190.351562 L 135.105469 158.410156 L 135.105469 -0.917969 L 35.085938 -0.917969 L 3.144531 31.023438 L 103.160156 31.023438 L 103.160156 190.351562 M 103.164062 31.023438 L 135.105469 -0.917969 "/>
<path style=" stroke:none;fill-rule:nonzero;fill:rgb(0.784314%,42.352941%,60.784314%);fill-opacity:1;" d="M 3.144531 190.351562 L 103.160156 190.351562 L 103.160156 31.023438 L 3.144531 31.023438 Z M 3.144531 190.351562 "/>
<path style="fill:none;stroke-width:4;stroke-linecap:butt;stroke-linejoin:miter;stroke:rgb(100%,100%,100%);stroke-opacity:1;stroke-miterlimit:4;" d="M 158.713942 259.963942 L 4.83774 259.963942 L 4.83774 14.84375 L 158.707933 14.84375 " transform="matrix(0.65,0,0,-0.65,0,200)"/>
<path style=" stroke:none;fill-rule:nonzero;fill:rgb(0.784314%,42.352941%,60.784314%);fill-opacity:1;" d="M 103.164062 190.351562 L 135.105469 158.410156 L 135.105469 -0.917969 L 35.085938 -0.917969 L 3.144531 31.023438 L 103.160156 31.023438 L 103.160156 190.351562 "/>
<g clip-path="url(#clip1)" clip-rule="nonzero">
<path style="fill:none;stroke-width:4;stroke-linecap:butt;stroke-linejoin:miter;stroke:rgb(100%,100%,100%);stroke-opacity:1;stroke-miterlimit:4;" d="M 158.713942 14.84375 L 207.854567 63.984375 L 207.854567 309.104567 L 53.978365 309.104567 L 4.83774 259.963942 L 158.707933 259.963942 L 158.707933 14.84375 Z M 158.713942 14.84375 " transform="matrix(0.65,0,0,-0.65,0,200)"/>
</g>
<path style=" stroke:none;fill-rule:nonzero;fill:rgb(100%,100%,100%);fill-opacity:1;" d="M 103.164062 31.023438 L 135.105469 -0.917969 "/>
<path style="fill:none;stroke-width:4;stroke-linecap:butt;stroke-linejoin:miter;stroke:rgb(100%,100%,100%);stroke-opacity:1;stroke-miterlimit:4;" d="M 158.713942 259.963942 L 4.83774 259.963942 L 4.83774 14.84375 L 158.707933 14.84375 " transform="matrix(0.65,0,0,-0.65,0,200)"/>
<g clip-path="url(#clip2)" clip-rule="nonzero">
<path style="fill:none;stroke-width:4;stroke-linecap:butt;stroke-linejoin:miter;stroke:rgb(100%,100%,100%);stroke-opacity:1;stroke-miterlimit:4;" d="M 158.713942 14.84375 L 207.854567 63.984375 L 207.854567 309.104567 L 53.978365 309.104567 L 4.83774 259.963942 L 158.707933 259.963942 L 158.707933 14.84375 Z M 158.713942 259.963942 L 207.854567 309.104567 " transform="matrix(0.65,0,0,-0.65,0,200)"/>
</g>
<path style="fill:none;stroke-width:4;stroke-linecap:round;stroke-linejoin:round;stroke:rgb(100%,100%,100%);stroke-opacity:1;stroke-miterlimit:4;" d="M 30.979567 187.96274 L 137.542067 187.96274 L 137.542067 230.93149 L 30.979567 230.93149 Z M 30.979567 187.96274 " transform="matrix(0.65,0,0,-0.65,0,200)"/>
<path style=" stroke:none;fill-rule:nonzero;fill:rgb(0%,0%,0%);fill-opacity:1;" d="M 45.449219 63.347656 C 45.449219 67.304688 42.226562 70.511719 38.292969 70.511719 C 34.324219 70.511719 31.128906 67.304688 31.128906 63.347656 C 31.128906 59.410156 34.324219 56.183594 38.292969 56.183594 C 42.222656 56.183594 45.449219 59.410156 45.449219 63.347656 "/>
<path style="fill:none;stroke-width:4;stroke-linecap:round;stroke-linejoin:round;stroke:rgb(100%,100%,100%);stroke-opacity:1;stroke-miterlimit:4;" d="M 69.921875 210.234375 C 69.921875 204.146635 64.963942 199.21274 58.91226 199.21274 C 52.80649 199.21274 47.890625 204.146635 47.890625 210.234375 C 47.890625 216.292067 52.80649 221.25601 58.91226 221.25601 C 64.957933 221.25601 69.921875 216.292067 69.921875 210.234375 Z M 69.921875 210.234375 " transform="matrix(0.65,0,0,-0.65,0,200)"/>
<path style=" stroke:none;fill-rule:nonzero;fill:rgb(0%,0%,0%);fill-opacity:1;" d="M 76.734375 63.347656 C 76.734375 67.304688 73.527344 70.511719 69.59375 70.511719 C 65.636719 70.511719 62.433594 67.304688 62.433594 63.347656 C 62.433594 59.410156 65.636719 56.183594 69.59375 56.183594 C 73.527344 56.183594 76.734375 59.410156 76.734375 63.347656 "/>
<path style="fill:none;stroke-width:4;stroke-linecap:round;stroke-linejoin:round;stroke:rgb(100%,100%,100%);stroke-opacity:1;stroke-miterlimit:4;" d="M 118.052885 210.234375 C 118.052885 204.146635 113.11899 199.21274 107.067308 199.21274 C 100.979567 199.21274 96.051683 204.146635 96.051683 210.234375 C 96.051683 216.292067 100.979567 221.25601 107.067308 221.25601 C 113.11899 221.25601 118.052885 216.292067 118.052885 210.234375 Z M 30.979567 112.920673 L 137.542067 112.920673 L 137.542067 155.895433 L 30.979567 155.895433 Z M 30.979567 112.920673 " transform="matrix(0.65,0,0,-0.65,0,200)"/>
<path style=" stroke:none;fill-rule:nonzero;fill:rgb(0%,0%,0%);fill-opacity:1;" d="M 45.449219 112.097656 C 45.449219 116.054688 42.226562 119.261719 38.292969 119.261719 C 34.324219 119.261719 31.128906 116.054688 31.128906 112.097656 C 31.128906 108.140625 34.324219 104.960938 38.292969 104.960938 C 42.222656 104.960938 45.449219 108.140625 45.449219 112.097656 "/>
<path style="fill:none;stroke-width:4;stroke-linecap:round;stroke-linejoin:round;stroke:rgb(100%,100%,100%);stroke-opacity:1;stroke-miterlimit:4;" d="M 69.921875 135.234375 C 69.921875 129.146635 64.963942 124.21274 58.91226 124.21274 C 52.80649 124.21274 47.890625 129.146635 47.890625 135.234375 C 47.890625 141.322115 52.80649 146.213942 58.91226 146.213942 C 64.957933 146.213942 69.921875 141.322115 69.921875 135.234375 Z M 69.921875 135.234375 " transform="matrix(0.65,0,0,-0.65,0,200)"/>
<path style=" stroke:none;fill-rule:nonzero;fill:rgb(0%,0%,0%);fill-opacity:1;" d="M 76.734375 112.097656 C 76.734375 116.054688 73.527344 119.261719 69.59375 119.261719 C 65.636719 119.261719 62.433594 116.054688 62.433594 112.097656 C 62.433594 108.140625 65.636719 104.960938 69.59375 104.960938 C 73.527344 104.960938 76.734375 108.140625 76.734375 112.097656 "/>
<path style="fill:none;stroke-width:4;stroke-linecap:round;stroke-linejoin:round;stroke:rgb(100%,100%,100%);stroke-opacity:1;stroke-miterlimit:4;" d="M 118.052885 135.234375 C 118.052885 129.146635 113.11899 124.21274 107.067308 124.21274 C 100.979567 124.21274 96.051683 129.146635 96.051683 135.234375 C 96.051683 141.322115 100.979567 146.213942 107.067308 146.213942 C 113.11899 146.213942 118.052885 141.322115 118.052885 135.234375 Z M 30.979567 37.920673 L 137.542067 37.920673 L 137.542067 80.895433 L 30.979567 80.895433 Z M 30.979567 37.920673 " transform="matrix(0.65,0,0,-0.65,0,200)"/>
<path style=" stroke:none;fill-rule:nonzero;fill:rgb(0%,0%,0%);fill-opacity:1;" d="M 45.449219 160.847656 C 45.449219 164.804688 42.226562 168.011719 38.292969 168.011719 C 34.324219 168.011719 31.128906 164.804688 31.128906 160.847656 C 31.128906 156.890625 34.324219 153.710938 38.292969 153.710938 C 42.222656 153.710938 45.449219 156.890625 45.449219 160.847656 "/>
<path style="fill:none;stroke-width:4;stroke-linecap:round;stroke-linejoin:round;stroke:rgb(100%,100%,100%);stroke-opacity:1;stroke-miterlimit:4;" d="M 69.921875 60.234375 C 69.921875 54.146635 64.963942 49.21274 58.91226 49.21274 C 52.80649 49.21274 47.890625 54.146635 47.890625 60.234375 C 47.890625 66.322115 52.80649 71.213942 58.91226 71.213942 C 64.957933 71.213942 69.921875 66.322115 69.921875 60.234375 Z M 69.921875 60.234375 " transform="matrix(0.65,0,0,-0.65,0,200)"/>
<path style=" stroke:none;fill-rule:nonzero;fill:rgb(0%,0%,0%);fill-opacity:1;" d="M 76.734375 160.847656 C 76.734375 164.804688 73.527344 168.011719 69.59375 168.011719 C 65.636719 168.011719 62.433594 164.804688 62.433594 160.847656 C 62.433594 156.890625 65.636719 153.710938 69.59375 153.710938 C 73.527344 153.710938 76.734375 156.890625 76.734375 160.847656 "/>
<path style="fill:none;stroke-width:4;stroke-linecap:round;stroke-linejoin:round;stroke:rgb(100%,100%,100%);stroke-opacity:1;stroke-miterlimit:4;" d="M 118.052885 60.234375 C 118.052885 54.146635 113.11899 49.21274 107.067308 49.21274 C 100.979567 49.21274 96.051683 54.146635 96.051683 60.234375 C 96.051683 66.322115 100.979567 71.213942 107.067308 71.213942 C 113.11899 71.213942 118.052885 66.322115 118.052885 60.234375 Z M 58.91226 221.25601 L 107.067308 221.25601 M 58.91226 146.213942 L 107.067308 146.213942 M 58.91226 71.213942 L 107.067308 71.213942 " transform="matrix(0.65,0,0,-0.65,0,200)"/>
</g>
</svg>
