<?xml version="1.0" encoding="UTF-8"?>
<svg xmlns="http://www.w3.org/2000/svg" xmlns:xlink="http://www.w3.org/1999/xlink" width="492pt" height="200pt" viewBox="0 0 492 200" version="1.1">
<g id="surface1">
<path style=" stroke:none;fill-rule:nonzero;fill:rgb(1.176471%,41.176471%,59.607843%);fill-opacity:1;" d="M 440.652344 158.902344 C 440.652344 160.003906 440.21875 161.0625 439.4375 161.84375 C 438.660156 162.625 437.601562 163.0625 436.5 163.0625 L 43.921875 163.0625 C 41.628906 163.0625 39.769531 161.203125 39.769531 158.90625 L 61.550781 27.289062 C 61.550781 25.003906 63.40625 23.152344 65.707031 23.152344 L 451.382812 23.152344 C 453.683594 23.152344 455.535156 25.003906 455.535156 27.289062 L 440.652344 158.898438 "/>
<path style="fill:none;stroke-width:0.5;stroke-linecap:butt;stroke-linejoin:miter;stroke:rgb(100%,100%,100%);stroke-opacity:1;stroke-miterlimit:4;" d="M 85.980945 30.985957 C 85.980945 31.200762 85.896341 31.407187 85.743902 31.559531 C 85.592226 31.711875 85.385671 31.797187 85.170732 31.797187 L 8.570122 31.797187 C 8.122713 31.797187 7.759909 31.434609 7.759909 30.986719 L 12.009909 5.321367 C 12.009909 4.875762 12.371951 4.514707 12.820884 4.514707 L 88.074695 4.514707 C 88.523628 4.514707 88.884909 4.875762 88.884909 5.321367 L 85.980945 30.985195 Z M 85.980945 30.985957 " transform="matrix(5.125,0,0,5.128205,0,0)"/>
<path style=" stroke:none;fill-rule:nonzero;fill:rgb(1.176471%,41.176471%,59.607843%);fill-opacity:1;" d="M 493.753906 140.148438 C 493.753906 142.429688 491.90625 144.28125 489.601562 144.28125 L 435.203125 163.0625 C 434.101562 163.066406 433.042969 162.628906 432.261719 161.851562 C 431.480469 161.070312 431.042969 160.011719 431.042969 158.90625 L 445.929688 27.292969 C 445.929688 25.011719 447.785156 23.160156 450.085938 23.160156 L 489.828125 23.160156 C 492.128906 23.160156 493.976562 25.011719 493.976562 27.292969 L 493.753906 140.148438 "/>
<path style="fill:none;stroke-width:0.5;stroke-linecap:butt;stroke-linejoin:miter;stroke:rgb(100%,100%,100%);stroke-opacity:1;stroke-miterlimit:4;" d="M 96.342226 27.328945 C 96.342226 27.773789 95.981707 28.134844 95.532012 28.134844 L 84.917683 31.797187 C 84.702744 31.797949 84.496189 31.712637 84.34375 31.561055 C 84.191311 31.408711 84.105945 31.202285 84.105945 30.986719 L 87.010671 5.322129 C 87.010671 4.877285 87.372713 4.51623 87.821646 4.51623 L 95.57622 4.51623 C 96.025152 4.51623 96.385671 4.877285 96.385671 5.322129 Z M 96.342226 27.328945 " transform="matrix(5.125,0,0,5.128205,0,0)"/>
<path style=" stroke:none;fill-rule:nonzero;fill:rgb(1.176471%,41.176471%,59.607843%);fill-opacity:1;" d="M 402.691406 181.363281 L 267.539062 181.363281 L 305.671875 131.9375 L 433.5 131.9375 L 402.691406 181.363281 "/>
<path style="fill:none;stroke-width:0.5;stroke-linecap:butt;stroke-linejoin:miter;stroke:rgb(100%,100%,100%);stroke-opacity:1;stroke-miterlimit:4;" d="M 78.573933 35.36584 L 52.202744 35.36584 L 59.643293 25.727812 L 84.585366 25.727812 Z M 78.573933 35.36584 " transform="matrix(5.125,0,0,5.128205,0,0)"/>
<path style=" stroke:none;fill-rule:nonzero;fill:rgb(1.176471%,41.176471%,59.607843%);fill-opacity:1;" d="M 402.691406 197.390625 L 267.539062 197.390625 L 269.0625 182.019531 L 402.691406 182.019531 L 402.691406 197.390625 "/>
<path style="fill:none;stroke-width:0.5;stroke-linecap:butt;stroke-linejoin:miter;stroke:rgb(100%,100%,100%);stroke-opacity:1;stroke-miterlimit:4;" d="M 78.573933 38.491172 L 52.202744 38.491172 L 52.5 35.493809 L 78.573933 35.493809 Z M 78.573933 38.491172 " transform="matrix(5.125,0,0,5.128205,0,0)"/>
<path style=" stroke:none;fill-rule:nonzero;fill:rgb(1.176471%,41.176471%,59.607843%);fill-opacity:1;" d="M 434.324219 132.042969 L 434.324219 163.609375 L 401.851562 198.359375 L 401.851562 180.207031 L 434.328125 132.035156 "/>
<path style="fill:none;stroke-width:0.5;stroke-linecap:butt;stroke-linejoin:miter;stroke:rgb(100%,100%,100%);stroke-opacity:1;stroke-miterlimit:4;" d="M 84.746189 25.748379 L 84.746189 31.903828 L 78.410061 38.680078 L 78.410061 35.140371 L 84.746951 25.746855 Z M 84.746189 25.748379 " transform="matrix(5.125,0,0,5.128205,0,0)"/>
<path style="fill-rule:nonzero;fill:rgb(1.176471%,41.176471%,59.607843%);fill-opacity:1;stroke-width:0.5;stroke-linecap:butt;stroke-linejoin:miter;stroke:rgb(100%,100%,100%);stroke-opacity:1;stroke-miterlimit:4;" d="M 34.740854 4.913086 L 30.80564 31.702734 " transform="matrix(5.125,0,0,5.128205,0,0)"/>
<path style="fill-rule:nonzero;fill:rgb(1.176471%,41.176471%,59.607843%);fill-opacity:1;stroke-width:0.5;stroke-linecap:butt;stroke-linejoin:miter;stroke:rgb(100%,100%,100%);stroke-opacity:1;stroke-miterlimit:4;" d="M 62.099848 4.725703 L 59.375 25.995937 " transform="matrix(5.125,0,0,5.128205,0,0)"/>
<path style=" stroke:none;fill-rule:nonzero;fill:rgb(1.176471%,41.176471%,59.607843%);fill-opacity:1;" d="M 434.722656 72.839844 C 434.722656 81.691406 427.550781 88.867188 418.707031 88.867188 C 409.863281 88.867188 402.691406 81.691406 402.691406 72.839844 C 402.691406 63.992188 409.863281 56.816406 418.707031 56.816406 C 427.550781 56.816406 434.722656 63.992188 434.722656 72.839844 "/>
<path style="fill:none;stroke-width:0.5;stroke-linecap:butt;stroke-linejoin:miter;stroke:rgb(100%,100%,100%);stroke-opacity:1;stroke-miterlimit:4;" d="M 84.823933 14.20377 C 84.823933 15.929824 83.424543 17.329102 81.698933 17.329102 C 79.973323 17.329102 78.573933 15.929824 78.573933 14.20377 C 78.573933 12.478477 79.973323 11.079199 81.698933 11.079199 C 83.424543 11.079199 84.823933 12.478477 84.823933 14.20377 Z M 84.823933 14.20377 " transform="matrix(5.125,0,0,5.128205,0,0)"/>
<path style=" stroke:none;fill-rule:nonzero;fill:rgb(1.176471%,41.176471%,59.607843%);fill-opacity:1;" d="M 128.820312 53.609375 C 128.820312 62.460938 121.652344 69.636719 112.804688 69.636719 C 103.960938 69.636719 96.789062 62.460938 96.789062 53.609375 C 96.789062 44.757812 103.960938 37.585938 112.804688 37.585938 C 121.652344 37.585938 128.820312 44.757812 128.820312 53.609375 "/>
<path style="fill:none;stroke-width:0.5;stroke-linecap:butt;stroke-linejoin:miter;stroke:rgb(100%,100%,100%);stroke-opacity:1;stroke-miterlimit:4;" d="M 25.135671 10.453828 C 25.135671 12.179883 23.737043 13.57916 22.010671 13.57916 C 20.285061 13.57916 18.885671 12.179883 18.885671 10.453828 C 18.885671 8.727773 20.285061 7.329258 22.010671 7.329258 C 23.737043 7.329258 25.135671 8.727773 25.135671 10.453828 Z M 25.135671 10.453828 " transform="matrix(5.125,0,0,5.128205,0,0)"/>
<path style=" stroke:none;fill-rule:nonzero;fill:rgb(1.176471%,41.176471%,59.607843%);fill-opacity:1;" d="M 341.761719 157.851562 C 338.054688 165.210938 326.71875 170.722656 316.386719 170.125 C 306.070312 169.542969 300.695312 163.082031 304.375 155.699219 C 308.046875 148.339844 319.410156 142.824219 329.722656 143.429688 C 340.058594 144.003906 345.433594 150.464844 341.761719 157.851562 "/>
<path style="fill:none;stroke-width:0.5;stroke-linecap:butt;stroke-linejoin:miter;stroke:rgb(100%,100%,100%);stroke-opacity:1;stroke-miterlimit:4;" d="M 66.685213 30.781055 C 65.96189 32.216133 63.75 33.290918 61.733994 33.174375 C 59.721037 33.060879 58.672256 31.800996 59.390244 30.361348 C 60.106707 28.92627 62.323933 27.850723 64.336128 27.968789 C 66.352896 28.080762 67.401677 29.340645 66.685213 30.781055 Z M 66.685213 30.781055 " transform="matrix(5.125,0,0,5.128205,0,0)"/>
<path style=" stroke:none;fill-rule:nonzero;fill:rgb(1.176471%,41.176471%,59.607843%);fill-opacity:1;" d="M 229.496094 109.125 C 227.195312 123.59375 215.433594 126.902344 201.570312 126.980469 C 187.714844 127.050781 176.972656 123.847656 179.296875 109.394531 L 186.109375 66.832031 C 188.4375 52.359375 200.191406 49.050781 214.0625 48.984375 C 227.925781 48.902344 238.636719 52.113281 236.335938 66.554688 L 229.496094 109.117188 "/>
<path style="fill:none;stroke-width:0.5;stroke-linecap:butt;stroke-linejoin:miter;stroke:rgb(100%,100%,100%);stroke-opacity:1;stroke-miterlimit:4;" d="M 44.779726 21.279375 C 44.330793 24.100781 42.035823 24.745957 39.330793 24.761191 C 36.627287 24.774902 34.53125 24.150293 34.984756 21.331934 L 36.314024 13.032246 C 36.768293 10.210078 39.061738 9.564902 41.768293 9.551953 C 44.473323 9.535957 46.563262 10.16209 46.114329 12.978164 L 44.779726 21.277852 Z M 44.779726 21.279375 " transform="matrix(5.125,0,0,5.128205,0,0)"/>
<path style=" stroke:none;fill-rule:nonzero;fill:rgb(1.176471%,41.176471%,59.607843%);fill-opacity:1;" d="M 285.550781 109.125 C 283.253906 123.59375 271.492188 126.902344 257.628906 126.980469 C 243.765625 127.050781 233.027344 123.847656 235.351562 109.394531 L 242.167969 66.832031 C 244.488281 52.359375 256.25 49.050781 270.113281 48.984375 C 283.976562 48.902344 294.6875 52.113281 292.386719 66.554688 L 285.550781 109.117188 "/>
<path style="fill:none;stroke-width:0.5;stroke-linecap:butt;stroke-linejoin:miter;stroke:rgb(100%,100%,100%);stroke-opacity:1;stroke-miterlimit:4;" d="M 55.717226 21.279375 C 55.269055 24.100781 52.974085 24.745957 50.269055 24.761191 C 47.564024 24.774902 45.46875 24.150293 45.922256 21.331934 L 47.252287 13.032246 C 47.70503 10.210078 50 9.564902 52.70503 9.551953 C 55.410061 9.535957 57.5 10.16209 57.051067 12.978164 L 55.717226 21.277852 Z M 55.717226 21.279375 " transform="matrix(5.125,0,0,5.128205,0,0)"/>
<path style=" stroke:none;fill-rule:nonzero;fill:rgb(1.176471%,41.176471%,59.607843%);fill-opacity:1;" d="M 383.976562 106.570312 C 381.144531 118.867188 366.753906 121.667969 349.792969 121.75 C 332.828125 121.792969 319.6875 119.09375 322.542969 106.792969 L 328.09375 70.617188 C 330.945312 58.324219 345.332031 55.511719 362.308594 55.4375 C 379.269531 55.390625 392.40625 58.09375 389.554688 70.382812 L 383.976562 106.570312 "/>
<path style="fill:none;stroke-width:0.5;stroke-linecap:butt;stroke-linejoin:miter;stroke:rgb(100%,100%,100%);stroke-opacity:1;stroke-miterlimit:4;" d="M 74.922256 20.781211 C 74.369665 23.179102 71.561738 23.725254 68.252287 23.74125 C 64.942073 23.749629 62.378049 23.223281 62.935213 20.824629 L 64.018293 13.770352 C 64.574695 11.373223 67.38186 10.824785 70.69436 10.810312 C 74.003811 10.801172 76.567073 11.328281 76.010671 13.724648 Z M 74.922256 20.781211 " transform="matrix(5.125,0,0,5.128205,0,0)"/>
<path style=" stroke:none;fill-rule:nonzero;fill:rgb(1.176471%,41.176471%,59.607843%);fill-opacity:1;" d="M 150.96875 95.25 L 71.941406 95.25 L 74.09375 82.429688 L 153.09375 82.429688 L 150.96875 95.25 "/>
<path style="fill:none;stroke-width:0.5;stroke-linecap:butt;stroke-linejoin:miter;stroke:rgb(100%,100%,100%);stroke-opacity:1;stroke-miterlimit:4;" d="M 29.457317 18.57375 L 14.037348 18.57375 L 14.457317 16.073789 L 29.871951 16.073789 Z M 29.457317 18.57375 " transform="matrix(5.125,0,0,5.128205,0,0)"/>
<path style=" stroke:none;fill-rule:nonzero;fill:rgb(1.176471%,41.176471%,59.607843%);fill-opacity:1;" d="M 146.6875 114.480469 L 67.6875 114.480469 L 69.8125 101.660156 L 148.820312 101.660156 L 146.6875 114.480469 "/>
<path style="fill:none;stroke-width:0.5;stroke-linecap:butt;stroke-linejoin:miter;stroke:rgb(100%,100%,100%);stroke-opacity:1;stroke-miterlimit:4;" d="M 28.621951 22.323691 L 13.207317 22.323691 L 13.621951 19.82373 L 29.03811 19.82373 Z M 28.621951 22.323691 " transform="matrix(5.125,0,0,5.128205,0,0)"/>
<path style=" stroke:none;fill-rule:nonzero;fill:rgb(1.176471%,41.176471%,59.607843%);fill-opacity:1;" d="M 142.414062 133.710938 L 63.410156 133.710938 L 65.539062 120.890625 L 144.566406 120.890625 L 142.414062 133.710938 "/>
<path style="fill:none;stroke-width:0.5;stroke-linecap:butt;stroke-linejoin:miter;stroke:rgb(100%,100%,100%);stroke-opacity:1;stroke-miterlimit:4;" d="M 27.78811 26.073633 L 12.372713 26.073633 L 12.78811 23.573672 L 28.208079 23.573672 Z M 27.78811 26.073633 " transform="matrix(5.125,0,0,5.128205,0,0)"/>
<path style=" stroke:none;fill-rule:nonzero;fill:rgb(1.176471%,41.176471%,59.607843%);fill-opacity:1;" d="M 138.15625 152.945312 L 59.128906 152.945312 L 61.28125 140.125 L 140.28125 140.125 L 138.15625 152.945312 "/>
<path style="fill:none;stroke-width:0.5;stroke-linecap:butt;stroke-linejoin:miter;stroke:rgb(100%,100%,100%);stroke-opacity:1;stroke-miterlimit:4;" d="M 26.957317 29.824336 L 11.537348 29.824336 L 11.957317 27.324375 L 27.371951 27.324375 Z M 26.957317 29.824336 " transform="matrix(5.125,0,0,5.128205,0,0)"/>
<path style=" stroke:none;fill-rule:nonzero;fill:rgb(1.176471%,41.176471%,59.607843%);fill-opacity:1;" d="M 394.40625 170.046875 L 351.691406 170.046875 L 366.65625 148.6875 L 409.347656 148.6875 L 394.40625 170.046875 "/>
<path style="fill:none;stroke-width:0.5;stroke-linecap:butt;stroke-linejoin:miter;stroke:rgb(100%,100%,100%);stroke-opacity:1;stroke-miterlimit:4;" d="M 76.957317 33.159141 L 68.622713 33.159141 L 71.542683 28.994062 L 79.872713 28.994062 Z M 76.957317 33.159141 " transform="matrix(5.125,0,0,5.128205,0,0)"/>
<path style="fill-rule:nonzero;fill:rgb(1.176471%,41.176471%,59.607843%);fill-opacity:1;stroke-width:0.5;stroke-linecap:butt;stroke-linejoin:miter;stroke:rgb(100%,100%,100%);stroke-opacity:1;stroke-miterlimit:4;" d="M 23.159299 8.994375 C 29.409299 0.24375 41.489329 2.329336 41.489329 2.329336 " transform="matrix(5.125,0,0,5.128205,0,0)"/>
<path style=" stroke:none;fill-rule:nonzero;fill:rgb(1.176471%,41.176471%,59.607843%);fill-opacity:1;" d="M 227.597656 9.789062 C 227.597656 14.523438 220.886719 18.355469 212.632812 18.355469 C 204.371094 18.355469 197.691406 14.523438 197.691406 9.789062 C 197.691406 5.082031 204.371094 1.25 212.632812 1.25 C 220.886719 1.25 227.597656 5.082031 227.597656 9.789062 "/>
<path style="fill:none;stroke-width:0.5;stroke-linecap:butt;stroke-linejoin:miter;stroke:rgb(100%,100%,100%);stroke-opacity:1;stroke-miterlimit:4;" d="M 44.409299 1.908867 C 44.409299 2.83207 43.099848 3.579316 41.489329 3.579316 C 39.877287 3.579316 38.573933 2.83207 38.573933 1.908867 C 38.573933 0.990996 39.877287 0.24375 41.489329 0.24375 C 43.099848 0.24375 44.409299 0.990996 44.409299 1.908867 Z M 44.409299 1.908867 " transform="matrix(5.125,0,0,5.128205,0,0)"/>
<path style="fill:none;stroke-width:1;stroke-linecap:butt;stroke-linejoin:miter;stroke:rgb(1.176471%,41.176471%,59.607843%);stroke-opacity:1;stroke-miterlimit:4;" d="M 17.61814 14.829141 L 14.28811 31.078887 M 27.397866 14.829141 L 24.063262 31.078887 M 22.323933 14.829141 L 18.989329 31.078887 " transform="matrix(5.125,0,0,5.128205,0,0)"/>
<path style="fill-rule:nonzero;fill:rgb(1.176471%,41.176471%,59.607843%);fill-opacity:1;stroke-width:0.5;stroke-linecap:butt;stroke-linejoin:miter;stroke:rgb(100%,100%,100%);stroke-opacity:1;stroke-miterlimit:4;" d="M 1.039634 21.993105 L 1.997713 16.278691 " transform="matrix(5.125,0,0,5.128205,0,0)"/>
<path style=" stroke:none;fill-rule:nonzero;fill:rgb(1.176471%,41.176471%,59.607843%);fill-opacity:1;" d="M 45.472656 70.914062 C 42.089844 81.230469 37.632812 93.277344 36.4375 104.890625 L 40.085938 112.40625 L 35.410156 146.507812 L 24 124.496094 C 20.617188 107.769531 37.683594 41.667969 44.695312 33.78125 L 56.101562 55.789062 L 48.898438 77.921875 L 45.472656 70.914062 "/>
<path style="fill:none;stroke-width:0.5;stroke-linecap:butt;stroke-linejoin:miter;stroke:rgb(100%,100%,100%);stroke-opacity:1;stroke-miterlimit:4;" d="M 8.872713 13.828242 C 8.212652 15.839941 7.342988 18.189082 7.109756 20.453672 L 7.821646 21.919219 L 6.909299 28.569023 L 4.682927 24.276738 C 4.022866 21.015059 7.352896 8.125254 8.721037 6.587344 L 10.946646 10.878867 L 9.541159 15.194766 Z M 8.872713 13.828242 " transform="matrix(5.125,0,0,5.128205,0,0)"/>
<path style=" stroke:none;fill-rule:nonzero;fill:rgb(1.176471%,41.176471%,59.607843%);fill-opacity:1;" d="M 1.746094 124.800781 L 8.785156 146.863281 L 35.410156 146.503906 L 24 124.503906 L 1.746094 124.800781 "/>
<path style="fill:none;stroke-width:0.5;stroke-linecap:butt;stroke-linejoin:miter;stroke:rgb(100%,100%,100%);stroke-opacity:1;stroke-miterlimit:4;" d="M 0.340701 24.336152 L 1.714177 28.63834 L 6.909299 28.568262 L 4.682927 24.278262 Z M 0.340701 24.336152 " transform="matrix(5.125,0,0,5.128205,0,0)"/>
<path style=" stroke:none;fill-rule:nonzero;fill:rgb(1.176471%,41.176471%,59.607843%);fill-opacity:1;" d="M 44.695312 33.78125 C 37.6875 41.667969 20.621094 107.769531 24 124.496094 L 1.746094 124.804688 C -1.648438 108.066406 15.410156 41.964844 22.421875 34.070312 L 44.695312 33.773438 "/>
<path style="fill:none;stroke-width:0.5;stroke-linecap:butt;stroke-linejoin:miter;stroke:rgb(100%,100%,100%);stroke-opacity:1;stroke-miterlimit:4;" d="M 8.721037 6.587344 C 7.353659 8.125254 4.023628 21.015059 4.682927 24.276738 L 0.340701 24.336914 C -0.321646 21.072949 3.00686 8.183145 4.375 6.643711 L 8.721037 6.58582 Z M 8.721037 6.587344 " transform="matrix(5.125,0,0,5.128205,0,0)"/>
</g>
</svg>
