<?xml version="1.0" encoding="UTF-8"?>
<svg xmlns="http://www.w3.org/2000/svg" xmlns:xlink="http://www.w3.org/1999/xlink" width="194pt" height="200pt" viewBox="0 0 194 200" version="1.1">
<defs>
<clipPath id="clip1">
  <path d="M 152 111 L 194 111 L 194 191.648438 L 152 191.648438 Z M 152 111 "/>
</clipPath>
<clipPath id="clip2">
  <path d="M 0 144 L 51 144 L 51 191.648438 L 0 191.648438 Z M 0 144 "/>
</clipPath>
<clipPath id="clip3">
  <path d="M 124 144 L 180 144 L 180 191.648438 L 124 191.648438 Z M 124 144 "/>
</clipPath>
<clipPath id="clip4">
  <path d="M 42 152 L 87 152 L 87 191.648438 L 42 191.648438 Z M 42 152 "/>
</clipPath>
<clipPath id="clip5">
  <path d="M 62 152 L 107 152 L 107 191.648438 L 62 191.648438 Z M 62 152 "/>
</clipPath>
<clipPath id="clip6">
  <path d="M 82 152 L 128 152 L 128 191.648438 L 82 191.648438 Z M 82 152 "/>
</clipPath>
</defs>
<g id="surface1">
<path style=" stroke:none;fill-rule:nonzero;fill:rgb(1.176471%,41.176471%,59.607843%);fill-opacity:1;" d="M 197.328125 127.628906 L 177.359375 156.121094 L 4.058594 156.121094 L 32.65625 127.628906 L 197.328125 127.628906 "/>
<path style="fill:none;stroke-width:4;stroke-linecap:butt;stroke-linejoin:miter;stroke:rgb(100%,100%,100%);stroke-opacity:1;stroke-miterlimit:4;" d="M 258.200957 92.716046 L 232.07214 55.457031 L 5.31061 55.457031 L 42.730224 92.716046 Z M 258.200957 92.716046 " transform="matrix(0.764242,0,0,-0.764706,0,198.529412)"/>
<path style="fill-rule:nonzero;fill:rgb(1.176471%,41.176471%,59.607843%);fill-opacity:1;stroke-width:4;stroke-linecap:butt;stroke-linejoin:miter;stroke:rgb(100%,100%,100%);stroke-opacity:1;stroke-miterlimit:4;" d="M 5.31061 14.908353 L 221.788263 14.908353 L 221.788263 55.457031 L 5.31061 55.457031 Z M 5.31061 14.908353 " transform="matrix(0.764242,0,0,-0.764706,0,198.529412)"/>
<path style="fill-rule:nonzero;fill:rgb(1.176471%,41.176471%,59.607843%);fill-opacity:1;stroke-width:4;stroke-linecap:butt;stroke-linejoin:miter;stroke:rgb(100%,100%,100%);stroke-opacity:1;stroke-miterlimit:4;" d="M 5.31061 64.396334 L 220.351996 64.396334 L 220.351996 227.055889 L 5.31061 227.055889 Z M 5.31061 64.396334 " transform="matrix(0.764242,0,0,-0.764706,0,198.529412)"/>
<path style=" stroke:none;fill-rule:nonzero;fill:rgb(1.176471%,41.176471%,59.607843%);fill-opacity:1;" d="M 168.402344 149.285156 L 196.523438 121.144531 L 196.523438 -3.242188 L 168.402344 24.898438 L 168.402344 149.285156 "/>
<path style="fill:none;stroke-width:4;stroke-linecap:butt;stroke-linejoin:miter;stroke:rgb(100%,100%,100%);stroke-opacity:1;stroke-miterlimit:4;" d="M 220.351996 64.396334 L 257.148035 101.195613 L 257.148035 263.855168 L 220.351996 227.055889 Z M 220.351996 64.396334 " transform="matrix(0.764242,0,0,-0.764706,0,198.529412)"/>
<path style=" stroke:none;fill-rule:nonzero;fill:rgb(1.176471%,41.176471%,59.607843%);fill-opacity:1;" d="M 169.359375 187.195312 L 169.359375 156.121094 L 197.328125 128.316406 L 197.328125 159.226562 L 169.359375 187.195312 "/>
<g clip-path="url(#clip1)" clip-rule="nonzero">
<path style="fill:none;stroke-width:4;stroke-linecap:butt;stroke-linejoin:miter;stroke:rgb(100%,100%,100%);stroke-opacity:1;stroke-miterlimit:4;" d="M 221.604258 14.821514 L 221.604258 55.457031 L 258.200957 91.817007 L 258.200957 51.396034 Z M 221.604258 14.821514 " transform="matrix(0.764242,0,0,-0.764706,0,198.529412)"/>
</g>
<path style=" stroke:none;fill-rule:nonzero;fill:rgb(100%,100%,100%);fill-opacity:1;" d="M 30.867188 39.238281 L 141.054688 39.238281 C 148.222656 39.238281 154.039062 45.03125 154.039062 52.230469 L 154.039062 121.894531 C 154.039062 129.058594 148.222656 134.855469 141.054688 134.855469 L 30.867188 134.855469 C 23.675781 134.855469 17.851562 129.058594 17.851562 121.894531 L 17.851562 52.230469 C 17.851562 45.03125 23.675781 39.238281 30.867188 39.238281 "/>
<path style="fill:none;stroke-width:4;stroke-linecap:butt;stroke-linejoin:miter;stroke:rgb(100%,100%,100%);stroke-opacity:1;stroke-miterlimit:4;" d="M 40.389262 208.303786 L 184.567989 208.303786 C 193.947171 208.303786 201.557853 200.728365 201.557853 191.314002 L 201.557853 100.214844 C 201.557853 90.846454 193.947171 83.265925 184.567989 83.265925 L 40.389262 83.265925 C 30.979412 83.265925 23.358508 90.846454 23.358508 100.214844 L 23.358508 191.314002 C 23.358508 200.728365 30.979412 208.303786 40.389262 208.303786 Z M 40.389262 208.303786 " transform="matrix(0.764242,0,0,-0.764706,0,198.529412)"/>
<path style=" stroke:none;fill-rule:nonzero;fill:rgb(1.176471%,41.176471%,59.607843%);fill-opacity:1;" d="M 196.523438 -3.242188 L 36.125 -3.242188 L 4.058594 24.898438 L 168.402344 24.898438 L 196.523438 -3.242188 "/>
<path style="fill:none;stroke-width:4;stroke-linecap:butt;stroke-linejoin:miter;stroke:rgb(100%,100%,100%);stroke-opacity:1;stroke-miterlimit:4;" d="M 257.148035 263.855168 L 47.269033 263.855168 L 5.31061 227.055889 L 220.351996 227.055889 Z M 257.148035 263.855168 " transform="matrix(0.764242,0,0,-0.764706,0,198.529412)"/>
<path style=" stroke:none;fill-rule:nonzero;fill:rgb(1.176471%,41.176471%,59.607843%);fill-opacity:1;" d="M 32.75 172.011719 C 32.75 177.390625 28.390625 181.757812 23.019531 181.757812 C 17.617188 181.757812 13.28125 177.390625 13.28125 172.011719 C 13.28125 166.605469 17.617188 162.246094 23.019531 162.246094 C 28.390625 162.246094 32.75 166.605469 32.75 172.011719 "/>
<g clip-path="url(#clip2)" clip-rule="nonzero">
<path style="fill:none;stroke-width:4;stroke-linecap:butt;stroke-linejoin:miter;stroke:rgb(100%,100%,100%);stroke-opacity:1;stroke-miterlimit:4;" d="M 42.852895 34.676983 C 42.852895 27.643029 37.148716 21.932091 30.120719 21.932091 C 23.051831 21.932091 17.378321 27.643029 17.378321 34.676983 C 17.378321 41.746695 23.051831 47.447416 30.120719 47.447416 C 37.148716 47.447416 42.852895 41.746695 42.852895 34.676983 Z M 42.852895 34.676983 " transform="matrix(0.764242,0,0,-0.764706,0,198.529412)"/>
</g>
<path style=" stroke:none;fill-rule:nonzero;fill:rgb(1.176471%,41.176471%,59.607843%);fill-opacity:1;" d="M 161.773438 172.011719 C 161.773438 177.390625 157.390625 181.757812 152.015625 181.757812 C 146.640625 181.757812 142.246094 177.390625 142.246094 172.011719 C 142.246094 166.605469 146.640625 162.246094 152.015625 162.246094 C 157.390625 162.246094 161.773438 166.605469 161.773438 172.011719 "/>
<g clip-path="url(#clip3)" clip-rule="nonzero">
<path style="fill:none;stroke-width:4;stroke-linecap:butt;stroke-linejoin:miter;stroke:rgb(100%,100%,100%);stroke-opacity:1;stroke-miterlimit:4;" d="M 211.67817 34.676983 C 211.67817 27.643029 205.943324 21.932091 198.910215 21.932091 C 191.877106 21.932091 186.126927 27.643029 186.126927 34.676983 C 186.126927 41.746695 191.877106 47.447416 198.910215 47.447416 C 205.943324 47.447416 211.67817 41.746695 211.67817 34.676983 Z M 211.67817 34.676983 " transform="matrix(0.764242,0,0,-0.764706,0,198.529412)"/>
</g>
<path style=" stroke:none;fill-rule:nonzero;fill:rgb(1.176471%,41.176471%,59.607843%);fill-opacity:1;" d="M 69.585938 174.519531 C 69.585938 177.304688 67.320312 179.578125 64.539062 179.578125 C 61.765625 179.578125 59.527344 177.304688 59.527344 174.519531 C 59.523438 173.191406 60.050781 171.914062 60.992188 170.972656 C 61.933594 170.03125 63.210938 169.503906 64.539062 169.503906 C 67.320312 169.503906 69.585938 171.746094 69.585938 174.523438 "/>
<g clip-path="url(#clip4)" clip-rule="nonzero">
<path style="fill:none;stroke-width:4;stroke-linecap:butt;stroke-linejoin:miter;stroke:rgb(100%,100%,100%);stroke-opacity:1;stroke-miterlimit:4;" d="M 91.052178 31.397536 C 91.052178 27.755409 88.087641 24.782452 84.448416 24.782452 C 80.819414 24.782452 77.890656 27.755409 77.890656 31.397536 C 77.885545 33.134315 78.575566 34.804688 79.807383 36.035757 C 81.039199 37.266827 82.710584 37.95643 84.448416 37.95643 C 88.087641 37.95643 91.052178 35.024339 91.052178 31.392428 Z M 91.052178 31.397536 " transform="matrix(0.764242,0,0,-0.764706,0,198.529412)"/>
</g>
<path style=" stroke:none;fill-rule:nonzero;fill:rgb(1.176471%,41.176471%,59.607843%);fill-opacity:1;" d="M 89.707031 174.519531 C 89.707031 177.304688 87.464844 179.578125 84.664062 179.578125 C 81.886719 179.578125 79.648438 177.304688 79.648438 174.519531 C 79.648438 173.191406 80.175781 171.914062 81.117188 170.972656 C 82.054688 170.03125 83.332031 169.5 84.664062 169.503906 C 87.464844 169.503906 89.707031 171.746094 89.707031 174.523438 "/>
<g clip-path="url(#clip5)" clip-rule="nonzero">
<path style="fill:none;stroke-width:4;stroke-linecap:butt;stroke-linejoin:miter;stroke:rgb(100%,100%,100%);stroke-opacity:1;stroke-miterlimit:4;" d="M 117.380334 31.397536 C 117.380334 27.755409 114.446465 24.782452 110.781684 24.782452 C 107.14757 24.782452 104.218812 27.755409 104.218812 31.397536 C 104.218812 33.134315 104.908834 34.804688 106.14065 36.035757 C 107.367355 37.266827 109.03874 37.961538 110.781684 37.95643 C 114.446465 37.95643 117.380334 35.024339 117.380334 31.392428 Z M 117.380334 31.397536 " transform="matrix(0.764242,0,0,-0.764706,0,198.529412)"/>
</g>
<path style=" stroke:none;fill-rule:nonzero;fill:rgb(1.176471%,41.176471%,59.607843%);fill-opacity:1;" d="M 109.859375 174.519531 C 109.859375 177.304688 107.589844 179.578125 104.8125 179.578125 C 102.042969 179.578125 99.773438 177.304688 99.773438 174.519531 C 99.773438 171.746094 102.042969 169.503906 104.8125 169.503906 C 107.589844 169.503906 109.859375 171.746094 109.859375 174.523438 "/>
<g clip-path="url(#clip6)" clip-rule="nonzero">
<path style="fill:none;stroke-width:4;stroke-linecap:butt;stroke-linejoin:miter;stroke:rgb(100%,100%,100%);stroke-opacity:1;stroke-miterlimit:4;" d="M 143.74938 31.397536 C 143.74938 27.755409 140.779732 24.782452 137.145619 24.782452 C 133.521728 24.782452 130.552079 27.755409 130.552079 31.397536 C 130.552079 35.024339 133.521728 37.95643 137.145619 37.95643 C 140.779732 37.95643 143.74938 35.024339 143.74938 31.392428 Z M 143.74938 31.397536 " transform="matrix(0.764242,0,0,-0.764706,0,198.529412)"/>
</g>
<path style=" stroke:none;fill-rule:nonzero;fill:rgb(98.431373%,98.431373%,98.431373%);fill-opacity:1;" d="M 53.855469 55.339844 L 68.546875 42.3125 L 79.441406 47.367188 L 78.183594 59.105469 L 81.949219 67.492188 L 77.769531 78.851562 L 77.472656 81.390625 C 76.628906 84.347656 73.679688 83.0625 73.679688 83.0625 L 68.546875 103.1875 L 54.6875 85.121094 L 53.023438 77.144531 L 47.136719 60.359375 "/>
<path style=" stroke:none;fill-rule:nonzero;fill:rgb(1.176471%,41.176471%,59.607843%);fill-opacity:1;" d="M 60.277344 52.050781 C 60.964844 52.886719 61.230469 54.027344 61.316406 54.796875 C 61.703125 58.414062 60.390625 62.085938 59.105469 65.46875 C 58.753906 66.332031 58.808594 68.632812 57.792969 67.945312 C 56.597656 67.164062 55.585938 65.375 54.300781 64.921875 C 52.71875 64.390625 51.050781 66.003906 49.46875 66.894531 C 52.390625 70.8125 55.972656 74.839844 54.421875 79.949219 C 50.722656 74.457031 46.808594 69.050781 44.066406 63.105469 C 42.566406 59.875 43.140625 55.160156 45.105469 52.496094 C 48.125 48.375 52.695312 44.878906 57.710938 43.597656 C 64.484375 41.867188 71.257812 40.460938 78.210938 40.375 C 71.917969 43.542969 65.976562 46.585938 59.886719 50.832031 C 59.558594 51.066406 59.976562 51.664062 60.277344 52.050781 "/>
<path style=" stroke:none;fill-rule:nonzero;fill:rgb(1.176471%,41.176471%,59.607843%);fill-opacity:1;" d="M 84.125 52.558594 C 82.515625 55.640625 81.023438 58.652344 79.113281 61.523438 C 79.230469 61.078125 79.019531 60.746094 78.664062 60.65625 C 77.769531 60.503906 76.601562 60.925781 76.125 60.445312 C 75.707031 60 75.707031 58.5625 76.125 58.058594 C 76.660156 57.492188 78.304688 58.355469 78.425781 58.207031 C 81.5 53.246094 75.796875 49.21875 73.734375 44.878906 C 78.304688 44.796875 81.980469 47.808594 86.304688 48.46875 C 85.414062 49.753906 84.847656 51.160156 84.125 52.558594 M 66.992188 61.101562 C 66.246094 60.984375 65.054688 61.191406 64.992188 60.984375 C 63.675781 56.621094 69.675781 58.683594 72.398438 57.457031 C 71.738281 60.328125 70.066406 61.671875 66.992188 61.101562 M 75.375 69.855469 L 72.210938 69.855469 C 73.464844 68.777344 74.78125 67.820312 76.273438 67.164062 C 76.125 68.089844 76.394531 68.992188 76.722656 69.855469 L 75.375 69.855469 M 74.484375 75.234375 L 68.21875 75.234375 C 68.957031 74.511719 70.128906 74.246094 70.929688 74.152344 C 72.929688 73.949219 75.5625 72.515625 77.171875 75.234375 L 74.484375 75.234375 M 73.980469 77.144531 C 75.5 77.800781 73.351562 77.800781 73.589844 78.398438 C 72.425781 78.664062 72.039062 77.566406 71.320312 77.019531 C 72.210938 77.019531 73.230469 76.816406 73.980469 77.144531 M 105.980469 120.847656 C 106.007812 117.949219 106.695312 114.933594 107.386719 111.855469 C 108.007812 109.222656 109.140625 106.207031 108.25 104.503906 C 107.054688 102.148438 103.890625 100.175781 101.054688 99.066406 C 93.054688 95.992188 85.199219 93.15625 77.4375 89.601562 L 76.21875 90.050781 L 77.554688 109.828125 L 70.84375 131.421875 M 70.84375 132.285156 L 56.457031 112.039062 L 49.675781 90.734375 C 48.414062 91.585938 47.082031 92.332031 45.703125 92.972656 C 35.910156 97.453125 27.855469 98.832031 18.6875 104.625 C 18.746094 123.5625 26.925781 116.242188 25.851562 135.089844 "/>
<path style=" stroke:none;fill-rule:nonzero;fill:rgb(60.392157%,76.470588%,83.921569%);fill-opacity:1;" d="M 69.257812 134.226562 L 77.554688 109.828125 L 76.21875 90.050781 L 73.5 87.359375 L 69.019531 95.664062 L 54.421875 83.988281 C 54.421875 86.910156 49.644531 89.753906 49.644531 89.753906 L 56.457031 111.164062 L 70.84375 131.421875 "/>
<path style=" stroke:none;fill-rule:nonzero;fill:rgb(1.176471%,41.176471%,59.607843%);fill-opacity:1;" d="M 64.332031 131.179688 L 67.433594 101.308594 L 65.679688 99.039062 L 67.433594 96.140625 L 69.257812 97.246094 L 70.363281 95.902344 L 72.183594 98.378906 L 69.914062 101.523438 L 73.320312 127.742188 M 91.316406 101.757812 C 89.921875 100.269531 87.261719 100.238281 87.289062 97.730469 C 88.84375 97.730469 90.425781 97.84375 91.769531 96.828125 C 89.113281 95.839844 87.796875 93.453125 87.53125 90.976562 C 87.496094 90.648438 88.125 89.332031 88.605469 89.394531 C 89.675781 89.480469 89.738281 91.335938 90.90625 91.871094 C 91.289062 92.046875 91.648438 91.78125 91.738281 91.421875 C 92.066406 90.019531 91.558594 88.738281 91.316406 87.390625 C 92.816406 87.863281 95.5 88.4375 95.46875 86.9375 C 95.4375 84.730469 92.367188 82.28125 94.277344 80.492188 C 94.8125 79.949219 96.988281 82.734375 97.203125 81.058594 C 97.382812 79.445312 95.054688 77.566406 95.203125 75.738281 C 95.324219 74.457031 97.800781 74.128906 98.273438 72.898438 C 99.082031 70.875 97.410156 68.273438 98.003906 66.359375 C 99.710938 60.746094 103.019531 55.785156 105.710938 50.53125 C 112.601562 50.316406 115.199219 43.566406 126.335938 49.453125 C 126.632812 49.628906 125.238281 49.394531 125.535156 50.050781 C 125.679688 50.410156 126.039062 50.859375 126.367188 50.882812 C 128.21875 51.035156 130.34375 50.707031 131.113281 52.414062 C 131.679688 53.667969 129.828125 55.160156 130.21875 56.296875 C 130.816406 57.996094 134.164062 57.222656 134.523438 58.714844 C 135.230469 61.609375 131.863281 64.449219 132.304688 67.082031 C 132.550781 68.542969 135.859375 69.167969 136.878906 70.933594 C 138.039062 72.929688 136.546875 75.828125 138.488281 77.953125 C 139.269531 77.019531 140.195312 76.339844 141.210938 75.714844 C 141.476562 77.472656 142.1875 79.085938 142.996094 80.640625 C 144.128906 79.117188 145.503906 77.738281 146.582031 76.160156 C 147.652344 77.050781 147.175781 78.726562 146.816406 79.054688 C 144.90625 80.90625 143.058594 83.332031 140.371094 84.042969 C 140.007812 84.132812 139.804688 84.371094 139.648438 84.699219 L 136.484375 82.910156 C 136.105469 83.6875 138.726562 84.820312 137.59375 85.148438 L 138.039062 86.9375 C 139.679688 88.703125 141.589844 87.511719 143.449219 86.9375 C 144.371094 90.082031 140.160156 90.496094 139.742188 92.859375 C 139.535156 94.050781 141.777344 93.722656 142.996094 93.21875 C 142.578125 95.457031 140.664062 96.589844 139.414062 98.175781 "/>
<path style=" stroke:none;fill-rule:nonzero;fill:rgb(1.176471%,41.176471%,59.607843%);fill-opacity:1;" d="M 71.410156 134.679688 C 73.40625 124.84375 72.273438 118.546875 73.351562 108.988281 C 78.960938 105.550781 85.082031 103.339844 91.316406 101.339844 L 118.960938 95.277344 L 139.414062 97.753906 C 143.625 99.191406 148.195312 99.007812 152.425781 100.445312 C 156.136719 110.394531 145.804688 121.863281 149.476562 131.894531 L 146.664062 134.46875 "/>
<path style=" stroke:none;fill-rule:nonzero;fill:rgb(100%,100%,100%);fill-opacity:1;" d="M 128.1875 108.449219 C 127.886719 108.328125 127.710938 107.9375 127.261719 108.0625 C 127.261719 107.464844 127.054688 106.683594 127.382812 106.386719 C 127.683594 106.054688 128.460938 106.269531 129.058594 106.269531 C 128.9375 106.714844 129.203125 106.957031 129.53125 107.164062 C 130.519531 104.03125 129.621094 100.835938 129.171875 97.78125 C 129.027344 96.589844 126.457031 96.648438 125.742188 95.726562 C 124.339844 93.90625 123.5625 87.390625 125.414062 87.511719 C 130.21875 87.863281 130.457031 78.519531 131.863281 73.257812 C 132.429688 71.140625 131.328125 70.390625 130.394531 68.066406 C 129.769531 68.335938 130.128906 69.167969 129.890625 69.292969 C 128.875 69.796875 127.324219 70.453125 126.519531 69.703125 C 126.070312 69.257812 126.070312 67.738281 126.519531 67.316406 C 127.324219 66.628906 130.847656 66.0625 130.785156 66.15625 C 131.65625 63.699219 130.25 61.726562 128.609375 59.515625 C 127.804688 60.769531 126.960938 61.101562 125.472656 60.863281 C 126.429688 60.0625 126.367188 57.398438 125.238281 58.058594 C 123.328125 59.1875 123.5625 62.660156 120.519531 62.660156 C 120.605469 61.375 120.605469 60.089844 119.621094 59.074219 C 118.664062 60.503906 117.5625 62.085938 116.074219 61.910156 C 115.085938 61.789062 115.414062 58.890625 114.007812 60.203125 C 112.367188 61.703125 115.234375 63.761719 114.605469 65.796875 C 113.410156 69.824219 113.445312 73.742188 111.207031 77.566406 C 110.875 78.128906 110.90625 79.085938 111.207031 79.714844 C 111.648438 80.699219 112.574219 81.390625 113.804688 81.089844 C 113.742188 82.851562 111.863281 81.859375 111.171875 82.941406 C 110.96875 83.269531 110.96875 83.867188 111.171875 84.195312 C 112.007812 85.65625 113.621094 85.746094 115.140625 85.601562 C 114.730469 88.316406 111.648438 88.703125 109.738281 87.390625 C 109.296875 90.164062 110.753906 92.5625 113.351562 93.21875 C 112.128906 94.914062 110.21875 93.515625 109.027344 94.378906 C 107.5 95.488281 109.410156 97.730469 108.84375 99.519531 C 108.546875 98.890625 107.773438 98.953125 107.621094 99.160156 C 106.273438 101.101562 107.980469 103.703125 108.398438 105.820312 C 108.699219 105.191406 109.296875 105.285156 109.738281 105.429688 C 110.546875 105.699219 110.097656 106.570312 110.1875 107.164062 C 109.738281 107.164062 109.261719 107.042969 108.875 107.226562 C 107.589844 107.824219 109.324219 108.660156 108.84375 109.40625 C 113.117188 111.855469 117.953125 113.292969 122.730469 112.664062 C 123.984375 112.511719 125.59375 111.761719 126.820312 110.78125 C 125.679688 109.910156 123.355469 110.660156 124.1875 108.542969 C 124.582031 107.609375 125.742188 107.9375 126.304688 108.214844 C 126.996094 108.542969 126.222656 109.582031 126.398438 110.300781 C 126.519531 110.660156 126.878906 110.988281 127.230469 110.722656 C 128.433594 109.878906 129.769531 109.28125 130.28125 108 C 130.371094 107.886719 129.800781 107.289062 129.5 107.257812 C 128.875 107.226562 129.171875 108.839844 128.1875 108.449219 "/>
<path style=" stroke:none;fill-rule:nonzero;fill:rgb(1.176471%,41.176471%,59.607843%);fill-opacity:1;" d="M 122.753906 69.703125 C 122.546875 70.0625 122.15625 70.542969 121.886719 70.511719 C 119.945312 70.246094 117.984375 70.390625 116.9375 68.394531 C 119.351562 67.644531 121.828125 66.628906 123.984375 68.148438 C 124.546875 68.570312 123.113281 69.023438 122.753906 69.703125 M 128.8125 76.066406 C 128.308594 77.472656 126.574219 76.25 125.238281 76.609375 C 126.070312 75.203125 126.726562 74.636719 128.402344 74.367188 C 128.402344 75.140625 128.964844 75.683594 128.8125 76.066406 "/>
<path style=" stroke:none;fill-rule:nonzero;fill:rgb(0%,0%,0%);fill-opacity:1;" d="M 127.148438 80.460938 C 125.648438 80.640625 124.160156 81.058594 122.636719 80.578125 C 124.96875 79.144531 127.683594 79.835938 130.15625 79.207031 C 129.863281 79.445312 129.652344 79.714844 129.800781 80.132812 C 128.9375 80.246094 128.039062 80.371094 127.148438 80.460938 M 122.730469 111.554688 C 121.804688 112.152344 120.132812 111.226562 120.605469 109.878906 C 120.84375 109.253906 121.5 108.660156 122.308594 109.015625 C 123.292969 109.46875 123.769531 110.898438 122.730469 111.554688 M 118.726562 111.226562 C 118.128906 111.464844 117.984375 110.507812 117.378906 110.78125 C 117.472656 110.148438 117.023438 109.253906 117.859375 109.046875 C 118.429688 108.894531 119.289062 108.625 119.589844 109.4375 C 119.863281 110.179688 119.535156 110.835938 118.726562 111.226562 M 115.140625 110.273438 C 114.636719 110.359375 113.980469 110.539062 113.855469 109.851562 C 113.773438 109.253906 113.445312 108.390625 114.277344 108.152344 C 115.46875 107.792969 116.515625 108.71875 115.984375 109.828125 C 115.859375 110.066406 115.46875 110.238281 115.140625 110.273438 M 112.398438 108.449219 C 112.007812 108.625 111.347656 108.71875 111.113281 108.0625 C 110.691406 106.808594 112.222656 106.300781 112.785156 106.835938 C 113.148438 107.136719 112.996094 108.152344 112.398438 108.449219 "/>
<path style=" stroke:none;fill-rule:nonzero;fill:rgb(1.176471%,41.176471%,59.607843%);fill-opacity:1;" d="M 126.902344 82.375 C 126.007812 82.40625 125.296875 82.128906 124.582031 81.683594 C 126.070312 81.503906 127.558594 81.324219 129.058594 81.148438 C 128.574219 81.984375 127.886719 82.3125 126.902344 82.375 M 27.734375 134.886719 L 146.664062 134.886719 L 146.664062 128.285156 L 27.734375 128.285156 Z M 27.734375 134.886719 "/>
</g>
</svg>
