<?xml version="1.0" encoding="UTF-8"?>
<svg xmlns="http://www.w3.org/2000/svg" xmlns:xlink="http://www.w3.org/1999/xlink" width="406pt" height="200pt" viewBox="0 0 406 200" version="1.1">
<g id="surface1">
<path style=" stroke:none;fill-rule:nonzero;fill:rgb(0.784314%,42.352941%,60.784314%);fill-opacity:1;" d="M 4.710938 100.746094 L 124.730469 3.546875 L 401.878906 3.546875 L 302.53125 100.746094 L 4.710938 100.746094 "/>
<path style="fill:none;stroke-width:0.5;stroke-linecap:butt;stroke-linejoin:miter;stroke:rgb(100%,100%,100%);stroke-opacity:1;stroke-miterlimit:4;" d="M 0.707801 15.111914 L 18.740292 0.532031 L 60.380821 0.532031 L 45.454203 15.111914 Z M 0.707801 15.111914 " transform="matrix(6.655738,0,0,6.666667,0,0)"/>
<path style=" stroke:none;fill-rule:nonzero;fill:rgb(0.784314%,42.352941%,60.784314%);fill-opacity:1;" d="M 302.53125 197.398438 L 401.875 89.972656 L 401.875 3.707031 L 302.53125 100.746094 L 302.53125 197.398438 "/>
<path style="fill:none;stroke-width:0.5;stroke-linecap:butt;stroke-linejoin:miter;stroke:rgb(100%,100%,100%);stroke-opacity:1;stroke-miterlimit:4;" d="M 45.454203 29.609766 L 60.380234 13.495898 L 60.380234 0.556055 L 45.454203 15.111914 Z M 45.454203 29.609766 " transform="matrix(6.655738,0,0,6.666667,0,0)"/>
<path style="fill-rule:nonzero;fill:rgb(0.784314%,42.352941%,60.784314%);fill-opacity:1;stroke-width:0.5;stroke-linecap:butt;stroke-linejoin:miter;stroke:rgb(100%,100%,100%);stroke-opacity:1;stroke-miterlimit:4;" d="M 0.765904 29.623828 L 45.454203 29.623828 L 45.454203 15.111914 L 0.765904 15.111914 Z M 0.765904 29.623828 " transform="matrix(6.655738,0,0,6.666667,0,0)"/>
<path style=" stroke:none;fill-rule:nonzero;fill:rgb(100%,100%,100%);fill-opacity:1;" d="M 181.894531 140.234375 L 181.863281 118.066406 L 130.1875 147.367188 L 181.863281 176.660156 L 181.894531 154.425781 L 181.894531 140.234375 "/>
<path style="fill:none;stroke-width:0.497875;stroke-linecap:butt;stroke-linejoin:miter;stroke:rgb(100%,100%,100%);stroke-opacity:1;stroke-miterlimit:4;" d="M 27.328981 21.035156 L 27.324286 17.709961 L 19.560191 22.105078 L 27.324286 26.499023 L 27.328981 23.163867 Z M 27.328981 21.035156 " transform="matrix(6.655738,0,0,6.666667,0,0)"/>
<path style=" stroke:none;fill-rule:nonzero;fill:rgb(100%,100%,100%);fill-opacity:1;" d="M 170.847656 44.601562 L 187.21875 29.066406 L 114.945312 53.160156 L 143.902344 70.085938 L 160.34375 54.527344 "/>
<path style=" stroke:none;fill-rule:nonzero;fill:rgb(100%,100%,100%);fill-opacity:1;" d="M 250.988281 54.492188 L 149.203125 54.527344 L 159.699219 44.566406 L 261.492188 44.535156 L 277.898438 29 L 306.847656 49.507812 L 234.566406 70.011719 L 250.988281 54.492188 "/>
</g>
</svg>
