<?xml version="1.0" encoding="UTF-8"?>
<svg xmlns="http://www.w3.org/2000/svg" xmlns:xlink="http://www.w3.org/1999/xlink" width="188pt" height="200pt" viewBox="0 0 188 200" version="1.1">
<g id="surface1">
<path style=" stroke:none;fill-rule:nonzero;fill:rgb(0.784314%,42.352941%,60.784314%);fill-opacity:1;" d="M 153.058594 191.0625 L 152.921875 38.527344 L 3.9375 38.417969 L 3.871094 191.089844 L 153.066406 191.0625 "/>
<path style="fill:none;stroke-width:0.5;stroke-linecap:butt;stroke-linejoin:miter;stroke:rgb(100%,100%,100%);stroke-opacity:1;stroke-miterlimit:4;" d="M 27.68081 34.39125 L 27.656084 6.934922 L 0.712101 6.915234 L 0.700091 34.394766 L 27.682222 34.389844 Z M 27.68081 34.39125 " transform="matrix(5.529412,0,0,5.555556,0,0)"/>
<path style="fill:none;stroke-width:0.75;stroke-linecap:butt;stroke-linejoin:miter;stroke:rgb(100%,100%,100%);stroke-opacity:1;stroke-miterlimit:4;" d="M 14.193983 26.547891 C 17.488157 26.549297 20.159948 23.880234 20.160655 20.586094 C 20.162068 17.291953 17.493102 14.620078 14.198928 14.618672 C 10.904754 14.617969 8.232962 17.287031 8.231549 20.581172 C 8.230136 23.876016 10.899809 26.547891 14.193983 26.549297 Z M 14.193983 14.620078 L 23.199094 14.620078 " transform="matrix(5.529412,0,0,5.555556,0,0)"/>
<path style=" stroke:none;fill-rule:nonzero;fill:rgb(100%,100%,100%);fill-opacity:1;" d="M 128.785156 62.476562 L 128.785156 98.667969 L 150.488281 81.277344 L 128.785156 62.476562 "/>
<path style="fill:none;stroke-width:0.25;stroke-linecap:butt;stroke-linejoin:miter;stroke:rgb(100%,100%,100%);stroke-opacity:1;stroke-miterlimit:4;" d="M 23.290933 11.245781 L 23.290933 17.760234 L 27.215966 14.629922 Z M 23.290933 11.245781 " transform="matrix(5.529412,0,0,5.555556,0,0)"/>
<path style="fill:none;stroke-width:0.75;stroke-linecap:butt;stroke-linejoin:miter;stroke:rgb(100%,100%,100%);stroke-opacity:1;stroke-miterlimit:4;" d="M 8.232256 20.62125 L 8.232256 11.617031 " transform="matrix(5.529412,0,0,5.555556,0,0)"/>
<path style=" stroke:none;fill-rule:nonzero;fill:rgb(100%,100%,100%);fill-opacity:1;" d="M 27.1875 64.328125 L 63.230469 64.328125 L 45.925781 42.511719 L 27.1875 64.332031 "/>
<path style="fill:none;stroke-width:0.25;stroke-linecap:butt;stroke-linejoin:miter;stroke:rgb(100%,100%,100%);stroke-opacity:1;stroke-miterlimit:4;" d="M 4.916888 11.579062 L 11.435298 11.579062 L 8.305726 7.652109 L 4.916888 11.579766 Z M 4.916888 11.579062 " transform="matrix(5.529412,0,0,5.555556,0,0)"/>
<path style="fill:none;stroke-width:0.75;stroke-linecap:butt;stroke-linejoin:miter;stroke:rgb(100%,100%,100%);stroke-opacity:1;stroke-miterlimit:4;" d="M 20.160655 20.557266 L 20.160655 29.562188 " transform="matrix(5.529412,0,0,5.555556,0,0)"/>
<path style=" stroke:none;fill-rule:nonzero;fill:rgb(100%,100%,100%);fill-opacity:1;" d="M 129.753906 164.3125 L 93.722656 164.3125 L 111.214844 186.121094 L 129.757812 164.3125 "/>
<path style="fill:none;stroke-width:0.25;stroke-linecap:butt;stroke-linejoin:miter;stroke:rgb(100%,100%,100%);stroke-opacity:1;stroke-miterlimit:4;" d="M 23.466132 29.57625 L 16.949842 29.57625 L 20.113323 33.501797 L 23.466838 29.57625 Z M 23.466132 29.57625 " transform="matrix(5.529412,0,0,5.555556,0,0)"/>
<path style="fill:none;stroke-width:0.75;stroke-linecap:butt;stroke-linejoin:miter;stroke:rgb(100%,100%,100%);stroke-opacity:1;stroke-miterlimit:4;" d="M 14.321144 26.543672 L 5.316739 26.543672 " transform="matrix(5.529412,0,0,5.555556,0,0)"/>
<path style=" stroke:none;fill-rule:nonzero;fill:rgb(100%,100%,100%);fill-opacity:1;" d="M 28.699219 166.320312 L 28.699219 130.105469 L 6.996094 147.523438 L 28.699219 166.320312 "/>
<path style="fill:none;stroke-width:0.25;stroke-linecap:butt;stroke-linejoin:miter;stroke:rgb(100%,100%,100%);stroke-opacity:1;stroke-miterlimit:4;" d="M 5.190284 29.936953 L 5.190284 23.418984 L 1.265251 26.552812 Z M 5.190284 29.936953 " transform="matrix(5.529412,0,0,5.555556,0,0)"/>
<path style=" stroke:none;fill-rule:nonzero;fill:rgb(0.784314%,42.352941%,60.784314%);fill-opacity:1;" d="M 152.921875 38.527344 L 3.9375 38.417969 L 41.714844 8.117188 L 183.730469 8.117188 L 183.730469 159.753906 L 153.058594 191.0625 L 152.921875 38.527344 "/>
<path style="fill:none;stroke-width:0.5;stroke-linecap:butt;stroke-linejoin:miter;stroke:rgb(100%,100%,100%);stroke-opacity:1;stroke-miterlimit:4;" d="M 27.656084 6.934922 L 0.712101 6.915234 L 7.544174 1.459688 L 33.227851 1.459688 L 33.227851 28.755 L 27.680103 34.389844 L 27.654671 6.934219 Z M 27.656084 6.934922 " transform="matrix(5.529412,0,0,5.555556,0,0)"/>
<path style=" stroke:none;fill-rule:nonzero;fill:rgb(0.784314%,42.352941%,60.784314%);fill-opacity:1;" d="M 152.921875 38.527344 L 183.996094 7.679688 "/>
<path style="fill:none;stroke-width:0.5;stroke-linecap:butt;stroke-linejoin:miter;stroke:rgb(100%,100%,100%);stroke-opacity:1;stroke-miterlimit:4;" d="M 27.656084 6.934922 L 33.275889 1.383047 " transform="matrix(5.529412,0,0,5.555556,0,0)"/>
<path style=" stroke:none;fill-rule:nonzero;fill:rgb(100%,100%,100%);fill-opacity:1;" d="M 96.113281 98.695312 L 96.113281 120.066406 C 96.113281 129.234375 90.394531 136.996094 78.140625 136.996094 C 66.144531 136.996094 60.988281 129.238281 60.988281 120.855469 L 60.988281 98.695312 L 67.011719 98.695312 L 67.011719 119.171875 C 67.011719 128.9375 72.925781 131.621094 78.324219 131.621094 C 83.859375 131.621094 90.097656 129.050781 90.097656 119.3125 L 90.097656 98.699219 L 96.113281 98.699219 "/>
</g>
</svg>
