<?xml version="1.0" encoding="UTF-8"?>
<svg xmlns="http://www.w3.org/2000/svg" xmlns:xlink="http://www.w3.org/1999/xlink" width="100pt" height="200pt" viewBox="0 0 100 200" version="1.1">
<g id="surface1">
<path style="fill-rule:nonzero;fill:rgb(1.176471%,41.176471%,59.607843%);fill-opacity:1;stroke-width:0.5;stroke-linecap:butt;stroke-linejoin:miter;stroke:rgb(100%,100%,100%);stroke-opacity:1;stroke-miterlimit:4;" d="M 0.249219 56.000586 L 22.889609 56.000586 L 22.889609 6.000508 L 0.250352 6.000508 L 0.250352 56.000586 Z M 0.249219 56.000586 " transform="matrix(3.448276,0,0,3.448276,0,0)"/>
<path style=" stroke:none;fill-rule:nonzero;fill:rgb(1.176471%,41.176471%,59.607843%);fill-opacity:1;" d="M 0.859375 20.695312 L 18.773438 3.671875 L 96.847656 3.671875 L 78.949219 20.695312 L 0.859375 20.695312 "/>
<path style="fill:none;stroke-width:0.5;stroke-linecap:butt;stroke-linejoin:miter;stroke:rgb(100%,100%,100%);stroke-opacity:1;stroke-miterlimit:4;" d="M 0.249219 6.000508 L 5.444297 1.064844 L 28.08582 1.064844 L 22.895273 6.000508 L 0.249219 6.000508 " transform="matrix(3.448276,0,0,3.448276,0,0)"/>
<path style=" stroke:none;fill-rule:nonzero;fill:rgb(1.176471%,41.176471%,59.607843%);fill-opacity:1;" d="M 78.949219 193.105469 L 96.847656 176.101562 L 96.847656 3.671875 L 78.949219 20.695312 L 78.949219 193.109375 "/>
<path style="fill:none;stroke-width:0.5;stroke-linecap:butt;stroke-linejoin:miter;stroke:rgb(100%,100%,100%);stroke-opacity:1;stroke-miterlimit:4;" d="M 22.895273 56.000586 L 28.08582 51.069453 L 28.08582 1.064844 L 22.895273 6.000508 L 22.895273 56.000586 " transform="matrix(3.448276,0,0,3.448276,0,0)"/>
<path style=" stroke:none;fill-rule:nonzero;fill:rgb(100%,100%,100%);fill-opacity:1;" d="M 29.535156 143.609375 C 29.535156 143.101562 29.734375 139.75 33.273438 134.292969 C 34.015625 133.152344 34.90625 132.222656 35.828125 131.398438 L 26.484375 139.816406 C 25.523438 140.675781 24.671875 141.648438 23.945312 142.714844 C 20.375 148.070312 20.558594 150.726562 20.359375 151.570312 L 29.53125 143.609375 "/>
<path style="fill:none;stroke-width:0.17625;stroke-linecap:butt;stroke-linejoin:miter;stroke:rgb(1.176471%,41.176471%,59.607843%);stroke-opacity:1;stroke-miterlimit:4;" d="M 8.565195 41.645586 C 8.565195 41.499453 8.622969 40.5275 9.649297 38.946094 C 9.864531 38.61418 10.122813 38.34457 10.390156 38.105547 L 7.680469 40.546758 C 7.401797 40.795977 7.153711 41.078047 6.944141 41.387305 C 5.90875 42.940391 5.961992 43.710703 5.904219 43.955391 L 8.564063 41.645586 Z M 8.565195 41.645586 " transform="matrix(3.448276,0,0,3.448276,0,0)"/>
<path style=" stroke:none;fill-rule:nonzero;fill:rgb(100%,100%,100%);fill-opacity:1;" d="M 58.691406 138.28125 C 54.550781 133.601562 49.183594 127.808594 37.105469 130.351562 C 36.671875 130.675781 36.230469 131.015625 35.832031 131.398438 L 26.484375 139.816406 C 30.914062 135.828125 42.210938 132.558594 51 145.339844 L 45.054688 150.410156 L 58.964844 151.65625 L 63.863281 133.859375 L 58.695312 138.28125 "/>
<path style="fill:none;stroke-width:0.17625;stroke-linecap:butt;stroke-linejoin:miter;stroke:rgb(1.176471%,41.176471%,59.607843%);stroke-opacity:1;stroke-miterlimit:4;" d="M 17.020508 40.101563 C 15.819727 38.744453 14.263242 37.065625 10.760586 37.801953 C 10.631445 37.895977 10.507969 37.996797 10.391289 38.105547 L 7.680469 40.546758 C 8.965078 39.390156 12.241172 38.441992 14.79 42.148555 L 13.065859 43.617813 L 17.099805 43.980313 L 18.520352 38.818086 L 17.021641 40.101563 Z M 17.020508 40.101563 " transform="matrix(3.448276,0,0,3.448276,0,0)"/>
<path style=" stroke:none;fill-rule:nonzero;fill:rgb(100%,100%,100%);fill-opacity:1;" d="M 63.929688 149.191406 L 54.601562 157.75 C 54.433594 158.339844 56.253906 164.199219 51.625 172.96875 C 44.6875 175.023438 35.914062 171.636719 30.441406 157.628906 L 35.761719 152.902344 L 24.566406 149.632812 L 17.910156 168.808594 L 23.605469 163.324219 C 25.726562 167.191406 28.117188 170.480469 30.640625 173.039062 L 21.636719 173.039062 L 25.324219 169.652344 L 4.597656 175.949219 L 12.84375 181.402344 L 15.035156 179.21875 L 42.679688 179.21875 L 42.652344 179.148438 C 44.28125 179.183594 45.898438 178.878906 47.484375 178.207031 C 47.769531 177.980469 48.046875 177.738281 48.308594 177.484375 C 48.191406 177.582031 48.085938 177.703125 47.984375 177.800781 C 47.984375 177.800781 56.707031 171.351562 57.921875 170.074219 C 61.625 166.203125 64.722656 160.964844 63.929688 149.191406 "/>
<path style="fill:none;stroke-width:0.17625;stroke-linecap:butt;stroke-linejoin:miter;stroke:rgb(1.176471%,41.176471%,59.607843%);stroke-opacity:1;stroke-miterlimit:4;" d="M 18.539609 43.266641 L 15.834453 45.7475 C 15.785742 45.918555 16.313633 47.616641 14.97125 50.160938 C 12.959375 50.756797 10.415078 49.775781 8.828008 45.713516 L 10.370898 44.340547 L 7.124258 43.393516 L 5.193945 48.954492 L 6.845586 47.364023 C 7.460703 48.485508 8.153984 49.438203 8.885781 50.181328 L 6.274648 50.181328 L 7.344023 49.200313 L 1.33332 51.026406 L 3.724688 52.60668 L 4.360195 51.972305 L 12.377109 51.972305 L 12.36918 51.95418 C 12.841563 51.964375 13.310547 51.874883 13.770469 51.680039 C 13.853164 51.614336 13.933594 51.544102 14.009492 51.470469 C 13.975508 51.498789 13.944922 51.533906 13.915469 51.562227 C 13.915469 51.562227 16.445039 49.691953 16.797344 49.321523 C 17.87125 48.198906 18.76957 46.679805 18.539609 43.266641 Z M 18.539609 43.266641 " transform="matrix(3.448276,0,0,3.448276,0,0)"/>
<path style=" stroke:none;fill-rule:nonzero;fill:rgb(100%,100%,100%);fill-opacity:1;" d="M 36.621094 118.382812 L 44.046875 111.660156 C 38.757812 111.546875 33.46875 111.746094 28.203125 112.253906 C 25.878906 120.988281 23.894531 126.160156 21.550781 132.003906 L 29.332031 124.984375 C 34.867188 130.121094 41.691406 131.398438 47.484375 128.738281 C 47.652344 128.601562 47.820312 128.46875 47.984375 128.316406 L 57.3125 119.902344 C 51.355469 125.273438 42.953125 124.765625 36.625 118.382812 "/>
<path style="fill:none;stroke-width:0.17625;stroke-linecap:butt;stroke-linejoin:miter;stroke:rgb(1.176471%,41.176471%,59.607843%);stroke-opacity:1;stroke-miterlimit:4;" d="M 10.620117 34.331016 L 12.773594 32.382578 C 11.239766 32.349727 9.705938 32.406367 8.178906 32.5525 C 7.504883 35.087734 6.929414 36.586445 6.249727 38.281133 L 8.506289 36.245469 C 10.111484 37.735117 12.090508 38.105547 13.770469 37.334102 C 13.81918 37.294453 13.867891 37.255938 13.915469 37.211758 L 16.620625 34.770547 C 14.893086 36.329297 12.456406 36.182031 10.62125 34.331016 Z M 10.620117 34.331016 " transform="matrix(3.448276,0,0,3.448276,0,0)"/>
<path style=" stroke:none;fill-rule:nonzero;fill:rgb(100%,100%,100%);fill-opacity:1;" d="M 30.039062 106.429688 C 28.117188 98.917969 29.148438 90.652344 33.273438 84.808594 C 34.042969 83.699219 34.90625 82.738281 35.828125 81.914062 L 26.484375 90.34375 C 25.53125 91.210938 24.679688 92.183594 23.945312 93.242188 C 19.835938 99.035156 18.808594 107.199219 20.660156 114.660156 L 30.039062 106.425781 "/>
<path style="fill:none;stroke-width:0.17625;stroke-linecap:butt;stroke-linejoin:miter;stroke:rgb(1.176471%,41.176471%,59.607843%);stroke-opacity:1;stroke-miterlimit:4;" d="M 8.711328 30.864609 C 8.153984 28.686211 8.453047 26.290313 9.649297 24.594492 C 9.872461 24.272773 10.122813 23.995234 10.390156 23.755078 L 7.680469 26.199688 C 7.416523 26.439844 7.167305 26.718516 6.944141 27.040234 C 5.752422 28.720195 5.454492 31.086641 5.991445 33.251445 L 8.711328 30.863477 Z M 8.711328 30.864609 " transform="matrix(3.448276,0,0,3.448276,0,0)"/>
<path style=" stroke:none;fill-rule:nonzero;fill:rgb(100%,100%,100%);fill-opacity:1;" d="M 48.457031 81.691406 C 44.71875 79.960938 40.761719 79.671875 37.105469 80.871094 C 36.664062 81.195312 36.238281 81.542969 35.832031 81.914062 L 26.484375 90.34375 C 30.757812 86.476562 36.316406 85.664062 41.429688 87.855469 L 36.296875 92.351562 L 52.160156 91.945312 L 54.882812 76.050781 L 48.457031 81.691406 "/>
<path style="fill:none;stroke-width:0.17625;stroke-linecap:butt;stroke-linejoin:miter;stroke:rgb(1.176471%,41.176471%,59.607843%);stroke-opacity:1;stroke-miterlimit:4;" d="M 14.052539 23.690508 C 12.968438 23.187539 11.820898 23.105977 10.760586 23.451484 C 10.632578 23.546641 10.509102 23.647461 10.391289 23.755078 L 7.680469 26.199688 C 8.919766 25.078203 10.531758 24.842578 12.014609 25.476953 L 10.526094 26.78082 L 15.126445 26.663008 L 15.916016 22.054727 Z M 14.052539 23.690508 " transform="matrix(3.448276,0,0,3.448276,0,0)"/>
<path style=" stroke:none;fill-rule:nonzero;fill:rgb(100%,100%,100%);fill-opacity:1;" d="M 60.363281 87.355469 C 66.238281 99.136719 64.046875 110.871094 59.875 117.003906 C 59.082031 118.101562 58.242188 119.054688 57.3125 119.898438 L 47.984375 128.316406 C 48.898438 127.488281 49.753906 126.535156 50.53125 125.421875 C 58.136719 114.242188 53.675781 103.074219 51.304688 95.738281 L 60.363281 87.355469 "/>
<path style="fill:none;stroke-width:0.17625;stroke-linecap:butt;stroke-linejoin:miter;stroke:rgb(1.176471%,41.176471%,59.607843%);stroke-opacity:1;stroke-miterlimit:4;" d="M 17.505352 25.333086 C 19.209102 28.749648 18.573594 32.152617 17.36375 33.931133 C 17.133789 34.249453 16.890234 34.525859 16.620625 34.770547 L 13.915469 37.211758 C 14.180547 36.971602 14.428633 36.695195 14.654063 36.372344 C 16.859648 33.130234 15.565977 29.891523 14.878359 27.764102 Z M 17.505352 25.333086 " transform="matrix(3.448276,0,0,3.448276,0,0)"/>
<path style=" stroke:none;fill-rule:nonzero;fill:rgb(100%,100%,100%);fill-opacity:1;" d="M 47.484375 78.832031 C 47.652344 78.695312 47.820312 78.566406 47.984375 78.417969 L 57.3125 69.988281 C 51.167969 75.535156 42.398438 74.824219 36.015625 67.871094 L 28.691406 74.484375 C 34.347656 80.125 41.46875 81.59375 47.484375 78.828125 "/>
<path style="fill:none;stroke-width:0.17625;stroke-linecap:butt;stroke-linejoin:miter;stroke:rgb(1.176471%,41.176471%,59.607843%);stroke-opacity:1;stroke-miterlimit:4;" d="M 13.770469 22.860156 C 13.81918 22.821641 13.867891 22.784258 13.915469 22.740078 L 16.620625 20.297734 C 14.838711 21.905195 12.295547 21.700156 10.444531 19.681484 L 8.320508 21.601602 C 9.96082 23.237383 12.025938 23.662188 13.770469 22.861289 Z M 13.770469 22.860156 " transform="matrix(3.448276,0,0,3.448276,0,0)"/>
<path style=" stroke:none;fill-rule:nonzero;fill:rgb(100%,100%,100%);fill-opacity:1;" d="M 36.636719 50.59375 L 30.054688 56.542969 C 28.117188 49.03125 29.128906 40.75 33.273438 34.90625 C 34.042969 33.792969 34.90625 32.835938 35.828125 32.011719 L 26.484375 40.441406 C 25.53125 41.304688 24.679688 42.277344 23.945312 43.339844 C 19.804688 49.183594 18.789062 57.464844 20.710938 64.972656 L 14.140625 70.917969 C 18.726562 70.984375 23.082031 70.984375 29.933594 70.378906 C 31.703125 63.832031 33.308594 58.746094 36.636719 50.59375 "/>
<path style="fill:none;stroke-width:0.17625;stroke-linecap:butt;stroke-linejoin:miter;stroke:rgb(1.176471%,41.176471%,59.607843%);stroke-opacity:1;stroke-miterlimit:4;" d="M 10.624648 14.67332 L 8.715859 16.396328 C 8.153984 14.219063 8.447383 11.816367 9.649297 10.12168 C 9.872461 9.799961 10.122813 9.521289 10.390156 9.282266 L 7.680469 11.730273 C 7.416523 11.97043 7.167305 12.246836 6.944141 12.569688 C 5.743359 14.263242 5.448828 16.664805 6.006172 18.845469 L 4.100781 20.567344 C 5.430703 20.586602 6.693789 20.586602 8.680742 20.411016 C 9.193906 18.512422 9.659492 17.0375 10.624648 14.674453 " transform="matrix(3.448276,0,0,3.448276,0,0)"/>
<path style=" stroke:none;fill-rule:nonzero;fill:rgb(100%,100%,100%);fill-opacity:1;" d="M 69.636719 39.367188 L 63.074219 45.328125 C 65.042969 52.871094 64.03125 61.203125 59.875 67.101562 C 59.082031 68.191406 58.242188 69.167969 57.3125 69.988281 L 47.984375 78.414062 C 48.9375 77.546875 49.792969 76.574219 50.53125 75.515625 C 54.703125 69.636719 55.695312 61.308594 53.726562 53.761719 L 47.144531 59.707031 C 49.484375 53.863281 51.46875 48.691406 53.792969 39.957031 C 59.058594 39.445312 64.347656 39.25 69.636719 39.367188 "/>
<path style="fill:none;stroke-width:0.17625;stroke-linecap:butt;stroke-linejoin:miter;stroke:rgb(1.176471%,41.176471%,59.607843%);stroke-opacity:1;stroke-miterlimit:4;" d="M 20.194648 11.416484 L 18.291523 13.145156 C 18.862461 15.332617 18.569063 17.748906 17.36375 19.459453 C 17.133789 19.775508 16.890234 20.058711 16.620625 20.298867 L 13.915469 22.738945 C 14.180547 22.499922 14.428633 22.222383 14.654063 21.899531 C 15.863906 20.195781 16.151641 17.779492 15.580703 15.590898 L 13.671914 17.315039 C 14.350469 15.620352 14.925938 14.120508 15.599961 11.587539 C 16.997852 11.465195 18.076289 11.387031 20.194648 11.416484 " transform="matrix(3.448276,0,0,3.448276,0,0)"/>
<path style=" stroke:none;fill-rule:nonzero;fill:rgb(100%,100%,100%);fill-opacity:1;" d="M 75.148438 30.394531 L 43.792969 30.394531 C 41.550781 30.066406 39.261719 30.261719 37.105469 30.964844 C 36.664062 31.289062 36.234375 31.636719 35.832031 32.011719 L 26.484375 40.441406 C 32.664062 34.867188 41.484375 35.613281 47.867188 42.664062 L 54.230469 36.90625 L 68.292969 36.90625 L 75.148438 30.394531 "/>
<path style="fill:none;stroke-width:0.17625;stroke-linecap:butt;stroke-linejoin:miter;stroke:rgb(1.176471%,41.176471%,59.607843%);stroke-opacity:1;stroke-miterlimit:4;" d="M 21.793047 8.813281 L 12.699961 8.813281 C 12.049727 8.719258 11.385898 8.775898 10.760586 8.979805 C 10.632578 9.073828 10.509102 9.174648 10.391289 9.282266 L 7.680469 11.728008 C 9.472578 10.111484 12.030469 10.327852 13.881484 12.372578 L 15.726836 10.702813 L 19.804961 10.702813 Z M 21.793047 8.813281 " transform="matrix(3.448276,0,0,3.448276,0,0)"/>
</g>
</svg>
