<?xml version="1.0" encoding="UTF-8"?>
<svg xmlns="http://www.w3.org/2000/svg" xmlns:xlink="http://www.w3.org/1999/xlink" width="148pt" height="200pt" viewBox="0 0 148 200" version="1.1">
<g id="surface1">
<path style=" stroke:none;fill-rule:nonzero;fill:rgb(3.137255%,48.235294%,73.333333%);fill-opacity:1;" d="M 2.996094 192.238281 L 127.058594 192.238281 L 127.058594 68.136719 L 2.996094 68.136719 Z M 2.996094 192.238281 "/>
<path style="fill:none;stroke-width:0.5;stroke-linecap:butt;stroke-linejoin:miter;stroke:rgb(100%,100%,100%);stroke-opacity:1;stroke-miterlimit:4;" d="M 0.809755 51.903281 L 34.34016 51.903281 L 34.34016 18.396914 L 0.809755 18.396914 Z M 0.809755 51.903281 " transform="matrix(3.7,0,0,3.703704,0,0)"/>
<path style=" stroke:none;fill-rule:nonzero;fill:rgb(3.137255%,48.235294%,73.333333%);fill-opacity:1;" d="M 142.742188 176.699219 L 142.742188 52.605469 L 127.0625 68.136719 L 127.0625 192.230469 L 142.742188 176.699219 "/>
<path style="fill:none;stroke-width:0.5;stroke-linecap:butt;stroke-linejoin:miter;stroke:rgb(100%,100%,100%);stroke-opacity:1;stroke-miterlimit:4;" d="M 38.57897 47.707734 L 38.57897 14.203477 L 34.341216 18.396914 L 34.341216 51.903281 Z M 38.57897 47.707734 " transform="matrix(3.7,0,0,3.703704,0,0)"/>
<path style=" stroke:none;fill-rule:nonzero;fill:rgb(3.137255%,48.235294%,73.333333%);fill-opacity:1;" d="M 25.675781 2.308594 L 2.996094 17.839844 L 127.0625 17.839844 L 142.746094 2.308594 L 25.675781 2.308594 "/>
<path style="fill:none;stroke-width:0.5;stroke-linecap:butt;stroke-linejoin:miter;stroke:rgb(100%,100%,100%);stroke-opacity:1;stroke-miterlimit:4;" d="M 6.9394 0.62332 L 0.809755 4.817813 L 34.341216 4.817813 L 38.580025 0.62332 Z M 6.9394 0.62332 " transform="matrix(3.7,0,0,3.703704,0,0)"/>
<path style="fill-rule:nonzero;fill:rgb(3.137255%,48.235294%,73.333333%);fill-opacity:1;stroke-width:0.5;stroke-linecap:butt;stroke-linejoin:miter;stroke:rgb(100%,100%,100%);stroke-opacity:1;stroke-miterlimit:4;" d="M 0.809755 18.396914 L 34.34016 18.396914 L 34.34016 4.816758 L 0.809755 4.816758 Z M 0.809755 18.396914 " transform="matrix(3.7,0,0,3.703704,0,0)"/>
<path style=" stroke:none;fill-rule:nonzero;fill:rgb(3.137255%,48.235294%,73.333333%);fill-opacity:1;" d="M 142.742188 52.605469 L 142.742188 2.308594 L 127.058594 17.839844 L 127.058594 68.136719 L 142.738281 52.605469 "/>
<path style="fill:none;stroke-width:0.5;stroke-linecap:butt;stroke-linejoin:miter;stroke:rgb(100%,100%,100%);stroke-opacity:1;stroke-miterlimit:4;" d="M 38.57897 14.203477 L 38.57897 0.62332 L 34.34016 4.817813 L 34.34016 18.396914 L 38.577914 14.203477 Z M 34.341216 18.396914 L 0.810811 18.396914 " transform="matrix(3.7,0,0,3.703704,0,0)"/>
<path style=" stroke:none;fill-rule:nonzero;fill:rgb(3.137255%,48.235294%,73.333333%);fill-opacity:1;" d="M 127.0625 68.140625 L 142.742188 52.605469 "/>
<path style="fill:none;stroke-width:0.5;stroke-linecap:butt;stroke-linejoin:miter;stroke:rgb(100%,100%,100%);stroke-opacity:1;stroke-miterlimit:4;" d="M 34.341216 18.396914 L 38.57897 14.203477 " transform="matrix(3.7,0,0,3.703704,0,0)"/>
<path style=" stroke:none;fill-rule:nonzero;fill:rgb(100%,100%,100%);fill-opacity:1;" d="M 23.230469 35.023438 L 43.25 35.023438 L 43.25 24.589844 L 23.230469 24.589844 Z M 88.996094 35.023438 L 108.996094 35.023438 L 108.996094 24.589844 L 88.996094 24.589844 Z M 23.230469 61.085938 L 43.25 61.085938 L 43.25 50.667969 L 23.230469 50.667969 Z M 88.996094 61.085938 L 108.996094 61.085938 L 108.996094 50.667969 L 88.996094 50.667969 Z M 88.996094 61.085938 "/>
<path style="fill:none;stroke-width:0.5;stroke-linecap:butt;stroke-linejoin:miter;stroke:rgb(100%,100%,100%);stroke-opacity:1;stroke-miterlimit:4;" d="M 9.951436 8.05043 L 26.5625 8.05043 M 9.951436 15.087305 L 26.5625 15.087305 " transform="matrix(3.7,0,0,3.703704,0,0)"/>
<path style=" stroke:none;fill-rule:nonzero;fill:rgb(0%,0%,0%);fill-opacity:1;" d="M 33.246094 55.875 L 98.28125 29.816406 "/>
<path style="fill:none;stroke-width:0.5;stroke-linecap:butt;stroke-linejoin:miter;stroke:rgb(100%,100%,100%);stroke-opacity:1;stroke-miterlimit:4;" d="M 8.985431 15.087305 L 26.5625 8.05043 " transform="matrix(3.7,0,0,3.703704,0,0)"/>
<path style=" stroke:none;fill-rule:nonzero;fill:rgb(0%,0%,0%);fill-opacity:1;" d="M 33.246094 29.816406 L 98.28125 55.875 "/>
<path style="fill:none;stroke-width:0.5;stroke-linecap:butt;stroke-linejoin:miter;stroke:rgb(100%,100%,100%);stroke-opacity:1;stroke-miterlimit:4;" d="M 8.985431 8.05043 L 26.5625 15.087305 " transform="matrix(3.7,0,0,3.703704,0,0)"/>
<path style=" stroke:none;fill-rule:nonzero;fill:rgb(100%,100%,100%);fill-opacity:1;" d="M 36.894531 96.296875 L 36.894531 85.566406 L 38.71875 85.566406 L 36.023438 81.5 L 33.332031 85.570312 L 35.15625 85.570312 L 35.15625 96.296875 L 36.894531 96.296875 M 31.417969 97.851562 L 23.828125 90.253906 L 25.117188 88.972656 L 20.355469 88.011719 L 21.320312 92.765625 L 22.601562 91.484375 L 30.1875 99.078125 L 31.417969 97.851562 M 28.632812 102.824219 L 17.90625 102.824219 L 17.90625 100.992188 L 13.855469 103.6875 L 17.90625 106.386719 L 17.90625 104.558594 L 28.632812 104.558594 L 28.632812 102.824219 M 30.1875 108.300781 L 22.601562 115.898438 L 21.316406 114.613281 L 20.355469 119.371094 L 25.117188 118.410156 L 23.828125 117.128906 L 31.417969 109.535156 L 30.1875 108.300781 M 35.15625 111.070312 L 35.15625 121.8125 L 33.335938 121.8125 L 36.027344 125.859375 L 38.71875 121.8125 L 36.890625 121.8125 L 36.890625 111.070312 L 35.152344 111.070312 M 43.414062 104.5625 L 54.128906 104.5625 L 54.128906 106.386719 L 58.175781 103.6875 L 54.128906 100.996094 L 54.128906 102.824219 L 43.414062 102.824219 L 43.414062 104.5625 M 41.863281 99.082031 L 49.445312 91.488281 L 50.730469 92.765625 L 51.691406 88.015625 L 46.933594 88.972656 L 48.222656 90.253906 L 40.628906 97.847656 L 41.863281 99.082031 "/>
<path style=" stroke:none;fill-rule:nonzero;fill:rgb(100%,100%,100%);fill-opacity:1;" d="M 42.582031 112.699219 C 47.4375 109.117188 48.550781 102.316406 45.097656 97.367188 C 41.640625 92.421875 34.875 91.136719 29.847656 94.46875 C 24.824219 98 23.601562 104.929688 27.117188 109.964844 C 30.636719 114.988281 37.558594 116.210938 42.582031 112.699219 M 36.894531 154.945312 L 36.894531 144.199219 L 38.71875 144.199219 L 36.023438 140.148438 L 33.332031 144.199219 L 35.15625 144.199219 L 35.15625 154.945312 L 36.894531 154.945312 M 31.417969 156.5 L 23.828125 148.902344 L 25.117188 147.617188 L 20.355469 146.644531 L 21.320312 151.414062 L 22.601562 150.132812 L 30.1875 157.726562 L 31.417969 156.5 M 28.632812 161.472656 L 17.90625 161.472656 L 17.90625 159.644531 L 13.855469 162.335938 L 17.90625 165.015625 L 17.90625 163.207031 L 28.632812 163.207031 L 28.632812 161.472656 M 30.1875 166.949219 L 22.601562 174.542969 L 21.316406 173.25 L 20.355469 178.019531 L 25.117188 177.058594 L 23.828125 175.761719 L 31.417969 168.164062 L 30.1875 166.949219 M 35.15625 169.71875 L 35.15625 180.460938 L 33.335938 180.460938 L 36.027344 184.507812 L 38.71875 180.460938 L 36.890625 180.460938 L 36.890625 169.71875 L 35.152344 169.71875 M 40.628906 168.164062 L 48.222656 175.757812 L 46.933594 177.058594 L 51.6875 178.019531 L 50.730469 173.246094 L 49.445312 174.542969 L 41.863281 166.953125 L 40.628906 168.164062 M 43.414062 163.207031 L 54.128906 163.207031 L 54.128906 165.015625 L 58.175781 162.335938 L 54.128906 159.644531 L 54.128906 161.472656 L 43.414062 161.472656 L 43.414062 163.207031 "/>
<path style=" stroke:none;fill-rule:nonzero;fill:rgb(100%,100%,100%);fill-opacity:1;" d="M 42.582031 171.328125 C 47.609375 167.808594 48.832031 160.875 45.308594 155.847656 C 41.792969 150.816406 34.867188 149.59375 29.839844 153.117188 C 24.8125 156.636719 23.59375 163.570312 27.113281 168.601562 C 30.632812 173.632812 37.558594 174.851562 42.582031 171.328125 M 95.480469 96.296875 L 95.480469 85.566406 L 97.289062 85.566406 L 94.613281 81.5 L 91.921875 85.570312 L 93.746094 85.570312 L 93.746094 96.296875 L 95.484375 96.296875 M 90.007812 97.851562 L 82.417969 90.253906 L 83.707031 88.972656 L 78.933594 88.011719 L 79.90625 92.765625 L 81.191406 91.484375 L 88.777344 99.078125 L 90.007812 97.851562 M 87.222656 102.824219 L 76.492188 102.824219 L 76.492188 100.992188 L 72.445312 103.6875 L 76.492188 106.386719 L 76.492188 104.558594 L 87.222656 104.558594 L 87.222656 102.824219 M 93.746094 111.070312 L 93.746094 121.8125 L 91.921875 121.8125 L 94.613281 125.859375 L 97.289062 121.8125 L 95.480469 121.8125 L 95.480469 111.070312 L 93.746094 111.070312 M 99.21875 109.535156 L 106.8125 117.128906 L 105.503906 118.410156 L 110.277344 119.371094 L 109.320312 114.613281 L 108.019531 115.898438 L 100.433594 108.300781 L 99.21875 109.535156 M 101.988281 104.5625 L 112.71875 104.5625 L 112.71875 106.386719 L 116.765625 103.6875 L 112.71875 100.996094 L 112.71875 102.824219 L 101.988281 102.824219 L 101.988281 104.5625 M 100.429688 99.082031 L 108.015625 91.488281 L 109.320312 92.765625 L 110.28125 88.015625 L 105.507812 88.972656 L 106.8125 90.253906 L 99.21875 97.847656 L 100.429688 99.082031 "/>
<path style=" stroke:none;fill-rule:nonzero;fill:rgb(100%,100%,100%);fill-opacity:1;" d="M 101.171875 112.699219 C 106.027344 109.117188 107.140625 102.316406 103.6875 97.367188 C 100.230469 92.421875 93.464844 91.136719 88.4375 94.46875 C 83.582031 98.050781 82.46875 104.855469 85.925781 109.800781 C 89.378906 114.75 96.144531 116.035156 101.171875 112.699219 M 95.480469 154.945312 L 95.480469 144.199219 L 97.289062 144.199219 L 94.613281 140.148438 L 91.921875 144.199219 L 93.746094 144.199219 L 93.746094 154.945312 L 95.484375 154.945312 M 87.222656 161.472656 L 76.492188 161.472656 L 76.492188 159.644531 L 72.445312 162.335938 L 76.492188 165.015625 L 76.492188 163.207031 L 87.222656 163.207031 L 87.222656 161.472656 M 88.777344 166.949219 L 81.191406 174.542969 L 79.90625 173.25 L 78.933594 178.019531 L 83.707031 177.058594 L 82.417969 175.761719 L 90.007812 168.164062 L 88.777344 166.949219 M 93.746094 169.71875 L 93.746094 180.460938 L 91.921875 180.460938 L 94.613281 184.507812 L 97.289062 180.460938 L 95.480469 180.460938 L 95.480469 169.71875 L 93.746094 169.71875 M 99.21875 168.164062 L 106.8125 175.757812 L 105.503906 177.058594 L 110.277344 178.019531 L 109.320312 173.246094 L 108.019531 174.542969 L 100.433594 166.953125 L 99.21875 168.164062 M 101.988281 163.207031 L 112.71875 163.207031 L 112.71875 165.015625 L 116.765625 162.335938 L 112.71875 159.644531 L 112.71875 161.472656 L 101.988281 161.472656 L 101.988281 163.207031 M 100.429688 157.726562 L 108.015625 150.132812 L 109.320312 151.414062 L 110.28125 146.644531 L 105.507812 147.617188 L 106.8125 148.902344 L 99.21875 156.496094 L 100.429688 157.726562 "/>
<path style=" stroke:none;fill-rule:nonzero;fill:rgb(100%,100%,100%);fill-opacity:1;" d="M 101.171875 171.328125 C 106.199219 167.808594 107.421875 160.875 103.898438 155.847656 C 100.382812 150.816406 93.457031 149.589844 88.433594 153.113281 C 83.410156 156.636719 82.1875 163.566406 85.703125 168.59375 C 89.222656 173.625 96.144531 174.847656 101.167969 171.324219 "/>
<path style="fill:none;stroke-width:1.25;stroke-linecap:butt;stroke-linejoin:miter;stroke:rgb(100%,100%,100%);stroke-opacity:1;stroke-miterlimit:4;" d="M 11.283784 29.58293 L 24.20397 42.497578 M 11.050465 42.497578 L 24.380279 29.163164 " transform="matrix(3.7,0,0,3.703704,0,0)"/>
</g>
</svg>
