<?xml version="1.0" encoding="UTF-8"?>
<svg xmlns="http://www.w3.org/2000/svg" xmlns:xlink="http://www.w3.org/1999/xlink" width="195pt" height="200pt" viewBox="0 0 195 200" version="1.1">
<g id="surface1">
<path style="fill:none;stroke-width:0.5;stroke-linecap:butt;stroke-linejoin:miter;stroke:rgb(7.058824%,52.54902%,74.509804%);stroke-opacity:1;stroke-miterlimit:4;" d="M 37.753846 22.619434 L 37.753846 2.168633 " transform="matrix(4.0625,0,0,4.081633,0,0)"/>
<path style="fill:none;stroke-width:2.5;stroke-linecap:butt;stroke-linejoin:miter;stroke:rgb(7.058824%,52.54902%,74.509804%);stroke-opacity:1;stroke-miterlimit:4;" d="M 37.753846 22.286387 L 37.753846 8.258223 " transform="matrix(4.0625,0,0,4.081633,0,0)"/>
<path style="fill-rule:nonzero;fill:rgb(0%,0%,0%);fill-opacity:1;stroke-width:1.25;stroke-linecap:butt;stroke-linejoin:miter;stroke:rgb(7.058824%,52.54902%,74.509804%);stroke-opacity:1;stroke-miterlimit:4;" d="M 37.095192 4.132461 L 38.345192 4.132461 L 38.345192 1.631738 L 37.095192 1.631738 Z M 37.095192 4.132461 " transform="matrix(4.0625,0,0,4.081633,0,0)"/>
<path style="fill:none;stroke-width:0.5;stroke-linecap:butt;stroke-linejoin:miter;stroke:rgb(7.058824%,52.54902%,74.509804%);stroke-opacity:1;stroke-miterlimit:4;" d="M 7.435577 22.619434 L 7.435577 2.168633 " transform="matrix(4.0625,0,0,4.081633,0,0)"/>
<path style="fill:none;stroke-width:2.5;stroke-linecap:butt;stroke-linejoin:miter;stroke:rgb(7.058824%,52.54902%,74.509804%);stroke-opacity:1;stroke-miterlimit:4;" d="M 7.435577 22.286387 L 7.435577 8.258223 " transform="matrix(4.0625,0,0,4.081633,0,0)"/>
<path style="fill-rule:nonzero;fill:rgb(0%,0%,0%);fill-opacity:1;stroke-width:1.25;stroke-linecap:butt;stroke-linejoin:miter;stroke:rgb(7.058824%,52.54902%,74.509804%);stroke-opacity:1;stroke-miterlimit:4;" d="M 6.782692 4.132461 L 8.032692 4.132461 L 8.032692 1.631738 L 6.782692 1.631738 Z M 6.782692 4.132461 " transform="matrix(4.0625,0,0,4.081633,0,0)"/>
<path style=" stroke:none;fill-rule:nonzero;fill:rgb(7.058824%,52.54902%,74.509804%);fill-opacity:1;" d="M 187.808594 102.921875 C 187.808594 123.070312 145.992188 139.414062 94.425781 139.414062 C 42.832031 139.414062 1.011719 123.070312 1.011719 102.921875 L 1.011719 156.378906 C 1.011719 176.527344 42.828125 192.871094 94.425781 192.871094 C 146 192.871094 187.808594 176.527344 187.808594 156.378906 L 187.808594 102.917969 "/>
<path style="fill:none;stroke-width:0.5;stroke-linecap:butt;stroke-linejoin:miter;stroke:rgb(100%,100%,100%);stroke-opacity:1;stroke-miterlimit:4;" d="M 46.229808 25.215859 C 46.229808 30.152227 35.936538 34.157402 23.243269 34.157402 C 10.543269 34.157402 0.249038 30.152227 0.249038 25.215859 L 0.249038 38.312832 C 0.249038 43.249199 10.542308 47.253418 23.243269 47.253418 C 35.938462 47.253418 46.229808 43.249199 46.229808 38.312832 L 46.229808 25.214902 Z M 46.229808 25.215859 " transform="matrix(4.0625,0,0,4.081633,0,0)"/>
<path style=" stroke:none;fill-rule:nonzero;fill:rgb(7.058824%,52.54902%,74.509804%);fill-opacity:1;" d="M 94.425781 139.414062 C 146 139.414062 187.808594 123.070312 187.808594 102.921875 C 187.808594 82.753906 146 66.433594 94.425781 66.433594 C 42.832031 66.433594 1.011719 82.753906 1.011719 102.921875 C 1.011719 123.070312 42.828125 139.414062 94.425781 139.414062 "/>
<path style="fill:none;stroke-width:0.5;stroke-linecap:butt;stroke-linejoin:miter;stroke:rgb(100%,100%,100%);stroke-opacity:1;stroke-miterlimit:4;" d="M 23.243269 34.157402 C 35.938462 34.157402 46.229808 30.152227 46.229808 25.215859 C 46.229808 20.274707 35.938462 16.27623 23.243269 16.27623 C 10.543269 16.27623 0.249038 20.274707 0.249038 25.215859 C 0.249038 30.152227 10.542308 34.157402 23.243269 34.157402 Z M 23.243269 34.157402 " transform="matrix(4.0625,0,0,4.081633,0,0)"/>
<path style=" stroke:none;fill-rule:nonzero;fill:rgb(100%,100%,100%);fill-opacity:1;" d="M 73.082031 88.652344 L 80.796875 100.269531 L 51.632812 107.054688 L 58 101.710938 L 12.933594 93.976562 L 24.238281 85.464844 L 67.742188 92.855469 L 73.082031 88.652344 M 114.121094 116.835938 L 108.84375 104.855469 L 135.144531 99.574219 L 130.605469 103.675781 L 174.421875 111.195312 L 163.925781 119.644531 L 120.347656 111.429688 L 114.121094 116.832031 M 99.738281 82.296875 L 129.191406 74.203125 L 129.558594 86.878906 L 122.175781 85.464844 L 107.792969 97.464844 L 94.082031 95.449219 L 108.917969 83.730469 L 99.738281 82.296875 M 87.101562 127.753906 L 59.050781 133.035156 L 58 120.003906 L 66.078125 121.757812 L 81.511719 108.527344 L 95.175781 110.835938 L 78.691406 125.285156 L 87.101562 127.753906 "/>
</g>
</svg>
