<svg width="64" height="64" viewBox="0 0 64 64" fill="none" xmlns="http://www.w3.org/2000/svg">
<path fill-rule="evenodd" clip-rule="evenodd" d="M17.8204 32.5472C19.0288 34.2543 21.0919 35 25.0338 35H29.0156V32.9953L33 36L29.0156 39.0047V37H25.0338C20.9419 37 17.9881 36.2457 16.188 33.7028C15.3175 32.473 14.7792 30.9056 14.4524 28.9969C14.1253 27.0869 14 24.7719 14 22H16C16 24.7281 16.1247 26.9131 16.4237 28.6594C16.7229 30.4069 17.1867 31.652 17.8204 32.5472Z" fill="#161616"/>
<path fill-rule="evenodd" clip-rule="evenodd" d="M11.9595 31.0813C11.6255 29.1304 11.5 26.7828 11.5 24H12.5C12.5 26.7609 12.6252 29.0435 12.9452 30.9125C13.2651 32.7809 13.7848 34.2678 14.5961 35.4139C16.2481 37.7476 18.9789 38.5 23.0338 38.5H27.0156V39.5H23.0338C18.9049 39.5 15.7281 38.7438 13.7799 35.9916C12.8503 34.6783 12.2933 33.0303 11.9595 31.0813Z" fill="black"/>
<path d="M40 32L53 32" stroke="#00ACFF" stroke-width="2" stroke-miterlimit="10"/>
<path d="M48 37L53 32L48 27" stroke="#00ACFF" stroke-width="2" stroke-miterlimit="10" stroke-linejoin="bevel"/>
<path d="M17 57C23.7167 57 30.1592 54.3672 34.9101 49.6794C38.6878 45.9518 41.1498 41.1676 42 36.0298H40.3218C39.4878 40.7273 37.2084 45.096 33.7437 48.5148C29.3038 52.8958 23.281 55.3579 17 55.3579V57Z" fill="#00ACFF"/>
<path d="M40.3218 27.9702C39.4878 23.2727 37.2084 18.904 33.7437 15.4852C29.3038 11.1042 23.281 8.64209 17 8.64209L17 7C23.7167 7 30.1592 9.63276 34.9101 14.3206C38.6878 18.0482 41.1498 22.8324 42 27.9702H40.3218Z" fill="#00ACFF"/>
<path fill-rule="evenodd" clip-rule="evenodd" d="M18.6184 23.9652C18.686 24.9363 18.7842 25.8024 18.9165 26.575C19.2088 28.2822 19.654 29.4467 20.2285 30.2584C21.2892 31.7567 23.1301 32.5 27.0338 32.5V33.5C23.0537 33.5 20.7684 32.7518 19.4123 30.8361C18.7194 29.8572 18.237 28.5316 17.9309 26.7437C17.7917 25.9308 17.6902 25.0305 17.6208 24.0348L18.6184 23.9652Z" fill="black"/>
</svg>
