<svg width="64" height="64" viewBox="0 0 64 64" fill="none" xmlns="http://www.w3.org/2000/svg">
<path fill-rule="evenodd" clip-rule="evenodd" d="M37.8204 32.5472C39.0288 34.2543 41.0919 35 45.0338 35H49.0156V32.9953L53 36L49.0156 39.0047V37H45.0338C40.9419 37 37.9881 36.2457 36.188 33.7028C35.3175 32.473 34.7792 30.9056 34.4524 28.9969C34.1253 27.0869 34 24.7719 34 22H36C36 24.7281 36.1247 26.9131 36.4237 28.6594C36.7229 30.4069 37.1867 31.652 37.8204 32.5472Z" fill="#161616"/>
<path fill-rule="evenodd" clip-rule="evenodd" d="M31.9595 31.0813C31.6255 29.1304 31.5 26.7828 31.5 24H32.5C32.5 26.7609 32.6252 29.0435 32.9452 30.9125C33.2651 32.7809 33.7848 34.2678 34.5961 35.4139C36.2481 37.7476 38.9789 38.5 43.0338 38.5H47.0156V39.5H43.0338C38.9049 39.5 35.7281 38.7438 33.7799 35.9916C32.8503 34.6783 32.2933 33.0303 31.9595 31.0813Z" fill="black"/>
<path d="M24.5 32L11.5 32" stroke="#00ACFF" stroke-width="2" stroke-miterlimit="10"/>
<path d="M16.5 37L11.5 32L16.5 27" stroke="#00ACFF" stroke-width="2" stroke-miterlimit="10" stroke-linejoin="bevel"/>
<path d="M47.5 57C40.7833 57 34.3408 54.3672 29.5899 49.6794C25.8122 45.9518 23.3502 41.1676 22.5 36.0298H24.1782C25.0122 40.7273 27.2916 45.096 30.7563 48.5148C35.1962 52.8958 41.219 55.3579 47.5 55.3579V57Z" fill="#00ACFF"/>
<path d="M24.1782 27.9702C25.0122 23.2727 27.2916 18.904 30.7563 15.4852C35.1962 11.1042 41.219 8.64209 47.5 8.64209L47.5 7C40.7833 7 34.3408 9.63276 29.5899 14.3206C25.8122 18.0482 23.3502 22.8324 22.5 27.9702H24.1782Z" fill="#00ACFF"/>
<path fill-rule="evenodd" clip-rule="evenodd" d="M38.6184 23.9652C38.6861 24.9363 38.7842 25.8024 38.9165 26.575C39.2088 28.2822 39.654 29.4467 40.2285 30.2584C41.2892 31.7567 43.1301 32.5 47.0338 32.5V33.5C43.0537 33.5 40.7684 32.7518 39.4123 30.8361C38.7194 29.8572 38.237 28.5316 37.9309 26.7437C37.7917 25.9308 37.6902 25.0305 37.6208 24.0348L38.6184 23.9652Z" fill="black"/>
</svg>
