<svg width="68" height="68" viewBox="0 0 68 68" fill="none" xmlns="http://www.w3.org/2000/svg">
<path fill-rule="evenodd" clip-rule="evenodd" d="M23.7405 5.43591L23.5351 5.7589L23.1695 5.64463C20.6295 4.85073 18.8729 4.9069 17.6596 5.36107C16.4574 5.81107 15.7155 6.6793 15.2544 7.67236C14.7888 8.67489 14.6186 9.7888 14.569 10.6691C14.5444 11.1061 14.5498 11.4781 14.5613 11.7395C14.5671 11.87 14.5743 11.9725 14.58 12.0412C14.5828 12.0755 14.5853 12.1014 14.5869 12.1181L14.5888 12.1361L14.5892 12.1397L14.6405 12.5843L14.2042 12.6843C11.681 13.2627 10.0483 14.2714 8.99865 15.4252C7.94813 16.5799 7.44979 17.915 7.25526 19.1984C7.06012 20.4859 7.17263 21.7117 7.33735 22.6218C7.41942 23.0753 7.51371 23.4463 7.58686 23.7022C7.6234 23.8301 7.65458 23.9288 7.67619 23.9945C7.687 24.0273 7.6954 24.0518 7.70087 24.0675L7.70681 24.0843L7.70796 24.0875L7.89392 24.5932L7.37664 24.7407L7.36593 24.7439C7.35687 24.7466 7.34216 24.7512 7.32219 24.7576C7.28224 24.7705 7.22129 24.791 7.14233 24.8199C6.98432 24.8776 6.75481 24.9688 6.47767 25.0999C5.92239 25.3625 5.18192 25.7824 4.44285 26.4096C2.97475 27.6553 1.5 29.7256 1.5 33.0688C1.5 36.4368 2.85421 38.819 4.20976 40.3654C4.88907 41.1404 5.56838 41.7045 6.07609 42.0738C6.32968 42.2583 6.53962 42.3935 6.68415 42.4815C6.75639 42.5255 6.8122 42.5577 6.84885 42.5783C6.85963 42.5844 6.86875 42.5894 6.87614 42.5935C6.88131 42.5963 6.88562 42.5987 6.88907 42.6005L6.89774 42.6052L6.8988 42.6057L7.2296 42.778L7.15835 43.1445C6.64416 45.7895 6.82938 47.7469 7.35953 49.1963C7.88832 50.642 8.77328 51.6183 9.72239 52.2836C10.6768 52.9526 11.7001 53.3091 12.492 53.4975C12.8865 53.5914 13.2194 53.6426 13.4516 53.6702C13.5676 53.684 13.658 53.6918 13.7181 53.6962C13.7481 53.6984 13.7704 53.6997 13.7845 53.7004L13.7994 53.7011L13.8014 53.7012L14.2849 53.7171V54.2009C14.2849 56.4643 14.8224 57.982 15.58 59.003C16.3373 60.0236 17.3498 60.5954 18.3865 60.903C19.4282 61.2122 20.4813 61.2501 21.2833 61.2072C21.6823 61.1858 22.0141 61.1448 22.2445 61.1094C22.3595 61.0917 22.4489 61.0755 22.5084 61.064C22.5272 61.0603 22.543 61.0572 22.5556 61.0546C22.563 61.0531 22.5693 61.0518 22.5745 61.0507L22.5896 61.0474L22.5921 61.0468L23.2036 60.907V61.5342C23.2036 61.7866 23.3116 62.1969 23.5893 62.6917C23.8615 63.1768 24.2788 63.7099 24.8492 64.205C25.985 65.191 27.7255 66.0244 30.1285 66.0244C32.4289 66.0244 33.9314 64.7007 34.8841 63.3125C35.36 62.6189 35.6885 61.9219 35.898 61.3965C36.0024 61.1346 36.0765 60.9173 36.124 60.7672C36.1471 60.6944 36.1638 60.6375 36.1748 60.5992V8.66835L36.1755 8.65535L36.1755 8.65417L36.1759 8.64597C36.1762 8.63795 36.1767 8.62486 36.1771 8.60699C36.178 8.57123 36.1788 8.51641 36.1781 8.44475C36.1768 8.30133 36.1696 8.09113 36.1459 7.83203C36.0985 7.3125 35.9853 6.60381 35.7242 5.84546C35.2045 4.33597 34.108 2.64593 31.7638 1.82047C29.4609 1.00957 27.486 1.86415 26.0356 2.98641C25.3118 3.54639 24.735 4.16218 24.3384 4.63993C24.1406 4.87814 23.9891 5.08031 23.8879 5.22156C23.8373 5.29213 23.7994 5.34736 23.7747 5.38412C23.7623 5.40249 23.7533 5.41624 23.7476 5.42496L23.7416 5.43422L23.7405 5.43591ZM37.1748 8.69363L37.1751 8.68643C37.1756 8.67332 37.1762 8.65501 37.1768 8.63176C37.178 8.58529 37.1789 8.51905 37.1781 8.43536C37.1765 8.26808 37.1682 8.03045 37.1418 7.74105C37.089 7.16356 36.9633 6.3725 36.6697 5.5199C36.0801 3.8075 34.8041 1.83087 32.0959 0.877238C29.3463 -0.0909535 27.0156 0.963739 25.4236 2.19551C24.6261 2.81256 23.9975 3.48498 23.569 4.00119C23.3782 4.23095 23.226 4.43112 23.1151 4.58366C20.6243 3.85873 18.7352 3.89068 17.3091 4.42453C15.8051 4.98747 14.8913 6.08004 14.3474 7.25118C13.808 8.41285 13.6239 9.66655 13.5706 10.6128C13.5437 11.0891 13.5496 11.4951 13.5623 11.7834C13.5627 11.7927 13.5631 11.8018 13.5636 11.8108C11.1068 12.4408 9.40669 13.4906 8.25895 14.7522C7.04822 16.0831 6.4839 17.6146 6.26655 19.0486C6.0498 20.4786 6.17618 21.8211 6.35333 22.7999C6.43935 23.2752 6.53805 23.6686 6.61756 23.9496C6.45895 24.0121 6.2669 24.0934 6.05012 24.1959C5.43565 24.4865 4.61644 24.9508 3.79584 25.6471C2.14459 27.0483 0.5 29.3824 0.5 33.0688C0.5 36.7304 1.97956 39.3383 3.45778 41.0246C4.19535 41.866 4.93293 42.4789 5.48788 42.8825C5.73766 43.0642 5.95113 43.204 6.11189 43.3036C5.65229 45.9139 5.83945 47.9516 6.42038 49.5398C7.0284 51.2021 8.05459 52.3358 9.14843 53.1025C10.2369 53.8654 11.3884 54.2628 12.2605 54.4704C12.6755 54.5691 13.031 54.6258 13.292 54.6581C13.3603 56.845 13.9208 58.4451 14.7769 59.5988C15.6919 60.8319 16.909 61.5077 18.102 61.8617C19.29 62.2143 20.4665 62.2523 21.3368 62.2057C21.7118 62.1857 22.0337 62.1497 22.2802 62.1149C22.3639 62.4552 22.5139 62.8187 22.7172 63.1811C23.0477 63.7699 23.5393 64.3922 24.1936 64.9602C25.5072 66.1004 27.4791 67.0244 30.1285 67.0244C32.8806 67.0244 34.6513 65.4191 35.7086 63.8783C36.2376 63.1074 36.5984 62.3399 36.8268 61.7669C36.9414 61.4796 37.0235 61.2392 37.0774 61.069C37.1043 60.9839 37.1243 60.9161 37.1378 60.8687C37.1445 60.8449 37.1496 60.8263 37.1532 60.813L37.1573 60.7973L37.1586 60.7926L37.159 60.791C37.159 60.7907 37.1593 60.7899 36.6748 60.6664L37.1593 60.7899L37.1748 60.7291V8.69363Z" fill="#22DDE5"/>
<path fill-rule="evenodd" clip-rule="evenodd" d="M23.5108 6.96345C23.5202 6.68769 23.3044 6.45642 23.0286 6.44679C22.7526 6.43715 22.5211 6.65306 22.5114 6.92904L23.0103 6.94645C22.5114 6.92904 22.5114 6.92868 22.5114 6.92904L22.5114 6.93059L22.5113 6.93295L22.5111 6.94007L22.5106 6.96372C22.5103 6.9836 22.5101 7.01159 22.5102 7.0471C22.5105 7.11809 22.5125 7.21924 22.5189 7.34561C22.5316 7.59806 22.5621 7.95281 22.6328 8.36984C22.7736 9.20005 23.0777 10.2984 23.7381 11.3279C24.4033 12.365 25.4267 13.3254 26.981 13.8628C28.5281 14.3977 30.5602 14.4996 33.2258 13.8998C33.4952 13.8391 33.6645 13.5716 33.6039 13.3022C33.5432 13.0328 33.2757 12.8635 33.0063 12.9242C30.4657 13.4959 28.6316 13.3754 27.3078 12.9177C25.9912 12.4625 25.1392 11.6601 24.5798 10.788C24.0155 9.90818 23.7456 8.9508 23.6187 8.20261C23.5556 7.83044 23.5287 7.51532 23.5176 7.2952C23.5121 7.18528 23.5105 7.09947 23.5102 7.04257C23.5101 7.01413 23.5103 6.99295 23.5105 6.97964L23.5108 6.96565L23.5108 6.96345C23.5108 6.96331 23.5108 6.96333 23.5108 6.96345Z" fill="#22DDE5"/>
<path fill-rule="evenodd" clip-rule="evenodd" d="M26.0736 12.3059C26.325 12.4201 26.4362 12.7165 26.322 12.9679C25.6596 14.4255 24.7883 15.3665 23.8302 15.9361C22.8752 16.5038 21.8696 16.6816 20.9687 16.6728C20.0703 16.664 19.2641 16.4699 18.6868 16.2813C18.3969 16.1866 18.1612 16.0921 17.9963 16.0204C17.9138 15.9845 17.8488 15.9543 17.8033 15.9324C17.7806 15.9215 17.7627 15.9127 17.7499 15.9063L17.7347 15.8985L17.73 15.8961L17.7283 15.8953C17.7281 15.8951 17.7272 15.8947 17.9586 15.4514L17.7272 15.8947C17.4824 15.7669 17.3876 15.4649 17.5153 15.2201C17.643 14.9755 17.9446 14.8806 18.1892 15.0078C18.1893 15.0078 18.1892 15.0078 18.1892 15.0078L18.1904 15.0084L18.1984 15.0124C18.2062 15.0164 18.219 15.0227 18.2364 15.0311C18.2713 15.0479 18.3249 15.0728 18.395 15.1033C18.5355 15.1644 18.7416 15.2472 18.9974 15.3308C19.5116 15.4988 20.2129 15.6654 20.9785 15.6729C21.7416 15.6803 22.5565 15.5299 23.3191 15.0766C24.0785 14.6251 24.8218 13.8521 25.4116 12.5542C25.5258 12.3028 25.8222 12.1916 26.0736 12.3059Z" fill="#22DDE5"/>
<path fill-rule="evenodd" clip-rule="evenodd" d="M9.03992 23.9564L8.85526 23.4917C8.59864 23.5937 8.47328 23.8844 8.57526 24.141C8.67721 24.3975 8.96772 24.5229 9.22426 24.4211L9.22676 24.4202L9.23945 24.4153C9.25136 24.4107 9.27008 24.4037 9.29527 24.3945C9.34567 24.3762 9.42188 24.3493 9.52111 24.3167C9.71969 24.2517 10.0097 24.1643 10.3688 24.0777C11.089 23.9039 12.0768 23.7357 13.1571 23.7512C15.3062 23.782 17.7833 24.5314 19.319 27.4032C19.4492 27.6467 19.7522 27.7385 19.9957 27.6083C20.2392 27.4781 20.331 27.1751 20.2008 26.9316C18.4415 23.6416 15.5585 22.7855 13.1714 22.7513C11.9836 22.7342 10.9092 22.9186 10.1343 23.1055C9.74583 23.1993 9.43001 23.2943 9.20967 23.3665C9.09944 23.4026 9.01291 23.4331 8.95294 23.4549C8.92295 23.4659 8.89957 23.4746 8.88318 23.4809L8.86386 23.4883L8.85821 23.4906L8.85639 23.4913C8.85614 23.4914 8.85526 23.4917 9.03992 23.9564Z" fill="#22DDE5"/>
<path fill-rule="evenodd" clip-rule="evenodd" d="M21.2098 48.6467L21.1463 48.1507C20.8724 48.1858 20.6788 48.4363 20.7138 48.7102C20.7489 48.9839 20.9991 49.1775 21.2728 49.1427L21.2775 49.1422C21.2832 49.1416 21.2932 49.1405 21.3072 49.1393C21.3352 49.1368 21.3792 49.1335 21.437 49.1311C21.5529 49.126 21.7234 49.1242 21.9325 49.1381C22.3522 49.166 22.9168 49.2565 23.5036 49.5035C24.646 49.9843 25.9505 51.088 26.384 53.7181C26.4289 53.9906 26.6862 54.1751 26.9587 54.1302C27.2311 54.0853 27.4156 53.828 27.3707 53.5555C26.8816 50.5881 25.3523 49.1966 23.8916 48.5818C23.1768 48.281 22.4975 48.1735 21.9988 48.1403C21.7485 48.1237 21.5412 48.1256 21.3939 48.132C21.3202 48.1352 21.2613 48.1395 21.2194 48.1432C21.1984 48.145 21.1817 48.1467 21.1694 48.148L21.1544 48.1497L21.1495 48.1503L21.1477 48.1506C21.1473 48.1506 21.1463 48.1507 21.2098 48.6467Z" fill="#22DDE5"/>
<path fill-rule="evenodd" clip-rule="evenodd" d="M23.5106 59.4721L23.5104 59.4626C23.5101 59.4532 23.5098 59.4378 23.5097 59.4167C23.5096 59.3745 23.5102 59.3098 23.5138 59.2259C23.521 59.058 23.5399 58.8144 23.5872 58.5215C23.682 57.9334 23.8888 57.1599 24.3325 56.4004C24.7737 55.6454 25.4515 54.8991 26.5029 54.3556C27.5566 53.8109 29.0137 53.4555 31.033 53.529C31.3089 53.5391 31.5408 53.3235 31.5508 53.0475C31.5609 52.7716 31.3453 52.5397 31.0693 52.5297C28.9149 52.4513 27.28 52.8282 26.0437 53.4673C24.805 54.1076 23.9945 54.9966 23.4691 55.8959C22.9463 56.7908 22.7083 57.6906 22.5999 58.3622C22.5456 58.6992 22.5233 58.9821 22.5147 59.1832C22.5104 59.2838 22.5095 59.3642 22.5098 59.421C22.5099 59.4494 22.5103 59.472 22.5107 59.4882L22.5113 59.5077L22.5115 59.5139L22.5116 59.516C22.5116 59.5163 22.5117 59.5175 23.0112 59.4948L22.5117 59.5175C22.5242 59.7934 22.758 60.0068 23.0339 59.9943C23.3095 59.9818 23.5229 59.7477 23.5106 59.4721Z" fill="#22DDE5"/>
<path fill-rule="evenodd" clip-rule="evenodd" d="M10.7973 31.1822C9.4176 31.1822 8.30976 32.2852 8.30976 33.6329C8.30976 34.9805 9.4176 36.0836 10.7973 36.0836C12.177 36.0836 13.2848 34.9805 13.2848 33.6329C13.2848 32.2852 12.177 31.1822 10.7973 31.1822ZM7.30976 33.6329C7.30976 31.7213 8.87706 30.1822 10.7973 30.1822C12.7175 30.1822 14.2848 31.7213 14.2848 33.6329C14.2848 35.5445 12.7175 37.0836 10.7973 37.0836C8.87706 37.0836 7.30976 35.5445 7.30976 33.6329Z" fill="#22DDE5"/>
<path fill-rule="evenodd" clip-rule="evenodd" d="M28.3711 22.3735C26.9914 22.3735 25.8835 23.4766 25.8835 24.8242C25.8835 26.1719 26.9914 27.2749 28.3711 27.2749C29.7508 27.2749 30.8586 26.1719 30.8586 24.8242C30.8586 23.4766 29.7508 22.3735 28.3711 22.3735ZM24.8835 24.8242C24.8835 22.9126 26.4508 21.3735 28.3711 21.3735C30.2913 21.3735 31.8586 22.9126 31.8586 24.8242C31.8586 26.7358 30.2913 28.2749 28.3711 28.2749C26.4508 28.2749 24.8835 26.7358 24.8835 24.8242Z" fill="#22DDE5"/>
<path fill-rule="evenodd" clip-rule="evenodd" d="M29.8649 4.19206C28.4852 4.19206 27.3773 5.2951 27.3773 6.64275C27.3773 7.99039 28.4852 9.09344 29.8649 9.09344C31.2446 9.09344 32.3524 7.99039 32.3524 6.64275C32.3524 5.2951 31.2446 4.19206 29.8649 4.19206ZM26.3773 6.64275C26.3773 4.73115 27.9446 3.19206 29.8649 3.19206C31.7851 3.19206 33.3524 4.73115 33.3524 6.64275C33.3524 8.55435 31.7851 10.0934 29.8649 10.0934C27.9446 10.0934 26.3773 8.55434 26.3773 6.64275Z" fill="#22DDE5"/>
<path fill-rule="evenodd" clip-rule="evenodd" d="M13.7849 44.1132C12.4052 44.1132 11.2973 45.2162 11.2973 46.5639C11.2973 47.9115 12.4052 49.0145 13.7849 49.0145C15.1645 49.0145 16.2724 47.9115 16.2724 46.5639C16.2724 45.2162 15.1645 44.1132 13.7849 44.1132ZM10.2973 46.5639C10.2973 44.6523 11.8646 43.1132 13.7849 43.1132C15.7051 43.1132 17.2724 44.6523 17.2724 46.5639C17.2724 48.4754 15.7051 50.0145 13.7849 50.0145C11.8646 50.0145 10.2973 48.4754 10.2973 46.5639Z" fill="#22DDE5"/>
<path fill-rule="evenodd" clip-rule="evenodd" d="M29.8649 57.0441C28.4852 57.0441 27.3773 58.1472 27.3773 59.4948C27.3773 60.8425 28.4852 61.9455 29.8649 61.9455C31.2446 61.9455 32.3524 60.8425 32.3524 59.4948C32.3524 58.1472 31.2446 57.0441 29.8649 57.0441ZM26.3773 59.4948C26.3773 57.5832 27.9446 56.0441 29.8649 56.0441C31.7851 56.0441 33.3524 57.5832 33.3524 59.4948C33.3524 61.4064 31.7851 62.9455 29.8649 62.9455C27.9446 62.9455 26.3773 61.4064 26.3773 59.4948Z" fill="#22DDE5"/>
<path fill-rule="evenodd" clip-rule="evenodd" d="M13.2848 33.6329C13.2848 33.3567 13.5087 33.1329 13.7848 33.1329H32.9774L36.8437 36.0836H42.0347C42.3108 36.0836 42.5347 36.3074 42.5347 36.5836C42.5347 36.8597 42.3108 37.0836 42.0347 37.0836H36.5057L32.6394 34.1329H13.7848C13.5087 34.1329 13.2848 33.909 13.2848 33.6329Z" fill="#22DDE5"/>
<path fill-rule="evenodd" clip-rule="evenodd" d="M53.4281 36.0836H62.8596C63.1357 36.0836 63.3596 36.3074 63.3596 36.5836C63.3596 36.8597 63.1357 37.0836 62.8596 37.0836H53.8386L44.6131 46.1954L16.6421 46.2828C16.366 46.2837 16.1414 46.0605 16.1406 45.7844C16.1397 45.5082 16.3629 45.2837 16.639 45.2828L44.2012 45.1966L53.4281 36.0836Z" fill="#22DDE5"/>
<path fill-rule="evenodd" clip-rule="evenodd" d="M41.3696 54.3084H51.5684C51.8446 54.3084 52.0684 54.5323 52.0684 54.8084C52.0684 55.0846 51.8446 55.3084 51.5684 55.3084H41.5574L32.7262 58.7458C32.4689 58.846 32.179 58.7185 32.0789 58.4612C31.9787 58.2039 32.1061 57.9141 32.3635 57.8139L41.3696 54.3084Z" fill="#22DDE5"/>
<path fill-rule="evenodd" clip-rule="evenodd" d="M54.2966 15.6642C54.4907 15.8606 54.4887 16.1772 54.2923 16.3713L45.2275 25.3242H31.3147C31.0385 25.3242 30.8147 25.1003 30.8147 24.8242C30.8147 24.5481 31.0385 24.3242 31.3147 24.3242H44.8169L53.5895 15.6598C53.786 15.4657 54.1026 15.4677 54.2966 15.6642Z" fill="#22DDE5"/>
<path fill-rule="evenodd" clip-rule="evenodd" d="M32.3085 6.64275C32.3085 6.3666 32.5324 6.14275 32.8085 6.14275H42.6498C42.926 6.14275 43.1498 6.3666 43.1498 6.64275C43.1498 6.91889 42.926 7.14275 42.6498 7.14275H32.8085C32.5324 7.14275 32.3085 6.91889 32.3085 6.64275Z" fill="#22DDE5"/>
<path d="M44.5829 8.98594C45.9902 8.98594 47.131 7.85914 47.131 6.46917C47.131 5.0792 45.9902 3.95241 44.5829 3.95241C43.1755 3.95241 42.0347 5.0792 42.0347 6.46917C42.0347 7.85914 43.1755 8.98594 44.5829 8.98594Z" fill="#22DDE5"/>
<path d="M44.2753 39.2305C45.8282 39.2305 47.0871 37.9872 47.0871 36.4534C47.0871 34.9196 45.8282 33.6763 44.2753 33.6763C42.7224 33.6763 41.4635 34.9196 41.4635 36.4534C41.4635 37.9872 42.7224 39.2305 44.2753 39.2305Z" fill="#22DDE5"/>
<path d="M54.2484 18.9662C56.2138 18.9662 57.8071 17.3926 57.8071 15.4514C57.8071 13.5102 56.2138 11.9366 54.2484 11.9366C52.283 11.9366 50.6897 13.5102 50.6897 15.4514C50.6897 17.3926 52.283 18.9662 54.2484 18.9662Z" fill="#22DDE5"/>
<path d="M63.7822 40.4021C65.9903 40.4021 67.7803 38.6342 67.7803 36.4534C67.7803 34.2726 65.9903 32.5047 63.7822 32.5047C61.5742 32.5047 59.7842 34.2726 59.7842 36.4534C59.7842 38.6342 61.5742 40.4021 63.7822 40.4021Z" fill="#22DDE5"/>
<path d="M53.1941 58.7571C55.0867 58.7571 56.621 57.2418 56.621 55.3725C56.621 53.5033 55.0867 51.9879 53.1941 51.9879C51.3015 51.9879 49.7672 53.5033 49.7672 55.3725C49.7672 57.2418 51.3015 58.7571 53.1941 58.7571Z" fill="#22DDE5"/>
</svg>
