<svg width="206" height="45" viewBox="0 0 206 45" fill="none" xmlns="http://www.w3.org/2000/svg">
<path fill-rule="evenodd" clip-rule="evenodd" d="M7.75807 3.41121C12.1035 1.87958 18.0753 0.944824 24.6515 0.944824C31.2277 0.944824 37.1995 1.87958 41.5449 3.41121C43.7154 4.17623 45.5072 5.09956 46.7661 6.15139C48.0225 7.20114 48.803 8.42868 48.803 9.79171C48.803 11.1547 48.0225 12.3823 46.7661 13.432C45.5072 14.4839 43.7154 15.4072 41.5449 16.1722C37.1995 17.7038 31.2277 18.6386 24.6515 18.6386C18.0753 18.6386 12.1035 17.7038 7.75807 16.1722C5.58759 15.4072 3.79577 14.4839 2.53691 13.432C1.28053 12.3823 0.5 11.1547 0.5 9.79171C0.5 8.42868 1.28053 7.20114 2.53691 6.15139C3.79577 5.09956 5.58759 4.17623 7.75807 3.41121ZM3.17809 6.91878C2.04209 7.86794 1.5 8.84076 1.5 9.79171C1.5 10.7427 2.04209 11.7155 3.17809 12.6646C4.3116 13.6117 5.98192 14.4859 8.0905 15.2291C12.3032 16.7139 18.1572 17.6386 24.6515 17.6386C31.1458 17.6386 36.9998 16.7139 41.2125 15.2291C43.3211 14.4859 44.9914 13.6117 46.1249 12.6646C47.2609 11.7155 47.803 10.7427 47.803 9.79171C47.803 8.84076 47.2609 7.86794 46.1249 6.91878C44.9914 5.97169 43.3211 5.09754 41.2125 4.35434C36.9998 2.86952 31.1458 1.94482 24.6515 1.94482C18.1572 1.94482 12.3032 2.86952 8.0905 4.35434C5.98192 5.09754 4.3116 5.97169 3.17809 6.91878ZM0.5 22.56V14.2131H1.5C1.5 15.1525 2.0407 16.1201 3.17772 17.0683C4.31159 18.0138 5.98233 18.8894 8.091 19.6351C12.3038 21.1251 18.1578 22.06 24.6515 22.06C31.1452 22.06 36.9991 21.1251 41.212 19.6351C43.3207 18.8894 44.9914 18.0138 46.1253 17.0683C47.2623 16.1201 47.803 15.1525 47.803 14.2131H48.803V22.56C48.803 23.923 48.0225 25.1505 46.7661 26.2003C45.5072 27.2521 43.7154 28.1755 41.5449 28.9405C37.1995 30.4721 31.2277 31.4069 24.6515 31.4069C18.0746 31.4069 12.1028 30.4616 7.75757 28.9248C5.58719 28.1572 3.79578 27.2327 2.53727 26.1832C1.28191 25.1363 0.5 23.9139 0.5 22.56ZM47.803 16.7942C47.5108 17.1581 47.1618 17.5059 46.7657 17.8363C45.5072 18.8858 43.7158 19.8103 41.5454 20.5779C37.2001 22.1147 31.2283 23.06 24.6515 23.06C18.0746 23.06 12.1028 22.1147 7.75757 20.5779C5.58719 19.8103 3.79578 18.8858 2.53727 17.8363C2.14114 17.5059 1.79215 17.1581 1.5 16.7942V22.56C1.5 23.4993 2.0407 24.467 3.17772 25.4152C4.31159 26.3607 5.98233 27.2362 8.091 27.982C12.3038 29.472 18.1578 30.4069 24.6515 30.4069C31.1458 30.4069 36.9998 29.4822 41.2125 27.9973C43.3211 27.2541 44.9914 26.38 46.1249 25.4329C47.2609 24.4837 47.803 23.5109 47.803 22.56V16.7942ZM0.5 35.2869V26.94H1.5C1.5 27.8794 2.0407 28.847 3.17772 29.7952C4.31159 30.7408 5.98233 31.6163 8.091 32.3621C12.3038 33.852 18.1578 34.7869 24.6515 34.7869C31.1452 34.7869 36.9991 33.852 41.212 32.3621C43.3207 31.6163 44.9914 30.7408 46.1253 29.7952C47.2623 28.847 47.803 27.8794 47.803 26.94H48.803V35.2869C48.803 36.6499 48.0225 37.8775 46.7661 38.9272C45.5072 39.9791 43.7154 40.9024 41.5449 41.6674C37.1995 43.199 31.2277 44.1338 24.6515 44.1338C18.0746 44.1338 12.1028 43.1885 7.75757 41.6517C5.58719 40.8841 3.79578 39.9596 2.53727 38.9101C1.28191 37.8632 0.5 36.6409 0.5 35.2869ZM47.803 29.5212C47.5108 29.8851 47.1618 30.2329 46.7657 30.5632C45.5072 31.6127 43.7158 32.5372 41.5454 33.3049C37.2001 34.8417 31.2283 35.7869 24.6515 35.7869C18.0746 35.7869 12.1028 34.8417 7.75757 33.3049C5.58719 32.5372 3.79578 31.6127 2.53727 30.5632C2.14114 30.2329 1.79215 29.8851 1.5 29.5212V35.2869C1.5 36.2263 2.0407 37.1939 3.17772 38.1421C4.31159 39.0877 5.98233 39.9632 8.091 40.709C12.3038 42.1989 18.1578 43.1338 24.6515 43.1338C31.1458 43.1338 36.9998 42.2091 41.2125 40.7243C43.3211 39.9811 44.9914 39.1069 46.1249 38.1598C47.2609 37.2107 47.803 36.2379 47.803 35.2869V29.5212Z" fill="#22DDE5"/>
<path fill-rule="evenodd" clip-rule="evenodd" d="M80.5 30.5948C80.5 27.9067 82.685 25.7338 85.3792 25.7338C88.0735 25.7338 90.2585 27.9067 90.2585 30.5948C90.2585 33.283 88.0735 35.4559 85.3792 35.4559C82.685 35.4559 80.5 33.283 80.5 30.5948ZM85.3792 26.7338C83.2333 26.7338 81.5 28.4629 81.5 30.5948C81.5 32.7268 83.2333 34.4559 85.3792 34.4559C87.5252 34.4559 89.2585 32.7268 89.2585 30.5948C89.2585 28.4629 87.5252 26.7338 85.3792 26.7338Z" fill="#22DDE5"/>
<path fill-rule="evenodd" clip-rule="evenodd" d="M80.5 13.648C80.5 10.9599 82.685 8.78702 85.3792 8.78702C88.0735 8.78702 90.2585 10.9599 90.2585 13.648C90.2585 16.2951 88.0764 18.5091 85.3792 18.5091C82.685 18.5091 80.5 16.3362 80.5 13.648ZM85.3792 9.78702C83.2333 9.78702 81.5 11.5161 81.5 13.648C81.5 15.78 83.2333 17.5091 85.3792 17.5091C87.5223 17.5091 89.2585 15.7446 89.2585 13.648C89.2585 11.5161 87.5252 9.78702 85.3792 9.78702Z" fill="#22DDE5"/>
<path fill-rule="evenodd" clip-rule="evenodd" d="M101.474 22.7909C101.474 20.1027 103.659 17.9298 106.353 17.9298C109.048 17.9298 111.233 20.1027 111.233 22.7909H110.233C110.233 20.6589 108.499 18.9298 106.353 18.9298C104.208 18.9298 102.474 20.6589 102.474 22.7909H101.474Z" fill="#22DDE5"/>
<path fill-rule="evenodd" clip-rule="evenodd" d="M102.474 22.7909C102.474 24.9228 104.208 26.652 106.353 26.652C108.499 26.652 110.233 24.9228 110.233 22.7909H111.233C111.233 25.479 109.048 27.652 106.353 27.652C103.659 27.652 101.474 25.479 101.474 22.7909H102.474Z" fill="#22DDE5"/>
<path fill-rule="evenodd" clip-rule="evenodd" d="M122.448 22.7909C122.448 20.1027 124.633 17.9298 127.328 17.9298C130.022 17.9298 132.207 20.1027 132.207 22.7909C132.207 25.479 130.022 27.6519 127.328 27.6519C124.633 27.6519 122.448 25.479 122.448 22.7909ZM127.328 18.9298C125.182 18.9298 123.448 20.6589 123.448 22.7909C123.448 24.9228 125.182 26.6519 127.328 26.6519C129.474 26.6519 131.207 24.9228 131.207 22.7909C131.207 20.6589 129.474 18.9298 127.328 18.9298Z" fill="#22DDE5"/>
<path fill-rule="evenodd" clip-rule="evenodd" d="M106.353 1.94482C104.208 1.94482 102.474 3.67392 102.474 5.80585H101.474C101.474 3.1177 103.659 0.944824 106.353 0.944824C109.048 0.944824 111.233 3.1177 111.233 5.80585H110.233C110.233 3.67392 108.499 1.94482 106.353 1.94482Z" fill="#22DDE5"/>
<path fill-rule="evenodd" clip-rule="evenodd" d="M106.353 10.6669C103.659 10.6669 101.474 8.494 101.474 5.80585H102.474C102.474 7.93779 104.208 9.66686 106.353 9.66686C108.499 9.66686 110.233 7.93779 110.233 5.80585H111.233C111.233 8.494 109.048 10.6669 106.353 10.6669Z" fill="#22DDE5"/>
<path fill-rule="evenodd" clip-rule="evenodd" d="M102.474 39.3169C102.474 41.4488 104.208 43.1779 106.353 43.1779C108.499 43.1779 110.233 41.4488 110.233 39.3169H111.233C111.233 42.0051 109.048 44.1779 106.353 44.1779C103.659 44.1779 101.474 42.0051 101.474 39.3169H102.474Z" fill="#22DDE5"/>
<path fill-rule="evenodd" clip-rule="evenodd" d="M101.474 39.3169C101.474 36.6288 103.659 34.4558 106.353 34.4558C109.048 34.4558 111.233 36.6288 111.233 39.3169H110.233C110.233 37.185 108.499 35.4558 106.353 35.4558C104.208 35.4558 102.474 37.185 102.474 39.3169H101.474Z" fill="#22DDE5"/>
<path fill-rule="evenodd" clip-rule="evenodd" d="M95.6736 26.2336L101.705 22.3699L102.244 23.2119L96.213 27.0757L95.6736 26.2336Z" fill="#22DDE5"/>
<path fill-rule="evenodd" clip-rule="evenodd" d="M101.674 23.1906L95.5661 18.6L96.1669 17.8006L102.275 22.3912L101.674 23.1906Z" fill="#22DDE5"/>
<path fill-rule="evenodd" clip-rule="evenodd" d="M95.491 26.8679L93.4166 22.4686L94.3211 22.0421L96.3955 26.4414L95.491 26.8679Z" fill="#22DDE5"/>
<path fill-rule="evenodd" clip-rule="evenodd" d="M93.4203 22.0344L95.4179 17.9794L96.3149 18.4213L94.3174 22.4763L93.4203 22.0344Z" fill="#22DDE5"/>
<path fill-rule="evenodd" clip-rule="evenodd" d="M102.244 6.2266L90.0285 14.0688L89.4883 13.2273L101.704 5.38508L102.244 6.2266Z" fill="#22DDE5"/>
<path fill-rule="evenodd" clip-rule="evenodd" d="M89.31 30.3738L93.4203 22.0344L94.3174 22.4763L90.2069 30.8159L89.31 30.3738Z" fill="#22DDE5"/>
<path fill-rule="evenodd" clip-rule="evenodd" d="M93.4176 22.4708L89.3072 13.8635L90.2096 13.4326L94.32 22.0399L93.4176 22.4708Z" fill="#22DDE5"/>
<path fill-rule="evenodd" clip-rule="evenodd" d="M101.684 39.7238L89.4679 31.0017L90.049 30.1879L102.265 38.91L101.684 39.7238Z" fill="#22DDE5"/>
<path fill-rule="evenodd" clip-rule="evenodd" d="M95.4179 17.9794L101.526 5.58482L102.423 6.02685L96.3149 18.4213L95.4179 17.9794Z" fill="#22DDE5"/>
<path fill-rule="evenodd" clip-rule="evenodd" d="M96.2118 27.0763L90.0271 31.0165L89.4898 30.1731L95.6745 26.2329L96.2118 27.0763Z" fill="#22DDE5"/>
<path fill-rule="evenodd" clip-rule="evenodd" d="M101.523 39.5319L95.4919 26.8696L96.3947 26.4396L102.426 39.1019L101.523 39.5319Z" fill="#22DDE5"/>
<path fill-rule="evenodd" clip-rule="evenodd" d="M95.5675 18.6012L89.4596 14.0489L90.0572 13.2471L96.1651 17.7994L95.5675 18.6012Z" fill="#22DDE5"/>
<path fill-rule="evenodd" clip-rule="evenodd" d="M111.139 5.5139L123.355 22.4989L122.543 23.0828L110.327 6.09778L111.139 5.5139Z" fill="#22DDE5"/>
<path fill-rule="evenodd" clip-rule="evenodd" d="M122.949 23.2909H110.733V22.2909H122.949V23.2909Z" fill="#22DDE5"/>
<path fill-rule="evenodd" clip-rule="evenodd" d="M110.331 39.0197L122.547 22.4937L123.351 23.0881L111.135 39.6141L110.331 39.0197Z" fill="#22DDE5"/>
<path fill-rule="evenodd" clip-rule="evenodd" d="M163.055 1H164.055V42.9448H206V43.9448H163.055V1Z" fill="#22DDE5"/>
<path fill-rule="evenodd" clip-rule="evenodd" d="M170.812 31.4578C169.94 31.4578 169.237 32.1609 169.237 33.0239C169.237 33.8868 169.94 34.5899 170.812 34.5899C171.684 34.5899 172.387 33.8868 172.387 33.0239C172.387 32.1609 171.684 31.4578 170.812 31.4578ZM168.237 33.0239C168.237 31.6047 169.392 30.4578 170.812 30.4578C172.232 30.4578 173.387 31.6047 173.387 33.0239C173.387 34.443 172.232 35.5899 170.812 35.5899C169.392 35.5899 168.237 34.443 168.237 33.0239Z" fill="#22DDE5"/>
<path fill-rule="evenodd" clip-rule="evenodd" d="M200.441 9.41546L192.35 21.6878L191.515 21.1374L199.606 8.86502L200.441 9.41546Z" fill="#22DDE5"/>
<path fill-rule="evenodd" clip-rule="evenodd" d="M183.241 17.5633L189.3 21.4888L188.756 22.328L182.698 18.4025L183.241 17.5633Z" fill="#22DDE5"/>
<path fill-rule="evenodd" clip-rule="evenodd" d="M180.523 18.9616L172.224 31.4819L171.391 30.9295L179.69 18.4092L180.523 18.9616Z" fill="#22DDE5"/>
<path fill-rule="evenodd" clip-rule="evenodd" d="M181.185 15.3426C180.314 15.3426 179.611 16.0457 179.611 16.9086C179.611 17.7716 180.314 18.4747 181.185 18.4747C182.057 18.4747 182.76 17.7716 182.76 16.9086C182.76 16.0457 182.057 15.3426 181.185 15.3426ZM178.611 16.9086C178.611 15.4895 179.765 14.3426 181.185 14.3426C182.605 14.3426 183.76 15.4895 183.76 16.9086C183.76 18.3278 182.605 19.4747 181.185 19.4747C179.765 19.4747 178.611 18.3278 178.611 16.9086Z" fill="#22DDE5"/>
<path fill-rule="evenodd" clip-rule="evenodd" d="M190.729 21.5408C189.857 21.5408 189.154 22.2439 189.154 23.1068C189.154 23.9698 189.857 24.6729 190.729 24.6729C191.6 24.6729 192.304 23.9698 192.304 23.1068C192.304 22.2439 191.6 21.5408 190.729 21.5408ZM188.154 23.1068C188.154 21.6877 189.309 20.5408 190.729 20.5408C192.149 20.5408 193.304 21.6877 193.304 23.1068C193.304 24.526 192.149 25.6729 190.729 25.6729C189.309 25.6729 188.154 24.526 188.154 23.1068Z" fill="#22DDE5"/>
<path fill-rule="evenodd" clip-rule="evenodd" d="M201.102 5.83868C200.231 5.83868 199.528 6.54179 199.528 7.40474C199.528 8.26769 200.231 8.97079 201.102 8.97079C201.974 8.97079 202.677 8.26769 202.677 7.40474C202.677 6.54179 201.974 5.83868 201.102 5.83868ZM198.528 7.40474C198.528 5.98558 199.682 4.83868 201.102 4.83868C202.522 4.83868 203.677 5.98558 203.677 7.40474C203.677 8.82389 202.522 9.97079 201.102 9.97079C199.682 9.97079 198.528 8.82389 198.528 7.40474Z" fill="#22DDE5"/>
<path d="M69 22.5L63.75 25.5311V19.4689L69 22.5Z" fill="#22DDE5"/>
<path d="M152 22.5L146.75 25.5311V19.4689L152 22.5Z" fill="#22DDE5"/>
</svg>
