<svg xmlns="http://www.w3.org/2000/svg" width="85" height="14" viewBox="0 0 85 14" fill="none">
<path d="M0.161418 10.413C0.0461189 10.2988 0 10.1389 0 9.95624V0.662089C0 0.479403 0.0461189 0.342389 0.161418 0.22821C0.276717 0.114031 0.438136 0.0683594 0.622614 0.0683594H4.17383C5.2807 0.0683594 6.13391 0.342388 6.75652 0.867611C7.37914 1.39283 7.67892 2.14641 7.67892 3.12835C7.67892 4.11029 7.37914 4.86387 6.75652 5.41193C6.13391 5.95998 5.2807 6.23401 4.17383 6.23401H1.22217V9.95624C1.22217 10.1389 1.17605 10.2988 1.06075 10.413C0.945452 10.5271 0.807093 10.5728 0.622614 10.5728C0.415076 10.5956 0.276717 10.5271 0.161418 10.413ZM4.05853 5.22924C5.67271 5.22924 6.45675 4.52133 6.45675 3.15119C6.45675 1.78104 5.64965 1.09597 4.05853 1.09597H1.22217V5.25208H4.05853V5.22924Z" fill="white"/>
<path d="M15.1493 8.97486C15.2185 9.06621 15.2646 9.18038 15.2646 9.3174C15.2646 9.56859 15.0801 9.79695 14.7342 10.0025C14.3653 10.208 13.9963 10.3678 13.6043 10.4592C13.2123 10.5734 12.8202 10.619 12.4282 10.619C11.2983 10.619 10.422 10.2993 9.75329 9.6371C9.10762 8.97486 8.76172 8.06143 8.76172 6.89681C8.76172 6.16606 8.90008 5.50383 9.19986 4.93293C9.49963 4.36204 9.89165 3.92816 10.422 3.60846C10.9524 3.28876 11.552 3.12891 12.2207 3.12891C13.1661 3.12891 13.9271 3.42577 14.4805 4.04234C15.034 4.6589 15.3107 5.48099 15.3107 6.53143C15.3107 6.73696 15.2646 6.87397 15.1954 6.96531C15.1262 7.05666 14.9879 7.10233 14.8034 7.10233H9.98389C10.0761 8.79218 10.8832 9.65993 12.4282 9.65993C12.8202 9.65993 13.1431 9.61426 13.4198 9.50009C13.6965 9.38591 13.9963 9.24889 14.3191 9.06621C14.5728 8.92919 14.7573 8.83785 14.8495 8.83785C14.9648 8.83785 15.0801 8.88352 15.1493 8.97486ZM10.7218 4.6589C10.3298 5.04711 10.1222 5.618 10.0531 6.32591H14.2961C14.273 5.59517 14.0885 5.02427 13.7426 4.63607C13.3967 4.24786 12.9125 4.04234 12.2668 4.04234C11.6211 4.06517 11.0908 4.24786 10.7218 4.6589Z" fill="white"/>
<path d="M21.3528 3.65296C21.3528 3.81281 21.3066 3.92699 21.2144 4.04117C21.1222 4.13251 20.9607 4.20102 20.7532 4.20102L20.3151 4.24669C19.6463 4.3152 19.139 4.54355 18.8162 4.9546C18.4933 5.36564 18.3319 5.84519 18.3319 6.39325V10.0013C18.3319 10.2068 18.2858 10.3438 18.1705 10.4352C18.0552 10.5265 17.9168 10.5722 17.7324 10.5722C17.5479 10.5722 17.4095 10.5265 17.2942 10.4123C17.1789 10.2982 17.1328 10.1612 17.1328 9.97847V3.7443C17.1328 3.56162 17.202 3.40177 17.3173 3.31042C17.4326 3.19624 17.5709 3.15057 17.7554 3.15057C17.9168 3.15057 18.0552 3.19624 18.1705 3.31042C18.2858 3.4246 18.3319 3.56162 18.3319 3.7443V4.56639C18.5395 4.13251 18.8392 3.78997 19.2313 3.58445C19.6233 3.3561 20.0614 3.21908 20.5457 3.17341L20.7532 3.15057C21.1452 3.12774 21.3528 3.28759 21.3528 3.65296Z" fill="white"/>
<path d="M23.4533 10.1623C22.9229 9.86546 22.5309 9.43158 22.2311 8.86068C21.9544 8.28979 21.793 7.65039 21.793 6.89681C21.793 6.16606 21.9313 5.50383 22.2311 4.93293C22.5309 4.36204 22.946 3.90532 23.4763 3.60846C24.0067 3.28876 24.6063 3.12891 25.2981 3.12891C25.667 3.12891 26.059 3.17458 26.428 3.28876C26.797 3.40293 27.1198 3.53995 27.3965 3.74547C27.581 3.85965 27.6963 3.97383 27.7885 4.08801C27.8577 4.20219 27.9038 4.31637 27.9038 4.47622C27.9038 4.61323 27.8577 4.72741 27.7885 4.81875C27.7193 4.9101 27.6271 4.95577 27.4887 4.95577C27.4196 4.95577 27.3504 4.93293 27.2581 4.88726C27.189 4.84159 27.1198 4.81875 27.0506 4.77308C27.0045 4.72741 26.9584 4.70457 26.9353 4.70457C26.6817 4.54472 26.428 4.40771 26.1974 4.29353C25.9668 4.20219 25.667 4.15652 25.3442 4.15652C24.6063 4.15652 24.0528 4.40771 23.6378 4.88726C23.2227 5.36681 23.0382 6.05188 23.0382 6.91964C23.0382 7.7874 23.2457 8.44964 23.6378 8.92919C24.0528 9.40874 24.6063 9.6371 25.3442 9.6371C25.6901 9.6371 25.9668 9.59143 26.2205 9.50009C26.4741 9.40874 26.7047 9.27173 26.9584 9.08904C27.0737 9.02053 27.1659 8.95203 27.2812 8.90635C27.3734 8.86068 27.4657 8.83785 27.5349 8.83785C27.6502 8.83785 27.7424 8.88352 27.8116 8.97486C27.8808 9.06621 27.9269 9.18038 27.9269 9.3174C27.9269 9.45441 27.9038 9.56859 27.8116 9.65993C27.7424 9.77411 27.604 9.88829 27.4196 10.0025C27.1428 10.1852 26.7969 10.345 26.4049 10.4592C26.0129 10.5734 25.6209 10.619 25.2058 10.619C24.5832 10.619 23.9606 10.4592 23.4533 10.1623Z" fill="white"/>
<path d="M35.329 8.97486C35.3982 9.06621 35.4443 9.18038 35.4443 9.3174C35.4443 9.56859 35.2598 9.79695 34.9139 10.0025C34.5449 10.208 34.176 10.3678 33.784 10.4592C33.3919 10.5734 32.9999 10.619 32.6079 10.619C31.478 10.619 30.6017 10.2993 29.933 9.6371C29.2873 8.97486 28.9414 8.06143 28.9414 6.89681C28.9414 6.16606 29.0798 5.50383 29.3795 4.93293C29.6793 4.36204 30.0713 3.92816 30.6017 3.60846C31.1321 3.28876 31.7316 3.12891 32.4004 3.12891C33.3458 3.12891 34.1068 3.42577 34.6602 4.04234C35.2137 4.6589 35.4904 5.48099 35.4904 6.53143C35.4904 6.73696 35.4443 6.87397 35.3751 6.96531C35.3059 7.05666 35.1676 7.10233 34.9831 7.10233H30.1636C30.2558 8.79218 31.0629 9.65993 32.6079 9.65993C32.9999 9.65993 33.3228 9.61426 33.5995 9.50009C33.8762 9.38591 34.176 9.24889 34.4988 9.06621C34.7525 8.92919 34.937 8.83785 35.0292 8.83785C35.1675 8.83785 35.2598 8.88352 35.329 8.97486ZM30.9015 4.6589C30.5095 5.04711 30.3019 5.618 30.2328 6.32591H34.4758C34.4527 5.59517 34.2682 5.02427 33.9223 4.63607C33.5764 4.24786 33.0922 4.04234 32.4465 4.04234C31.8008 4.06517 31.2704 4.24786 30.9015 4.6589Z" fill="white"/>
<path d="M42.6385 3.60846C43.1228 3.92816 43.5148 4.36204 43.7685 4.93293C44.0452 5.50382 44.1835 6.16606 44.1835 6.91964C44.1835 7.67322 44.0452 8.33546 43.7685 8.88352C43.4918 9.43157 43.1228 9.86545 42.6385 10.1852C42.1543 10.482 41.5778 10.6419 40.9321 10.6419C40.3556 10.6419 39.8714 10.5277 39.4332 10.2765C39.0182 10.0253 38.6953 9.68277 38.4647 9.22605V12.6971C38.4647 12.8798 38.4186 13.0168 38.3033 13.1081C38.188 13.2223 38.0497 13.268 37.8652 13.268C37.6807 13.268 37.5193 13.2223 37.427 13.1081C37.3117 12.994 37.2656 12.8569 37.2656 12.6971V3.74547C37.2656 3.56278 37.3117 3.42577 37.427 3.31159C37.5423 3.19741 37.6807 3.15174 37.8652 3.15174C38.0497 3.15174 38.2111 3.19741 38.3033 3.31159C38.3956 3.42577 38.4647 3.56278 38.4647 3.74547V4.54472C38.6723 4.08801 38.9951 3.74547 39.4332 3.49428C39.8483 3.24308 40.3556 3.12891 40.9321 3.12891C41.6009 3.12891 42.1543 3.28876 42.6385 3.60846ZM42.3618 8.92919C42.7538 8.44964 42.9383 7.7874 42.9383 6.91964C42.9383 6.05188 42.7538 5.36681 42.3618 4.88726C41.9698 4.40771 41.4164 4.15652 40.7246 4.15652C40.0097 4.15652 39.4794 4.38487 39.0873 4.86442C38.6953 5.34397 38.5108 6.00621 38.5108 6.89681C38.5108 7.7874 38.6953 8.44964 39.0873 8.92919C39.4794 9.40874 40.0097 9.6371 40.7246 9.6371C41.4164 9.6371 41.9698 9.3859 42.3618 8.92919Z" fill="white"/>
<path d="M49.8786 10.1154C49.8786 10.2752 49.8094 10.4122 49.6941 10.5036C49.5788 10.5949 49.3713 10.6178 49.1407 10.5949L48.7256 10.5721C47.9185 10.5036 47.342 10.2752 46.95 9.86418C46.581 9.45314 46.3735 8.81374 46.3735 7.99165V4.24658H45.3819C45.2205 4.24658 45.0822 4.20091 44.9899 4.10957C44.8977 4.01823 44.8516 3.90405 44.8516 3.76703C44.8516 3.63002 44.8977 3.493 44.9899 3.40166C45.0822 3.31032 45.2205 3.26465 45.3819 3.26465H46.3735V1.59764C46.3735 1.41495 46.4196 1.2551 46.5349 1.16376C46.6502 1.04958 46.7886 1.00391 46.9731 1.00391C47.1575 1.00391 47.2959 1.04958 47.4112 1.16376C47.5265 1.27794 47.5726 1.41495 47.5726 1.59764V3.26465H49.2329C49.3943 3.26465 49.5096 3.31032 49.6249 3.40166C49.7172 3.493 49.7633 3.60718 49.7633 3.76703C49.7633 3.90405 49.7172 4.01823 49.6249 4.10957C49.5327 4.20091 49.3943 4.24658 49.2329 4.24658H47.5726V8.01449C47.5726 8.56254 47.6879 8.95075 47.9185 9.20194C48.1491 9.45314 48.4719 9.59015 48.9331 9.61299L49.3482 9.63582C49.6941 9.6815 49.8786 9.84135 49.8786 10.1154Z" fill="white"/>
<path d="M51.1017 1.39208C50.9633 1.25507 50.8711 1.07238 50.8711 0.844026C50.8711 0.615668 50.9403 0.455817 51.1017 0.318803C51.2401 0.181788 51.4476 0.113281 51.6782 0.113281C51.9088 0.113281 52.1163 0.181788 52.2547 0.318803C52.393 0.455817 52.4853 0.638504 52.4853 0.844026C52.4853 1.07238 52.4161 1.25507 52.2547 1.39208C52.1163 1.5291 51.9088 1.59761 51.6782 1.59761C51.4476 1.59761 51.2401 1.5291 51.1017 1.39208ZM51.2401 10.4351C51.1248 10.3209 51.0786 10.1839 51.0786 10.0012V3.74417C51.0786 3.56148 51.1248 3.40163 51.2401 3.31029C51.3554 3.19611 51.4937 3.15044 51.6782 3.15044C51.8627 3.15044 52.001 3.19611 52.1163 3.31029C52.2316 3.42447 52.2777 3.56148 52.2777 3.74417V10.0012C52.2777 10.2067 52.2316 10.3437 52.1163 10.4351C52.001 10.5264 51.8627 10.5721 51.6782 10.5721C51.4937 10.5721 51.3554 10.5492 51.2401 10.4351Z" fill="white"/>
<path d="M54.8841 10.3674C54.7688 10.2533 54.7227 10.1391 54.7227 9.95639V0.616566C54.7227 0.43388 54.7688 0.274029 54.8841 0.159851C54.9994 0.0456717 55.1377 0 55.3222 0C55.5067 0 55.6681 0.0685075 55.7603 0.159851C55.8756 0.274029 55.9218 0.43388 55.9218 0.616566V9.47684H60.7643C60.9488 9.47684 61.0872 9.52251 61.1794 9.61386C61.2716 9.7052 61.3177 9.81938 61.3177 10.0021C61.3177 10.1619 61.2716 10.2989 61.1794 10.3903C61.0872 10.4816 60.9488 10.5273 60.7643 10.5273H55.2992C55.1377 10.5273 54.9994 10.4588 54.8841 10.3674Z" fill="white"/>
<path d="M68.3276 5.9596V10.0015C68.3276 10.1842 68.2815 10.3212 68.1662 10.4354C68.0509 10.5496 67.9125 10.5953 67.728 10.5953C67.5435 10.5953 67.4052 10.5496 67.2899 10.4354C67.1746 10.3212 67.1285 10.1842 67.1285 10.0015V9.29362C66.944 9.7275 66.6442 10.0472 66.2522 10.2756C65.8602 10.5039 65.422 10.6181 64.9147 10.6181C64.4535 10.6181 64.0154 10.5268 63.6234 10.3441C63.2314 10.1614 62.9085 9.88735 62.6779 9.56765C62.4473 9.22511 62.332 8.85974 62.332 8.4487C62.332 7.90064 62.4704 7.48959 62.7471 7.19273C63.0238 6.89586 63.485 6.66751 64.1307 6.53049C64.7764 6.39348 65.6526 6.32497 66.7826 6.32497H67.1054V5.84542C67.1054 5.25169 66.9901 4.81781 66.7364 4.54378C66.4828 4.26975 66.0908 4.13274 65.5373 4.13274C64.8686 4.13274 64.1768 4.31542 63.462 4.6808C63.1852 4.84065 63.0008 4.93199 62.8855 4.93199C62.7702 4.93199 62.6779 4.88632 62.5857 4.79497C62.5165 4.70363 62.4704 4.58945 62.4704 4.45244C62.4704 4.31542 62.5165 4.20124 62.6087 4.08706C62.701 3.97289 62.8393 3.88154 63.0238 3.76736C63.3697 3.56184 63.7617 3.40199 64.2229 3.31065C64.6611 3.19647 65.0992 3.1508 65.5373 3.1508C67.4282 3.12796 68.3276 4.06423 68.3276 5.9596ZM66.575 9.06526C66.967 8.65422 67.1515 8.15183 67.1515 7.51243V7.07855H66.8748C65.9985 7.07855 65.3298 7.12422 64.8686 7.19273C64.4074 7.26124 64.0846 7.39825 63.9001 7.5581C63.7156 7.74079 63.6003 7.99198 63.6003 8.31168C63.6003 8.69989 63.7387 9.01959 64.0385 9.27079C64.3152 9.52198 64.6841 9.65899 65.0992 9.65899C65.6988 9.68183 66.183 9.47631 66.575 9.06526Z" fill="white"/>
<path d="M75.8889 3.58521C76.3732 3.88208 76.7652 4.31596 77.0189 4.88685C77.2956 5.45775 77.434 6.09715 77.434 6.85073C77.434 7.60431 77.2956 8.26654 77.0189 8.83744C76.7422 9.40833 76.3732 9.84221 75.8889 10.1619C75.4047 10.4816 74.8282 10.6415 74.2056 10.6415C73.6291 10.6415 73.1448 10.5273 72.7067 10.2761C72.2916 10.0249 71.9688 9.68236 71.7382 9.22565V10.0021C71.7382 10.1847 71.6921 10.3218 71.5768 10.4359C71.4615 10.5501 71.3231 10.5958 71.1386 10.5958C70.9541 10.5958 70.7927 10.5501 70.7005 10.4359C70.5852 10.3218 70.5391 10.1847 70.5391 10.0021V0.570894C70.5391 0.411044 70.5852 0.274029 70.7005 0.15985C70.8158 0.0456717 70.9541 0 71.1386 0C71.3231 0 71.4845 0.0456717 71.5768 0.15985C71.6921 0.274029 71.7382 0.411044 71.7382 0.570894V4.54431C71.9457 4.0876 72.2686 3.74506 72.7067 3.49387C73.1218 3.24268 73.6291 3.1285 74.2056 3.1285C74.8513 3.1285 75.4047 3.28835 75.8889 3.58521ZM75.6122 8.90594C76.0042 8.42639 76.1887 7.74132 76.1887 6.85073C76.1887 5.98297 76.0042 5.32073 75.6122 4.84118C75.2202 4.36163 74.6668 4.13327 73.975 4.13327C73.2601 4.13327 72.7297 4.36163 72.3377 4.84118C71.9457 5.32073 71.7612 5.98297 71.7612 6.87356C71.7612 7.76416 71.9457 8.42639 72.3377 8.90594C72.7297 9.3855 73.2601 9.61385 73.975 9.61385C74.6668 9.63669 75.2202 9.3855 75.6122 8.90594Z" fill="white"/>
<path d="M80.3876 10.4592C79.9725 10.345 79.6036 10.208 79.2808 10.0025C79.0963 9.88829 78.981 9.77412 78.8887 9.65994C78.8196 9.54576 78.7734 9.43158 78.7734 9.27173C78.7734 9.13471 78.8196 9.04337 78.8887 8.95203C78.9579 8.86068 79.0502 8.81501 79.1885 8.81501C79.3038 8.81501 79.4883 8.88352 79.7189 9.04337C80.0187 9.22606 80.3184 9.36307 80.6182 9.47725C80.918 9.59143 81.287 9.6371 81.7251 9.6371C82.2555 9.6371 82.6936 9.54576 82.9703 9.36307C83.2701 9.18038 83.4085 8.90636 83.4085 8.54098C83.4085 8.31263 83.3623 8.15278 83.247 8.01576C83.1317 7.87875 82.9473 7.76457 82.6705 7.65039C82.3938 7.53621 82.0018 7.44487 81.4945 7.33069C80.6182 7.148 79.9956 6.89681 79.6036 6.57711C79.2346 6.25741 79.0271 5.82353 79.0271 5.2983C79.0271 4.86442 79.1424 4.49905 79.3961 4.17935C79.6267 3.85965 79.9725 3.58562 80.3876 3.40293C80.8027 3.22025 81.287 3.12891 81.8404 3.12891C82.2324 3.12891 82.6014 3.17458 82.9703 3.28876C83.3393 3.40293 83.6621 3.53995 83.9388 3.72264C84.2847 3.95099 84.4462 4.20219 84.4462 4.45338C84.4462 4.5904 84.4 4.68174 84.3309 4.77308C84.2617 4.86442 84.1464 4.9101 84.0541 4.9101C83.9388 4.9101 83.7544 4.81875 83.5238 4.6589C83.247 4.47622 82.9703 4.3392 82.7397 4.24786C82.4861 4.15652 82.1863 4.11084 81.8173 4.11084C81.3561 4.11084 80.9641 4.22502 80.6874 4.43054C80.4107 4.63607 80.2493 4.9101 80.2493 5.25263C80.2493 5.45815 80.2954 5.64084 80.4107 5.77786C80.526 5.91487 80.6874 6.02905 80.9411 6.14323C81.1947 6.25741 81.5406 6.34875 82.0018 6.44009C82.6705 6.57711 83.2009 6.75979 83.5699 6.91964C83.9388 7.10233 84.2156 7.30785 84.377 7.58188C84.5384 7.83308 84.6076 8.15277 84.6076 8.56382C84.6076 9.18038 84.3539 9.68277 83.8235 10.071C83.2932 10.4592 82.6014 10.6419 81.7251 10.6419C81.2408 10.619 80.8027 10.5734 80.3876 10.4592Z" fill="white"/>
</svg>