<?xml version="1.0" encoding="utf-8"?>
<svg version="1.1" id="Layer_1"
	 xmlns="http://www.w3.org/2000/svg" xmlns:xlink="http://www.w3.org/1999/xlink" x="0px" y="0px" viewBox="0 0 569.7 136.7" width="125" height="30">
<style type="text/css">
	.st0{fill:#FFFFFF;}
	.st1{fill:none;}
</style>
<switch>
	<g>
		<g>
			<path class="st0" d="M497.5,28.3h-3.6v3.9h3.6c0.9,0,1.5-0.2,2-0.5c0.4-0.3,0.6-0.8,0.6-1.5c0-0.7-0.2-1.2-0.6-1.5
				C499,28.4,498.4,28.3,497.5,28.3z"/>
			<polygon class="st0" points="535.6,28.8 540.5,28.8 538.1,23.1 			"/>
			<path class="st0" d="M499,25.3c0.4-0.3,0.6-0.7,0.6-1.4c0-0.6-0.2-1.1-0.6-1.4c-0.4-0.3-1.1-0.4-1.9-0.4h-3.2v3.6h3.2
				C497.9,25.7,498.6,25.6,499,25.3z"/>
			<path class="st0" d="M475.3,9v36.2h70.1h15V9H475.3z M501.8,33.6c-0.9,0.8-2.3,1.1-3.9,1.1h-7.3V19.5h7c1.6,0,2.9,0.4,3.8,1.1
				c0.9,0.7,1.4,1.7,1.4,2.9c0,0.8-0.2,1.5-0.6,2.1c-0.4,0.6-1,1-1.8,1.3c0.9,0.3,1.6,0.7,2,1.4c0.5,0.6,0.7,1.4,0.7,2.4
				C503.2,31.9,502.7,32.9,501.8,33.6z M516.5,22.1h-7.2v3.6h6.8v2.6h-6.8v3.8h7.2v2.6H506V19.5h10.5V22.1z M526.4,34.8H523V22.2
				h-4.8v-2.8h13v2.8h-4.8V34.8z M543.1,34.8l-1.5-3.4h-7.1l-1.5,3.4h-3.4l7-15.3h2.7l7,15.3H543.1z"/>
		</g>
		<g>
			<rect class="st1" width="569.7" height="136.7"/>
			<g>
				<g>
					<path class="st0" d="M115.1,89.8c-0.5-0.5-0.7-1.2-0.7-2V47.1c0-0.8,0.2-1.4,0.7-1.9s1.2-0.7,2-0.7h15.4
						c4.8,0,8.5,1.2,11.2,3.5s4,5.6,4,9.9s-1.3,7.6-4,10s-6.4,3.6-11.2,3.6h-12.8v16.3c0,0.8-0.2,1.5-0.7,2s-1.1,0.7-1.9,0.7
						C116.2,90.6,115.6,90.3,115.1,89.8z M132,67.1c7,0,10.4-3.1,10.4-9.1s-3.5-9-10.4-9h-12.3v18.2L132,67.1L132,67.1z"/>
					<path class="st0" d="M180.1,83.5c0.3,0.4,0.5,0.9,0.5,1.5c0,1.1-0.8,2.1-2.3,3c-1.6,0.9-3.2,1.6-4.9,2
						c-1.7,0.5-3.4,0.7-5.1,0.7c-4.9,0-8.7-1.4-11.6-4.3c-2.8-2.9-4.3-6.9-4.3-12c0-3.2,0.6-6.1,1.9-8.6c1.3-2.5,3-4.4,5.3-5.8
						c2.3-1.4,4.9-2.1,7.8-2.1c4.1,0,7.4,1.3,9.8,4c2.4,2.7,3.6,6.3,3.6,10.9c0,0.9-0.2,1.5-0.5,1.9s-0.9,0.6-1.7,0.6h-20.9
						c0.4,7.4,3.9,11.2,10.6,11.2c1.7,0,3.1-0.2,4.3-0.7s2.5-1.1,3.9-1.9c1.1-0.6,1.9-1,2.3-1C179.3,82.9,179.8,83.1,180.1,83.5z
						 M160.9,64.6c-1.7,1.7-2.6,4.2-2.9,7.3h18.4c-0.1-3.2-0.9-5.7-2.4-7.4c-1.5-1.7-3.6-2.6-6.4-2.6
						C164.8,62,162.5,62.8,160.9,64.6z"/>
					<path class="st0" d="M207,60.2c0,0.7-0.2,1.2-0.6,1.7c-0.4,0.4-1.1,0.7-2,0.7l-1.9,0.2c-2.9,0.3-5.1,1.3-6.5,3.1
						c-1.4,1.8-2.1,3.9-2.1,6.3V88c0,0.9-0.2,1.5-0.7,1.9s-1.1,0.6-1.9,0.6c-0.8,0-1.4-0.2-1.9-0.7s-0.7-1.1-0.7-1.9V60.6
						c0-0.8,0.3-1.5,0.8-1.9c0.5-0.5,1.1-0.7,1.9-0.7c0.7,0,1.3,0.2,1.8,0.7s0.7,1.1,0.7,1.9v3.6c0.9-1.9,2.2-3.4,3.9-4.3
						c1.7-1,3.6-1.6,5.7-1.8l0.9-0.1C206.1,57.9,207,58.6,207,60.2z"/>
					<path class="st0" d="M216.1,88.7c-2.3-1.3-4-3.2-5.3-5.7c-1.2-2.5-1.9-5.3-1.9-8.6c0-3.2,0.6-6.1,1.9-8.6
						c1.3-2.5,3.1-4.5,5.4-5.8c2.3-1.4,4.9-2.1,7.9-2.1c1.6,0,3.3,0.2,4.9,0.7c1.6,0.5,3,1.1,4.2,2c0.8,0.5,1.3,1,1.7,1.5
						c0.3,0.5,0.5,1,0.5,1.7c0,0.6-0.2,1.1-0.5,1.5s-0.7,0.6-1.3,0.6c-0.3,0-0.6-0.1-1-0.3c-0.3-0.2-0.6-0.3-0.9-0.5
						c-0.2-0.2-0.4-0.3-0.5-0.3c-1.1-0.7-2.2-1.3-3.2-1.8c-1-0.4-2.3-0.6-3.7-0.6c-3.2,0-5.6,1.1-7.4,3.2c-1.8,2.1-2.6,5.1-2.6,8.9
						s0.9,6.7,2.6,8.8c1.8,2.1,4.2,3.1,7.4,3.1c1.5,0,2.7-0.2,3.8-0.6s2.1-1,3.2-1.8c0.5-0.3,0.9-0.6,1.4-0.8
						c0.4-0.2,0.8-0.3,1.1-0.3c0.5,0,0.9,0.2,1.2,0.6s0.5,0.9,0.5,1.5s-0.1,1.1-0.5,1.5c-0.3,0.5-0.9,1-1.7,1.5
						c-1.2,0.8-2.7,1.5-4.4,2s-3.4,0.7-5.2,0.7C221,90.7,218.3,90,216.1,88.7z"/>
					<path class="st0" d="M267.6,83.5c0.3,0.4,0.5,0.9,0.5,1.5c0,1.1-0.8,2.1-2.3,3c-1.6,0.9-3.2,1.6-4.9,2
						c-1.7,0.5-3.4,0.7-5.1,0.7c-4.9,0-8.7-1.4-11.6-4.3c-2.8-2.9-4.3-6.9-4.3-12c0-3.2,0.6-6.1,1.9-8.6c1.3-2.5,3-4.4,5.3-5.8
						c2.3-1.4,4.9-2.1,7.8-2.1c4.1,0,7.4,1.3,9.8,4c2.4,2.7,3.6,6.3,3.6,10.9c0,0.9-0.2,1.5-0.5,1.9s-0.9,0.6-1.7,0.6h-20.9
						c0.4,7.4,3.9,11.2,10.6,11.2c1.7,0,3.1-0.2,4.3-0.7c1.2-0.5,2.5-1.1,3.9-1.9c1.1-0.6,1.9-1,2.3-1
						C266.9,82.9,267.3,83.1,267.6,83.5z M248.4,64.6c-1.7,1.7-2.6,4.2-2.9,7.3h18.4c-0.1-3.2-0.9-5.7-2.4-7.4
						c-1.5-1.7-3.6-2.6-6.4-2.6C252.3,62,250,62.8,248.4,64.6z"/>
					<path class="st0" d="M299.3,60c2.1,1.4,3.8,3.3,4.9,5.8c1.2,2.5,1.8,5.4,1.8,8.7s-0.6,6.2-1.8,8.6c-1.2,2.4-2.8,4.3-4.9,5.7
						c-2.1,1.3-4.6,2-7.4,2c-2.5,0-4.6-0.5-6.5-1.6c-1.8-1.1-3.2-2.6-4.2-4.6v15.2c0,0.8-0.2,1.4-0.7,1.8c-0.5,0.5-1.1,0.7-1.9,0.7
						s-1.5-0.2-1.9-0.7c-0.5-0.5-0.7-1.1-0.7-1.8V60.6c0-0.8,0.2-1.4,0.7-1.9s1.1-0.7,1.9-0.7s1.5,0.2,1.9,0.7s0.7,1.1,0.7,1.9v3.5
						c0.9-2,2.3-3.5,4.2-4.6c1.8-1.1,4-1.6,6.5-1.6C294.8,57.9,297.2,58.6,299.3,60z M298.1,83.3c1.7-2.1,2.5-5,2.5-8.8
						s-0.8-6.8-2.5-8.9c-1.7-2.1-4.1-3.2-7.1-3.2c-3.1,0-5.4,1-7.1,3.1s-2.5,5-2.5,8.9c0,3.9,0.8,6.8,2.5,8.9s4,3.1,7.1,3.1
						C294,86.4,296.4,85.3,298.1,83.3z"/>
					<path class="st0" d="M330.7,88.5c0,0.7-0.3,1.3-0.8,1.7c-0.5,0.4-1.4,0.5-2.4,0.4l-1.8-0.1c-3.5-0.3-6-1.3-7.7-3.1
						c-1.6-1.8-2.5-4.6-2.5-8.2V62.8h-4.3c-0.7,0-1.3-0.2-1.7-0.6c-0.4-0.4-0.6-0.9-0.6-1.5s0.2-1.2,0.6-1.6c0.4-0.4,1-0.6,1.7-0.6
						h4.3v-7.3c0-0.8,0.2-1.5,0.7-1.9c0.5-0.5,1.1-0.7,1.9-0.7s1.4,0.2,1.9,0.7s0.7,1.1,0.7,1.9v7.3h7.2c0.7,0,1.2,0.2,1.7,0.6
						c0.4,0.4,0.6,0.9,0.6,1.6c0,0.6-0.2,1.1-0.6,1.5s-1,0.6-1.7,0.6h-7.2v16.5c0,2.4,0.5,4.1,1.5,5.2s2.4,1.7,4.4,1.8l1.8,0.1
						C329.9,86.6,330.7,87.3,330.7,88.5z"/>
					<path class="st0" d="M336,50.3c-0.6-0.6-1-1.4-1-2.4s0.3-1.7,1-2.3c0.6-0.6,1.5-0.9,2.5-0.9s1.9,0.3,2.5,0.9
						c0.6,0.6,1,1.4,1,2.3c0,1-0.3,1.8-1,2.4c-0.6,0.6-1.5,0.9-2.5,0.9S336.6,50.9,336,50.3z M336.6,89.9c-0.5-0.5-0.7-1.1-0.7-1.9
						V60.6c0-0.8,0.2-1.5,0.7-1.9c0.5-0.5,1.1-0.7,1.9-0.7s1.4,0.2,1.9,0.7s0.7,1.1,0.7,1.9V88c0,0.9-0.2,1.5-0.7,1.9
						s-1.1,0.6-1.9,0.6S337.1,90.4,336.6,89.9z"/>
					<path class="st0" d="M352.4,89.6c-0.5-0.5-0.7-1-0.7-1.8V46.9c0-0.8,0.2-1.5,0.7-2s1.1-0.7,1.9-0.7s1.5,0.3,1.9,0.7
						c0.5,0.5,0.7,1.2,0.7,2v38.8h21c0.8,0,1.4,0.2,1.8,0.6s0.6,0.9,0.6,1.7c0,0.7-0.2,1.3-0.6,1.7c-0.4,0.4-1,0.6-1.8,0.6h-23.7
						C353.5,90.3,352.9,90,352.4,89.6z"/>
					<path class="st0" d="M410.7,70.3V88c0,0.8-0.2,1.4-0.7,1.9s-1.1,0.7-1.9,0.7s-1.4-0.2-1.9-0.7s-0.7-1.1-0.7-1.9v-3.1
						c-0.8,1.9-2.1,3.3-3.8,4.3c-1.7,1-3.6,1.5-5.8,1.5c-2,0-3.9-0.4-5.6-1.2c-1.7-0.8-3.1-2-4.1-3.4c-1-1.5-1.5-3.1-1.5-4.9
						c0-2.4,0.6-4.2,1.8-5.5c1.2-1.3,3.2-2.3,6-2.9s6.6-0.9,11.5-0.9h1.4v-2.1c0-2.6-0.5-4.5-1.6-5.7c-1.1-1.2-2.8-1.8-5.2-1.8
						c-2.9,0-5.9,0.8-9,2.4c-1.2,0.7-2,1.1-2.5,1.1s-0.9-0.2-1.3-0.6c-0.3-0.4-0.5-0.9-0.5-1.5c0-0.6,0.2-1.1,0.6-1.6s1-0.9,1.8-1.4
						c1.5-0.9,3.2-1.6,5.2-2c1.9-0.5,3.8-0.7,5.7-0.7C406.8,57.9,410.7,62,410.7,70.3z M403.1,83.9c1.7-1.8,2.5-4,2.5-6.8v-1.9h-1.2
						c-3.8,0-6.7,0.2-8.7,0.5s-3.4,0.9-4.2,1.6c-0.8,0.8-1.3,1.9-1.3,3.3c0,1.7,0.6,3.1,1.9,4.2c1.2,1.1,2.8,1.7,4.6,1.7
						C399.3,86.6,401.4,85.7,403.1,83.9z"/>
					<path class="st0" d="M443.5,59.9c2.1,1.3,3.8,3.2,4.9,5.7c1.2,2.5,1.8,5.3,1.8,8.6s-0.6,6.2-1.8,8.7c-1.2,2.5-2.8,4.4-4.9,5.8
						s-4.6,2.1-7.3,2.1c-2.5,0-4.6-0.5-6.5-1.6c-1.8-1.1-3.2-2.6-4.2-4.6V88c0,0.8-0.2,1.4-0.7,1.9s-1.1,0.7-1.9,0.7
						s-1.5-0.2-1.9-0.7c-0.5-0.5-0.7-1.1-0.7-1.9V46.7c0-0.7,0.2-1.3,0.7-1.8s1.1-0.7,1.9-0.7s1.5,0.2,1.9,0.7
						c0.5,0.5,0.7,1.1,0.7,1.8v17.4c0.9-2,2.3-3.5,4.2-4.6c1.8-1.1,4-1.6,6.5-1.6C439,57.9,441.4,58.6,443.5,59.9z M442.3,83.2
						c1.7-2.1,2.5-5.1,2.5-9c0-3.8-0.8-6.7-2.5-8.8s-4.1-3.1-7.1-3.1c-3.1,0-5.4,1-7.1,3.1s-2.5,5-2.5,8.9s0.8,6.8,2.5,8.9
						s4,3.1,7.1,3.1C438.2,86.4,440.6,85.3,442.3,83.2z"/>
					<path class="st0" d="M463,90c-1.8-0.5-3.4-1.1-4.8-2c-0.8-0.5-1.3-1-1.7-1.5c-0.3-0.5-0.5-1-0.5-1.7c0-0.6,0.2-1,0.5-1.4
						s0.7-0.6,1.3-0.6c0.5,0,1.3,0.3,2.3,1c1.3,0.8,2.6,1.4,3.9,1.9s2.9,0.7,4.8,0.7c2.3,0,4.2-0.4,5.4-1.2c1.3-0.8,1.9-2,1.9-3.6
						c0-1-0.2-1.7-0.7-2.3c-0.5-0.6-1.3-1.1-2.5-1.6s-2.9-0.9-5.1-1.4c-3.8-0.8-6.5-1.9-8.2-3.3c-1.6-1.4-2.5-3.3-2.5-5.6
						c0-1.9,0.5-3.5,1.6-4.9c1-1.4,2.5-2.6,4.3-3.4c1.8-0.8,3.9-1.2,6.3-1.2c1.7,0,3.3,0.2,4.9,0.7s3,1.1,4.2,1.9
						c1.5,1,2.2,2.1,2.2,3.2c0,0.6-0.2,1-0.5,1.4s-0.8,0.6-1.2,0.6c-0.5,0-1.3-0.4-2.3-1.1c-1.2-0.8-2.4-1.4-3.4-1.8
						c-1.1-0.4-2.4-0.6-4-0.6c-2,0-3.7,0.5-4.9,1.4c-1.2,0.9-1.9,2.1-1.9,3.6c0,0.9,0.2,1.7,0.7,2.3s1.2,1.1,2.3,1.6
						c1.1,0.5,2.6,0.9,4.6,1.3c2.9,0.6,5.2,1.4,6.8,2.1c1.6,0.8,2.8,1.7,3.5,2.9c0.7,1.1,1,2.5,1,4.3c0,2.7-1.1,4.9-3.4,6.6
						s-5.3,2.5-9.1,2.5C466.7,90.7,464.8,90.5,463,90z"/>
				</g>
				<g>
					<g>
						<g>
							<circle class="st0" cx="76" cy="31.9" r="7.8"/>
						</g>
					</g>
					<g>
						<g>
							<path class="st0" d="M39.4,94.6c-2.5,0-4.9-1.2-6.3-3.4c-2.4-3.5-1.5-8.3,2-10.7l38.4-26.1c3.5-2.4,8.3-1.5,10.7,2
								c2.4,3.5,1.5,8.3-2,10.7L43.7,93.3C42.4,94.2,40.9,94.6,39.4,94.6z"/>
						</g>
					</g>
					<g>
						<g>
							<g>
								<path class="st0" d="M34.4,67.9c-2.5,0-4.9-1.2-6.3-3.4c-2.4-3.5-1.5-8.3,2-10.7l19.2-13.1c3.5-2.4,8.3-1.5,10.7,2
									c2.4,3.5,1.5,8.3-2,10.7L38.7,66.5C37.4,67.4,35.9,67.9,34.4,67.9z"/>
							</g>
						</g>
					</g>
					<g>
						<g>
							<circle class="st0" cx="53.6" cy="106.1" r="7.8"/>
						</g>
					</g>
				</g>
			</g>
		</g>
	</g>
</switch>
</svg>
