<svg id="Layer_1" data-name="Layer 1" xmlns="http://www.w3.org/2000/svg" viewBox="0 0 1264.04 237"><defs><style>.cls-1{fill:#2B2E2F;}</style></defs><title>logo</title><path class="cls-1" d="M164.49,28.8q-11.65-10.39-29.66-16.32T91.74,6.55H17.88q-4.87,0-7.39,2.77A9.59,9.59,0,0,0,8,16V234.51l0-.08a9.48,9.48,0,0,0,2.49,6q2.52,2.77,7.39,2.77H53.63a9.59,9.59,0,0,0,6.68-2.52q2.77-2.52,2.77-7.39l0-69.18H91.74q24.6,0,42.61-5.93t29.74-16.48a65.18,65.18,0,0,0,17.43-25.33,89.48,89.48,0,0,0,5.7-32.48,82.94,82.94,0,0,0-5.54-30.53A63.66,63.66,0,0,0,164.49,28.8Zm-41.8,83.63q-9.45,10.23-31,10.23H63.06v-75H91.74a55.72,55.72,0,0,1,18,2.6,33.41,33.41,0,0,1,12.55,7.39,30.06,30.06,0,0,1,7.41,11.45,42.61,42.61,0,0,1,2.45,14.78Q132.15,102.2,122.7,112.43Z" transform="translate(-7.98 -6.5)"/><path class="cls-1" d="M355.91,48a26.87,26.87,0,0,0,7.89,5.25,23.61,23.61,0,0,0,9.58,2,25.4,25.4,0,0,0,9.92-2A27.06,27.06,0,0,0,391.47,48,24.57,24.57,0,0,0,397,40.32,22,22,0,0,0,399,31a22.73,22.73,0,0,0-2-9.55,25.17,25.17,0,0,0-5.53-7.8,25.55,25.55,0,0,0-8.17-5.24,26.19,26.19,0,0,0-9.92-1.88,24.34,24.34,0,0,0-9.58,1.88,25.32,25.32,0,0,0-7.89,5.24,24.77,24.77,0,0,0-5.4,7.8,23.39,23.39,0,0,0-2,9.55,22.59,22.59,0,0,0,2,9.35A24.18,24.18,0,0,0,355.91,48Z" transform="translate(-7.98 -6.5)"/><path class="cls-1" d="M389.71,72H358.56q-4.87,0-7.39,2.77a9.59,9.59,0,0,0-2.52,6.68V233.83a9.59,9.59,0,0,0,2.52,6.68q2.52,2.77,7.39,2.77h31.16a9.59,9.59,0,0,0,6.68-2.52q2.77-2.52,2.77-7.39V81.88q0-4.87-2.77-7.39A9.59,9.59,0,0,0,389.71,72Z" transform="translate(-7.98 -6.5)"/><path class="cls-1" d="M1075.49,95.38a77.07,77.07,0,0,0-27.13-17,99.24,99.24,0,0,0-35-5.92A100.41,100.41,0,0,0,978,78.42a78.55,78.55,0,0,0-27.37,17,75.16,75.16,0,0,0-17.76,26.79q-6.28,15.76-6.28,35.43,0,19.83,6.28,35.75a75.62,75.62,0,0,0,17.76,27A78.89,78.89,0,0,0,978,237.5a99.21,99.21,0,0,0,35.28,6,98,98,0,0,0,35-6,75.22,75.22,0,0,0,44.73-44.15q6.27-15.92,6.27-35.75,0-19.68-6.27-35.43A76.3,76.3,0,0,0,1075.49,95.38ZM1039,194.63q-8.23,12.08-25.66,12.08-17.93,0-26.24-12.08t-8.31-36.71q0-24.63,8.31-36.63t26.24-12q17.43,0,25.66,12t8.23,36.63Q1047.22,182.56,1039,194.63Z" transform="translate(-7.98 -6.5)"/><path class="cls-1" d="M259.32,82.23q0-4.87-2.77-7.39a9.59,9.59,0,0,0-6.68-2.52H218.71q-4.87,0-7.39,2.77a9.59,9.59,0,0,0-2.52,6.68V234a9.59,9.59,0,0,0,2.52,6.68q2.52,2.77,7.39,2.77h31.15a9.59,9.59,0,0,0,6.68-2.52q2.77-2.52,2.77-7.39V134.3c9.53-6.75,30.08-17.8,49.29-14.52,3.85,0.66,8.15-.31,9.45-1.23a7.21,7.21,0,0,0,2.61-4.79V82c0-6.76-4.25-9.6-10-9.6C280.66,72.4,259.32,82.23,259.32,82.23Z" transform="translate(-7.98 -6.5)"/><path class="cls-1" d="M585.1,110.6A57.47,57.47,0,0,0,574,90.3,50.91,50.91,0,0,0,556,77a59.36,59.36,0,0,0-24.53-4.79,69.39,69.39,0,0,0-15.07,1.54,129.82,129.82,0,0,0-30.23,10.64V81.64A9.59,9.59,0,0,0,483.68,75q-2.47-2.72-7.21-2.76H445.33c-3.12,0-5.51,1-7.14,2.76a9.59,9.59,0,0,0-2.52,6.68V234a10.19,10.19,0,0,0,.65,3.67,7.93,7.93,0,0,0,1.8,2.93l0.32,0.32h0a8.05,8.05,0,0,0,3.45,2,10.33,10.33,0,0,0,3.23.5h31.6A10.35,10.35,0,0,0,480,243a8.05,8.05,0,0,0,3.46-2h0l0.32-.33a7.93,7.93,0,0,0,1.8-2.93,10.19,10.19,0,0,0,.65-3.67V134.64c5.84-4.16,7.64-5.55,14-9,4.73-2.55,11.84-5.81,17.37-6.06,4.05-.18,11.86-0.51,15.67,4.09s5.09,9.08,5.09,17.31v92.6q0,4.87,2.77,7.39a9.59,9.59,0,0,0,6.68,2.52h31.15q4.87,0,7.39-2.77a9.59,9.59,0,0,0,2.52-6.68V136.17A84,84,0,0,0,585.1,110.6Z" transform="translate(-7.98 -6.5)"/><path class="cls-1" d="M1270.9,230.19a9,9,0,0,0-.66-1l-49.64-75,47-67.93h0l0.07-.11h0a8.72,8.72,0,0,0,1.54-4.94,9.21,9.21,0,0,0-9.15-9H1229.1a13.25,13.25,0,0,0-6.63,1.54,14.07,14.07,0,0,0-4.92,5.28l-22.42,40.42q-1.87,3.09-3.4,5.85a36.33,36.33,0,0,0-2.54,5.68L1157.77,78.2a12.53,12.53,0,0,0-4.67-4.63c-1.76-.92-4.5-1.39-8.24-1.39h-34.18a9.19,9.19,0,0,0-8.63,9,8.7,8.7,0,0,0,1.1,4.22,9,9,0,0,0,.83,1.24l47,69.81-49.42,72.81h0a8.73,8.73,0,0,0-1.72,5.2,9.23,9.23,0,0,0,9.41,9h29.49a13.29,13.29,0,0,0,8.49-2.68,22.41,22.41,0,0,0,5.44-6.09l25.81-41.9a44.81,44.81,0,0,0,2.54-4.55,35.86,35.86,0,0,0,2-5.2l31.42,51.64a22.73,22.73,0,0,0,5.61,6.17q3.39,2.6,9,2.6h33.51a9.23,9.23,0,0,0,9.41-9A8.7,8.7,0,0,0,1270.9,230.19Z" transform="translate(-7.98 -6.5)"/><path class="cls-1" d="M710.56,109.79a9.59,9.59,0,0,0,6.68-2.52q2.77-2.52,2.77-7.39V82q0-4.87-2.77-7.39a9.59,9.59,0,0,0-6.68-2.52h-31.5V35.62q0-4.87-2.77-7.39a9.59,9.59,0,0,0-6.68-2.52H638.44q-4.87,0-7.39,2.77a9.59,9.59,0,0,0-2.52,6.68v37H614.15q-4.87,0-7.39,2.77a9.4,9.4,0,0,0-2.4,5.14V99.92q0,4.87,2.77,7.39a9.59,9.59,0,0,0,6.68,2.52h14.34V194.3a59.77,59.77,0,0,0,3.26,20.3,41,41,0,0,0,25,25.41,59.76,59.76,0,0,0,21.27,3.49h33.07a9.25,9.25,0,0,0,9.24-8.91v-21c0-.11,0-0.22,0-0.33a9.24,9.24,0,0,0-.46-2.5l0-.16a9.23,9.23,0,0,0-1.66-2.94l-0.06-.08a9.2,9.2,0,0,0-7-3.23h-21a9.64,9.64,0,0,1-8.23-3.82c-1.9-2.54-2.47-5.77-2.47-9.66V109.78h31.5Z" transform="translate(-7.98 -6.5)"/><path class="cls-1" d="M908.13,122.17A74.85,74.85,0,0,0,863.4,78.42a99.23,99.23,0,0,0-35-5.92,101.4,101.4,0,0,0-33.64,5.33V16.76q0-4.87-2.77-7.39a9.59,9.59,0,0,0-6.68-2.52H754.11q-4.87,0-7.39,2.77a9.91,9.91,0,0,0-1.1,1.46,9.23,9.23,0,0,0-1.06,2.45,10.15,10.15,0,0,0-.31,1.81q0,0.47,0,1V234q0,0.49,0,1a10.15,10.15,0,0,0,.31,1.81,9.23,9.23,0,0,0,1.06,2.45,9.9,9.9,0,0,0,1.1,1.46q2.52,2.77,7.39,2.77h31.16a10,10,0,0,0,4.67-1.05l0.33-.18,0.32-.19a7.6,7.6,0,0,0,1.64-1.35,9.89,9.89,0,0,0,1.1-1.46,9.23,9.23,0,0,0,1.06-2.45,10.15,10.15,0,0,0,.31-1.81q0-.47,0-1a1.59,1.59,0,0,0,0-.47v-1.79c8.62,7.25,24.4,11.71,33.62,11.71,15,0,24.49-1.4,35-5.39a78.79,78.79,0,0,0,27.13-17.72,76.78,76.78,0,0,0,17.6-27q6.27-15.92,6.27-35.75Q914.4,137.93,908.13,122.17ZM854,194.63q-8.23,12.08-25.66,12.08c-12,0-20.69-6.44-26.24-14.49q-5.56-8.08-7.39-21.79V141.21c1.23-8.41,3.69-14.57,7.4-19.92q8.31-12,26.24-12,17.43,0,25.66,12t8.23,36.63Q862.26,182.56,854,194.63Z" transform="translate(-7.98 -6.5)"/></svg>
