<?xml version="1.0" standalone="no"?>
<!DOCTYPE svg PUBLIC "-//W3C//DTD SVG 20010904//EN"
 "http://www.w3.org/TR/2001/REC-SVG-20010904/DTD/svg10.dtd">
<svg version="1.0" xmlns="http://www.w3.org/2000/svg"
 width="46.000000pt" height="128.000000pt" viewBox="0 0 46.000000 128.000000"
 preserveAspectRatio="xMidYMid meet">

<g transform="translate(0.000000,128.000000) scale(0.100000,-0.100000)"
fill="#000000" stroke="none">
<path d="M190 1185 c0 -86 -2 -95 -18 -95 -11 0 -27 -9 -36 -19 -17 -19 -17
-20 21 -24 l38 -4 -37 -1 c-47 -2 -50 -19 -5 -25 31 -4 30 -4 -8 -7 l-40 -3
35 -7 35 -7 -32 -2 c-40 -1 -44 -18 -5 -24 24 -4 23 -4 -8 -7 l-35 -2 30 -8
30 -8 -30 -1 -30 -2 25 -11 25 -11 -25 -6 c-30 -8 -39 -45 -39 -168 -1 -67 2
-83 14 -83 12 0 15 -15 15 -75 0 -68 2 -75 20 -75 11 0 20 -4 20 -10 0 -15 77
-12 83 3 4 10 6 10 6 0 1 -15 57 -17 66 -3 3 6 15 10 26 10 17 0 19 7 19 74 0
59 3 75 16 80 15 6 16 19 11 104 -8 120 -14 142 -38 142 -27 0 -24 20 4 21 18
1 16 3 -8 9 -29 7 -29 8 -5 10 24 2 24 3 -5 10 l-30 8 28 1 c38 1 34 21 -5 22
l-33 2 35 7 35 7 -40 3 c-38 3 -39 3 -7 7 46 6 39 23 -10 25 l-43 1 45 6 45 6
-25 18 c-13 9 -32 17 -42 17 -16 0 -18 11 -18 95 l0 95 -35 0 -35 0 0 -95z
m110 -355 l0 -40 -70 0 -70 0 0 40 0 40 70 0 70 0 0 -40z m-10 -99 c23 -44 14
-51 -60 -51 -62 0 -70 2 -70 19 0 43 10 51 66 51 42 0 55 -4 64 -19z m40 -135
l0 -65 -42 -3 c-24 -2 -69 -1 -100 0 l-58 4 0 64 0 64 100 0 100 0 0 -64z"/>
<path d="M187 633 c24 -2 62 -2 85 0 24 2 5 4 -42 4 -47 0 -66 -2 -43 -4z"/>
<path d="M173 575 c0 -22 2 -30 4 -17 2 12 2 30 0 40 -3 9 -5 -1 -4 -23z"/>
<path d="M203 575 c0 -22 2 -30 4 -17 2 12 2 30 0 40 -3 9 -5 -1 -4 -23z"/>
<path d="M223 575 c0 -22 2 -30 4 -17 2 12 2 30 0 40 -3 9 -5 -1 -4 -23z"/>
<path d="M253 575 c0 -22 2 -30 4 -17 2 12 2 30 0 40 -3 9 -5 -1 -4 -23z"/>
<path d="M272 580 c0 -19 2 -27 5 -17 2 9 2 25 0 35 -3 9 -5 1 -5 -18z"/>
<path d="M303 575 c0 -22 2 -30 4 -17 2 12 2 30 0 40 -3 9 -5 -1 -4 -23z"/>
<path d="M112 193 l3 -118 115 0 115 0 0 115 0 115 -118 3 -118 3 3 -118z
m218 -3 l0 -100 -100 0 -100 0 0 100 0 100 100 0 100 0 0 -100z"/>
<path d="M181 251 c-9 -6 -16 -32 -19 -70 l-4 -61 71 0 71 0 0 50 c0 28 -4 50
-9 50 -5 0 -11 9 -14 20 -4 16 -13 20 -44 20 -21 0 -44 -4 -52 -9z m-4 -108
c-3 -10 -5 -4 -5 12 0 17 2 24 5 18 2 -7 2 -21 0 -30z m20 0 c-3 -10 -5 -4 -5
12 0 17 2 24 5 18 2 -7 2 -21 0 -30z m30 0 c-3 -10 -5 -4 -5 12 0 17 2 24 5
18 2 -7 2 -21 0 -30z m20 0 c-3 -10 -5 -4 -5 12 0 17 2 24 5 18 2 -7 2 -21 0
-30z m20 0 c-3 -10 -5 -4 -5 12 0 17 2 24 5 18 2 -7 2 -21 0 -30z m20 0 c-3
-10 -5 -4 -5 12 0 17 2 24 5 18 2 -7 2 -21 0 -30z"/>
</g>
</svg>
