<svg width="18" height="20" viewBox="0 0 18 20" fill="none" xmlns="http://www.w3.org/2000/svg">
<path fill-rule="evenodd" clip-rule="evenodd" d="M6.82354 0C5.99511 0 5.32354 0.671572 5.32354 1.5V5H1.52942C0.700992 5 0.0294189 5.67157 0.0294189 6.5V18.5C0.0294189 19.3284 0.700991 20 1.52942 20H11.1765C12.0049 20 12.6765 19.3284 12.6765 18.5V15H16.4706C17.299 15 17.9706 14.3284 17.9706 13.5V4.80769C17.9706 4.67655 17.9191 4.55066 17.8271 4.45715L13.5918 0.149455C13.4978 0.0538485 13.3694 0 13.2353 0H6.82354ZM11.6765 15H6.82354C5.99511 15 5.32354 14.3284 5.32354 13.5V6H1.52942C1.25328 6 1.02942 6.22386 1.02942 6.5V18.5C1.02942 18.7761 1.25328 19 1.52942 19H11.1765C11.4526 19 11.6765 18.7761 11.6765 18.5V15ZM6.32354 1.5C6.32354 1.22386 6.54739 1 6.82354 1H12.7353V3.80769C12.7353 4.63612 13.4069 5.30769 14.2353 5.30769H16.9706V13.5C16.9706 13.7761 16.7467 14 16.4706 14H6.82354C6.54739 14 6.32354 13.7761 6.32354 13.5V1.5ZM16.2778 4.30769L13.7353 1.72172V3.80769C13.7353 4.08383 13.9592 4.30769 14.2353 4.30769H16.2778Z" fill="#E1E1E1"/>
</svg>
