<svg width="113" height="113" viewBox="0 0 113 113" fill="none" xmlns="http://www.w3.org/2000/svg">
<g clip-path="url(#clip0)">
<path d="M90.8063 85.9139C96.0514 85.9139 100.303 81.6619 100.303 76.4168C100.303 71.1718 96.0514 66.9198 90.8063 66.9198C85.5612 66.9198 81.3092 71.1718 81.3092 76.4168C81.3092 81.6619 85.5612 85.9139 90.8063 85.9139Z" stroke="#22DDE5" stroke-width="2" stroke-miterlimit="10"/>
<path d="M64.4734 69.1628V84.7627H48.8735V69.1628H64.4734ZM66.1663 67.4699H47.1806V86.4556H66.1663V67.4699Z" fill="#22DDE5"/>
<path d="M22.8539 70.6271L30.4719 84.3987H15.329L22.8539 70.6271ZM22.8539 67.1059L12.4765 86.0916H33.2905L22.8539 67.1059Z" fill="#22DDE5"/>
<path d="M56.8555 46.1142C62.1006 46.1142 66.3526 41.8622 66.3526 36.6171C66.3526 31.372 62.1006 27.12 56.8555 27.12C51.6104 27.12 47.3584 31.372 47.3584 36.6171C47.3584 41.8622 51.6104 46.1142 56.8555 46.1142Z" stroke="#22DDE5" stroke-width="2" stroke-miterlimit="10"/>
<path d="M57.0078 46.1057C56.9373 46.6687 56.7499 47.2107 56.4576 47.6971" stroke="#22DDE5" stroke-width="2" stroke-miterlimit="10"/>
<path d="M54.3416 50.0416C51.9546 51.8445 47.4261 53.5882 38.8432 53.5882C22.6846 53.5882 22.8963 62.5351 22.8963 62.5351V62.8991" stroke="#22DDE5" stroke-width="2" stroke-miterlimit="10" stroke-dasharray="3.76 3.76"/>
<path d="M22.8962 64.4988V66.1917" stroke="#22DDE5" stroke-width="2" stroke-miterlimit="10"/>
<path d="M57.0671 46.2917C57.0671 46.2917 57.4396 53.7743 75.2318 53.7743C88.0977 53.7743 90.5778 59.4455 91.0603 61.7562" stroke="url(#paint0_linear)" stroke-width="2" stroke-miterlimit="10"/>
<path d="M87.6575 61.0116L91.1787 66.3696L94.0566 60.6392L87.6575 61.0116Z" fill="url(#paint1_linear)"/>
<path d="M56.8555 66.1918V46.1057" stroke="#22DDE5" stroke-width="2" stroke-miterlimit="10" stroke-dasharray="4 4"/>
<path d="M104.205 0.846443H8.79453C4.40492 0.846443 0.846443 4.40492 0.846443 8.79453V104.205C0.846443 108.595 4.40492 112.154 8.79453 112.154H104.205C108.595 112.154 112.154 108.595 112.154 104.205V8.79453C112.154 4.40492 108.595 0.846443 104.205 0.846443Z" stroke="#22DDE5" stroke-width="2" stroke-miterlimit="10"/>
</g>
<defs>
<linearGradient id="paint0_linear" x1="56.2207" y1="54.0875" x2="92.0252" y2="54.0875" gradientUnits="userSpaceOnUse">
<stop stop-color="white"/>
<stop offset="1" stop-color="#D9EBEB"/>
</linearGradient>
<linearGradient id="paint1_linear" x1="512.686" y1="490.592" x2="783.369" y2="490.592" gradientUnits="userSpaceOnUse">
<stop stop-color="white"/>
<stop offset="1" stop-color="#D9EBEB"/>
</linearGradient>
<clipPath id="clip0">
<rect width="113" height="113" fill="white"/>
</clipPath>
</defs>
</svg>
