<svg width="36" height="36" viewBox="0 0 36 36" fill="none" xmlns="http://www.w3.org/2000/svg">
<path d="M23.1296 10.4418C24.236 10.4418 25.133 9.54486 25.133 8.43843C25.133 7.332 24.236 6.43506 23.1296 6.43506C22.0232 6.43506 21.1262 7.332 21.1262 8.43843C21.1262 9.54486 22.0232 10.4418 23.1296 10.4418Z" fill="#FECF73"/>
<path d="M13.6908 24.5872C13.0534 24.5872 12.4463 24.2836 12.0517 23.7373C11.4446 22.8266 11.6874 21.6125 12.5677 21.0054L22.4631 14.2668C23.3738 13.6597 24.5879 13.9025 25.195 14.7828C25.8021 15.6934 25.5593 16.9076 24.679 17.5147L14.8139 24.2533C14.4497 24.4658 14.0854 24.5872 13.6908 24.5872Z" fill="#6185EE"/>
<path d="M12.4157 17.6964C11.7782 17.6964 11.1711 17.3928 10.7765 16.8465C10.1695 15.9358 10.4123 14.7217 11.2926 14.1146L16.2403 10.7453C17.1509 10.1382 18.3651 10.381 18.9721 11.2613C19.5792 12.1719 19.3364 13.3861 18.4561 13.9932L13.5388 17.3625C13.1745 17.6053 12.8103 17.6964 12.4157 17.6964Z" fill="#73FEBB"/>
<path d="M17.3625 29.5653C18.4689 29.5653 19.3659 28.6684 19.3659 27.562C19.3659 26.4555 18.4689 25.5586 17.3625 25.5586C16.2561 25.5586 15.3591 26.4555 15.3591 27.562C15.3591 28.6684 16.2561 29.5653 17.3625 29.5653Z" fill="#FE7373"/>
</svg>


