<?xml version="1.0" encoding="utf-8"?>
<!-- Generator: Adobe Illustrator 24.1.0, SVG Export Plug-In . SVG Version: 6.00 Build 0)  -->
<svg version="1.1" id="Calque_1" xmlns="http://www.w3.org/2000/svg" xmlns:xlink="http://www.w3.org/1999/xlink" x="0px" y="0px"
	 viewBox="0 0 65 65" style="enable-background:new 0 0 65 65;" xml:space="preserve">
<style type="text/css">
	
		.st0{clip-path:url(#SVGID_2_);fill:none;stroke:#009BA4;stroke-width:2.504;stroke-linecap:round;stroke-linejoin:round;stroke-miterlimit:10;}
	.st1{clip-path:url(#SVGID_2_);fill:none;stroke:#002039;stroke-width:2;stroke-linejoin:round;stroke-miterlimit:10;}
	.st2{fill:none;stroke:#009BA4;stroke-width:2;stroke-linecap:round;stroke-linejoin:round;stroke-miterlimit:10;}
</style>
<g>
	<defs>
		<rect id="SVGID_1_" x="-0.1" y="0.2" width="65" height="65"/>
	</defs>
	<clipPath id="SVGID_2_">
		<use xlink:href="#SVGID_1_"  style="overflow:visible;"/>
	</clipPath>
	<circle class="st0" cx="32.4" cy="32.7" r="31.2"/>
	<path class="st1" d="M45.2,23.6l-1,25.5c-0.1,1.4-1.3,2.6-2.7,2.6H23.9c-1.4,0-2.7-1.2-2.8-2.6l-1.5-25.5 M26.8,47.8l-0.7-24.2
		 M38,47.8l0.7-24.2 M32.4,47.8V23.6 M26.2,20.4v-3.7c0-1.1,0.9-2,2-2h8.4c1.1,0,2,0.9,2,2v3.7"/>
</g>
<line class="st2" x1="17" y1="20.5" x2="47.8" y2="20.5"/>
</svg>
