<?xml version="1.0" encoding="utf-8"?>
<!-- Generator: Adobe Illustrator 24.1.0, SVG Export Plug-In . SVG Version: 6.00 Build 0)  -->
<svg version="1.1" id="Calque_1" xmlns="http://www.w3.org/2000/svg" xmlns:xlink="http://www.w3.org/1999/xlink" x="0px" y="0px"
	 viewBox="0 0 35 35" style="enable-background:new 0 0 35 35;" xml:space="preserve">
<style type="text/css">
	
		.st0{clip-path:url(#SVGID_2_);fill:none;stroke:#002039;stroke-width:1.346;stroke-linecap:round;stroke-linejoin:round;stroke-miterlimit:10;}
	
		.st1{clip-path:url(#SVGID_2_);fill:none;stroke:#009BA4;stroke-width:1.346;stroke-linecap:round;stroke-linejoin:round;stroke-miterlimit:10;}
</style>
<g>
	<defs>
		<rect id="SVGID_1_" x="0" width="35" height="35"/>
	</defs>
	<clipPath id="SVGID_2_">
		<use xlink:href="#SVGID_1_"  style="overflow:visible;"/>
	</clipPath>
	<path class="st0" d="M4.7,28.4c1.8-5.4,6.9-9.2,12.8-9.2s11,3.9,12.8,9.2 M24.6,12.1c0,3.9-3.2,7.1-7,7.1c-3.9,0-7-3.2-7-7.1
		c0-3.9,3.2-7.1,7-7.1C21.4,5,24.6,8.2,24.6,12.1z M34.3,17.5c0,9.3-7.5,16.8-16.8,16.8S0.7,26.8,0.7,17.5S8.2,0.7,17.5,0.7
		S34.3,8.2,34.3,17.5z"/>
	<path class="st1" d="M34.3,17.5c0,9.3-7.5,16.8-16.8,16.8S0.7,26.8,0.7,17.5S8.2,0.7,17.5,0.7S34.3,8.2,34.3,17.5z"/>
</g>
</svg>
