<?xml version="1.0" encoding="utf-8"?>
<!-- Generator: Adobe Illustrator 24.1.0, SVG Export Plug-In . SVG Version: 6.00 Build 0)  -->
<svg version="1.1" id="Calque_1" xmlns="http://www.w3.org/2000/svg" xmlns:xlink="http://www.w3.org/1999/xlink" x="0px" y="0px"
	 viewBox="0 0 65 65" style="enable-background:new 0 0 65 65;" xml:space="preserve">
<style type="text/css">
	
		.st0{clip-path:url(#SVGID_2_);fill:none;stroke:#009BA4;stroke-width:2.504;stroke-linecap:round;stroke-linejoin:round;stroke-miterlimit:10;}
	.st1{clip-path:url(#SVGID_2_);}
	
		.st2{clip-path:url(#SVGID_8_);fill:none;stroke:#002039;stroke-width:1.5;stroke-linecap:round;stroke-linejoin:round;stroke-miterlimit:10;}
	.st3{fill:none;stroke:#009BA4;stroke-width:1.5;stroke-linecap:round;stroke-linejoin:round;stroke-miterlimit:10;}
</style>
<g>
	<g>
		<defs>
			<rect id="SVGID_1_" x="-0.1" y="0.2" width="65" height="65"/>
		</defs>
		<clipPath id="SVGID_2_">
			<use xlink:href="#SVGID_1_"  style="overflow:visible;"/>
		</clipPath>
		<circle class="st0" cx="32.4" cy="32.7" r="31.2"/>
		<g class="st1">
			<defs>
				<rect id="SVGID_3_" x="47.7" y="25.6" width="30" height="30"/>
			</defs>
			<clipPath id="SVGID_4_">
				<use xlink:href="#SVGID_3_"  style="overflow:visible;"/>
			</clipPath>
		</g>
	</g>
</g>
<g>
	<defs>
		<rect id="SVGID_5_" x="12.4" y="13.2" width="39.2" height="41.2"/>
	</defs>
	<clipPath id="SVGID_6_">
		<use xlink:href="#SVGID_5_"  style="overflow:visible;"/>
	</clipPath>
</g>
<g>
	<defs>
		<rect id="SVGID_7_" x="12" y="13.6" width="42.7" height="36.2"/>
	</defs>
	<clipPath id="SVGID_8_">
		<use xlink:href="#SVGID_7_"  style="overflow:visible;"/>
	</clipPath>
	<path class="st2" d="M24.1,41l13.1-3.3 M31.8,34.4l4.4-1.1 M23,36.6l4.4-1.1 M14.3,29.5l34.9-8.7 M51.9,41l-30.5,7.6
		c-1.2,0.3-2.4-0.4-2.7-1.6l-5.4-21.8c-0.3-1.2,0.4-2.4,1.6-2.7l30.5-7.6c1.2-0.3,2.4,0.4,2.7,1.6l5.4,21.8
		C53.9,39.5,53.1,40.7,51.9,41z"/>
</g>
<path class="st3" d="M24.1,41l13.1-3.3 M31.8,34.4l4.4-1.1 M23,36.6l4.4-1.1"/>
</svg>
