<?xml version="1.0" encoding="utf-8"?>
<!-- Generator: Adobe Illustrator 24.1.0, SVG Export Plug-In . SVG Version: 6.00 Build 0)  -->
<svg version="1.1" id="Calque_1" xmlns="http://www.w3.org/2000/svg" xmlns:xlink="http://www.w3.org/1999/xlink" x="0px" y="0px"
	 viewBox="0 0 15 15" style="enable-background:new 0 0 15 15;" xml:space="preserve">
<style type="text/css">
	.st0{fill:none;stroke:#002039;stroke-width:0.75;stroke-miterlimit:10;}
	.st1{fill:none;stroke:#009BA4;stroke-width:0.614;stroke-linejoin:round;stroke-miterlimit:10;}
	.st2{fill:none;stroke:#002039;stroke-width:0.75;stroke-linecap:round;stroke-linejoin:round;stroke-miterlimit:10;}
	.st3{fill:none;stroke:#009BA4;stroke-linecap:round;stroke-linejoin:round;stroke-miterlimit:10;}
</style>
<g>
	<path class="st0" d="M7.6,1.9C11.2,1.8,14,4.4,14,7.5s-2.8,5.6-6.4,5.6"/>
</g>
<g>
	<path class="st1" d="M3,13.1c0-0.5,0.4-1,1-1s1,0.4,1,1c0,0.5-0.4,1-1,1S3,13.6,3,13.1z"/>
</g>
<polyline class="st2" points="6.3,13.1 7.6,13.1 7.6,8.7 "/>
<g>
	<path class="st1" d="M3,7.5c0-0.5,0.4-1,1-1s1,0.4,1,1s-0.4,1-1,1S3,8,3,7.5z"/>
</g>
<g>
	<path class="st1" d="M3,1.9c0,0.5,0.4,1,1,1s1-0.4,1-1c0-0.5-0.4-1-1-1S3,1.3,3,1.9z"/>
</g>
<polyline class="st2" points="6.3,1.9 7.6,1.9 7.6,6.3 "/>
<path class="st3" d="M12.4,7.5H9.1"/>
<line class="st2" x1="6.3" y1="7.4" x2="7.6" y2="7.4"/>
</svg>
