<?xml version="1.0" encoding="utf-8"?>
<svg version="1.1" id="Calque_1" xmlns="http://www.w3.org/2000/svg" xmlns:xlink="http://www.w3.org/1999/xlink" x="0px" y="0px"
     viewBox="0 0 30 30" style="enable-background:new 0 0 30 30" xml:space="preserve">
 <style type="text/css">
 .st0{fill:none;stroke:#cecece;stroke-linecap:round;stroke-linejoin:round;stroke-miterlimit:10}
 .st1{fill:none;stroke:#009BA4;stroke-linecap:round;stroke-linejoin:round;stroke-miterlimit:10}
 </style>
 <g><path class="st0" d="M3.9,24.4c1.6-4.6,5.9-7.9,11.1-7.9c5.1,0,9.5,3.3,11.1,8 M21.1,10.3c0,3.4-2.7,6.1-6.1,6.1s-6.1-2.7-6.1-6.1
c0-3.4,2.7-6.1,6.1-6.1S21.1,7,21.1,10.3z M29.5,15c0,8-6.5,14.5-14.5,14.5S0.5,23,0.5,15S7,0.5,15,0.5S29.5,7,29.5,15z"/>
 <circle class="st1" cx="15" cy="15" r="14.5"/></g>
</svg>
