<svg xmlns="http://www.w3.org/2000/svg" width="17" height="16" viewBox="0 0 17 16" fill="none">
<path fill-rule="evenodd" clip-rule="evenodd" d="M8.5 0C3.80675 0 0 3.67296 0 8.20126C0 11.8239 2.45092 14.8931 5.78834 16C6.20552 16.0503 6.36196 15.7987 6.36196 15.5975C6.36196 15.3962 6.36196 14.8931 6.36196 14.1887C4.01534 14.6918 3.49387 13.0818 3.49387 13.0818C3.12883 12.1258 2.55522 11.8742 2.55522 11.8742C1.77301 11.3711 2.60736 11.3711 2.60736 11.3711C3.44172 11.4214 3.91104 12.2264 3.91104 12.2264C4.69325 13.4843 5.89264 13.1321 6.36196 12.9308C6.41411 12.3774 6.67485 12.0252 6.88344 11.8239C5.00614 11.6226 3.02454 10.9182 3.02454 7.74843C3.02454 6.84277 3.33742 6.13837 3.91104 5.53459C3.8589 5.38365 3.54601 4.5283 4.01534 3.42138C4.01534 3.42138 4.7454 3.22013 6.36196 4.27673C7.03988 4.07547 7.76994 4.02516 8.5 4.02516C9.23006 4.02516 9.96012 4.12579 10.638 4.27673C12.2546 3.22013 12.9847 3.42138 12.9847 3.42138C13.454 4.5283 13.1411 5.38365 13.089 5.58491C13.6104 6.13837 13.9755 6.89308 13.9755 7.79874C13.9755 10.9686 11.9939 11.6226 10.1166 11.8239C10.4294 12.0755 10.6902 12.5786 10.6902 13.3333C10.6902 14.4403 10.6902 15.2956 10.6902 15.5975C10.6902 15.7987 10.8466 16.0503 11.2638 16C14.6534 14.8931 17.0521 11.8239 17.0521 8.20126C17 3.67296 13.1933 0 8.5 0Z" fill="#E1E1E1"/>
</svg>