<?xml version="1.0" encoding="UTF-8" standalone="no"?>
<!-- Created with Inkscape (http://www.inkscape.org/) -->

<svg
   xmlns:dc="http://purl.org/dc/elements/1.1/"
   xmlns:cc="http://creativecommons.org/ns#"
   xmlns:rdf="http://www.w3.org/1999/02/22-rdf-syntax-ns#"
   xmlns:svg="http://www.w3.org/2000/svg"
   xmlns="http://www.w3.org/2000/svg"
   xmlns:xlink="http://www.w3.org/1999/xlink"
   xmlns:sodipodi="http://sodipodi.sourceforge.net/DTD/sodipodi-0.dtd"
   xmlns:inkscape="http://www.inkscape.org/namespaces/inkscape"
   width="1024"
   height="1024"
   viewBox="0 0 270.93333 270.93335"
   version="1.1"
   id="svg8"
   inkscape:version="0.92.4 (5da689c313, 2019-01-14)"
   sodipodi:docname="common-logo-1024.svg"
   inkscape:export-filename="/home/leo/Desktop/Projects/FirstKiss/software/octomy-common/design/common-logo-1024.png"
   inkscape:export-xdpi="96.000008"
   inkscape:export-ydpi="96.000008">
  <defs
     id="defs2">
    <linearGradient
       gradientTransform="matrix(0.28226572,0,0,0.28226572,-2327.059,-318.56337)"
       gradientUnits="userSpaceOnUse"
       y2="1715.8787"
       x2="9309.876"
       y1="1757.0229"
       x1="9309.876"
       id="linearGradient11304-7"
       xlink:href="#linearGradient12136"
       inkscape:collect="always" />
    <linearGradient
       id="linearGradient12136"
       inkscape:collect="always">
      <stop
         id="stop12138"
         offset="0"
         style="stop-color:#20ae22;stop-opacity:1" />
      <stop
         id="stop12140"
         offset="1"
         style="stop-color:#44dd45;stop-opacity:1" />
    </linearGradient>
    <linearGradient
       gradientTransform="matrix(0.68872496,0,0,0.68872496,912.66996,-246.34477)"
       gradientUnits="userSpaceOnUse"
       y2="598.72168"
       x2="-881.30847"
       y1="615.57861"
       x1="-881.30847"
       id="linearGradient4274"
       xlink:href="#hub_background_gradient"
       inkscape:collect="always" />
    <linearGradient
       id="hub_background_gradient"
       inkscape:collect="always">
      <stop
         style="stop-color:#d8d8d8;stop-opacity:1"
         id="hub_background_color_stop2"
         offset="0" />
      <stop
         style="stop-color:#ffffff;stop-opacity:1"
         id="hub_background_color_stop1"
         offset="1" />
    </linearGradient>
  </defs>
  <sodipodi:namedview
     id="base"
     pagecolor="#ffffff"
     bordercolor="#666666"
     borderopacity="1.0"
     inkscape:pageopacity="0.0"
     inkscape:pageshadow="2"
     inkscape:zoom="0.7"
     inkscape:cx="-217.04298"
     inkscape:cy="183.11959"
     inkscape:document-units="mm"
     inkscape:current-layer="g828"
     showgrid="false"
     units="px"
     fit-margin-top="0"
     fit-margin-left="0"
     fit-margin-right="0"
     fit-margin-bottom="0"
     inkscape:window-width="3764"
     inkscape:window-height="2131"
     inkscape:window-x="2319"
     inkscape:window-y="194"
     inkscape:window-maximized="1"
     inkscape:snap-midpoints="false"
     inkscape:snap-object-midpoints="true" />
  <metadata
     id="metadata5">
    <rdf:RDF>
      <cc:Work
         rdf:about="">
        <dc:format>image/svg+xml</dc:format>
        <dc:type
           rdf:resource="http://purl.org/dc/dcmitype/StillImage" />
        <dc:title></dc:title>
      </cc:Work>
    </rdf:RDF>
  </metadata>
  <g
     inkscape:label="Layer 1"
     inkscape:groupmode="layer"
     id="layer1"
     transform="translate(-373.22086,-39.137461)">
    <g
       id="g828"
       inkscape:export-xdpi="95"
       inkscape:export-ydpi="95">
      <g
         id="g862"
         transform="matrix(7.1000556,0,0,7.1000556,-1708.5421,-1048.5144)">
        <path
           inkscape:connector-curvature="0"
           d="m 322.71996,178.90277 a 10.436601,10.436601 0 0 1 -10.4366,10.4365 10.436601,10.436601 0 0 1 -10.4365,-10.4365 10.436601,10.436601 0 0 1 10.4365,-10.4366 10.436601,10.436601 0 0 1 10.4366,10.4366 z m -4.6894,-16.5951 a 5.7471231,5.7471231 0 0 1 -5.7471,5.7471 5.7471231,5.7471231 0 0 1 -5.7471,-5.7471 5.7471231,5.7471231 0 0 1 5.7471,-5.7471 5.7471231,5.7471231 0 0 1 5.7471,5.7471 z"
           style="opacity:1;fill:url(#linearGradient4274);fill-opacity:1;fill-rule:evenodd;stroke:none;stroke-width:3.61611342;stroke-linecap:round;stroke-linejoin:round;stroke-miterlimit:4;stroke-dasharray:none;stroke-dashoffset:0;stroke-opacity:1"
           id="circle5802" />
        <path
           sodipodi:nodetypes="ccccccccccccccccccccc"
           inkscape:connector-curvature="0"
           id="path5732-3-3"
           d="m 312.28336,153.30827 c -4.9781,1e-4 -9.0136,4.0356 -9.0137,9.0138 -0.023,1.9772 -0.3624,3.2072 -1.5376,4.4655 -2.5132,2.6634 -3.9499,6.2088 -3.955,9.9356 -1e-4,8.0116 6.4947,14.5064 14.5063,14.5063 8.0117,1e-4 14.5065,-6.4947 14.5064,-14.5063 -0.01,-3.7766 -1.4813,-7.3671 -4.0576,-10.0419 -1.1795,-1.1493 -1.4268,-2.5891 -1.435,-4.3592 -1e-4,-4.9782 -4.0356,-9.0137 -9.0138,-9.0138 z m 0,3.6171 c 2.9806,-10e-5 5.3968,2.4162 5.3967,5.3967 0,1.2572 -0.4303,2.4148 -1.1522,3.3326 -1.9875,2.5435 -6.2803,3.0629 -8.5953,-0.1439 -0.6609,-0.9003 -1.0449,-2.0076 -1.0458,-3.1887 -10e-5,-2.9805 2.4161,-5.3968 5.3966,-5.3967 z m 5.2821,13.2125 c 2.9562,1.7897 4.9311,5.0357 4.9319,8.7414 -1e-4,5.641 -4.573,10.2139 -10.214,10.214 -5.6409,-1e-4 -10.2139,-4.573 -10.2139,-10.214 0,-3.7468 2.0373,-7.0622 5.1094,-8.8362 2.3231,-1.424 7.8527,-1.3094 10.3866,0.095 z"
           style="opacity:1;fill:url(#linearGradient11304-7);fill-opacity:1;fill-rule:evenodd;stroke:none;stroke-width:3.61611342;stroke-linecap:round;stroke-linejoin:round;stroke-miterlimit:4;stroke-dasharray:none;stroke-dashoffset:0;stroke-opacity:1" />
        <path
           d="m 313.69486,158.90447 v 3.3465 m -2.8232,-3.3465 v 3.3465 m -2.5783,0.01 a 3.9898288,3.9898288 0 0 0 3.9899,3.9898 3.9898288,3.9898288 0 0 0 3.9898,-3.9898"
           style="fill:none;fill-rule:evenodd;stroke:#000000;stroke-width:1.171;stroke-linecap:round;stroke-linejoin:miter;stroke-miterlimit:4;stroke-dasharray:none;stroke-opacity:1"
           id="hub_face"
           inkscape:connector-curvature="0">
          <title
             id="title5255">pathSmile</title>
        </path>
        <g
           inkscape:export-ydpi="95"
           inkscape:export-xdpi="95"
           transform="matrix(0.11122075,0,0,0.11122075,256.59608,159.98482)"
           id="g843">
          <ellipse
             style="opacity:1;fill:#000000;fill-opacity:1;stroke:none;stroke-width:74.84903717;stroke-linecap:round;stroke-miterlimit:4;stroke-dasharray:none;stroke-opacity:1"
             id="path819"
             cx="439.55457"
             cy="168.9399"
             rx="18.849548"
             ry="18.026737" />
          <ellipse
             ry="18.026737"
             rx="18.849548"
             cy="168.9399"
             cx="500.69199"
             id="ellipse836"
             style="opacity:1;fill:#000000;fill-opacity:1;stroke:none;stroke-width:74.84903717;stroke-linecap:round;stroke-miterlimit:4;stroke-dasharray:none;stroke-opacity:1" />
          <ellipse
             style="opacity:1;fill:#000000;fill-opacity:1;stroke:none;stroke-width:74.84903717;stroke-linecap:round;stroke-miterlimit:4;stroke-dasharray:none;stroke-opacity:1"
             id="ellipse838"
             cx="561.82935"
             cy="168.9399"
             rx="18.849548"
             ry="18.026737" />
        </g>
      </g>
    </g>
  </g>
</svg>
