<?xml version="1.0" standalone="no"?>
<!DOCTYPE svg PUBLIC "-//W3C//DTD SVG 20010904//EN"
 "http://www.w3.org/TR/2001/REC-SVG-20010904/DTD/svg10.dtd">
<svg version="1.0" xmlns="http://www.w3.org/2000/svg"
 width="46.000000pt" height="128.000000pt" viewBox="0 0 46.000000 128.000000"
 preserveAspectRatio="xMidYMid meet">
<metadata>
Created by potrace 1.16, written by Peter Selinger 2001-2019
</metadata>
<g transform="translate(0.000000,128.000000) scale(0.100000,-0.100000)"
fill="#000000" stroke="none">
<path d="M190 1222 c0 -55 -1 -58 -30 -69 -40 -15 -38 -33 3 -34 l32 -2 -35
-7 c-31 -7 -32 -7 -7 -9 38 -2 34 -21 -5 -22 l-33 -1 30 -8 30 -8 -30 -2 c-25
-2 -26 -3 -7 -7 31 -6 28 -23 -5 -24 l-28 -1 25 -8 25 -8 -25 -2 c-14 -1 -19
-4 -12 -7 18 -7 15 -20 -6 -25 -22 -6 -32 -60 -32 -170 0 -52 4 -70 15 -74 11
-5 15 -23 15 -74 0 -67 1 -69 32 -84 17 -9 56 -16 88 -16 32 0 71 7 88 16 31
15 32 17 32 84 0 54 3 69 16 74 15 6 16 20 11 109 -6 112 -12 137 -33 137 -20
0 -17 18 4 23 12 3 10 5 -8 7 -23 1 -23 2 -5 10 19 8 19 9 -2 9 -13 1 -23 5
-23 10 0 5 10 12 23 14 18 3 16 5 -8 7 -30 2 -30 2 -5 10 l25 8 -27 1 c-16 1
-28 6 -28 11 0 6 12 11 28 11 21 2 18 3 -13 9 -39 7 -39 7 -7 9 21 1 32 6 32
16 0 8 -14 18 -32 23 -32 8 -33 10 -36 65 l-3 57 -34 0 -35 0 0 -58z m140
-557 l0 -65 -100 0 -100 0 0 65 0 65 100 0 100 0 0 -65z"/>
<path d="M114 497 c-2 -7 -3 -60 -2 -118 l3 -104 115 0 115 0 0 115 0 115
-113 3 c-87 2 -114 0 -118 -11z m216 -107 l0 -100 -100 0 -100 0 0 100 0 100
100 0 100 0 0 -100z"/>
<path d="M176 438 c-9 -13 -16 -43 -16 -70 l0 -48 70 0 70 0 0 50 c0 28 -4 50
-9 50 -5 0 -11 9 -14 20 -8 30 -80 28 -101 -2z"/>
</g>
</svg>
