<svg width="64" height="64" viewBox="0 0 64 64" fill="none" xmlns="http://www.w3.org/2000/svg">
<path d="M24 32L11 32" stroke="#00ACFF" stroke-width="2" stroke-miterlimit="10"/>
<path d="M16 37L11 32L16 27" stroke="#00ACFF" stroke-width="2" stroke-miterlimit="10" stroke-linejoin="bevel"/>
<path d="M35 26H37V36H35V26Z" fill="black"/>
<path d="M39 22H41V36H39V22Z" fill="black"/>
<path d="M43 20H45V30H43V20Z" fill="black"/>
<path d="M43 34H45V42H43V34Z" fill="black"/>
<path d="M35 38H37V42H35V38Z" fill="black"/>
<path d="M37 36H41V38H37V36Z" fill="black"/>
<path d="M33 36H35V38H33V36Z" fill="black"/>
<path d="M49 36H51V38H49V36Z" fill="black"/>
<path d="M47 28H49V42H47V28Z" fill="black"/>
<path d="M51 26H53V36H51V26Z" fill="black"/>
<path d="M47 57C40.2833 57 33.8408 54.3672 29.0899 49.6794C25.3122 45.9518 22.8502 41.1676 22 36.0298H23.6782C24.5122 40.7273 26.7916 45.096 30.2563 48.5148C34.6962 52.8958 40.719 55.3579 47 55.3579V57Z" fill="#00ACFF"/>
<path d="M23.6782 27.9702C24.5122 23.2727 26.7916 18.904 30.2563 15.4852C34.6962 11.1042 40.719 8.64209 47 8.64209L47 7C40.2833 7 33.8408 9.63276 29.0899 14.3206C25.3122 18.0482 22.8502 22.8324 22 27.9702H23.6782Z" fill="#00ACFF"/>
</svg>
