<svg width="64" height="64" viewBox="0 0 64 64" fill="none" xmlns="http://www.w3.org/2000/svg">
<path d="M40 32L53 32" stroke="#00ACFF" stroke-width="2" stroke-miterlimit="10"/>
<path d="M48 37L53 32L48 27" stroke="#00ACFF" stroke-width="2" stroke-miterlimit="10" stroke-linejoin="bevel"/>
<path d="M13 26H15V36H13V26Z" fill="black"/>
<path d="M17 22H19V36H17V22Z" fill="black"/>
<path d="M21 20H23V30H21V20Z" fill="black"/>
<path d="M21 34H23V42H21V34Z" fill="black"/>
<path d="M13 38H15V42H13V38Z" fill="black"/>
<path d="M15 36H19V38H15V36Z" fill="black"/>
<path d="M11 36H13V38H11V36Z" fill="black"/>
<path d="M27 36H29V38H27V36Z" fill="black"/>
<path d="M25 28H27V42H25V28Z" fill="black"/>
<path d="M29 26H31V36H29V26Z" fill="black"/>
<path d="M17 57C23.7167 57 30.1592 54.3672 34.9101 49.6794C38.6878 45.9518 41.1498 41.1676 42 36.0298H40.3218C39.4878 40.7273 37.2084 45.096 33.7437 48.5148C29.3038 52.8958 23.281 55.3579 17 55.3579V57Z" fill="#00ACFF"/>
<path d="M40.3218 27.9702C39.4878 23.2727 37.2084 18.904 33.7437 15.4852C29.3038 11.1042 23.281 8.64209 17 8.64209L17 7C23.7167 7 30.1592 9.63276 34.9101 14.3206C38.6878 18.0482 41.1498 22.8324 42 27.9702H40.3218Z" fill="#00ACFF"/>
</svg>
