<svg xmlns="http://www.w3.org/2000/svg" xmlns:svg="http://www.w3.org/2000/svg" xmlns:xlink="http://www.w3.org/1999/xlink" width="640" height="480" style=""><rect id="backgroundrect" width="100%" height="100%" x="0" y="0" fill="none" stroke="none"/>
 <!-- Created with SVG-edit - http://svg-edit.googlecode.com/ -->
 <defs>
  <symbol xmlns:xlink="http://www.w3.org/1999/xlink" xmlns="http://www.w3.org/2000/svg" viewBox="0 0 64 64" height="64px" width="64px" y="0px" x="0px" id="svg_2">
   <polyline points="0,48 15,48 47,16 63,16 " stroke-miterlimit="10" stroke-width="2" stroke="#000000" fill="none" id="svg_1"/>
   <polyline points="37,38 47,48 63,48 " stroke-miterlimit="10" stroke-width="2" stroke="#000000" fill="none" id="svg_6"/>
   <polyline points="0,16 15,16 25,26 " stroke-miterlimit="10" stroke-width="2" stroke="#000000" fill="none" id="svg_7"/>
   <path d="m56,23" stroke-miterlimit="10" stroke-linejoin="bevel" stroke-width="2" stroke="#000000" fill="none" id="svg_8"/>
   <polyline points="56,23 63,16 56,9   " stroke-miterlimit="10" stroke-linejoin="bevel" stroke-width="2" stroke="#000000" fill="none" id="svg_9"/>
   <polyline points="56,55 63,48   56,41 " stroke-miterlimit="10" stroke-linejoin="bevel" stroke-width="2" stroke="#000000" fill="none" id="svg_10"/>
  </symbol>
 </defs>
 <g style="" class="currentLayer">
  <title>Layer 1</title>
  <use x="0" y="0" transform="matrix(2.5,0,0,2.5,0,0) " xlink:href="#svg_2" id="svg_3"/>
  <g id="svg_4"/>
  <text stroke="#000000" transform="matrix(2.094387557236047,0,0,2.0675742524281873,-8.395085260920943,-55.77259343399098) " xml:space="preserve" text-anchor="middle" font-family="serif" font-size="24" id="svg_5" y="74" x="15" stroke-width="0" fill="#000000" class="">C</text>
 </g>
</svg>