<svg width="85" height="35" viewBox="0 0 85 35" fill="none" xmlns="http://www.w3.org/2000/svg">
<path d="M0.923912 14.5526V4.05255H10.2554V6.90782H4.25V9.76308H9.70109V12.6183H4.25V13.9999C4.25 15.1973 4.52717 15.6578 5.72826 15.6578H10.5326V18.421H4.52717C2.125 18.421 0.923912 16.9473 0.923912 14.5526ZM5.17391 3.0394H3.04891V2.76308L4.89674 0.460449H8.40761V0.64466L5.17391 3.0394Z" fill="#1F1F22"/>
<path d="M13.3044 4.05249H16.3533L21.712 12.5262V4.05249H25.038V18.4209H22.0815L16.6304 9.85512V18.4209H13.3044V4.05249Z" fill="#1F1F22"/>
<path d="M28.087 14.5525V4.05249H37.4185V6.90775H31.413V9.76302H36.8641V12.6183H31.413V13.9999C31.413 15.1972 31.6902 15.6578 32.8913 15.6578H37.6957V18.4209H31.6902C29.288 18.4209 28.087 16.9472 28.087 14.5525Z" fill="#1F1F22"/>
<path d="M40.4674 4.05249H45.7337C49.0598 4.05249 51.1848 5.06565 51.1848 8.84196C51.1848 11.1446 50.0761 12.342 48.875 13.0788C50.3533 14.2762 52.0163 17.4078 52.1087 18.3288V18.4209H48.5054C48.2283 17.592 47.1196 14.9209 45.8261 14.092H43.7935V18.4209H40.4674V4.05249ZM45.087 11.4209C46.9348 11.4209 47.6739 10.8683 47.6739 9.02617C47.6739 7.18407 46.9348 6.90775 45.087 6.90775H43.7011V11.4209H45.087Z" fill="#1F1F22"/>
<path d="M52.9402 11.9737V10.5C52.9402 5.89472 56.4511 3.86841 60.6087 3.86841C62.087 3.86841 63.6576 4.14472 65.1359 4.60525V7.46051H64.9511C63.5652 6.90788 61.7174 6.72367 60.4239 6.72367C58.0217 6.72367 56.3587 8.10525 56.3587 10.5V11.9737C56.3587 14.1842 57.7446 15.75 59.962 15.75H60.7011C61.0707 15.75 61.7174 15.6579 62.087 15.6579V13.3553H60.0543V10.5H65.2283V17.7763C64.4891 18.0526 62.6413 18.6052 60.8859 18.6052H60.0543C55.8043 18.6052 52.9402 16.3026 52.9402 11.9737Z" fill="#1F1F22"/>
<path d="M71.3261 4.05249H68V18.513H71.3261V4.05249Z" fill="#1F1F22"/>
<path d="M74.375 14.5525V4.05249H83.7065V6.90775H77.7011V9.76302H83.1522V12.6183H77.7011V13.9999C77.7011 15.1972 77.9783 15.6578 79.1793 15.6578H83.9837V18.4209H77.9783C75.5761 18.4209 74.375 16.9472 74.375 14.5525Z" fill="#1F1F22"/>
<path d="M0.923912 22.6577H5.2663C7.94565 22.6577 9.70109 23.8551 9.70109 26.9867C9.70109 30.3025 7.57609 31.4998 4.98913 31.4998H3.60326V34.4472H0.923912V22.6577ZM4.71196 29.1051C6.19022 29.1051 6.83696 28.6446 6.83696 26.8946C6.83696 25.3288 6.19022 24.9603 4.71196 24.9603H3.60326V29.1051H4.71196Z" fill="#1F1F22"/>
<path d="M10.3478 34.263C10.8098 32.1446 11.1793 31.0393 11.7337 29.3814C12.4728 26.8946 13.6739 23.5788 14.2283 22.6577H17.5543C18.0163 23.5788 19.3098 26.8946 20.0489 29.3814C20.5109 31.0393 20.8804 32.2367 21.4348 34.263V34.3551H18.4783C18.2935 33.6182 18.1087 32.6972 17.9239 31.7761H13.8587C13.5815 32.6972 13.3967 33.6182 13.212 34.3551H10.5326V34.263H10.3478ZM14.3207 29.4735H17.1848C16.6304 27.4472 16.0761 25.513 15.7989 24.7761C15.4293 25.513 14.875 27.4472 14.3207 29.4735Z" fill="#1F1F22"/>
<path d="M22.913 22.6577H27.2554C29.9348 22.6577 31.6902 23.4867 31.6902 26.6182C31.6902 28.4603 30.7663 29.4735 29.75 30.0261C30.9511 31.0393 32.2446 33.5261 32.4293 34.3551V34.4472H29.4728C29.288 33.8025 28.2717 31.5919 27.3478 30.9472H25.6848V34.4472H23.0054V22.6577H22.913ZM26.7011 28.6446C28.1793 28.6446 28.8261 28.184 28.8261 26.7103C28.8261 25.2367 28.1793 24.9603 26.7011 24.9603H25.5924V28.6446H26.7011Z" fill="#1F1F22"/>
<path d="M35.9402 24.9603H32.7065V22.6577H41.8533V24.9603H38.6196V34.4472H35.9402V24.9603Z" fill="#1F1F22"/>
<path d="M42.038 34.263C42.5 32.1446 42.8696 31.0393 43.4239 29.3814C44.163 26.8946 45.3641 23.5788 45.9185 22.6577H49.2446C49.7065 23.5788 51 26.8946 51.7391 29.3814C52.2011 31.0393 52.5706 32.2367 53.125 34.263V34.3551H50.1685C49.9837 33.6182 49.7989 32.6972 49.6141 31.7761H45.5489C45.2717 32.6972 45.087 33.6182 44.9022 34.3551H42.2228V34.263H42.038ZM45.9185 29.4735H48.7826C48.2283 27.4472 47.6739 25.513 47.3967 24.7761C47.1196 25.513 46.5652 27.4472 45.9185 29.4735Z" fill="#1F1F22"/>
<path d="M53.9565 29.1052V27.9078C53.9565 24.1315 56.8207 22.4736 60.2391 22.4736C61.4402 22.4736 62.7337 22.6578 63.9348 23.1184V25.421H63.8424C62.6413 24.9605 61.163 24.7763 60.1467 24.7763C58.2065 24.7763 56.8207 25.8815 56.8207 27.8157V29.0131C56.8207 30.7631 58.0217 32.0526 59.7772 32.0526H60.4239C60.7011 32.0526 61.2554 31.9605 61.5326 31.9605V30.1184H59.7772V27.8157H63.9348V33.8026C63.288 34.0789 61.8098 34.4473 60.3315 34.4473H59.6848C56.2663 34.5394 53.9565 32.6052 53.9565 29.1052Z" fill="#1F1F22"/>
<path d="M66.2446 31.2235V22.6577H73.913V24.9603H69.0163V27.263H73.4511V29.5656H69.0163V30.6708C69.0163 31.684 69.2935 32.0524 70.2174 32.0524H74.1902V34.3551H69.2935C67.2609 34.4472 66.2446 33.1577 66.2446 31.2235ZM69.7554 21.9208H68V21.7366L69.5707 19.8945H72.4348V20.0787L69.7554 21.9208Z" fill="#1F1F22"/>
<path d="M76.3152 31.2235V22.6577H83.9837V24.9603H79.087V27.263H83.5217V29.5656H79.087V30.6709C79.087 31.684 79.3641 32.0524 80.288 32.0524H84.2609V34.3551H79.3641C77.3315 34.4472 76.3152 33.1577 76.3152 31.2235Z" fill="#1F1F22"/>
</svg>
