<?xml version="1.0" encoding="UTF-8" standalone="no"?>
<svg
   xmlns:dc="http://purl.org/dc/elements/1.1/"
   xmlns:cc="http://creativecommons.org/ns#"
   xmlns:rdf="http://www.w3.org/1999/02/22-rdf-syntax-ns#"
   xmlns:svg="http://www.w3.org/2000/svg"
   xmlns="http://www.w3.org/2000/svg"
   width="4.4449167cm"
   height="4.62992cm"
   viewBox="0 0 4.7581306 4.6112203"
   version="1.1"
   id="svg285">
  <style type="text/css">
   .st0{fill:#4527a0;}
   </style>
  <defs
     id="defs279" />
  <metadata
     id="metadata282">
    <rdf:RDF>
      <cc:Work
         rdf:about="">
        <dc:format>image/svg+xml</dc:format>
        <dc:type
           rdf:resource="http://purl.org/dc/dcmitype/StillImage" />
        <dc:title></dc:title>
      </cc:Work>
    </rdf:RDF>
  </metadata>
  <path
     d="M 4.5172771,2.9940757 C 4.2241637,2.5842705 3.686787,2.4021287 3.2226946,2.4476662 2.954005,2.4704203 2.758597,2.6753375 2.807447,2.9940757 2.8563,3.4266536 3.906624,3.312814 4.175311,3.8819935 4.3707217,4.2918014 4.0043267,4.7699087 4.0043267,4.7699087 c 0,0 1.2701614,-0.7285487 0.5129504,-1.775833 z"
     class="st0"
     id="path64-7_7_-3" />
  <path
     d="M 0.04380799,2.3269183 C -0.20045534,1.0519573 0.63003204,0.1640421 1.2162587,-0.08639661 1.802488,-0.31406527 2.6329728,-0.15469615 2.8528098,0.4144808 3.3169075,1.5983695 1.5337984,2.0992469 1.9734697,3.4197374 2.2421568,4.239353 3.4878892,4.3076526 3.4878892,4.3076526 c 0,0 -3.00441251,0.47811 -3.44408121,-1.9807343 z"
     class="st0"
     id="path66-5_7_-6" />
</svg>
